<svg width="91" height="40" viewBox="0 0 91 40" fill="none" xmlns="http://www.w3.org/2000/svg">
<g clip-path="url(#clip0_13_287)">
<path d="M18.1327 16.6706C21.314 19.1142 23.178 22.6511 23.6391 26.6228C24.0013 29.7514 22.7894 34.5332 19.0219 34.8494C16.9867 35.0206 15.0107 33.4069 13.9569 31.8196C12.8701 30.1861 12.7713 28.0982 13.127 26.2276C13.8383 22.4601 16.9076 19.4501 18.6135 16.1173C18.4094 16.1371 18.2052 16.1568 18.001 16.1766C21.4326 21.5314 21.4721 28.8425 19.0944 34.6123C19.3117 34.6189 19.5291 34.632 19.753 34.6386C17.9549 28.7568 17.9549 22.5655 18.607 16.4927C18.6399 16.1634 18.2118 15.8933 17.9812 16.2029C15.7616 19.1734 14.8065 22.9014 14.7341 26.5767C14.6814 29.152 14.8131 32.9459 16.6112 34.9811C16.9142 35.3236 17.4938 34.9087 17.1908 34.5662C15.5442 32.7022 15.4915 29.376 15.4388 27.018C15.3598 23.402 16.3478 19.5752 18.5213 16.6574C18.3106 16.5586 18.1064 16.4664 17.8956 16.3676C17.2304 22.5655 17.237 28.882 19.0746 34.8889C19.1668 35.1787 19.6147 35.1919 19.7332 34.9152C22.2164 28.8952 22.1505 21.3404 18.574 15.7616C18.4225 15.5245 18.08 15.5904 17.9615 15.8209C15.8735 19.9111 12.218 23.4218 12.218 28.2958C12.218 32.004 15.2808 35.5541 19.0878 35.5607C22.605 35.5673 24.3306 31.1412 24.4097 28.2365C24.5348 23.5403 22.302 18.9758 18.5938 16.1239C18.2315 15.8472 17.7705 16.3939 18.1393 16.6706H18.1327Z" fill="white"/>
<path d="M18.3171 15.3202C17.3819 16.4531 16.6903 17.7968 15.5047 18.7057C14.1479 19.7332 12.6132 20.5302 11.039 21.1691C7.42302 22.6313 3.75432 21.5379 0.69817 19.3446C0.711343 19.5093 0.731103 19.6805 0.744276 19.8452C2.93759 17.4345 4.69619 14.5826 8.00263 13.6209C9.97201 13.0479 12.0797 13.4365 13.9437 14.1676C15.4981 14.7736 16.8352 15.8472 18.495 16.1765C18.4752 15.946 18.4555 15.722 18.4357 15.4915C15.6825 16.6112 13.0611 18.0537 10.1762 18.8309C6.99489 19.6871 3.5699 19.3512 0.322738 19.3051C0.37543 19.5356 0.428122 19.7661 0.480814 19.9901C3.11543 18.8045 5.59855 17.1513 8.49662 16.6902C11.4342 16.2226 14.4508 15.8801 17.428 15.9921C17.889 16.0118 17.8166 15.3005 17.3621 15.2807C14.3652 15.1688 11.3881 15.5705 8.43076 15.9789C5.46682 16.3873 2.90466 18.1129 0.230526 19.3249C-0.151493 19.4961 -0.0131754 20.0099 0.388603 20.0099C3.55014 20.056 6.81047 20.3392 9.91931 19.6147C13.0084 18.8967 15.7747 17.3489 18.686 16.1567C19.0153 16.025 18.9758 15.5442 18.6267 15.4717C16.7298 15.0897 15.1622 13.7461 13.3114 13.173C11.4671 12.5934 9.63609 12.5078 7.75234 12.9491C4.34711 13.7526 2.39749 16.9669 0.197594 19.3841C0.0724495 19.5224 0.0922091 19.7727 0.243699 19.8847C3.08908 21.9331 6.52066 23.178 10.0115 22.2624C11.8558 21.7816 13.5946 20.82 15.182 19.7991C16.8088 18.7452 17.6585 17.2369 18.8704 15.7747C19.1602 15.419 18.6135 14.9646 18.3237 15.3202H18.3171Z" fill="white"/>
<path d="M18.4357 16.8681C20.6949 16.8681 22.8421 18.0142 25.121 18.1657C27.064 18.2974 28.8819 17.7771 30.5615 16.8286C33.8613 14.9712 35.3104 11.6187 36.8319 8.34517C36.9175 8.16075 36.8319 7.96315 36.6606 7.87094C33.4464 6.0794 29.2047 5.87522 25.7863 7.2057C21.8739 8.73378 20.0362 13.206 17.698 16.361C17.4609 16.6837 17.8363 17.1118 18.1788 16.8813C19.7793 15.8011 21.9134 16.3149 23.7247 16.4005C25.4635 16.4861 27.1628 16.1963 28.7831 15.564C30.5154 14.8922 32.05 13.588 33.3937 12.3366C34.7242 11.1049 35.284 9.33315 36.5948 8.1344C36.9307 7.83142 36.5816 7.31109 36.1798 7.55479C34.6978 8.45714 32.9195 8.04878 31.3058 8.44397C29.5142 8.88527 27.8017 9.56368 26.1024 10.2619C23.0067 11.5331 20.8332 13.7988 18.4357 16.0448C18.1525 16.3083 18.5279 16.7035 18.8375 16.6047C22.5918 15.4125 26.2868 14.2994 29.8238 12.5474C32.2147 11.3618 35.0667 10.1894 36.7067 7.9895C36.9768 7.62065 36.4367 7.16618 36.16 7.53503C34.4673 9.81397 31.4177 10.96 28.9544 12.1917C25.6479 13.8449 22.0978 14.8263 18.5872 15.9394C18.7189 16.1239 18.8506 16.3149 18.989 16.4993C20.2206 15.3467 21.393 14.1347 22.6972 13.0611C24.2121 11.8097 25.9773 11.0654 27.7886 10.3475C29.3825 9.71517 31.016 9.11579 32.735 8.97089C34.0919 8.85892 35.4158 8.85233 36.6013 8.12782C36.463 7.93681 36.3247 7.73921 36.1864 7.5482C35.0733 8.56253 34.5924 9.97863 33.6176 11.1049C32.1752 12.7779 30.1136 14.2796 28.0652 15.0766C26.03 15.867 23.8301 15.7287 21.7026 15.564C20.3063 15.4586 18.956 15.4916 17.7704 16.2951C17.9285 16.4664 18.0932 16.6376 18.2513 16.8154C20.4973 13.7856 22.1571 9.80079 25.6875 8.02902C28.8556 6.43508 33.3212 6.8171 36.3576 8.51642C36.2984 8.35834 36.2457 8.20027 36.1864 8.04219C34.7571 11.1247 33.4727 14.0491 30.5483 16.0053C28.4867 17.3819 26.1617 17.6519 23.751 17.3094C21.92 17.046 20.2338 16.1634 18.3632 16.1634C17.9022 16.1634 17.9746 16.8747 18.4291 16.8747L18.4357 16.8681Z" fill="white"/>
<path d="M18.495 16.3346C19.5357 17.507 19.9309 19.0746 20.932 20.2865C22.0517 21.6433 23.2307 22.9475 24.4821 24.1792C26.9323 26.5898 30.2519 26.794 33.4332 27.5185C33.5847 27.5515 33.756 27.4593 33.8218 27.3209C35.2511 24.2055 32.3596 21.3338 30.0478 19.6213C26.8599 17.2567 22.6182 15.7023 18.6399 16.2029C18.3237 16.2424 18.2184 16.6178 18.4423 16.8286C19.562 17.8693 20.8991 18.6201 22.0188 19.6608C23.2307 20.7805 24.1462 22.1637 25.4108 23.2505C27.703 25.2264 30.792 26.6755 33.7428 27.2814C34.0985 27.3539 34.2961 26.8862 34.0326 26.6557C32.8273 25.6216 32.0764 24.1199 31.0818 22.8948C30.2388 21.8541 29.2047 21.0374 28.052 20.3656C25.6216 18.9495 22.0188 18.7321 20.1614 16.4532C19.8716 16.0975 19.292 16.5124 19.5818 16.8681C21.2416 18.9034 24.2384 19.4566 26.5569 20.4248C28.2694 21.1362 29.6328 22.2361 30.792 23.6654C31.7405 24.8378 32.4189 26.2078 33.5781 27.2024C33.6769 26.9916 33.7692 26.7874 33.8679 26.5767C30.6801 25.918 27.5251 24.2384 25.1342 22.0451C24.0343 21.0374 23.2109 19.7859 22.1242 18.7782C21.123 17.8495 19.9045 17.204 18.9034 16.2753C18.8375 16.4861 18.7716 16.6969 18.7058 16.901C22.2493 16.4532 25.4438 17.7375 28.4802 19.4434C30.7196 20.7015 33.7626 23.2175 33.4859 26.0695C33.3805 27.1233 32.498 26.5832 31.7603 26.4449C31.0292 26.3066 30.3046 26.1749 29.5801 26.0168C27.8083 25.6282 26.2539 24.8839 24.9432 23.6259C23.593 22.3349 22.3679 20.9057 21.1823 19.4632C20.2931 18.383 20.0165 16.9669 19.0812 15.9131C18.7782 15.5706 18.1986 15.9855 18.5016 16.328L18.495 16.3346Z" fill="white"/>
<path d="M18.4818 16.3544C20.0362 13.9964 20.8002 11.5067 20.0494 8.70742C19.6674 7.27814 19.2985 5.783 18.5806 4.47887C17.7177 2.91127 16.4531 1.64666 15.4915 0.144931C15.3729 -0.0394918 15.0568 -0.0592514 14.9251 0.125171C13.1599 2.60171 12.5012 5.40098 13.1401 8.39127C13.8449 11.6779 16.1436 14.2138 18.1854 16.7562C18.3435 16.9538 18.686 16.9603 18.7979 16.6969C19.8715 14.2006 18.7979 11.5857 17.7836 9.2541C16.7495 6.86978 14.8724 3.73459 15.5047 1.06705C15.2741 1.02753 15.037 0.98142 14.8065 0.941901C14.2993 3.9256 14.6945 6.77098 15.6759 9.61636C16.4927 11.9743 16.8352 14.7077 18.5345 16.631C18.8375 16.9735 19.4171 16.5652 19.1141 16.2161C17.5531 14.4443 17.2896 12.0468 16.5388 9.88641C15.5178 6.96199 14.9843 4.16271 15.5113 1.06705C15.5903 0.612575 14.9185 0.500604 14.8131 0.941901C14.2862 3.13522 15.4191 5.50637 16.2555 7.48233C17.3884 10.1499 19.4171 13.4629 18.159 16.3939C18.3632 16.3741 18.5674 16.3544 18.7716 16.3346C17.0657 14.2138 15.3071 12.2115 14.2796 9.65588C13.0281 6.55363 13.5616 3.26036 15.4717 0.573055C15.2807 0.566469 15.0963 0.559882 14.9053 0.553296C15.6035 1.64666 16.4663 2.60829 17.2303 3.64896C18.0866 4.81478 18.5674 6.15843 18.9824 7.52843C19.9242 10.6439 19.7332 13.1467 17.9285 15.8933C17.6782 16.2753 18.2249 16.7298 18.4752 16.3478L18.4818 16.3544Z" fill="white"/>
<path d="M43.122 31.6879C43.0562 34.2566 39.9078 36.8319 37.8199 37.8792C35.0338 39.2821 31.6483 39.3348 28.5987 39.2887C28.6317 39.5192 28.658 39.7498 28.6909 39.9803C31.016 39.0318 31.4836 36.1996 32.7482 34.2764C35.0008 30.8645 40.1647 29.7317 43.7807 31.4968C43.7412 31.3388 43.695 31.1741 43.6555 31.016C42.4107 33.2489 40 34.5859 37.8199 35.7649C35.3038 37.1283 32.7812 37.8265 30.0346 38.5642C30.1268 38.775 30.2124 38.9923 30.3046 39.2097C32.3662 38.0241 33.8218 36.114 35.7517 34.7506C38.024 33.1435 40.764 32.6166 43.3591 31.7801C43.7873 31.6417 43.6028 30.9633 43.1747 31.1017C40.6323 31.9184 38.057 32.4717 35.7649 33.9075C33.6308 35.238 32.1357 37.3457 29.949 38.5971C29.5999 38.7947 29.837 39.3414 30.219 39.2426C31.8525 38.8079 33.4991 38.4654 35.0865 37.8858C36.2852 37.4445 37.4181 36.7792 38.5378 36.1733C40.7048 35.0009 43.0232 33.5782 44.2549 31.3717C44.3405 31.2136 44.301 30.9765 44.1298 30.8909C41.179 29.4418 37.5432 29.8436 34.7044 31.398C33.2686 32.1884 32.2542 33.6243 31.4573 35.0141C30.6076 36.5092 30.2585 38.5774 28.4933 39.2953C28.1442 39.4402 28.164 39.9803 28.5855 39.9869C32.1028 40.0396 35.778 39.8354 38.9132 38.0768C40.988 36.9176 43.7477 34.1973 43.8136 31.6747C43.8268 31.2202 43.122 31.2202 43.1088 31.6747L43.122 31.6879Z" fill="white"/>
<path d="M53.2389 14.3191C50.6504 14.7275 47.4362 11.9282 46.0662 10.005C44.3076 7.52183 43.6489 4.32078 43.155 1.3766C42.9376 1.46881 42.7268 1.55443 42.5095 1.64664C43.9058 3.82679 47.0278 3.73457 49.1685 4.73573C52.7515 6.41529 54.6024 11.23 53.5551 14.958C53.7 14.879 53.8449 14.7934 53.9898 14.7143C51.6055 13.9042 49.8732 11.8031 48.3386 9.90615C46.5075 7.64697 45.3615 5.27582 44.1166 2.66756C43.9322 2.81246 43.7477 2.95078 43.5633 3.09568C45.098 4.90698 47.2452 6.00034 48.9313 7.64697C50.9205 9.59 51.9282 12.1983 53.2192 14.6024C53.4365 15.0041 54.0425 14.6485 53.8251 14.2467C52.5605 11.8953 51.5462 9.46486 49.7217 7.46914C48.029 5.61174 45.6842 4.51837 44.0573 2.5951C43.7807 2.27236 43.346 2.68073 43.504 3.02323C44.1561 4.39323 44.7357 5.79616 45.4602 7.12664C46.1057 8.30563 47.0015 9.35289 47.8314 10.4001C49.4319 12.4156 51.2893 14.5431 53.7988 15.3927C53.9832 15.452 54.1808 15.3203 54.2335 15.149C55.1227 11.9809 54.0425 8.48346 52.0073 5.98058C50.9732 4.70938 49.3661 3.97828 47.8577 3.45135C46.2177 2.87833 44.1627 2.91784 43.122 1.29097C42.8981 0.941885 42.4173 1.179 42.4765 1.56102C43.0298 4.83452 43.807 8.47688 46.0069 11.0917C47.6272 13.0216 50.7426 15.4191 53.4234 14.9975C53.8712 14.9251 53.6802 14.2467 53.2389 14.3191Z" fill="white"/>
<path d="M89.478 32.1423C82.8256 33.835 76.0349 35.5475 69.119 35.2314C62.1176 34.9152 56.137 31.6022 52.5605 25.5294C50.8414 22.6116 49.7085 18.5279 53.4036 16.6705C57.1447 14.7868 60.9781 17.9813 61.8936 21.5051C63.5468 27.8742 55.1292 31.6681 50.0708 31.4968C47.1661 31.398 44.5381 29.7843 42.2526 28.1245C39.6114 26.2078 37.2336 23.9355 34.711 21.8673C30.3112 18.2579 25.042 15.103 19.2524 17.3358C18.6003 17.5861 18.8836 18.6531 19.5422 18.3962C25.4767 16.1041 30.6537 19.8782 35.0272 23.5601C39.0581 26.9521 43.2406 31.4112 48.6415 32.4387C53.5946 33.3806 59.674 30.8711 62.2098 26.4581C65.0683 21.4787 60.9978 14.9976 55.3664 15.103C53.2982 15.1425 51.2168 16.3017 50.275 18.1591C49.366 19.9506 49.86 22.144 50.545 23.9157C52.1917 28.1706 55.6759 31.892 59.6805 33.9997C68.849 38.8145 80.382 35.5936 89.7678 33.2093C90.4528 33.0315 90.163 31.9711 89.478 32.1489V32.1423Z" fill="white"/>
</g>
<defs>
<clipPath id="clip0_13_287">
<rect width="90.163" height="40" fill="white"/>
</clipPath>
</defs>
</svg>
