<svg width="34" height="46" viewBox="0 0 34 46" fill="none" xmlns="http://www.w3.org/2000/svg">
<g clip-path="url(#clip0_13_273)">
<path d="M21.2864 2.36443C21.3298 2.3085 21.4036 2.1977 21.5324 2.11732C21.8769 1.90142 22.2494 2.08037 22.3722 2.14014C23.6901 2.77842 25.2172 3.67886 25.8517 5.13691L26.3931 4.71284C26.5735 4.57149 26.8483 4.35694 27.2186 4.34841C27.5802 4.34059 28.0842 4.52623 28.4037 5.44273C29.621 8.89986 29.4687 12.3121 27.9922 14.7986C27.3861 15.8172 26.5751 16.6779 25.7876 17.5062C25.5224 17.7855 25.2572 18.0647 25.0015 18.3519C23.9899 19.4822 23.2795 20.505 23.1057 21.8459C23.1068 21.859 23.1031 21.868 23.0999 21.8813C22.8873 23.6008 23.1991 25.3821 23.9955 27.0582C24.1724 26.6073 24.4313 26.1452 24.6927 25.7136L24.7695 25.5851C26.4056 22.8106 28.0993 20.2059 30.8068 18.7882C30.9449 18.7158 31.1067 18.72 31.2439 18.796C31.3767 18.8724 31.4625 19.0138 31.4706 19.1659C31.5307 20.3786 31.0372 21.4926 30.6028 22.4753C29.9658 23.9154 29.3107 25.4005 28.3625 26.7177C28.3466 26.7365 28.335 26.7549 28.3194 26.778C27.5308 27.8595 26.4146 29.2035 25.2777 29.336C25.7527 30.1263 26.2342 30.9422 26.6152 31.8101C28.2486 35.5517 27.7344 40.1938 25.3526 43.5095C25.2665 43.63 25.176 43.7509 25.0852 43.8675C24.931 44.0634 24.646 44.0998 24.4501 43.9457C24.2541 43.7916 24.2043 43.5032 24.3718 43.3106C26.1771 41.0023 26.9446 37.9062 26.5574 34.992C25.499 35.7639 23.2002 34.9267 22.5052 34.6477C20.8662 33.979 19.5458 32.7255 18.8847 31.2086C18.8199 31.0568 18.836 30.8809 18.9391 30.7546C19.0376 30.6243 19.198 30.5588 19.3609 30.576L21.8713 30.907C22.9256 31.0432 24.0155 31.1895 25.0386 31.6381C25.1924 31.7041 25.4343 31.8326 25.7021 32.0115C25.3239 31.1783 24.8435 30.3754 24.3735 29.5934C24.1108 29.1567 23.852 28.7153 23.6019 28.2732C22.5224 27.0829 21.328 25.8759 19.9343 24.899C18.5825 23.9537 17.1655 23.3322 15.7878 23.0829C15.8065 23.1512 15.8208 23.2199 15.8312 23.2932C16.3234 26.5828 15.0146 30.103 12.486 32.2655C11.6947 32.9413 10.9163 33.136 10.2965 32.8159C9.58977 32.4461 9.34423 31.5803 9.60342 30.3763C9.83788 29.2966 10.1738 28.2827 10.5901 27.3452L7.27764 28.9434C6.86196 29.1433 6.43399 29.353 5.96529 29.4918C5.83303 29.5288 5.48359 29.6316 5.17501 29.4343C4.95413 29.2953 4.8616 29.0716 4.82308 28.9744C4.36946 27.8594 4.4713 26.5461 5.08427 25.5052C3.76326 24.9893 2.63185 24.231 1.78863 23.2614C1.62993 23.0824 1.64692 22.8104 1.81187 22.6398C3.78176 20.689 6.67681 19.7491 9.41657 20.1093C8.89394 19.2706 8.47556 18.2662 8.1161 16.9689C7.61536 15.1725 7.79055 13.8489 8.63656 13.042C8.74579 12.937 8.89937 12.8939 9.04598 12.9255C9.1926 12.9571 9.31455 13.0606 9.36963 13.2001C10.121 15.0719 11.2074 16.7722 12.5852 18.2479C12.7479 18.4222 12.9146 18.5919 13.0816 18.7659C14.0158 19.728 14.9833 20.7223 15.287 22.0853L15.2877 22.0939C16.9957 22.2725 18.7778 22.9819 20.4494 24.1542C21.2133 24.6895 21.9169 25.2864 22.5703 25.9094C22.1696 24.5893 22.0281 23.2348 22.1726 21.9093C22.0363 21.6848 21.9088 21.4596 21.7852 21.2297C20.8714 21.1562 19.9378 20.7876 18.8626 20.077C14.765 17.3666 12.3875 12.2676 12.9475 7.38601C12.9618 7.24082 13.0093 6.8616 13.3336 6.66481C13.7284 6.42297 14.1402 6.65544 14.273 6.73184C14.3463 6.77384 14.4199 6.82017 14.4932 6.86218C14.3253 6.30422 14.243 5.72614 14.3018 5.2718C14.4197 4.31508 14.8324 3.43895 15.2177 2.70908C15.7015 1.79656 16.2702 1.75869 16.5677 1.82158C16.8165 1.87538 17.0027 2.01724 17.1673 2.16087C17.3415 2.31679 17.5082 2.48643 17.6752 2.66041L18.5468 1.31459C18.8444 0.845042 19.202 0.841917 19.3844 0.883706C19.5444 0.918602 19.6522 1.01014 19.7132 1.06188C20.266 1.52283 20.6947 2.12052 20.9672 2.78338L21.2683 2.35718L21.2864 2.36443ZM22.851 33.8076C24.0926 34.3124 25.632 34.6183 26.0555 34.2476C26.1167 34.1945 26.1561 34.1433 26.1829 34.0975C24.1451 33.9415 22.1712 33.2348 20.4881 32.0809C21.0986 32.8208 21.9116 33.4219 22.851 33.8076ZM25.9141 33.8533C25.8224 33.7997 25.7304 33.7418 25.6387 33.6882C25.1248 33.3812 24.5924 33.0626 24.04 32.8722C23.4966 32.6854 22.9297 32.5311 22.3801 32.3754C21.7457 32.1961 21.0939 32.0182 20.4596 31.7865C22.0633 32.9294 23.9595 33.6469 25.9181 33.8486L25.9141 33.8533ZM21.7531 31.807L20.8708 31.6917C21.3911 31.8629 21.9186 32.0161 22.4368 32.1613C22.9863 32.317 23.5579 32.4752 24.11 32.6613C24.6891 32.8582 25.2305 33.1805 25.7539 33.4954C25.8961 33.5798 26.0379 33.6598 26.1801 33.7442C25.9806 33.2805 25.2048 32.7069 24.6795 32.475C23.7741 32.0778 22.7506 31.9435 21.7578 31.811L21.7531 31.807ZM8.81338 25.3697C9.1818 25.3919 9.5618 25.3957 9.94508 25.3861C10.2106 25.3774 10.5651 25.2829 10.9366 25.1302C10.7343 25.1643 10.5273 25.1943 10.3286 25.2194C9.82312 25.2826 9.31626 25.3285 8.81338 25.3697ZM10.4925 30.574C10.4325 30.8539 10.2687 31.7838 10.7152 32.0134C11.0935 32.2094 11.6692 31.7781 11.8974 31.5805C14.1891 29.6164 15.3801 26.4158 14.9348 23.4322C14.9248 23.3631 14.9068 23.3035 14.8986 23.2562C14.4784 23.5612 14.0788 23.9038 13.7084 24.2833C13.7004 24.2927 13.6925 24.3021 13.6892 24.3155C13.5795 24.4685 13.4269 24.6294 13.2518 24.7834C11.949 26.2998 10.9945 28.2853 10.4965 30.5693L10.4925 30.574ZM5.67676 28.6338C5.67676 28.6338 5.69843 28.632 5.71506 28.622C6.11148 28.5065 6.51018 28.3124 6.89224 28.1283L11.2377 26.0352C11.2377 26.0352 11.2637 26.033 11.2764 26.0276C11.2876 26.0049 11.3032 25.9818 11.3188 25.9587C10.833 26.1556 10.3589 26.2818 9.97599 26.2957C8.54765 26.3342 7.19799 26.1611 5.97753 25.8073C5.41943 26.6124 5.30998 27.6732 5.68109 28.6335L5.67676 28.6338ZM7.50558 25.2282C8.43146 25.1828 9.36893 25.1191 10.3018 24.999C10.8285 24.9296 11.3709 24.8372 11.8848 24.6641C12.1718 24.4922 12.4318 24.3094 12.6354 24.1312C12.6954 24.0652 12.7508 23.9952 12.8109 23.9292C11.957 24.1607 11.0816 24.2368 10.3335 24.2675C7.99766 24.363 5.67749 24.1167 3.4141 23.5516C4.50457 24.3961 5.9086 24.9663 7.5016 25.2328L7.50558 25.2282ZM4.39493 21.8869C4.82163 21.8214 5.2609 21.8029 5.67089 21.7998C7.51967 21.7792 9.37733 21.867 11.2222 22.0649C10.87 21.8145 10.5362 21.5232 10.2297 21.1905C10.2253 21.1908 10.221 21.1912 10.2167 21.1916C8.27755 20.6958 6.17051 20.9733 4.39529 21.8913L4.39493 21.8869ZM14.3903 22.2199C14.123 21.142 13.3034 20.3014 12.4359 19.408C12.2642 19.23 12.0929 19.0564 11.9255 18.8781C10.6627 17.5283 9.63889 16.0061 8.86923 14.3366C8.66832 14.9204 8.70768 15.7202 8.99167 16.7356C9.36264 18.0669 9.78897 19.0619 10.3351 19.8682C11.001 20.8567 11.889 21.5738 12.836 21.8934C13.1458 21.9989 13.4701 22.0683 13.8164 22.1403C13.9941 22.1781 14.1804 22.2152 14.3631 22.2614C14.3707 22.2477 14.3783 22.2339 14.3906 22.2242L14.3903 22.2199ZM13.6313 23.024C13.276 22.9484 12.9077 22.8738 12.5484 22.7505C12.2433 22.649 11.9437 22.5077 11.6549 22.3393C9.67212 22.109 7.66422 21.9987 5.67167 22.0223C5.00448 22.029 4.31775 22.0635 3.71168 22.2833C3.38447 22.4978 3.06737 22.7289 2.77442 22.9886C2.85053 23.0653 2.93027 23.133 3.00603 23.2053C5.38959 23.8523 7.84807 24.1352 10.319 24.0374C11.1672 24.0028 12.1766 23.9114 13.1277 23.589C13.3173 23.3989 13.5072 23.2131 13.7112 23.0393C13.6844 23.0327 13.6577 23.0262 13.6267 23.02L13.6313 23.024ZM25.5494 26.0492L25.4687 26.1824C25.2229 26.591 24.6056 27.6323 24.6872 28.1493C24.7128 28.1952 24.7294 28.2375 24.738 28.2892C25.465 28.1074 26.0276 27.4634 26.5249 26.768C26.5364 26.7496 26.5484 26.7355 26.56 26.7171C27.417 25.5121 28.226 24.2543 28.9726 22.9799C29.2134 22.563 29.4293 22.1089 29.6514 21.6237C29.9003 21.0927 30.1528 20.5526 30.4489 20.0657C28.3801 21.4486 26.9445 23.6873 25.5455 26.0539L25.5494 26.0492ZM27.5868 26.2532C28.4833 24.997 29.1445 23.5331 29.7706 22.1202C29.9507 21.7083 30.1417 21.2693 30.2926 20.8205C30.1423 21.1165 29.9966 21.4164 29.8601 21.7201C29.6409 22.1875 29.4188 22.6727 29.1697 23.0947C28.4195 24.3781 27.6064 25.6406 26.7498 26.8499C26.7382 26.8683 26.7266 26.8867 26.7103 26.9011C26.2326 27.5688 25.6943 28.189 25.004 28.4463C25.3583 28.5089 26.132 28.2578 27.5872 26.2576L27.5868 26.2532ZM19.6726 6.21072C19.2539 6.79931 18.8239 7.41064 18.6655 8.08699C18.3879 9.27938 18.9703 10.5278 19.6513 11.8075C19.8859 12.168 20.104 12.5385 20.305 12.9148C20.3565 12.5309 20.4253 12.1456 20.5118 11.7632C20.5761 11.4829 20.6501 11.215 20.7299 10.9641C20.4626 9.67233 20.7289 8.28884 21.0481 7.07122C21.1345 6.74118 21.2267 6.42813 21.3192 6.1194C21.6168 5.11741 21.8723 4.24107 21.813 3.19849L19.6769 6.21036L19.6726 6.21072ZM14.1027 7.68849C14.2252 8.43783 14.3741 9.18939 14.5439 9.93049C14.9217 11.558 15.3481 12.8192 15.8859 13.8968C16.9151 15.964 18.5455 17.6983 20.5306 18.8623C19.0484 17.3909 17.8078 15.0878 16.8553 13.1583C16.5938 12.6298 16.3413 12.105 16.0939 11.5885C15.452 10.2532 14.8414 8.98087 14.1121 7.69645C14.1121 7.69645 14.103 7.69282 14.1027 7.68849ZM16.2995 11.4887C16.547 12.0052 16.7995 12.53 17.061 13.0585C18.0239 15.009 19.2843 17.341 20.7771 18.781C20.3829 17.4866 20.1803 16.1328 20.1782 14.7757C19.8269 13.8967 19.3877 13.0642 18.878 12.2768C18.878 12.2768 18.8776 12.2724 18.8729 12.2685C18.8729 12.2685 18.8722 12.2598 18.8675 12.2558C17.7396 10.5283 16.2519 9.0442 14.5066 7.93034C15.1526 9.10375 15.7149 10.2666 16.3039 11.4883L16.2995 11.4887ZM23.2188 7.25118C23.2746 6.86691 23.2058 6.45358 23.151 6.10456C22.9661 4.96754 22.7382 3.89077 22.0388 3.18435C22.102 4.27461 21.8247 5.20511 21.534 6.18472C21.4455 6.48875 21.349 6.80216 21.2665 7.12751C20.9873 8.19347 20.7444 9.38301 20.8808 10.5153C21.0523 10.0517 21.2447 9.63005 21.4713 9.2536C21.9358 8.47796 22.5635 7.82861 23.2188 7.25118ZM22.2957 3.12401C22.9684 3.87628 23.1956 4.94437 23.375 6.06874C23.4255 6.36574 23.4749 6.70211 23.4633 7.03911C23.8184 6.73942 24.1749 6.45707 24.5192 6.18445L25.1014 5.72649C24.7017 4.52415 23.4523 3.71005 22.2953 3.11968L22.2957 3.12401ZM24.3286 17.7567C24.5884 17.4649 24.8618 17.1806 25.1306 16.8923C25.9178 16.0597 26.6608 15.2743 27.2129 14.3431C28.5511 12.0862 28.6742 8.95565 27.5476 5.75294C27.4169 5.38395 27.2762 5.26455 27.2325 5.26377C27.1675 5.2691 27.0236 5.37691 26.9541 5.43497L25.0843 6.90189C24.1495 7.63751 23.1858 8.39297 22.5003 9.3482C22.4142 9.46873 22.3288 9.59793 22.252 9.72642C21.8871 10.3324 21.6112 11.0664 21.4015 11.9696C20.7358 14.8696 21.1326 17.9532 22.4836 20.592C22.8487 19.5627 23.4969 18.6847 24.3326 17.7521L24.3286 17.7567ZM19.3733 19.3325C20.0886 19.8063 20.7197 20.1038 21.3119 20.2473C21.183 19.9523 21.0667 19.652 20.9591 19.3509C18.689 18.171 16.8197 16.2904 15.6806 14.0009C15.1326 12.9067 14.7052 11.6324 14.3213 9.98365C14.1332 9.17858 13.9833 8.36165 13.8507 7.54329C13.3497 12.0796 15.5622 16.8168 19.369 19.3329L19.3733 19.3325ZM16.0346 3.14402C15.6869 3.80098 15.3148 4.5865 15.2151 5.39334C15.1286 6.09436 15.5206 7.31041 16.0079 7.87711C16.6267 8.34574 17.2105 8.86526 17.7534 9.41867C17.6685 8.91501 17.6652 8.39592 17.7844 7.87989C17.9853 7.02985 18.4898 6.31639 18.9357 5.6863L19.3034 5.16736C18.4998 4.84044 17.8978 4.20459 17.3102 3.58501C17.071 3.32966 16.8275 3.07466 16.5728 2.84241C16.4877 2.7621 16.4278 2.72337 16.4011 2.71683C16.3657 2.711 16.2156 2.79749 16.0342 3.13969L16.0346 3.14402ZM20.3205 3.67869C20.1589 2.98492 19.7834 2.3436 19.2953 1.87298L18.3378 3.34367C18.8046 3.8204 19.2787 4.2267 19.8514 4.39798L20.3363 3.71231C20.3363 3.71231 20.3259 3.69134 20.3205 3.67869Z" fill="white"/>
</g>
<defs>
<clipPath id="clip0_13_273">
<rect width="43.4798" height="30" fill="white" transform="matrix(0.0816879 0.996658 0.996658 -0.0816879 0 2.45068)"/>
</clipPath>
</defs>
</svg>
