<svg width="84" height="109" viewBox="0 0 84 109" fill="none" xmlns="http://www.w3.org/2000/svg">
<g clip-path="url(#clip0_13_275)">
<path d="M50.8307 79.1415C51.0784 78.7482 50.4509 78.4323 50.2035 78.81C47.1708 83.4193 43.1917 86.9484 38.7243 90.1239C37.0702 91.2991 35.3942 92.4706 33.8376 93.7769C36.7133 88.4728 37.5111 81.9748 37.7381 75.8503C37.8038 75.8612 37.8794 75.8535 37.9619 75.8177C47.2498 72.0447 49.4257 61.8581 50.4577 52.9337C50.5125 52.4542 49.8223 52.272 49.7043 52.7657C48.4359 58.1251 44.0251 61.2988 40.8081 65.4452C39.4099 67.2483 38.2408 69.3394 37.8324 71.5545C37.8634 65.6203 37.328 59.5854 37.6923 53.6368C37.8165 53.7025 37.9673 53.7027 38.0764 53.6015C42.6912 53.4832 46.8063 50.884 48.9611 46.7481C51.9275 41.047 51.3268 33.047 57.4242 29.3429C57.7396 29.1521 57.5074 28.5845 57.1489 28.7366C56.3842 29.0711 55.6377 29.4312 54.9094 29.8168C54.878 29.8161 54.8401 29.8278 54.8142 29.8618L54.8076 29.8742C51.0676 31.8692 47.7515 34.565 45.0901 37.9009C41.4976 42.397 40.2062 47.6647 37.7696 52.7243C37.9138 50.7985 38.1614 48.8876 38.5594 46.9927C40.5237 37.6873 46.9224 30.8137 55.8957 27.8913C55.945 27.9332 56.0104 27.9598 56.098 27.9744C61.36 28.8258 66.0357 29.7645 71.2097 27.8523C75.1417 26.3958 80.0028 23.3172 81.3393 19.1061C81.4512 18.7442 80.9866 18.4509 80.687 18.642C78.4006 20.1264 75.865 21.1057 73.1438 21.399C70.7596 21.6559 68.3838 21.2658 65.9962 21.2588C61.5285 21.2642 58.5068 23.4483 56.0033 27.0266C55.9869 27.0576 55.9737 27.0825 55.9668 27.1106C50.7337 28.3082 46.022 31.4499 42.6753 35.6311C44.2599 32.8143 45.7794 29.9552 46.8194 26.9062C47.4289 25.1072 47.8579 23.2287 47.9419 21.3267C48.0578 18.8536 47.3502 16.39 48.0871 13.9593C48.2129 13.5412 47.5369 13.287 47.3611 13.6946C45.1492 18.9604 40.8524 23.0603 38.9016 28.4482C37.735 31.6766 37.3017 36.3732 40.1037 38.8874C40.1261 39.0104 40.2181 39.1068 40.3364 39.1534C38.0312 43.4085 37.0667 48.2533 36.7525 53.1002C36.5842 55.6727 36.5729 58.2487 36.6181 60.8228C34.724 53.3307 31.3801 46.3114 26.7778 40.0648C26.5158 39.7038 25.9266 40.0518 26.1755 40.4376C29.1985 45.1183 26.4083 51.0872 27.7618 56.2359C28.8779 60.4964 32.1779 64.3226 36.712 64.8528C36.7852 67.7197 36.8679 70.5838 36.7998 73.4476C36.69 78.1483 36.3994 83.4765 34.996 88.2799C35.965 80.4662 29.713 72.8469 24.4625 67.3302C24.1987 67.0477 23.6636 67.3686 23.8092 67.7395C26.8982 75.6012 22.7768 90.1139 32.4102 94.2377C32.3449 94.3462 32.2858 94.458 32.2176 94.557C29.8901 98.1329 25.3337 100.936 21.1054 98.8353C19.2661 97.9264 17.9262 96.1932 17.9144 94.0816C17.9037 91.923 19.475 89.552 21.7606 89.3462C21.9526 89.3286 21.997 89.0343 21.7936 88.9982C19.6435 88.6321 17.9346 90.4219 17.2941 92.3395C16.5192 94.6469 17.2281 97.0476 19.039 98.6565C22.2728 101.526 26.2487 100.903 29.4107 98.7693C29.4133 98.9296 29.5295 99.0704 29.6756 99.1397C30.1428 100.149 32.5713 100.154 33.3925 100.104C36.0195 99.9434 38.4841 98.6327 40.5093 97.0261C43.0112 95.0438 45.0764 92.505 46.6164 89.7123C48.4646 86.3517 48.8502 82.3766 50.8558 79.139L50.8307 79.1415ZM62.3369 22.6053C64.6759 21.8478 67.1849 22.1812 69.5886 22.308C73.3073 22.5023 76.788 21.8241 79.9955 20.0401C79.8412 20.3319 79.6745 20.6172 79.4953 20.8959C76.5993 23.2179 72.371 24.3033 68.8975 25.0728C65.001 25.9363 61.034 26.3019 57.0667 26.6831C58.5533 24.9983 60.1436 23.3127 62.3369 22.6053ZM56.8054 26.9819C61.1534 26.8575 65.5161 26.4947 69.7613 25.4977C72.4461 24.8674 75.8158 23.9636 78.3858 22.3034C76.0956 24.7868 72.5738 26.5794 69.7427 27.4263C65.1749 28.793 61.1831 27.763 56.654 27.1482C56.6993 27.0926 56.754 27.0342 56.7992 26.9787L56.8054 26.9819ZM40.3184 38.2859C35.6493 30.8281 42.7587 23.512 46.6439 16.7793C46.0531 20.6617 45.0181 24.1822 43.571 27.8661C42.2839 31.1421 40.9494 34.4327 40.5052 37.9477C40.4428 38.0656 40.3837 38.1774 40.3214 38.2954L40.3184 38.2859ZM40.9739 37.0912C41.9084 33.4302 43.3348 29.9657 44.6937 26.4338C45.6887 23.8455 46.7314 21.0918 47.0274 18.2929C47.0484 18.6139 47.0756 18.9381 47.09 19.2715C47.2323 21.587 46.9199 23.8609 46.2289 26.0696C45.0225 29.9443 42.9429 33.5322 40.9739 37.0912ZM54.4087 30.8391C54.5138 30.7755 54.6189 30.7119 54.7208 30.6545C52.0704 33.5037 51.108 37.563 50.0674 41.3347C49.2078 44.4633 48.1094 47.5927 45.6672 49.8528C43.6615 51.7081 41.0799 52.7743 38.3901 53.0683C42.09 51.1792 44.14 47.5121 45.9742 43.9375C48.3935 39.2263 51.253 35.0498 54.4025 30.8358L54.4087 30.8391ZM45.1203 38.9258C47.3777 35.9483 50.1648 33.4416 53.3133 31.4834C50.6182 34.6426 48.4145 38.2999 46.5219 41.9549C44.5078 45.8396 42.6397 50.0794 38.7157 52.2871C40.801 47.7568 42.0241 43.009 45.1203 38.9258ZM28.0005 52.223C27.9485 49.3911 28.5136 46.504 28.1137 43.7741C28.7078 45.701 29.2518 47.6172 29.5899 49.6074C29.9581 51.7962 30.0178 54.0125 30.3451 56.2034C30.7134 58.6624 31.5415 61.0784 33.3038 62.749C29.9375 60.4608 28.084 56.5731 28.01 52.2201L28.0005 52.223ZM35.3116 63.8502C35.4247 63.7113 35.4362 63.4791 35.2284 63.3613C31.2143 61.0961 31.0482 56.5116 30.5657 52.4352C30.226 49.5464 29.6091 46.686 28.5585 43.9696C32.4923 50.1885 35.2077 57.0741 36.6296 64.3325C36.1676 64.1995 35.7378 64.0358 35.3116 63.8502ZM49.2637 56.2589C48.1925 63.4544 45.6335 70.9995 38.9027 74.3687C42.9593 69.0851 48.5387 63.5659 49.0668 56.6314C49.0668 56.6314 49.0668 56.6314 49.0671 56.6157C49.1295 56.4977 49.1951 56.3735 49.2575 56.2556L49.2637 56.2589ZM48.339 57.8276C46.5382 64.3594 42.0084 68.9002 38.2138 74.4096C38.0177 67.267 44.6857 63.3403 48.339 57.8276ZM32.9987 92.1178C32.9042 84.5125 30.5886 76.7657 26.2889 70.4725C31.6104 76.4559 36.5632 84.429 32.9987 92.1178ZM32.2765 93.4838C24.3872 89.0665 27.1506 77.6334 25.223 69.6786C29.7569 76.8662 32.2686 84.6929 32.4173 93.2325C32.3714 93.3195 32.3287 93.4002 32.2827 93.4871L32.2765 93.4838ZM41.2068 89.4105C43.9905 87.3309 46.4202 84.9292 48.5514 82.2505C46.2318 85.6161 43.9001 88.8244 40.8217 91.5664C37.8587 94.2106 34.5597 96.1527 31.027 97.876C33.9162 94.4698 37.6209 92.0907 41.2006 89.4072L41.2068 89.4105ZM37.938 97.6369C36.916 98.2327 35.8242 98.72 34.6771 99.0113C34.0357 99.1727 31.266 99.6628 30.2557 99.0492C30.3182 99.0663 30.381 99.0678 30.4507 99.0411C37.3806 96.4524 44.2715 90.8718 47.9975 84.2298C47.8893 84.5698 47.7843 84.9036 47.6604 85.2432C46.6757 88.0674 45.1864 90.7041 43.2649 93.0011C41.7441 94.8108 39.985 96.4549 37.9315 97.6493L37.938 97.6369Z" fill="white"/>
</g>
<defs>
<clipPath id="clip0_13_275">
<rect width="41.2698" height="100" fill="white" transform="translate(47.0138 0.616882) rotate(27.8649)"/>
</clipPath>
</defs>
</svg>
