<svg width="79" height="109" viewBox="0 0 79 109" fill="none" xmlns="http://www.w3.org/2000/svg">
<g clip-path="url(#clip0_13_285)">
<path d="M28.5175 78.4681C28.2974 78.0587 28.9451 77.7867 29.1659 78.1805C31.8746 82.9874 35.6015 86.7817 39.84 90.2569C41.4094 91.5431 43.0009 92.8271 44.464 94.2373C41.9598 88.748 41.6107 82.2106 41.8054 76.085C41.7391 76.0913 41.6642 76.0784 41.5843 76.037C32.5778 71.6343 31.1075 61.3222 30.6916 52.3479C30.6699 51.8658 31.371 51.7316 31.4548 52.2322C32.3516 57.6661 36.5338 61.1356 39.4581 65.4934C40.729 67.3884 41.7515 69.5548 42.0066 71.7928C42.3838 65.8706 43.3329 59.8867 43.3784 53.9271C43.25 53.9841 43.0996 53.974 42.9977 53.8655C38.4019 53.4302 34.4753 50.5542 32.6099 46.2799C30.0425 40.3884 31.192 32.4485 25.3636 28.334C25.0621 28.122 25.3328 27.5716 25.68 27.748C26.4199 28.1344 27.1399 28.5449 27.8399 28.9797C27.8713 28.9811 27.9083 28.9954 27.9318 29.0311L27.9375 29.0439C31.5315 31.2914 34.6544 34.2088 37.0801 37.7198C40.355 42.4523 41.2812 47.7964 43.3641 53.0115C43.3526 51.0803 43.237 49.157 42.9702 47.2392C41.6504 37.8207 35.7395 30.5235 26.9884 26.9909C26.9363 27.0294 26.8692 27.0514 26.7808 27.0599C21.4727 27.5475 16.7435 28.1625 11.7133 25.8991C7.89075 24.1756 3.25284 20.77 2.20899 16.477C2.12225 16.1083 2.60593 15.8476 2.89175 16.0589C5.07062 17.697 7.53294 18.8483 10.2275 19.328C12.5884 19.7483 14.9853 19.5225 17.3678 19.6796C21.8246 19.9922 24.6889 22.3789 26.9405 26.1209C26.9547 26.153 26.9661 26.1786 26.9711 26.2072C32.1095 27.7618 36.594 31.2201 39.6453 35.6215C38.2581 32.7024 36.9388 29.7456 36.1109 26.6322C35.6266 24.7956 35.3277 22.892 35.3747 20.9887C35.4292 18.5135 36.3044 16.1045 35.7364 13.6288C35.6397 13.203 36.3316 12.996 36.4789 13.4147C38.3235 18.82 42.3282 23.2057 43.9039 28.715C44.8458 32.016 44.9551 36.7313 41.9869 39.0468C41.9561 39.168 41.8577 39.2578 41.7364 39.2962C43.7436 43.6998 44.3727 48.5994 44.3529 53.4565C44.3439 56.0344 44.1781 58.6051 43.956 61.17C46.3608 53.8258 50.1793 47.0531 55.2003 41.1377C55.4865 40.7956 56.0503 41.1833 55.7755 41.551C52.4378 46.0128 54.8111 52.1595 53.1067 57.2029C51.7003 61.3766 48.145 64.9668 43.5852 65.184C43.315 68.0391 43.0356 70.8907 42.9067 73.7524C42.693 78.4496 42.6165 83.7851 43.6863 88.6736C43.2568 80.8118 50.018 73.6404 55.6353 68.4978C55.9179 68.2341 56.4297 68.591 56.259 68.951C52.6367 76.5818 55.7505 91.3435 45.8563 94.7952C45.914 94.9079 45.9653 95.0235 46.0265 95.1269C48.1027 98.8544 52.4555 101.964 56.8183 100.159C58.7157 99.3789 60.1716 97.7419 60.3286 95.6361C60.4877 93.4833 59.0832 91.01 56.8171 90.6475C56.6267 90.6167 56.6027 90.32 56.8081 90.2981C58.9783 90.0807 60.5601 91.9837 61.0671 93.9409C61.6816 96.296 60.8093 98.6423 58.8921 100.123C55.4686 102.763 51.5449 101.868 48.5372 99.5222C48.5235 99.682 48.3979 99.8145 48.2474 99.8736C47.7119 100.849 45.2888 100.687 44.4731 100.58C41.8633 100.239 39.4946 98.7621 37.5847 97.02C35.225 94.8704 33.3393 92.1956 31.9949 89.3037C30.3821 85.8239 30.2708 81.8318 28.4925 78.4638L28.5175 78.4681ZM20.9258 21.2745C18.6445 20.358 16.1185 20.5181 13.7117 20.4793C9.98855 20.4175 6.56263 19.5016 3.48548 17.5012C3.61934 17.803 3.76603 18.099 3.92556 18.3894C6.65506 20.9051 10.7988 22.2786 14.2111 23.2851C18.0391 24.4145 21.9715 25.052 25.9032 25.7051C24.536 23.922 23.0653 22.1311 20.9258 21.2745ZM26.1433 26.0212C21.8142 25.5981 17.4867 24.9361 13.3201 23.6496C10.685 22.8362 7.38546 21.7028 4.93574 19.8698C7.04972 22.5049 10.4399 24.5354 13.2061 25.5749C17.6691 27.2525 21.7223 26.4994 26.2829 26.1974C26.2416 26.1389 26.191 26.0768 26.1497 26.0183L26.1433 26.0212ZM41.814 38.432C46.9849 31.3129 40.3954 23.5253 36.9823 16.5414C37.3048 20.4552 38.0952 24.0385 39.2856 27.8132C40.3444 31.1699 41.4495 34.5445 41.651 38.0817C41.7051 38.2037 41.7563 38.3193 41.8105 38.4413L41.814 38.432ZM41.2423 37.195C40.5617 33.4785 39.3768 29.9241 38.2641 26.3071C37.4494 23.6566 36.5985 20.8377 36.4956 18.0251C36.4526 18.3438 36.4032 18.6654 36.3659 18.997C36.0647 21.2973 36.22 23.5872 36.7576 25.8382C37.6947 29.7867 39.5227 33.5091 41.2423 37.195ZM28.2691 30.034C28.1686 29.9633 28.0681 29.8926 27.9705 29.8284C30.4187 32.8531 31.0997 36.969 31.8785 40.8033C32.521 43.9836 33.4016 47.1811 35.6826 49.6038C37.556 51.5926 40.0582 52.8337 42.7214 53.312C39.1601 51.1729 37.3671 47.3736 35.783 43.6813C33.6934 38.8149 31.1278 34.4517 28.2756 30.0311L28.2691 30.034ZM36.9795 38.7402C34.9322 35.6146 32.3241 32.9221 29.3176 30.7521C31.7891 34.0891 33.7361 37.8893 35.373 41.6658C37.1152 45.6797 38.6874 50.038 42.4502 52.5102C40.6814 47.8473 39.7877 43.0267 36.9795 38.7402ZM53.1445 53.1831C53.3911 50.3614 53.0259 47.4424 53.6125 44.7464C52.8874 46.6279 52.2129 48.5022 51.7387 50.4644C51.2209 52.6227 51.0089 54.8296 50.5318 56.9929C49.9952 59.4207 49.003 61.774 47.13 63.3195C50.6457 61.2682 52.762 57.5172 53.1352 53.1795L53.1445 53.1831ZM45.0513 64.28C44.948 64.1338 44.9524 63.9013 45.1678 63.798C49.3282 61.8142 49.8092 57.252 50.5708 53.2184C51.1084 50.3598 51.9204 47.5485 53.1553 44.9109C48.8032 50.8446 45.6208 57.5271 43.7032 64.6706C44.1732 64.5697 44.6133 64.4359 45.0513 64.28ZM31.6541 55.7474C32.2281 62.9995 34.2622 70.7027 40.7454 74.5267C37.0617 68.9768 31.875 63.087 31.825 56.1326C31.825 56.1326 31.825 56.1326 31.8257 56.1169C31.7716 55.9949 31.7146 55.8665 31.6605 55.7445L31.6541 55.7474ZM32.4688 57.376C33.8162 64.0161 38.0231 68.8576 41.4299 74.6149C42.1166 67.5027 35.7344 63.1268 32.4688 57.376ZM45.415 92.6398C46.0322 85.059 48.875 77.4898 53.5973 71.5071C47.8769 77.1104 42.3876 84.7242 45.415 92.6398ZM46.0415 94.0522C54.216 90.1879 52.2452 78.5918 54.7152 70.7884C49.6979 77.6473 46.6539 85.2827 45.9184 93.7919C45.9582 93.8818 45.9953 93.9652 46.0351 94.0551L46.0415 94.0522ZM37.4125 89.3745C34.7783 87.1085 32.5195 84.5453 30.5776 81.7264C32.6603 85.2436 34.7659 88.6046 37.6484 91.5518C40.4226 94.3934 43.5802 96.5579 46.9861 98.5199C44.338 94.9232 40.8056 92.295 37.4189 89.3717L37.4125 89.3745ZM40.1078 97.8062C41.0865 98.4708 42.1422 99.0321 43.2666 99.4016C43.8954 99.6067 46.6248 100.286 47.6749 99.7434C47.6114 99.7562 47.5486 99.7533 47.4809 99.7219C40.7455 96.6628 34.2546 90.6217 30.994 83.7392C31.0786 84.0858 31.1604 84.426 31.2607 84.7734C32.0488 87.6585 33.3534 90.3914 35.1124 92.8151C36.5052 94.7251 38.147 96.4863 40.1135 97.8191L40.1078 97.8062Z" fill="white"/>
</g>
<defs>
<clipPath id="clip0_13_285">
<rect width="41.2698" height="100" fill="white" transform="matrix(-0.914097 0.405496 0.405496 0.914097 37.7246 0.391785)"/>
</clipPath>
</defs>
</svg>
