<svg width="85" height="102" viewBox="0 0 85 102" fill="none" xmlns="http://www.w3.org/2000/svg">
<g clip-path="url(#clip0_13_299)">
<path d="M14.7155 101.687C14.613 90.2576 14.3736 78.842 14.2437 67.4055C14.2232 61.7012 14.4215 55.8784 16.131 50.3275C19.7415 38.0682 31.25 33.3541 42.6627 31.7153C50.9642 30.474 59.4092 30.3067 67.2388 27.1617C74.747 24.2328 81.462 17.0641 81.4962 8.5146C81.4962 8.34723 81.6261 8.20776 81.7834 8.20776C81.9338 8.20776 82.0637 8.33329 82.0706 8.4867C82.1663 9.94416 82.0432 11.4156 81.7423 12.8451C80.0875 20.0348 74.3504 25.767 67.7174 28.4029C59.8331 31.7084 51.0941 31.813 42.8337 32.9984C21.6835 35.8645 14.5172 46.1086 14.8455 67.4055C14.9617 78.8211 15.0848 90.2576 15.2831 101.68C15.2831 101.841 15.16 101.98 14.9959 101.98C14.8318 101.98 14.7019 101.854 14.7019 101.687H14.7155Z" fill="white"/>
<path d="M14.7087 79.4278C12.0145 73.333 6.6124 68.5561 0.348729 66.6315L0.998346 66.0178C1.46333 67.6914 2.11295 69.3093 2.94036 70.8295C5.41574 75.432 9.32028 79.0094 13.8813 81.471C14.0249 81.5477 14.0796 81.729 14.0044 81.8685C13.936 81.994 13.7924 82.0568 13.6625 82.0149C8.49971 80.432 4.26695 76.2827 1.83943 71.4222C1.03937 69.7835 0.410271 68.0541 0.0273394 66.2688C-0.0478795 65.9899 0.123072 65.704 0.396595 65.6412C3.69938 66.5827 6.69446 68.6956 9.25874 70.9969C11.741 73.3051 13.7855 76.0945 15.2421 79.1837C15.3993 79.5324 14.8796 79.7904 14.7155 79.4348L14.7087 79.4278Z" fill="white"/>
<path d="M14.5104 70.8504C16.3909 66.0387 20.6783 62.81 25.0342 60.4809C26.4975 59.6998 27.9814 58.9746 29.4584 58.2563C29.6978 58.1378 29.985 58.2424 30.1012 58.4865C30.1696 58.6329 30.1627 58.7933 30.0875 58.9328C28.6105 61.9732 26.8326 66.2549 24.8769 68.9885C22.7434 72.1405 19.2697 74.8811 15.3515 74.8113C15.0096 74.8113 14.9685 74.2744 15.3105 74.2186C18.8799 73.584 21.6972 71.0945 23.7828 68.1796C24.8496 66.7082 25.7112 65.0764 26.6001 63.4376L29.2191 58.4725L29.8482 59.1489C26.8394 60.4181 23.8239 61.7152 21.1433 63.605C18.5107 65.4599 16.1721 67.9634 15.0438 71.0526C14.9138 71.4153 14.36 71.2061 14.5036 70.8434L14.5104 70.8504Z" fill="white"/>
<path d="M14.8933 58.0541C15.2626 52.5451 12.8351 46.8966 8.67067 43.4029L9.32028 43.3541C8.30825 44.6511 7.81591 46.3038 7.74752 47.9565C7.58341 51.3875 9.18352 54.5046 11.2828 57.1057C12.3427 58.4377 13.5189 59.6999 14.7087 60.983C14.8181 61.1015 14.8181 61.2898 14.695 61.4014C14.5924 61.499 14.442 61.506 14.3326 61.4293C12.8966 60.4181 11.529 59.2745 10.3323 57.9356C7.89796 55.2787 6.19528 51.5897 6.56454 47.8729C6.72181 46.0179 7.39195 44.163 8.62964 42.7543C8.78691 42.5521 9.08095 42.5242 9.27242 42.6986C11.358 44.6581 12.9581 47.0849 14.0249 49.7278C15.0779 52.3708 15.5976 55.2299 15.4814 58.089C15.4609 58.4725 14.8796 58.4516 14.9002 58.0541H14.8933Z" fill="white"/>
<path d="M17.7585 47.3916C23.393 43.5632 30.2038 41.6385 36.9803 41.9733C37.3017 41.9802 37.5137 42.3568 37.3632 42.6427C36.488 44.6092 35.2571 46.4153 33.7527 47.9565C29.3148 52.6357 22.0186 54.5325 16.0695 52.0987C15.919 52.036 15.8438 51.8686 15.9054 51.7152C15.9601 51.5827 16.0968 51.506 16.2336 51.5339C22.1759 52.7752 28.5079 51.3316 32.9185 47.0778C34.375 45.6971 35.6127 44.0513 36.529 42.2313L36.9119 42.9007C30.3474 42.2452 23.523 44.0444 18.0867 47.8728C17.779 48.096 17.4371 47.6008 17.7585 47.3847V47.3916Z" fill="white"/>
<path d="M23.8854 38.6539C28.1934 34.3234 31.2021 28.6539 32.4467 22.6219L33.0005 23.1658C29.3422 24.3234 26.1283 26.8269 24.0153 30.0556C21.9297 33.2983 20.9245 37.1964 20.986 41.1574C21.0066 41.506 20.4663 41.5688 20.4116 41.2271C19.5842 37.1755 20.5689 32.7473 22.9075 29.2955C25.2051 25.8297 28.802 23.3122 32.7612 22.2871C33.0005 22.2104 33.2604 22.3569 33.3219 22.6079C31.9406 28.7934 28.5968 34.5116 24.3025 39.0723C24.0427 39.3512 23.6187 38.9258 23.8922 38.6539H23.8854Z" fill="white"/>
<path d="M37.7872 32.9566C42.6012 31.8199 47.7571 32.4197 52.236 34.5466C53.7267 35.2648 55.1559 36.1435 56.462 37.2035C56.6808 37.3778 56.715 37.6986 56.544 37.9217C56.4688 38.0194 56.3662 38.0751 56.2568 38.103C54.602 38.5563 52.8993 38.8143 51.183 38.905C46.0749 39.1281 40.7207 37.7474 36.6999 34.4629C36.4332 34.2537 36.7136 33.8004 37.0145 33.9678C39.9685 35.5159 43.0593 36.6386 46.2732 37.2174C49.4871 37.7962 52.8104 37.7753 56.0175 37.0919L55.8123 37.9915C54.6294 36.9245 53.3165 35.9901 51.901 35.2509C47.6545 32.9985 42.5807 32.3081 37.9308 33.5284C37.5684 33.6261 37.4179 33.0473 37.794 32.9566H37.7872Z" fill="white"/>
<path d="M40.5771 32.2663C45.3843 29.3235 49.0632 24.4629 50.6838 19.0027L51.265 19.5955C49.6239 20.2022 48.0033 20.8507 46.4579 21.6178C41.9174 23.7935 37.7667 27.6289 36.9529 32.8869C36.9324 33.0473 36.782 33.1589 36.6247 33.1379C36.488 33.117 36.3854 32.9985 36.3785 32.859C36.276 30.9971 36.7957 29.1073 37.6915 27.4755C39.4694 24.198 42.6559 21.9385 45.9587 20.502C47.5998 19.7768 49.2888 19.2119 50.9778 18.6959C51.3266 18.5564 51.6958 18.94 51.5591 19.2886C49.5692 24.8325 45.7604 29.6024 40.8848 32.7544C40.5634 32.9566 40.2489 32.4615 40.584 32.2523L40.5771 32.2663Z" fill="white"/>
<path d="M58.5613 29.9231C61.994 25.7251 64.3258 20.5647 65.2626 15.1882L65.919 15.7251C64.5241 16.4434 63.2248 17.3499 62.0624 18.396C59.7238 20.488 57.898 23.124 56.6398 26.018C56.0038 27.4615 55.5047 28.9747 55.1354 30.5507C55.1012 30.7111 54.9439 30.8087 54.7867 30.7739C54.6499 30.739 54.561 30.6135 54.561 30.481C54.6499 25.3903 57.4398 20.5856 61.2897 17.4476C62.5889 16.3876 64.0249 15.502 65.5566 14.8395C65.8917 14.6791 66.2883 15.0208 66.1926 15.3834C65.543 18.11 64.5993 20.746 63.389 23.2425C62.1786 25.746 60.7084 28.103 59.0126 30.2927C58.7801 30.5995 58.3151 30.216 58.5613 29.9231Z" fill="white"/>
<path d="M65.7891 28.4308C71.4715 25.3695 78.5626 25.23 84.3476 28.0961C84.5664 28.2007 84.6622 28.4727 84.5528 28.6958C81.3252 31.3806 77.5779 33.7934 73.352 34.4908C69.215 35.1811 64.2163 33.5633 62.3837 29.4699C62.2401 29.1491 62.6983 28.8911 62.8897 29.184C64.0044 30.8367 65.6728 31.9524 67.4781 32.587C73.2905 34.693 79.1507 31.4643 83.8826 28.131L83.9373 28.912C78.4942 25.8646 71.4989 25.8716 66.0695 28.9538C65.7412 29.1421 65.454 28.6191 65.7959 28.4378L65.7891 28.4308Z" fill="white"/>
<path d="M77.1198 19.7838C78.0566 14.5676 76.771 8.947 73.7076 4.67924L74.535 4.59555C73.9811 6.06696 73.4272 7.53138 72.9964 9.00976C71.581 13.3263 71.7177 18.2566 74.8085 21.7921C75.041 22.0432 74.6786 22.4407 74.4119 22.2245C68.5722 17.7126 70.8835 9.8396 73.6597 4.21899C73.7896 3.86334 74.2957 3.80755 74.4871 4.1353C75.9368 6.45747 76.9352 9.04463 77.4822 11.7364C78.0224 14.4142 78.0976 17.1827 77.6874 19.8884C77.6258 20.2719 77.0514 20.1813 77.113 19.7907L77.1198 19.7838Z" fill="white"/>
<path d="M81.8928 9.46308C82.6108 7.85918 83.0279 5.99029 83.2877 4.23995C83.4382 3.3613 83.2741 2.51751 82.8227 1.84108C82.3851 1.15768 81.6261 0.843875 80.9628 1.05308C80.2927 1.23439 79.6977 1.85503 79.561 2.49659C79.3558 3.24275 79.896 4.49797 80.1696 5.42544C80.6756 6.76435 81.332 8.31246 82.2894 9.32361L82.0295 9.8536C79.7866 8.76574 78.8498 6.13674 78.2891 3.82155C77.5369 0.655592 81.7697 -1.59684 83.486 1.4157C84.5186 3.17999 83.6843 5.23716 83.2809 7.05026C83.0279 7.94287 82.8022 8.8285 82.4193 9.7211L81.8996 9.45611L81.8928 9.46308Z" fill="white"/>
<path d="M28.1934 59.916C24.3846 64.2396 20.3023 68.319 15.9806 72.1056" stroke="white" stroke-width="0.72" stroke-linecap="round" stroke-linejoin="round"/>
<path d="M12.9787 78.8909C9.11514 75.1461 5.25163 71.3944 1.39496 67.6497" stroke="white" stroke-width="0.72" stroke-linecap="round" stroke-linejoin="round"/>
<path d="M12.9513 56.3805C12.6641 52.0151 11.3512 47.7194 9.15619 43.9537" stroke="white" stroke-width="0.72" stroke-linecap="round" stroke-linejoin="round"/>
<path d="M35.4554 43.2285C30.32 46.0597 24.7607 48.082 19.0304 49.2048" stroke="white" stroke-width="0.72" stroke-linecap="round" stroke-linejoin="round"/>
<path d="M32.4261 23.3611C28.0771 27.587 24.8427 32.9914 23.1469 38.8631" stroke="white" stroke-width="0.72" stroke-linecap="round" stroke-linejoin="round"/>
<path d="M55.3132 37.2654C49.706 36.5612 44.1808 35.1738 38.9018 33.131" stroke="white" stroke-width="0.72" stroke-linecap="round" stroke-linejoin="round"/>
<path d="M49.8837 20.2858C45.6373 23.5772 42.0268 27.7195 39.3121 32.4057" stroke="white" stroke-width="0.72" stroke-linecap="round" stroke-linejoin="round"/>
<path d="M82.7543 28.5981C77.5232 29.5603 72.1553 29.7555 66.8695 29.1768" stroke="white" stroke-width="0.72" stroke-linecap="round" stroke-linejoin="round"/>
<path d="M64.695 16.7712C60.9409 20.9414 58.3151 26.1506 57.1731 31.6945" stroke="white" stroke-width="0.72" stroke-linecap="round" stroke-linejoin="round"/>
<path d="M74.3093 5.58569C73.7418 10.5578 74.4188 15.6693 76.265 20.3067" stroke="white" stroke-width="0.72" stroke-linecap="round" stroke-linejoin="round"/>
</g>
<defs>
<clipPath id="clip0_13_299">
<rect width="84.5938" height="101.98" fill="white"/>
</clipPath>
</defs>
</svg>
