<svg width="56" height="62" viewBox="0 0 56 62" fill="none" xmlns="http://www.w3.org/2000/svg">
<g clip-path="url(#clip0_13_297)">
<path d="M54.7659 25.0152C49.9915 25.2301 44.3489 25.7052 41.4766 29.9168C41.4191 29.9493 41.3808 30.0144 41.3744 30.086C41.234 30.3008 41.1 30.5091 40.9723 30.7435C40.9468 30.737 40.9213 30.724 40.8957 30.7174C42.4851 27.3196 43.5191 23.6873 43.8127 20.0746C45.2617 21.6108 47.8532 22.7109 49.2893 20.7516C49.8191 20.0291 49.9021 19.0396 49.3723 18.2976C49.0723 17.8745 48.651 17.6076 48.1915 17.4188C49.851 17.0087 51.6255 15.824 51.2553 14.3334C50.6808 12.0356 48.0574 12.9859 46.5383 14.0925C46.4553 12.3155 45.7149 9.28862 43.7106 9.99164C42.1276 10.5449 42.351 12.68 42.9064 14.3269C41.6234 13.5132 39.951 13.025 39.0574 14.3269C38.5404 15.082 38.8149 16.0714 39.4212 16.6768C39.8744 17.1324 40.4425 17.3147 41.0425 17.3733C40.3149 17.6857 39.6319 18.1869 39.1915 18.7532C38.6234 19.4888 38.4447 20.6149 39.3127 21.2008C40.1298 21.7541 41.2851 21.4156 42.051 20.9274C42.2808 20.7842 42.4851 20.6149 42.6702 20.4261C41.7638 25.0543 40.3085 29.2138 38.183 33.0087C39.5234 29.012 38.234 24.4294 36.6127 20.5889C36.3766 20.0291 35.6744 20.2504 35.6489 20.8102C35.4893 24.2992 33.5234 27.0331 33.9574 30.6719C34.1361 32.13 34.7361 35.2414 36.1021 36.296C34.4361 38.6393 32.4766 40.846 30.1532 42.929C28.6276 39.2447 27.5872 35.3847 27.051 31.4335C27.0638 31.4139 27.0766 31.3879 27.0893 31.3684C31.6659 30.7109 32.4702 25.2301 34.117 21.4025C34.1872 21.3179 34.2638 21.2463 34.334 21.1617C34.417 21.0641 34.4106 20.9534 34.3596 20.8623C34.4808 20.6019 34.6149 20.348 34.7489 20.1137C34.9787 19.7101 34.4936 19.1829 34.0787 19.3716C30.8425 20.8297 27.8936 22.8346 26.6361 25.7248C26.5851 20.6995 27.3383 15.5832 28.9595 10.5124C29.534 12.1202 31.2064 13.37 32.8595 12.4977C33.734 12.0356 34.3021 11.0071 34.0213 10.0047C33.8617 9.42532 33.4787 9.00221 33.0127 8.68325C34.7234 8.48797 36.6957 7.466 35.7766 5.70197C35.1127 4.42613 33.6702 3.89887 32.3617 4.16576C33.1595 2.76624 33.3319 0.832963 31.6915 0.14948C30.734 -0.2541 29.7127 0.292686 29.1766 1.11937C28.7681 1.75729 28.6851 2.50587 28.7744 3.24143C28.6404 3.0852 28.5127 2.93549 28.3915 2.77926C28.0404 2.33012 27.6638 1.91352 27.1659 1.64012C26.3489 1.18447 25.2893 1.204 24.7149 2.03069C24.217 2.74672 24.3319 3.80123 24.7978 4.50424C24.9766 4.77764 25.2191 5.00546 25.4872 5.20074C25.0149 5.24631 24.5553 5.35046 24.1468 5.49367C23.3872 5.76055 22.1489 6.32686 22.2 7.32931C22.251 8.3708 23.4766 8.76137 24.3191 8.80042C24.651 8.81344 24.9766 8.79391 25.3021 8.74184C25.0978 8.95665 24.9064 9.17796 24.7404 9.41881C24.1851 10.1804 23.5404 11.3651 24.6191 11.9965C25.4872 12.5042 26.6298 12.0811 27.4468 11.5474C26.5213 14.4766 25.9213 17.4839 25.6085 20.5173C25.0213 16.3252 21.6064 14.2748 17.6936 12.706C17.3234 12.5563 16.8191 13.0055 17.1383 13.3765C19.7298 16.3838 20.9042 22.3529 25.4106 23.0169C25.3468 24.4359 25.334 25.8484 25.3978 27.2675C18.351 25.5034 12.9255 22.1121 9.24253 15.7459C11.2596 16.3513 14.4 16.1951 14.8021 14.0274C15.0127 12.9143 14.0681 12.0616 13.1106 11.7557C12.2042 11.4628 11.234 11.619 10.3149 11.8859C11.617 10.2585 12.7149 7.20563 10.2447 6.45054C9.1021 6.09904 8.00423 6.91922 7.48083 7.90864C7.34679 8.1625 7.19359 8.48797 7.0787 8.83297C6.46593 7.12101 4.9787 5.64338 3.22976 6.63931C1.48721 7.63525 2.2404 9.54249 3.42125 10.916C1.7553 10.597 -0.204279 10.7337 -0.00640651 12.2699C0.159551 13.5588 1.21913 14.3464 2.3553 14.4831C1.117 15.4074 0.127636 16.6507 1.12976 17.8029C1.79998 18.571 2.917 18.0632 3.65104 17.6857C4.01487 17.4969 4.34678 17.2691 4.66593 17.0283C4.41061 18.6165 4.80636 20.3155 6.46593 20.3806C8.59147 20.4652 8.85955 17.8029 8.44466 15.9477C9.517 18.4278 11.183 20.7451 13.2255 22.6719C12.0383 22.4766 10.7681 22.5677 9.54253 22.8281C6.89359 23.3944 2.67444 24.5661 1.31487 27.2414C1.16168 27.5474 1.35955 28.0226 1.72338 28.0551C6.86806 28.4847 13.7234 30.1902 17.7319 25.9331C20.1383 27.2154 22.7681 27.977 25.4234 27.9835C25.7106 32.846 26.751 37.6499 28.4936 42.1739C25.6915 39.6939 20.9425 39.1406 17.6042 39.453C17.1766 39.4921 17.0361 40.1365 17.451 40.3188C21.5936 42.1349 25.4106 48.6377 30.5106 46.6654C33.4021 52.283 37.4681 57.2821 42.6064 61.1552C42.8681 61.3505 43.1744 60.9795 42.9319 60.7647C37.3978 55.8566 33.1851 50.0242 30.4276 43.6515C34.5766 40.6637 38.1191 36.348 40.5255 31.4921C40.5574 31.5051 40.583 31.5181 40.6149 31.5311C40.5574 32.0128 41.234 32.3057 41.5149 31.8566C43.8447 32.5986 46.3149 32.6117 48.6638 31.7134C50.0234 31.1926 51.3064 30.3529 52.3532 29.3309C53.3936 28.3155 53.9808 26.8118 55.0532 25.8745C55.3851 25.5816 55.2255 25.0218 54.7532 25.0413L54.7659 25.0152ZM40.4298 20.5628C38.9042 20.5173 39.9447 19.0527 40.5574 18.5905C41.1638 18.1283 41.8468 17.9396 42.5234 17.6466C42.7532 17.549 42.7595 17.2821 42.6191 17.1454C42.6319 17.0283 42.5744 16.9111 42.434 16.8981C42.0255 16.8655 41.6106 16.8395 41.2085 16.7549C40.7872 16.7288 40.4361 16.5596 40.1489 16.2602C39.3957 15.8436 39.517 15.2252 40.5319 14.3985C41.6234 14.1381 42.9574 15.1471 43.6149 15.9152C43.9404 16.2927 44.5213 15.8956 44.2468 15.4595C43.8 14.737 43.4872 14.0079 43.3787 13.1552C43.3276 12.7451 43.3213 12.3285 43.3595 11.9184C43.3276 11.4432 43.6021 11.2805 44.1893 11.4367C44.7893 11.0852 45.1532 11.2349 45.2744 11.8924C45.4213 12.2699 45.5298 12.6605 45.6 13.0575C45.7085 13.6434 45.7021 14.2292 45.7085 14.8151C45.7085 14.8281 45.7085 14.8346 45.7149 14.8411C45.6191 15.095 45.9447 15.4074 46.1808 15.2056C46.1936 15.1926 46.2127 15.1796 46.2255 15.1666C46.3276 15.1405 46.4234 15.0754 46.4681 14.9778C46.9213 14.6393 47.4127 14.3594 47.9553 14.1772C48.7212 13.9168 51.0702 13.9038 49.9468 15.2772C48.9893 16.4424 47.4638 16.2602 46.2191 16.7028C45.9191 16.8134 45.8553 17.3277 46.1872 17.4514C46.2191 17.5034 46.2702 17.549 46.3532 17.562C46.9149 17.6987 47.4957 17.8549 48.0064 18.1479C48.9957 18.7207 49.2 20.0811 48.051 20.6605C46.283 21.5458 45.0702 19.7817 43.8638 18.7923C43.8638 18.623 43.8766 18.4538 43.8766 18.2846C43.8766 17.7964 43.1106 17.7703 43.0404 18.2455C42.9957 18.5124 42.951 18.7728 42.9064 19.0396C42.3383 19.9054 41.4447 20.6019 40.417 20.5759L40.4298 20.5628ZM27.6255 30.3724C28.4808 28.654 29.4319 26.9941 30.5617 25.4514C31.0915 24.7353 31.6723 24.0779 32.2595 23.4335C31.3021 26.3301 30.2872 29.37 27.6191 30.379L27.6255 30.3724ZM28.7298 24.1365C29.9425 22.737 31.5 21.7931 33.1276 20.999C33.0447 21.2008 32.9617 21.4156 32.8851 21.6304C30.3191 23.9412 28.3596 27.3391 27.1213 30.4766C27.0574 28.1202 27.0319 26.1023 28.7298 24.1365ZM25.8893 11.0982C24.4532 11.3846 25.4042 9.86145 25.8574 9.3407C26.4766 8.63118 27.2106 8.24062 28.0276 7.82402C28.2638 7.70685 28.283 7.32931 28.1042 7.19912C28.0468 7.09497 27.9127 7.02988 27.7723 7.10148C27.0255 7.50506 26.2276 7.79147 25.3787 7.8826C24.7404 7.9477 22.6851 8.0193 23.4064 6.81507C23.7191 6.28781 25.0468 6.0014 25.583 5.94281C26.3361 5.85819 26.9808 6.05998 27.7085 6.17715C28.0532 6.22922 28.1744 5.78008 27.8872 5.61083C27.6702 5.48065 27.434 5.38952 27.1851 5.31791C26.6872 5.09659 26.1957 4.87528 25.7872 4.47821C25.2447 3.95095 24.8425 2.64907 25.7553 2.26502C27.2936 1.62711 28.0213 4.36755 29.2404 4.84273C29.4383 5.02499 29.8468 4.91433 29.7957 4.58236C29.6617 3.81425 29.4702 3.02011 29.6489 2.23899C29.8468 1.37324 30.951 0.325233 31.7425 1.2756C32.834 2.57747 31.2319 3.9184 30.7276 4.99895C30.5808 5.31791 30.951 5.61734 31.2319 5.42857C31.417 5.30489 31.5893 5.15518 31.7553 4.97292C32.751 4.6149 33.9574 4.84924 34.6978 5.63687C36.5681 7.62874 32.3681 7.63525 31.5 7.82402C31.3723 7.85006 31.2893 7.92166 31.2319 8.00628C31.1106 8.11043 31.0915 8.33826 31.2447 8.4359C31.2957 8.50099 31.3659 8.55307 31.4617 8.58561C31.5191 8.60514 31.5893 8.61816 31.6532 8.63118C32.1893 8.89155 32.7255 9.23004 33.0191 9.7573C33.4723 10.5775 33.0447 11.5148 32.1702 11.7687C31.3787 12.003 30.5553 11.5148 30.1149 10.8574C29.6744 10.1999 29.6681 9.46438 29.5532 8.7158C29.5851 8.63118 29.6042 8.55307 29.6361 8.46844C29.6744 8.35779 29.6744 8.26014 29.6553 8.16901C29.6553 8.14949 29.6617 8.13647 29.6681 8.11694C29.7 7.94119 29.5468 7.811 29.4 7.80449C29.1638 7.66128 28.851 7.68732 28.7106 8.0193C28.4617 8.61816 28.2319 9.22353 28.0149 9.8289C27.434 10.4538 26.7127 10.929 25.8766 11.0982H25.8893ZM19.5447 15.2187C21.3191 17.2496 22.9149 19.3846 24.3191 21.7215C22.0404 20.1918 20.9553 17.6076 19.5447 15.2187ZM19.7553 14.5807C22.4808 15.9802 24.4978 17.8745 24.8489 21.2854C23.4 18.8639 21.7085 16.5986 19.7553 14.5807ZM8.2787 14.4636C8.15742 14.4766 8.0553 14.5612 7.98508 14.6654C7.85742 14.5222 7.63402 14.6979 7.6787 14.8802C7.91487 15.8305 8.14466 16.7679 7.96593 17.7573C7.81912 18.571 7.23827 19.8924 6.18508 19.4367C4.69785 18.7988 5.54678 16.9176 6.00636 15.5897C6.08296 15.4855 6.16593 15.3814 6.23615 15.2707C6.31913 15.1405 6.28083 15.0038 6.19785 14.9257C6.21061 14.8802 6.217 14.8281 6.22338 14.7825C6.2553 14.5677 5.99359 14.3464 5.80849 14.5091C5.48934 14.789 5.20849 15.2447 4.99785 15.7785C4.78083 15.9607 4.55742 16.1365 4.32764 16.2927C3.817 16.6312 2.96806 17.2105 2.33615 17.2105C0.708487 17.204 2.58508 15.3619 2.96806 15.0494C3.57444 14.5547 4.23827 14.1902 4.96593 13.9038C5.44466 13.715 5.17019 12.9599 4.68508 13.1422C4.6021 13.0966 4.48721 13.0966 4.39785 13.1812C4.32764 13.2463 4.25742 13.3049 4.18083 13.357C4.00849 13.4351 3.82338 13.5327 3.63189 13.6369C3.1021 13.8061 2.51487 13.7475 2.00423 13.4416C1.56381 13.1812 0.587211 12.2243 1.30849 11.8338C1.79998 11.5669 2.78296 11.7361 3.29998 11.8143C3.95742 11.9119 4.55104 12.2243 5.2021 12.309C5.55955 12.3545 5.78934 11.9054 5.5021 11.6515C5.32338 11.4953 5.00423 11.3261 4.60849 11.1828C3.52976 9.95909 2.17657 7.82402 3.97657 7.29676C6.15317 6.65884 6.22976 9.86145 6.7787 11.0787C6.89359 11.3326 7.26381 11.3195 7.32125 11.0331C7.32125 11.0331 7.32125 11.0201 7.32125 11.0136C7.54466 11.1503 7.85742 10.8574 7.67232 10.6296C7.18083 10.0307 7.98508 8.56608 8.36168 8.05835C9.01274 7.1861 10.3532 6.86714 10.7617 8.17552C11.2276 9.65315 9.79147 10.9941 9.10849 12.1202C9.06381 12.1983 9.05742 12.2764 9.07657 12.3545C9.01274 12.5368 9.1787 12.7907 9.42764 12.7191C10.1808 12.5173 10.9468 12.322 11.7319 12.3285C12.6766 12.3285 14.8149 13.0315 13.5127 14.431C12.3127 15.7264 9.99572 14.8216 8.55317 14.4961C8.47657 14.431 8.37444 14.4245 8.2787 14.4571V14.4636ZM2.8404 26.9615C2.98721 26.7923 3.15317 26.6361 3.33189 26.4864C7.57657 26.5059 11.8723 26.3366 16.117 26.1674C12.3255 28.4261 7.14891 27.3846 2.83402 26.9615H2.8404ZM4.39785 25.7573C5.82764 24.9501 7.6021 24.4489 8.85317 24.0844C11.617 23.2838 14.183 23.3944 16.3659 25.2366C12.4149 25.1845 8.34253 25.3082 4.39785 25.7573ZM19.2638 40.2276C19.3915 40.2276 19.5255 40.2276 19.6532 40.2276C19.6723 40.2602 19.6978 40.2927 19.7425 40.3188C22.9787 41.9201 25.7936 43.9835 28.6978 46.0665C25.0978 45.9168 22.3851 42.239 19.2638 40.2341V40.2276ZM29.6234 46.0144C27.0255 43.5995 23.751 41.7638 20.5723 40.2537C24.4021 40.462 28.3085 41.9396 29.9298 45.7606C29.9681 45.8517 30.0319 45.9103 30.0957 45.9493C29.9361 45.9819 29.783 45.9949 29.6234 46.0144ZM35.6489 33.4318C35.3553 32.6507 35.1319 31.8436 34.9978 31.0169C34.7681 29.5783 34.8 28.1007 35.1064 26.6751C35.4191 25.2431 35.9744 23.9607 36.3191 22.6003C36.3957 22.8021 36.4659 23.0104 36.5361 23.2121C35.9681 26.3757 35.234 30.1837 35.6489 33.4318ZM36.3255 34.5189C35.9106 31.095 36.5617 27.606 36.8425 24.1495C37.9021 27.619 38.2723 31.4009 36.3255 34.5189ZM52.9085 25.9786C49.883 27.4107 46.251 29.4937 42.7978 29.8257C45.2361 26.8899 49.1106 26.1674 52.9085 25.9786ZM50.3936 29.4546C47.8404 31.2838 44.8723 31.6548 41.9681 30.9908C42.0893 30.7825 42.2234 30.5873 42.3574 30.392C45.8489 30.444 49.5447 28.5173 52.6532 26.9876C51.9766 27.8663 51.3191 28.7907 50.3936 29.4481V29.4546Z" fill="white"/>
</g>
<defs>
<clipPath id="clip0_13_297">
<rect width="55.2447" height="61.188" fill="white"/>
</clipPath>
</defs>
</svg>
