<svg width="21" height="20" viewBox="0 0 21 20" fill="none" xmlns="http://www.w3.org/2000/svg">
<g clip-path="url(#clip0_13_324)">
<path d="M10.5704 10.6297C8.72733 9.18891 7.67556 7.11176 7.47774 4.79392C7.33597 3.11242 8.06132 0.623137 10.0297 0.398936C11.1276 0.273648 12.2156 1.09462 12.8355 1.92218C13.5377 2.86184 13.6268 4.10154 13.4191 5.21265C13.0234 7.33596 11.2694 9.04384 10.3 10.91H10.6462C8.72403 7.8536 8.73063 3.76194 10.0956 0.491254H9.70985C10.7056 3.82788 10.6825 7.31948 10.2967 10.7517C10.2704 10.9726 10.5671 10.9891 10.6693 10.8539C11.942 9.15924 12.4893 7.01944 12.5124 4.92251C12.5288 3.4751 12.4497 1.454 11.4573 0.300024C11.2891 0.105498 11.0056 0.389045 11.1738 0.583572C12.0969 1.65512 12.1035 3.5839 12.1101 4.92251C12.12 6.94031 11.5397 9.03065 10.3198 10.6528C10.4451 10.6858 10.5671 10.7188 10.6924 10.755C11.0847 7.28651 11.0979 3.75865 10.0923 0.389045C10.0297 0.184627 9.77909 0.214301 9.70656 0.389045C8.30201 3.75205 8.32179 7.97889 10.2967 11.1177C10.3726 11.2397 10.5704 11.2562 10.6429 11.1177C11.8595 8.78008 13.996 6.75568 13.9169 3.94658C13.8576 1.87932 11.9947 -0.220912 9.82525 0.0263681C7.9723 0.23738 7.1909 2.48268 7.0689 4.05868C6.86778 6.66996 8.26574 9.34387 10.2868 10.9199C10.488 11.0781 10.7748 10.7946 10.5704 10.6363V10.6297Z" fill="white"/>
<path d="M10.4385 11.3914C10.9726 10.7485 11.3749 9.98686 12.0574 9.47581C12.8454 8.88564 13.7488 8.43064 14.662 8.07785C16.6831 7.29975 18.7174 7.97894 20.4022 9.19886C20.389 9.09335 20.3759 8.98784 20.3627 8.88564C19.212 10.1385 18.2624 11.6486 16.6007 12.2684C15.5028 12.6806 14.2928 12.5355 13.208 12.1662C12.2189 11.8299 11.3979 11.1309 10.3693 10.9034V11.2892C11.8892 10.6792 13.3399 9.90113 14.9291 9.46592C16.7491 8.96476 18.7042 9.16589 20.5671 9.20545C20.5341 9.08016 20.5011 8.95817 20.4649 8.83288C18.879 9.53845 17.4184 10.4583 15.6676 10.6891C14.1081 10.8935 12.5453 11.0749 10.9693 11.0089C10.7122 10.9991 10.7122 11.398 10.9693 11.4079C12.6607 11.4804 14.3785 11.3024 16.0501 11.0386C17.7184 10.7749 19.1493 9.85497 20.6693 9.17578C20.8605 9.09005 20.7517 8.80651 20.5671 8.80321C18.7504 8.76694 16.9403 8.65154 15.1434 9.00433C13.4322 9.34063 11.8661 10.2605 10.2671 10.9034C10.0989 10.9694 10.0527 11.243 10.2671 11.2892C11.3683 11.5332 12.3145 12.2816 13.3894 12.6476C14.3785 12.9839 15.4533 12.9773 16.4556 12.73C18.3317 12.2684 19.423 10.4979 20.6462 9.16589C20.7385 9.06368 20.7122 8.9285 20.6067 8.85266C19.0043 7.6921 17.0722 6.99642 15.1038 7.51406C14.1213 7.77123 13.1883 8.27238 12.3343 8.80651C11.365 9.40987 10.8737 10.2506 10.1583 11.1112C9.9934 11.309 10.2769 11.5925 10.4418 11.3947L10.4385 11.3914Z" fill="white"/>
<path d="M10.4055 10.5044C9.1889 10.4879 8.01844 9.89114 6.79853 9.76256C5.66104 9.64387 4.57301 9.92741 3.58389 10.478C1.72104 11.51 0.890183 13.3827 0.0230546 15.2225C-0.0231043 15.3214 -0.00661897 15.4401 0.0955901 15.4962C1.94195 16.5347 4.38837 16.6732 6.34353 15.8588C8.48003 14.9719 9.5186 12.5024 10.8209 10.7649C10.9429 10.6033 10.7088 10.3857 10.5473 10.4912C9.62411 11.0979 8.3943 10.8011 7.35243 10.7451C6.42925 10.6956 5.43024 10.8341 4.5796 11.2001C3.60697 11.6188 2.75962 12.2782 1.97821 12.9871C1.2067 13.6861 0.876995 14.6884 0.121967 15.3775C-0.0494808 15.5324 0.171423 15.8061 0.365949 15.6907C1.12757 15.239 2.00459 15.3742 2.84205 15.2456C3.92678 15.0741 4.96865 14.629 5.98085 14.2202C7.76127 13.5047 8.99437 12.2584 10.3758 10.9759C10.5209 10.8407 10.3692 10.5835 10.1813 10.6396C8.10087 11.2825 6.03031 11.876 4.07185 12.842C2.6739 13.5311 1.04185 14.1839 0.0692135 15.4599C-0.0857485 15.6643 0.260443 15.8654 0.415405 15.661C1.32869 14.4609 2.95744 13.8311 4.27297 13.1882C6.20835 12.2452 8.23934 11.6617 10.2868 11.0286C10.2209 10.9165 10.1582 10.8044 10.0923 10.6923C9.44277 11.2924 8.81963 11.9221 8.14373 12.4958C7.27001 13.2377 6.27429 13.6762 5.21593 14.0949C4.25978 14.4708 3.28715 14.8236 2.25847 14.8994C1.52322 14.9521 0.807756 14.962 0.161531 15.3478C0.243958 15.4533 0.323088 15.5588 0.405514 15.661C1.08801 15.0379 1.39134 14.1477 2.03756 13.4849C2.94425 12.5552 4.05866 11.7573 5.30495 11.3715C6.30397 11.0616 7.37551 11.1275 8.4042 11.2133C9.23176 11.2858 10.0329 11.3056 10.7484 10.8341C10.6561 10.7418 10.5671 10.6528 10.4748 10.5604C9.22517 12.2321 8.30858 14.3323 6.41277 15.3841C4.63895 16.3666 2.01778 16.1094 0.300008 15.1467C0.323088 15.239 0.346167 15.328 0.372544 15.4203C1.22978 13.597 2.00129 11.9122 3.7883 10.8209C4.87634 10.1549 6.10944 10.0527 7.34584 10.2274C8.39101 10.3758 9.34386 10.8869 10.4088 10.9033C10.666 10.9066 10.666 10.5077 10.4088 10.5044H10.4055Z" fill="white"/>
<path d="M10.3297 10.7815C9.81208 10.1847 9.65382 9.3868 9.15927 8.77684C8.42072 7.87015 7.65251 6.99972 6.81505 6.18535C5.54238 4.95224 3.63998 4.85333 2.00793 4.47417C1.9255 4.45439 1.82 4.48406 1.78043 4.56649C1.01881 6.2348 2.39369 7.74486 3.62349 8.73728C5.42699 10.1913 7.92946 11.154 10.2539 10.887C10.4154 10.8672 10.5341 10.676 10.3957 10.5441C9.77582 9.96379 9.03727 9.53517 8.41413 8.95818C7.74812 8.34163 7.24367 7.56682 6.55788 6.95686C5.26873 5.81278 3.51139 4.96543 1.83318 4.60276C1.64855 4.56319 1.4804 4.79728 1.63866 4.93906C2.32774 5.54901 2.75966 6.40295 3.33335 7.11842C3.82791 7.73497 4.45435 8.20975 5.14014 8.58891C6.50513 9.34394 8.40753 9.4956 9.43622 10.7617C9.59777 10.9628 9.88132 10.676 9.71977 10.4781C8.79659 9.34723 7.11179 9.02742 5.82923 8.48011C4.9588 8.10754 4.23345 7.55033 3.6169 6.83817C3.01024 6.13919 2.62118 5.27865 1.92221 4.65881C1.85626 4.77091 1.79362 4.88301 1.72768 4.99511C3.56085 5.39075 5.36104 6.36009 6.71944 7.65254C7.30961 8.21304 7.75471 8.89883 8.35148 9.44944C8.90209 9.95719 9.5648 10.3199 10.1121 10.8309C10.1583 10.7155 10.2077 10.6034 10.2539 10.488C8.15366 10.7287 6.30401 9.93411 4.52689 8.89554C3.31686 8.18996 1.7013 6.69639 1.97826 5.15666C2.06068 4.70497 3.89385 5.26876 4.23345 5.34789C5.35775 5.60836 6.21828 6.15238 7.02936 6.96346C7.72834 7.66573 8.40424 8.42735 8.99441 9.22524C9.41973 9.80223 9.5714 10.5144 10.0495 11.0683C10.2176 11.2628 10.5012 10.9793 10.333 10.7848L10.3297 10.7815Z" fill="white"/>
<path d="M10.3429 10.821C9.45925 12.153 9.05371 13.5476 9.46585 15.1236C9.69335 15.9973 9.94392 16.8447 10.3626 17.6459C10.7913 18.4669 11.4902 19.123 11.9848 19.9011C12.0705 20.0363 12.242 20.0231 12.331 19.9011C13.3795 18.4372 13.7092 16.7853 13.2806 15.0346C12.8519 13.2872 11.599 11.909 10.511 10.5407C10.4352 10.4451 10.244 10.4682 10.1978 10.5803C9.634 11.8892 10.0824 13.241 10.6099 14.4906C11.2034 15.8951 12.364 17.8074 11.9881 19.3768C12.1167 19.4131 12.2453 19.4494 12.3739 19.4823C12.6673 17.8074 12.4695 16.2248 11.9288 14.6192C11.4705 13.2608 11.2726 11.7211 10.3132 10.6033C10.145 10.4088 9.8615 10.6924 10.0296 10.8869C10.9429 11.9486 11.0814 13.4454 11.543 14.7247C12.087 16.2281 12.2651 17.7975 11.9848 19.3735C11.9419 19.6241 12.3112 19.7362 12.3706 19.4791C12.664 18.2558 12.0771 16.97 11.6188 15.8622C10.9891 14.3422 9.82523 12.4431 10.5407 10.7814C10.4352 10.7946 10.333 10.8078 10.2275 10.821C11.2331 12.087 12.2519 13.2806 12.8025 14.8269C13.4058 16.5216 13.0135 18.2657 11.9881 19.6967H12.3343C11.9518 19.09 11.4804 18.5559 11.055 17.9789C10.544 17.2865 10.267 16.4787 10.0296 15.6578C9.5252 13.9136 9.68675 12.5387 10.6957 11.0188C10.8374 10.8045 10.4912 10.6033 10.3495 10.8177L10.3429 10.821Z" fill="white"/>
</g>
<defs>
<clipPath id="clip0_13_324">
<rect width="20.7715" height="20" fill="white"/>
</clipPath>
</defs>
</svg>
