<svg width="18" height="17" viewBox="0 0 18 17" fill="none" xmlns="http://www.w3.org/2000/svg">
<g clip-path="url(#clip0_13_322)">
<path d="M17.5417 3.94099C16.8874 2.53747 15.3269 2.01595 13.9017 2.06197C13.8002 1.43307 13.4129 0.884703 12.6496 0.558751C11.5741 0.102417 9.71655 0.0142184 9.0397 1.09945C8.5095 0.20212 7.44534 -0.23504 6.41127 0.190616C5.75322 0.462882 4.56873 1.61714 5.03124 2.39559C3.70386 1.91241 2.14335 2.40709 1.27472 3.55751C0.620432 4.42416 0.575308 5.6973 1.45521 6.18814C0.274486 7.10464 -0.165467 8.77276 0.0563895 10.2568C0.282006 11.76 1.5793 13.3553 3.15862 13.014C2.5645 14.2027 3.57601 15.6331 4.77554 16.1086C6.26086 16.6953 7.91162 16.1431 8.90057 14.9505C9.43077 15.9399 10.8822 16.0396 11.905 15.8018C13.4881 15.4375 14.8418 14.2181 15.2968 12.6267C15.2968 12.6267 15.2968 12.6267 15.2968 12.619C17.5342 12.3697 18.2374 8.75358 16.9438 7.14683C17.8012 6.33003 18.0644 5.06457 17.5417 3.93715V3.94099ZM15.2291 12.2317C15.1802 12.2432 15.1426 12.2777 15.1201 12.3161C14.9998 12.2892 14.8569 12.3391 14.7967 12.4848C14.3417 13.5853 13.6573 14.4482 12.5744 14.9582C11.6418 15.3992 9.52478 15.821 9.24652 14.2986C9.2014 14.057 8.87049 14.0455 8.75392 14.2334C8.14852 15.2228 7.11444 15.8248 5.96003 15.8095C4.35439 15.7903 2.79764 14.3676 3.69258 12.6458C3.74899 12.5346 3.60986 12.4196 3.51961 12.5078C3.51961 12.5078 3.51585 12.5155 3.51209 12.5193C3.49329 12.5155 3.47449 12.5116 3.44816 12.5116C0.0714309 12.8146 -0.500132 7.73738 2.17343 6.3377C2.42537 6.20348 2.2712 5.87753 2.04182 5.84685C1.86132 5.28315 1.68083 4.7156 1.50034 4.1519L1.92149 3.59586C2.24487 3.2584 2.65098 3.02449 3.07966 2.86343C3.77531 2.6065 4.42584 2.59883 5.14781 2.66786C5.18165 2.66786 5.21174 2.65252 5.23054 2.62567C5.38847 2.73305 5.57272 2.57582 5.49 2.39175C4.7793 0.765827 8.25004 -0.323239 8.81785 1.79737C8.87801 2.02745 9.22772 2.03896 9.28412 1.79737C9.56238 0.612437 11.3372 0.71981 12.1382 0.953729C13.4956 1.34871 13.7025 2.52597 13.1835 3.76075C13.1347 3.87196 13.1948 3.9755 13.2775 4.01385C13.2963 4.11355 13.3715 4.20942 13.4806 4.21709C14.7967 4.33597 15.4209 5.33683 15.3983 6.60229C15.3833 7.36924 15.184 8.51966 14.462 8.96066C14.3492 9.02968 14.2853 9.20608 14.368 9.32496C14.8155 9.77746 14.7666 10.23 14.2176 10.6786C14.071 11.4993 13.616 11.7523 12.8602 11.4302C12.8413 11.4264 12.8188 11.4264 12.8 11.4302C12.6834 11.3344 12.4879 11.388 12.4804 11.5759C12.3864 13.7656 9.72408 13.7656 8.46814 12.6765C8.35909 12.5806 8.20868 12.5691 8.09963 12.6765C7.47919 13.2901 6.80234 13.6045 5.95627 13.3323C4.75298 12.9449 4.43712 11.7754 5.13653 10.7131C5.18541 10.6403 5.15157 10.5712 5.09517 10.5367C5.06509 10.4294 4.96732 10.3412 4.83947 10.3872C3.53465 9.54737 3.41432 8.82644 4.47096 8.23206C4.61385 8.12852 4.65521 7.87926 4.47096 7.78723C3.51585 7.31172 2.97813 6.24566 3.56473 5.21795C4.03853 4.38965 4.95604 4.22859 5.77954 4.03686C5.88107 4.12122 6.05404 4.10588 6.1142 3.93332C6.43383 3.06283 7.16708 2.65635 8.08083 2.72154C8.62607 2.75989 9.79928 2.99764 9.80304 3.74925C9.80304 3.95633 10.0475 4.04453 10.1904 3.91414C10.8409 3.13569 11.4914 3.22006 12.1419 4.16724C12.0818 4.70793 11.9163 5.21412 11.6456 5.68963C11.6305 5.72414 11.623 5.75482 11.623 5.7855C11.5516 5.86603 11.5403 6.00791 11.6569 6.0731C12.5744 6.59462 13.4355 7.31172 13.4167 8.48898C13.3904 10.0612 11.7659 10.9816 10.4987 10.0382C10.3596 9.93468 10.1302 10.0382 10.0963 10.2069C10.0324 10.8704 9.69399 11.1886 9.07355 11.1541C8.25004 11.5721 7.7236 11.1848 7.49047 9.9922C7.52055 9.75828 7.15204 9.71993 7.09188 9.93851C7.08436 9.96919 7.0806 9.99604 7.07308 10.0267C6.30974 10.2261 5.32078 9.19458 5.82842 8.50049C6.02772 8.22822 6.31726 8.04032 6.59176 7.86009C6.78729 7.72971 6.71209 7.41909 6.47143 7.41526C5.25686 7.38458 5.42607 5.88136 6.12924 5.40969C6.62184 5.0799 7.24981 5.04923 7.68976 5.49406C7.72361 5.52857 7.77625 5.54007 7.82137 5.5324C7.91162 5.56692 8.02443 5.5324 8.05451 5.41736C8.47566 3.79527 11.4914 5.333 10.352 7.12765C10.2392 7.30789 10.3934 7.51113 10.5739 7.52647C11.3184 8.4468 11.2507 9.04119 10.3708 9.30962C9.5323 9.3518 9.10739 9.11788 9.09235 8.6117C9.10739 8.55801 9.11491 8.50049 9.11115 8.43913C9.11115 8.43146 9.11115 8.42379 9.10739 8.41612C9.10739 8.40462 9.10739 8.39312 9.10739 8.37778C9.12243 8.2704 9.00586 8.18221 8.92689 8.22822C8.84417 8.21288 8.75392 8.23973 8.70504 8.32793C8.48694 8.70373 7.93418 8.8878 7.7048 8.40846C7.46038 7.89844 7.87778 7.13149 8.47566 7.2427C8.63359 7.27337 8.70504 7.08164 8.58095 6.98577C8.18612 6.67515 7.65592 6.9014 7.38142 7.27337C7.0994 7.65685 7.02043 8.21672 7.22725 8.65388C7.41902 9.06419 7.83265 9.28661 8.27261 9.24059C8.44934 9.22142 8.62607 9.15623 8.76896 9.05653C8.98706 9.85415 10.3445 10.0804 11.0891 9.57038C12.0554 8.90697 12.0103 7.41909 10.9537 7.07397C11.3598 6.04242 10.8296 4.97637 9.82936 4.46251C9.09235 4.08287 7.9793 4.17874 7.74993 5.02238C7.14076 4.31296 5.86227 4.73094 5.32831 5.44037C4.7041 6.26867 5.00116 7.47278 5.87355 7.81024C5.28694 8.29725 4.83571 8.93765 5.17037 9.76979C5.48248 10.5444 6.32478 10.8435 7.02419 10.5176C7.12572 12.1128 9.82936 12.3927 10.5137 10.717C11.7471 11.3804 13.2813 10.8282 13.7701 9.41699C14.2853 7.93295 13.4016 6.33003 11.999 5.81617C12.5067 5.02622 13.0745 3.77226 12.1156 3.09735C11.4613 2.63718 10.7469 2.8941 10.1828 3.32743C9.65639 1.69 6.14805 1.87406 5.71937 3.74158C4.51232 3.86046 3.27895 4.19408 2.89916 5.52473C2.6021 6.56011 3.06462 7.51496 3.89188 8.06716C3.30151 8.60786 2.85028 9.37864 3.20375 10.2031C3.47073 10.8205 4.02349 11.0813 4.58753 10.9586C4.07613 11.7408 4.21526 12.7954 4.96356 13.455C5.98635 14.3561 7.35134 14.0609 8.29141 13.2326C9.18635 13.9036 10.2881 14.1644 11.3786 13.7924C12.2021 13.5125 13.0444 12.7647 12.9316 11.8559C14.5034 12.3544 15.733 10.7553 14.9358 9.29044C16.6768 7.88693 16.1654 3.54601 13.5633 3.80294C13.7589 3.40796 13.8829 3.00531 13.913 2.61417C14.9283 2.58349 16.0188 2.81741 16.7107 3.63804C17.5229 4.59673 17.5116 6.14596 16.47 6.93208C16.3459 7.02412 16.3046 7.19668 16.4211 7.31939C17.6808 8.6232 17.0115 11.7638 15.2178 12.247L15.2291 12.2317Z" fill="white"/>
</g>
<defs>
<clipPath id="clip0_13_322">
<rect width="17.8125" height="16.3168" fill="white" transform="translate(0 0.0257568)"/>
</clipPath>
</defs>
</svg>
