<svg width="77" height="69" viewBox="0 0 77 69" fill="none" xmlns="http://www.w3.org/2000/svg">
<g clip-path="url(#clip0_13_342)">
<path d="M60.9224 32.5089C61.1488 32.356 61.2102 32.0434 61.0572 31.8169C60.9223 31.6133 60.6608 31.5454 60.4446 31.6381C60.2655 31.65 59.7424 31.5635 59.4817 31.517C59.2276 31.4723 59.0059 31.437 58.8945 31.4332C58.2522 31.4074 57.5986 31.4205 56.9423 31.468C55.6361 31.5647 54.3701 31.803 53.1742 32.1772C53.0624 32.2119 52.9251 32.2499 52.7813 32.286C52.0247 32.4874 50.9888 32.7564 50.6146 33.4992C50.2956 34.135 50.4378 34.6077 50.6232 34.8926C51.0199 35.519 51.9442 35.7871 52.6766 35.7684C54.2077 35.7325 55.9439 35.6921 57.4749 34.9572C57.5923 34.903 57.7092 34.8381 57.8219 34.7755C58.5067 34.3955 59.1141 33.9056 59.703 33.4313C60.1141 33.0994 60.5025 32.7856 60.92 32.5047L60.9224 32.5089Z" fill="white"/>
<path d="M63.916 18.2592C63.4247 18.4171 59.5823 20.3309 59.3501 21.8906C59.2873 22.3187 59.4638 22.6959 59.8449 22.9596C60.572 23.4627 61.9332 22.8548 63.1468 22.2469L63.3269 22.1579C63.5885 22.0291 63.8479 21.8961 64.0984 21.7571C64.8751 21.3261 65.6091 20.8478 66.2703 20.4153C67.2892 19.7516 67.1494 19.0864 67.0442 18.828C66.9275 18.5487 66.6873 18.3325 66.3242 18.1899C65.6634 17.934 64.8776 17.955 63.9202 18.2569L63.916 18.2592Z" fill="white"/>
<path d="M62.7068 23.7962L62.6901 23.8055C61.8258 24.2851 59.872 25.5277 59.4287 27.15C58.9416 27.1581 58.4514 27.1407 57.9634 27.1275C57.6638 27.119 57.3665 27.1146 57.0734 27.108C58.0551 25.6785 58.8147 24.0554 59.1788 22.2314C59.1894 22.1818 59.1853 22.1349 59.1788 22.0839C59.2578 21.7342 59.278 21.2588 59.2728 20.6391C59.2718 19.6729 59.1452 18.7656 58.8961 17.9426C58.4321 16.3979 57.5148 15.0991 56.3129 14.2915C55.6591 13.8515 55.2087 14.014 54.998 14.1364C54.7711 14.2787 54.656 14.4846 54.5701 14.6742C53.7548 16.4429 54.2211 18.7892 55.7028 20.3864C56.0143 20.7214 56.3518 21.0148 56.6805 21.302C57.1025 21.6687 57.5021 22.0149 57.8233 22.4264C57.9026 22.5299 57.9828 22.6056 58.0621 22.6599C56.813 27.4655 52.5701 30.7538 49.2889 32.6456C49.9952 31.9205 50.0734 29.6107 50.0724 29.5893C50.0974 27.8824 49.0077 26.4009 48.215 25.317C48.0922 25.1448 47.871 25.071 47.6664 25.1354C47.4702 25.1951 47.3221 25.381 47.3141 25.593C47.2944 26.1282 47.2297 26.6611 47.1575 27.22C47.0681 27.925 46.9736 28.6601 46.9862 29.4013C46.9899 29.4375 47.1158 32.863 48.6571 32.9143C48.7062 32.9143 48.7702 32.9116 48.8338 32.8981C48.4037 33.1368 47.9917 33.349 47.615 33.5362C46.1039 34.2874 44.6027 34.8692 43.0091 35.4914C40.625 36.4211 38.0243 37.4328 34.9788 39.1883C36.9557 37.1902 38.7898 35.0528 40.2354 32.6286C41.9586 29.75 43.0775 26.5404 43.9297 23.3422C43.9704 23.7402 44.2601 24.0655 44.8008 24.3116C46.3381 25.015 48.0508 24.4797 49.2167 23.9037C49.6834 23.672 50.1339 23.4111 50.5867 23.1544C51.3458 22.7113 52.0612 22.2979 52.8475 22.0418C52.8749 22.0321 52.9065 22.02 52.9315 22.0061C53.061 21.9343 53.1538 21.8063 53.1794 21.6556C53.2101 21.4747 53.1401 21.2896 52.9964 21.1782C52.191 20.5438 51.0845 20.2622 49.705 20.345C48.4127 20.4176 47.1073 20.7816 45.9386 21.3918L45.8175 21.459C45.0896 21.8302 44.4113 22.2121 44.1026 22.6892C44.5506 20.9278 44.9244 19.1803 45.2749 17.4893C45.5527 17.5372 46.0286 17.5189 46.8743 17.2517C47.1592 17.1646 47.4273 17.0377 47.6779 16.8986C47.8491 16.8036 48.0115 16.7026 48.1697 16.6039C50.065 15.3937 51.1867 14.0886 51.598 12.6152C51.6217 12.5201 51.6816 12.323 51.6209 12.1055C51.4969 11.6063 50.9678 11.3811 50.3081 11.5505C48.7392 11.9515 47.5752 12.4718 46.6444 13.1958C45.8356 13.8248 45.2286 14.6205 44.8403 15.5841C44.7669 15.0187 44.6525 14.4977 44.5428 14.1327C43.8949 11.9908 42.0891 10.4588 40.6425 9.2299C40.4983 9.10784 40.3003 9.07574 40.124 9.15172C39.9519 9.22539 39.8349 9.3886 39.8195 9.57737C39.8008 9.88813 39.7626 10.1933 39.7268 10.5027C39.6699 10.9711 39.6117 11.4567 39.6138 11.9526C39.6126 13.3677 40.0901 14.8777 41.0031 16.3262L41.1227 16.522C41.8151 17.6615 42.6286 18.8814 43.526 18.924C43.6847 18.9343 43.8368 18.8935 43.9774 18.8319C43.1852 22.532 42.2102 26.4537 40.5178 29.9979C39.7592 28.6111 39.1133 27.1618 38.6001 25.6662C38.5973 25.6513 38.601 25.6383 38.5983 25.6235C38.5766 25.3679 38.5382 25.1216 38.4873 24.8822C38.861 25.2702 39.2413 25.2667 39.457 25.2125C39.5396 25.194 39.6194 25.1606 39.6987 25.1166C40.8178 24.4956 41.3326 21.7031 41.349 21.4374C41.4126 20.3316 41.1357 19.4586 40.5371 18.9114C40.4282 18.8135 40.2599 18.6775 40.0206 18.6301C39.5484 18.5371 39.1095 18.8189 38.8207 19.4106C38.8091 19.4389 37.8331 21.4496 37.8745 23.1579C37.5409 22.5074 37.139 21.9604 36.7769 21.5441C35.9379 20.5734 34.8492 19.7138 33.3533 18.829C32.5966 18.3806 32.1201 18.5358 31.8557 18.7481C31.5559 18.9854 31.4815 19.3434 31.4494 19.5906C31.3083 20.6356 31.5694 21.7851 32.17 22.8281C32.6436 23.6521 33.3422 24.4386 34.2955 25.2313C34.7856 25.642 35.386 26.0844 36.1081 26.2735C36.679 26.4264 37.2523 26.3868 37.7306 26.176C38.3105 27.8312 39.0445 29.4392 39.9157 30.9601C39.9366 30.9976 39.9653 31.0199 39.9922 31.0487C39.7963 31.4141 39.5981 31.7753 39.3887 32.1263C38.619 33.4163 37.7283 34.6261 36.7649 35.7833C36.827 34.7931 36.2813 33.5339 36.2743 33.5214C36.0385 33.0078 35.7548 32.6246 35.4098 32.3572C35.0514 32.0755 34.6345 31.9246 34.2719 31.7927L33.2164 31.4062C33.0731 31.3547 32.92 31.3741 32.7906 31.4459C32.6611 31.5177 32.5771 31.6518 32.5492 31.7983C32.4589 32.3836 32.357 33.0464 32.5311 33.7144C32.7366 34.5179 33.2906 35.1225 33.8586 35.6539C33.9253 35.7151 34.0083 35.8056 34.1024 35.9063C34.6309 36.465 35.0769 36.8947 35.5537 36.9469C35.6223 36.9525 35.6845 36.9563 35.7443 36.9558C33.9483 38.9355 31.9534 40.7634 29.9757 42.5436C29.3458 40.6703 28.5447 38.8429 27.5748 37.1146C28.4915 36.7097 29.063 35.7318 29.4771 34.8739C29.8894 34.0225 30.2702 33.1831 30.3819 32.2527C30.5221 31.1373 30.1984 30.0717 29.5285 29.4058C29.1242 29.002 28.6317 28.7838 28.1378 28.7794C27.7658 28.7783 27.384 28.8973 27.0332 29.1411C26.2106 29.6959 25.7249 30.73 25.6208 32.1368C25.5839 32.6706 25.5896 33.2026 25.6381 33.7328C24.761 32.6248 23.7003 31.6678 22.3647 31.131C21.6468 30.8412 21.0212 30.7569 20.4446 30.8694C19.6625 31.0248 19.0221 31.5932 18.8529 32.2823C18.6749 33.0146 18.9709 33.7843 19.7275 34.5769C21.4442 36.3714 24.0119 37.3768 26.4921 37.2403C27.5775 39.1175 28.4648 41.1101 29.1368 43.1675C29.1488 43.199 29.1669 43.2218 29.1831 43.251C28.3353 44.0164 27.4894 44.7752 26.6634 45.5504C26.1413 46.0367 25.6035 46.5536 25.0708 47.0895C25.0932 46.6674 25.0689 46.2495 25.0157 45.8585C24.8563 44.6854 24.4496 43.5293 23.8434 42.5058C22.0206 39.4376 18.5918 37.8449 16.1706 36.9166C16.0185 36.859 15.8358 36.8839 15.7091 36.9706C15.5741 37.0619 15.491 37.2173 15.4937 37.3796C15.4857 39.5304 15.4744 41.754 16.1853 43.8717C16.8152 45.745 18.0078 47.4808 19.6375 48.8921C20.53 49.6639 21.392 50.1249 22.1587 50.2565C19.5736 53.3731 17.3616 57.0637 16.725 61.3492C16.6854 61.6224 16.8736 61.8729 17.1426 61.9148C17.2544 61.9292 17.3625 61.9075 17.4585 61.8542C17.588 61.7824 17.685 61.6521 17.7101 61.4907C18.3751 57.0201 20.8757 53.1803 23.6866 49.9984C23.7326 49.973 23.7827 49.9451 23.8282 49.909C24.1516 49.6749 24.3989 49.3629 24.5911 49.0105C25.3986 48.1528 26.2168 47.3438 27.0117 46.5914C27.385 47.5693 28.7595 48.314 29.2051 48.5364C29.7467 48.8038 30.3492 48.8955 30.8088 48.9463C31.8334 49.0604 32.8325 49.0303 33.7788 48.8656C35.2618 48.6052 36.6146 48.002 37.9091 47.2836C38.6649 46.8642 39.3998 46.4073 40.1199 45.9531C41.1587 45.3056 42.2286 44.6354 43.3282 44.1072C43.5226 44.0048 43.6396 43.7924 43.6044 43.5716C43.5651 43.3531 43.3889 43.1833 43.1635 43.1609C42.1028 43.0505 41.0268 42.7846 39.9833 42.5281C38.3304 42.1182 36.6237 41.6999 34.8708 41.8479C33.9636 41.9254 32.9991 42.1656 31.9159 42.5756C31.676 42.665 31.4302 42.7632 31.1759 42.8661C35.6052 39.6381 39.1409 38.0967 42.2644 36.8658C42.2881 36.8691 42.308 36.8853 42.3359 36.8862C45.3794 37.1252 48.4054 38.2478 50.8725 40.0463C50.3812 40.4009 50.2101 41.0966 50.0963 41.5803L50.0749 41.6796C49.5906 43.6905 50.117 45.643 50.64 46.9202C50.9189 47.5901 51.3837 48.5556 52.2471 49.1469C52.6059 49.3901 52.9667 49.5285 53.3267 49.5473C53.6782 49.5706 54.0016 49.4841 54.2897 49.3242C54.8951 48.9882 55.3264 48.3284 55.4941 47.6564C55.7879 46.483 55.4614 45.3534 55.1366 44.6107C54.7887 43.8262 54.3164 43.1325 53.8283 42.4694C54.8169 42.9913 55.8896 43.3299 56.9925 43.4771C58.0546 43.6195 58.9271 43.5286 59.6615 43.2084C60.652 42.7789 61.3218 41.8994 61.3969 40.962C61.4058 40.8697 61.3975 40.776 61.3956 40.6842L61.3998 40.6818C61.4383 40.6332 61.4291 40.5673 61.3864 40.52C61.2774 39.5755 60.5821 38.667 59.5814 38.212C58.6002 37.7625 57.5204 37.7555 56.4925 37.8125C55.6075 37.8612 54.5643 37.9595 53.5511 38.3087C52.8074 38.563 52.163 38.937 51.6442 39.3997C51.6196 39.3751 51.6011 39.3417 51.5724 39.3194C49.4019 37.7111 46.8129 36.6083 44.1415 36.1246C45.4743 35.6034 46.7622 35.0799 48.064 34.434C48.4616 34.2352 48.8945 34.0114 49.3454 33.7611C51.5543 32.5354 54.2868 30.6587 56.346 28.0905C56.3762 28.0956 56.4045 28.1072 56.4365 28.1059C56.9235 28.0977 57.4286 28.1124 57.9402 28.1289C58.4133 28.1449 58.8948 28.1562 59.3693 28.1551C59.4368 28.631 59.6555 29.094 60.0203 29.5251C60.953 30.635 62.5752 31.1275 63.9688 30.7256C64.0216 30.7126 64.1144 30.683 64.2188 30.625C64.294 30.5833 64.3687 30.5309 64.4336 30.4512C64.572 30.2871 64.6398 30.0747 64.6269 29.8251C64.6053 29.3729 64.3714 28.7053 63.3661 28.0944C63.0963 27.9329 62.812 27.7848 62.5245 27.6603C62.6275 27.6195 62.7282 27.5746 62.833 27.5273C63.9293 27.0228 64.8754 26.2083 65.6383 25.5556C65.861 25.3664 66.3868 24.9163 66.2888 24.2771C66.23 23.9056 65.9616 23.5793 65.5494 23.3876C64.5436 22.9135 63.4487 23.4009 62.7156 23.8023L62.7068 23.7962ZM39.7157 19.8424C39.8002 19.6699 39.8828 19.6022 39.8628 19.6351C40.3278 20.0598 40.3836 20.8098 40.3499 21.3692C40.312 22.0292 39.6092 24.1286 39.2613 24.2398C39.2613 24.2398 39.1871 24.2045 39.0675 24.0087C38.5364 23.1401 39.1395 21.0086 39.7115 19.8447L39.7157 19.8424ZM36.0243 22.1857C36.8049 23.0906 37.3323 24.1196 37.5298 25.135C37.1152 25.0866 36.6515 24.8415 36.128 24.4001C34.5864 23.0983 33.3882 21.4312 32.6326 19.5676C32.6892 19.5908 32.7546 19.62 32.8511 19.6758C34.2547 20.5025 35.2594 21.2994 36.0285 22.1834L36.0243 22.1857ZM34.9248 24.4561C34.0624 23.7386 33.4403 23.0407 33.0246 22.3211C32.5329 21.4743 32.3246 20.5577 32.4262 19.7368C33.2012 21.6059 34.4147 23.281 35.9633 24.5953C36.387 24.9554 36.784 25.1885 37.1503 25.3074C36.9073 25.3713 36.6317 25.3767 36.3507 25.3033C35.8187 25.1616 35.3287 24.8 34.9206 24.4584L34.9248 24.4561ZM28.825 30.0965C29.2784 30.5495 29.4923 31.2991 29.3927 32.1136C29.2958 32.8937 28.9522 33.6523 28.577 34.423C28.2632 35.0778 27.8416 35.8142 27.2696 36.1316L27.2612 36.1363C27.2376 36.0838 27.2223 36.0268 27.1964 35.9702C27.2122 33.9024 27.4354 31.8343 27.8506 29.8071C27.9369 29.7756 28.032 29.7501 28.1262 29.7525C28.3548 29.7512 28.6038 29.8752 28.8204 30.0882L28.825 30.0965ZM26.6129 32.1924C26.6661 31.442 26.88 30.4495 27.569 29.9688C27.2193 31.7303 27.0185 33.5238 26.9676 35.3216C26.6591 34.3131 26.5386 33.2495 26.6129 32.1924ZM20.6356 31.8338C21.0151 31.7597 21.4627 31.8281 21.9955 32.0404C23.4289 32.6158 24.5272 33.7977 25.4213 35.1038C23.8565 33.7602 21.9362 32.8488 20.1699 32.0376C20.2051 32.0126 20.2404 31.9876 20.278 31.9667C20.3865 31.9065 20.5085 31.8606 20.638 31.8379L20.6356 31.8338ZM20.4477 33.8768C20.0986 33.5135 19.7079 32.9766 19.8222 32.5036C19.8478 32.402 19.8993 32.3079 19.9703 32.2193C22.0311 33.1675 24.3154 34.2428 25.976 35.9756C26.027 36.0675 26.0863 36.1547 26.1415 36.2442C24.0352 36.2771 21.896 35.3943 20.4477 33.8768ZM51.5535 46.5389C51.0833 45.3963 50.6092 43.6659 51.034 41.9119L51.0572 41.8062C51.1004 41.6184 51.2018 41.1908 51.3396 40.9668C51.5226 41.395 51.7163 41.8228 51.9142 42.2482C52.6407 43.833 53.3908 45.4702 53.5871 47.2018C53.6333 47.6295 53.6325 48.1596 53.4162 48.5473C53.4055 48.5478 53.3949 48.5482 53.3842 48.5487C53.2084 48.537 53.0127 48.4599 52.8078 48.3169C52.3167 47.9832 51.9204 47.4167 51.5577 46.5366L51.5535 46.5389ZM54.2176 45.0114C54.4807 45.6136 54.7461 46.515 54.5239 47.4138C54.411 47.8697 54.0972 48.3278 53.7108 48.4876C53.8478 48.144 53.893 47.7038 53.8297 47.1764C53.6316 45.4022 52.8698 43.7441 52.1364 42.1467C51.9594 41.7589 51.7824 41.371 51.6161 40.9827C51.8738 41.2602 52.2029 41.804 52.4124 42.152C52.5574 42.3937 52.6863 42.6062 52.7906 42.7449C53.3194 43.4618 53.8622 44.2037 54.2176 45.0114ZM59.2589 42.2959C58.6966 42.5423 57.9939 42.6046 57.1168 42.4905C55.6508 42.2992 54.2447 41.7141 53.0554 40.8011C52.9692 40.7343 52.8797 40.642 52.7837 40.5477C52.7615 40.5273 52.7346 40.4986 52.71 40.474L53.0351 40.5776C54.5808 41.0797 56.1827 41.5944 57.8375 41.752C58.5458 41.8178 59.4108 41.8019 60.1726 41.5212C59.9683 41.8421 59.6468 42.1189 59.2608 42.2894L59.2589 42.2959ZM53.8758 39.2482C54.773 38.936 55.729 38.8479 56.5458 38.8042C57.4415 38.755 58.378 38.7596 59.1649 39.1148C59.8234 39.4157 60.4627 40.115 60.3992 40.8766C60.3932 40.9838 60.3634 41.0876 60.3272 41.1897C59.5561 41.552 58.6122 41.5733 57.8567 41.5011C56.2254 41.3468 54.6408 40.8334 53.1081 40.335L52.3558 40.0916C52.8547 39.6619 53.4267 39.3936 53.8711 39.2398L53.8758 39.2482ZM63.6162 29.7852C62.6077 30.0444 61.4548 29.6793 60.7878 28.8807C60.5736 28.6227 60.4388 28.3699 60.3763 28.1096C60.3869 28.1092 60.4018 28.1064 60.4166 28.1036C61.2737 28.2015 62.1113 28.4904 62.8467 28.9397C63.1606 29.1314 63.5408 29.4229 63.6139 29.781L63.6162 29.7852ZM64.9879 24.7969C64.2376 25.4426 63.3838 26.1677 62.4114 26.6199C61.8287 26.8886 61.1848 27.0275 60.508 27.0972C61.0374 25.9351 62.633 24.9623 63.1911 24.6689C64.0513 24.1916 64.6659 24.069 65.1218 24.2802C65.2395 24.335 65.2938 24.4032 65.2989 24.4223C65.3035 24.4306 65.3053 24.5225 64.9856 24.7927L64.9879 24.7969Z" fill="white"/>
</g>
<defs>
<clipPath id="clip0_13_342">
<rect width="64.7263" height="42" fill="white" transform="translate(0 31.4062) rotate(-29.0265)"/>
</clipPath>
</defs>
</svg>
