<svg width="233" height="208" viewBox="0 0 233 208" fill="none" xmlns="http://www.w3.org/2000/svg">
<rect width="233" height="208" rx="8" fill="white"/>
<g clip-path="url(#clip0_42_494)">
<rect width="212.91" height="189.2" transform="translate(9 8)" fill="white"/>
<path d="M202.02 59.5601H31.6V67.5601H202.02V59.5601Z" fill="#DCDDDD"/>
<path d="M86.7 110.87H27.77V118.87H86.7V110.87Z" fill="#DCDDDD"/>
<path d="M37.3 8.06006H27.39V172.34H37.3V8.06006Z" fill="#DCDDDD"/>
<path d="M61.49 8H53.49V66.61H61.49V8Z" fill="#DCDDDD"/>
<path d="M55.3 71.1201H41.1V85.3201H55.3V71.1201Z" fill="#DCDDDD"/>
<path d="M80.88 26.8H68.31V39.3701H80.88V26.8Z" stroke="#595757" stroke-width="2"/>
<path d="M201.77 162.95H9V179.21H201.77V162.95Z" fill="#DCDDDD"/>
<path d="M203.18 8.09009H193.27V197.2H203.18V8.09009Z" fill="#DCDDDD"/>
<path d="M46.06 89.5801C45.95 90.7301 45.52 91.6701 44.75 92.4101C43.98 93.1501 43.18 93.6801 42.35 94.0101L41.89 93.4901C42.73 93.2201 43.48 92.7801 44.14 92.1601C44.8 91.5401 45.18 90.8701 45.31 90.1501H42.4V89.5801H46.06ZM45.72 97.1701C44.87 97.1701 44.21 97.0201 43.73 96.7301C43.26 96.4301 43.02 96.0501 43.02 95.5801C43.02 95.1101 43.26 94.7301 43.72 94.4301C44.19 94.1401 44.85 93.9901 45.71 93.9901C46.57 93.9901 47.25 94.1301 47.71 94.4301C48.18 94.7201 48.41 95.1101 48.41 95.5801C48.41 96.0501 48.17 96.4401 47.7 96.7301C47.22 97.0201 46.56 97.1701 45.7 97.1701H45.72ZM45.72 94.5401C45.08 94.5401 44.58 94.6401 44.23 94.8301C43.88 95.0201 43.7 95.2701 43.7 95.5801C43.7 95.8901 43.87 96.1401 44.22 96.3301C44.57 96.5301 45.07 96.6201 45.72 96.6201C46.37 96.6201 46.88 96.5201 47.23 96.3301C47.58 96.1401 47.75 95.8901 47.75 95.5801C47.75 95.2701 47.57 95.0301 47.22 94.8301C46.87 94.6401 46.37 94.5401 45.72 94.5401ZM48.26 91.9601V93.8201H47.63V89.1101H48.26V91.3701H49.5V91.9701H48.26V91.9601Z" fill="#595757"/>
<path d="M53.54 94.1701V95.3401C54.54 95.3201 55.36 95.3001 56.02 95.2501L56.06 95.8001C54.56 95.8901 52.7 95.9301 50.49 95.9301L50.43 95.3701C51.18 95.3701 52.01 95.3601 52.9 95.3401V94.1701C52.34 94.1201 51.91 93.9601 51.61 93.6801C51.31 93.4101 51.16 93.0701 51.16 92.6801C51.16 92.2401 51.35 91.8801 51.71 91.5901C52.08 91.3101 52.59 91.1701 53.23 91.1701C53.87 91.1701 54.36 91.3101 54.73 91.5901C55.1 91.8701 55.28 92.2201 55.28 92.6401C55.28 93.0601 55.13 93.4001 54.82 93.6801C54.52 93.9501 54.09 94.1201 53.53 94.1701H53.54ZM52.91 89.1301H53.54V90.2001H55.68V90.7701H50.77V90.2001H52.92V89.1301H52.91ZM53.23 91.7201C52.79 91.7201 52.44 91.8101 52.18 91.9901C51.92 92.1701 51.8 92.4001 51.8 92.6901C51.8 92.9801 51.93 93.2101 52.18 93.3901C52.43 93.5701 52.78 93.6501 53.23 93.6501C53.68 93.6501 54.02 93.5601 54.27 93.3801C54.52 93.2001 54.65 92.9701 54.65 92.6901C54.65 92.4101 54.52 92.1701 54.27 91.9901C54.02 91.8101 53.67 91.7201 53.23 91.7201ZM57.14 93.3301V97.3201H56.51V89.1001H57.14V92.7601H58.41V93.3301H57.14Z" fill="#595757"/>
<path d="M64.19 93.0601C63.29 93.1201 61.85 93.1401 59.87 93.1401V89.5701H63.81V90.1401H60.51V92.5801C62.23 92.5801 63.44 92.5601 64.15 92.5101L64.19 93.0601ZM63.18 97.2001C62.32 97.2001 61.66 97.0601 61.2 96.7701C60.74 96.4801 60.5 96.1001 60.5 95.6301C60.5 95.1601 60.73 94.7901 61.19 94.5001C61.65 94.2101 62.31 94.0601 63.18 94.0601C64.05 94.0601 64.7 94.2001 65.17 94.4901C65.63 94.7801 65.86 95.1601 65.86 95.6301C65.86 96.1001 65.63 96.4901 65.16 96.7701C64.7 97.0601 64.03 97.2001 63.18 97.2001ZM63.18 94.6001C62.53 94.6001 62.04 94.6901 61.69 94.8801C61.35 95.0701 61.18 95.3201 61.18 95.6301C61.18 95.9401 61.35 96.1901 61.69 96.3801C62.03 96.5701 62.53 96.6601 63.18 96.6601C63.83 96.6601 64.33 96.5701 64.68 96.3801C65.03 96.1901 65.2 95.9401 65.2 95.6301C65.2 95.3201 65.03 95.0801 64.68 94.8801C64.34 94.6901 63.84 94.6001 63.18 94.6001ZM65.72 91.9301V93.8801H65.09V89.1001H65.72V91.3501H66.96V91.9301H65.72Z" fill="#595757"/>
<path d="M41.97 101.56V100.99H44.09V99.9201H44.74V100.99H46.86V101.56H41.97ZM44.42 105.1C43.8 105.1 43.31 104.95 42.95 104.65C42.59 104.35 42.41 103.98 42.41 103.54C42.41 103.1 42.59 102.74 42.95 102.45C43.31 102.15 43.81 102 44.43 102C45.05 102 45.54 102.15 45.91 102.44C46.27 102.74 46.45 103.1 46.45 103.54C46.45 103.98 46.27 104.34 45.9 104.64C45.53 104.94 45.04 105.09 44.42 105.09V105.1ZM44.42 102.55C43.99 102.55 43.65 102.64 43.4 102.83C43.15 103.02 43.03 103.26 43.03 103.55C43.03 103.84 43.16 104.09 43.41 104.28C43.66 104.47 44 104.57 44.43 104.57C44.86 104.57 45.2 104.48 45.45 104.28C45.7 104.09 45.83 103.85 45.83 103.55C45.83 103.25 45.7 103.02 45.46 102.83C45.21 102.64 44.87 102.55 44.44 102.55H44.42ZM43.35 107.97V105.69H43.98V107.4H48.61V107.97H43.35ZM48.35 103.66V106.02H47.72V99.9001H48.35V103.07H49.59V103.65H48.35V103.66Z" fill="#595757"/>
<path d="M50.72 106.62L50.66 106.07C51.39 106.07 52.42 106.05 53.73 106.03C55.04 106 55.92 105.97 56.35 105.93L56.39 106.48C55.94 106.52 55.06 106.55 53.75 106.58C52.43 106.61 51.43 106.62 50.72 106.62ZM53.44 104.44C52.82 104.44 52.31 104.25 51.89 103.88C51.47 103.51 51.26 103.04 51.26 102.47C51.26 101.9 51.47 101.45 51.88 101.08C52.29 100.71 52.81 100.52 53.43 100.52C54.05 100.52 54.56 100.71 54.98 101.09C55.4 101.47 55.6 101.93 55.6 102.48C55.6 103.03 55.39 103.52 54.98 103.89C54.56 104.26 54.05 104.45 53.43 104.45L53.44 104.44ZM53.44 101.08C53.01 101.08 52.65 101.21 52.36 101.47C52.07 101.73 51.92 102.06 51.92 102.47C51.92 102.88 52.07 103.22 52.37 103.48C52.67 103.74 53.02 103.87 53.44 103.87C53.86 103.87 54.23 103.74 54.52 103.48C54.81 103.22 54.96 102.88 54.96 102.47C54.96 102.06 54.81 101.72 54.52 101.47C54.23 101.21 53.87 101.08 53.44 101.08ZM56.94 108.11V99.8901H57.57V108.11H56.94Z" fill="#595757"/>
<path d="M65.04 104.22C64.62 104.25 63.86 104.28 62.75 104.33V106.1H62.12V104.36C61.02 104.4 60.21 104.42 59.7 104.42L59.61 103.83C61.68 103.83 63.48 103.78 65 103.67L65.04 104.22ZM62.4 103.17C61.8 103.17 61.31 103.02 60.93 102.72C60.55 102.42 60.36 102.05 60.36 101.6C60.36 101.15 60.55 100.79 60.92 100.49C61.29 100.19 61.79 100.04 62.39 100.04C62.99 100.04 63.48 100.19 63.86 100.48C64.24 100.78 64.43 101.15 64.43 101.59C64.43 102.03 64.24 102.41 63.86 102.71C63.48 103.01 62.99 103.16 62.39 103.16L62.4 103.17ZM60.88 107.89V105.43H61.52V107.33H66.46V107.9H60.88V107.89ZM62.4 100.58C61.98 100.58 61.64 100.68 61.38 100.89C61.13 101.1 61 101.33 61 101.6C61 101.87 61.13 102.12 61.38 102.32C61.64 102.53 61.98 102.63 62.4 102.63C62.82 102.63 63.16 102.53 63.42 102.32C63.68 102.11 63.81 101.87 63.81 101.6C63.81 101.33 63.68 101.09 63.42 100.89C63.16 100.69 62.83 100.58 62.4 100.58ZM65.61 106.39V105.51H63.81V104.94H65.61V99.8901H66.26V106.39H65.61Z" fill="#595757"/>
<path d="M89.92 31.68H95.03V27.05H96.82V38.89H95.03V33.3601H89.92V38.89H88.13V27.05H89.92V31.68Z" fill="#595757"/>
<path d="M109.04 36.01H103.97L102.65 38.89H100.72L106.59 26.29L112.24 38.89H110.29L109.04 36.01ZM108.32 34.33L106.56 30.31L104.72 34.33H108.32Z" fill="#595757"/>
<path d="M116.12 38.89V26.24L124.75 35.27V27.05H126.54V39.62L117.91 30.6V38.89H116.12Z" fill="#595757"/>
<path d="M130.84 38.89V27.05H133.33C134.6 27.05 135.59 27.19 136.32 27.46C137.61 27.94 138.6 28.78 139.26 29.98C139.75 30.86 139.99 31.85 139.99 32.97C139.99 35.02 139.2 36.62 137.62 37.76C137.02 38.19 136.41 38.49 135.79 38.65C135.17 38.81 134.34 38.89 133.29 38.89H130.83H130.84ZM132.63 37.21H133.44C134.16 37.21 134.76 37.14 135.24 37.01C135.72 36.88 136.17 36.66 136.58 36.35C137.11 35.96 137.51 35.46 137.79 34.85C138.06 34.28 138.19 33.65 138.19 32.97C138.19 32 137.93 31.14 137.4 30.39C136.98 29.8 136.46 29.3801 135.84 29.1201C135.21 28.8601 134.41 28.72 133.44 28.72H132.63V37.2001V37.21Z" fill="#595757"/>
<path d="M145.71 27.05V34.18C145.71 34.71 145.74 35.12 145.79 35.41C145.84 35.71 145.94 35.98 146.08 36.22C146.27 36.55 146.54 36.8201 146.87 37.0401C147.3 37.3101 147.78 37.4401 148.3 37.4401C148.77 37.4401 149.2 37.3301 149.6 37.1101C150 36.8901 150.31 36.6 150.52 36.23C150.66 35.99 150.76 35.72 150.81 35.42C150.86 35.13 150.89 34.7201 150.89 34.1901V27.06H152.68V34.68C152.68 35.78 152.38 36.71 151.78 37.46C151.37 37.99 150.85 38.39 150.24 38.68C149.63 38.98 148.98 39.1201 148.31 39.1201C147.35 39.1201 146.48 38.8401 145.69 38.2801C144.51 37.4401 143.93 36.24 143.93 34.67V27.05H145.72H145.71Z" fill="#595757"/>
<path d="M163.88 28.8101L162.43 29.6701C162.22 29.3101 162.03 29.0701 161.87 28.9201C161.57 28.6401 161.17 28.5001 160.67 28.5001C160.17 28.5001 159.73 28.6501 159.41 28.9401C159.1 29.2201 158.94 29.5701 158.94 29.9701C158.94 30.3701 159.13 30.6901 159.5 30.9501C159.67 31.0801 159.84 31.1801 160 31.2501C160.16 31.3201 160.63 31.5201 161.41 31.8401C162.4 32.2401 163.11 32.7201 163.53 33.2801C163.97 33.8601 164.19 34.5401 164.19 35.3301C164.19 36.4701 163.79 37.4101 162.98 38.1501C162.29 38.7901 161.42 39.1101 160.38 39.1101C159.04 39.1101 158.01 38.5801 157.28 37.5301C156.94 37.0301 156.71 36.3901 156.59 35.6201L158.4 35.2201C158.48 35.8201 158.59 36.2501 158.74 36.5201C158.9 36.8001 159.13 37.0201 159.44 37.1801C159.75 37.3501 160.09 37.4301 160.45 37.4301C161.05 37.4301 161.54 37.2201 161.91 36.7901C162.24 36.4201 162.4 35.9801 162.4 35.4501C162.4 34.7901 162.13 34.2701 161.58 33.9001C161.38 33.7701 161.2 33.6601 161.04 33.5801C160.87 33.5001 160.38 33.2901 159.57 32.9501C157.95 32.2701 157.14 31.2701 157.14 29.9501C157.14 28.8901 157.59 28.0601 158.49 27.4701C159.15 27.0401 159.88 26.8201 160.69 26.8201C161.4 26.8201 162.02 26.9801 162.52 27.3001C163.03 27.6201 163.49 28.1201 163.89 28.8101H163.88Z" fill="#595757"/>
<path d="M66.25 22.0801L73.34 35.7501" stroke="#595757" stroke-width="3"/>
<path d="M72.27 35.86L86.45 17.74" stroke="#595757" stroke-width="3"/>
<path d="M91.89 182.29H77.28V196.9H91.89V182.29Z" fill="#DCDDDD"/>
<path d="M56.52 144.32H41.76V159.08H56.52V144.32Z" fill="#DCDDDD"/>
<path d="M74.93 144.07H60.17V158.83H74.93V144.07Z" fill="#EE8447"/>
<path d="M66.93 155.65V149.38H65.08V148.24C65.4 148.24 65.69 148.19 65.95 148.11C66.21 148.03 66.44 147.92 66.62 147.78C66.76 147.68 66.89 147.52 67 147.32C67.11 147.11 67.17 146.87 67.18 146.6H68.3V155.65H66.93Z" fill="white"/>
<path d="M221.86 162.94H57.89V179.2H221.86V162.94Z" fill="#EE8447"/>
<path d="M68.07 158.24H67.39V164.11H68.07V158.24Z" fill="#EE8447"/>
<path d="M75.05 182.29H60.44V196.9H75.05V182.29Z" fill="#EE8447"/>
<path d="M68.07 177.24H67.39V183.11H68.07V177.24Z" fill="#EE8447"/>
<path d="M120.92 167.77C121.36 168.21 121.58 168.74 121.58 169.36C121.58 169.98 121.36 170.51 120.92 170.95C120.48 171.39 119.92 171.61 119.24 171.61C118.56 171.61 118.01 171.39 117.57 170.95C117.13 170.51 116.92 169.98 116.92 169.36C116.92 168.74 117.14 168.21 117.57 167.77C118.01 167.33 118.56 167.1 119.24 167.1C119.92 167.1 120.48 167.32 120.92 167.77ZM118.36 168.48C118.15 168.73 118.05 169.02 118.05 169.36C118.05 169.7 118.15 169.98 118.36 170.23C118.57 170.48 118.86 170.6 119.25 170.6C119.64 170.6 119.94 170.48 120.15 170.23C120.35 169.98 120.46 169.69 120.46 169.36C120.46 169.03 120.36 168.73 120.15 168.48C119.94 168.23 119.64 168.11 119.25 168.11C118.86 168.11 118.57 168.23 118.36 168.48ZM118.07 175.43V172.61H119.21V174.42H124.26V175.43H118.06H118.07ZM123.99 170.19V173.19H122.89V166.83H123.99V169.16H125.14V170.19H123.99Z" fill="white"/>
<path d="M130.6 171.28V172.74H133.33V175.64H132.23V173.76H126.97V172.74H129.45V171.28H126.02V170.27H131.86C131.92 169.99 131.99 169.66 132.07 169.28C132.14 168.9 132.19 168.53 132.23 168.16H126.95V167.15H133.51C133.51 167.31 133.48 167.57 133.44 167.92C133.39 168.27 133.35 168.57 133.3 168.81C133.24 169.14 133.18 169.42 133.14 169.64C133.1 169.86 133.05 170.07 133 170.27H134.39V171.28H130.62H130.6Z" fill="white"/>
<path d="M142 167.93V166.84H143.1V172.03H142V170.64H139.98C139.77 170.9 139.51 171.11 139.18 171.26C138.86 171.41 138.5 171.49 138.1 171.49C137.42 171.49 136.86 171.28 136.43 170.87C135.99 170.45 135.77 169.94 135.77 169.31C135.77 168.68 135.99 168.17 136.43 167.75C136.87 167.33 137.42 167.12 138.1 167.12C138.49 167.12 138.85 167.19 139.17 167.34C139.49 167.49 139.75 167.69 139.95 167.94H142V167.93ZM141.97 175.64V173.46H136.82V172.43H143.07V175.64H141.97ZM138.98 168.49C138.78 168.25 138.48 168.13 138.1 168.13C137.72 168.13 137.43 168.25 137.23 168.49C137.02 168.73 136.92 169 136.92 169.32C136.92 169.64 137.02 169.92 137.23 170.15C137.44 170.38 137.73 170.5 138.1 170.5C138.47 170.5 138.77 170.38 138.98 170.15C139.19 169.92 139.29 169.64 139.29 169.32C139.29 169 139.19 168.72 138.98 168.49ZM142 169.66V168.92H140.4C140.41 168.99 140.42 169.05 140.42 169.12C140.42 169.18 140.42 169.25 140.42 169.31C140.42 169.37 140.42 169.43 140.42 169.49C140.42 169.55 140.41 169.61 140.4 169.66H142Z" fill="white"/>
<path d="M96 190.89V189.99H99.96V188.74H101V189.99H104.96V190.89H96ZM101.82 187.58C102.27 187.97 103.13 188.28 104.39 188.51L103.77 189.29C103.05 189.21 102.39 189 101.8 188.65C101.21 188.3 100.77 187.98 100.49 187.68C100.23 188.04 99.78 188.38 99.15 188.69C98.51 189 97.87 189.2 97.21 189.3L96.59 188.52C97.57 188.36 98.35 188.1 98.92 187.74C99.49 187.39 99.82 187.03 99.92 186.67H97.06V185.79H103.9V186.67H101.04C101.11 186.89 101.37 187.2 101.82 187.59V187.58ZM103.12 194.56C102.51 194.9 101.63 195.06 100.48 195.06C99.33 195.06 98.46 194.89 97.84 194.56C97.22 194.22 96.91 193.8 96.91 193.27C96.91 192.74 97.22 192.31 97.84 191.98C98.46 191.65 99.34 191.49 100.48 191.49C101.62 191.49 102.51 191.65 103.12 191.98C103.73 192.31 104.04 192.74 104.04 193.27C104.04 193.8 103.73 194.22 103.12 194.56ZM98.73 192.56C98.29 192.73 98.06 192.96 98.06 193.26C98.06 193.54 98.28 193.77 98.73 193.95C99.18 194.12 99.76 194.21 100.48 194.21C101.2 194.21 101.77 194.12 102.22 193.95C102.67 193.78 102.89 193.55 102.89 193.26C102.89 192.97 102.67 192.73 102.22 192.56C101.78 192.39 101.2 192.3 100.48 192.3C99.76 192.3 99.18 192.38 98.73 192.55V192.56Z" fill="#595757"/>
<path d="M106.08 193.81V192.91H110.02V191.44H107.32V188.36H112.68V187.06H107.3V186.16H113.69V189.26H108.34V190.54H113.95V191.44H111.09V192.91H115.04V193.81H106.08Z" fill="#595757"/>
<path d="M120.4 189.06C119.7 190.01 118.61 190.69 117.12 191.08L116.58 190.37C117.45 190.21 118.27 189.77 119.04 189.05C119.81 188.34 120.23 187.65 120.27 187H117.11V186.1H121.51C121.47 187.11 121.1 188.1 120.4 189.05V189.06ZM123.7 194.51C123.1 194.88 122.25 195.06 121.14 195.06C120.03 195.06 119.18 194.88 118.58 194.51C117.98 194.15 117.68 193.68 117.68 193.12C117.68 192.56 117.98 192.09 118.58 191.72C119.18 191.35 120.03 191.17 121.14 191.17C122.25 191.17 123.11 191.35 123.7 191.72C124.3 192.09 124.6 192.55 124.6 193.12C124.6 193.69 124.3 194.15 123.7 194.51ZM122.85 192.34C122.39 192.15 121.83 192.05 121.15 192.05C120.47 192.05 119.9 192.15 119.44 192.34C118.99 192.53 118.76 192.8 118.76 193.13C118.76 193.46 118.99 193.72 119.44 193.92C119.89 194.12 120.46 194.21 121.15 194.21C121.84 194.21 122.39 194.11 122.85 193.92C123.3 193.72 123.53 193.46 123.53 193.13C123.53 192.8 123.3 192.53 122.85 192.34ZM123.44 191.12V189.83H121.62V188.93H123.44V187.85H121.78V186.95H123.44V185.49H124.46V191.12H123.44Z" fill="#595757"/>
<path d="M131.69 190.39C131.33 190.29 130.91 190.08 130.42 189.77C129.93 189.46 129.62 189.18 129.49 188.93C129.32 189.23 129 189.56 128.52 189.91C128.04 190.26 127.56 190.5 127.08 190.63L126.43 189.83C127.28 189.6 127.89 189.27 128.28 188.82C128.66 188.38 128.88 188.07 128.93 187.89H127.05V187.03H131.95V187.89H130.06C130.11 188.07 130.34 188.35 130.72 188.73C131.11 189.11 131.62 189.38 132.26 189.54L131.71 190.39H131.69ZM128.05 194.79V192.49H133.16V191.86H128.05V191.01H134.27V193.28H129.16V193.9H134.47V194.79H128.05ZM128.08 186.32V185.47H130.91V186.32H128.08ZM134.27 188.5V190.6H133.25V185.48H134.27V187.55H135.57V188.5H134.27Z" fill="#595757"/>
<path d="M141.91 193.08C141.52 192.89 141.08 192.52 140.59 191.96C140.1 191.4 139.74 190.83 139.51 190.25C139.37 190.77 139.04 191.34 138.53 191.95C138.02 192.56 137.54 193 137.1 193.27L136.29 192.59C137.23 192.04 137.91 191.34 138.33 190.49C138.75 189.64 138.96 188.64 138.96 187.48V185.99H140.03V187.48C140.03 188.65 140.25 189.62 140.68 190.37C141.11 191.13 141.75 191.77 142.59 192.3L141.91 193.07V193.08ZM143.6 194.9V189.55H141.59V188.61H143.6V185.47H144.62V194.9H143.6Z" fill="#595757"/>
<path d="M69.94 188.79C70.42 189.35 70.66 190.01 70.66 190.79C70.66 191.57 70.39 192.26 69.86 192.81C69.33 193.36 68.67 193.63 67.87 193.63C67.07 193.63 66.48 193.41 66.02 192.96C65.56 192.52 65.24 191.99 65.04 191.37C64.86 190.81 64.78 190.09 64.8 189.22C64.82 188.34 64.94 187.6 65.16 186.99C65.4 186.35 65.75 185.84 66.2 185.47C66.66 185.09 67.23 184.91 67.93 184.91C68.67 184.91 69.28 185.16 69.76 185.66C70.24 186.16 70.53 186.72 70.61 187.33H69.41C69.35 187.06 69.2 186.78 68.95 186.48C68.7 186.19 68.36 186.04 67.92 186.04C67.46 186.04 67.12 186.17 66.91 186.44C66.7 186.71 66.54 186.98 66.42 187.26C66.32 187.51 66.25 187.74 66.22 187.97C66.19 188.19 66.18 188.39 66.18 188.57C66.4 188.36 66.67 188.2 66.97 188.07C67.27 187.95 67.64 187.89 68.07 187.91C68.84 187.93 69.46 188.22 69.94 188.78V188.79ZM68.9 191.99C69.17 191.67 69.31 191.27 69.31 190.78C69.31 190.29 69.17 189.9 68.9 189.59C68.63 189.27 68.27 189.12 67.82 189.12C67.37 189.12 67.03 189.28 66.76 189.59C66.49 189.91 66.36 190.3 66.36 190.78C66.36 191.26 66.49 191.67 66.76 191.99C67.03 192.31 67.38 192.46 67.82 192.46C68.26 192.46 68.63 192.3 68.9 191.99Z" fill="white"/>
<path d="M221.91 144.87H207.15V159.63H221.91V144.87Z" fill="#EE8447"/>
<path d="M215.06 159.03H214.38V164.9H215.06V159.03Z" fill="#EE8447"/>
<path d="M189.53 182.58H174.92V197.19H189.53V182.58Z" fill="#EE8447"/>
<path d="M182.55 177.53H181.87V183.4H182.55V177.53Z" fill="#EE8447"/>
<path d="M184.16 188.94C184.68 189.36 184.94 190.05 184.94 191.01C184.94 191.97 184.64 192.63 184.05 193.14C183.45 193.65 182.81 193.9 182.12 193.9C181.27 193.9 180.61 193.64 180.13 193.13C179.65 192.61 179.38 192.05 179.31 191.44H180.53C180.59 191.78 180.75 192.07 181.02 192.33C181.29 192.59 181.64 192.72 182.08 192.72C182.52 192.72 182.85 192.56 183.13 192.24C183.41 191.92 183.55 191.52 183.56 191.03C183.56 190.53 183.44 190.12 183.18 189.79C182.92 189.46 182.57 189.29 182.12 189.29C181.8 189.29 181.52 189.35 181.29 189.46C181.05 189.57 180.87 189.72 180.74 189.89H179.49L180.14 185.5H184.57V186.66H181.23L180.95 188.5C181.19 188.36 181.47 188.26 181.78 188.22C182.09 188.18 182.39 188.17 182.68 188.22C183.14 188.28 183.64 188.53 184.16 188.95V188.94Z" fill="white"/>
<path d="M216.45 148.55C216.9 149.06 217.12 149.65 217.12 150.33C217.12 151.01 216.94 151.52 216.57 151.92C216.21 152.32 215.85 152.64 215.5 152.89L214.11 153.89C213.92 154.03 213.72 154.2 213.52 154.41C213.32 154.62 213.17 154.86 213.08 155.11H217.09V156.25L211.57 156.23C211.57 155.64 211.68 155.07 211.9 154.52C212.12 153.97 212.62 153.42 213.39 152.87L214.75 151.9C215.01 151.71 215.25 151.49 215.45 151.23C215.65 150.98 215.76 150.68 215.76 150.35C215.76 149.94 215.66 149.6 215.43 149.34C215.2 149.07 214.86 148.94 214.42 148.94C213.9 148.94 213.53 149.11 213.31 149.44C213.09 149.78 212.98 150.14 212.97 150.54H211.77C211.77 149.85 211.98 149.22 212.42 148.65C212.86 148.08 213.53 147.79 214.44 147.79C215.35 147.79 216.02 148.05 216.47 148.56L216.45 148.55Z" fill="white"/>
<path d="M221.86 182.49H207.25V197.1H221.86V182.49Z" fill="#EE8447"/>
<path d="M214.87 177.44H214.19V183.31H214.87V177.44Z" fill="#EE8447"/>
<path d="M216.41 192.19V193.68L215.16 193.66V192.2H211.52V190.82L215.13 185.3H216.4V191.07H217.47V192.2H216.4L216.41 192.19ZM215.15 187.38L212.81 191.06H215.15V187.38Z" fill="white"/>
<path d="M156 145.6H86.09V92L156 92.14V145.6Z" fill="#DCDDDD"/>
<path d="M42.7 133.8V133.07H46.1V132.42C45.27 132.37 44.65 132.21 44.24 131.95C43.82 131.69 43.62 131.36 43.62 130.96C43.62 130.53 43.87 130.18 44.36 129.89C44.85 129.61 45.58 129.47 46.55 129.47C47.52 129.47 48.26 129.61 48.75 129.9C49.24 130.18 49.49 130.54 49.49 130.96C49.49 131.36 49.28 131.69 48.87 131.95C48.46 132.21 47.83 132.37 47 132.42V133.07H50.4V133.8H42.71H42.7ZM43.7 137.78V135.73H48.46V135.12H43.7V134.41H49.39V136.42H44.62V137.06H49.58V137.78H43.69H43.7ZM45.07 130.38C44.71 130.53 44.52 130.73 44.52 130.96C44.52 131.19 44.7 131.38 45.06 131.54C45.42 131.7 45.91 131.78 46.53 131.78C47.15 131.78 47.63 131.7 48 131.55C48.37 131.4 48.55 131.2 48.55 130.98C48.55 130.76 48.37 130.56 48 130.4C47.63 130.24 47.14 130.16 46.53 130.16C45.92 130.16 45.42 130.24 45.06 130.39L45.07 130.38Z" fill="#595757"/>
<path d="M55.14 136.11C54.63 136.16 54.14 136.19 53.66 136.2L51.45 136.22V132.84H54.34V131.14H51.45V130.34H55.2V133.64H52.32V135.42H53.93C54.31 135.4 54.74 135.37 55.21 135.32C55.68 135.28 56.04 135.23 56.29 135.19V135.98C56.03 136.02 55.64 136.07 55.14 136.12V136.11ZM56.79 137.87V129.54H57.66V137.87H56.79Z" fill="#595757"/>
<path d="M58.77 136.65V135.85H66.46V136.65H58.77ZM59.82 134.52V130.16H60.69V131.49H64.53V130.16H65.39V134.52H59.81H59.82ZM64.54 132.29H60.7V133.72H64.54V132.29Z" fill="#595757"/>
<path d="M72.99 130.54V129.54H73.86V134.53H72.99V133.11H71.01C70.82 133.35 70.59 133.54 70.3 133.68C70.01 133.82 69.69 133.89 69.33 133.89C68.71 133.89 68.2 133.69 67.8 133.29C67.4 132.89 67.2 132.41 67.2 131.85C67.2 131.29 67.4 130.81 67.8 130.41C68.2 130.01 68.71 129.81 69.33 129.81C69.67 129.81 69.99 129.88 70.27 130.01C70.56 130.14 70.79 130.32 70.97 130.54H73H72.99ZM70.23 130.98C70.02 130.74 69.72 130.61 69.32 130.61C68.92 130.61 68.63 130.73 68.41 130.98C68.2 131.22 68.09 131.51 68.09 131.85C68.09 132.19 68.2 132.48 68.41 132.73C68.62 132.97 68.93 133.09 69.32 133.09C69.71 133.09 70.02 132.97 70.23 132.73C70.44 132.49 70.54 132.19 70.54 131.85C70.54 131.51 70.44 131.23 70.23 130.98ZM73.2 137.53C72.71 137.83 71.99 137.98 71.03 137.98C70.07 137.98 69.35 137.82 68.87 137.51C68.38 137.2 68.14 136.8 68.14 136.31C68.14 135.82 68.38 135.42 68.87 135.1C69.36 134.78 70.08 134.62 71.03 134.62C71.98 134.62 72.71 134.78 73.2 135.12C73.69 135.45 73.93 135.86 73.93 136.35C73.93 136.84 73.69 137.23 73.2 137.53ZM72.46 135.67C72.1 135.5 71.63 135.41 71.03 135.41C70.43 135.41 69.95 135.49 69.59 135.64C69.23 135.8 69.05 136.01 69.05 136.3C69.05 136.59 69.23 136.8 69.59 136.97C69.95 137.14 70.43 137.22 71.03 137.22C71.63 137.22 72.11 137.14 72.46 136.99C72.82 136.84 72.99 136.62 72.99 136.35C72.99 136.08 72.81 135.84 72.46 135.67ZM72.98 132.3V131.33H71.37C71.39 131.41 71.4 131.5 71.41 131.58C71.42 131.66 71.43 131.75 71.43 131.84C71.43 131.92 71.43 131.99 71.42 132.07C71.42 132.15 71.4 132.22 71.38 132.3H72.98Z" fill="#595757"/>
<path d="M156 140.6H148V162.91H156V140.6Z" fill="#DCDDDD"/>
<path d="M79.0445 62.5509L72.7127 65.8289L89.0057 97.3016L95.3376 94.0237L79.0445 62.5509Z" fill="#DCDDDD"/>
<path d="M180.7 130.16H172.7V162.91H180.7V130.16Z" fill="#DCDDDD"/>
<path d="M120.22 153.01L117.99 152.99L115.97 153.01V152.46C116.12 152.46 116.28 152.47 116.45 152.48C116.62 152.48 116.81 152.49 117.02 152.5C117.23 152.5 117.41 152.5 117.56 152.51C117.71 152.51 117.85 152.51 117.95 152.51H118.16C118.6 152.51 118.98 152.51 119.3 152.51C119.62 152.51 119.93 152.49 120.22 152.48V153.02V153.01ZM119.75 155.06C119.75 155.48 119.59 155.82 119.26 156.08C118.97 156.32 118.6 156.43 118.18 156.43C117.68 156.43 117.27 156.3 116.96 156.05C116.65 155.79 116.5 155.43 116.5 154.98C116.5 154.53 116.67 154.16 117.01 153.92C117.3 153.71 117.67 153.61 118.1 153.61C118.58 153.61 118.97 153.73 119.27 153.96C119.59 154.22 119.76 154.58 119.76 155.06H119.75ZM119.21 155.02C119.21 154.73 119.12 154.51 118.95 154.35C118.75 154.17 118.47 154.08 118.11 154.08C117.75 154.08 117.47 154.18 117.28 154.39C117.11 154.57 117.02 154.77 117.02 155.01C117.02 155.27 117.13 155.49 117.34 155.69C117.55 155.88 117.81 155.98 118.12 155.98C118.45 155.98 118.73 155.88 118.94 155.67C119.12 155.47 119.21 155.26 119.21 155.03V155.02ZM119.01 151.87L118.07 151.85L117.14 151.87V151.39C117.25 151.39 117.4 151.4 117.57 151.41C117.74 151.41 117.9 151.41 118.04 151.41C118.16 151.41 118.3 151.41 118.47 151.41C118.64 151.41 118.82 151.41 119.01 151.39V151.87ZM122.4 154.66H121.31V157.93H120.77C120.77 157.82 120.78 157.58 120.79 157.19C120.8 156.8 120.8 156.23 120.8 155.47V150.75H120.87C121.03 150.75 121.15 150.75 121.25 150.78C121.35 150.8 121.4 150.84 121.4 150.9C121.4 150.93 121.39 150.98 121.37 151.05C121.35 151.12 121.34 151.17 121.34 151.2V154.13H122.41V154.66H122.4Z" fill="#595757"/>
<path d="M127.68 155.41L127.64 155.39C127.64 155.39 127.55 155.37 127.52 155.37C127.36 155.37 127.1 155.39 126.75 155.42C126.68 155.43 126.56 155.45 126.39 155.46C126.22 155.47 126.01 155.5 125.74 155.54C125.59 155.56 125.4 155.58 125.17 155.61C124.93 155.63 124.65 155.66 124.32 155.69C124.22 155.7 124.11 155.71 123.98 155.72C123.85 155.73 123.71 155.74 123.55 155.75V152.09L123.53 151.69C123.62 151.69 123.74 151.71 123.89 151.74C124.05 151.78 124.13 151.84 124.13 151.9C124.13 151.93 124.13 151.98 124.1 152.04C124.08 152.1 124.07 152.14 124.07 152.16V155.19C124.28 155.19 124.51 155.18 124.77 155.17C125.02 155.17 125.34 155.13 125.73 155.09C126.12 155.05 126.48 155.01 126.79 154.97C127.1 154.93 127.34 154.91 127.5 154.91C127.54 154.91 127.58 154.91 127.63 154.93C127.63 154.93 127.66 154.93 127.68 154.95V155.39V155.41ZM129.8 154.71H128.7V157.86L128.17 157.88L128.19 151.35C128.19 151.15 128.19 151.01 128.19 150.92C128.19 150.84 128.18 150.78 128.17 150.75C128.3 150.75 128.43 150.75 128.57 150.77C128.71 150.79 128.78 150.82 128.78 150.87C128.78 150.89 128.78 150.93 128.75 151C128.73 151.06 128.72 151.11 128.72 151.14V154.2L129.82 154.18V154.7L129.8 154.71Z" fill="#595757"/>
<path d="M136.99 154.95L133.88 154.93L130.69 154.95V154.4C130.79 154.4 130.94 154.4 131.14 154.41C131.34 154.41 131.59 154.41 131.89 154.41C132.19 154.41 132.51 154.41 132.84 154.41H134.54C136.1 154.39 136.92 154.39 137 154.39V154.94L136.99 154.95ZM136.25 152.44C136.25 152.88 136.02 153.22 135.57 153.46C135.36 153.57 135.12 153.65 134.85 153.71C134.57 153.76 134.27 153.79 133.92 153.79C133.57 153.79 133.29 153.77 133.01 153.72C132.74 153.68 132.48 153.6 132.26 153.5C131.71 153.26 131.44 152.91 131.44 152.44C131.44 151.97 131.7 151.62 132.21 151.39C132.64 151.2 133.19 151.1 133.87 151.1C134.55 151.1 135.09 151.2 135.51 151.41C136 151.66 136.24 152 136.24 152.43L136.25 152.44ZM136.26 157.6L134.03 157.58L131.61 157.6V155.46H131.73C131.9 155.46 132.03 155.46 132.12 155.48C132.21 155.5 132.25 155.52 132.25 155.56C132.25 155.56 132.23 155.62 132.21 155.71C132.19 155.8 132.17 155.87 132.17 155.91V157.08H134.15H135.47C135.61 157.08 135.75 157.08 135.88 157.07C136.01 157.07 136.14 157.07 136.27 157.06V157.6H136.26ZM135.73 152.44C135.73 152.29 135.69 152.16 135.59 152.06C135.5 151.95 135.37 151.87 135.2 151.8C135.03 151.73 134.83 151.68 134.59 151.65C134.35 151.62 134.09 151.6 133.8 151.6C133.22 151.6 132.77 151.67 132.44 151.81C132.11 151.95 131.95 152.16 131.95 152.45C131.95 152.75 132.16 152.97 132.57 153.11C132.91 153.24 133.35 153.3 133.88 153.3C134.41 153.3 134.84 153.23 135.18 153.09C135.54 152.95 135.72 152.73 135.72 152.44H135.73Z" fill="#595757"/>
<path d="M141.59 152.52L139.98 152.48L138.21 152.5V152.02C138.33 152.02 138.47 152.03 138.62 152.04C138.76 152.04 138.92 152.05 139.07 152.06C139.23 152.06 139.37 152.06 139.5 152.06H140.57C140.74 152.06 140.88 152.06 140.99 152.06C141.1 152.06 141.21 152.06 141.31 152.05C141.41 152.04 141.5 152.05 141.59 152.03V152.53V152.52ZM141.39 153.97C141.39 154.35 141.27 154.64 141.01 154.83C140.76 155.02 140.42 155.11 140 155.11C139.58 155.11 139.23 155.02 138.98 154.83C138.71 154.63 138.57 154.35 138.57 153.97C138.57 153.56 138.7 153.26 138.96 153.06C139.22 152.86 139.57 152.76 139.99 152.76C140.41 152.76 140.74 152.86 140.99 153.06C141.24 153.26 141.37 153.56 141.37 153.96L141.39 153.97ZM140.93 153.97C140.93 153.66 140.81 153.45 140.56 153.34C140.42 153.28 140.23 153.24 140 153.24C139.35 153.24 139.03 153.48 139.03 153.97C139.03 154.46 139.35 154.67 139.99 154.67C140.22 154.67 140.41 154.64 140.55 154.58C140.8 154.47 140.93 154.27 140.93 153.97ZM140.82 151.69L140 151.67L139.08 151.69V151.2C139.08 151.2 139.15 151.2 139.22 151.2C139.29 151.2 139.38 151.2 139.5 151.21C139.61 151.21 139.71 151.21 139.8 151.22C139.89 151.22 139.96 151.22 140.01 151.22C140.14 151.22 140.28 151.22 140.43 151.22C140.57 151.22 140.71 151.21 140.82 151.2V151.69ZM144.03 156.71C144.03 157.09 143.82 157.4 143.39 157.61C142.96 157.83 142.41 157.94 141.74 157.94C141.27 157.94 140.84 157.88 140.45 157.76C139.79 157.55 139.46 157.2 139.46 156.71C139.46 156.33 139.67 156.02 140.09 155.8C140.52 155.58 141.06 155.47 141.73 155.47C142.21 155.47 142.64 155.53 143.01 155.65C143.68 155.85 144.02 156.21 144.02 156.71H144.03ZM143.48 156.71C143.48 156.48 143.31 156.3 142.98 156.16C142.66 156.03 142.24 155.97 141.74 155.97C141.48 155.97 141.24 155.99 141.03 156.02C140.82 156.05 140.64 156.1 140.49 156.16C140.34 156.22 140.22 156.3 140.14 156.39C140.06 156.48 140.02 156.59 140.02 156.71C140.02 156.83 140.06 156.94 140.14 157.03C140.22 157.12 140.34 157.2 140.49 157.26C140.64 157.32 140.82 157.37 141.03 157.4C141.24 157.43 141.48 157.44 141.74 157.44C141.95 157.44 142.13 157.44 142.29 157.42C142.46 157.41 142.6 157.38 142.73 157.35C143.23 157.23 143.47 157.01 143.47 156.7L143.48 156.71ZM144.03 150.91C144.03 150.91 144.03 150.97 144.01 151.02C144 151.07 143.99 151.1 143.99 151.12V155.5L143.47 155.53L143.49 153.63H142.58V155.29L142.07 155.32L142.09 152.38V151.74C142.09 151.57 142.09 151.45 142.09 151.37C142.09 151.29 142.09 151.21 142.09 151.13C142.09 151.06 142.09 150.99 142.08 150.93H142.28C142.39 150.93 142.48 150.93 142.55 150.95C142.61 150.97 142.65 151 142.65 151.06C142.65 151.08 142.65 151.11 142.63 151.17C142.61 151.23 142.61 151.28 142.61 151.32V153.13H143.52V151.91L143.49 150.76H143.56C143.71 150.76 143.83 150.76 143.92 150.78C144.01 150.8 144.06 150.84 144.06 150.9L144.03 150.91Z" fill="#595757"/>
<path d="M166.27 154.91C166.07 154.9 165.85 154.89 165.61 154.89C165.37 154.89 165.14 154.89 164.92 154.89C164.66 154.89 164.39 154.89 164.12 154.89C163.85 154.89 163.59 154.9 163.35 154.91V156.18C163.35 156.54 163.35 156.86 163.35 157.14C163.35 157.42 163.36 157.7 163.38 157.98H162.79L162.81 156.08V154.89L159.85 154.94V154.41L163.07 154.43C163.36 154.43 163.67 154.43 164.01 154.43C164.35 154.43 164.72 154.42 165.12 154.41C165.41 154.4 165.79 154.38 166.25 154.36V154.92L166.27 154.91ZM165.51 152.33C165.51 152.75 165.28 153.08 164.82 153.31C164.39 153.53 163.82 153.64 163.12 153.64C162.48 153.64 161.95 153.56 161.52 153.4C160.92 153.16 160.62 152.81 160.62 152.33C160.62 151.85 160.88 151.47 161.4 151.25C161.81 151.07 162.37 150.99 163.07 150.99C163.42 150.99 163.74 151.02 164.02 151.07C164.3 151.12 164.55 151.2 164.77 151.31C165.27 151.55 165.51 151.9 165.51 152.35V152.33ZM164.97 152.31C164.97 152.01 164.79 151.8 164.44 151.66C164.09 151.52 163.64 151.44 163.09 151.44C162.45 151.44 161.97 151.51 161.64 151.65C161.31 151.79 161.15 151.99 161.15 152.24C161.15 152.59 161.39 152.83 161.86 152.98C162.17 153.08 162.58 153.12 163.08 153.12C163.65 153.12 164.09 153.06 164.4 152.95C164.77 152.81 164.96 152.59 164.96 152.29L164.97 152.31Z" fill="#595757"/>
<path d="M171.88 156.23C171.78 156.26 171.69 156.28 171.6 156.29C171.51 156.31 171.43 156.32 171.36 156.33C171.13 156.37 170.9 156.39 170.67 156.41C170.44 156.43 170.2 156.43 169.96 156.43C169.69 156.43 169.42 156.43 169.14 156.45C168.86 156.46 168.59 156.48 168.3 156.5C168.2 156.5 168.09 156.51 167.97 156.52C167.84 156.53 167.71 156.55 167.56 156.57L167.58 155.35L167.56 153.73H169.02H169.74C169.83 153.73 169.91 153.73 170 153.72C170.08 153.72 170.17 153.72 170.25 153.7V152.93V152.1H169.07C168.7 152.1 168.39 152.1 168.16 152.1C167.92 152.1 167.73 152.11 167.56 152.12V151.6C167.83 151.61 168.11 151.62 168.42 151.62C168.73 151.62 169.03 151.62 169.31 151.62L170.77 151.6V152.96V154.17C170.68 154.17 170.57 154.17 170.45 154.17C170.33 154.17 170.19 154.17 170.03 154.17H168.76C168.64 154.17 168.54 154.17 168.46 154.17C168.31 154.17 168.19 154.17 168.09 154.19V155.97H168.38C168.38 155.97 168.44 155.97 168.53 155.97C168.63 155.97 168.78 155.96 168.98 155.95C169.18 155.94 169.35 155.93 169.49 155.93C169.64 155.93 169.76 155.93 169.85 155.93C170.12 155.93 170.38 155.93 170.63 155.9C170.88 155.88 171.11 155.85 171.33 155.82C171.41 155.81 171.49 155.79 171.58 155.78C171.67 155.76 171.76 155.74 171.86 155.71L171.89 156.2L171.88 156.23ZM172.99 150.91C172.99 150.91 172.99 150.97 172.97 151.04C172.95 151.11 172.95 151.17 172.95 151.23V154.32V157.86H172.41V157.43C172.41 157.25 172.41 157.05 172.41 156.81C172.41 156.57 172.41 156.33 172.41 156.09C172.41 155.85 172.41 155.6 172.41 155.34C172.41 155.08 172.41 154.88 172.42 154.73C172.42 154.58 172.42 154.48 172.42 154.44C172.42 153.39 172.42 152.64 172.4 152.19C172.4 151.97 172.4 151.73 172.4 151.5C172.4 151.26 172.4 151.02 172.39 150.76H172.49C172.62 150.76 172.73 150.76 172.83 150.79C172.93 150.82 172.98 150.85 172.98 150.91H172.99Z" fill="#595757"/>
<path d="M180.95 154.95L177.84 154.93L174.65 154.95V154.4C174.75 154.4 174.9 154.4 175.1 154.41C175.3 154.41 175.55 154.41 175.85 154.41C176.15 154.41 176.47 154.41 176.8 154.41H178.5C180.06 154.39 180.88 154.39 180.96 154.39V154.94L180.95 154.95ZM180.21 152.44C180.21 152.88 179.98 153.22 179.53 153.46C179.32 153.57 179.08 153.65 178.81 153.71C178.54 153.76 178.23 153.79 177.88 153.79C177.53 153.79 177.25 153.77 176.97 153.72C176.69 153.68 176.44 153.6 176.22 153.5C175.67 153.26 175.4 152.91 175.4 152.44C175.4 151.97 175.66 151.62 176.17 151.39C176.6 151.2 177.15 151.1 177.83 151.1C178.51 151.1 179.05 151.2 179.47 151.41C179.96 151.66 180.2 152 180.2 152.43L180.21 152.44ZM180.23 157.6L178 157.58L175.58 157.6V155.46H175.7C175.87 155.46 176 155.46 176.09 155.48C176.18 155.5 176.22 155.52 176.22 155.56C176.22 155.56 176.21 155.62 176.18 155.71C176.16 155.8 176.14 155.87 176.14 155.91V157.08H178.12H179.44C179.58 157.08 179.72 157.08 179.85 157.07C179.98 157.07 180.11 157.07 180.24 157.06V157.6H180.23ZM179.7 152.44C179.7 152.29 179.65 152.16 179.56 152.06C179.47 151.95 179.34 151.87 179.17 151.8C179 151.73 178.8 151.68 178.56 151.65C178.32 151.62 178.06 151.6 177.77 151.6C177.19 151.6 176.74 151.67 176.41 151.81C176.08 151.95 175.92 152.16 175.92 152.45C175.92 152.75 176.13 152.97 176.55 153.11C176.89 153.24 177.33 153.3 177.86 153.3C178.39 153.3 178.82 153.23 179.16 153.09C179.52 152.95 179.7 152.73 179.7 152.44Z" fill="#595757"/>
<path d="M185.54 152.52L183.94 152.48L182.17 152.5V152.02C182.29 152.02 182.43 152.03 182.58 152.04C182.72 152.04 182.87 152.05 183.03 152.06C183.19 152.06 183.33 152.06 183.46 152.06H184.53C184.7 152.06 184.84 152.06 184.95 152.06C185.06 152.06 185.17 152.06 185.27 152.05C185.37 152.04 185.46 152.05 185.55 152.03V152.53L185.54 152.52ZM185.34 153.97C185.34 154.35 185.21 154.64 184.96 154.83C184.71 155.02 184.37 155.11 183.95 155.11C183.53 155.11 183.18 155.02 182.93 154.83C182.65 154.63 182.52 154.35 182.52 153.97C182.52 153.56 182.65 153.26 182.91 153.06C183.17 152.86 183.52 152.76 183.94 152.76C184.36 152.76 184.69 152.86 184.94 153.06C185.19 153.26 185.32 153.56 185.32 153.96L185.34 153.97ZM184.88 153.97C184.88 153.66 184.76 153.45 184.51 153.34C184.37 153.28 184.18 153.24 183.95 153.24C183.3 153.24 182.98 153.48 182.98 153.97C182.98 154.46 183.3 154.67 183.94 154.67C184.18 154.67 184.36 154.64 184.5 154.58C184.75 154.47 184.88 154.27 184.88 153.97ZM184.77 151.69L183.95 151.67L183.03 151.69V151.2C183.03 151.2 183.1 151.2 183.17 151.2C183.24 151.2 183.33 151.2 183.45 151.21C183.56 151.21 183.66 151.21 183.75 151.22C183.84 151.22 183.91 151.22 183.96 151.22C184.09 151.22 184.23 151.22 184.38 151.22C184.52 151.22 184.66 151.21 184.77 151.2V151.69ZM187.98 156.71C187.98 157.09 187.77 157.4 187.34 157.61C186.91 157.83 186.36 157.94 185.69 157.94C185.22 157.94 184.8 157.88 184.4 157.76C183.74 157.55 183.41 157.2 183.41 156.71C183.41 156.33 183.62 156.02 184.04 155.8C184.47 155.58 185.01 155.47 185.68 155.47C186.16 155.47 186.59 155.53 186.96 155.65C187.63 155.85 187.97 156.21 187.97 156.71H187.98ZM187.43 156.71C187.43 156.48 187.26 156.3 186.93 156.16C186.61 156.03 186.19 155.97 185.69 155.97C185.43 155.97 185.19 155.99 184.98 156.02C184.77 156.05 184.59 156.1 184.44 156.16C184.29 156.22 184.17 156.3 184.09 156.39C184.01 156.48 183.97 156.59 183.97 156.71C183.97 156.83 184.01 156.94 184.09 157.03C184.17 157.12 184.29 157.2 184.44 157.26C184.59 157.32 184.77 157.37 184.98 157.4C185.19 157.43 185.43 157.44 185.69 157.44C185.9 157.44 186.08 157.44 186.25 157.42C186.41 157.41 186.56 157.38 186.69 157.35C187.19 157.23 187.43 157.01 187.43 156.7V156.71ZM187.98 150.91C187.98 150.91 187.98 150.97 187.96 151.02C187.95 151.07 187.94 151.1 187.94 151.12V155.5L187.42 155.53L187.44 153.63H186.53L186.55 155.29L186.03 155.32L186.05 152.38V151.74C186.05 151.57 186.05 151.45 186.05 151.37C186.05 151.29 186.05 151.21 186.05 151.13C186.05 151.06 186.05 150.99 186.04 150.93H186.24C186.35 150.93 186.44 150.93 186.5 150.95C186.56 150.97 186.6 151 186.6 151.06C186.6 151.08 186.6 151.11 186.58 151.17C186.57 151.23 186.56 151.28 186.56 151.32V153.13H187.47V151.91L187.44 150.76H187.51C187.66 150.76 187.78 150.76 187.87 150.78C187.96 150.8 188.01 150.84 188.01 150.9L187.98 150.91Z" fill="#595757"/>
<path d="M103.56 81.2H95.32V89.44H103.56V81.2Z" stroke="#231815"/>
<path d="M110.95 82.54V83.3C110.77 83.12 110.55 82.96 110.31 82.83C109.93 82.63 109.56 82.53 109.18 82.53C108.6 82.53 108.09 82.78 107.67 83.27C107.46 83.52 107.3 83.78 107.2 84.07C107.1 84.36 107.05 84.67 107.05 85C107.05 85.68 107.26 86.26 107.68 86.74C108.09 87.23 108.6 87.47 109.2 87.47C109.48 87.47 109.77 87.41 110.06 87.3C110.35 87.19 110.65 87.01 110.96 86.78V87.51C110.29 87.87 109.68 88.05 109.14 88.05C108.43 88.05 107.82 87.78 107.29 87.23C106.72 86.64 106.43 85.91 106.43 85.03C106.43 84.15 106.7 83.45 107.23 82.86C107.77 82.26 108.44 81.97 109.23 81.97C109.54 81.97 109.84 82.02 110.12 82.11C110.41 82.21 110.68 82.35 110.96 82.53L110.95 82.54Z" fill="#231815"/>
<path d="M113.72 82.0801H114.3L116.49 87.9601H115.8L115.09 85.9501H112.85L112.11 87.9601H111.46L113.71 82.0801H113.72ZM114.93 85.4401L114.02 82.7901L113.04 85.4401H114.93Z" fill="#231815"/>
<path d="M117.12 82.0801H120.78V82.6001H117.71V84.7801H120.65V85.2601H117.71V87.9601H117.12V82.0801Z" fill="#231815"/>
<path d="M121.42 82.0701H125.08V82.5901H122.01V84.6201H124.97V85.1401H122.01V87.4401H125.1V87.9601H121.41V82.0701H121.42Z" fill="#231815"/>
<path d="M128.2 82.0801H130.22C130.73 82.0801 131.13 82.1801 131.42 82.3901C131.77 82.6401 131.94 82.9901 131.94 83.4401C131.94 83.8201 131.82 84.1401 131.57 84.4001C131.5 84.4801 131.41 84.5501 131.31 84.6201C131.21 84.6901 131.09 84.7501 130.96 84.8101C131.47 84.9001 131.85 85.1001 132.08 85.4201C132.26 85.6701 132.34 85.9401 132.34 86.2501C132.34 86.7501 132.15 87.1601 131.78 87.4901C131.42 87.8201 130.98 87.9801 130.47 87.9801H128.2V82.1001V82.0801ZM130.18 82.6001H128.79V84.6201H129.91C130.36 84.6201 130.7 84.5201 130.95 84.3201C131.2 84.1201 131.31 83.8601 131.31 83.5401C131.31 83.2901 131.23 83.0701 131.06 82.8901C130.85 82.7001 130.56 82.6001 130.19 82.6001H130.18ZM130.07 85.1401H128.79V87.4501H130.22C130.65 87.4501 131 87.3401 131.28 87.1301C131.56 86.9001 131.69 86.6101 131.69 86.2501C131.69 85.8901 131.55 85.6101 131.27 85.4201C130.99 85.2301 130.59 85.1301 130.07 85.1301V85.1401Z" fill="#231815"/>
<path d="M133.04 82.0801H134.99C135.51 82.0801 135.94 82.1701 136.28 82.3401C136.75 82.5801 136.99 82.9801 136.99 83.5401C136.99 83.9301 136.88 84.2401 136.67 84.4901C136.45 84.7401 136.11 84.9301 135.63 85.0801C135.72 85.1201 135.79 85.1501 135.86 85.1801C135.93 85.2101 135.98 85.2501 136.02 85.2901C136.2 85.4401 136.33 85.6601 136.43 85.9501L137.18 87.9801H136.51L136.12 86.7501C135.91 86.1301 135.7 85.7301 135.47 85.5401C135.27 85.3601 134.95 85.2701 134.5 85.2701H133.63V87.9801H133.04V82.1001V82.0801ZM135.1 82.6001H133.64V84.7901H134.54C134.9 84.7901 135.2 84.7601 135.45 84.6901C135.7 84.6201 135.9 84.5101 136.05 84.3601C136.15 84.2701 136.24 84.1501 136.31 84.0101C136.38 83.8701 136.41 83.7301 136.41 83.5801C136.41 83.3001 136.3 83.0801 136.07 82.9001C135.82 82.7001 135.5 82.6001 135.09 82.6001H135.1Z" fill="#231815"/>
<path d="M140.41 88.06C139.73 88.06 139.13 87.79 138.62 87.26C138.06 86.68 137.78 85.94 137.78 85.03C137.78 84.12 138.04 83.42 138.57 82.82C139.08 82.25 139.69 81.97 140.39 81.97C141.09 81.97 141.71 82.25 142.22 82.8C142.75 83.39 143.01 84.12 143.01 85.01C143.01 85.9 142.72 86.69 142.15 87.26C141.64 87.78 141.06 88.04 140.41 88.04V88.06ZM140.37 87.5C140.93 87.5 141.4 87.27 141.79 86.8C142.19 86.32 142.38 85.73 142.38 85.02C142.38 84.67 142.33 84.35 142.24 84.06C142.15 83.76 142 83.5 141.81 83.26C141.43 82.77 140.96 82.53 140.4 82.53C139.84 82.53 139.37 82.77 138.99 83.26C138.61 83.74 138.42 84.33 138.42 85.04C138.42 85.75 138.62 86.38 139.02 86.85C139.4 87.29 139.85 87.5 140.37 87.5Z" fill="#231815"/>
<path d="M143.68 87.9601V82.0801H144.22L147.84 87.0601V82.0801H148.38V87.9601H147.84L144.22 82.9801V87.9601H143.68Z" fill="#231815"/>
<path d="M149.22 82.0801H153.39V82.5801L149.75 87.4501H153.63V87.9701H148.89V87.6301L152.62 82.6001H149.23V82.0801H149.22Z" fill="#231815"/>
<path d="M154.01 82.0701H157.67V82.5901H154.6V84.6201H157.56V85.1401H154.6V87.4401H157.69V87.9601H154V82.0701H154.01Z" fill="#231815"/>
<path d="M99.06 102.13H99.66V105.05H102.97V102.13H103.57V108.82H102.97V105.61H99.66V108.82H99.06V102.13Z" fill="#231815"/>
<path d="M104.56 102.13H105.16V108.82H104.56V102.13Z" fill="#231815"/>
<path d="M108.46 102.13H110.39C110.94 102.13 111.4 102.24 111.75 102.45C112.23 102.75 112.46 103.22 112.46 103.87C112.46 104.52 112.26 104.98 111.87 105.32C111.51 105.64 111.05 105.8 110.49 105.8H109.07V108.83H108.46V102.14V102.13ZM110.38 102.72H109.07V105.2H110.43C110.79 105.2 111.1 105.1 111.36 104.88C111.65 104.64 111.8 104.32 111.8 103.92C111.8 103.46 111.63 103.14 111.29 102.94C111.04 102.79 110.74 102.72 110.39 102.72H110.38Z" fill="#231815"/>
<path d="M115.28 102.13H115.87L118.11 108.82H117.4L116.68 106.53H114.39L113.64 108.82H112.97L115.27 102.13H115.28ZM116.52 105.94L115.59 102.93L114.58 105.94H116.52Z" fill="#231815"/>
<path d="M118.73 102.13H120.72C121.25 102.13 121.69 102.23 122.04 102.42C122.53 102.69 122.77 103.15 122.77 103.79C122.77 104.23 122.66 104.59 122.44 104.87C122.22 105.15 121.87 105.37 121.38 105.54C121.47 105.58 121.54 105.62 121.61 105.66C121.68 105.7 121.73 105.74 121.77 105.78C121.95 105.95 122.09 106.2 122.19 106.53L122.96 108.83H122.28L121.88 107.43C121.67 106.73 121.45 106.27 121.22 106.06C121.02 105.86 120.69 105.75 120.23 105.75H119.34V108.83H118.73V102.14V102.13ZM120.83 102.72H119.33V105.21H120.25C120.62 105.21 120.93 105.17 121.18 105.09C121.43 105.01 121.64 104.89 121.8 104.72C121.91 104.61 122 104.48 122.07 104.32C122.14 104.16 122.17 104 122.17 103.83C122.17 103.52 122.05 103.26 121.82 103.05C121.57 102.82 121.24 102.71 120.82 102.71L120.83 102.72Z" fill="#231815"/>
<path d="M123.59 102.13H124.2V105.48L127.14 102.13H127.95L125.59 104.77L128.13 108.82H127.34L125.11 105.28L124.2 106.29V108.82H123.59V102.13Z" fill="#231815"/>
<path d="M128.73 102.13H129.33V108.82H128.73V102.13Z" fill="#231815"/>
<path d="M130.24 108.82V102.13H130.79L134.49 107.8V102.13H135.04V108.82H134.49L130.79 103.16V108.82H130.24Z" fill="#231815"/>
<path d="M140.4 102.64V103.53C140.12 103.25 139.85 103.04 139.59 102.91C139.28 102.74 138.97 102.65 138.64 102.65C137.99 102.65 137.45 102.95 137.02 103.55C136.61 104.1 136.4 104.75 136.4 105.51C136.4 106.27 136.62 106.96 137.06 107.52C137.47 108.04 137.94 108.3 138.47 108.3C138.89 108.3 139.23 108.15 139.51 107.86C139.82 107.54 139.97 107.11 139.97 106.58V106.07H137.99V105.48H140.59V108.83H140.06L139.98 108.02C139.8 108.27 139.61 108.47 139.4 108.61C139.08 108.83 138.73 108.94 138.36 108.94C137.67 108.94 137.07 108.61 136.56 107.96C136.03 107.3 135.77 106.49 135.77 105.54C135.77 104.59 136.04 103.73 136.59 103.05C137.14 102.37 137.82 102.03 138.64 102.03C139 102.03 139.35 102.1 139.69 102.25C139.87 102.32 140.11 102.46 140.4 102.65V102.64Z" fill="#231815"/>
<path d="M96.13 115.79H100.89V116.97H96.13V115.79ZM100.59 119.56C100.59 120.66 99.86 121.77 98.42 121.77C96.98 121.77 96.32 120.66 96.32 119.56C96.32 118.46 97.01 117.36 98.42 117.36C99.83 117.36 100.59 118.45 100.59 119.56ZM97.33 114.1H99.93V115.28H97.33V114.1ZM97.68 119.56C97.68 120.1 97.94 120.63 98.46 120.63C98.98 120.63 99.23 120.1 99.23 119.56C99.23 119.05 98.97 118.49 98.46 118.49C97.95 118.49 97.68 119.05 97.68 119.56ZM104.34 113.79C104.86 113.79 104.99 113.83 104.99 113.94C104.99 114.05 104.87 114.22 104.87 114.48V123.16H103.45V119.05H102.73V122.8H101.34V113.97H102.3C102.76 113.97 102.89 114 102.89 114.09C102.89 114.19 102.73 114.36 102.73 114.63V117.84H103.45V113.8H104.34V113.79Z" fill="#231815"/>
<path d="M111.43 116.41C111.43 117.66 110.63 118.77 108.83 118.77C107.03 118.77 106.21 117.7 106.21 116.41C106.21 115.12 107.03 114.03 108.83 114.03C110.63 114.03 111.43 115.16 111.43 116.41ZM114.59 121.36C114.59 122.36 113.43 123.28 110.87 123.28C108.31 123.28 107.11 122.36 107.11 121.36C107.11 120.36 108.27 119.47 110.87 119.47C113.47 119.47 114.59 120.37 114.59 121.36ZM107.66 116.41C107.66 117.13 108.02 117.6 108.83 117.6C109.64 117.6 110 117.13 110 116.41C110 115.69 109.64 115.23 108.83 115.23C108.02 115.23 107.66 115.72 107.66 116.41ZM108.6 121.37C108.6 121.87 109.27 122.26 110.87 122.26C112.47 122.26 113.1 121.87 113.1 121.37C113.1 120.9 112.44 120.52 110.88 120.52C109.32 120.52 108.6 120.9 108.6 121.37ZM113.93 113.79C114.51 113.79 114.65 113.84 114.65 113.95C114.65 114.06 114.51 114.24 114.51 114.49V119.63H113.06V118.1H111.48V116.9H113.06V116.1H111.48V114.9H113.06V113.79H113.93Z" fill="#231815"/>
<path d="M116.17 120.83C116.83 120.84 117.8 120.83 118.63 120.76V119.88C117.76 119.73 116.92 119.29 116.92 118.33C116.92 117.1 118.3 116.7 119.37 116.7C120.44 116.7 121.83 117.1 121.83 118.33C121.83 119.3 120.97 119.75 120.08 119.88V120.71C120.87 120.67 122.02 120.59 122.54 120.53C122.62 120.86 122.7 121.28 122.76 121.59C121.08 121.72 119.11 121.83 117.43 121.95C116.96 121.97 116.74 122.08 116.6 122.08C116.51 122.08 116.45 122.03 116.38 121.86L116.17 120.83ZM116.33 115.39H122.37V116.5H116.33V115.39ZM117.91 113.94H120.98V115.04H117.91V113.94ZM118.35 118.33C118.35 118.73 118.65 119.01 119.37 119.01C120.09 119.01 120.39 118.73 120.39 118.33C120.39 117.91 120.1 117.64 119.37 117.64C118.64 117.64 118.35 117.91 118.35 118.33ZM123.93 113.79C124.5 113.79 124.63 113.82 124.63 113.92C124.63 114.01 124.51 114.18 124.51 114.45V123.16H123.06V113.79H123.93Z" fill="#231815"/>
<path d="M128.73 116.46C129.29 116.46 129.42 116.5 129.42 116.59C129.42 116.68 129.29 116.83 129.29 117.05V118.39C130.13 118.37 131.11 118.33 132.04 118.27C132.08 118.66 132.14 119.07 132.17 119.41C130.52 119.49 128.81 119.56 127.27 119.64C126.77 119.69 126.53 119.8 126.4 119.8C126.28 119.8 126.24 119.71 126.16 119.4L125.96 118.47C126.53 118.47 127.31 118.47 127.89 118.43V116.46H128.73ZM126.55 114.27H131.73C131.73 115.44 131.67 116.76 131.4 117.83C130.94 117.81 130.44 117.8 129.99 117.8C130.18 117.17 130.32 116.28 130.32 115.48H126.55V114.27ZM128.06 120.07C128.65 120.07 128.79 120.11 128.79 120.22C128.79 120.32 128.66 120.47 128.66 120.7V121.7H134.34V122.92H127.21V120.07H128.06ZM133.44 113.79C134.08 113.79 134.24 113.83 134.24 113.95C134.24 114.07 134.07 114.28 134.07 114.61V117.4H135.32V118.67H134.07V120.7H132.63V113.79H133.44Z" fill="#231815"/>
<path d="M136.55 114.27H141.73V115.51H139.89V115.71C139.89 116.25 140.79 117.49 142.24 117.78C141.94 118.09 141.62 118.54 141.37 118.96C140.34 118.54 139.47 117.81 139.19 117.2C138.95 117.81 138.05 118.6 136.91 119.08C136.69 118.77 136.21 118.3 135.87 118.01C137.38 117.78 138.5 116.39 138.5 115.7V115.51H136.55V114.27ZM137.13 119.47H144.51V123.15H143.06V122.93H138.57V123.15H137.13V119.47ZM138.57 120.57V121.83H143.06V120.57H138.57ZM143.85 113.79C144.52 113.79 144.68 113.83 144.68 113.95C144.68 114.07 144.51 114.28 144.51 114.63V118.91H143.06V117H141.46V115.82H143.06V113.79H143.85Z" fill="#231815"/>
<path d="M105.87 130.76H115.22V131.97H111.26V135.16H109.83V131.97H105.86V130.76H105.87ZM106.7 126.15H114.33V127.32H111.37C111.37 127.93 112.99 128.83 114.88 128.84C114.56 129.2 114.27 129.63 114.13 129.99C112.66 129.83 110.97 128.99 110.56 128.38C110.21 129 108.6 129.89 107.03 130.12C106.87 129.8 106.51 129.3 106.17 128.99C107.89 128.99 109.61 127.93 109.61 127.32H106.7V126.15Z" fill="#231815"/>
<path d="M116.42 127.79H122.15V129.01H120.11C120.11 130.35 120.98 132.1 122.22 132.65C121.91 132.9 121.51 133.35 121.27 133.71C120.44 133.18 119.67 132.19 119.34 131.12C119 132.19 117.93 133.26 117.02 133.84C116.79 133.53 116.38 133.07 115.97 132.76C117.48 132.21 118.63 130.41 118.63 129.01H116.42V127.79ZM117.79 126.1H120.77V127.26H117.79V126.1ZM123.44 125.79C124.08 125.79 124.24 125.83 124.24 125.95C124.24 126.07 124.07 126.28 124.07 126.61V129.89H125.32V131.16H124.07V135.16H122.63V125.79H123.44Z" fill="#231815"/>
<path d="M126.55 126.27H131.73V127.51H129.89V127.71C129.89 128.25 130.79 129.49 132.24 129.78C131.94 130.09 131.62 130.54 131.37 130.96C130.34 130.54 129.47 129.81 129.19 129.2C128.95 129.81 128.05 130.6 126.91 131.08C126.69 130.77 126.21 130.3 125.87 130.01C127.38 129.78 128.5 128.39 128.5 127.7V127.51H126.55V126.27ZM134.24 133.34C134.24 134.36 133.08 135.28 130.56 135.28C128.04 135.28 126.85 134.36 126.85 133.34C126.85 132.32 128.02 131.47 130.56 131.47C133.1 131.47 134.24 132.37 134.24 133.34ZM128.33 133.36C128.33 133.87 129.01 134.26 130.56 134.26C132.11 134.26 132.75 133.87 132.75 133.36C132.75 132.9 132.09 132.52 130.57 132.52C129.05 132.52 128.33 132.9 128.33 133.36ZM133.3 125.79C134.04 125.79 134.22 125.83 134.22 125.97C134.22 126.09 134.07 126.29 134.07 126.61V128.28H135.32V129.56H134.07V131.63H132.63V125.79H133.3Z" fill="#231815"/>
</g>
<defs>
<clipPath id="clip0_42_494">
<rect width="212.91" height="189.2" fill="white" transform="translate(9 8)"/>
</clipPath>
</defs>
</svg>
