<svg width="213" height="190" viewBox="0 0 213 190" fill="none" xmlns="http://www.w3.org/2000/svg">
<mask id="mask0_1690_61518" style="mask-type:luminance" maskUnits="userSpaceOnUse" x="0" y="0" width="213" height="190">
<path d="M212.91 0H0V189.2H212.91V0Z" fill="white"/>
</mask>
<g mask="url(#mask0_1690_61518)">
<path d="M212.91 0H0V189.2H212.91V0Z" fill="white"/>
<path d="M193.02 51.5605H22.5996V59.5605H193.02V51.5605Z" fill="#DCDDDD"/>
<path d="M77.6995 102.869H18.7695V110.869H77.6995V102.869Z" fill="#DCDDDD"/>
<path d="M28.3006 0.0605469H18.3906V164.34H28.3006V0.0605469Z" fill="#DCDDDD"/>
<path d="M52.4902 0H44.4902V58.61H52.4902V0Z" fill="#DCDDDD"/>
<path d="M46.2996 63.1191H32.0996V77.3191H46.2996V63.1191Z" fill="#DCDDDD"/>
<path d="M71.8805 18.8008H59.3105V31.3709H71.8805V18.8008Z" stroke="#595757" stroke-width="2"/>
<path d="M192.77 154.949H0V171.209H192.77V154.949Z" fill="#DCDDDD"/>
<path d="M194.18 0.0898438H184.27V189.2H194.18V0.0898438Z" fill="#DCDDDD"/>
<path d="M37.0606 81.5794C36.9506 82.7294 36.5206 83.6694 35.7506 84.4094C34.9806 85.1494 34.1806 85.6794 33.3506 86.0094L32.8906 85.4894C33.7306 85.2194 34.4806 84.7794 35.1406 84.1594C35.8006 83.5394 36.1806 82.8694 36.3106 82.1494H33.4006V81.5794H37.0606ZM36.7206 89.1694C35.8706 89.1694 35.2106 89.0194 34.7306 88.7294C34.2606 88.4294 34.0206 88.0494 34.0206 87.5794C34.0206 87.1094 34.2606 86.7294 34.7206 86.4294C35.1906 86.1394 35.8506 85.9894 36.7106 85.9894C37.5706 85.9894 38.2506 86.1294 38.7106 86.4294C39.1806 86.7194 39.4106 87.1094 39.4106 87.5794C39.4106 88.0494 39.1706 88.4394 38.7006 88.7294C38.2206 89.0194 37.5606 89.1694 36.7006 89.1694H36.7206ZM36.7206 86.5394C36.0806 86.5394 35.5806 86.6394 35.2306 86.8294C34.8806 87.0194 34.7006 87.2694 34.7006 87.5794C34.7006 87.8894 34.8706 88.1394 35.2206 88.3294C35.5706 88.5294 36.0706 88.6194 36.7206 88.6194C37.3706 88.6194 37.8806 88.5194 38.2306 88.3294C38.5806 88.1394 38.7506 87.8894 38.7506 87.5794C38.7506 87.2694 38.5706 87.0294 38.2206 86.8294C37.8706 86.6394 37.3706 86.5394 36.7206 86.5394ZM39.2606 83.9594V85.8194H38.6306V81.1094H39.2606V83.3694H40.5006V83.9694H39.2606V83.9594Z" fill="#595757"/>
<path d="M44.5397 86.1696V87.3396C45.5397 87.3196 46.3597 87.2996 47.0197 87.2496L47.0597 87.7996C45.5597 87.8896 43.6997 87.9296 41.4897 87.9296L41.4297 87.3696C42.1797 87.3696 43.0097 87.3596 43.8997 87.3396V86.1696C43.3397 86.1196 42.9097 85.9596 42.6097 85.6796C42.3097 85.4096 42.1597 85.0696 42.1597 84.6796C42.1597 84.2396 42.3497 83.8796 42.7097 83.5896C43.0797 83.3096 43.5897 83.1696 44.2297 83.1696C44.8697 83.1696 45.3597 83.3096 45.7297 83.5896C46.0997 83.8696 46.2797 84.2196 46.2797 84.6396C46.2797 85.0596 46.1297 85.3996 45.8197 85.6796C45.5197 85.9496 45.0897 86.1196 44.5297 86.1696H44.5397ZM43.9097 81.1296H44.5397V82.1996H46.6797V82.7696H41.7697V82.1996H43.9197V81.1296H43.9097ZM44.2297 83.7196C43.7897 83.7196 43.4397 83.8096 43.1797 83.9896C42.9197 84.1696 42.7997 84.3996 42.7997 84.6896C42.7997 84.9796 42.9297 85.2096 43.1797 85.3896C43.4297 85.5696 43.7797 85.6496 44.2297 85.6496C44.6797 85.6496 45.0197 85.5596 45.2697 85.3796C45.5197 85.1996 45.6497 84.9696 45.6497 84.6896C45.6497 84.4096 45.5197 84.1696 45.2697 83.9896C45.0197 83.8096 44.6697 83.7196 44.2297 83.7196ZM48.1397 85.3296V89.3196H47.5097V81.0996H48.1397V84.7596H49.4097V85.3296H48.1397Z" fill="#595757"/>
<path d="M55.1891 85.0596C54.2891 85.1196 52.8491 85.1396 50.8691 85.1396V81.5696H54.8091V82.1396H51.5091V84.5796C53.2291 84.5796 54.4391 84.5596 55.1491 84.5096L55.1891 85.0596ZM54.1791 89.1996C53.3191 89.1996 52.6591 89.0596 52.1991 88.7696C51.7391 88.4796 51.4991 88.0996 51.4991 87.6296C51.4991 87.1596 51.7291 86.7896 52.1891 86.4996C52.6491 86.2096 53.3091 86.0596 54.1791 86.0596C55.0491 86.0596 55.6991 86.1996 56.1691 86.4896C56.6291 86.7796 56.8591 87.1596 56.8591 87.6296C56.8591 88.0996 56.6291 88.4896 56.1591 88.7696C55.6991 89.0596 55.0291 89.1996 54.1791 89.1996ZM54.1791 86.5996C53.5291 86.5996 53.0391 86.6896 52.6891 86.8796C52.3491 87.0696 52.1791 87.3196 52.1791 87.6296C52.1791 87.9396 52.3491 88.1896 52.6891 88.3796C53.0291 88.5696 53.5291 88.6596 54.1791 88.6596C54.8291 88.6596 55.3291 88.5696 55.6791 88.3796C56.0291 88.1896 56.1991 87.9396 56.1991 87.6296C56.1991 87.3196 56.0291 87.0796 55.6791 86.8796C55.3391 86.6896 54.8391 86.5996 54.1791 86.5996ZM56.7191 83.9296V85.8796H56.0891V81.0996H56.7191V83.3496H57.9591V83.9296H56.7191Z" fill="#595757"/>
<path d="M32.9707 93.5603V92.9903H35.0907V91.9204H35.7407V92.9903H37.8607V93.5603H32.9707ZM35.4207 97.1003C34.8007 97.1003 34.3107 96.9503 33.9507 96.6503C33.5907 96.3503 33.4107 95.9803 33.4107 95.5403C33.4107 95.1003 33.5907 94.7403 33.9507 94.4503C34.3107 94.1503 34.8107 94.0003 35.4307 94.0003C36.0507 94.0003 36.5407 94.1503 36.9107 94.4403C37.2707 94.7403 37.4507 95.1003 37.4507 95.5403C37.4507 95.9803 37.2707 96.3403 36.9007 96.6403C36.5307 96.9403 36.0407 97.0903 35.4207 97.0903V97.1003ZM35.4207 94.5503C34.9907 94.5503 34.6507 94.6403 34.4007 94.8303C34.1507 95.0203 34.0307 95.2603 34.0307 95.5503C34.0307 95.8403 34.1607 96.0903 34.4107 96.2803C34.6607 96.4703 35.0007 96.5703 35.4307 96.5703C35.8607 96.5703 36.2007 96.4803 36.4507 96.2803C36.7007 96.0903 36.8307 95.8503 36.8307 95.5503C36.8307 95.2503 36.7007 95.0203 36.4607 94.8303C36.2107 94.6403 35.8707 94.5503 35.4407 94.5503H35.4207ZM34.3507 99.9703V97.6903H34.9807V99.4003H39.6107V99.9703H34.3507ZM39.3507 95.6603V98.0203H38.7207V91.9004H39.3507V95.0703H40.5907V95.6503H39.3507V95.6603Z" fill="#595757"/>
<path d="M41.7202 98.6205L41.6602 98.0705C42.3902 98.0705 43.4202 98.0505 44.7302 98.0305C46.0402 98.0005 46.9202 97.9705 47.3502 97.9305L47.3902 98.4805C46.9402 98.5205 46.0602 98.5505 44.7502 98.5805C43.4302 98.6105 42.4302 98.6205 41.7202 98.6205ZM44.4402 96.4405C43.8202 96.4405 43.3102 96.2505 42.8902 95.8805C42.4702 95.5105 42.2602 95.0405 42.2602 94.4705C42.2602 93.9005 42.4702 93.4505 42.8802 93.0805C43.2902 92.7105 43.8102 92.5205 44.4302 92.5205C45.0502 92.5205 45.5602 92.7105 45.9802 93.0905C46.4002 93.4705 46.6002 93.9305 46.6002 94.4805C46.6002 95.0305 46.3902 95.5205 45.9802 95.8905C45.5602 96.2605 45.0502 96.4505 44.4302 96.4505L44.4402 96.4405ZM44.4402 93.0805C44.0102 93.0805 43.6502 93.2105 43.3602 93.4705C43.0702 93.7305 42.9202 94.0605 42.9202 94.4705C42.9202 94.8805 43.0702 95.2205 43.3702 95.4805C43.6702 95.7405 44.0202 95.8705 44.4402 95.8705C44.8602 95.8705 45.2302 95.7405 45.5202 95.4805C45.8102 95.2205 45.9602 94.8805 45.9602 94.4705C45.9602 94.0605 45.8102 93.7205 45.5202 93.4705C45.2302 93.2105 44.8702 93.0805 44.4402 93.0805ZM47.9402 100.111V91.8906H48.5702V100.111H47.9402Z" fill="#595757"/>
<path d="M56.0394 96.2205C55.6194 96.2505 54.8594 96.2805 53.7494 96.3305V98.1005H53.1194V96.3605C52.0194 96.4005 51.2094 96.4205 50.6994 96.4205L50.6094 95.8305C52.6794 95.8305 54.4794 95.7805 55.9994 95.6705L56.0394 96.2205ZM53.3994 95.1705C52.7994 95.1705 52.3094 95.0205 51.9294 94.7205C51.5494 94.4205 51.3594 94.0505 51.3594 93.6005C51.3594 93.1505 51.5494 92.7905 51.9194 92.4905C52.2894 92.1905 52.7894 92.0405 53.3894 92.0405C53.9894 92.0405 54.4794 92.1905 54.8594 92.4805C55.2394 92.7805 55.4294 93.1505 55.4294 93.5905C55.4294 94.0305 55.2394 94.4105 54.8594 94.7105C54.4794 95.0105 53.9894 95.1605 53.3894 95.1605L53.3994 95.1705ZM51.8794 99.8905V97.4305H52.5194V99.3305H57.4594V99.9005H51.8794V99.8905ZM53.3994 92.5805C52.9794 92.5805 52.6394 92.6805 52.3794 92.8905C52.1294 93.1005 51.9994 93.3305 51.9994 93.6005C51.9994 93.8705 52.1294 94.1205 52.3794 94.3205C52.6394 94.5305 52.9794 94.6305 53.3994 94.6305C53.8194 94.6305 54.1594 94.5305 54.4194 94.3205C54.6794 94.1105 54.8094 93.8705 54.8094 93.6005C54.8094 93.3305 54.6794 93.0905 54.4194 92.8905C54.1594 92.6905 53.8294 92.5805 53.3994 92.5805ZM56.6094 98.3905V97.5105H54.8094V96.9405H56.6094V91.8906H57.2594V98.3905H56.6094Z" fill="#595757"/>
<path d="M80.9209 23.6808H86.0309V19.0508H87.8209V30.8908H86.0309V25.3609H80.9209V30.8908H79.1309V19.0508H80.9209V23.6808Z" fill="#595757"/>
<path d="M100.041 28.0091H94.9707L93.6507 30.8891H91.7207L97.5907 18.2891L103.241 30.8891H101.291L100.041 28.0091ZM99.3207 26.3291L97.5607 22.3091L95.7207 26.3291H99.3207Z" fill="#595757"/>
<path d="M107.119 30.8902V18.2402L115.749 27.2702V19.0502H117.539V31.6202L108.909 22.6002V30.8902H107.119Z" fill="#595757"/>
<path d="M121.84 30.8908V19.0508H124.33C125.6 19.0508 126.59 19.1908 127.32 19.4608C128.61 19.9408 129.6 20.7808 130.26 21.9808C130.75 22.8608 130.99 23.8508 130.99 24.9708C130.99 27.0208 130.2 28.6208 128.62 29.7608C128.02 30.1908 127.41 30.4908 126.79 30.6508C126.17 30.8108 125.34 30.8908 124.29 30.8908H121.83H121.84ZM123.63 29.2108H124.44C125.16 29.2108 125.76 29.1408 126.24 29.0108C126.72 28.8808 127.17 28.6608 127.58 28.3508C128.11 27.9608 128.51 27.4608 128.79 26.8508C129.06 26.2808 129.19 25.6508 129.19 24.9708C129.19 24.0008 128.93 23.1408 128.4 22.3908C127.98 21.8008 127.46 21.3809 126.84 21.1209C126.21 20.8609 125.41 20.7208 124.44 20.7208H123.63V29.2009V29.2108Z" fill="#595757"/>
<path d="M136.71 19.0508V26.1808C136.71 26.7108 136.74 27.1208 136.79 27.4108C136.84 27.7108 136.94 27.9808 137.08 28.2208C137.27 28.5508 137.54 28.8209 137.87 29.0409C138.3 29.3109 138.78 29.4409 139.3 29.4409C139.77 29.4409 140.2 29.3309 140.6 29.1109C141 28.8909 141.31 28.6008 141.52 28.2308C141.66 27.9908 141.76 27.7208 141.81 27.4208C141.86 27.1308 141.89 26.7209 141.89 26.1909V19.0608H143.68V26.6808C143.68 27.7808 143.38 28.7108 142.78 29.4608C142.37 29.9908 141.85 30.3908 141.24 30.6808C140.63 30.9808 139.98 31.1209 139.31 31.1209C138.35 31.1209 137.48 30.8409 136.69 30.2809C135.51 29.4409 134.93 28.2408 134.93 26.6708V19.0508H136.72H136.71Z" fill="#595757"/>
<path d="M154.88 20.8103L153.43 21.6703C153.22 21.3103 153.03 21.0703 152.87 20.9203C152.57 20.6403 152.17 20.5003 151.67 20.5003C151.17 20.5003 150.73 20.6503 150.41 20.9403C150.1 21.2203 149.94 21.5703 149.94 21.9703C149.94 22.3703 150.13 22.6903 150.5 22.9503C150.67 23.0803 150.84 23.1803 151 23.2503C151.16 23.3203 151.63 23.5203 152.41 23.8403C153.4 24.2403 154.11 24.7203 154.53 25.2803C154.97 25.8603 155.19 26.5403 155.19 27.3303C155.19 28.4703 154.79 29.4103 153.98 30.1503C153.29 30.7903 152.42 31.1103 151.38 31.1103C150.04 31.1103 149.01 30.5803 148.28 29.5303C147.94 29.0303 147.71 28.3903 147.59 27.6203L149.4 27.2203C149.48 27.8203 149.59 28.2503 149.74 28.5203C149.9 28.8003 150.13 29.0203 150.44 29.1803C150.75 29.3503 151.09 29.4303 151.45 29.4303C152.05 29.4303 152.54 29.2203 152.91 28.7903C153.24 28.4203 153.4 27.9803 153.4 27.4503C153.4 26.7903 153.13 26.2703 152.58 25.9003C152.38 25.7703 152.2 25.6603 152.04 25.5803C151.87 25.5003 151.38 25.2903 150.57 24.9503C148.95 24.2703 148.14 23.2703 148.14 21.9503C148.14 20.8903 148.59 20.0603 149.49 19.4703C150.15 19.0403 150.88 18.8203 151.69 18.8203C152.4 18.8203 153.02 18.9803 153.52 19.3003C154.03 19.6203 154.49 20.1203 154.89 20.8103H154.88Z" fill="#595757"/>
<path d="M57.25 14.0801L64.34 27.7501" stroke="#595757" stroke-width="3"/>
<path d="M63.2695 27.8602L77.4495 9.74023" stroke="#595757" stroke-width="3"/>
<path d="M82.8893 174.289H68.2793V188.899H82.8893V174.289Z" fill="#DCDDDD"/>
<path d="M47.5198 136.32H32.7598V151.08H47.5198V136.32Z" fill="#DCDDDD"/>
<path d="M65.9299 136.07H51.1699V150.83H65.9299V136.07Z" fill="#EE8447"/>
<path d="M57.9301 147.65V141.38H56.0801V140.24C56.4001 140.24 56.6901 140.19 56.9501 140.11C57.2101 140.03 57.4401 139.92 57.6201 139.78C57.7601 139.68 57.8901 139.52 58.0001 139.32C58.1101 139.11 58.1701 138.87 58.1801 138.6H59.3001V147.65H57.9301Z" fill="white"/>
<path d="M212.861 154.939H48.8906V171.199H212.861V154.939Z" fill="#EE8447"/>
<path d="M59.0706 150.24H58.3906V156.11H59.0706V150.24Z" fill="#EE8447"/>
<path d="M66.0495 174.289H51.4395V188.899H66.0495V174.289Z" fill="#EE8447"/>
<path d="M59.0706 169.24H58.3906V175.11H59.0706V169.24Z" fill="#EE8447"/>
<path d="M111.92 159.77C112.36 160.21 112.58 160.74 112.58 161.36C112.58 161.98 112.36 162.51 111.92 162.95C111.48 163.39 110.92 163.61 110.24 163.61C109.56 163.61 109.01 163.39 108.57 162.95C108.13 162.51 107.92 161.98 107.92 161.36C107.92 160.74 108.14 160.21 108.57 159.77C109.01 159.33 109.56 159.1 110.24 159.1C110.92 159.1 111.48 159.32 111.92 159.77ZM109.36 160.48C109.15 160.73 109.05 161.02 109.05 161.36C109.05 161.7 109.15 161.98 109.36 162.23C109.57 162.48 109.86 162.6 110.25 162.6C110.64 162.6 110.94 162.48 111.15 162.23C111.35 161.98 111.46 161.69 111.46 161.36C111.46 161.03 111.36 160.73 111.15 160.48C110.94 160.23 110.64 160.11 110.25 160.11C109.86 160.11 109.57 160.23 109.36 160.48ZM109.07 167.43V164.61H110.21V166.42H115.26V167.43H109.06H109.07ZM114.99 162.19V165.19H113.89V158.83H114.99V161.16H116.14V162.19H114.99Z" fill="white"/>
<path d="M121.6 163.28V164.74H124.33V167.64H123.23V165.76H117.97V164.74H120.45V163.28H117.02V162.27H122.86C122.92 161.99 122.99 161.66 123.07 161.28C123.14 160.9 123.19 160.53 123.23 160.16H117.95V159.15H124.51C124.51 159.31 124.48 159.57 124.44 159.92C124.39 160.27 124.35 160.57 124.3 160.81C124.24 161.14 124.18 161.42 124.14 161.64C124.1 161.86 124.05 162.07 124 162.27H125.39V163.28H121.62H121.6Z" fill="white"/>
<path d="M133 159.93V158.84H134.1V164.03H133V162.64H130.98C130.77 162.9 130.51 163.11 130.18 163.26C129.86 163.41 129.5 163.49 129.1 163.49C128.42 163.49 127.86 163.28 127.43 162.87C126.99 162.45 126.77 161.94 126.77 161.31C126.77 160.68 126.99 160.17 127.43 159.75C127.87 159.33 128.42 159.12 129.1 159.12C129.49 159.12 129.85 159.19 130.17 159.34C130.49 159.49 130.75 159.69 130.95 159.94H133V159.93ZM132.97 167.64V165.46H127.82V164.43H134.07V167.64H132.97ZM129.98 160.49C129.78 160.25 129.48 160.13 129.1 160.13C128.72 160.13 128.43 160.25 128.23 160.49C128.02 160.73 127.92 161 127.92 161.32C127.92 161.64 128.02 161.92 128.23 162.15C128.44 162.38 128.73 162.5 129.1 162.5C129.47 162.5 129.77 162.38 129.98 162.15C130.19 161.92 130.29 161.64 130.29 161.32C130.29 161 130.19 160.72 129.98 160.49ZM133 161.66V160.92H131.4C131.41 160.99 131.42 161.05 131.42 161.12C131.42 161.18 131.42 161.25 131.42 161.31C131.42 161.37 131.42 161.43 131.42 161.49C131.42 161.55 131.41 161.61 131.4 161.66H133Z" fill="white"/>
<path d="M87 182.889V181.989H90.96V180.739H92V181.989H95.96V182.889H87ZM92.82 179.579C93.27 179.969 94.13 180.279 95.39 180.509L94.77 181.289C94.05 181.209 93.39 180.999 92.8 180.649C92.21 180.299 91.77 179.979 91.49 179.679C91.23 180.039 90.78 180.379 90.15 180.689C89.51 180.999 88.87 181.199 88.21 181.299L87.59 180.519C88.57 180.359 89.35 180.099 89.92 179.739C90.49 179.389 90.82 179.029 90.92 178.669H88.06V177.789H94.9V178.669H92.04C92.11 178.889 92.37 179.199 92.82 179.589V179.579ZM94.12 186.559C93.51 186.899 92.63 187.059 91.48 187.059C90.33 187.059 89.46 186.889 88.84 186.559C88.22 186.219 87.91 185.799 87.91 185.269C87.91 184.739 88.22 184.309 88.84 183.979C89.46 183.649 90.34 183.489 91.48 183.489C92.62 183.489 93.51 183.649 94.12 183.979C94.73 184.309 95.04 184.739 95.04 185.269C95.04 185.799 94.73 186.219 94.12 186.559ZM89.73 184.559C89.29 184.729 89.06 184.959 89.06 185.259C89.06 185.539 89.28 185.769 89.73 185.949C90.18 186.119 90.76 186.209 91.48 186.209C92.2 186.209 92.77 186.119 93.22 185.949C93.67 185.779 93.89 185.549 93.89 185.259C93.89 184.969 93.67 184.729 93.22 184.559C92.78 184.389 92.2 184.299 91.48 184.299C90.76 184.299 90.18 184.379 89.73 184.549V184.559Z" fill="#595757"/>
<path d="M97.0801 185.81V184.91H101.02V183.44H98.3201V180.36H103.68V179.06H98.3001V178.16H104.69V181.26H99.3401V182.54H104.95V183.44H102.09V184.91H106.04V185.81H97.0801Z" fill="#595757"/>
<path d="M111.4 181.06C110.7 182.01 109.61 182.69 108.12 183.08L107.58 182.37C108.45 182.21 109.27 181.77 110.04 181.05C110.81 180.34 111.23 179.65 111.27 179H108.11V178.1H112.51C112.47 179.11 112.1 180.1 111.4 181.05V181.06ZM114.7 186.51C114.1 186.88 113.25 187.06 112.14 187.06C111.03 187.06 110.18 186.88 109.58 186.51C108.98 186.15 108.68 185.68 108.68 185.12C108.68 184.56 108.98 184.09 109.58 183.72C110.18 183.35 111.03 183.17 112.14 183.17C113.25 183.17 114.11 183.35 114.7 183.72C115.3 184.09 115.6 184.55 115.6 185.12C115.6 185.69 115.3 186.15 114.7 186.51ZM113.85 184.34C113.39 184.15 112.83 184.05 112.15 184.05C111.47 184.05 110.9 184.15 110.44 184.34C109.99 184.53 109.76 184.8 109.76 185.13C109.76 185.46 109.99 185.72 110.44 185.92C110.89 186.12 111.46 186.21 112.15 186.21C112.84 186.21 113.39 186.11 113.85 185.92C114.3 185.72 114.53 185.46 114.53 185.13C114.53 184.8 114.3 184.53 113.85 184.34ZM114.44 183.12V181.83H112.62V180.93H114.44V179.85H112.78V178.95H114.44V177.49H115.46V183.12H114.44Z" fill="#595757"/>
<path d="M122.69 182.391C122.33 182.291 121.91 182.081 121.42 181.771C120.93 181.461 120.62 181.181 120.49 180.931C120.32 181.231 120 181.561 119.52 181.911C119.04 182.261 118.56 182.501 118.08 182.631L117.43 181.831C118.28 181.601 118.89 181.271 119.28 180.821C119.66 180.381 119.88 180.071 119.93 179.891H118.05V179.031H122.95V179.891H121.06C121.11 180.071 121.34 180.351 121.72 180.731C122.11 181.111 122.62 181.381 123.26 181.541L122.71 182.391H122.69ZM119.05 186.791V184.491H124.16V183.861H119.05V183.011H125.27V185.281H120.16V185.901H125.47V186.791H119.05ZM119.08 178.321V177.471H121.91V178.321H119.08ZM125.27 180.501V182.601H124.25V177.481H125.27V179.551H126.57V180.501H125.27Z" fill="#595757"/>
<path d="M132.909 185.081C132.519 184.891 132.079 184.521 131.589 183.961C131.099 183.401 130.739 182.831 130.509 182.251C130.369 182.771 130.039 183.341 129.529 183.951C129.019 184.561 128.539 185.001 128.099 185.271L127.289 184.591C128.229 184.041 128.909 183.341 129.329 182.491C129.749 181.641 129.959 180.641 129.959 179.481V177.991H131.029V179.481C131.029 180.651 131.249 181.621 131.679 182.371C132.109 183.131 132.749 183.771 133.589 184.301L132.909 185.071V185.081ZM134.599 186.901V181.551H132.589V180.611H134.599V177.471H135.619V186.901H134.599Z" fill="#595757"/>
<path d="M60.9399 180.79C61.4199 181.35 61.6599 182.01 61.6599 182.79C61.6599 183.57 61.3899 184.26 60.8599 184.81C60.3299 185.36 59.6699 185.63 58.8699 185.63C58.0699 185.63 57.4799 185.41 57.0199 184.96C56.5599 184.52 56.2399 183.99 56.0399 183.37C55.8599 182.81 55.7799 182.09 55.7999 181.22C55.8199 180.34 55.9399 179.6 56.1599 178.99C56.3999 178.35 56.7499 177.84 57.1999 177.47C57.6599 177.09 58.2299 176.91 58.9299 176.91C59.6699 176.91 60.2799 177.16 60.7599 177.66C61.2399 178.16 61.5299 178.72 61.6099 179.33H60.4099C60.3499 179.06 60.1999 178.78 59.9499 178.48C59.6999 178.19 59.3599 178.04 58.9199 178.04C58.4599 178.04 58.1199 178.17 57.9099 178.44C57.6999 178.71 57.5399 178.98 57.4199 179.26C57.3199 179.51 57.2499 179.74 57.2199 179.97C57.1899 180.19 57.1799 180.39 57.1799 180.57C57.3999 180.36 57.6699 180.2 57.9699 180.07C58.2699 179.95 58.6399 179.89 59.0699 179.91C59.8399 179.93 60.4599 180.22 60.9399 180.78V180.79ZM59.8999 183.99C60.1699 183.67 60.3099 183.27 60.3099 182.78C60.3099 182.29 60.1699 181.9 59.8999 181.59C59.6299 181.27 59.2699 181.12 58.8199 181.12C58.3699 181.12 58.0299 181.28 57.7599 181.59C57.4899 181.91 57.3599 182.3 57.3599 182.78C57.3599 183.26 57.4899 183.67 57.7599 183.99C58.0299 184.31 58.3799 184.46 58.8199 184.46C59.2599 184.46 59.6299 184.3 59.8999 183.99Z" fill="white"/>
<path d="M212.91 136.869H198.15V151.629H212.91V136.869Z" fill="#EE8447"/>
<path d="M206.061 151.029H205.381V156.899H206.061V151.029Z" fill="#EE8447"/>
<path d="M180.53 174.58H165.92V189.19H180.53V174.58Z" fill="#EE8447"/>
<path d="M173.549 169.529H172.869V175.399H173.549V169.529Z" fill="#EE8447"/>
<path d="M175.161 180.94C175.681 181.36 175.941 182.05 175.941 183.01C175.941 183.97 175.641 184.63 175.051 185.14C174.451 185.65 173.811 185.9 173.121 185.9C172.271 185.9 171.611 185.64 171.131 185.13C170.651 184.61 170.381 184.05 170.311 183.44H171.531C171.591 183.78 171.751 184.07 172.021 184.33C172.291 184.59 172.641 184.72 173.081 184.72C173.521 184.72 173.851 184.56 174.131 184.24C174.411 183.92 174.551 183.52 174.561 183.03C174.561 182.53 174.441 182.12 174.181 181.79C173.921 181.46 173.571 181.29 173.121 181.29C172.801 181.29 172.521 181.35 172.291 181.46C172.051 181.57 171.871 181.72 171.741 181.89H170.491L171.141 177.5H175.571V178.66H172.231L171.951 180.5C172.191 180.36 172.471 180.26 172.781 180.22C173.091 180.18 173.391 180.17 173.681 180.22C174.141 180.28 174.641 180.53 175.161 180.95V180.94Z" fill="white"/>
<path d="M207.45 140.549C207.9 141.059 208.12 141.649 208.12 142.329C208.12 143.009 207.94 143.519 207.57 143.919C207.21 144.319 206.85 144.639 206.5 144.889L205.11 145.889C204.92 146.029 204.72 146.199 204.52 146.409C204.32 146.619 204.17 146.859 204.08 147.109H208.09V148.249L202.57 148.229C202.57 147.639 202.68 147.069 202.9 146.519C203.12 145.969 203.62 145.419 204.39 144.869L205.75 143.899C206.01 143.709 206.25 143.489 206.45 143.229C206.65 142.979 206.76 142.679 206.76 142.349C206.76 141.939 206.66 141.599 206.43 141.339C206.2 141.069 205.86 140.939 205.42 140.939C204.9 140.939 204.53 141.109 204.31 141.439C204.09 141.779 203.98 142.139 203.97 142.539H202.77C202.77 141.849 202.98 141.219 203.42 140.649C203.86 140.079 204.53 139.789 205.44 139.789C206.35 139.789 207.02 140.049 207.47 140.559L207.45 140.549Z" fill="white"/>
<path d="M212.86 174.49H198.25V189.1H212.86V174.49Z" fill="#EE8447"/>
<path d="M205.869 169.439H205.189V175.309H205.869V169.439Z" fill="#EE8447"/>
<path d="M207.41 184.191V185.681L206.16 185.661V184.201H202.52V182.821L206.13 177.301H207.4V183.071H208.47V184.201H207.4L207.41 184.191ZM206.15 179.381L203.81 183.061H206.15V179.381Z" fill="white"/>
<path d="M147 137.6H77.0898V84L147 84.14V137.6Z" fill="#DCDDDD"/>
<path d="M33.6992 125.801V125.071H37.0992V124.421C36.2692 124.371 35.6492 124.211 35.2392 123.951C34.8192 123.691 34.6192 123.361 34.6192 122.961C34.6192 122.531 34.8692 122.181 35.3592 121.891C35.8492 121.611 36.5792 121.471 37.5492 121.471C38.5192 121.471 39.2592 121.611 39.7492 121.901C40.2392 122.181 40.4892 122.541 40.4892 122.961C40.4892 123.361 40.2792 123.691 39.8692 123.951C39.4592 124.211 38.8292 124.371 37.9992 124.421V125.071H41.3992V125.801H33.7092H33.6992ZM34.6992 129.781V127.731H39.4592V127.121H34.6992V126.411H40.3892V128.421H35.6192V129.061H40.5792V129.781H34.6892H34.6992ZM36.0692 122.381C35.7092 122.531 35.5192 122.731 35.5192 122.961C35.5192 123.191 35.6992 123.381 36.0592 123.541C36.4192 123.701 36.9092 123.781 37.5292 123.781C38.1492 123.781 38.6292 123.701 38.9992 123.551C39.3692 123.401 39.5492 123.201 39.5492 122.981C39.5492 122.761 39.3692 122.561 38.9992 122.401C38.6292 122.241 38.1392 122.161 37.5292 122.161C36.9192 122.161 36.4192 122.241 36.0592 122.391L36.0692 122.381Z" fill="#595757"/>
<path d="M46.1392 128.109C45.6292 128.159 45.1392 128.189 44.6592 128.199L42.4492 128.219V124.839H45.3392V123.139H42.4492V122.339H46.1992V125.639H43.3192V127.419H44.9292C45.3092 127.399 45.7392 127.369 46.2092 127.319C46.6792 127.279 47.0392 127.229 47.2892 127.189V127.979C47.0292 128.019 46.6392 128.069 46.1392 128.119V128.109ZM47.7892 129.869V121.539H48.6592V129.869H47.7892Z" fill="#595757"/>
<path d="M49.7695 128.65V127.85H57.4595V128.65H49.7695ZM50.8195 126.52V122.16H51.6895V123.49H55.5295V122.16H56.3895V126.52H50.8095H50.8195ZM55.5395 124.29H51.6995V125.72H55.5395V124.29Z" fill="#595757"/>
<path d="M63.9892 122.539V121.539H64.8592V126.529H63.9892V125.109H62.0092C61.8192 125.349 61.5892 125.539 61.2992 125.679C61.0092 125.819 60.6892 125.889 60.3292 125.889C59.7092 125.889 59.1992 125.689 58.7992 125.289C58.3992 124.889 58.1992 124.409 58.1992 123.849C58.1992 123.289 58.3992 122.809 58.7992 122.409C59.1992 122.009 59.7092 121.809 60.3292 121.809C60.6692 121.809 60.9892 121.879 61.2692 122.009C61.5592 122.139 61.7892 122.319 61.9692 122.539H63.9992H63.9892ZM61.2292 122.979C61.0192 122.739 60.7192 122.609 60.3192 122.609C59.9192 122.609 59.6292 122.729 59.4092 122.979C59.1992 123.219 59.0892 123.509 59.0892 123.849C59.0892 124.189 59.1992 124.479 59.4092 124.729C59.6192 124.969 59.9292 125.089 60.3192 125.089C60.7092 125.089 61.0192 124.969 61.2292 124.729C61.4392 124.489 61.5392 124.189 61.5392 123.849C61.5392 123.509 61.4392 123.229 61.2292 122.979ZM64.1992 129.529C63.7092 129.829 62.9892 129.979 62.0292 129.979C61.0692 129.979 60.3492 129.819 59.8692 129.509C59.3792 129.199 59.1392 128.799 59.1392 128.309C59.1392 127.819 59.3792 127.419 59.8692 127.099C60.3592 126.779 61.0792 126.619 62.0292 126.619C62.9792 126.619 63.7092 126.779 64.1992 127.119C64.6892 127.449 64.9292 127.859 64.9292 128.349C64.9292 128.839 64.6892 129.229 64.1992 129.529ZM63.4592 127.669C63.0992 127.499 62.6292 127.409 62.0292 127.409C61.4292 127.409 60.9492 127.489 60.5892 127.639C60.2292 127.799 60.0492 128.009 60.0492 128.299C60.0492 128.589 60.2292 128.799 60.5892 128.969C60.9492 129.139 61.4292 129.219 62.0292 129.219C62.6292 129.219 63.1092 129.139 63.4592 128.989C63.8192 128.839 63.9892 128.619 63.9892 128.349C63.9892 128.079 63.8092 127.839 63.4592 127.669ZM63.9792 124.299V123.329H62.3692C62.3892 123.409 62.3992 123.499 62.4092 123.579C62.4192 123.659 62.4292 123.749 62.4292 123.839C62.4292 123.919 62.4292 123.989 62.4192 124.069C62.4192 124.149 62.3992 124.219 62.3792 124.299H63.9792Z" fill="#595757"/>
<path d="M147 132.6H139V154.91H147V132.6Z" fill="#DCDDDD"/>
<path d="M70.0447 54.5508L63.7129 57.8288L80.0059 89.3015L86.3378 86.0236L70.0447 54.5508Z" fill="#DCDDDD"/>
<path d="M171.699 122.16H163.699V154.91H171.699V122.16Z" fill="#DCDDDD"/>
<path d="M111.221 145.01L108.991 144.99L106.971 145.01V144.46C107.121 144.46 107.281 144.47 107.451 144.48C107.621 144.48 107.811 144.49 108.021 144.5C108.231 144.5 108.411 144.5 108.561 144.51C108.711 144.51 108.851 144.51 108.951 144.51H109.161C109.601 144.51 109.981 144.51 110.301 144.51C110.621 144.51 110.931 144.49 111.221 144.48V145.02V145.01ZM110.751 147.06C110.751 147.48 110.591 147.82 110.261 148.08C109.971 148.32 109.601 148.43 109.181 148.43C108.681 148.43 108.271 148.3 107.961 148.05C107.651 147.79 107.501 147.43 107.501 146.98C107.501 146.53 107.671 146.16 108.011 145.92C108.301 145.71 108.671 145.61 109.101 145.61C109.581 145.61 109.971 145.73 110.271 145.96C110.591 146.22 110.761 146.58 110.761 147.06H110.751ZM110.211 147.02C110.211 146.73 110.121 146.51 109.951 146.35C109.751 146.17 109.471 146.08 109.111 146.08C108.751 146.08 108.471 146.18 108.281 146.39C108.111 146.57 108.021 146.77 108.021 147.01C108.021 147.27 108.131 147.49 108.341 147.69C108.551 147.88 108.811 147.98 109.121 147.98C109.451 147.98 109.731 147.88 109.941 147.67C110.121 147.47 110.211 147.26 110.211 147.03V147.02ZM110.011 143.87L109.071 143.85L108.141 143.87V143.39C108.251 143.39 108.401 143.4 108.571 143.41C108.741 143.41 108.901 143.41 109.041 143.41C109.161 143.41 109.301 143.41 109.471 143.41C109.641 143.41 109.821 143.41 110.011 143.39V143.87ZM113.401 146.66H112.311V149.93H111.771C111.771 149.82 111.781 149.58 111.791 149.19C111.801 148.8 111.801 148.23 111.801 147.47V142.75H111.871C112.031 142.75 112.151 142.75 112.251 142.78C112.351 142.8 112.401 142.84 112.401 142.9C112.401 142.93 112.391 142.98 112.371 143.05C112.351 143.12 112.341 143.17 112.341 143.2V146.13H113.411V146.66H113.401Z" fill="#595757"/>
<path d="M118.679 147.41L118.639 147.39C118.639 147.39 118.549 147.37 118.519 147.37C118.359 147.37 118.099 147.39 117.749 147.42C117.679 147.43 117.559 147.45 117.389 147.46C117.219 147.47 117.009 147.5 116.739 147.54C116.589 147.56 116.399 147.58 116.169 147.61C115.929 147.63 115.649 147.66 115.319 147.69C115.219 147.7 115.109 147.71 114.979 147.72C114.849 147.73 114.709 147.74 114.549 147.75V144.09L114.529 143.69C114.619 143.69 114.739 143.71 114.889 143.74C115.049 143.78 115.129 143.84 115.129 143.9C115.129 143.93 115.129 143.98 115.099 144.04C115.079 144.1 115.069 144.14 115.069 144.16V147.19C115.279 147.19 115.509 147.18 115.769 147.17C116.019 147.17 116.339 147.13 116.729 147.09C117.119 147.05 117.479 147.01 117.789 146.97C118.099 146.93 118.339 146.91 118.499 146.91C118.539 146.91 118.579 146.91 118.629 146.93C118.629 146.93 118.659 146.93 118.679 146.95V147.39V147.41ZM120.799 146.71H119.699V149.86L119.169 149.88L119.189 143.35C119.189 143.15 119.189 143.01 119.189 142.92C119.189 142.84 119.179 142.78 119.169 142.75C119.299 142.75 119.429 142.75 119.569 142.77C119.709 142.79 119.779 142.82 119.779 142.87C119.779 142.89 119.779 142.93 119.749 143C119.729 143.06 119.719 143.11 119.719 143.14V146.2L120.819 146.18V146.7L120.799 146.71Z" fill="#595757"/>
<path d="M127.989 146.95L124.879 146.93L121.689 146.95V146.4C121.789 146.4 121.939 146.4 122.139 146.41C122.339 146.41 122.589 146.41 122.889 146.41C123.189 146.41 123.509 146.41 123.839 146.41H125.539C127.099 146.39 127.919 146.39 127.999 146.39V146.94L127.989 146.95ZM127.249 144.44C127.249 144.88 127.019 145.22 126.569 145.46C126.359 145.57 126.119 145.65 125.849 145.71C125.569 145.76 125.269 145.79 124.919 145.79C124.569 145.79 124.289 145.77 124.009 145.72C123.739 145.68 123.479 145.6 123.259 145.5C122.709 145.26 122.439 144.91 122.439 144.44C122.439 143.97 122.699 143.62 123.209 143.39C123.639 143.2 124.189 143.1 124.869 143.1C125.549 143.1 126.089 143.2 126.509 143.41C126.999 143.66 127.239 144 127.239 144.43L127.249 144.44ZM127.259 149.6L125.029 149.58L122.609 149.6V147.46H122.729C122.899 147.46 123.029 147.46 123.119 147.48C123.209 147.5 123.249 147.52 123.249 147.56C123.249 147.56 123.229 147.62 123.209 147.71C123.189 147.8 123.169 147.87 123.169 147.91V149.08H125.149H126.469C126.609 149.08 126.749 149.08 126.879 149.07C127.009 149.07 127.139 149.07 127.269 149.06V149.6H127.259ZM126.729 144.44C126.729 144.29 126.689 144.16 126.589 144.06C126.499 143.95 126.369 143.87 126.199 143.8C126.029 143.73 125.829 143.68 125.589 143.65C125.349 143.62 125.089 143.6 124.799 143.6C124.219 143.6 123.769 143.67 123.439 143.81C123.109 143.95 122.949 144.16 122.949 144.45C122.949 144.75 123.159 144.97 123.569 145.11C123.909 145.24 124.349 145.3 124.879 145.3C125.409 145.3 125.839 145.23 126.179 145.09C126.539 144.95 126.719 144.73 126.719 144.44H126.729Z" fill="#595757"/>
<path d="M132.591 144.52L130.981 144.48L129.211 144.5V144.02C129.331 144.02 129.471 144.03 129.621 144.04C129.761 144.04 129.921 144.05 130.071 144.06C130.231 144.06 130.371 144.06 130.501 144.06H131.571C131.741 144.06 131.881 144.06 131.991 144.06C132.101 144.06 132.211 144.06 132.311 144.05C132.411 144.04 132.501 144.05 132.591 144.03V144.53V144.52ZM132.391 145.97C132.391 146.35 132.271 146.64 132.011 146.83C131.761 147.02 131.421 147.11 131.001 147.11C130.581 147.11 130.231 147.02 129.981 146.83C129.711 146.63 129.571 146.35 129.571 145.97C129.571 145.56 129.701 145.26 129.961 145.06C130.221 144.86 130.571 144.76 130.991 144.76C131.411 144.76 131.741 144.86 131.991 145.06C132.241 145.26 132.371 145.56 132.371 145.96L132.391 145.97ZM131.931 145.97C131.931 145.66 131.811 145.45 131.561 145.34C131.421 145.28 131.231 145.24 131.001 145.24C130.351 145.24 130.031 145.48 130.031 145.97C130.031 146.46 130.351 146.67 130.991 146.67C131.221 146.67 131.411 146.64 131.551 146.58C131.801 146.47 131.931 146.27 131.931 145.97ZM131.821 143.69L131.001 143.67L130.081 143.69V143.2C130.081 143.2 130.151 143.2 130.221 143.2C130.291 143.2 130.381 143.2 130.501 143.21C130.611 143.21 130.711 143.21 130.801 143.22C130.891 143.22 130.961 143.22 131.011 143.22C131.141 143.22 131.281 143.22 131.431 143.22C131.571 143.22 131.711 143.21 131.821 143.2V143.69ZM135.031 148.71C135.031 149.09 134.821 149.4 134.391 149.61C133.961 149.83 133.411 149.94 132.741 149.94C132.271 149.94 131.841 149.88 131.451 149.76C130.791 149.55 130.461 149.2 130.461 148.71C130.461 148.33 130.671 148.02 131.091 147.8C131.521 147.58 132.061 147.47 132.731 147.47C133.211 147.47 133.641 147.53 134.011 147.65C134.681 147.85 135.021 148.21 135.021 148.71H135.031ZM134.481 148.71C134.481 148.48 134.311 148.3 133.981 148.16C133.661 148.03 133.241 147.97 132.741 147.97C132.481 147.97 132.241 147.99 132.031 148.02C131.821 148.05 131.641 148.1 131.491 148.16C131.341 148.22 131.221 148.3 131.141 148.39C131.061 148.48 131.021 148.59 131.021 148.71C131.021 148.83 131.061 148.94 131.141 149.03C131.221 149.12 131.341 149.2 131.491 149.26C131.641 149.32 131.821 149.37 132.031 149.4C132.241 149.43 132.481 149.44 132.741 149.44C132.951 149.44 133.131 149.44 133.291 149.42C133.461 149.41 133.601 149.38 133.731 149.35C134.231 149.23 134.471 149.01 134.471 148.7L134.481 148.71ZM135.031 142.91C135.031 142.91 135.031 142.97 135.011 143.02C135.001 143.07 134.991 143.1 134.991 143.12V147.5L134.471 147.53L134.491 145.63H133.581V147.29L133.071 147.32L133.091 144.38V143.74C133.091 143.57 133.091 143.45 133.091 143.37C133.091 143.29 133.091 143.21 133.091 143.13C133.091 143.06 133.091 142.99 133.081 142.93H133.281C133.391 142.93 133.481 142.93 133.551 142.95C133.611 142.97 133.651 143 133.651 143.06C133.651 143.08 133.651 143.11 133.631 143.17C133.611 143.23 133.611 143.28 133.611 143.32V145.13H134.521V143.91L134.491 142.76H134.561C134.711 142.76 134.831 142.76 134.921 142.78C135.011 142.8 135.061 142.84 135.061 142.9L135.031 142.91Z" fill="#595757"/>
<path d="M157.27 146.91C157.07 146.9 156.85 146.89 156.61 146.89C156.37 146.89 156.14 146.89 155.92 146.89C155.66 146.89 155.39 146.89 155.12 146.89C154.85 146.89 154.59 146.9 154.35 146.91V148.18C154.35 148.54 154.35 148.86 154.35 149.14C154.35 149.42 154.36 149.7 154.38 149.98H153.79L153.81 148.08V146.89L150.85 146.94V146.41L154.07 146.43C154.36 146.43 154.67 146.43 155.01 146.43C155.35 146.43 155.72 146.42 156.12 146.41C156.41 146.4 156.79 146.38 157.25 146.36V146.92L157.27 146.91ZM156.51 144.33C156.51 144.75 156.28 145.08 155.82 145.31C155.39 145.53 154.82 145.64 154.12 145.64C153.48 145.64 152.95 145.56 152.52 145.4C151.92 145.16 151.62 144.81 151.62 144.33C151.62 143.85 151.88 143.47 152.4 143.25C152.81 143.07 153.37 142.99 154.07 142.99C154.42 142.99 154.74 143.02 155.02 143.07C155.3 143.12 155.55 143.2 155.77 143.31C156.27 143.55 156.51 143.9 156.51 144.35V144.33ZM155.97 144.31C155.97 144.01 155.79 143.8 155.44 143.66C155.09 143.52 154.64 143.44 154.09 143.44C153.45 143.44 152.97 143.51 152.64 143.65C152.31 143.79 152.15 143.99 152.15 144.24C152.15 144.59 152.39 144.83 152.86 144.98C153.17 145.08 153.58 145.12 154.08 145.12C154.65 145.12 155.09 145.06 155.4 144.95C155.77 144.81 155.96 144.59 155.96 144.29L155.97 144.31Z" fill="#595757"/>
<path d="M162.881 148.23C162.781 148.26 162.691 148.28 162.601 148.29C162.511 148.31 162.431 148.32 162.361 148.33C162.131 148.37 161.901 148.39 161.671 148.41C161.441 148.43 161.201 148.43 160.961 148.43C160.691 148.43 160.421 148.43 160.141 148.45C159.861 148.46 159.591 148.48 159.301 148.5C159.201 148.5 159.091 148.51 158.971 148.52C158.841 148.53 158.711 148.55 158.561 148.57L158.581 147.35L158.561 145.73H160.021H160.741C160.831 145.73 160.911 145.73 161.001 145.72C161.081 145.72 161.171 145.72 161.251 145.7V144.93V144.1H160.071C159.701 144.1 159.391 144.1 159.161 144.1C158.921 144.1 158.731 144.11 158.561 144.12V143.6C158.831 143.61 159.111 143.62 159.421 143.62C159.731 143.62 160.031 143.62 160.311 143.62L161.771 143.6V144.96V146.17C161.681 146.17 161.571 146.17 161.451 146.17C161.331 146.17 161.191 146.17 161.031 146.17H159.761C159.641 146.17 159.541 146.17 159.461 146.17C159.311 146.17 159.191 146.17 159.091 146.19V147.97H159.381C159.381 147.97 159.441 147.97 159.531 147.97C159.631 147.97 159.781 147.96 159.981 147.95C160.181 147.94 160.351 147.93 160.491 147.93C160.641 147.93 160.761 147.93 160.851 147.93C161.121 147.93 161.381 147.93 161.631 147.9C161.881 147.88 162.111 147.85 162.331 147.82C162.411 147.81 162.491 147.79 162.581 147.78C162.671 147.76 162.761 147.74 162.861 147.71L162.891 148.2L162.881 148.23ZM163.991 142.91C163.991 142.91 163.991 142.97 163.971 143.04C163.951 143.11 163.951 143.17 163.951 143.23V146.32V149.86H163.411V149.43C163.411 149.25 163.411 149.05 163.411 148.81C163.411 148.57 163.411 148.33 163.411 148.09C163.411 147.85 163.411 147.6 163.411 147.34C163.411 147.08 163.411 146.88 163.421 146.73C163.421 146.58 163.421 146.48 163.421 146.44C163.421 145.39 163.421 144.64 163.401 144.19C163.401 143.97 163.401 143.73 163.401 143.5C163.401 143.26 163.401 143.02 163.391 142.76H163.491C163.621 142.76 163.731 142.76 163.831 142.79C163.931 142.82 163.981 142.85 163.981 142.91H163.991Z" fill="#595757"/>
<path d="M171.95 146.95L168.84 146.93L165.65 146.95V146.4C165.75 146.4 165.9 146.4 166.1 146.41C166.3 146.41 166.55 146.41 166.85 146.41C167.15 146.41 167.47 146.41 167.8 146.41H169.5C171.06 146.39 171.88 146.39 171.96 146.39V146.94L171.95 146.95ZM171.21 144.44C171.21 144.88 170.98 145.22 170.53 145.46C170.32 145.57 170.08 145.65 169.81 145.71C169.54 145.76 169.23 145.79 168.88 145.79C168.53 145.79 168.25 145.77 167.97 145.72C167.69 145.68 167.44 145.6 167.22 145.5C166.67 145.26 166.4 144.91 166.4 144.44C166.4 143.97 166.66 143.62 167.17 143.39C167.6 143.2 168.15 143.1 168.83 143.1C169.51 143.1 170.05 143.2 170.47 143.41C170.96 143.66 171.2 144 171.2 144.43L171.21 144.44ZM171.23 149.6L169 149.58L166.58 149.6V147.46H166.7C166.87 147.46 167 147.46 167.09 147.48C167.18 147.5 167.22 147.52 167.22 147.56C167.22 147.56 167.21 147.62 167.18 147.71C167.16 147.8 167.14 147.87 167.14 147.91V149.08H169.12H170.44C170.58 149.08 170.72 149.08 170.85 149.07C170.98 149.07 171.11 149.07 171.24 149.06V149.6H171.23ZM170.7 144.44C170.7 144.29 170.65 144.16 170.56 144.06C170.47 143.95 170.34 143.87 170.17 143.8C170 143.73 169.8 143.68 169.56 143.65C169.32 143.62 169.06 143.6 168.77 143.6C168.19 143.6 167.74 143.67 167.41 143.81C167.08 143.95 166.92 144.16 166.92 144.45C166.92 144.75 167.13 144.97 167.55 145.11C167.89 145.24 168.33 145.3 168.86 145.3C169.39 145.3 169.82 145.23 170.16 145.09C170.52 144.95 170.7 144.73 170.7 144.44Z" fill="#595757"/>
<path d="M176.54 144.52L174.94 144.48L173.17 144.5V144.02C173.29 144.02 173.43 144.03 173.58 144.04C173.72 144.04 173.87 144.05 174.03 144.06C174.19 144.06 174.33 144.06 174.46 144.06H175.53C175.7 144.06 175.84 144.06 175.95 144.06C176.06 144.06 176.17 144.06 176.27 144.05C176.37 144.04 176.46 144.05 176.55 144.03V144.53L176.54 144.52ZM176.34 145.97C176.34 146.35 176.21 146.64 175.96 146.83C175.71 147.02 175.37 147.11 174.95 147.11C174.53 147.11 174.18 147.02 173.93 146.83C173.65 146.63 173.52 146.35 173.52 145.97C173.52 145.56 173.65 145.26 173.91 145.06C174.17 144.86 174.52 144.76 174.94 144.76C175.36 144.76 175.69 144.86 175.94 145.06C176.19 145.26 176.32 145.56 176.32 145.96L176.34 145.97ZM175.88 145.97C175.88 145.66 175.76 145.45 175.51 145.34C175.37 145.28 175.18 145.24 174.95 145.24C174.3 145.24 173.98 145.48 173.98 145.97C173.98 146.46 174.3 146.67 174.94 146.67C175.18 146.67 175.36 146.64 175.5 146.58C175.75 146.47 175.88 146.27 175.88 145.97ZM175.77 143.69L174.95 143.67L174.03 143.69V143.2C174.03 143.2 174.1 143.2 174.17 143.2C174.24 143.2 174.33 143.2 174.45 143.21C174.56 143.21 174.66 143.21 174.75 143.22C174.84 143.22 174.91 143.22 174.96 143.22C175.09 143.22 175.23 143.22 175.38 143.22C175.52 143.22 175.66 143.21 175.77 143.2V143.69ZM178.98 148.71C178.98 149.09 178.77 149.4 178.34 149.61C177.91 149.83 177.36 149.94 176.69 149.94C176.22 149.94 175.8 149.88 175.4 149.76C174.74 149.55 174.41 149.2 174.41 148.71C174.41 148.33 174.62 148.02 175.04 147.8C175.47 147.58 176.01 147.47 176.68 147.47C177.16 147.47 177.59 147.53 177.96 147.65C178.63 147.85 178.97 148.21 178.97 148.71H178.98ZM178.43 148.71C178.43 148.48 178.26 148.3 177.93 148.16C177.61 148.03 177.19 147.97 176.69 147.97C176.43 147.97 176.19 147.99 175.98 148.02C175.77 148.05 175.59 148.1 175.44 148.16C175.29 148.22 175.17 148.3 175.09 148.39C175.01 148.48 174.97 148.59 174.97 148.71C174.97 148.83 175.01 148.94 175.09 149.03C175.17 149.12 175.29 149.2 175.44 149.26C175.59 149.32 175.77 149.37 175.98 149.4C176.19 149.43 176.43 149.44 176.69 149.44C176.9 149.44 177.08 149.44 177.25 149.42C177.41 149.41 177.56 149.38 177.69 149.35C178.19 149.23 178.43 149.01 178.43 148.7V148.71ZM178.98 142.91C178.98 142.91 178.98 142.97 178.96 143.02C178.95 143.07 178.94 143.1 178.94 143.12V147.5L178.42 147.53L178.44 145.63H177.53L177.55 147.29L177.03 147.32L177.05 144.38V143.74C177.05 143.57 177.05 143.45 177.05 143.37C177.05 143.29 177.05 143.21 177.05 143.13C177.05 143.06 177.05 142.99 177.04 142.93H177.24C177.35 142.93 177.44 142.93 177.5 142.95C177.56 142.97 177.6 143 177.6 143.06C177.6 143.08 177.6 143.11 177.58 143.17C177.57 143.23 177.56 143.28 177.56 143.32V145.13H178.47V143.91L178.44 142.76H178.51C178.66 142.76 178.78 142.76 178.87 142.78C178.96 142.8 179.01 142.84 179.01 142.9L178.98 142.91Z" fill="#595757"/>
<path d="M94.5603 73.1992H86.3203V81.4392H94.5603V73.1992Z" stroke="#231815"/>
<path d="M101.95 74.5407V75.3007C101.77 75.1207 101.55 74.9607 101.31 74.8307C100.93 74.6307 100.56 74.5307 100.18 74.5307C99.5997 74.5307 99.0897 74.7807 98.6697 75.2707C98.4597 75.5207 98.2997 75.7807 98.1997 76.0707C98.0997 76.3607 98.0497 76.6707 98.0497 77.0007C98.0497 77.6807 98.2597 78.2607 98.6797 78.7407C99.0897 79.2307 99.5997 79.4707 100.2 79.4707C100.48 79.4707 100.77 79.4107 101.06 79.3007C101.35 79.1907 101.65 79.0107 101.96 78.7807V79.5107C101.29 79.8707 100.68 80.0507 100.14 80.0507C99.4297 80.0507 98.8197 79.7807 98.2897 79.2307C97.7197 78.6407 97.4297 77.9107 97.4297 77.0307C97.4297 76.1507 97.6997 75.4507 98.2297 74.8607C98.7697 74.2607 99.4397 73.9707 100.23 73.9707C100.54 73.9707 100.84 74.0207 101.12 74.1107C101.41 74.2107 101.68 74.3507 101.96 74.5307L101.95 74.5407Z" fill="#231815"/>
<path d="M104.721 74.0801H105.301L107.491 79.9601H106.801L106.091 77.9501H103.851L103.111 79.9601H102.461L104.711 74.0801H104.721ZM105.931 77.4401L105.021 74.7901L104.041 77.4401H105.931Z" fill="#231815"/>
<path d="M108.119 74.0801H111.779V74.6001H108.709V76.7801H111.649V77.2601H108.709V79.9601H108.119V74.0801Z" fill="#231815"/>
<path d="M112.42 74.0703H116.08V74.5903H113.01V76.6203H115.97V77.1403H113.01V79.4403H116.1V79.9603H112.41V74.0703H112.42Z" fill="#231815"/>
<path d="M119.199 74.0801H121.219C121.729 74.0801 122.129 74.1801 122.419 74.3901C122.769 74.6401 122.939 74.9901 122.939 75.4401C122.939 75.8201 122.819 76.1401 122.569 76.4001C122.499 76.4801 122.409 76.5501 122.309 76.6201C122.209 76.6901 122.089 76.7501 121.959 76.8101C122.469 76.9001 122.849 77.1001 123.079 77.4201C123.259 77.6701 123.339 77.9401 123.339 78.2501C123.339 78.7501 123.149 79.1601 122.779 79.4901C122.419 79.8201 121.979 79.9801 121.469 79.9801H119.199V74.1001V74.0801ZM121.179 74.6001H119.789V76.6201H120.909C121.359 76.6201 121.699 76.5201 121.949 76.3201C122.199 76.1201 122.309 75.8601 122.309 75.5401C122.309 75.2901 122.229 75.0701 122.059 74.8901C121.849 74.7001 121.559 74.6001 121.189 74.6001H121.179ZM121.069 77.1401H119.789V79.4501H121.219C121.649 79.4501 121.999 79.3401 122.279 79.1301C122.559 78.9001 122.689 78.6101 122.689 78.2501C122.689 77.8901 122.549 77.6101 122.269 77.4201C121.989 77.2301 121.589 77.1301 121.069 77.1301V77.1401Z" fill="#231815"/>
<path d="M124.039 74.0801H125.989C126.509 74.0801 126.939 74.1701 127.279 74.3401C127.749 74.5801 127.989 74.9801 127.989 75.5401C127.989 75.9301 127.879 76.2401 127.669 76.4901C127.449 76.7401 127.109 76.9301 126.629 77.0801C126.719 77.1201 126.789 77.1501 126.859 77.1801C126.929 77.2101 126.979 77.2501 127.019 77.2901C127.199 77.4401 127.329 77.6601 127.429 77.9501L128.179 79.9801H127.509L127.119 78.7501C126.909 78.1301 126.699 77.7301 126.469 77.5401C126.269 77.3601 125.949 77.2701 125.499 77.2701H124.629V79.9801H124.039V74.1001V74.0801ZM126.099 74.6001H124.639V76.7901H125.539C125.899 76.7901 126.199 76.7601 126.449 76.6901C126.699 76.6201 126.899 76.5101 127.049 76.3601C127.149 76.2701 127.239 76.1501 127.309 76.0101C127.379 75.8701 127.409 75.7301 127.409 75.5801C127.409 75.3001 127.299 75.0801 127.069 74.9001C126.819 74.7001 126.499 74.6001 126.089 74.6001H126.099Z" fill="#231815"/>
<path d="M131.409 80.0607C130.729 80.0607 130.129 79.7907 129.619 79.2607C129.059 78.6807 128.779 77.9407 128.779 77.0307C128.779 76.1207 129.039 75.4207 129.569 74.8207C130.079 74.2507 130.689 73.9707 131.389 73.9707C132.089 73.9707 132.709 74.2507 133.219 74.8007C133.749 75.3907 134.009 76.1207 134.009 77.0107C134.009 77.9007 133.719 78.6907 133.149 79.2607C132.639 79.7807 132.059 80.0407 131.409 80.0407V80.0607ZM131.369 79.5007C131.929 79.5007 132.399 79.2707 132.789 78.8007C133.189 78.3207 133.379 77.7307 133.379 77.0207C133.379 76.6707 133.329 76.3507 133.239 76.0607C133.149 75.7607 132.999 75.5007 132.809 75.2607C132.429 74.7707 131.959 74.5307 131.399 74.5307C130.839 74.5307 130.369 74.7707 129.989 75.2607C129.609 75.7407 129.419 76.3307 129.419 77.0407C129.419 77.7507 129.619 78.3807 130.019 78.8507C130.399 79.2907 130.849 79.5007 131.369 79.5007Z" fill="#231815"/>
<path d="M134.68 79.9601V74.0801H135.22L138.84 79.0601V74.0801H139.38V79.9601H138.84L135.22 74.9801V79.9601H134.68Z" fill="#231815"/>
<path d="M140.221 74.0801H144.391V74.5801L140.751 79.4501H144.631V79.9701H139.891V79.6301L143.621 74.6001H140.231V74.0801H140.221Z" fill="#231815"/>
<path d="M145.01 74.0703H148.67V74.5903H145.6V76.6203H148.56V77.1403H145.6V79.4403H148.69V79.9603H145V74.0703H145.01Z" fill="#231815"/>
<path d="M90.0605 94.1309H90.6606V97.0509H93.9706V94.1309H94.5705V100.821H93.9706V97.6109H90.6606V100.821H90.0605V94.1309Z" fill="#231815"/>
<path d="M95.5605 94.1309H96.1606V100.821H95.5605V94.1309Z" fill="#231815"/>
<path d="M99.4609 94.1309H101.391C101.941 94.1309 102.401 94.2409 102.751 94.4509C103.231 94.7509 103.461 95.2209 103.461 95.8709C103.461 96.5209 103.261 96.9809 102.871 97.3209C102.511 97.6409 102.051 97.8009 101.491 97.8009H100.071V100.831H99.4609V94.1409V94.1309ZM101.381 94.7209H100.071V97.2009H101.431C101.791 97.2009 102.101 97.1009 102.361 96.8809C102.651 96.6409 102.801 96.3209 102.801 95.9209C102.801 95.4609 102.631 95.1409 102.291 94.9409C102.041 94.7909 101.741 94.7209 101.391 94.7209H101.381Z" fill="#231815"/>
<path d="M106.281 94.1309H106.871L109.111 100.821H108.401L107.681 98.5309H105.391L104.641 100.821H103.971L106.271 94.1309H106.281ZM107.521 97.9409L106.591 94.9309L105.581 97.9409H107.521Z" fill="#231815"/>
<path d="M109.73 94.1309H111.72C112.25 94.1309 112.69 94.2309 113.04 94.4209C113.53 94.6909 113.77 95.1509 113.77 95.7909C113.77 96.2309 113.66 96.5909 113.44 96.8709C113.22 97.1509 112.87 97.3709 112.38 97.5409C112.47 97.5809 112.54 97.6209 112.61 97.6609C112.68 97.7009 112.73 97.7409 112.77 97.7809C112.95 97.9509 113.09 98.2009 113.19 98.5309L113.96 100.831H113.28L112.88 99.4309C112.67 98.7309 112.45 98.2709 112.22 98.0609C112.02 97.8609 111.69 97.7509 111.23 97.7509H110.34V100.831H109.73V94.1409V94.1309ZM111.83 94.7209H110.33V97.2109H111.25C111.62 97.2109 111.93 97.1709 112.18 97.0909C112.43 97.0109 112.64 96.8909 112.8 96.7209C112.91 96.6109 113 96.4809 113.07 96.3209C113.14 96.1609 113.17 96.0009 113.17 95.8309C113.17 95.5209 113.05 95.2609 112.82 95.0509C112.57 94.8209 112.24 94.7109 111.82 94.7109L111.83 94.7209Z" fill="#231815"/>
<path d="M114.59 94.1309H115.2V97.4809L118.14 94.1309H118.95L116.59 96.7709L119.13 100.821H118.34L116.11 97.2809L115.2 98.2909V100.821H114.59V94.1309Z" fill="#231815"/>
<path d="M119.73 94.1309H120.33V100.821H119.73V94.1309Z" fill="#231815"/>
<path d="M121.24 100.821V94.1309H121.79L125.49 99.8009V94.1309H126.04V100.821H125.49L121.79 95.1609V100.821H121.24Z" fill="#231815"/>
<path d="M131.4 94.6393V95.5293C131.12 95.2493 130.85 95.0393 130.59 94.9093C130.28 94.7393 129.97 94.6493 129.64 94.6493C128.99 94.6493 128.45 94.9493 128.02 95.5493C127.61 96.0993 127.4 96.7493 127.4 97.5093C127.4 98.2693 127.62 98.9593 128.06 99.5193C128.47 100.039 128.94 100.299 129.47 100.299C129.89 100.299 130.23 100.149 130.51 99.8593C130.82 99.5393 130.97 99.1093 130.97 98.5793V98.0693H128.99V97.4793H131.59V100.829H131.06L130.98 100.019C130.8 100.269 130.61 100.469 130.4 100.609C130.08 100.829 129.73 100.939 129.36 100.939C128.67 100.939 128.07 100.609 127.56 99.9593C127.03 99.2993 126.77 98.4893 126.77 97.5393C126.77 96.5893 127.04 95.7293 127.59 95.0493C128.14 94.3693 128.82 94.0293 129.64 94.0293C130 94.0293 130.35 94.0993 130.69 94.2493C130.87 94.3193 131.11 94.4593 131.4 94.6493V94.6393Z" fill="#231815"/>
<path d="M87.1309 107.789H91.8909V108.969H87.1309V107.789ZM91.5909 111.559C91.5909 112.659 90.8609 113.769 89.4209 113.769C87.9809 113.769 87.3209 112.659 87.3209 111.559C87.3209 110.459 88.0109 109.359 89.4209 109.359C90.8309 109.359 91.5909 110.449 91.5909 111.559ZM88.3309 106.099H90.9309V107.279H88.3309V106.099ZM88.6809 111.559C88.6809 112.099 88.9409 112.629 89.4609 112.629C89.9809 112.629 90.2309 112.099 90.2309 111.559C90.2309 111.049 89.9709 110.489 89.4609 110.489C88.9509 110.489 88.6809 111.049 88.6809 111.559ZM95.3409 105.789C95.8609 105.789 95.9909 105.829 95.9909 105.939C95.9909 106.049 95.8709 106.219 95.8709 106.479V115.159H94.4509V111.049H93.7309V114.799H92.3409V105.969H93.3009C93.7609 105.969 93.8909 105.999 93.8909 106.089C93.8909 106.189 93.7309 106.359 93.7309 106.629V109.839H94.4509V105.799H95.3409V105.789Z" fill="#231815"/>
<path d="M102.431 108.409C102.431 109.659 101.631 110.769 99.8309 110.769C98.0309 110.769 97.2109 109.699 97.2109 108.409C97.2109 107.119 98.0309 106.029 99.8309 106.029C101.631 106.029 102.431 107.159 102.431 108.409ZM105.591 113.359C105.591 114.359 104.431 115.279 101.871 115.279C99.3109 115.279 98.1109 114.359 98.1109 113.359C98.1109 112.359 99.2709 111.469 101.871 111.469C104.471 111.469 105.591 112.369 105.591 113.359ZM98.6609 108.409C98.6609 109.129 99.0209 109.599 99.8309 109.599C100.641 109.599 101.001 109.129 101.001 108.409C101.001 107.689 100.641 107.229 99.8309 107.229C99.0209 107.229 98.6609 107.719 98.6609 108.409ZM99.6009 113.369C99.6009 113.869 100.271 114.259 101.871 114.259C103.471 114.259 104.101 113.869 104.101 113.369C104.101 112.899 103.441 112.519 101.881 112.519C100.321 112.519 99.6009 112.899 99.6009 113.369ZM104.931 105.789C105.511 105.789 105.651 105.839 105.651 105.949C105.651 106.059 105.511 106.239 105.511 106.489V111.629H104.061V110.099H102.481V108.899H104.061V108.099H102.481V106.899H104.061V105.789H104.931Z" fill="#231815"/>
<path d="M107.17 112.829C107.83 112.839 108.8 112.829 109.63 112.759V111.879C108.76 111.729 107.92 111.289 107.92 110.329C107.92 109.099 109.3 108.699 110.37 108.699C111.44 108.699 112.83 109.099 112.83 110.329C112.83 111.299 111.97 111.749 111.08 111.879V112.709C111.87 112.669 113.02 112.589 113.54 112.529C113.62 112.859 113.7 113.279 113.76 113.589C112.08 113.719 110.11 113.829 108.43 113.949C107.96 113.969 107.74 114.079 107.6 114.079C107.51 114.079 107.45 114.029 107.38 113.859L107.17 112.829ZM107.33 107.389H113.37V108.499H107.33V107.389ZM108.91 105.939H111.98V107.039H108.91V105.939ZM109.35 110.329C109.35 110.729 109.65 111.009 110.37 111.009C111.09 111.009 111.39 110.729 111.39 110.329C111.39 109.909 111.1 109.639 110.37 109.639C109.64 109.639 109.35 109.909 109.35 110.329ZM114.93 105.789C115.5 105.789 115.63 105.819 115.63 105.919C115.63 106.009 115.51 106.179 115.51 106.449V115.159H114.06V105.789H114.93Z" fill="#231815"/>
<path d="M119.731 108.459C120.291 108.459 120.421 108.499 120.421 108.589C120.421 108.679 120.291 108.829 120.291 109.049V110.389C121.131 110.369 122.111 110.329 123.041 110.269C123.081 110.659 123.141 111.069 123.171 111.409C121.521 111.489 119.811 111.559 118.271 111.639C117.771 111.689 117.531 111.799 117.401 111.799C117.281 111.799 117.241 111.709 117.161 111.399L116.961 110.469C117.531 110.469 118.311 110.469 118.891 110.429V108.459H119.731ZM117.551 106.269H122.731C122.731 107.439 122.671 108.759 122.401 109.829C121.941 109.809 121.441 109.799 120.991 109.799C121.181 109.169 121.321 108.279 121.321 107.479H117.551V106.269ZM119.061 112.069C119.651 112.069 119.791 112.109 119.791 112.219C119.791 112.319 119.661 112.469 119.661 112.699V113.699H125.341V114.919H118.211V112.069H119.061ZM124.441 105.789C125.081 105.789 125.241 105.829 125.241 105.949C125.241 106.069 125.071 106.279 125.071 106.609V109.399H126.321V110.669H125.071V112.699H123.631V105.789H124.441Z" fill="#231815"/>
<path d="M127.549 106.269H132.729V107.509H130.889V107.709C130.889 108.249 131.789 109.489 133.239 109.779C132.939 110.089 132.619 110.539 132.369 110.959C131.339 110.539 130.469 109.809 130.189 109.199C129.949 109.809 129.049 110.599 127.909 111.079C127.689 110.769 127.209 110.299 126.869 110.009C128.379 109.779 129.499 108.389 129.499 107.699V107.509H127.549V106.269ZM128.129 111.469H135.509V115.149H134.059V114.929H129.569V115.149H128.129V111.469ZM129.569 112.569V113.829H134.059V112.569H129.569ZM134.849 105.789C135.519 105.789 135.679 105.829 135.679 105.949C135.679 106.069 135.509 106.279 135.509 106.629V110.909H134.059V108.999H132.459V107.819H134.059V105.789H134.849Z" fill="#231815"/>
<path d="M96.8694 122.76H106.219V123.97H102.259V127.16H100.829V123.97H96.8594V122.76H96.8694ZM97.6994 118.15H105.329V119.32H102.369C102.369 119.93 103.989 120.83 105.879 120.84C105.559 121.2 105.269 121.63 105.129 121.99C103.659 121.83 101.969 120.99 101.559 120.38C101.209 121 99.5994 121.89 98.0294 122.12C97.8694 121.8 97.5094 121.3 97.1694 120.99C98.8894 120.99 100.609 119.93 100.609 119.32H97.6994V118.15Z" fill="#231815"/>
<path d="M107.421 119.789H113.151V121.009H111.111C111.111 122.349 111.981 124.099 113.221 124.649C112.911 124.899 112.511 125.349 112.271 125.709C111.441 125.179 110.671 124.189 110.341 123.119C110.001 124.189 108.931 125.259 108.021 125.839C107.791 125.529 107.381 125.069 106.971 124.759C108.481 124.209 109.631 122.409 109.631 121.009H107.421V119.789ZM108.791 118.099H111.771V119.259H108.791V118.099ZM114.441 117.789C115.081 117.789 115.241 117.829 115.241 117.949C115.241 118.069 115.071 118.279 115.071 118.609V121.889H116.321V123.159H115.071V127.159H113.631V117.789H114.441Z" fill="#231815"/>
<path d="M117.549 118.269H122.729V119.509H120.889V119.709C120.889 120.249 121.789 121.489 123.239 121.779C122.939 122.089 122.619 122.539 122.369 122.959C121.339 122.539 120.469 121.809 120.189 121.199C119.949 121.809 119.049 122.599 117.909 123.079C117.689 122.769 117.209 122.299 116.869 122.009C118.379 121.779 119.499 120.389 119.499 119.699V119.509H117.549V118.269ZM125.239 125.339C125.239 126.359 124.079 127.279 121.559 127.279C119.039 127.279 117.849 126.359 117.849 125.339C117.849 124.319 119.019 123.469 121.559 123.469C124.099 123.469 125.239 124.369 125.239 125.339ZM119.329 125.359C119.329 125.869 120.009 126.259 121.559 126.259C123.109 126.259 123.749 125.869 123.749 125.359C123.749 124.899 123.089 124.519 121.569 124.519C120.049 124.519 119.329 124.899 119.329 125.359ZM124.299 117.789C125.039 117.789 125.219 117.829 125.219 117.969C125.219 118.089 125.069 118.289 125.069 118.609V120.279H126.319V121.559H125.069V123.629H123.629V117.789H124.299Z" fill="#231815"/>
</g>
</svg>
