<svg width="76" height="25" viewBox="0 0 76 25" fill="none" xmlns="http://www.w3.org/2000/svg">
<path d="M12.6572 4.68C12.5239 4.66667 12.4439 4.18 12.4172 3.22C12.4705 2.95333 12.5772 2.60667 12.7372 2.18C12.8972 1.74 13.1239 1.22667 13.4172 0.639999C13.4972 0.613333 13.5572 0.599999 13.5972 0.599999C13.8372 0.599999 13.9572 0.846666 13.9572 1.34C13.8239 1.55333 13.6905 1.77333 13.5572 2C13.4239 2.21333 13.2972 2.42667 13.1772 2.64C12.8172 3.33333 12.6439 4.01333 12.6572 4.68ZM7.03719 17.8C4.99719 17.8 3.41719 17.3133 2.29719 16.34C1.37719 15.5133 0.917188 14.46 0.917188 13.18C0.917188 11.74 1.51052 10.5667 2.69719 9.66C3.76385 8.83333 4.98385 8.41333 6.35719 8.4C7.50385 8.4 8.40385 8.69333 9.05719 9.28C9.63052 9.81333 9.91719 10.4667 9.91719 11.24C9.91719 12.0267 9.63719 12.7 9.07719 13.26C8.43719 13.8733 7.62385 14.18 6.63719 14.18C6.51719 14.18 6.45719 14.16 6.45719 14.12C6.45719 14.04 6.51719 13.9933 6.63719 13.98C7.06385 13.8867 7.44385 13.7533 7.77719 13.58C8.12385 13.4067 8.41719 13.18 8.65719 12.9C9.11052 12.4067 9.33719 11.8333 9.33719 11.18C9.33719 10.46 9.07719 9.87333 8.55719 9.42C8.02385 8.92667 7.31719 8.68 6.43719 8.68C5.23719 8.68 4.18385 9.07333 3.27719 9.86C2.29052 10.6867 1.79719 11.74 1.79719 13.02C1.79719 14.2733 2.17719 15.28 2.93719 16.04C3.81719 16.9733 5.13719 17.44 6.89719 17.44C8.61719 17.44 10.0572 16.9267 11.2172 15.9C12.4839 14.8067 13.1172 13.4267 13.1172 11.76C13.1172 10.5467 12.6505 9.39333 11.7172 8.3L9.53719 6.06C9.13719 5.64667 8.84385 5.24 8.65719 4.84C8.48385 4.42667 8.39719 4.03333 8.39719 3.66C8.39719 2.83333 8.71719 2.17333 9.35719 1.68C9.97052 1.18667 10.6839 0.94 11.4972 0.94C11.8172 0.94 12.1372 0.986666 12.4572 1.08C12.7772 1.17333 12.9372 1.28667 12.9372 1.42C12.9372 1.48667 12.8972 1.52 12.8172 1.52C12.7772 1.52 12.6172 1.46 12.3372 1.34C12.1105 1.24667 11.8772 1.2 11.6372 1.2C11.0372 1.2 10.5039 1.42 10.0372 1.86C9.58385 2.31333 9.35719 2.83333 9.35719 3.42C9.35719 4.08667 9.67052 4.75333 10.2972 5.42L12.3372 7.32C12.9905 7.92 13.4705 8.57333 13.7772 9.28C14.0972 9.97333 14.2572 10.7067 14.2572 11.48C14.2572 13.2667 13.4905 14.7867 11.9572 16.04C10.5172 17.2133 8.87719 17.8 7.03719 17.8ZM11.8572 11.24C11.7905 11.2667 11.7572 11.2267 11.7572 11.12C11.6639 10.4667 11.3972 9.8 10.9572 9.12C10.9305 9.32 10.8905 9.54667 10.8372 9.8C10.5839 9.84 10.3572 9.75333 10.1572 9.54C10.1305 9.5 10.0972 9.44 10.0572 9.36C10.0305 9.28 10.0172 9.18667 10.0172 9.08V8.94C10.0172 8.79333 10.0372 8.69333 10.0772 8.64C10.3572 8.84 10.5905 8.92 10.7772 8.88C10.4705 8.44 10.1172 8.04 9.71719 7.68C9.31719 7.30667 8.88385 6.97333 8.41719 6.68C7.44385 6.09333 6.58385 5.8 5.83719 5.8C5.03719 5.8 4.48385 6.13333 4.17719 6.8C4.32385 6.69333 4.47052 6.64 4.61719 6.64C4.77719 6.64 4.93052 6.68667 5.07719 6.78C5.34385 6.96667 5.47052 7.18 5.45719 7.42C5.28385 7.34 5.09719 7.3 4.89719 7.3C4.52385 7.3 4.25052 7.46 4.07719 7.78C3.93052 7.55333 3.85719 7.36 3.85719 7.2C3.85719 7 3.95052 6.75333 4.13719 6.46C4.52385 5.82 5.12385 5.5 5.93719 5.5C7.15052 5.5 8.40385 6.1 9.69719 7.3C10.3639 7.88667 10.9039 8.49333 11.3172 9.12C11.7305 9.73333 11.9372 10.3733 11.9372 11.04V11.1C11.9372 11.1667 11.9105 11.2133 11.8572 11.24ZM18.4622 15.16C17.9155 15.16 17.4422 15.0067 17.0422 14.7C16.6555 14.38 16.4622 13.9 16.4622 13.26C16.4622 12.5533 16.6955 11.8267 17.1622 11.08C17.4022 10.6933 17.6955 10.3867 18.0422 10.16C18.3889 9.92 18.6955 9.8 18.9622 9.8C19.3489 9.8 19.5422 10.0333 19.5422 10.5C19.5422 10.9 19.2755 11.3867 18.7422 11.96C18.2489 12.4667 17.7822 12.8133 17.3422 13C17.3289 13.0533 17.3155 13.1133 17.3022 13.18C17.3022 13.2333 17.3022 13.2933 17.3022 13.36C17.3022 14.2 17.8022 14.62 18.8022 14.62C19.3755 14.62 19.9089 14.4467 20.4022 14.1C20.9089 13.74 21.3489 13.3333 21.7222 12.88C21.7889 12.8 21.8489 12.76 21.9022 12.76C21.9555 12.76 21.9822 12.7867 21.9822 12.84C21.9822 12.8933 21.9555 12.9667 21.9022 13.06C21.8489 13.14 21.8089 13.1933 21.7822 13.22C21.5689 13.5133 21.3422 13.7733 21.1022 14C20.8755 14.2267 20.5689 14.4467 20.1822 14.66C19.9022 14.8333 19.6089 14.96 19.3022 15.04C19.0089 15.12 18.7289 15.16 18.4622 15.16ZM17.4222 12.58C17.5955 12.4867 17.7622 12.38 17.9222 12.26C18.0955 12.1267 18.2622 11.9733 18.4222 11.8C18.7822 11.3733 18.9622 11 18.9622 10.68C18.9622 10.48 18.9022 10.38 18.7822 10.38C18.6755 10.38 18.5355 10.4733 18.3622 10.66C18.2022 10.8333 18.0489 11.0533 17.9022 11.32C17.6489 11.84 17.4889 12.26 17.4222 12.58ZM21.9166 15.12C21.3699 15.12 21.0966 14.8533 21.0966 14.32C21.0966 13.8133 21.4632 13.1067 22.1966 12.2C22.8632 11.36 23.4432 10.78 23.9366 10.46C24.4299 10.14 24.8899 9.98 25.3166 9.98C25.8232 9.98 26.0766 10.1267 26.0766 10.42C26.0766 10.4867 26.0099 10.5867 25.8766 10.72C25.7432 10.84 25.6699 10.9133 25.6566 10.94C25.4032 11.3533 25.2766 12.1933 25.2766 13.46C25.2766 14.1933 25.4366 14.56 25.7566 14.56C26.0499 14.56 26.3899 14.3867 26.7766 14.04C27.1632 13.6933 27.5232 13.3067 27.8566 12.88C27.8966 12.84 27.9299 12.82 27.9566 12.82C28.0099 12.82 28.0366 12.8533 28.0366 12.92C28.0366 12.9467 28.0232 12.9933 27.9966 13.06C27.9832 13.1267 27.9632 13.18 27.9366 13.22C27.3899 13.9533 26.9166 14.4467 26.5166 14.7C26.1299 14.9533 25.7499 15.08 25.3766 15.08C24.7766 15.08 24.4832 14.44 24.4966 13.16C24.2432 13.6133 23.8766 14.04 23.3966 14.44C22.8366 14.8933 22.3432 15.12 21.9166 15.12ZM22.4566 14.58C22.6832 14.58 22.9232 14.4867 23.1766 14.3C23.9632 13.6733 24.4766 12.5 24.7166 10.78C24.6766 10.78 24.6499 10.7733 24.6366 10.76C24.3699 10.76 24.0166 10.92 23.5766 11.24C23.2032 11.4933 22.9032 11.7667 22.6766 12.06C22.1432 12.7533 21.8766 13.3533 21.8766 13.86C21.8766 14.34 22.0699 14.58 22.4566 14.58ZM27.7689 15.18C27.6756 15.18 27.5756 15.12 27.4689 15C27.3756 14.88 27.3289 14.7733 27.3289 14.68V14.62L27.5089 14.28C27.6156 13.9733 27.7222 13.6067 27.8289 13.18C27.9356 12.74 28.0356 12.24 28.1289 11.68C28.1422 11.5467 28.1622 11.4067 28.1889 11.26C28.2156 11.1 28.2422 10.92 28.2689 10.72C28.3356 10.4533 28.5422 10.32 28.8889 10.32C28.9956 10.32 29.0489 10.36 29.0489 10.44C29.0489 10.4667 29.0356 10.56 29.0089 10.72C28.9822 10.88 28.9422 11.1 28.8889 11.38C28.8356 11.6867 28.7689 12.02 28.6889 12.38C28.6222 12.74 28.5422 13.1267 28.4489 13.54L29.3889 11.96C29.8556 11.1733 30.2489 10.78 30.5689 10.78C30.7689 10.78 30.8756 10.9 30.8889 11.14C30.9289 11.7 30.9556 12.2533 30.9689 12.8C30.9956 13.3467 31.0689 13.8 31.1889 14.16C31.3222 14.52 31.5556 14.7 31.8889 14.7C32.1156 14.7 32.3356 14.6533 32.5489 14.56C32.7756 14.4667 33.0289 14.2933 33.3089 14.04C33.5889 13.7733 33.9222 13.3867 34.3089 12.88C34.3222 12.8533 34.3489 12.82 34.3889 12.78C34.4289 12.74 34.4756 12.72 34.5289 12.72C34.5822 12.72 34.6089 12.7467 34.6089 12.8C34.6089 12.8533 34.5756 12.9267 34.5089 13.02C34.4556 13.1133 34.4156 13.18 34.3889 13.22C34.0289 13.7533 33.6222 14.2 33.1689 14.56C32.7156 14.92 32.2889 15.1 31.8889 15.1C31.3022 15.1 30.8689 14.8067 30.5889 14.22C30.3222 13.62 30.1356 12.7733 30.0289 11.68C29.8156 11.9067 29.5622 12.2467 29.2689 12.7C28.9889 13.1533 28.6622 13.7333 28.2889 14.44C28.2622 14.5067 28.2222 14.5867 28.1689 14.68C28.1156 14.76 28.0556 14.8667 27.9889 15C27.9356 15.12 27.8622 15.18 27.7689 15.18ZM49.2392 4.68C49.1059 4.66667 49.0259 4.18 48.9992 3.22C49.0526 2.95333 49.1592 2.60667 49.3192 2.18C49.4792 1.74 49.7059 1.22667 49.9992 0.639999C50.0792 0.613333 50.1392 0.599999 50.1792 0.599999C50.4192 0.599999 50.5392 0.846666 50.5392 1.34C50.4059 1.55333 50.2726 1.77333 50.1392 2C50.0059 2.21333 49.8792 2.42667 49.7592 2.64C49.3992 3.33333 49.2259 4.01333 49.2392 4.68ZM43.6192 17.8C41.5792 17.8 39.9992 17.3133 38.8792 16.34C37.9592 15.5133 37.4992 14.46 37.4992 13.18C37.4992 11.74 38.0926 10.5667 39.2792 9.66C40.3459 8.83333 41.5659 8.41333 42.9392 8.4C44.0859 8.4 44.9859 8.69333 45.6392 9.28C46.2126 9.81333 46.4992 10.4667 46.4992 11.24C46.4992 12.0267 46.2192 12.7 45.6592 13.26C45.0192 13.8733 44.2059 14.18 43.2192 14.18C43.0992 14.18 43.0392 14.16 43.0392 14.12C43.0392 14.04 43.0992 13.9933 43.2192 13.98C43.6459 13.8867 44.0259 13.7533 44.3592 13.58C44.7059 13.4067 44.9992 13.18 45.2392 12.9C45.6926 12.4067 45.9192 11.8333 45.9192 11.18C45.9192 10.46 45.6592 9.87333 45.1392 9.42C44.6059 8.92667 43.8992 8.68 43.0192 8.68C41.8192 8.68 40.7659 9.07333 39.8592 9.86C38.8726 10.6867 38.3792 11.74 38.3792 13.02C38.3792 14.2733 38.7592 15.28 39.5192 16.04C40.3992 16.9733 41.7192 17.44 43.4792 17.44C45.1992 17.44 46.6392 16.9267 47.7992 15.9C49.0659 14.8067 49.6992 13.4267 49.6992 11.76C49.6992 10.5467 49.2326 9.39333 48.2992 8.3L46.1192 6.06C45.7192 5.64667 45.4259 5.24 45.2392 4.84C45.0659 4.42667 44.9792 4.03333 44.9792 3.66C44.9792 2.83333 45.2992 2.17333 45.9392 1.68C46.5526 1.18667 47.2659 0.94 48.0792 0.94C48.3992 0.94 48.7192 0.986666 49.0392 1.08C49.3592 1.17333 49.5192 1.28667 49.5192 1.42C49.5192 1.48667 49.4792 1.52 49.3992 1.52C49.3592 1.52 49.1992 1.46 48.9192 1.34C48.6926 1.24667 48.4592 1.2 48.2192 1.2C47.6192 1.2 47.0859 1.42 46.6192 1.86C46.1659 2.31333 45.9392 2.83333 45.9392 3.42C45.9392 4.08667 46.2526 4.75333 46.8792 5.42L48.9192 7.32C49.5726 7.92 50.0526 8.57333 50.3592 9.28C50.6792 9.97333 50.8392 10.7067 50.8392 11.48C50.8392 13.2667 50.0726 14.7867 48.5392 16.04C47.0992 17.2133 45.4592 17.8 43.6192 17.8ZM48.4392 11.24C48.3726 11.2667 48.3392 11.2267 48.3392 11.12C48.2459 10.4667 47.9792 9.8 47.5392 9.12C47.5126 9.32 47.4726 9.54667 47.4192 9.8C47.1659 9.84 46.9392 9.75333 46.7392 9.54C46.7126 9.5 46.6792 9.44 46.6392 9.36C46.6126 9.28 46.5992 9.18667 46.5992 9.08V8.94C46.5992 8.79333 46.6192 8.69333 46.6592 8.64C46.9392 8.84 47.1726 8.92 47.3592 8.88C47.0526 8.44 46.6992 8.04 46.2992 7.68C45.8992 7.30667 45.4659 6.97333 44.9992 6.68C44.0259 6.09333 43.1659 5.8 42.4192 5.8C41.6192 5.8 41.0659 6.13333 40.7592 6.8C40.9059 6.69333 41.0526 6.64 41.1992 6.64C41.3592 6.64 41.5126 6.68667 41.6592 6.78C41.9259 6.96667 42.0526 7.18 42.0392 7.42C41.8659 7.34 41.6792 7.3 41.4792 7.3C41.1059 7.3 40.8326 7.46 40.6592 7.78C40.5126 7.55333 40.4392 7.36 40.4392 7.2C40.4392 7 40.5326 6.75333 40.7192 6.46C41.1059 5.82 41.7059 5.5 42.5192 5.5C43.7326 5.5 44.9859 6.1 46.2792 7.3C46.9459 7.88667 47.4859 8.49333 47.8992 9.12C48.3126 9.73333 48.5192 10.3733 48.5192 11.04V11.1C48.5192 11.1667 48.4926 11.2133 48.4392 11.24ZM53.2642 15.12C52.7176 15.12 52.4442 14.8533 52.4442 14.32C52.4442 13.8133 52.8109 13.1067 53.5442 12.2C54.2109 11.36 54.7909 10.78 55.2842 10.46C55.7776 10.14 56.2376 9.98 56.6642 9.98C57.1709 9.98 57.4242 10.1267 57.4242 10.42C57.4242 10.4867 57.3576 10.5867 57.2242 10.72C57.0909 10.84 57.0176 10.9133 57.0042 10.94C56.7509 11.3533 56.6242 12.1933 56.6242 13.46C56.6242 14.1933 56.7842 14.56 57.1042 14.56C57.3976 14.56 57.7376 14.3867 58.1242 14.04C58.5109 13.6933 58.8709 13.3067 59.2042 12.88C59.2442 12.84 59.2776 12.82 59.3042 12.82C59.3576 12.82 59.3842 12.8533 59.3842 12.92C59.3842 12.9467 59.3709 12.9933 59.3442 13.06C59.3309 13.1267 59.3109 13.18 59.2842 13.22C58.7376 13.9533 58.2642 14.4467 57.8642 14.7C57.4776 14.9533 57.0976 15.08 56.7242 15.08C56.1242 15.08 55.8309 14.44 55.8442 13.16C55.5909 13.6133 55.2242 14.04 54.7442 14.44C54.1842 14.8933 53.6909 15.12 53.2642 15.12ZM53.8042 14.58C54.0309 14.58 54.2709 14.4867 54.5242 14.3C55.3109 13.6733 55.8242 12.5 56.0642 10.78C56.0242 10.78 55.9976 10.7733 55.9842 10.76C55.7176 10.76 55.3642 10.92 54.9242 11.24C54.5509 11.4933 54.2509 11.7667 54.0242 12.06C53.4909 12.7533 53.2242 13.3533 53.2242 13.86C53.2242 14.34 53.4176 14.58 53.8042 14.58ZM61.2166 15.24C59.8699 15.24 59.1966 14.2467 59.1966 12.26C59.1966 10.3133 59.8366 8.2 61.1166 5.92C62.3699 3.65333 63.5566 2.52 64.6766 2.52C65.0766 2.52 65.3432 2.79333 65.4766 3.34V3.6C65.4766 4.56 64.7366 6.18 63.2566 8.46C62.6299 9.44667 62.0366 10.3067 61.4766 11.04C60.9299 11.7733 60.4166 12.3933 59.9366 12.9C60.0966 14.1 60.6499 14.7 61.5966 14.7C62.1699 14.7 62.6566 14.54 63.0566 14.22C63.4566 13.8867 63.8832 13.44 64.3366 12.88C64.4166 12.8 64.4699 12.76 64.4966 12.76C64.5366 12.76 64.5566 12.7933 64.5566 12.86C64.5566 12.9533 64.5099 13.0733 64.4166 13.22C63.8432 13.9533 63.3032 14.4733 62.7966 14.78C62.2899 15.0867 61.7632 15.24 61.2166 15.24ZM59.9566 12.4C60.6766 11.6933 61.6166 10.2933 62.7766 8.2C64.0032 5.97333 64.6166 4.44 64.6166 3.6C64.6166 3.22667 64.5099 3.04 64.2966 3.04C63.4699 3.04 62.5299 4.22667 61.4766 6.6C60.9832 7.77333 60.6032 8.84 60.3366 9.8C60.0832 10.76 59.9566 11.6267 59.9566 12.4ZM66.3533 15.24C65.0066 15.24 64.3333 14.2467 64.3333 12.26C64.3333 10.3133 64.9733 8.2 66.2533 5.92C67.5066 3.65333 68.6933 2.52 69.8133 2.52C70.2133 2.52 70.4799 2.79333 70.6133 3.34V3.6C70.6133 4.56 69.8733 6.18 68.3933 8.46C67.7666 9.44667 67.1733 10.3067 66.6133 11.04C66.0666 11.7733 65.5533 12.3933 65.0733 12.9C65.2333 14.1 65.7866 14.7 66.7333 14.7C67.3066 14.7 67.7933 14.54 68.1933 14.22C68.5933 13.8867 69.0199 13.44 69.4733 12.88C69.5533 12.8 69.6066 12.76 69.6333 12.76C69.6733 12.76 69.6933 12.7933 69.6933 12.86C69.6933 12.9533 69.6466 13.0733 69.5533 13.22C68.9799 13.9533 68.4399 14.4733 67.9333 14.78C67.4266 15.0867 66.8999 15.24 66.3533 15.24ZM65.0933 12.4C65.8133 11.6933 66.7533 10.2933 67.9133 8.2C69.1399 5.97333 69.7533 4.44 69.7533 3.6C69.7533 3.22667 69.6466 3.04 69.4333 3.04C68.6066 3.04 67.6666 4.22667 66.6133 6.6C66.1199 7.77333 65.7399 8.84 65.4733 9.8C65.2199 10.76 65.0933 11.6267 65.0933 12.4ZM65.15 24.1C64.2833 24.1 63.61 23.88 63.13 23.44C62.5967 22.9867 62.33 22.3467 62.33 21.52C62.33 18.8533 65.89 16.62 73.01 14.82C73.0767 14.1667 73.1233 13.5667 73.15 13.02C73.19 12.46 73.2167 11.96 73.23 11.52C73.1367 11.8 73.03 12.0667 72.91 12.32C72.79 12.5733 72.6633 12.8133 72.53 13.04C72.3433 13.4133 72.0233 13.8 71.57 14.2C71.0367 14.6267 70.6033 14.84 70.27 14.84C70.0167 14.84 69.7967 14.7 69.61 14.42C69.4633 14.1667 69.39 13.9 69.39 13.62C69.39 13.1667 69.5033 12.6533 69.73 12.08C69.97 11.36 70.2767 11 70.65 11C70.7833 11 70.8567 11.0867 70.87 11.26C70.35 12.1 70.09 12.8733 70.09 13.58C70.09 13.98 70.25 14.18 70.57 14.18C71.1433 14.18 71.75 13.6333 72.39 12.54C72.9767 11.5667 73.27 10.7467 73.27 10.08C73.27 9.88 73.43 9.78 73.75 9.78C74.0033 9.78 74.13 9.90667 74.13 10.16C74.13 10.64 74.1033 11.26 74.05 12.02C74.01 12.7667 73.9433 13.6533 73.85 14.68C73.9967 14.64 74.1967 14.6 74.45 14.56C74.7167 14.52 74.9433 14.5 75.13 14.5C75.6367 14.5 75.89 14.5733 75.89 14.72C75.89 14.7867 75.8433 14.82 75.75 14.82C75.71 14.82 75.6233 14.82 75.49 14.82C75.3567 14.8067 75.2167 14.8 75.07 14.8C74.9367 14.8 74.73 14.8267 74.45 14.88C74.1833 14.9333 73.9567 14.9867 73.77 15.04C73.2633 18.88 71.59 21.5733 68.75 23.12C68.15 23.44 67.5567 23.68 66.97 23.84C66.37 24.0133 65.7633 24.1 65.15 24.1ZM65.77 23.52C66.9567 23.52 67.9167 23.3067 68.65 22.88C71.0767 21.5067 72.51 18.94 72.95 15.18C66.23 16.9533 62.87 19 62.87 21.32C62.87 22.7867 63.8367 23.52 65.77 23.52Z" fill="white"/>
</svg>
