<svg width="38" height="34" viewBox="0 0 38 34" fill="none" xmlns="http://www.w3.org/2000/svg">
<g clip-path="url(#clip0_26_481)">
<path d="M23.0561 6.69677C22.2293 6.20661 21.2844 6.03535 20.3395 5.92906C20.4399 5.68102 20.4931 5.42118 20.4931 5.15543C21.438 5.16724 22.4655 4.57669 23.1092 3.97433C23.7529 3.37197 24.5502 2.19087 23.8828 1.32866C23.2096 0.460551 21.8632 1.12197 21.1309 1.55898C20.3691 2.0137 19.7076 2.66331 19.5482 3.51961C19.2057 3.30701 18.8041 3.18299 18.4084 3.18299C18.3789 2.23811 18.1073 1.20465 17.4399 0.525512C16.8671 -0.0532282 15.934 -0.242205 15.3789 0.460551C14.2687 1.86016 15.7923 3.58457 17.2332 3.96843C17.2332 3.98024 17.2332 3.99205 17.2451 4.00386C16.9262 4.29913 16.7136 4.71252 16.6781 5.16134C15.6683 4.99598 14.4872 5.12591 13.5836 5.50976C12.8513 5.81685 12.308 6.69087 12.8691 7.40543C13.3947 8.07276 14.4163 7.96055 15.1427 7.8011C15.9695 7.62394 16.7549 7.2578 17.31 6.63181C17.4104 6.71449 17.5108 6.78536 17.623 6.85032C16.6013 7.94874 15.2195 11.5039 17.0265 11.9822C17.9183 12.2184 18.6801 11.0787 18.9813 10.4054C19.4714 9.31882 19.4183 8.17315 19.1525 7.0511C19.1821 7.03929 19.2175 7.03929 19.247 7.02748C19.3592 6.98614 19.4655 6.93299 19.5659 6.87394C20.0265 7.73024 21.1368 8.49795 21.9517 8.87591C22.5777 9.16528 24.0069 9.46055 24.3317 8.5511C24.5915 7.83063 23.5817 7.01567 23.0561 6.70268V6.69677ZM15.9754 1.28732C16.0994 0.312914 17.0147 1.08654 17.2687 1.57669C17.558 2.12591 17.6702 2.71646 17.6821 3.33063C17.6407 3.34835 17.6053 3.37197 17.5639 3.39559C16.749 3.01173 15.8513 2.25583 15.9695 1.29323L15.9754 1.28732ZM14.2214 7.05701C14.0915 7.05701 13.9616 7.0452 13.8317 7.01567C13.9025 6.76173 13.9675 6.50189 14.0384 6.24795C14.1388 6.15347 14.6998 6.10032 14.8179 6.0826C15.5147 5.95858 16.1643 5.89362 16.8494 6.06488C16.8671 6.10032 16.8907 6.13575 16.9143 6.17118C16.1643 6.74992 15.1604 7.09835 14.2214 7.06291V7.05701ZM18.5088 9.0826C18.4084 9.54323 17.8947 11.0846 17.3218 10.7716C16.8612 10.5176 17.3041 9.16528 17.4399 8.74008C17.6289 8.14362 17.9832 7.63575 18.1958 7.06291C18.3258 7.09244 18.4616 7.11016 18.5974 7.11016C18.6388 7.77158 18.6447 8.4448 18.5088 9.0826ZM18.8691 6.17118C18.3258 6.32472 17.6939 5.98811 17.5285 5.45071C17.3868 4.99008 17.5876 4.51173 17.9242 4.18693C18.5443 4.0511 19.2588 4.0452 19.5246 4.77748C19.7195 5.30307 19.4183 6.01764 18.8632 6.17709L18.8691 6.17118ZM19.9911 3.87394C20.1919 3.26567 20.623 2.79913 21.1663 2.4448C21.5029 2.2263 23.0561 1.29913 23.2569 2.05504C23.4104 2.63378 22.4655 3.4074 22.0699 3.67315C21.4911 4.05701 20.9065 4.11016 20.2746 4.28142C20.1978 4.13378 20.1033 3.99795 19.9852 3.87394H19.9911ZM21.4616 7.55898C21.0482 7.25189 20.7175 6.82669 20.3277 6.49008C21.3494 6.73221 22.8612 7.09244 23.3041 8.01961C23.6466 8.73417 21.7332 7.76567 21.4616 7.56488V7.55898Z" fill="white"/>
</g>
<path d="M12.1814 30.82C11.7568 30.82 11.2758 30.742 10.7384 30.586C10.2098 30.4387 9.65944 30.2523 9.08744 30.027C8.52411 29.8017 7.97811 29.5677 7.44944 29.325C6.92077 29.091 6.44844 28.8873 6.03244 28.714C5.64244 29.1387 5.19178 29.4897 4.68044 29.767C4.16911 30.053 3.58411 30.196 2.92544 30.196C2.29277 30.196 1.82044 30.0703 1.50844 29.819C1.19644 29.5677 1.04044 29.2817 1.04044 28.961C1.04044 28.7357 1.11844 28.519 1.27444 28.311C1.43911 28.0943 1.68177 27.9167 2.00244 27.778C2.32311 27.6393 2.72177 27.57 3.19844 27.57C3.69244 27.57 4.16044 27.6307 4.60244 27.752C5.04444 27.8647 5.47777 28.0033 5.90244 28.168C6.12778 27.8907 6.34011 27.5873 6.53944 27.258C6.73877 26.92 6.92944 26.5777 7.11144 26.231C6.82544 26.257 6.53511 26.27 6.24044 26.27C5.63377 26.27 5.00977 26.205 4.36844 26.075C3.83977 25.9623 3.43677 25.763 3.15944 25.477C2.89077 25.1823 2.75644 24.866 2.75644 24.528C2.75644 24.1293 2.94277 23.748 3.31544 23.384C3.68811 23.0113 4.25578 22.7557 5.01844 22.617H5.07044C5.13978 22.617 5.19611 22.643 5.23944 22.695C5.29144 22.7383 5.31744 22.7903 5.31744 22.851C5.31744 22.9637 5.25244 23.033 5.12244 23.059C4.45511 23.1803 3.97411 23.3753 3.67944 23.644C3.39344 23.904 3.25044 24.1727 3.25044 24.45C3.25044 24.7187 3.35877 24.9657 3.57544 25.191C3.80077 25.4077 4.09977 25.5507 4.47244 25.62C5.08777 25.75 5.68577 25.815 6.26644 25.815C6.63911 25.815 6.99877 25.789 7.34544 25.737C7.57944 25.243 7.80911 24.7533 8.03444 24.268C8.25978 23.7827 8.48944 23.332 8.72344 22.916C8.96611 22.4913 9.22611 22.1317 9.50344 21.837C9.79811 21.5337 10.0884 21.3127 10.3744 21.174C10.6604 21.0353 10.9248 20.966 11.1674 20.966C11.5314 20.966 11.8304 21.0917 12.0644 21.343C12.3071 21.5857 12.4284 21.8977 12.4284 22.279C12.4284 22.5477 12.3591 22.8337 12.2204 23.137C12.0818 23.4403 11.8608 23.748 11.5574 24.06C11.0028 24.632 10.3961 25.0913 9.73744 25.438C9.08744 25.776 8.40278 26.01 7.68344 26.14C7.62277 26.27 7.56211 26.3957 7.50144 26.517C7.44944 26.6297 7.39311 26.7423 7.33244 26.855C7.19378 27.1063 7.04211 27.362 6.87744 27.622C6.71278 27.8733 6.53511 28.1203 6.34444 28.363C6.63044 28.493 6.91644 28.6273 7.20244 28.766C7.49711 28.896 7.79611 29.0217 8.09944 29.143C8.32477 29.2297 8.60644 29.3423 8.94444 29.481C9.28244 29.6197 9.64211 29.7583 10.0234 29.897C10.4134 30.0357 10.7948 30.1483 11.1674 30.235C11.5488 30.3303 11.8868 30.378 12.1814 30.378C12.3201 30.378 12.4414 30.365 12.5454 30.339C12.5628 30.339 12.5758 30.3347 12.5844 30.326C12.5931 30.326 12.6018 30.326 12.6104 30.326C12.6798 30.326 12.7318 30.352 12.7664 30.404C12.8098 30.456 12.8314 30.5123 12.8314 30.573C12.8314 30.6857 12.7708 30.755 12.6494 30.781C12.5108 30.807 12.3548 30.82 12.1814 30.82ZM9.85444 22.149C9.59444 22.4263 9.35178 22.76 9.12644 23.15C8.90111 23.5313 8.68877 23.9387 8.48944 24.372C8.29011 24.7967 8.09944 25.217 7.91744 25.633C8.52411 25.4857 9.10478 25.2603 9.65944 24.957C10.2141 24.645 10.7298 24.2463 11.2064 23.761C11.4664 23.4923 11.6528 23.2323 11.7654 22.981C11.8781 22.721 11.9344 22.487 11.9344 22.279C11.9344 22.0277 11.8608 21.824 11.7134 21.668C11.5748 21.5033 11.3884 21.421 11.1544 21.421C10.9724 21.421 10.7688 21.4817 10.5434 21.603C10.3268 21.7157 10.0971 21.8977 9.85444 22.149ZM1.52144 28.961C1.52144 29.1603 1.63411 29.338 1.85944 29.494C2.09344 29.6587 2.44877 29.741 2.92544 29.741C3.48011 29.741 3.97411 29.6283 4.40744 29.403C4.84944 29.1863 5.24378 28.896 5.59044 28.532H5.57744C5.19611 28.3847 4.80611 28.2633 4.40744 28.168C4.00877 28.064 3.60577 28.012 3.19844 28.012C2.65244 28.012 2.23644 28.1117 1.95044 28.311C1.66444 28.5103 1.52144 28.727 1.52144 28.961ZM11.2661 29.221C10.9714 29.221 10.7634 29.1387 10.6421 28.974C10.5207 28.8007 10.4601 28.5883 10.4601 28.337C10.4601 28.129 10.4904 27.9037 10.5511 27.661C10.6204 27.4097 10.7071 27.1627 10.8111 26.92C10.8197 26.582 10.9107 26.2483 11.0841 25.919C11.2661 25.5897 11.5087 25.3167 11.8121 25.1C12.1241 24.8833 12.4881 24.775 12.9041 24.775C13.3114 24.775 13.5931 24.892 13.7491 25.126C13.9137 25.36 13.9961 25.6373 13.9961 25.958C13.9961 26.1487 13.9744 26.3437 13.9311 26.543C13.8877 26.7337 13.8314 26.9157 13.7621 27.089C13.6927 27.2623 13.6061 27.44 13.5021 27.622C13.3981 27.7953 13.2811 27.9687 13.1511 28.142C13.4111 28.0987 13.6364 28.0163 13.8271 27.895C14.0264 27.765 14.2257 27.5873 14.4251 27.362C14.6244 27.1367 14.8584 26.8507 15.1271 26.504C15.1791 26.4433 15.2354 26.413 15.2961 26.413C15.3654 26.413 15.4217 26.4347 15.4651 26.478C15.5171 26.5213 15.5431 26.5777 15.5431 26.647C15.5431 26.699 15.5257 26.7467 15.4911 26.79C15.2397 27.1367 14.9841 27.4487 14.7241 27.726C14.4727 28.0033 14.1867 28.22 13.8661 28.376C13.5454 28.532 13.1597 28.61 12.7091 28.61C12.5011 28.792 12.2757 28.9393 12.0331 29.052C11.7904 29.1647 11.5347 29.221 11.2661 29.221ZM12.0201 25.854C11.9161 25.932 11.7904 26.088 11.6431 26.322C11.4957 26.556 11.3614 26.8117 11.2401 27.089C11.2574 27.3577 11.3657 27.6003 11.5651 27.817C11.7731 28.025 12.0894 28.142 12.5141 28.168C12.8261 27.8647 13.0774 27.5093 13.2681 27.102C13.4587 26.686 13.5541 26.3133 13.5541 25.984C13.5541 25.7587 13.5021 25.5767 13.3981 25.438C13.2941 25.2993 13.1294 25.23 12.9041 25.23C12.7481 25.23 12.5964 25.256 12.4491 25.308C12.3017 25.36 12.1674 25.4293 12.0461 25.516C12.0894 25.5593 12.1111 25.6113 12.1111 25.672C12.1111 25.7413 12.0807 25.802 12.0201 25.854ZM10.9151 28.311C10.9151 28.4497 10.9411 28.5623 10.9931 28.649C11.0537 28.727 11.1447 28.766 11.2661 28.766C11.5174 28.766 11.7731 28.688 12.0331 28.532C11.7817 28.4713 11.5694 28.376 11.3961 28.246C11.2227 28.1073 11.0884 27.9513 10.9931 27.778C10.9411 27.986 10.9151 28.1637 10.9151 28.311ZM15.639 29.091C15.275 29.091 14.9977 29 14.807 28.818C14.625 28.636 14.534 28.402 14.534 28.116C14.534 27.7867 14.599 27.4747 14.729 27.18C14.8677 26.8853 15.0237 26.6123 15.197 26.361C15.4484 25.997 15.7474 25.6893 16.094 25.438C16.4494 25.178 16.8177 25.048 17.199 25.048C17.4504 25.048 17.6237 25.1087 17.719 25.23C17.8144 25.3427 17.862 25.4857 17.862 25.659C17.862 25.841 17.823 26.0317 17.745 26.231C17.667 26.4217 17.5804 26.5733 17.485 26.686C17.4244 26.7553 17.3594 26.79 17.29 26.79C17.1514 26.79 17.082 26.7293 17.082 26.608C17.082 26.5473 17.108 26.491 17.16 26.439C17.2034 26.3957 17.2554 26.296 17.316 26.14C17.3854 25.9753 17.42 25.8323 17.42 25.711C17.42 25.5897 17.381 25.5247 17.303 25.516C17.277 25.5073 17.2424 25.503 17.199 25.503C17.0257 25.503 16.8307 25.5723 16.614 25.711C16.3974 25.841 16.1894 26.0143 15.99 26.231C15.7907 26.4477 15.6217 26.6773 15.483 26.92C15.3704 27.1107 15.2794 27.3143 15.21 27.531C15.1407 27.7477 15.106 27.934 15.106 28.09C15.106 28.2547 15.1537 28.3847 15.249 28.48C15.353 28.5753 15.5004 28.623 15.691 28.623C15.9944 28.623 16.3107 28.5407 16.64 28.376C16.978 28.2113 17.251 28.0423 17.459 27.869C17.6324 27.7217 17.7927 27.57 17.94 27.414C18.0874 27.2493 18.226 27.0977 18.356 26.959C18.3907 26.9157 18.434 26.894 18.486 26.894C18.5294 26.894 18.5684 26.92 18.603 26.972C18.6464 27.0153 18.668 27.0717 18.668 27.141C18.668 27.219 18.6464 27.284 18.603 27.336C18.4644 27.518 18.2824 27.7217 18.057 27.947C17.8317 28.1637 17.6324 28.337 17.459 28.467C17.2164 28.6403 16.926 28.7877 16.588 28.909C16.25 29.0303 15.9337 29.091 15.639 29.091ZM18.5833 29.065C18.3407 29.065 18.1587 28.9957 18.0373 28.857C17.9247 28.7097 17.8683 28.5277 17.8683 28.311C17.8683 28.0683 17.9377 27.7867 18.0763 27.466C18.2237 27.1367 18.4143 26.7987 18.6483 26.452C18.8823 26.1053 19.138 25.7847 19.4153 25.49C19.7013 25.1867 19.9873 24.944 20.2733 24.762C20.5593 24.5713 20.8237 24.476 21.0663 24.476C21.231 24.476 21.3913 24.502 21.5473 24.554C21.7033 24.5973 21.829 24.6883 21.9243 24.827C22.0283 24.9657 22.0803 25.1693 22.0803 25.438C22.0803 25.5333 22.0543 25.6027 22.0023 25.646C21.9503 25.6893 21.9027 25.711 21.8593 25.711C21.764 25.711 21.7163 25.6763 21.7163 25.607C21.673 25.3297 21.582 25.1477 21.4433 25.061C21.3133 24.9743 21.1877 24.931 21.0663 24.931C20.893 24.931 20.6893 25.0177 20.4553 25.191C20.2213 25.3643 19.983 25.5853 19.7403 25.854C19.4977 26.1227 19.268 26.413 19.0513 26.725C18.8433 27.0283 18.6743 27.323 18.5443 27.609C18.4143 27.8863 18.3493 28.116 18.3493 28.298C18.3493 28.3847 18.3623 28.4627 18.3883 28.532C18.423 28.6013 18.475 28.636 18.5443 28.636C18.6743 28.636 18.8433 28.5667 19.0513 28.428C19.2593 28.2893 19.4803 28.1117 19.7143 27.895C19.957 27.6697 20.1953 27.4357 20.4293 27.193C20.6633 26.9503 20.8757 26.7207 21.0663 26.504C21.257 26.2873 21.4043 26.114 21.5083 25.984C21.5603 25.906 21.6253 25.867 21.7033 25.867C21.764 25.867 21.8203 25.8887 21.8723 25.932C21.9243 25.9753 21.9503 26.0317 21.9503 26.101C21.9503 26.1357 21.9373 26.1747 21.9113 26.218C21.8507 26.3133 21.777 26.4477 21.6903 26.621C21.6123 26.7943 21.53 26.9807 21.4433 27.18C21.3653 27.3793 21.296 27.5657 21.2353 27.739C21.1833 27.9037 21.1573 28.0293 21.1573 28.116C21.1573 28.2027 21.1877 28.246 21.2483 28.246C21.2917 28.246 21.3437 28.2243 21.4043 28.181C21.4737 28.1377 21.5343 28.0987 21.5863 28.064C21.7943 27.8907 21.9937 27.7087 22.1843 27.518C22.375 27.3187 22.5483 27.1323 22.7043 26.959C22.739 26.9157 22.7823 26.894 22.8343 26.894C22.8777 26.894 22.9167 26.92 22.9513 26.972C22.9947 27.0153 23.0163 27.0717 23.0163 27.141C23.0163 27.219 22.9947 27.284 22.9513 27.336C22.8127 27.518 22.6307 27.7217 22.4053 27.947C22.18 28.1637 21.9807 28.337 21.8073 28.467C21.6947 28.545 21.5603 28.623 21.4043 28.701C21.257 28.7703 21.114 28.805 20.9753 28.805C20.8713 28.805 20.7847 28.7747 20.7153 28.714C20.646 28.6447 20.6113 28.5277 20.6113 28.363C20.6113 28.233 20.633 28.0857 20.6763 27.921C20.7197 27.7563 20.7717 27.5873 20.8323 27.414C20.5897 27.674 20.3297 27.9297 20.0523 28.181C19.775 28.4323 19.5063 28.6447 19.2463 28.818C18.995 28.9827 18.774 29.065 18.5833 29.065ZM23.6271 29.13C23.1505 29.13 22.9121 28.8917 22.9121 28.415C22.9121 28.2157 22.9555 27.9903 23.0421 27.739C23.1721 27.3577 23.3671 26.946 23.6271 26.504C23.8958 26.062 24.1688 25.6373 24.4461 25.23H23.9781C23.9088 25.23 23.8525 25.2083 23.8091 25.165C23.7745 25.113 23.7571 25.0567 23.7571 24.996C23.7571 24.944 23.7745 24.8963 23.8091 24.853C23.8525 24.801 23.9088 24.775 23.9781 24.775H24.7711C24.8665 24.6537 24.9531 24.5367 25.0311 24.424C25.1091 24.3027 25.1871 24.1857 25.2651 24.073C25.3865 23.761 25.5338 23.462 25.7071 23.176C25.8891 22.89 26.1101 22.6603 26.3701 22.487C26.4135 22.461 26.4525 22.448 26.4871 22.448C26.5565 22.448 26.6171 22.4827 26.6691 22.552C26.7211 22.6127 26.7471 22.682 26.7471 22.76C26.7471 22.8207 26.7255 22.8857 26.6821 22.955C26.6561 22.9897 26.5738 23.098 26.4351 23.28C26.2965 23.462 26.1318 23.6873 25.9411 23.956C25.7505 24.216 25.5511 24.489 25.3431 24.775H26.5911C26.6691 24.775 26.7255 24.801 26.7601 24.853C26.7948 24.8963 26.8121 24.944 26.8121 24.996C26.8121 25.0567 26.7948 25.113 26.7601 25.165C26.7255 25.2083 26.6691 25.23 26.5911 25.23H25.0311L24.9141 25.412C24.8361 25.5247 24.7191 25.7067 24.5631 25.958C24.4158 26.2093 24.2555 26.4867 24.0821 26.79C23.9175 27.0933 23.7745 27.388 23.6531 27.674C23.5405 27.9513 23.4841 28.181 23.4841 28.363C23.4841 28.5797 23.5751 28.688 23.7571 28.688C23.9045 28.688 24.1255 28.6187 24.4201 28.48C24.7235 28.3327 25.0225 28.1333 25.3171 27.882C25.4905 27.7347 25.6508 27.5787 25.7981 27.414C25.9455 27.2493 26.0841 27.0977 26.2141 26.959C26.2488 26.9157 26.2921 26.894 26.3441 26.894C26.3875 26.894 26.4265 26.92 26.4611 26.972C26.5045 27.0153 26.5261 27.0717 26.5261 27.141C26.5261 27.219 26.5045 27.284 26.4611 27.336C26.3311 27.518 26.1491 27.7217 25.9151 27.947C25.6898 28.1637 25.4905 28.337 25.3171 28.467C24.9878 28.7097 24.6325 28.8917 24.2511 29.013C24.0171 29.091 23.8091 29.13 23.6271 29.13ZM28.678 24.957C28.574 24.957 28.4787 24.9223 28.392 24.853C28.314 24.775 28.275 24.6797 28.275 24.567C28.275 24.4457 28.314 24.346 28.392 24.268C28.47 24.19 28.5654 24.151 28.678 24.151C28.7994 24.151 28.899 24.19 28.977 24.268C29.055 24.346 29.094 24.4457 29.094 24.567C29.094 24.6797 29.0507 24.775 28.964 24.853C28.886 24.9223 28.7907 24.957 28.678 24.957ZM26.754 28.857C26.6414 28.857 26.5504 28.8267 26.481 28.766C26.4117 28.6967 26.377 28.5883 26.377 28.441C26.377 28.259 26.4204 28.038 26.507 27.778C26.5937 27.5093 26.7064 27.2363 26.845 26.959C26.9837 26.673 27.131 26.413 27.287 26.179C27.4517 25.9363 27.6077 25.7457 27.755 25.607C27.8157 25.5463 27.8894 25.516 27.976 25.516C28.0454 25.516 28.106 25.5333 28.158 25.568C28.21 25.6027 28.236 25.646 28.236 25.698C28.236 25.7413 28.2144 25.7847 28.171 25.828C28.1104 25.8887 28.0324 25.9883 27.937 26.127C27.8504 26.257 27.7637 26.3957 27.677 26.543C27.5904 26.6817 27.5254 26.7987 27.482 26.894C27.404 27.0587 27.3174 27.245 27.222 27.453C27.1267 27.661 27.0574 27.83 27.014 27.96C26.988 28.0467 26.975 28.1117 26.975 28.155C26.975 28.2503 27.0097 28.298 27.079 28.298C27.1397 28.298 27.209 28.272 27.287 28.22C27.365 28.1593 27.4344 28.1073 27.495 28.064C27.7117 27.8907 27.911 27.7087 28.093 27.518C28.2837 27.3187 28.457 27.1323 28.613 26.959C28.6477 26.9157 28.691 26.894 28.743 26.894C28.7864 26.894 28.8254 26.92 28.86 26.972C28.9034 27.0153 28.925 27.0717 28.925 27.141C28.925 27.219 28.9034 27.284 28.86 27.336C28.73 27.518 28.548 27.7217 28.314 27.947C28.0887 28.1637 27.8894 28.337 27.716 28.467C27.6034 28.5537 27.4517 28.6403 27.261 28.727C27.079 28.8137 26.91 28.857 26.754 28.857ZM29.1664 29.221C28.8718 29.221 28.6638 29.1387 28.5424 28.974C28.4211 28.8007 28.3604 28.5883 28.3604 28.337C28.3604 28.129 28.3908 27.9037 28.4514 27.661C28.5208 27.4097 28.6074 27.1627 28.7114 26.92C28.7201 26.582 28.8111 26.2483 28.9844 25.919C29.1664 25.5897 29.4091 25.3167 29.7124 25.1C30.0244 24.8833 30.3884 24.775 30.8044 24.775C31.2118 24.775 31.4934 24.892 31.6494 25.126C31.8141 25.36 31.8964 25.6373 31.8964 25.958C31.8964 26.1487 31.8748 26.3437 31.8314 26.543C31.7881 26.7337 31.7318 26.9157 31.6624 27.089C31.5931 27.2623 31.5064 27.44 31.4024 27.622C31.2984 27.7953 31.1814 27.9687 31.0514 28.142C31.3114 28.0987 31.5368 28.0163 31.7274 27.895C31.9268 27.765 32.1261 27.5873 32.3254 27.362C32.5248 27.1367 32.7588 26.8507 33.0274 26.504C33.0794 26.4433 33.1358 26.413 33.1964 26.413C33.2658 26.413 33.3221 26.4347 33.3654 26.478C33.4174 26.5213 33.4434 26.5777 33.4434 26.647C33.4434 26.699 33.4261 26.7467 33.3914 26.79C33.1401 27.1367 32.8844 27.4487 32.6244 27.726C32.3731 28.0033 32.0871 28.22 31.7664 28.376C31.4458 28.532 31.0601 28.61 30.6094 28.61C30.4014 28.792 30.1761 28.9393 29.9334 29.052C29.6908 29.1647 29.4351 29.221 29.1664 29.221ZM29.9204 25.854C29.8164 25.932 29.6908 26.088 29.5434 26.322C29.3961 26.556 29.2618 26.8117 29.1404 27.089C29.1578 27.3577 29.2661 27.6003 29.4654 27.817C29.6734 28.025 29.9898 28.142 30.4144 28.168C30.7264 27.8647 30.9778 27.5093 31.1684 27.102C31.3591 26.686 31.4544 26.3133 31.4544 25.984C31.4544 25.7587 31.4024 25.5767 31.2984 25.438C31.1944 25.2993 31.0298 25.23 30.8044 25.23C30.6484 25.23 30.4968 25.256 30.3494 25.308C30.2021 25.36 30.0678 25.4293 29.9464 25.516C29.9898 25.5593 30.0114 25.6113 30.0114 25.672C30.0114 25.7413 29.9811 25.802 29.9204 25.854ZM28.8154 28.311C28.8154 28.4497 28.8414 28.5623 28.8934 28.649C28.9541 28.727 29.0451 28.766 29.1664 28.766C29.4178 28.766 29.6734 28.688 29.9334 28.532C29.6821 28.4713 29.4698 28.376 29.2964 28.246C29.1231 28.1073 28.9888 27.9513 28.8934 27.778C28.8414 27.986 28.8154 28.1637 28.8154 28.311ZM32.5254 29.299C32.4648 29.299 32.4084 29.2773 32.3564 29.234C32.3044 29.1907 32.2784 29.1387 32.2784 29.078C32.2784 29.0607 32.2871 29.026 32.3044 28.974C32.4778 28.6013 32.6468 28.2633 32.8114 27.96C32.9848 27.648 33.1624 27.3447 33.3444 27.05C33.4224 26.9287 33.5091 26.7727 33.6044 26.582C33.7084 26.3827 33.8081 26.1703 33.9034 25.945C33.9988 25.711 34.0768 25.49 34.1374 25.282C34.2068 25.074 34.2414 24.905 34.2414 24.775C34.2414 24.7057 34.2371 24.658 34.2284 24.632C34.2198 24.6233 34.2154 24.606 34.2154 24.58C34.2154 24.5107 34.2458 24.4543 34.3064 24.411C34.3758 24.359 34.4408 24.333 34.5014 24.333C34.5708 24.333 34.6358 24.3677 34.6964 24.437C34.7571 24.4977 34.7874 24.606 34.7874 24.762C34.7874 24.892 34.7571 25.0653 34.6964 25.282C34.6444 25.49 34.5534 25.7413 34.4234 26.036C34.3541 26.1833 34.2891 26.322 34.2284 26.452C34.1678 26.5733 34.1071 26.6903 34.0464 26.803C34.3844 26.4477 34.7311 26.1313 35.0864 25.854C35.4418 25.568 35.7581 25.3427 36.0354 25.178C36.3128 25.0133 36.4991 24.931 36.5944 24.931C36.6984 24.931 36.7721 24.9613 36.8154 25.022C36.8588 25.0827 36.8804 25.152 36.8804 25.23C36.8804 25.3427 36.8458 25.4727 36.7764 25.62C36.7158 25.7587 36.6508 25.8843 36.5814 25.997C36.5121 26.1097 36.4644 26.1877 36.4384 26.231C36.3431 26.3783 36.2131 26.5993 36.0484 26.894C35.8838 27.1887 35.7451 27.4747 35.6324 27.752C35.5978 27.8473 35.5631 27.947 35.5284 28.051C35.5024 28.1463 35.4894 28.2287 35.4894 28.298C35.4894 28.4107 35.5371 28.467 35.6324 28.467C35.7191 28.467 35.8448 28.4237 36.0094 28.337C36.2174 28.2243 36.4081 28.0813 36.5814 27.908C36.7634 27.726 36.9194 27.57 37.0494 27.44C37.0581 27.4313 37.0971 27.388 37.1664 27.31C37.2444 27.232 37.3181 27.154 37.3874 27.076C37.4654 26.998 37.5044 26.959 37.5044 26.959C37.5391 26.9157 37.5824 26.894 37.6344 26.894C37.6778 26.894 37.7168 26.92 37.7514 26.972C37.7948 27.0153 37.8164 27.0717 37.8164 27.141C37.8164 27.219 37.7948 27.284 37.7514 27.336C37.6214 27.518 37.4438 27.7173 37.2184 27.934C36.9931 28.1507 36.7938 28.3283 36.6204 28.467C36.4384 28.6057 36.2521 28.7183 36.0614 28.805C35.8794 28.883 35.6974 28.922 35.5154 28.922C35.3594 28.922 35.2294 28.8917 35.1254 28.831C35.0214 28.7703 34.9694 28.61 34.9694 28.35C34.9694 28.0207 35.0518 27.6957 35.2164 27.375C35.3898 27.0543 35.5804 26.738 35.7884 26.426C36.0051 26.114 36.1828 25.8193 36.3214 25.542C36.1048 25.672 35.8144 25.8713 35.4504 26.14C35.0951 26.4087 34.7181 26.725 34.3194 27.089C33.9294 27.4443 33.5741 27.8343 33.2534 28.259C33.1928 28.3717 33.1278 28.493 33.0584 28.623C32.9891 28.753 32.9198 28.896 32.8504 29.052C32.7724 29.2167 32.6641 29.299 32.5254 29.299Z" fill="white"/>
<defs>
<clipPath id="clip0_26_481">
<rect width="11.7343" height="12" fill="white" transform="translate(12.6329)"/>
</clipPath>
</defs>
</svg>
