<svg width="75" height="36" viewBox="0 0 75 36" fill="none" xmlns="http://www.w3.org/2000/svg">
<g clip-path="url(#clip0_26_480)">
<path d="M41.0561 6.69677C40.2293 6.20661 39.2844 6.03535 38.3395 5.92906C38.4399 5.68102 38.4931 5.42118 38.4931 5.15543C39.438 5.16724 40.4655 4.57669 41.1092 3.97433C41.7529 3.37197 42.5502 2.19087 41.8828 1.32866C41.2096 0.460551 39.8632 1.12197 39.1309 1.55898C38.3691 2.0137 37.7076 2.66331 37.5482 3.51961C37.2057 3.30701 36.8041 3.18299 36.4084 3.18299C36.3789 2.23811 36.1073 1.20465 35.4399 0.525512C34.8671 -0.0532282 33.934 -0.242205 33.3789 0.460551C32.2687 1.86016 33.7923 3.58457 35.2332 3.96843C35.2332 3.98024 35.2332 3.99205 35.2451 4.00386C34.9262 4.29913 34.7136 4.71252 34.6781 5.16134C33.6683 4.99598 32.4872 5.12591 31.5836 5.50976C30.8513 5.81685 30.308 6.69087 30.8691 7.40543C31.3947 8.07276 32.4163 7.96055 33.1427 7.8011C33.9695 7.62394 34.7549 7.2578 35.31 6.63181C35.4104 6.71449 35.5108 6.78536 35.623 6.85032C34.6013 7.94874 33.2195 11.5039 35.0265 11.9822C35.9183 12.2184 36.6801 11.0787 36.9813 10.4054C37.4714 9.31882 37.4183 8.17315 37.1525 7.0511C37.1821 7.03929 37.2175 7.03929 37.247 7.02748C37.3592 6.98614 37.4655 6.93299 37.5659 6.87394C38.0265 7.73024 39.1368 8.49795 39.9517 8.87591C40.5777 9.16528 42.0069 9.46055 42.3317 8.5511C42.5915 7.83063 41.5817 7.01567 41.0561 6.70268V6.69677ZM33.9754 1.28732C34.0994 0.312914 35.0147 1.08654 35.2687 1.57669C35.558 2.12591 35.6702 2.71646 35.6821 3.33063C35.6407 3.34835 35.6053 3.37197 35.5639 3.39559C34.749 3.01173 33.8513 2.25583 33.9695 1.29323L33.9754 1.28732ZM32.2214 7.05701C32.0915 7.05701 31.9616 7.0452 31.8317 7.01567C31.9025 6.76173 31.9675 6.50189 32.0384 6.24795C32.1388 6.15347 32.6998 6.10032 32.8179 6.0826C33.5147 5.95858 34.1643 5.89362 34.8494 6.06488C34.8671 6.10032 34.8907 6.13575 34.9143 6.17118C34.1643 6.74992 33.1604 7.09835 32.2214 7.06291V7.05701ZM36.5088 9.0826C36.4084 9.54323 35.8947 11.0846 35.3218 10.7716C34.8612 10.5176 35.3041 9.16528 35.4399 8.74008C35.6289 8.14362 35.9832 7.63575 36.1958 7.06291C36.3258 7.09244 36.4616 7.11016 36.5974 7.11016C36.6388 7.77158 36.6447 8.4448 36.5088 9.0826ZM36.8691 6.17118C36.3258 6.32472 35.6939 5.98811 35.5285 5.45071C35.3868 4.99008 35.5876 4.51173 35.9242 4.18693C36.5443 4.0511 37.2588 4.0452 37.5246 4.77748C37.7195 5.30307 37.4183 6.01764 36.8632 6.17709L36.8691 6.17118ZM37.9911 3.87394C38.1919 3.26567 38.623 2.79913 39.1663 2.4448C39.5029 2.2263 41.0561 1.29913 41.2569 2.05504C41.4104 2.63378 40.4655 3.4074 40.0699 3.67315C39.4911 4.05701 38.9065 4.11016 38.2746 4.28142C38.1978 4.13378 38.1033 3.99795 37.9852 3.87394H37.9911ZM39.4616 7.55898C39.0482 7.25189 38.7175 6.82669 38.3277 6.49008C39.3494 6.73221 40.8612 7.09244 41.3041 8.01961C41.6466 8.73417 39.7332 7.76567 39.4616 7.56488V7.55898Z" fill="white"/>
</g>
<path d="M7.26341 31.741C6.92541 31.741 6.67841 31.6327 6.52241 31.416C6.37507 31.1993 6.30141 30.9307 6.30141 30.61C6.30141 30.2027 6.40107 29.726 6.60041 29.18C6.79974 28.6253 7.09874 28.036 7.49741 27.412C7.93074 26.7013 8.22974 26.1077 8.39441 25.631C8.56774 25.1457 8.65441 24.747 8.65441 24.435C8.65441 24.1143 8.58507 23.8717 8.44641 23.707C8.31641 23.5337 8.15174 23.4167 7.95241 23.356C7.76174 23.2867 7.57541 23.252 7.39341 23.252C6.81274 23.252 6.27107 23.356 5.76841 23.564C5.27441 23.7633 4.82807 24.032 4.42941 24.37C4.03074 24.708 3.69274 25.0807 3.41541 25.488C3.13807 25.8867 2.92574 26.2897 2.77841 26.697C2.63107 27.1043 2.55741 27.4813 2.55741 27.828C2.55741 28.2007 2.64841 28.504 2.83041 28.738C3.01241 28.9633 3.29407 29.076 3.67541 29.076C4.03074 29.076 4.35574 28.9893 4.65041 28.816C4.95374 28.6427 5.21807 28.4217 5.44341 28.153C5.66874 27.8843 5.84207 27.607 5.96341 27.321C6.09341 27.035 6.15841 26.775 6.15841 26.541C6.15841 26.3677 6.11507 26.2247 6.02841 26.112C5.95041 25.9907 5.81607 25.93 5.62541 25.93C5.55607 25.93 5.49974 25.9083 5.45641 25.865C5.42174 25.813 5.40441 25.7567 5.40441 25.696C5.40441 25.6353 5.42174 25.5833 5.45641 25.54C5.49974 25.488 5.55607 25.462 5.62541 25.462C5.98074 25.462 6.23641 25.5617 6.39241 25.761C6.55707 25.9603 6.63941 26.2117 6.63941 26.515C6.63941 26.8183 6.56574 27.1477 6.41841 27.503C6.27107 27.8497 6.06307 28.179 5.79441 28.491C5.53441 28.803 5.22241 29.0587 4.85841 29.258C4.50307 29.4573 4.10874 29.557 3.67541 29.557C3.12074 29.557 2.71341 29.3967 2.45341 29.076C2.20207 28.7553 2.07641 28.3523 2.07641 27.867C2.07641 27.4683 2.15441 27.0393 2.31041 26.58C2.47507 26.112 2.70907 25.657 3.01241 25.215C3.32441 24.7643 3.69707 24.357 4.13041 23.993C4.56374 23.6203 5.05341 23.3257 5.59941 23.109C6.15407 22.8837 6.75207 22.771 7.39341 22.771C7.70541 22.771 7.99141 22.8273 8.25141 22.94C8.52007 23.0527 8.73241 23.2303 8.88841 23.473C9.05307 23.707 9.13541 24.019 9.13541 24.409C9.13541 24.799 9.04007 25.2627 8.84941 25.8C8.65874 26.3287 8.34241 26.9527 7.90041 27.672C7.52774 28.2787 7.24174 28.8333 7.04241 29.336C6.85174 29.83 6.75641 30.2417 6.75641 30.571C6.75641 30.8137 6.80841 30.987 6.91241 31.091C7.01641 31.195 7.14641 31.2513 7.30241 31.26C7.53641 31.234 7.79207 31.1083 8.06941 30.883C8.35541 30.6577 8.64574 30.376 8.94041 30.038C9.23507 29.6913 9.51674 29.323 9.78541 28.933C10.0627 28.543 10.3097 28.1703 10.5264 27.815C10.7431 27.4597 10.9164 27.1607 11.0464 26.918C11.0811 26.8487 11.1114 26.7793 11.1374 26.71C11.1721 26.632 11.2024 26.5713 11.2284 26.528C11.2804 26.4413 11.3541 26.398 11.4494 26.398C11.5187 26.398 11.5794 26.4283 11.6314 26.489C11.6834 26.541 11.6921 26.6147 11.6574 26.71C11.6487 26.7447 11.6271 26.7967 11.5924 26.866C11.5664 26.9353 11.5361 27.0133 11.5014 27.1C11.2414 27.7067 11.0464 28.2483 10.9164 28.725C10.7864 29.193 10.7214 29.583 10.7214 29.895C10.7214 30.2763 10.7994 30.558 10.9554 30.74C11.1201 30.9133 11.3237 31 11.5664 31C11.8264 31 12.1167 30.9177 12.4374 30.753C12.7581 30.5883 13.0831 30.3543 13.4124 30.051C13.7504 29.7477 14.0667 29.3923 14.3614 28.985C14.6561 28.569 14.9074 28.1183 15.1154 27.633C15.2367 27.3817 15.3147 27.152 15.3494 26.944C15.3927 26.7273 15.4144 26.5237 15.4144 26.333C15.4144 25.995 15.3494 25.7133 15.2194 25.488C15.0981 25.2627 14.9421 25.0937 14.7514 24.981C14.5694 24.8683 14.3831 24.812 14.1924 24.812C14.1317 24.812 14.0711 24.8163 14.0104 24.825C13.9584 24.8337 13.9064 24.851 13.8544 24.877C13.8371 24.8857 13.8111 24.89 13.7764 24.89C13.7071 24.89 13.6507 24.864 13.6074 24.812C13.5641 24.7513 13.5424 24.6907 13.5424 24.63C13.5424 24.5347 13.5901 24.4697 13.6854 24.435C13.7807 24.3917 13.8761 24.3613 13.9714 24.344C14.0754 24.3267 14.1707 24.318 14.2574 24.318C14.5521 24.318 14.8207 24.4047 15.0634 24.578C15.3147 24.7513 15.5141 24.994 15.6614 25.306C15.8087 25.6093 15.8824 25.9647 15.8824 26.372C15.8824 26.5887 15.8521 26.8183 15.7914 27.061C15.7394 27.3037 15.6657 27.5463 15.5704 27.789C15.2931 28.4477 14.9291 29.05 14.4784 29.596C14.0364 30.142 13.5554 30.5797 13.0354 30.909C12.5154 31.2297 11.9954 31.39 11.4754 31.39C11.3974 31.39 11.3151 31.3857 11.2284 31.377C11.1504 31.3683 11.0724 31.3553 10.9944 31.338C10.6997 31.2687 10.4961 31.1213 10.3834 30.896C10.2794 30.662 10.2274 30.3847 10.2274 30.064C10.2274 29.8907 10.2404 29.713 10.2664 29.531C10.2924 29.349 10.3227 29.1627 10.3574 28.972C10.0541 29.4227 9.72041 29.8603 9.35641 30.285C8.99241 30.7097 8.62841 31.0563 8.26441 31.325C7.90907 31.6023 7.57541 31.741 7.26341 31.741ZM17.7357 31.195C17.4671 31.195 17.2374 31.1127 17.0467 30.948C16.8647 30.7833 16.7737 30.4973 16.7737 30.09C16.7737 29.8127 16.8431 29.4877 16.9817 29.115C17.1291 28.7423 17.3241 28.3827 17.5667 28.036C17.8094 27.6807 18.0781 27.3903 18.3727 27.165C18.6674 26.931 18.9664 26.814 19.2697 26.814C19.4691 26.814 19.6164 26.8877 19.7117 27.035C19.8157 27.1737 19.8677 27.3427 19.8677 27.542C19.8677 27.8367 19.7724 28.1227 19.5817 28.4C19.3911 28.6773 19.1484 28.9027 18.8537 29.076C18.5677 29.2493 18.2817 29.336 17.9957 29.336C17.7617 29.336 17.5841 29.2623 17.4627 29.115C17.3934 29.2883 17.3371 29.4573 17.2937 29.622C17.2504 29.7867 17.2287 29.9427 17.2287 30.09C17.2287 30.3413 17.2807 30.519 17.3847 30.623C17.4974 30.7183 17.6361 30.766 17.8007 30.766C18.0001 30.766 18.2211 30.714 18.4637 30.61C18.7151 30.506 18.9491 30.3847 19.1657 30.246C19.3824 30.0987 19.5427 29.9773 19.6467 29.882C19.8201 29.7347 19.9847 29.5743 20.1407 29.401C20.3054 29.219 20.4484 29.05 20.5697 28.894C20.6131 28.842 20.6607 28.816 20.7127 28.816C20.7647 28.816 20.8081 28.842 20.8427 28.894C20.8861 28.9373 20.9077 28.9937 20.9077 29.063C20.9077 29.1237 20.8861 29.1843 20.8427 29.245C20.7041 29.4183 20.5307 29.6177 20.3227 29.843C20.1234 30.0597 19.8981 30.2633 19.6467 30.454C19.5081 30.5667 19.3304 30.6793 19.1137 30.792C18.8971 30.9047 18.6674 31 18.4247 31.078C18.1907 31.156 17.9611 31.195 17.7357 31.195ZM17.9697 28.92C18.1431 28.92 18.3294 28.8637 18.5287 28.751C18.7367 28.6383 18.9187 28.491 19.0747 28.309C19.2394 28.1183 19.3477 27.9147 19.3997 27.698C19.4084 27.6807 19.4127 27.659 19.4127 27.633C19.4127 27.607 19.4127 27.5853 19.4127 27.568C19.4127 27.412 19.3564 27.334 19.2437 27.334C19.0617 27.334 18.8711 27.4033 18.6717 27.542C18.4724 27.672 18.2817 27.8497 18.0997 28.075C17.9264 28.2917 17.7704 28.53 17.6317 28.79C17.6664 28.816 17.7011 28.842 17.7357 28.868C17.7704 28.8853 17.8051 28.8983 17.8397 28.907C17.8571 28.9157 17.8787 28.92 17.9047 28.92C17.9307 28.92 17.9524 28.92 17.9697 28.92ZM20.7586 31.065C20.516 31.065 20.334 30.9957 20.2126 30.857C20.1 30.7097 20.0436 30.5277 20.0436 30.311C20.0436 30.0683 20.113 29.7867 20.2516 29.466C20.399 29.1367 20.5896 28.7987 20.8236 28.452C21.0576 28.1053 21.3133 27.7847 21.5906 27.49C21.8766 27.1867 22.1626 26.944 22.4486 26.762C22.7346 26.5713 22.999 26.476 23.2416 26.476C23.415 26.476 23.584 26.5063 23.7486 26.567C23.922 26.619 24.052 26.7317 24.1386 26.905C24.3553 26.4023 24.6153 25.904 24.9186 25.41C25.222 24.9073 25.534 24.4567 25.8546 24.058C26.184 23.6593 26.496 23.3603 26.7906 23.161C27.0073 23.0137 27.2023 22.94 27.3756 22.94C27.5143 22.94 27.6226 22.9877 27.7006 23.083C27.7873 23.1697 27.8306 23.304 27.8306 23.486C27.8306 23.8327 27.7353 24.201 27.5446 24.591C27.3626 24.981 27.12 25.371 26.8166 25.761C26.5133 26.151 26.184 26.5323 25.8286 26.905C25.482 27.269 25.144 27.6113 24.8146 27.932C24.4853 28.244 24.1993 28.517 23.9566 28.751C23.818 28.985 23.6836 29.258 23.5536 29.57C23.4323 29.8733 23.3716 30.129 23.3716 30.337C23.3716 30.571 23.4626 30.688 23.6446 30.688C23.792 30.688 24.013 30.6187 24.3076 30.48C24.611 30.3327 24.9056 30.1333 25.1916 29.882C25.365 29.7347 25.5253 29.5787 25.6726 29.414C25.82 29.2493 25.9586 29.0977 26.0886 28.959C26.1233 28.9157 26.1666 28.894 26.2186 28.894C26.262 28.894 26.301 28.92 26.3356 28.972C26.379 29.0153 26.4006 29.0717 26.4006 29.141C26.4006 29.219 26.379 29.284 26.3356 29.336C26.2056 29.518 26.0236 29.7217 25.7896 29.947C25.5643 30.1637 25.365 30.337 25.1916 30.467C24.8623 30.7097 24.507 30.8917 24.1256 31.013C23.8916 31.091 23.6836 31.13 23.5016 31.13C23.025 31.13 22.7866 30.8917 22.7866 30.415C22.7866 30.2157 22.83 29.9903 22.9166 29.739C22.9166 29.7303 22.921 29.7217 22.9296 29.713C22.661 29.9383 22.3836 30.155 22.0976 30.363C21.8203 30.571 21.5603 30.74 21.3176 30.87C21.075 31 20.8886 31.065 20.7586 31.065ZM24.1646 27.867C24.2513 27.7977 24.403 27.659 24.6196 27.451C24.8363 27.243 25.0833 26.996 25.3606 26.71C25.6466 26.4153 25.9283 26.099 26.2056 25.761C26.483 25.423 26.7256 25.085 26.9336 24.747C27.1416 24.409 27.2846 24.0927 27.3626 23.798C27.3713 23.7633 27.3756 23.72 27.3756 23.668C27.3756 23.538 27.3236 23.473 27.2196 23.473C27.0896 23.473 26.938 23.5597 26.7646 23.733C26.4266 24.0623 26.0973 24.461 25.7766 24.929C25.4646 25.3883 25.17 25.8737 24.8926 26.385C24.624 26.8877 24.3813 27.3817 24.1646 27.867ZM20.7196 30.636C20.841 30.636 20.997 30.5797 21.1876 30.467C21.387 30.3543 21.5993 30.2113 21.8246 30.038C22.05 29.8647 22.271 29.6827 22.4876 29.492C22.713 29.3013 22.9123 29.1237 23.0856 28.959C23.259 28.7943 23.389 28.6687 23.4756 28.582L23.8656 27.477C23.805 27.2517 23.714 27.1043 23.5926 27.035C23.4713 26.9657 23.3543 26.931 23.2416 26.931C23.0683 26.931 22.8646 27.0177 22.6306 27.191C22.3966 27.3643 22.1583 27.5853 21.9156 27.854C21.673 28.1227 21.4433 28.413 21.2266 28.725C21.0186 29.0283 20.8496 29.323 20.7196 29.609C20.5896 29.8863 20.5246 30.116 20.5246 30.298C20.5246 30.3847 20.5376 30.4627 20.5636 30.532C20.5983 30.6013 20.6503 30.636 20.7196 30.636ZM26.3065 31.065C26.0638 31.065 25.8818 30.9957 25.7605 30.857C25.6478 30.7097 25.5915 30.5277 25.5915 30.311C25.5915 30.0683 25.6608 29.7867 25.7995 29.466C25.9468 29.1367 26.1375 28.7987 26.3715 28.452C26.6055 28.1053 26.8611 27.7847 27.1385 27.49C27.4245 27.1867 27.7105 26.944 27.9965 26.762C28.2825 26.5713 28.5468 26.476 28.7895 26.476C28.9628 26.476 29.1318 26.5063 29.2965 26.567C29.4698 26.619 29.5998 26.7317 29.6865 26.905C29.9031 26.4023 30.1631 25.904 30.4665 25.41C30.7698 24.9073 31.0818 24.4567 31.4025 24.058C31.7318 23.6593 32.0438 23.3603 32.3385 23.161C32.5551 23.0137 32.7501 22.94 32.9235 22.94C33.0621 22.94 33.1705 22.9877 33.2485 23.083C33.3351 23.1697 33.3785 23.304 33.3785 23.486C33.3785 23.8327 33.2831 24.201 33.0925 24.591C32.9105 24.981 32.6678 25.371 32.3645 25.761C32.0611 26.151 31.7318 26.5323 31.3765 26.905C31.0298 27.269 30.6918 27.6113 30.3625 27.932C30.0331 28.244 29.7471 28.517 29.5045 28.751C29.3658 28.985 29.2315 29.258 29.1015 29.57C28.9801 29.8733 28.9195 30.129 28.9195 30.337C28.9195 30.571 29.0105 30.688 29.1925 30.688C29.3398 30.688 29.5608 30.6187 29.8555 30.48C30.1588 30.3327 30.4535 30.1333 30.7395 29.882C30.9128 29.7347 31.0731 29.5787 31.2205 29.414C31.3678 29.2493 31.5065 29.0977 31.6365 28.959C31.6711 28.9157 31.7145 28.894 31.7665 28.894C31.8098 28.894 31.8488 28.92 31.8835 28.972C31.9268 29.0153 31.9485 29.0717 31.9485 29.141C31.9485 29.219 31.9268 29.284 31.8835 29.336C31.7535 29.518 31.5715 29.7217 31.3375 29.947C31.1121 30.1637 30.9128 30.337 30.7395 30.467C30.4101 30.7097 30.0548 30.8917 29.6735 31.013C29.4395 31.091 29.2315 31.13 29.0495 31.13C28.5728 31.13 28.3345 30.8917 28.3345 30.415C28.3345 30.2157 28.3778 29.9903 28.4645 29.739C28.4645 29.7303 28.4688 29.7217 28.4775 29.713C28.2088 29.9383 27.9315 30.155 27.6455 30.363C27.3681 30.571 27.1081 30.74 26.8655 30.87C26.6228 31 26.4365 31.065 26.3065 31.065ZM29.7125 27.867C29.7991 27.7977 29.9508 27.659 30.1675 27.451C30.3841 27.243 30.6311 26.996 30.9085 26.71C31.1945 26.4153 31.4761 26.099 31.7535 25.761C32.0308 25.423 32.2735 25.085 32.4815 24.747C32.6895 24.409 32.8325 24.0927 32.9105 23.798C32.9191 23.7633 32.9235 23.72 32.9235 23.668C32.9235 23.538 32.8715 23.473 32.7675 23.473C32.6375 23.473 32.4858 23.5597 32.3125 23.733C31.9745 24.0623 31.6451 24.461 31.3245 24.929C31.0125 25.3883 30.7178 25.8737 30.4405 26.385C30.1718 26.8877 29.9291 27.3817 29.7125 27.867ZM26.2675 30.636C26.3888 30.636 26.5448 30.5797 26.7355 30.467C26.9348 30.3543 27.1471 30.2113 27.3725 30.038C27.5978 29.8647 27.8188 29.6827 28.0355 29.492C28.2608 29.3013 28.4601 29.1237 28.6335 28.959C28.8068 28.7943 28.9368 28.6687 29.0235 28.582L29.4135 27.477C29.3528 27.2517 29.2618 27.1043 29.1405 27.035C29.0191 26.9657 28.9021 26.931 28.7895 26.931C28.6161 26.931 28.4125 27.0177 28.1785 27.191C27.9445 27.3643 27.7061 27.5853 27.4635 27.854C27.2208 28.1227 26.9911 28.413 26.7745 28.725C26.5665 29.0283 26.3975 29.323 26.2675 29.609C26.1375 29.8863 26.0725 30.116 26.0725 30.298C26.0725 30.3847 26.0855 30.4627 26.1115 30.532C26.1461 30.6013 26.1981 30.636 26.2675 30.636ZM34.1033 26.957C33.9993 26.957 33.904 26.9223 33.8173 26.853C33.7393 26.775 33.7003 26.6797 33.7003 26.567C33.7003 26.4457 33.7393 26.346 33.8173 26.268C33.8953 26.19 33.9907 26.151 34.1033 26.151C34.2247 26.151 34.3243 26.19 34.4023 26.268C34.4803 26.346 34.5193 26.4457 34.5193 26.567C34.5193 26.6797 34.476 26.775 34.3893 26.853C34.3113 26.9223 34.216 26.957 34.1033 26.957ZM32.1793 30.857C32.0667 30.857 31.9757 30.8267 31.9063 30.766C31.837 30.6967 31.8023 30.5883 31.8023 30.441C31.8023 30.259 31.8457 30.038 31.9323 29.778C32.019 29.5093 32.1317 29.2363 32.2703 28.959C32.409 28.673 32.5563 28.413 32.7123 28.179C32.877 27.9363 33.033 27.7457 33.1803 27.607C33.241 27.5463 33.3147 27.516 33.4013 27.516C33.4707 27.516 33.5313 27.5333 33.5833 27.568C33.6353 27.6027 33.6613 27.646 33.6613 27.698C33.6613 27.7413 33.6397 27.7847 33.5963 27.828C33.5357 27.8887 33.4577 27.9883 33.3623 28.127C33.2757 28.257 33.189 28.3957 33.1023 28.543C33.0157 28.6817 32.9507 28.7987 32.9073 28.894C32.8293 29.0587 32.7427 29.245 32.6473 29.453C32.552 29.661 32.4827 29.83 32.4393 29.96C32.4133 30.0467 32.4003 30.1117 32.4003 30.155C32.4003 30.2503 32.435 30.298 32.5043 30.298C32.565 30.298 32.6343 30.272 32.7123 30.22C32.7903 30.1593 32.8597 30.1073 32.9203 30.064C33.137 29.8907 33.3363 29.7087 33.5183 29.518C33.709 29.3187 33.8823 29.1323 34.0383 28.959C34.073 28.9157 34.1163 28.894 34.1683 28.894C34.2117 28.894 34.2507 28.92 34.2853 28.972C34.3287 29.0153 34.3503 29.0717 34.3503 29.141C34.3503 29.219 34.3287 29.284 34.2853 29.336C34.1553 29.518 33.9733 29.7217 33.7393 29.947C33.514 30.1637 33.3147 30.337 33.1413 30.467C33.0287 30.5537 32.877 30.6403 32.6863 30.727C32.5043 30.8137 32.3353 30.857 32.1793 30.857ZM33.8247 31.299C33.7641 31.299 33.7077 31.2773 33.6557 31.234C33.6037 31.1907 33.5777 31.1387 33.5777 31.078C33.5777 31.0607 33.5864 31.026 33.6037 30.974C33.7771 30.6013 33.9461 30.2633 34.1107 29.96C34.2841 29.648 34.4617 29.3447 34.6437 29.05C34.7217 28.9287 34.8084 28.7727 34.9037 28.582C35.0077 28.3827 35.1074 28.1703 35.2027 27.945C35.2981 27.711 35.3761 27.49 35.4367 27.282C35.5061 27.074 35.5407 26.905 35.5407 26.775C35.5407 26.7057 35.5364 26.658 35.5277 26.632C35.5191 26.6233 35.5147 26.606 35.5147 26.58C35.5147 26.5107 35.5451 26.4543 35.6057 26.411C35.6751 26.359 35.7401 26.333 35.8007 26.333C35.8701 26.333 35.9351 26.3677 35.9957 26.437C36.0564 26.4977 36.0867 26.606 36.0867 26.762C36.0867 26.892 36.0564 27.0653 35.9957 27.282C35.9437 27.49 35.8527 27.7413 35.7227 28.036C35.6534 28.1833 35.5884 28.322 35.5277 28.452C35.4671 28.5733 35.4064 28.6903 35.3457 28.803C35.6837 28.4477 36.0304 28.1313 36.3857 27.854C36.7411 27.568 37.0574 27.3427 37.3347 27.178C37.6121 27.0133 37.7984 26.931 37.8937 26.931C37.9977 26.931 38.0714 26.9613 38.1147 27.022C38.1581 27.0827 38.1797 27.152 38.1797 27.23C38.1797 27.3427 38.1451 27.4727 38.0757 27.62C38.0151 27.7587 37.9501 27.8843 37.8807 27.997C37.8114 28.1097 37.7637 28.1877 37.7377 28.231C37.6424 28.3783 37.5124 28.5993 37.3477 28.894C37.1831 29.1887 37.0444 29.4747 36.9317 29.752C36.8971 29.8473 36.8624 29.947 36.8277 30.051C36.8017 30.1463 36.7887 30.2287 36.7887 30.298C36.7887 30.4107 36.8364 30.467 36.9317 30.467C37.0184 30.467 37.1441 30.4237 37.3087 30.337C37.5167 30.2243 37.7074 30.0813 37.8807 29.908C38.0627 29.726 38.2187 29.57 38.3487 29.44C38.3574 29.4313 38.3964 29.388 38.4657 29.31C38.5437 29.232 38.6174 29.154 38.6867 29.076C38.7647 28.998 38.8037 28.959 38.8037 28.959C38.8384 28.9157 38.8817 28.894 38.9337 28.894C38.9771 28.894 39.0161 28.92 39.0507 28.972C39.0941 29.0153 39.1157 29.0717 39.1157 29.141C39.1157 29.219 39.0941 29.284 39.0507 29.336C38.9207 29.518 38.7431 29.7173 38.5177 29.934C38.2924 30.1507 38.0931 30.3283 37.9197 30.467C37.7377 30.6057 37.5514 30.7183 37.3607 30.805C37.1787 30.883 36.9967 30.922 36.8147 30.922C36.6587 30.922 36.5287 30.8917 36.4247 30.831C36.3207 30.7703 36.2687 30.61 36.2687 30.35C36.2687 30.0207 36.3511 29.6957 36.5157 29.375C36.6891 29.0543 36.8797 28.738 37.0877 28.426C37.3044 28.114 37.4821 27.8193 37.6207 27.542C37.4041 27.672 37.1137 27.8713 36.7497 28.14C36.3944 28.4087 36.0174 28.725 35.6187 29.089C35.2287 29.4443 34.8734 29.8343 34.5527 30.259C34.4921 30.3717 34.4271 30.493 34.3577 30.623C34.2884 30.753 34.2191 30.896 34.1497 31.052C34.0717 31.2167 33.9634 31.299 33.8247 31.299ZM39.2349 30.909C38.9922 30.909 38.8102 30.8397 38.6889 30.701C38.5762 30.5537 38.5199 30.3717 38.5199 30.155C38.5199 29.9123 38.5892 29.6307 38.7279 29.31C38.8752 28.9807 39.0659 28.6427 39.2999 28.296C39.5339 27.9493 39.7895 27.6287 40.0669 27.334C40.3529 27.0307 40.6389 26.788 40.9249 26.606C41.2109 26.4153 41.4752 26.32 41.7179 26.32C42.3939 26.32 42.7319 26.6277 42.7319 27.243C42.7319 27.3557 42.7059 27.438 42.6539 27.49C42.6019 27.5333 42.5499 27.555 42.4979 27.555C42.4285 27.555 42.3852 27.5203 42.3679 27.451C42.3332 27.1737 42.2465 26.9917 42.1079 26.905C41.9692 26.8183 41.8392 26.775 41.7179 26.775C41.5445 26.775 41.3409 26.8617 41.1069 27.035C40.8729 27.2083 40.6345 27.4293 40.3919 27.698C40.1492 27.9667 39.9195 28.257 39.7029 28.569C39.4949 28.8723 39.3259 29.167 39.1959 29.453C39.0659 29.7303 39.0009 29.96 39.0009 30.142C39.0009 30.2287 39.0139 30.3067 39.0399 30.376C39.0745 30.4453 39.1265 30.48 39.1959 30.48C39.3259 30.48 39.4949 30.4107 39.7029 30.272C39.9109 30.1333 40.1362 29.9557 40.3789 29.739C40.6215 29.5223 40.8599 29.2927 41.0939 29.05C41.3365 28.8073 41.5489 28.5777 41.7309 28.361C41.9215 28.1443 42.0645 27.9667 42.1599 27.828C42.2032 27.7587 42.2595 27.724 42.3289 27.724C42.4675 27.724 42.5369 27.8063 42.5369 27.971C42.5369 27.9883 42.5325 28.01 42.5239 28.036C42.5239 28.0533 42.5195 28.075 42.5109 28.101C42.4242 28.4303 42.2942 28.8203 42.1209 29.271C41.9562 29.7217 41.7699 30.1897 41.5619 30.675C41.6399 30.6837 41.7222 30.701 41.8089 30.727C41.9215 30.753 41.9779 30.8223 41.9779 30.935C41.9779 30.9957 41.9475 31.0563 41.8869 31.117C41.8349 31.1777 41.7655 31.195 41.6789 31.169C41.6182 31.1517 41.5575 31.1387 41.4969 31.13C41.4449 31.1213 41.4015 31.117 41.3669 31.117C41.1069 31.6803 40.8382 32.222 40.5609 32.742C40.2835 33.2707 40.0235 33.717 39.7809 34.081C39.5642 34.393 39.3215 34.692 39.0529 34.978C38.7842 35.2727 38.4982 35.511 38.1949 35.693C37.8915 35.875 37.5839 35.966 37.2719 35.966C36.9252 35.966 36.6565 35.8793 36.4659 35.706C36.2752 35.5327 36.1799 35.303 36.1799 35.017C36.1799 34.757 36.2492 34.4667 36.3879 34.146C36.5179 33.8253 36.6999 33.5047 36.9339 33.184C37.2199 32.794 37.5752 32.4127 37.9999 32.04C38.4332 31.6673 38.9099 31.3553 39.4299 31.104C39.9499 30.8613 40.4915 30.7183 41.0549 30.675C41.1935 30.3543 41.3235 30.051 41.4449 29.765C41.5662 29.4703 41.6702 29.2017 41.7569 28.959C41.2195 29.5743 40.7255 30.0553 40.2749 30.402C39.8329 30.74 39.4862 30.909 39.2349 30.909ZM36.6609 34.965C36.6609 35.121 36.7085 35.251 36.8039 35.355C36.8992 35.459 37.0682 35.511 37.3109 35.511C37.6055 35.511 37.9089 35.381 38.2209 35.121C38.5329 34.8697 38.8405 34.5317 39.1439 34.107C39.4559 33.6823 39.7549 33.2143 40.0409 32.703C40.3269 32.1917 40.5912 31.6717 40.8339 31.143C40.3572 31.2123 39.8979 31.3597 39.4559 31.585C39.0139 31.819 38.6065 32.0963 38.2339 32.417C37.8699 32.7463 37.5622 33.0887 37.3109 33.444C37.2415 33.5393 37.1549 33.6737 37.0509 33.847C36.9469 34.029 36.8559 34.2153 36.7779 34.406C36.6999 34.6053 36.6609 34.7917 36.6609 34.965ZM47.4477 31.962C46.9017 31.962 46.5074 31.845 46.2647 31.611C46.0307 31.377 45.9137 31.117 45.9137 30.831C45.9137 30.5363 46.0307 30.2633 46.2647 30.012C46.4987 29.7607 46.8151 29.635 47.2137 29.635C47.3351 29.635 47.4607 29.648 47.5907 29.674C47.6687 29.6827 47.7251 29.713 47.7597 29.765C47.8031 29.817 47.8247 29.869 47.8247 29.921C47.8247 29.973 47.8031 30.0163 47.7597 30.051C47.7164 30.0857 47.6557 30.0943 47.5777 30.077C47.5344 30.0597 47.4911 30.051 47.4477 30.051C47.4044 30.051 47.3611 30.051 47.3177 30.051C47.0491 30.051 46.8281 30.1333 46.6547 30.298C46.4901 30.4627 46.4077 30.6403 46.4077 30.831C46.4077 31.0043 46.4857 31.156 46.6417 31.286C46.8064 31.4247 47.0751 31.494 47.4477 31.494C47.9417 31.494 48.3881 31.3987 48.7867 31.208C49.1941 31.0173 49.5624 30.766 49.8917 30.454C50.2211 30.142 50.5244 29.804 50.8017 29.44C51.0877 29.0673 51.3564 28.7077 51.6077 28.361C51.9717 27.8497 52.3487 27.321 52.7387 26.775C53.1287 26.2203 53.5187 25.6917 53.9087 25.189C54.2987 24.6863 54.6887 24.253 55.0787 23.889C54.8534 23.837 54.6107 23.798 54.3507 23.772C54.0907 23.746 53.8091 23.733 53.5057 23.733C52.5871 23.733 51.7811 23.8197 51.0877 23.993C50.4031 24.1577 49.8181 24.3743 49.3327 24.643C48.8561 24.9117 48.4791 25.202 48.2017 25.514C47.9244 25.826 47.7381 26.125 47.6427 26.411C47.5821 26.6017 47.5517 26.7923 47.5517 26.983C47.5517 27.2777 47.6384 27.4987 47.8117 27.646C47.9937 27.7933 48.2277 27.867 48.5137 27.867C48.7997 27.867 49.1291 27.789 49.5017 27.633C49.8831 27.4683 50.2687 27.2127 50.6587 26.866C51.0487 26.5107 51.4041 26.0513 51.7247 25.488C51.7767 25.4013 51.8417 25.358 51.9197 25.358C52.0497 25.358 52.1147 25.423 52.1147 25.553C52.1147 25.5963 52.1017 25.644 52.0757 25.696C51.7291 26.3027 51.3434 26.801 50.9187 27.191C50.5027 27.581 50.0824 27.8713 49.6577 28.062C49.2417 28.244 48.8517 28.335 48.4877 28.335C48.0804 28.335 47.7424 28.2223 47.4737 27.997C47.2051 27.763 47.0707 27.4337 47.0707 27.009C47.0707 26.775 47.1141 26.528 47.2007 26.268C47.3134 25.9127 47.5301 25.5573 47.8507 25.202C48.1714 24.8467 48.5917 24.526 49.1117 24.24C49.6404 23.9453 50.2687 23.7113 50.9967 23.538C51.7334 23.356 52.5697 23.265 53.5057 23.265C53.8957 23.265 54.2554 23.2867 54.5847 23.33C54.9227 23.3733 55.2261 23.434 55.4947 23.512C55.7374 23.304 55.9757 23.1437 56.2097 23.031C56.4524 22.9183 56.6864 22.862 56.9117 22.862C56.9984 22.862 57.0677 22.888 57.1197 22.94C57.1717 22.992 57.1977 23.044 57.1977 23.096C57.1977 23.2 57.1327 23.252 57.0027 23.252C56.7254 23.252 56.3961 23.3993 56.0147 23.694C56.5261 23.9107 56.8987 24.1923 57.1327 24.539C57.3754 24.877 57.4967 25.241 57.4967 25.631C57.4967 26.021 57.3797 26.4153 57.1457 26.814C56.9204 27.2127 56.5911 27.581 56.1577 27.919C55.7331 28.2483 55.2174 28.5127 54.6107 28.712C54.0041 28.9113 53.3281 29.011 52.5827 29.011C52.4441 29.011 52.3054 29.0067 52.1667 28.998C52.0281 28.9893 51.8981 28.9763 51.7767 28.959C51.3867 29.4877 50.9837 29.9817 50.5677 30.441C50.1517 30.8917 49.6881 31.2557 49.1767 31.533C48.6741 31.819 48.0977 31.962 47.4477 31.962ZM52.1927 28.387C52.1754 28.413 52.1581 28.439 52.1407 28.465C52.1234 28.4823 52.1061 28.504 52.0887 28.53C52.2447 28.5387 52.3964 28.543 52.5437 28.543C53.2111 28.543 53.8177 28.4563 54.3637 28.283C54.9184 28.1097 55.3951 27.88 55.7937 27.594C56.1924 27.308 56.4957 26.996 56.7037 26.658C56.9204 26.32 57.0287 25.982 57.0287 25.644C57.0287 25.3147 56.9117 25.007 56.6777 24.721C56.4524 24.435 56.0971 24.2053 55.6117 24.032C55.1697 24.4307 54.7537 24.877 54.3637 25.371C53.9824 25.8563 53.6097 26.359 53.2457 26.879C52.8904 27.399 52.5394 27.9017 52.1927 28.387ZM57.2769 31.104C57.2163 31.104 57.1599 31.0823 57.1079 31.039C57.0559 31.0043 57.0343 30.948 57.0429 30.87C57.0776 30.4367 57.1989 29.9297 57.4069 29.349C57.6236 28.7683 57.8879 28.179 58.1999 27.581C58.0959 27.5723 57.9919 27.5593 57.8879 27.542C57.8273 27.5247 57.7796 27.4943 57.7449 27.451C57.7103 27.4077 57.6929 27.3643 57.6929 27.321C57.6929 27.2777 57.7059 27.2387 57.7319 27.204C57.7666 27.1607 57.8143 27.139 57.8749 27.139C57.9269 27.139 57.9833 27.1477 58.0439 27.165C58.1133 27.1737 58.1869 27.178 58.2649 27.178C58.3169 27.178 58.3646 27.178 58.4079 27.178C58.7113 26.5973 59.0319 26.0513 59.3699 25.54C59.7079 25.02 60.0199 24.5867 60.3059 24.24C60.4793 24.032 60.6613 23.8327 60.8519 23.642C61.0426 23.4513 61.2376 23.2953 61.4369 23.174C61.6449 23.044 61.8443 22.979 62.0349 22.979C62.2863 22.979 62.4596 23.0483 62.5549 23.187C62.6589 23.317 62.7109 23.4817 62.7109 23.681C62.7109 23.967 62.6329 24.2573 62.4769 24.552C62.3469 24.7947 62.1519 25.0763 61.8919 25.397C61.6319 25.709 61.3286 26.021 60.9819 26.333C60.6439 26.6363 60.2756 26.9007 59.8769 27.126C59.4869 27.3513 59.0883 27.4943 58.6809 27.555C58.4989 27.9017 58.3343 28.244 58.1869 28.582C58.0483 28.92 57.9269 29.2407 57.8229 29.544C57.8923 29.4573 57.9616 29.3707 58.0309 29.284C58.2563 29.0067 58.4816 28.7467 58.7069 28.504C58.9323 28.2527 59.2183 28.0013 59.5649 27.75C59.9116 27.4987 60.2193 27.2993 60.4879 27.152C60.7653 26.996 60.9473 26.9223 61.0339 26.931C61.2159 26.957 61.3069 27.0567 61.3069 27.23C61.3069 27.3427 61.2723 27.4727 61.2029 27.62C61.1423 27.7587 61.0773 27.8843 61.0079 27.997C60.9386 28.1097 60.8909 28.1877 60.8649 28.231C60.7696 28.3783 60.6396 28.5993 60.4749 28.894C60.3103 29.1887 60.1716 29.4747 60.0589 29.752C60.0243 29.8473 59.9896 29.947 59.9549 30.051C59.9289 30.1463 59.9159 30.2287 59.9159 30.298C59.9159 30.4107 59.9636 30.467 60.0589 30.467C60.1456 30.467 60.2713 30.4237 60.4359 30.337C60.6439 30.2243 60.8346 30.0813 61.0079 29.908C61.1899 29.726 61.3459 29.57 61.4759 29.44C61.4846 29.4313 61.5236 29.388 61.5929 29.31C61.6709 29.232 61.7446 29.154 61.8139 29.076C61.8919 28.998 61.9309 28.959 61.9309 28.959C61.9656 28.9157 62.0089 28.894 62.0609 28.894C62.1043 28.894 62.1433 28.92 62.1779 28.972C62.2213 29.0153 62.2429 29.0717 62.2429 29.141C62.2429 29.219 62.2213 29.284 62.1779 29.336C62.0479 29.518 61.8703 29.7173 61.6449 29.934C61.4196 30.1507 61.2203 30.3283 61.0469 30.467C60.8649 30.6057 60.6786 30.714 60.4879 30.792C60.2973 30.87 60.1239 30.909 59.9679 30.909C59.8033 30.909 59.6646 30.8613 59.5519 30.766C59.4479 30.6707 59.3959 30.519 59.3959 30.311C59.3959 30.1203 59.4393 29.908 59.5259 29.674C59.6473 29.3187 59.8249 28.9677 60.0589 28.621C60.3016 28.2743 60.5009 27.9407 60.6569 27.62C60.0243 27.9927 59.4393 28.4477 58.9019 28.985C58.3646 29.5223 57.9053 30.09 57.5239 30.688C57.5153 30.7573 57.5066 30.8267 57.4979 30.896C57.4979 30.9653 57.4719 31.0173 57.4199 31.052C57.3766 31.0867 57.3289 31.104 57.2769 31.104ZM62.0219 23.434C61.8573 23.434 61.6623 23.525 61.4369 23.707C61.2116 23.889 60.9776 24.1273 60.7349 24.422C60.5009 24.708 60.2669 25.02 60.0329 25.358C59.7989 25.6873 59.5866 26.008 59.3959 26.32C59.2053 26.6233 59.0536 26.8747 58.9409 27.074C59.2876 26.9527 59.6603 26.762 60.0589 26.502C60.4576 26.242 60.8346 25.93 61.1899 25.566C61.5453 25.202 61.8399 24.799 62.0739 24.357C62.1433 24.2183 62.1909 24.1013 62.2169 24.006C62.2516 23.902 62.2689 23.8153 62.2689 23.746C62.2689 23.6247 62.2386 23.5423 62.1779 23.499C62.1259 23.4557 62.0739 23.434 62.0219 23.434ZM62.5087 31.221C62.2141 31.221 62.0061 31.1387 61.8847 30.974C61.7634 30.8007 61.7027 30.5883 61.7027 30.337C61.7027 30.129 61.7331 29.9037 61.7937 29.661C61.8631 29.4097 61.9497 29.1627 62.0537 28.92C62.0624 28.582 62.1534 28.2483 62.3267 27.919C62.5087 27.5897 62.7514 27.3167 63.0547 27.1C63.3667 26.8833 63.7307 26.775 64.1467 26.775C64.5541 26.775 64.8357 26.892 64.9917 27.126C65.1564 27.36 65.2387 27.6373 65.2387 27.958C65.2387 28.1487 65.2171 28.3437 65.1737 28.543C65.1304 28.7337 65.0741 28.9157 65.0047 29.089C64.9354 29.2623 64.8487 29.44 64.7447 29.622C64.6407 29.7953 64.5237 29.9687 64.3937 30.142C64.6537 30.0987 64.8791 30.0163 65.0697 29.895C65.2691 29.765 65.4684 29.5873 65.6677 29.362C65.8671 29.1367 66.1011 28.8507 66.3697 28.504C66.4217 28.4433 66.4781 28.413 66.5387 28.413C66.6081 28.413 66.6644 28.4347 66.7077 28.478C66.7597 28.5213 66.7857 28.5777 66.7857 28.647C66.7857 28.699 66.7684 28.7467 66.7337 28.79C66.4824 29.1367 66.2267 29.4487 65.9667 29.726C65.7154 30.0033 65.4294 30.22 65.1087 30.376C64.7881 30.532 64.4024 30.61 63.9517 30.61C63.7437 30.792 63.5184 30.9393 63.2757 31.052C63.0331 31.1647 62.7774 31.221 62.5087 31.221ZM63.2627 27.854C63.1587 27.932 63.0331 28.088 62.8857 28.322C62.7384 28.556 62.6041 28.8117 62.4827 29.089C62.5001 29.3577 62.6084 29.6003 62.8077 29.817C63.0157 30.025 63.3321 30.142 63.7567 30.168C64.0687 29.8647 64.3201 29.5093 64.5107 29.102C64.7014 28.686 64.7967 28.3133 64.7967 27.984C64.7967 27.7587 64.7447 27.5767 64.6407 27.438C64.5367 27.2993 64.3721 27.23 64.1467 27.23C63.9907 27.23 63.8391 27.256 63.6917 27.308C63.5444 27.36 63.4101 27.4293 63.2887 27.516C63.3321 27.5593 63.3537 27.6113 63.3537 27.672C63.3537 27.7413 63.3234 27.802 63.2627 27.854ZM62.1577 30.311C62.1577 30.4497 62.1837 30.5623 62.2357 30.649C62.2964 30.727 62.3874 30.766 62.5087 30.766C62.7601 30.766 63.0157 30.688 63.2757 30.532C63.0244 30.4713 62.8121 30.376 62.6387 30.246C62.4654 30.1073 62.3311 29.9513 62.2357 29.778C62.1837 29.986 62.1577 30.1637 62.1577 30.311ZM66.9987 31.13C66.522 31.13 66.2837 30.8917 66.2837 30.415C66.2837 30.2157 66.327 29.9903 66.4137 29.739C66.5437 29.3577 66.7387 28.946 66.9987 28.504C67.2674 28.062 67.5404 27.6373 67.8177 27.23H67.3497C67.2804 27.23 67.224 27.2083 67.1807 27.165C67.146 27.113 67.1287 27.0567 67.1287 26.996C67.1287 26.944 67.146 26.8963 67.1807 26.853C67.224 26.801 67.2804 26.775 67.3497 26.775H68.1427C68.238 26.6537 68.3247 26.5367 68.4027 26.424C68.4807 26.3027 68.5587 26.1857 68.6367 26.073C68.758 25.761 68.9054 25.462 69.0787 25.176C69.2607 24.89 69.4817 24.6603 69.7417 24.487C69.785 24.461 69.824 24.448 69.8587 24.448C69.928 24.448 69.9887 24.4827 70.0407 24.552C70.0927 24.6127 70.1187 24.682 70.1187 24.76C70.1187 24.8207 70.097 24.8857 70.0537 24.955C70.0277 24.9897 69.9454 25.098 69.8067 25.28C69.668 25.462 69.5034 25.6873 69.3127 25.956C69.122 26.216 68.9227 26.489 68.7147 26.775H69.9627C70.0407 26.775 70.097 26.801 70.1317 26.853C70.1664 26.8963 70.1837 26.944 70.1837 26.996C70.1837 27.0567 70.1664 27.113 70.1317 27.165C70.097 27.2083 70.0407 27.23 69.9627 27.23H68.4027L68.2857 27.412C68.2077 27.5247 68.0907 27.7067 67.9347 27.958C67.7874 28.2093 67.627 28.4867 67.4537 28.79C67.289 29.0933 67.146 29.388 67.0247 29.674C66.912 29.9513 66.8557 30.181 66.8557 30.363C66.8557 30.5797 66.9467 30.688 67.1287 30.688C67.276 30.688 67.497 30.6187 67.7917 30.48C68.095 30.3327 68.394 30.1333 68.6887 29.882C68.862 29.7347 69.0224 29.5787 69.1697 29.414C69.317 29.2493 69.4557 29.0977 69.5857 28.959C69.6204 28.9157 69.6637 28.894 69.7157 28.894C69.759 28.894 69.798 28.92 69.8327 28.972C69.876 29.0153 69.8977 29.0717 69.8977 29.141C69.8977 29.219 69.876 29.284 69.8327 29.336C69.7027 29.518 69.5207 29.7217 69.2867 29.947C69.0614 30.1637 68.862 30.337 68.6887 30.467C68.3594 30.7097 68.004 30.8917 67.6227 31.013C67.3887 31.091 67.1807 31.13 66.9987 31.13ZM70.1386 31.221C69.844 31.221 69.636 31.1387 69.5146 30.974C69.3933 30.8007 69.3326 30.5883 69.3326 30.337C69.3326 30.129 69.363 29.9037 69.4236 29.661C69.493 29.4097 69.5796 29.1627 69.6836 28.92C69.6923 28.582 69.7833 28.2483 69.9566 27.919C70.1386 27.5897 70.3813 27.3167 70.6846 27.1C70.9966 26.8833 71.3606 26.775 71.7766 26.775C72.184 26.775 72.4656 26.892 72.6216 27.126C72.7863 27.36 72.8686 27.6373 72.8686 27.958C72.8686 28.1487 72.847 28.3437 72.8036 28.543C72.7603 28.7337 72.704 28.9157 72.6346 29.089C72.5653 29.2623 72.4786 29.44 72.3746 29.622C72.2706 29.7953 72.1536 29.9687 72.0236 30.142C72.2836 30.0987 72.509 30.0163 72.6996 29.895C72.899 29.765 73.0983 29.5873 73.2976 29.362C73.497 29.1367 73.731 28.8507 73.9996 28.504C74.0516 28.4433 74.108 28.413 74.1686 28.413C74.238 28.413 74.2943 28.4347 74.3376 28.478C74.3896 28.5213 74.4156 28.5777 74.4156 28.647C74.4156 28.699 74.3983 28.7467 74.3636 28.79C74.1123 29.1367 73.8566 29.4487 73.5966 29.726C73.3453 30.0033 73.0593 30.22 72.7386 30.376C72.418 30.532 72.0323 30.61 71.5816 30.61C71.3736 30.792 71.1483 30.9393 70.9056 31.052C70.663 31.1647 70.4073 31.221 70.1386 31.221ZM70.8926 27.854C70.7886 27.932 70.663 28.088 70.5156 28.322C70.3683 28.556 70.234 28.8117 70.1126 29.089C70.13 29.3577 70.2383 29.6003 70.4376 29.817C70.6456 30.025 70.962 30.142 71.3866 30.168C71.6986 29.8647 71.95 29.5093 72.1406 29.102C72.3313 28.686 72.4266 28.3133 72.4266 27.984C72.4266 27.7587 72.3746 27.5767 72.2706 27.438C72.1666 27.2993 72.002 27.23 71.7766 27.23C71.6206 27.23 71.469 27.256 71.3216 27.308C71.1743 27.36 71.04 27.4293 70.9186 27.516C70.962 27.5593 70.9836 27.6113 70.9836 27.672C70.9836 27.7413 70.9533 27.802 70.8926 27.854ZM69.7876 30.311C69.7876 30.4497 69.8136 30.5623 69.8656 30.649C69.9263 30.727 70.0173 30.766 70.1386 30.766C70.39 30.766 70.6456 30.688 70.9056 30.532C70.6543 30.4713 70.442 30.376 70.2686 30.246C70.0953 30.1073 69.961 29.9513 69.8656 29.778C69.8136 29.986 69.7876 30.1637 69.7876 30.311Z" fill="white"/>
<defs>
<clipPath id="clip0_26_480">
<rect width="11.7343" height="12" fill="white" transform="translate(30.6329)"/>
</clipPath>
</defs>
</svg>
