<svg width="91" height="37" viewBox="0 0 91 37" fill="none" xmlns="http://www.w3.org/2000/svg">
<g clip-path="url(#clip0_26_477)">
<path d="M49.5561 6.8293C48.7293 6.32944 47.7844 6.15479 46.8395 6.04639C46.9399 5.79344 46.9931 5.52846 46.9931 5.25745C47.938 5.26949 48.9655 4.66725 49.6092 4.05296C50.2529 3.43867 51.0502 2.23418 50.3828 1.35491C49.7096 0.469607 48.3632 1.14412 47.6309 1.58978C46.8691 2.05351 46.2076 2.71598 46.0482 3.58923C45.7057 3.37242 45.3041 3.24595 44.9084 3.24595C44.8789 2.28236 44.6073 1.22843 43.9399 0.535854C43.3671 -0.0543453 42.434 -0.247063 41.8789 0.469607C40.7687 1.89693 42.2923 3.65548 43.7332 4.04694C43.7332 4.05898 43.7332 4.07103 43.7451 4.08307C43.4262 4.38419 43.2136 4.80576 43.1781 5.26347C42.1683 5.09484 40.9872 5.22734 40.0836 5.61879C39.3513 5.93196 38.808 6.82328 39.3691 7.552C39.8947 8.23253 40.9163 8.11811 41.6427 7.9555C42.4695 7.77483 43.2549 7.40144 43.81 6.76306C43.9104 6.84737 44.0108 6.91964 44.123 6.98589C43.1013 8.10606 41.7195 11.7316 43.5265 12.2194C44.4183 12.4603 45.1801 11.298 45.4813 10.6114C45.9714 9.50327 45.9183 8.33491 45.6525 7.19065C45.6821 7.17861 45.7175 7.17861 45.747 7.16656C45.8592 7.1244 45.9655 7.0702 46.0659 7.00998C46.5265 7.88323 47.6368 8.66615 48.4517 9.05159C49.0777 9.34668 50.5069 9.64781 50.8317 8.72035C51.0915 7.98561 50.0817 7.15452 49.5561 6.83533V6.8293ZM42.4754 1.31275C42.5994 0.319046 43.5147 1.10799 43.7687 1.60785C44.058 2.16794 44.1702 2.77018 44.1821 3.39651C44.1407 3.41458 44.1053 3.43867 44.0639 3.46276C43.249 3.0713 42.3513 2.30043 42.4695 1.31877L42.4754 1.31275ZM40.7214 7.19667C40.5915 7.19667 40.4616 7.18463 40.3317 7.15452C40.4025 6.89555 40.4675 6.63056 40.5384 6.3716C40.6388 6.27524 41.1998 6.22104 41.3179 6.20297C42.0147 6.0765 42.6643 6.01025 43.3494 6.1849C43.3671 6.22104 43.3907 6.25717 43.4143 6.29331C42.6643 6.88351 41.6604 7.23883 40.7214 7.2027V7.19667ZM45.0088 9.26237C44.9084 9.73212 44.3947 11.304 43.8218 10.9848C43.3612 10.7258 43.8041 9.34669 43.9399 8.91307C44.1289 8.3048 44.4832 7.78687 44.6958 7.2027C44.8258 7.23281 44.9616 7.25088 45.0974 7.25088C45.1388 7.92539 45.1447 8.61195 45.0088 9.26237ZM45.3691 6.29331C44.8258 6.44989 44.1939 6.10661 44.0285 5.55857C43.8868 5.08882 44.0876 4.601 44.4242 4.26977C45.0443 4.13125 45.7588 4.12523 46.0246 4.87201C46.2195 5.40801 45.9183 6.13672 45.3632 6.29933L45.3691 6.29331ZM46.4911 3.95058C46.6919 3.33027 47.123 2.85449 47.6663 2.49315C48.0029 2.27032 49.5561 1.32479 49.7569 2.09567C49.9104 2.68587 48.9655 3.4748 48.5699 3.74581C47.9911 4.13727 47.4065 4.19148 46.7746 4.36613C46.6978 4.21557 46.6033 4.07705 46.4852 3.95058H46.4911ZM47.9616 7.70858C47.5482 7.39541 47.2175 6.9618 46.8277 6.61852C47.8494 6.86544 49.3612 7.23281 49.8041 8.17833C50.1466 8.90705 48.2332 7.91937 47.9616 7.7146V7.70858Z" fill="white"/>
</g>
<path d="M7.5178 31.9786C7.1798 31.9786 6.9328 31.8703 6.7768 31.6536C6.62947 31.4369 6.5558 31.1683 6.5558 30.8476C6.5558 30.4403 6.65547 29.9636 6.8548 29.4176C7.05413 28.8629 7.35313 28.2736 7.7518 27.6496C8.18513 26.9389 8.48413 26.3453 8.6488 25.8686C8.82213 25.3833 8.9088 24.9846 8.9088 24.6726C8.9088 24.3519 8.83947 24.1093 8.7008 23.9446C8.5708 23.7713 8.40613 23.6543 8.2068 23.5936C8.01613 23.5243 7.8298 23.4896 7.6478 23.4896C7.06713 23.4896 6.52547 23.5936 6.0228 23.8016C5.5288 24.0009 5.08247 24.2696 4.6838 24.6076C4.28513 24.9456 3.94713 25.3183 3.6698 25.7256C3.39247 26.1243 3.18013 26.5273 3.0328 26.9346C2.88547 27.3419 2.8118 27.7189 2.8118 28.0656C2.8118 28.4383 2.9028 28.7416 3.0848 28.9756C3.2668 29.2009 3.54847 29.3136 3.9298 29.3136C4.28513 29.3136 4.61013 29.2269 4.9048 29.0536C5.20813 28.8803 5.47247 28.6593 5.6978 28.3906C5.92313 28.1219 6.09647 27.8446 6.2178 27.5586C6.3478 27.2726 6.4128 27.0126 6.4128 26.7786C6.4128 26.6053 6.36947 26.4623 6.2828 26.3496C6.2048 26.2283 6.07047 26.1676 5.8798 26.1676C5.81047 26.1676 5.75413 26.1459 5.7108 26.1026C5.67613 26.0506 5.6588 25.9943 5.6588 25.9336C5.6588 25.8729 5.67613 25.8209 5.7108 25.7776C5.75413 25.7256 5.81047 25.6996 5.8798 25.6996C6.23513 25.6996 6.4908 25.7993 6.6468 25.9986C6.81147 26.1979 6.8938 26.4493 6.8938 26.7526C6.8938 27.0559 6.82013 27.3853 6.6728 27.7406C6.52547 28.0873 6.31747 28.4166 6.0488 28.7286C5.7888 29.0406 5.4768 29.2963 5.1128 29.4956C4.75747 29.6949 4.36313 29.7946 3.9298 29.7946C3.37513 29.7946 2.9678 29.6343 2.7078 29.3136C2.45647 28.9929 2.3308 28.5899 2.3308 28.1046C2.3308 27.7059 2.4088 27.2769 2.5648 26.8176C2.72947 26.3496 2.96347 25.8946 3.2668 25.4526C3.5788 25.0019 3.95147 24.5946 4.3848 24.2306C4.81813 23.8579 5.3078 23.5633 5.8538 23.3466C6.40847 23.1213 7.00647 23.0086 7.6478 23.0086C7.9598 23.0086 8.2458 23.0649 8.5058 23.1776C8.77447 23.2903 8.9868 23.4679 9.1428 23.7106C9.30747 23.9446 9.3898 24.2566 9.3898 24.6466C9.3898 25.0366 9.29447 25.5003 9.1038 26.0376C8.91313 26.5663 8.5968 27.1903 8.1548 27.9096C7.78213 28.5163 7.49613 29.0709 7.2968 29.5736C7.10613 30.0676 7.0108 30.4793 7.0108 30.8086C7.0108 31.0513 7.0628 31.2246 7.1668 31.3286C7.2708 31.4326 7.4008 31.4889 7.5568 31.4976C7.7908 31.4716 8.04647 31.3459 8.3238 31.1206C8.6098 30.8953 8.90013 30.6136 9.1948 30.2756C9.48947 29.9289 9.77113 29.5606 10.0398 29.1706C10.3171 28.7806 10.5641 28.4079 10.7808 28.0526C10.9975 27.6973 11.1708 27.3983 11.3008 27.1556C11.3355 27.0863 11.3658 27.0169 11.3918 26.9476C11.4265 26.8696 11.4568 26.8089 11.4828 26.7656C11.5348 26.6789 11.6085 26.6356 11.7038 26.6356C11.7731 26.6356 11.8338 26.6659 11.8858 26.7266C11.9378 26.7786 11.9465 26.8523 11.9118 26.9476C11.9031 26.9823 11.8815 27.0343 11.8468 27.1036C11.8208 27.1729 11.7905 27.2509 11.7558 27.3376C11.4958 27.9443 11.3008 28.4859 11.1708 28.9626C11.0408 29.4306 10.9758 29.8206 10.9758 30.1326C10.9758 30.5139 11.0538 30.7956 11.2098 30.9776C11.3745 31.1509 11.5781 31.2376 11.8208 31.2376C12.0808 31.2376 12.3711 31.1553 12.6918 30.9906C13.0125 30.8259 13.3375 30.5919 13.6668 30.2886C14.0048 29.9853 14.3211 29.6299 14.6158 29.2226C14.9105 28.8066 15.1618 28.3559 15.3698 27.8706C15.4911 27.6193 15.5691 27.3896 15.6038 27.1816C15.6471 26.9649 15.6688 26.7613 15.6688 26.5706C15.6688 26.2326 15.6038 25.9509 15.4738 25.7256C15.3525 25.5003 15.1965 25.3313 15.0058 25.2186C14.8238 25.1059 14.6375 25.0496 14.4468 25.0496C14.3861 25.0496 14.3255 25.0539 14.2648 25.0626C14.2128 25.0713 14.1608 25.0886 14.1088 25.1146C14.0915 25.1233 14.0655 25.1276 14.0308 25.1276C13.9615 25.1276 13.9051 25.1016 13.8618 25.0496C13.8185 24.9889 13.7968 24.9283 13.7968 24.8676C13.7968 24.7723 13.8445 24.7073 13.9398 24.6726C14.0351 24.6293 14.1305 24.5989 14.2258 24.5816C14.3298 24.5643 14.4251 24.5556 14.5118 24.5556C14.8065 24.5556 15.0751 24.6423 15.3178 24.8156C15.5691 24.9889 15.7685 25.2316 15.9158 25.5436C16.0631 25.8469 16.1368 26.2023 16.1368 26.6096C16.1368 26.8263 16.1065 27.0559 16.0458 27.2986C15.9938 27.5413 15.9201 27.7839 15.8248 28.0266C15.5475 28.6853 15.1835 29.2876 14.7328 29.8336C14.2908 30.3796 13.8098 30.8173 13.2898 31.1466C12.7698 31.4673 12.2498 31.6276 11.7298 31.6276C11.6518 31.6276 11.5695 31.6233 11.4828 31.6146C11.4048 31.6059 11.3268 31.5929 11.2488 31.5756C10.9541 31.5063 10.7505 31.3589 10.6378 31.1336C10.5338 30.8996 10.4818 30.6223 10.4818 30.3016C10.4818 30.1283 10.4948 29.9506 10.5208 29.7686C10.5468 29.5866 10.5771 29.4003 10.6118 29.2096C10.3085 29.6603 9.9748 30.0979 9.6108 30.5226C9.2468 30.9473 8.8828 31.2939 8.5188 31.5626C8.16347 31.8399 7.8298 31.9786 7.5178 31.9786ZM17.9901 31.4326C17.7214 31.4326 17.4918 31.3503 17.3011 31.1856C17.1191 31.0209 17.0281 30.7349 17.0281 30.3276C17.0281 30.0503 17.0974 29.7253 17.2361 29.3526C17.3834 28.9799 17.5784 28.6203 17.8211 28.2736C18.0638 27.9183 18.3324 27.6279 18.6271 27.4026C18.9218 27.1686 19.2208 27.0516 19.5241 27.0516C19.7234 27.0516 19.8708 27.1253 19.9661 27.2726C20.0701 27.4113 20.1221 27.5803 20.1221 27.7796C20.1221 28.0743 20.0268 28.3603 19.8361 28.6376C19.6454 28.9149 19.4028 29.1403 19.1081 29.3136C18.8221 29.4869 18.5361 29.5736 18.2501 29.5736C18.0161 29.5736 17.8384 29.4999 17.7171 29.3526C17.6478 29.5259 17.5914 29.6949 17.5481 29.8596C17.5048 30.0243 17.4831 30.1803 17.4831 30.3276C17.4831 30.5789 17.5351 30.7566 17.6391 30.8606C17.7518 30.9559 17.8904 31.0036 18.0551 31.0036C18.2544 31.0036 18.4754 30.9516 18.7181 30.8476C18.9694 30.7436 19.2034 30.6223 19.4201 30.4836C19.6368 30.3363 19.7971 30.2149 19.9011 30.1196C20.0744 29.9723 20.2391 29.8119 20.3951 29.6386C20.5598 29.4566 20.7028 29.2876 20.8241 29.1316C20.8674 29.0796 20.9151 29.0536 20.9671 29.0536C21.0191 29.0536 21.0624 29.0796 21.0971 29.1316C21.1404 29.1749 21.1621 29.2313 21.1621 29.3006C21.1621 29.3613 21.1404 29.4219 21.0971 29.4826C20.9584 29.6559 20.7851 29.8553 20.5771 30.0806C20.3778 30.2973 20.1524 30.5009 19.9011 30.6916C19.7624 30.8043 19.5848 30.9169 19.3681 31.0296C19.1514 31.1423 18.9218 31.2376 18.6791 31.3156C18.4451 31.3936 18.2154 31.4326 17.9901 31.4326ZM18.2241 29.1576C18.3974 29.1576 18.5838 29.1013 18.7831 28.9886C18.9911 28.8759 19.1731 28.7286 19.3291 28.5466C19.4938 28.3559 19.6021 28.1523 19.6541 27.9356C19.6628 27.9183 19.6671 27.8966 19.6671 27.8706C19.6671 27.8446 19.6671 27.8229 19.6671 27.8056C19.6671 27.6496 19.6108 27.5716 19.4981 27.5716C19.3161 27.5716 19.1254 27.6409 18.9261 27.7796C18.7268 27.9096 18.5361 28.0873 18.3541 28.3126C18.1808 28.5293 18.0248 28.7676 17.8861 29.0276C17.9208 29.0536 17.9554 29.0796 17.9901 29.1056C18.0248 29.1229 18.0594 29.1359 18.0941 29.1446C18.1114 29.1533 18.1331 29.1576 18.1591 29.1576C18.1851 29.1576 18.2068 29.1576 18.2241 29.1576ZM21.013 31.3026C20.7704 31.3026 20.5884 31.2333 20.467 31.0946C20.3544 30.9473 20.298 30.7653 20.298 30.5486C20.298 30.3059 20.3674 30.0243 20.506 29.7036C20.6534 29.3743 20.844 29.0363 21.078 28.6896C21.312 28.3429 21.5677 28.0223 21.845 27.7276C22.131 27.4243 22.417 27.1816 22.703 26.9996C22.989 26.8089 23.2534 26.7136 23.496 26.7136C23.6694 26.7136 23.8384 26.7439 24.003 26.8046C24.1764 26.8566 24.3064 26.9693 24.393 27.1426C24.6097 26.6399 24.8697 26.1416 25.173 25.6476C25.4764 25.1449 25.7884 24.6943 26.109 24.2956C26.4384 23.8969 26.7504 23.5979 27.045 23.3986C27.2617 23.2513 27.4567 23.1776 27.63 23.1776C27.7687 23.1776 27.877 23.2253 27.955 23.3206C28.0417 23.4073 28.085 23.5416 28.085 23.7236C28.085 24.0703 27.9897 24.4386 27.799 24.8286C27.617 25.2186 27.3744 25.6086 27.071 25.9986C26.7677 26.3886 26.4384 26.7699 26.083 27.1426C25.7364 27.5066 25.3984 27.8489 25.069 28.1696C24.7397 28.4816 24.4537 28.7546 24.211 28.9886C24.0724 29.2226 23.938 29.4956 23.808 29.8076C23.6867 30.1109 23.626 30.3666 23.626 30.5746C23.626 30.8086 23.717 30.9256 23.899 30.9256C24.0464 30.9256 24.2674 30.8563 24.562 30.7176C24.8654 30.5703 25.16 30.3709 25.446 30.1196C25.6194 29.9723 25.7797 29.8163 25.927 29.6516C26.0744 29.4869 26.213 29.3353 26.343 29.1966C26.3777 29.1533 26.421 29.1316 26.473 29.1316C26.5164 29.1316 26.5554 29.1576 26.59 29.2096C26.6334 29.2529 26.655 29.3093 26.655 29.3786C26.655 29.4566 26.6334 29.5216 26.59 29.5736C26.46 29.7556 26.278 29.9593 26.044 30.1846C25.8187 30.4013 25.6194 30.5746 25.446 30.7046C25.1167 30.9473 24.7614 31.1293 24.38 31.2506C24.146 31.3286 23.938 31.3676 23.756 31.3676C23.2794 31.3676 23.041 31.1293 23.041 30.6526C23.041 30.4533 23.0844 30.2279 23.171 29.9766C23.171 29.9679 23.1754 29.9593 23.184 29.9506C22.9154 30.1759 22.638 30.3926 22.352 30.6006C22.0747 30.8086 21.8147 30.9776 21.572 31.1076C21.3294 31.2376 21.143 31.3026 21.013 31.3026ZM24.419 28.1046C24.5057 28.0353 24.6574 27.8966 24.874 27.6886C25.0907 27.4806 25.3377 27.2336 25.615 26.9476C25.901 26.6529 26.1827 26.3366 26.46 25.9986C26.7374 25.6606 26.98 25.3226 27.188 24.9846C27.396 24.6466 27.539 24.3303 27.617 24.0356C27.6257 24.0009 27.63 23.9576 27.63 23.9056C27.63 23.7756 27.578 23.7106 27.474 23.7106C27.344 23.7106 27.1924 23.7973 27.019 23.9706C26.681 24.2999 26.3517 24.6986 26.031 25.1666C25.719 25.6259 25.4244 26.1113 25.147 26.6226C24.8784 27.1253 24.6357 27.6193 24.419 28.1046ZM20.974 30.8736C21.0954 30.8736 21.2514 30.8173 21.442 30.7046C21.6414 30.5919 21.8537 30.4489 22.079 30.2756C22.3044 30.1023 22.5254 29.9203 22.742 29.7296C22.9674 29.5389 23.1667 29.3613 23.34 29.1966C23.5134 29.0319 23.6434 28.9063 23.73 28.8196L24.12 27.7146C24.0594 27.4893 23.9684 27.3419 23.847 27.2726C23.7257 27.2033 23.6087 27.1686 23.496 27.1686C23.3227 27.1686 23.119 27.2553 22.885 27.4286C22.651 27.6019 22.4127 27.8229 22.17 28.0916C21.9274 28.3603 21.6977 28.6506 21.481 28.9626C21.273 29.2659 21.104 29.5606 20.974 29.8466C20.844 30.1239 20.779 30.3536 20.779 30.5356C20.779 30.6223 20.792 30.7003 20.818 30.7696C20.8527 30.8389 20.9047 30.8736 20.974 30.8736ZM26.5609 31.3026C26.3182 31.3026 26.1362 31.2333 26.0149 31.0946C25.9022 30.9473 25.8459 30.7653 25.8459 30.5486C25.8459 30.3059 25.9152 30.0243 26.0539 29.7036C26.2012 29.3743 26.3919 29.0363 26.6259 28.6896C26.8599 28.3429 27.1155 28.0223 27.3929 27.7276C27.6789 27.4243 27.9649 27.1816 28.2509 26.9996C28.5369 26.8089 28.8012 26.7136 29.0439 26.7136C29.2172 26.7136 29.3862 26.7439 29.5509 26.8046C29.7242 26.8566 29.8542 26.9693 29.9409 27.1426C30.1575 26.6399 30.4175 26.1416 30.7209 25.6476C31.0242 25.1449 31.3362 24.6943 31.6569 24.2956C31.9862 23.8969 32.2982 23.5979 32.5929 23.3986C32.8095 23.2513 33.0045 23.1776 33.1779 23.1776C33.3165 23.1776 33.4249 23.2253 33.5029 23.3206C33.5895 23.4073 33.6329 23.5416 33.6329 23.7236C33.6329 24.0703 33.5375 24.4386 33.3469 24.8286C33.1649 25.2186 32.9222 25.6086 32.6189 25.9986C32.3155 26.3886 31.9862 26.7699 31.6309 27.1426C31.2842 27.5066 30.9462 27.8489 30.6169 28.1696C30.2875 28.4816 30.0015 28.7546 29.7589 28.9886C29.6202 29.2226 29.4859 29.4956 29.3559 29.8076C29.2345 30.1109 29.1739 30.3666 29.1739 30.5746C29.1739 30.8086 29.2649 30.9256 29.4469 30.9256C29.5942 30.9256 29.8152 30.8563 30.1099 30.7176C30.4132 30.5703 30.7079 30.3709 30.9939 30.1196C31.1672 29.9723 31.3275 29.8163 31.4749 29.6516C31.6222 29.4869 31.7609 29.3353 31.8909 29.1966C31.9255 29.1533 31.9689 29.1316 32.0209 29.1316C32.0642 29.1316 32.1032 29.1576 32.1379 29.2096C32.1812 29.2529 32.2029 29.3093 32.2029 29.3786C32.2029 29.4566 32.1812 29.5216 32.1379 29.5736C32.0079 29.7556 31.8259 29.9593 31.5919 30.1846C31.3665 30.4013 31.1672 30.5746 30.9939 30.7046C30.6645 30.9473 30.3092 31.1293 29.9279 31.2506C29.6939 31.3286 29.4859 31.3676 29.3039 31.3676C28.8272 31.3676 28.5889 31.1293 28.5889 30.6526C28.5889 30.4533 28.6322 30.2279 28.7189 29.9766C28.7189 29.9679 28.7232 29.9593 28.7319 29.9506C28.4632 30.1759 28.1859 30.3926 27.8999 30.6006C27.6225 30.8086 27.3625 30.9776 27.1199 31.1076C26.8772 31.2376 26.6909 31.3026 26.5609 31.3026ZM29.9669 28.1046C30.0535 28.0353 30.2052 27.8966 30.4219 27.6886C30.6385 27.4806 30.8855 27.2336 31.1629 26.9476C31.4489 26.6529 31.7305 26.3366 32.0079 25.9986C32.2852 25.6606 32.5279 25.3226 32.7359 24.9846C32.9439 24.6466 33.0869 24.3303 33.1649 24.0356C33.1735 24.0009 33.1779 23.9576 33.1779 23.9056C33.1779 23.7756 33.1259 23.7106 33.0219 23.7106C32.8919 23.7106 32.7402 23.7973 32.5669 23.9706C32.2289 24.2999 31.8995 24.6986 31.5789 25.1666C31.2669 25.6259 30.9722 26.1113 30.6949 26.6226C30.4262 27.1253 30.1835 27.6193 29.9669 28.1046ZM26.5219 30.8736C26.6432 30.8736 26.7992 30.8173 26.9899 30.7046C27.1892 30.5919 27.4015 30.4489 27.6269 30.2756C27.8522 30.1023 28.0732 29.9203 28.2899 29.7296C28.5152 29.5389 28.7145 29.3613 28.8879 29.1966C29.0612 29.0319 29.1912 28.9063 29.2779 28.8196L29.6679 27.7146C29.6072 27.4893 29.5162 27.3419 29.3949 27.2726C29.2735 27.2033 29.1565 27.1686 29.0439 27.1686C28.8705 27.1686 28.6669 27.2553 28.4329 27.4286C28.1989 27.6019 27.9605 27.8229 27.7179 28.0916C27.4752 28.3603 27.2455 28.6506 27.0289 28.9626C26.8209 29.2659 26.6519 29.5606 26.5219 29.8466C26.3919 30.1239 26.3269 30.3536 26.3269 30.5356C26.3269 30.6223 26.3399 30.7003 26.3659 30.7696C26.4005 30.8389 26.4525 30.8736 26.5219 30.8736ZM34.3577 27.1946C34.2537 27.1946 34.1584 27.1599 34.0717 27.0906C33.9937 27.0126 33.9547 26.9173 33.9547 26.8046C33.9547 26.6833 33.9937 26.5836 34.0717 26.5056C34.1497 26.4276 34.2451 26.3886 34.3577 26.3886C34.4791 26.3886 34.5787 26.4276 34.6567 26.5056C34.7347 26.5836 34.7737 26.6833 34.7737 26.8046C34.7737 26.9173 34.7304 27.0126 34.6437 27.0906C34.5657 27.1599 34.4704 27.1946 34.3577 27.1946ZM32.4337 31.0946C32.3211 31.0946 32.2301 31.0643 32.1607 31.0036C32.0914 30.9343 32.0567 30.8259 32.0567 30.6786C32.0567 30.4966 32.1001 30.2756 32.1867 30.0156C32.2734 29.7469 32.3861 29.4739 32.5247 29.1966C32.6634 28.9106 32.8107 28.6506 32.9667 28.4166C33.1314 28.1739 33.2874 27.9833 33.4347 27.8446C33.4954 27.7839 33.5691 27.7536 33.6557 27.7536C33.7251 27.7536 33.7857 27.7709 33.8377 27.8056C33.8897 27.8403 33.9157 27.8836 33.9157 27.9356C33.9157 27.9789 33.8941 28.0223 33.8507 28.0656C33.7901 28.1263 33.7121 28.2259 33.6167 28.3646C33.5301 28.4946 33.4434 28.6333 33.3567 28.7806C33.2701 28.9193 33.2051 29.0363 33.1617 29.1316C33.0837 29.2963 32.9971 29.4826 32.9017 29.6906C32.8064 29.8986 32.7371 30.0676 32.6937 30.1976C32.6677 30.2843 32.6547 30.3493 32.6547 30.3926C32.6547 30.4879 32.6894 30.5356 32.7587 30.5356C32.8194 30.5356 32.8887 30.5096 32.9667 30.4576C33.0447 30.3969 33.1141 30.3449 33.1747 30.3016C33.3914 30.1283 33.5907 29.9463 33.7727 29.7556C33.9634 29.5563 34.1367 29.3699 34.2927 29.1966C34.3274 29.1533 34.3707 29.1316 34.4227 29.1316C34.4661 29.1316 34.5051 29.1576 34.5397 29.2096C34.5831 29.2529 34.6047 29.3093 34.6047 29.3786C34.6047 29.4566 34.5831 29.5216 34.5397 29.5736C34.4097 29.7556 34.2277 29.9593 33.9937 30.1846C33.7684 30.4013 33.5691 30.5746 33.3957 30.7046C33.2831 30.7913 33.1314 30.8779 32.9407 30.9646C32.7587 31.0513 32.5897 31.0946 32.4337 31.0946ZM34.0791 31.5366C34.0185 31.5366 33.9621 31.5149 33.9101 31.4716C33.8581 31.4283 33.8321 31.3763 33.8321 31.3156C33.8321 31.2983 33.8408 31.2636 33.8581 31.2116C34.0315 30.8389 34.2005 30.5009 34.3651 30.1976C34.5385 29.8856 34.7161 29.5823 34.8981 29.2876C34.9761 29.1663 35.0628 29.0103 35.1581 28.8196C35.2621 28.6203 35.3618 28.4079 35.4571 28.1826C35.5525 27.9486 35.6305 27.7276 35.6911 27.5196C35.7605 27.3116 35.7951 27.1426 35.7951 27.0126C35.7951 26.9433 35.7908 26.8956 35.7821 26.8696C35.7735 26.8609 35.7691 26.8436 35.7691 26.8176C35.7691 26.7483 35.7995 26.6919 35.8601 26.6486C35.9295 26.5966 35.9945 26.5706 36.0551 26.5706C36.1245 26.5706 36.1895 26.6053 36.2501 26.6746C36.3108 26.7353 36.3411 26.8436 36.3411 26.9996C36.3411 27.1296 36.3108 27.3029 36.2501 27.5196C36.1981 27.7276 36.1071 27.9789 35.9771 28.2736C35.9078 28.4209 35.8428 28.5596 35.7821 28.6896C35.7215 28.8109 35.6608 28.9279 35.6001 29.0406C35.9381 28.6853 36.2848 28.3689 36.6401 28.0916C36.9955 27.8056 37.3118 27.5803 37.5891 27.4156C37.8665 27.2509 38.0528 27.1686 38.1481 27.1686C38.2521 27.1686 38.3258 27.1989 38.3691 27.2596C38.4125 27.3203 38.4341 27.3896 38.4341 27.4676C38.4341 27.5803 38.3995 27.7103 38.3301 27.8576C38.2695 27.9963 38.2045 28.1219 38.1351 28.2346C38.0658 28.3473 38.0181 28.4253 37.9921 28.4686C37.8968 28.6159 37.7668 28.8369 37.6021 29.1316C37.4375 29.4263 37.2988 29.7123 37.1861 29.9896C37.1515 30.0849 37.1168 30.1846 37.0821 30.2886C37.0561 30.3839 37.0431 30.4663 37.0431 30.5356C37.0431 30.6483 37.0908 30.7046 37.1861 30.7046C37.2728 30.7046 37.3985 30.6613 37.5631 30.5746C37.7711 30.4619 37.9618 30.3189 38.1351 30.1456C38.3171 29.9636 38.4731 29.8076 38.6031 29.6776C38.6118 29.6689 38.6508 29.6256 38.7201 29.5476C38.7981 29.4696 38.8718 29.3916 38.9411 29.3136C39.0191 29.2356 39.0581 29.1966 39.0581 29.1966C39.0928 29.1533 39.1361 29.1316 39.1881 29.1316C39.2315 29.1316 39.2705 29.1576 39.3051 29.2096C39.3485 29.2529 39.3701 29.3093 39.3701 29.3786C39.3701 29.4566 39.3485 29.5216 39.3051 29.5736C39.1751 29.7556 38.9975 29.9549 38.7721 30.1716C38.5468 30.3883 38.3475 30.5659 38.1741 30.7046C37.9921 30.8433 37.8058 30.9559 37.6151 31.0426C37.4331 31.1206 37.2511 31.1596 37.0691 31.1596C36.9131 31.1596 36.7831 31.1293 36.6791 31.0686C36.5751 31.0079 36.5231 30.8476 36.5231 30.5876C36.5231 30.2583 36.6055 29.9333 36.7701 29.6126C36.9435 29.2919 37.1341 28.9756 37.3421 28.6636C37.5588 28.3516 37.7365 28.0569 37.8751 27.7796C37.6585 27.9096 37.3681 28.1089 37.0041 28.3776C36.6488 28.6463 36.2718 28.9626 35.8731 29.3266C35.4831 29.6819 35.1278 30.0719 34.8071 30.4966C34.7465 30.6093 34.6815 30.7306 34.6121 30.8606C34.5428 30.9906 34.4735 31.1336 34.4041 31.2896C34.3261 31.4543 34.2178 31.5366 34.0791 31.5366ZM39.4893 31.1466C39.2466 31.1466 39.0646 31.0773 38.9433 30.9386C38.8306 30.7913 38.7743 30.6093 38.7743 30.3926C38.7743 30.1499 38.8436 29.8683 38.9823 29.5476C39.1296 29.2183 39.3203 28.8803 39.5543 28.5336C39.7883 28.1869 40.0439 27.8663 40.3213 27.5716C40.6073 27.2683 40.8933 27.0256 41.1793 26.8436C41.4653 26.6529 41.7296 26.5576 41.9723 26.5576C42.6483 26.5576 42.9863 26.8653 42.9863 27.4806C42.9863 27.5933 42.9603 27.6756 42.9083 27.7276C42.8563 27.7709 42.8043 27.7926 42.7523 27.7926C42.6829 27.7926 42.6396 27.7579 42.6223 27.6886C42.5876 27.4113 42.5009 27.2293 42.3623 27.1426C42.2236 27.0559 42.0936 27.0126 41.9723 27.0126C41.7989 27.0126 41.5953 27.0993 41.3613 27.2726C41.1273 27.4459 40.8889 27.6669 40.6463 27.9356C40.4036 28.2043 40.1739 28.4946 39.9573 28.8066C39.7493 29.1099 39.5803 29.4046 39.4503 29.6906C39.3203 29.9679 39.2553 30.1976 39.2553 30.3796C39.2553 30.4663 39.2683 30.5443 39.2943 30.6136C39.3289 30.6829 39.3809 30.7176 39.4503 30.7176C39.5803 30.7176 39.7493 30.6483 39.9573 30.5096C40.1653 30.3709 40.3906 30.1933 40.6333 29.9766C40.8759 29.7599 41.1143 29.5303 41.3483 29.2876C41.5909 29.0449 41.8033 28.8153 41.9853 28.5986C42.1759 28.3819 42.3189 28.2043 42.4143 28.0656C42.4576 27.9963 42.5139 27.9616 42.5833 27.9616C42.7219 27.9616 42.7913 28.0439 42.7913 28.2086C42.7913 28.2259 42.7869 28.2476 42.7783 28.2736C42.7783 28.2909 42.7739 28.3126 42.7653 28.3386C42.6786 28.6679 42.5486 29.0579 42.3753 29.5086C42.2106 29.9593 42.0243 30.4273 41.8163 30.9126C41.8943 30.9213 41.9766 30.9386 42.0633 30.9646C42.1759 30.9906 42.2323 31.0599 42.2323 31.1726C42.2323 31.2333 42.2019 31.2939 42.1413 31.3546C42.0893 31.4153 42.0199 31.4326 41.9333 31.4066C41.8726 31.3893 41.8119 31.3763 41.7513 31.3676C41.6993 31.3589 41.6559 31.3546 41.6213 31.3546C41.3613 31.9179 41.0926 32.4596 40.8153 32.9796C40.5379 33.5083 40.2779 33.9546 40.0353 34.3186C39.8186 34.6306 39.5759 34.9296 39.3073 35.2156C39.0386 35.5103 38.7526 35.7486 38.4493 35.9306C38.1459 36.1126 37.8383 36.2036 37.5263 36.2036C37.1796 36.2036 36.9109 36.1169 36.7203 35.9436C36.5296 35.7703 36.4343 35.5406 36.4343 35.2546C36.4343 34.9946 36.5036 34.7043 36.6423 34.3836C36.7723 34.0629 36.9543 33.7423 37.1883 33.4216C37.4743 33.0316 37.8296 32.6503 38.2543 32.2776C38.6876 31.9049 39.1643 31.5929 39.6843 31.3416C40.2043 31.0989 40.7459 30.9559 41.3093 30.9126C41.4479 30.5919 41.5779 30.2886 41.6993 30.0026C41.8206 29.7079 41.9246 29.4393 42.0113 29.1966C41.4739 29.8119 40.9799 30.2929 40.5293 30.6396C40.0873 30.9776 39.7406 31.1466 39.4893 31.1466ZM36.9153 35.2026C36.9153 35.3586 36.9629 35.4886 37.0583 35.5926C37.1536 35.6966 37.3226 35.7486 37.5653 35.7486C37.8599 35.7486 38.1633 35.6186 38.4753 35.3586C38.7873 35.1073 39.0949 34.7693 39.3983 34.3446C39.7103 33.9199 40.0093 33.4519 40.2953 32.9406C40.5813 32.4293 40.8456 31.9093 41.0883 31.3806C40.6116 31.4499 40.1523 31.5973 39.7103 31.8226C39.2683 32.0566 38.8609 32.3339 38.4883 32.6546C38.1243 32.9839 37.8166 33.3263 37.5653 33.6816C37.4959 33.7769 37.4093 33.9113 37.3053 34.0846C37.2013 34.2666 37.1103 34.4529 37.0323 34.6436C36.9543 34.8429 36.9153 35.0293 36.9153 35.2026ZM49.6391 32.9926C48.9718 32.9926 48.4171 32.8539 47.9751 32.5766C47.5418 32.3079 47.2168 31.9656 47.0001 31.5496C46.7835 31.1336 46.6751 30.7089 46.6751 30.2756C46.6751 29.8683 46.7618 29.4869 46.9351 29.1316C47.1171 28.7676 47.3685 28.4773 47.6891 28.2606C47.8105 28.1826 47.9361 28.1219 48.0661 28.0786C48.2048 28.0266 48.3391 28.0006 48.4691 28.0006C48.6338 28.0006 48.7898 28.0439 48.9371 28.1306C49.0845 28.2086 49.2015 28.3386 49.2881 28.5206C49.3055 28.5553 49.3141 28.6029 49.3141 28.6636C49.3141 28.7243 49.2968 28.7763 49.2621 28.8196C49.2275 28.8629 49.1885 28.8846 49.1451 28.8846C49.0931 28.8846 49.0455 28.8456 49.0021 28.7676C48.8981 28.5596 48.7248 28.4556 48.4821 28.4556C48.2741 28.4556 48.0705 28.5293 47.8711 28.6766C47.6805 28.8326 47.5115 29.0493 47.3641 29.3266C47.2168 29.5953 47.1431 29.9073 47.1431 30.2626C47.1431 30.6266 47.2211 30.9819 47.3771 31.3286C47.5418 31.6753 47.8061 31.9613 48.1701 32.1866C48.5428 32.4119 49.0325 32.5246 49.6391 32.5246C50.2458 32.5246 50.7961 32.3816 51.2901 32.0956C51.7841 31.8096 52.2261 31.4326 52.6161 30.9646C53.0148 30.4879 53.3745 29.9593 53.6951 29.3786C54.0245 28.7893 54.3235 28.1913 54.5921 27.5846C54.8608 26.9779 55.1165 26.4059 55.3591 25.8686C55.5931 25.3399 55.8271 24.8763 56.0611 24.4776C55.6191 24.5296 55.1728 24.5946 54.7221 24.6726C54.2801 24.7419 53.8511 24.8633 53.4351 25.0366C52.8631 25.2793 52.3908 25.5566 52.0181 25.8686C51.6541 26.1719 51.3768 26.4796 51.1861 26.7916C51.0041 27.1036 50.8958 27.3896 50.8611 27.6496C50.8525 27.6929 50.8481 27.7363 50.8481 27.7796C50.8481 27.8229 50.8481 27.8663 50.8481 27.9096C50.8481 28.2216 50.9175 28.4469 51.0561 28.5856C51.2035 28.7243 51.3811 28.7936 51.5891 28.7936C51.7798 28.7936 51.9835 28.7416 52.2001 28.6376C52.4168 28.5336 52.6161 28.3906 52.7981 28.2086C52.9195 28.0873 53.0625 27.9053 53.2271 27.6626C53.3918 27.4199 53.4741 27.1643 53.4741 26.8956C53.4741 26.7396 53.4351 26.5923 53.3571 26.4536C53.3225 26.3929 53.3051 26.3323 53.3051 26.2716C53.3051 26.2109 53.3268 26.1633 53.3701 26.1286C53.4135 26.0939 53.4611 26.0766 53.5131 26.0766C53.5825 26.0766 53.6431 26.1069 53.6951 26.1676C53.7471 26.2456 53.8035 26.3409 53.8641 26.4536C53.9248 26.5663 53.9421 26.7439 53.9161 26.9866C53.8728 27.4459 53.7255 27.8446 53.4741 28.1826C53.2228 28.5206 52.9195 28.7849 52.5641 28.9756C52.2175 29.1576 51.8795 29.2486 51.5501 29.2486C51.2295 29.2486 50.9521 29.1446 50.7181 28.9366C50.4841 28.7286 50.3671 28.3949 50.3671 27.9356C50.3671 27.8836 50.3671 27.8316 50.3671 27.7796C50.3758 27.7189 50.3845 27.6583 50.3931 27.5976C50.4625 27.0949 50.7311 26.5706 51.1991 26.0246C51.6671 25.4699 52.3518 24.9976 53.2531 24.6076C53.7731 24.3909 54.3061 24.2436 54.8521 24.1656C55.3981 24.0876 55.9441 24.0139 56.4901 23.9446C56.6288 23.8146 56.7718 23.7149 56.9191 23.6456C57.0665 23.5676 57.2138 23.5286 57.3611 23.5286C57.4825 23.5286 57.5778 23.5589 57.6471 23.6196C57.7165 23.6803 57.7511 23.7539 57.7511 23.8406C57.7511 23.9446 57.6818 24.0529 57.5431 24.1656C57.4131 24.2696 57.1835 24.3433 56.8541 24.3866C56.8108 24.3953 56.7631 24.3996 56.7111 24.3996C56.5465 24.6076 56.3775 24.8676 56.2041 25.1796C56.0395 25.4916 55.8791 25.8166 55.7231 26.1546C55.4631 26.7353 55.1901 27.3419 54.9041 27.9746C54.6268 28.6073 54.3191 29.2226 53.9811 29.8206C53.6431 30.4099 53.2661 30.9429 52.8501 31.4196C52.4341 31.9049 51.9618 32.2863 51.4331 32.5636C50.9045 32.8496 50.3065 32.9926 49.6391 32.9926ZM56.4991 31.5366C56.4384 31.5366 56.3821 31.5149 56.3301 31.4716C56.2781 31.4283 56.2521 31.3763 56.2521 31.3156C56.2521 31.2983 56.2607 31.2636 56.2781 31.2116C56.4514 30.8389 56.6204 30.5009 56.7851 30.1976C56.9584 29.8856 57.1361 29.5823 57.3181 29.2876C57.3961 29.1663 57.4827 29.0103 57.5781 28.8196C57.6821 28.6203 57.7817 28.4079 57.8771 28.1826C57.9724 27.9486 58.0504 27.7276 58.1111 27.5196C58.1804 27.3116 58.2151 27.1426 58.2151 27.0126C58.2151 26.9433 58.2107 26.8956 58.2021 26.8696C58.1934 26.8609 58.1891 26.8436 58.1891 26.8176C58.1891 26.7483 58.2194 26.6919 58.2801 26.6486C58.3494 26.5966 58.4144 26.5706 58.4751 26.5706C58.5444 26.5706 58.6094 26.6053 58.6701 26.6746C58.7307 26.7353 58.7611 26.8436 58.7611 26.9996C58.7611 27.1296 58.7307 27.3029 58.6701 27.5196C58.6181 27.7276 58.5271 27.9789 58.3971 28.2736C58.3277 28.4209 58.2627 28.5596 58.2021 28.6896C58.1414 28.8109 58.0807 28.9279 58.0201 29.0406C58.3581 28.6853 58.7047 28.3689 59.0601 28.0916C59.4154 27.8056 59.7317 27.5803 60.0091 27.4156C60.2864 27.2509 60.4727 27.1686 60.5681 27.1686C60.6721 27.1686 60.7457 27.1989 60.7891 27.2596C60.8324 27.3203 60.8541 27.3896 60.8541 27.4676C60.8541 27.5803 60.8194 27.7103 60.7501 27.8576C60.6894 27.9963 60.6244 28.1219 60.5551 28.2346C60.4857 28.3473 60.4381 28.4253 60.4121 28.4686C60.3167 28.6159 60.1867 28.8369 60.0221 29.1316C59.8574 29.4263 59.7187 29.7123 59.6061 29.9896C59.5714 30.0849 59.5367 30.1846 59.5021 30.2886C59.4761 30.3839 59.4631 30.4663 59.4631 30.5356C59.4631 30.6483 59.5107 30.7046 59.6061 30.7046C59.6927 30.7046 59.8184 30.6613 59.9831 30.5746C60.1911 30.4619 60.3817 30.3189 60.5551 30.1456C60.7371 29.9636 60.8931 29.8076 61.0231 29.6776C61.0317 29.6689 61.0707 29.6256 61.1401 29.5476C61.2181 29.4696 61.2917 29.3916 61.3611 29.3136C61.4391 29.2356 61.4781 29.1966 61.4781 29.1966C61.5127 29.1533 61.5561 29.1316 61.6081 29.1316C61.6514 29.1316 61.6904 29.1576 61.7251 29.2096C61.7684 29.2529 61.7901 29.3093 61.7901 29.3786C61.7901 29.4566 61.7684 29.5216 61.7251 29.5736C61.5951 29.7556 61.4174 29.9549 61.1921 30.1716C60.9667 30.3883 60.7674 30.5659 60.5941 30.7046C60.4121 30.8433 60.2257 30.9559 60.0351 31.0426C59.8531 31.1206 59.6711 31.1596 59.4891 31.1596C59.3331 31.1596 59.2031 31.1293 59.0991 31.0686C58.9951 31.0079 58.9431 30.8476 58.9431 30.5876C58.9431 30.2583 59.0254 29.9333 59.1901 29.6126C59.3634 29.2919 59.5541 28.9756 59.7621 28.6636C59.9787 28.3516 60.1564 28.0569 60.2951 27.7796C60.0784 27.9096 59.7881 28.1089 59.4241 28.3776C59.0687 28.6463 58.6917 28.9626 58.2931 29.3266C57.9031 29.6819 57.5477 30.0719 57.2271 30.4966C57.1664 30.6093 57.1014 30.7306 57.0321 30.8606C56.9627 30.9906 56.8934 31.1336 56.8241 31.2896C56.7461 31.4543 56.6377 31.5366 56.4991 31.5366ZM61.9352 31.3936C61.6405 31.3936 61.4369 31.3199 61.3242 31.1726C61.2115 31.0253 61.1552 30.8346 61.1552 30.6006C61.1552 30.3753 61.1942 30.1283 61.2722 29.8596C61.3589 29.5823 61.4585 29.3136 61.5712 29.0536C61.6925 28.7936 61.8095 28.5683 61.9222 28.3776C62.0349 28.1783 62.1215 28.0439 62.1822 27.9746C62.2082 27.6713 62.2992 27.4459 62.4552 27.2986C62.6112 27.1426 62.7455 27.0646 62.8582 27.0646C62.9102 27.0646 62.9492 27.0776 62.9752 27.1036C63.0445 27.1729 63.0792 27.2509 63.0792 27.3376C63.0792 27.4503 63.0272 27.5933 62.9232 27.7666C62.8192 27.9399 62.6632 28.1696 62.4552 28.4556C62.4292 28.4903 62.3729 28.5813 62.2862 28.7286C62.1995 28.8759 62.1085 29.0536 62.0132 29.2616C61.9179 29.4696 61.8355 29.6819 61.7662 29.8986C61.6969 30.1153 61.6622 30.3059 61.6622 30.4706C61.6622 30.7566 61.7879 30.8996 62.0392 30.8996C62.3079 30.8996 62.5722 30.7999 62.8322 30.6006C63.1009 30.4013 63.3479 30.1499 63.5732 29.8466C63.8072 29.5346 64.0109 29.2096 64.1842 28.8716C64.3662 28.5249 64.5049 28.2043 64.6002 27.9096C64.7042 27.6149 64.7562 27.3853 64.7562 27.2206C64.7562 27.1339 64.7475 27.0776 64.7302 27.0516C64.6955 26.9909 64.6782 26.9303 64.6782 26.8696C64.6782 26.7916 64.7042 26.7309 64.7562 26.6876C64.8082 26.6443 64.8645 26.6226 64.9252 26.6226C65.0552 26.6226 65.1505 26.6919 65.2112 26.8306C65.2459 26.8999 65.2632 27.0039 65.2632 27.1426C65.2632 27.3853 65.2025 27.6886 65.0812 28.0526C64.9685 28.4079 64.8039 28.7806 64.5872 29.1706C64.3792 29.5519 64.1365 29.9116 63.8592 30.2496C63.5819 30.5876 63.2785 30.8649 62.9492 31.0816C62.6199 31.2896 62.2819 31.3936 61.9352 31.3936ZM67.6575 27.1946C67.5535 27.1946 67.4582 27.1599 67.3715 27.0906C67.2935 27.0126 67.2545 26.9173 67.2545 26.8046C67.2545 26.6833 67.2935 26.5836 67.3715 26.5056C67.4495 26.4276 67.5449 26.3886 67.6575 26.3886C67.7789 26.3886 67.8785 26.4276 67.9565 26.5056C68.0345 26.5836 68.0735 26.6833 68.0735 26.8046C68.0735 26.9173 68.0302 27.0126 67.9435 27.0906C67.8655 27.1599 67.7702 27.1946 67.6575 27.1946ZM65.7335 31.0946C65.6209 31.0946 65.5299 31.0643 65.4605 31.0036C65.3912 30.9343 65.3565 30.8259 65.3565 30.6786C65.3565 30.4966 65.3999 30.2756 65.4865 30.0156C65.5732 29.7469 65.6859 29.4739 65.8245 29.1966C65.9632 28.9106 66.1105 28.6506 66.2665 28.4166C66.4312 28.1739 66.5872 27.9833 66.7345 27.8446C66.7952 27.7839 66.8689 27.7536 66.9555 27.7536C67.0249 27.7536 67.0855 27.7709 67.1375 27.8056C67.1895 27.8403 67.2155 27.8836 67.2155 27.9356C67.2155 27.9789 67.1939 28.0223 67.1505 28.0656C67.0899 28.1263 67.0119 28.2259 66.9165 28.3646C66.8299 28.4946 66.7432 28.6333 66.6565 28.7806C66.5699 28.9193 66.5049 29.0363 66.4615 29.1316C66.3835 29.2963 66.2969 29.4826 66.2015 29.6906C66.1062 29.8986 66.0369 30.0676 65.9935 30.1976C65.9675 30.2843 65.9545 30.3493 65.9545 30.3926C65.9545 30.4879 65.9892 30.5356 66.0585 30.5356C66.1192 30.5356 66.1885 30.5096 66.2665 30.4576C66.3445 30.3969 66.4139 30.3449 66.4745 30.3016C66.6912 30.1283 66.8905 29.9463 67.0725 29.7556C67.2632 29.5563 67.4365 29.3699 67.5925 29.1966C67.6272 29.1533 67.6705 29.1316 67.7225 29.1316C67.7659 29.1316 67.8049 29.1576 67.8395 29.2096C67.8829 29.2529 67.9045 29.3093 67.9045 29.3786C67.9045 29.4566 67.8829 29.5216 67.8395 29.5736C67.7095 29.7556 67.5275 29.9593 67.2935 30.1846C67.0682 30.4013 66.8689 30.5746 66.6955 30.7046C66.5829 30.7913 66.4312 30.8779 66.2405 30.9646C66.0585 31.0513 65.8895 31.0946 65.7335 31.0946ZM68.7131 31.3676C68.2364 31.3676 67.9981 31.1293 67.9981 30.6526C67.9981 30.4533 68.0414 30.2279 68.1281 29.9766C68.2581 29.5953 68.4531 29.1836 68.7131 28.7416C68.9817 28.2996 69.2547 27.8749 69.5321 27.4676H69.0641C68.9947 27.4676 68.9384 27.4459 68.8951 27.4026C68.8604 27.3506 68.8431 27.2943 68.8431 27.2336C68.8431 27.1816 68.8604 27.1339 68.8951 27.0906C68.9384 27.0386 68.9947 27.0126 69.0641 27.0126H69.8571C69.9524 26.8913 70.0391 26.7743 70.1171 26.6616C70.1951 26.5403 70.2731 26.4233 70.3511 26.3106C70.4724 25.9986 70.6197 25.6996 70.7931 25.4136C70.9751 25.1276 71.1961 24.8979 71.4561 24.7246C71.4994 24.6986 71.5384 24.6856 71.5731 24.6856C71.6424 24.6856 71.7031 24.7203 71.7551 24.7896C71.8071 24.8503 71.8331 24.9196 71.8331 24.9976C71.8331 25.0583 71.8114 25.1233 71.7681 25.1926C71.7421 25.2273 71.6597 25.3356 71.5211 25.5176C71.3824 25.6996 71.2177 25.9249 71.0271 26.1936C70.8364 26.4536 70.6371 26.7266 70.4291 27.0126H71.6771C71.7551 27.0126 71.8114 27.0386 71.8461 27.0906C71.8807 27.1339 71.8981 27.1816 71.8981 27.2336C71.8981 27.2943 71.8807 27.3506 71.8461 27.4026C71.8114 27.4459 71.7551 27.4676 71.6771 27.4676H70.1171L70.0001 27.6496C69.9221 27.7623 69.8051 27.9443 69.6491 28.1956C69.5017 28.4469 69.3414 28.7243 69.1681 29.0276C69.0034 29.3309 68.8604 29.6256 68.7391 29.9116C68.6264 30.1889 68.5701 30.4186 68.5701 30.6006C68.5701 30.8173 68.6611 30.9256 68.8431 30.9256C68.9904 30.9256 69.2114 30.8563 69.5061 30.7176C69.8094 30.5703 70.1084 30.3709 70.4031 30.1196C70.5764 29.9723 70.7367 29.8163 70.8841 29.6516C71.0314 29.4869 71.1701 29.3353 71.3001 29.1966C71.3347 29.1533 71.3781 29.1316 71.4301 29.1316C71.4734 29.1316 71.5124 29.1576 71.5471 29.2096C71.5904 29.2529 71.6121 29.3093 71.6121 29.3786C71.6121 29.4566 71.5904 29.5216 71.5471 29.5736C71.4171 29.7556 71.2351 29.9593 71.0011 30.1846C70.7757 30.4013 70.5764 30.5746 70.4031 30.7046C70.0737 30.9473 69.7184 31.1293 69.3371 31.2506C69.1031 31.3286 68.8951 31.3676 68.7131 31.3676ZM71.515 31.3026C71.2723 31.3026 71.0903 31.2333 70.969 31.0946C70.8563 30.9473 70.8 30.7653 70.8 30.5486C70.8 30.3059 70.8693 30.0243 71.008 29.7036C71.1553 29.3743 71.346 29.0363 71.58 28.6896C71.814 28.3429 72.0696 28.0223 72.347 27.7276C72.633 27.4243 72.919 27.1816 73.205 26.9996C73.491 26.8089 73.7553 26.7136 73.998 26.7136C74.1626 26.7136 74.323 26.7396 74.479 26.7916C74.635 26.8349 74.7606 26.9259 74.856 27.0646C74.96 27.2033 75.012 27.4069 75.012 27.6756C75.012 27.7709 74.986 27.8403 74.934 27.8836C74.882 27.9269 74.8343 27.9486 74.791 27.9486C74.6956 27.9486 74.648 27.9139 74.648 27.8446C74.6046 27.5673 74.5136 27.3853 74.375 27.2986C74.245 27.2119 74.1193 27.1686 73.998 27.1686C73.8246 27.1686 73.621 27.2553 73.387 27.4286C73.153 27.6019 72.9146 27.8229 72.672 28.0916C72.4293 28.3603 72.1996 28.6506 71.983 28.9626C71.775 29.2659 71.606 29.5606 71.476 29.8466C71.346 30.1239 71.281 30.3536 71.281 30.5356C71.281 30.6223 71.294 30.7003 71.32 30.7696C71.3546 30.8389 71.4066 30.8736 71.476 30.8736C71.606 30.8736 71.775 30.8043 71.983 30.6656C72.191 30.5269 72.412 30.3493 72.646 30.1326C72.8886 29.9073 73.127 29.6733 73.361 29.4306C73.595 29.1879 73.8073 28.9583 73.998 28.7416C74.1886 28.5249 74.336 28.3516 74.44 28.2216C74.492 28.1436 74.557 28.1046 74.635 28.1046C74.6956 28.1046 74.752 28.1263 74.804 28.1696C74.856 28.2129 74.882 28.2693 74.882 28.3386C74.882 28.3733 74.869 28.4123 74.843 28.4556C74.7823 28.5509 74.7086 28.6853 74.622 28.8586C74.544 29.0319 74.4616 29.2183 74.375 29.4176C74.297 29.6169 74.2276 29.8033 74.167 29.9766C74.115 30.1413 74.089 30.2669 74.089 30.3536C74.089 30.4403 74.1193 30.4836 74.18 30.4836C74.2233 30.4836 74.2753 30.4619 74.336 30.4186C74.4053 30.3753 74.466 30.3363 74.518 30.3016C74.726 30.1283 74.9253 29.9463 75.116 29.7556C75.3066 29.5563 75.48 29.3699 75.636 29.1966C75.6706 29.1533 75.714 29.1316 75.766 29.1316C75.8093 29.1316 75.8483 29.1576 75.883 29.2096C75.9263 29.2529 75.948 29.3093 75.948 29.3786C75.948 29.4566 75.9263 29.5216 75.883 29.5736C75.7443 29.7556 75.5623 29.9593 75.337 30.1846C75.1116 30.4013 74.9123 30.5746 74.739 30.7046C74.6263 30.7826 74.492 30.8606 74.336 30.9386C74.1886 31.0079 74.0456 31.0426 73.907 31.0426C73.803 31.0426 73.7163 31.0123 73.647 30.9516C73.5776 30.8823 73.543 30.7653 73.543 30.6006C73.543 30.4706 73.5646 30.3233 73.608 30.1586C73.6513 29.9939 73.7033 29.8249 73.764 29.6516C73.5213 29.9116 73.2613 30.1673 72.984 30.4186C72.7066 30.6699 72.438 30.8823 72.178 31.0556C71.9266 31.2203 71.7056 31.3026 71.515 31.3026ZM76.5588 31.3676C76.0821 31.3676 75.8438 31.1293 75.8438 30.6526C75.8438 30.4533 75.8871 30.2279 75.9738 29.9766C76.1038 29.5953 76.2988 29.1836 76.5588 28.7416C76.8274 28.2996 77.1004 27.8749 77.3778 27.4676H76.9098C76.8404 27.4676 76.7841 27.4459 76.7408 27.4026C76.7061 27.3506 76.6888 27.2943 76.6888 27.2336C76.6888 27.1816 76.7061 27.1339 76.7408 27.0906C76.7841 27.0386 76.8404 27.0126 76.9098 27.0126H77.7028C77.7981 26.8913 77.8848 26.7743 77.9628 26.6616C78.0408 26.5403 78.1188 26.4233 78.1968 26.3106C78.3181 25.9986 78.4654 25.6996 78.6388 25.4136C78.8208 25.1276 79.0418 24.8979 79.3018 24.7246C79.3451 24.6986 79.3841 24.6856 79.4188 24.6856C79.4881 24.6856 79.5488 24.7203 79.6008 24.7896C79.6528 24.8503 79.6788 24.9196 79.6788 24.9976C79.6788 25.0583 79.6571 25.1233 79.6138 25.1926C79.5878 25.2273 79.5054 25.3356 79.3668 25.5176C79.2281 25.6996 79.0634 25.9249 78.8728 26.1936C78.6821 26.4536 78.4828 26.7266 78.2748 27.0126H79.5228C79.6008 27.0126 79.6571 27.0386 79.6918 27.0906C79.7264 27.1339 79.7438 27.1816 79.7438 27.2336C79.7438 27.2943 79.7264 27.3506 79.6918 27.4026C79.6571 27.4459 79.6008 27.4676 79.5228 27.4676H77.9628L77.8458 27.6496C77.7678 27.7623 77.6508 27.9443 77.4948 28.1956C77.3474 28.4469 77.1871 28.7243 77.0138 29.0276C76.8491 29.3309 76.7061 29.6256 76.5848 29.9116C76.4721 30.1889 76.4158 30.4186 76.4158 30.6006C76.4158 30.8173 76.5068 30.9256 76.6888 30.9256C76.8361 30.9256 77.0571 30.8563 77.3518 30.7176C77.6551 30.5703 77.9541 30.3709 78.2488 30.1196C78.4221 29.9723 78.5824 29.8163 78.7298 29.6516C78.8771 29.4869 79.0158 29.3353 79.1458 29.1966C79.1804 29.1533 79.2238 29.1316 79.2758 29.1316C79.3191 29.1316 79.3581 29.1576 79.3928 29.2096C79.4361 29.2529 79.4578 29.3093 79.4578 29.3786C79.4578 29.4566 79.4361 29.5216 79.3928 29.5736C79.2628 29.7556 79.0808 29.9593 78.8468 30.1846C78.6214 30.4013 78.4221 30.5746 78.2488 30.7046C77.9194 30.9473 77.5641 31.1293 77.1828 31.2506C76.9488 31.3286 76.7408 31.3676 76.5588 31.3676ZM81.6097 27.1946C81.5057 27.1946 81.4103 27.1599 81.3237 27.0906C81.2457 27.0126 81.2067 26.9173 81.2067 26.8046C81.2067 26.6833 81.2457 26.5836 81.3237 26.5056C81.4017 26.4276 81.497 26.3886 81.6097 26.3886C81.731 26.3886 81.8307 26.4276 81.9087 26.5056C81.9867 26.5836 82.0257 26.6833 82.0257 26.8046C82.0257 26.9173 81.9823 27.0126 81.8957 27.0906C81.8177 27.1599 81.7223 27.1946 81.6097 27.1946ZM79.6857 31.0946C79.573 31.0946 79.482 31.0643 79.4127 31.0036C79.3433 30.9343 79.3087 30.8259 79.3087 30.6786C79.3087 30.4966 79.352 30.2756 79.4387 30.0156C79.5253 29.7469 79.638 29.4739 79.7767 29.1966C79.9153 28.9106 80.0627 28.6506 80.2187 28.4166C80.3833 28.1739 80.5393 27.9833 80.6867 27.8446C80.7473 27.7839 80.821 27.7536 80.9077 27.7536C80.977 27.7536 81.0377 27.7709 81.0897 27.8056C81.1417 27.8403 81.1677 27.8836 81.1677 27.9356C81.1677 27.9789 81.146 28.0223 81.1027 28.0656C81.042 28.1263 80.964 28.2259 80.8687 28.3646C80.782 28.4946 80.6953 28.6333 80.6087 28.7806C80.522 28.9193 80.457 29.0363 80.4137 29.1316C80.3357 29.2963 80.249 29.4826 80.1537 29.6906C80.0583 29.8986 79.989 30.0676 79.9457 30.1976C79.9197 30.2843 79.9067 30.3493 79.9067 30.3926C79.9067 30.4879 79.9413 30.5356 80.0107 30.5356C80.0713 30.5356 80.1407 30.5096 80.2187 30.4576C80.2967 30.3969 80.366 30.3449 80.4267 30.3016C80.6433 30.1283 80.8427 29.9463 81.0247 29.7556C81.2153 29.5563 81.3887 29.3699 81.5447 29.1966C81.5793 29.1533 81.6227 29.1316 81.6747 29.1316C81.718 29.1316 81.757 29.1576 81.7917 29.2096C81.835 29.2529 81.8567 29.3093 81.8567 29.3786C81.8567 29.4566 81.835 29.5216 81.7917 29.5736C81.6617 29.7556 81.4797 29.9593 81.2457 30.1846C81.0203 30.4013 80.821 30.5746 80.6477 30.7046C80.535 30.7913 80.3833 30.8779 80.1927 30.9646C80.0107 31.0513 79.8417 31.0946 79.6857 31.0946ZM82.0981 31.4586C81.8034 31.4586 81.5954 31.3763 81.4741 31.2116C81.3528 31.0383 81.2921 30.8259 81.2921 30.5746C81.2921 30.3666 81.3224 30.1413 81.3831 29.8986C81.4524 29.6473 81.5391 29.4003 81.6431 29.1576C81.6518 28.8196 81.7428 28.4859 81.9161 28.1566C82.0981 27.8273 82.3408 27.5543 82.6441 27.3376C82.9561 27.1209 83.3201 27.0126 83.7361 27.0126C84.1434 27.0126 84.4251 27.1296 84.5811 27.3636C84.7458 27.5976 84.8281 27.8749 84.8281 28.1956C84.8281 28.3863 84.8064 28.5813 84.7631 28.7806C84.7198 28.9713 84.6634 29.1533 84.5941 29.3266C84.5248 29.4999 84.4381 29.6776 84.3341 29.8596C84.2301 30.0329 84.1131 30.2063 83.9831 30.3796C84.2431 30.3363 84.4684 30.2539 84.6591 30.1326C84.8584 30.0026 85.0578 29.8249 85.2571 29.5996C85.4564 29.3743 85.6904 29.0883 85.9591 28.7416C86.0111 28.6809 86.0674 28.6506 86.1281 28.6506C86.1974 28.6506 86.2538 28.6723 86.2971 28.7156C86.3491 28.7589 86.3751 28.8153 86.3751 28.8846C86.3751 28.9366 86.3578 28.9843 86.3231 29.0276C86.0718 29.3743 85.8161 29.6863 85.5561 29.9636C85.3048 30.2409 85.0188 30.4576 84.6981 30.6136C84.3774 30.7696 83.9918 30.8476 83.5411 30.8476C83.3331 31.0296 83.1078 31.1769 82.8651 31.2896C82.6224 31.4023 82.3668 31.4586 82.0981 31.4586ZM82.8521 28.0916C82.7481 28.1696 82.6224 28.3256 82.4751 28.5596C82.3278 28.7936 82.1934 29.0493 82.0721 29.3266C82.0894 29.5953 82.1978 29.8379 82.3971 30.0546C82.6051 30.2626 82.9214 30.3796 83.3461 30.4056C83.6581 30.1023 83.9094 29.7469 84.1001 29.3396C84.2908 28.9236 84.3861 28.5509 84.3861 28.2216C84.3861 27.9963 84.3341 27.8143 84.2301 27.6756C84.1261 27.5369 83.9614 27.4676 83.7361 27.4676C83.5801 27.4676 83.4284 27.4936 83.2811 27.5456C83.1338 27.5976 82.9994 27.6669 82.8781 27.7536C82.9214 27.7969 82.9431 27.8489 82.9431 27.9096C82.9431 27.9789 82.9128 28.0396 82.8521 28.0916ZM81.7471 30.5486C81.7471 30.6873 81.7731 30.7999 81.8251 30.8866C81.8858 30.9646 81.9768 31.0036 82.0981 31.0036C82.3494 31.0036 82.6051 30.9256 82.8651 30.7696C82.6138 30.7089 82.4014 30.6136 82.2281 30.4836C82.0548 30.3449 81.9204 30.1889 81.8251 30.0156C81.7731 30.2236 81.7471 30.4013 81.7471 30.5486ZM85.4571 31.5366C85.3964 31.5366 85.3401 31.5149 85.2881 31.4716C85.2361 31.4283 85.2101 31.3763 85.2101 31.3156C85.2101 31.2983 85.2187 31.2636 85.2361 31.2116C85.4094 30.8389 85.5784 30.5009 85.7431 30.1976C85.9164 29.8856 86.0941 29.5823 86.2761 29.2876C86.3541 29.1663 86.4407 29.0103 86.5361 28.8196C86.6401 28.6203 86.7397 28.4079 86.8351 28.1826C86.9304 27.9486 87.0084 27.7276 87.0691 27.5196C87.1384 27.3116 87.1731 27.1426 87.1731 27.0126C87.1731 26.9433 87.1687 26.8956 87.1601 26.8696C87.1514 26.8609 87.1471 26.8436 87.1471 26.8176C87.1471 26.7483 87.1774 26.6919 87.2381 26.6486C87.3074 26.5966 87.3724 26.5706 87.4331 26.5706C87.5024 26.5706 87.5674 26.6053 87.6281 26.6746C87.6887 26.7353 87.7191 26.8436 87.7191 26.9996C87.7191 27.1296 87.6887 27.3029 87.6281 27.5196C87.5761 27.7276 87.4851 27.9789 87.3551 28.2736C87.2857 28.4209 87.2207 28.5596 87.1601 28.6896C87.0994 28.8109 87.0387 28.9279 86.9781 29.0406C87.3161 28.6853 87.6627 28.3689 88.0181 28.0916C88.3734 27.8056 88.6897 27.5803 88.9671 27.4156C89.2444 27.2509 89.4307 27.1686 89.5261 27.1686C89.6301 27.1686 89.7037 27.1989 89.7471 27.2596C89.7904 27.3203 89.8121 27.3896 89.8121 27.4676C89.8121 27.5803 89.7774 27.7103 89.7081 27.8576C89.6474 27.9963 89.5824 28.1219 89.5131 28.2346C89.4437 28.3473 89.3961 28.4253 89.3701 28.4686C89.2747 28.6159 89.1447 28.8369 88.9801 29.1316C88.8154 29.4263 88.6767 29.7123 88.5641 29.9896C88.5294 30.0849 88.4947 30.1846 88.4601 30.2886C88.4341 30.3839 88.4211 30.4663 88.4211 30.5356C88.4211 30.6483 88.4687 30.7046 88.5641 30.7046C88.6507 30.7046 88.7764 30.6613 88.9411 30.5746C89.1491 30.4619 89.3397 30.3189 89.5131 30.1456C89.6951 29.9636 89.8511 29.8076 89.9811 29.6776C89.9897 29.6689 90.0287 29.6256 90.0981 29.5476C90.1761 29.4696 90.2497 29.3916 90.3191 29.3136C90.3971 29.2356 90.4361 29.1966 90.4361 29.1966C90.4707 29.1533 90.5141 29.1316 90.5661 29.1316C90.6094 29.1316 90.6484 29.1576 90.6831 29.2096C90.7264 29.2529 90.7481 29.3093 90.7481 29.3786C90.7481 29.4566 90.7264 29.5216 90.6831 29.5736C90.5531 29.7556 90.3754 29.9549 90.1501 30.1716C89.9247 30.3883 89.7254 30.5659 89.5521 30.7046C89.3701 30.8433 89.1837 30.9559 88.9931 31.0426C88.8111 31.1206 88.6291 31.1596 88.4471 31.1596C88.2911 31.1596 88.1611 31.1293 88.0571 31.0686C87.9531 31.0079 87.9011 30.8476 87.9011 30.5876C87.9011 30.2583 87.9834 29.9333 88.1481 29.6126C88.3214 29.2919 88.5121 28.9756 88.7201 28.6636C88.9367 28.3516 89.1144 28.0569 89.2531 27.7796C89.0364 27.9096 88.7461 28.1089 88.3821 28.3776C88.0267 28.6463 87.6497 28.9626 87.2511 29.3266C86.8611 29.6819 86.5057 30.0719 86.1851 30.4966C86.1244 30.6093 86.0594 30.7306 85.9901 30.8606C85.9207 30.9906 85.8514 31.1336 85.7821 31.2896C85.7041 31.4543 85.5957 31.5366 85.4571 31.5366Z" fill="white"/>
<defs>
<clipPath id="clip0_26_477">
<rect width="11.7343" height="12.2376" fill="white" transform="translate(39.1329)"/>
</clipPath>
</defs>
</svg>
