<svg width="189" height="161" viewBox="0 0 189 161" fill="none" xmlns="http://www.w3.org/2000/svg">
<path d="M86.3058 0.359998C86.5458 0.359998 86.6791 0.453331 86.7058 0.639999C86.7325 0.826665 86.5991 0.919998 86.3058 0.919998C83.9858 0.919998 81.7725 1.49333 79.6658 2.64C77.5591 3.76 75.5458 5.25333 73.6258 7.12C71.7325 8.96 69.9325 11.0667 68.2258 13.44C66.5191 15.8133 64.9058 18.24 63.3858 20.72C61.8658 23.1733 60.4391 25.5867 59.1058 27.96C57.7724 30.3333 56.5058 32.4533 55.3058 34.32C54.1324 36.16 53.0391 37.64 52.0258 38.76C51.0124 39.9067 50.0658 40.48 49.1858 40.48C48.0391 40.48 47.3191 40 47.0258 39.04C46.7591 38.08 46.7858 36.8 47.1058 35.2C47.4258 33.6267 47.9591 31.84 48.7058 29.84C49.4524 27.8133 50.2924 25.7467 51.2258 23.64C52.1858 21.5333 53.1591 19.48 54.1458 17.48C55.1591 15.4533 56.0524 13.6533 56.8258 12.08C57.5991 10.48 58.1858 9.2 58.5858 8.24C59.0124 7.28 59.1324 6.8 58.9458 6.8C58.6791 6.8 58.1858 7.28 57.4658 8.24C56.7458 9.17333 55.8658 10.4267 54.8258 12C53.8124 13.5467 52.6658 15.32 51.3858 17.32C50.1058 19.32 48.7858 21.36 47.4258 23.44C46.0658 25.4933 44.6924 27.52 43.3058 29.52C41.9458 31.52 40.6391 33.3067 39.3858 34.88C38.1591 36.4267 37.0258 37.6667 35.9858 38.6C34.9458 39.56 34.0791 40.04 33.3858 40.04C32.4524 40.04 31.8658 39.6667 31.6258 38.92C31.3858 38.2 31.3858 37.2 31.6258 35.92C31.8924 34.6667 32.3458 33.2 32.9858 31.52C33.6524 29.84 34.3991 28.0533 35.2258 26.16C36.0791 24.2667 36.9724 22.32 37.9058 20.32C38.8658 18.2933 39.7591 16.3333 40.5858 14.44C41.4391 12.5467 42.1858 10.76 42.8258 9.08C43.4924 7.4 43.9458 5.93333 44.1858 4.68C44.4524 3.4 44.4658 2.4 44.2258 1.68C43.9858 0.933331 43.3991 0.559998 42.4658 0.559998C41.2658 0.559998 40.0658 0.919998 38.8658 1.64C37.6658 2.36 36.5058 3.30667 35.3858 4.48C34.2658 5.65333 33.1991 7 32.1858 8.52C31.1724 10.0133 30.2524 11.5467 29.4258 13.12C28.6258 14.6667 27.9324 16.2 27.3458 17.72C26.7591 19.2133 26.3058 20.5467 25.9858 21.72C25.6924 22.8933 25.5591 23.84 25.5858 24.56C25.6124 25.28 25.8391 25.64 26.2658 25.64C26.5324 25.64 26.6524 25.7333 26.6258 25.92C26.5991 26.1067 26.4791 26.2 26.2658 26.2C25.4124 26.2 24.8524 25.8267 24.5858 25.08C24.3191 24.3333 24.2791 23.3467 24.4658 22.12C24.6791 20.8933 25.0791 19.4933 25.6658 17.92C26.2791 16.3467 27.0391 14.7467 27.9458 13.12C28.8524 11.4667 29.8658 9.85333 30.9858 8.28C32.1324 6.70666 33.3324 5.30666 34.5858 4.08C35.8658 2.85333 37.1724 1.86666 38.5058 1.12C39.8658 0.373331 41.1858 -2.38419e-06 42.4658 -2.38419e-06C43.8524 -2.38419e-06 44.8524 0.373331 45.4658 1.12C46.0791 1.84 46.3858 2.84 46.3858 4.12C46.4124 5.37333 46.1991 6.84 45.7458 8.52C45.2924 10.2 44.6791 11.9867 43.9058 13.88C43.1591 15.7733 42.3058 17.7333 41.3458 19.76C40.4124 21.76 39.4791 23.7067 38.5458 25.6C37.6124 27.4933 36.7324 29.28 35.9058 30.96C35.0791 32.64 34.3991 34.1067 33.8658 35.36C33.3324 36.64 32.9991 37.64 32.8658 38.36C32.7324 39.1067 32.9058 39.48 33.3858 39.48C34.0258 39.48 34.8524 39 35.8658 38.04C36.8791 37.1067 37.9858 35.8667 39.1858 34.32C40.4124 32.7467 41.7058 30.96 43.0658 28.96C44.4258 26.96 45.7858 24.9333 47.1458 22.88C48.5058 20.8 49.8258 18.76 51.1058 16.76C52.3858 14.76 53.5458 12.9867 54.5858 11.44C55.6524 9.86667 56.5591 8.61333 57.3058 7.68C58.0791 6.72 58.6258 6.24 58.9458 6.24C59.7991 6.24 60.2391 6.72 60.2658 7.68C60.2924 8.64 60.0391 9.92 59.5058 11.52C58.9991 13.0933 58.2924 14.8933 57.3858 16.92C56.4791 18.92 55.5191 20.9733 54.5058 23.08C53.5191 25.1867 52.5458 27.2533 51.5858 29.28C50.6524 31.28 49.8791 33.08 49.2658 34.68C48.6791 36.2533 48.3324 37.52 48.2258 38.48C48.1458 39.44 48.4658 39.92 49.1858 39.92C49.9858 39.92 50.8658 39.3467 51.8258 38.2C52.8124 37.08 53.8791 35.6 55.0258 33.76C56.1991 31.8933 57.4524 29.7733 58.7858 27.4C60.1191 25.0267 61.5458 22.6133 63.0658 20.16C64.5858 17.68 66.2125 15.2533 67.9458 12.88C69.6791 10.5067 71.5058 8.4 73.4258 6.56C75.3725 4.69333 77.4125 3.2 79.5458 2.08C81.6791 0.933332 83.9324 0.359998 86.3058 0.359998ZM95.1645 27.76C95.3245 27.68 95.4579 27.68 95.5645 27.76C95.6979 27.84 95.6579 27.9467 95.4445 28.08C92.5112 29.5467 89.9245 30.7733 87.6845 31.76C85.4445 32.7467 83.4845 33.5467 81.8045 34.16C80.1245 34.7467 78.6979 35.16 77.5245 35.4C76.3779 35.6667 75.4179 35.8 74.6445 35.8C73.0445 35.8 71.8445 35.5467 71.0445 35.04C70.2179 34.56 69.6979 33.9467 69.4845 33.2C69.2712 32.4533 69.3379 31.6533 69.6845 30.8C70.0045 29.92 70.4979 29.1067 71.1645 28.36C71.8312 27.6133 72.6179 27 73.5245 26.52C74.4579 26.0133 75.4312 25.76 76.4445 25.76C77.2445 25.76 77.8845 25.9333 78.3645 26.28C78.8445 26.6267 79.1645 27.0533 79.3245 27.56C79.4845 28.0667 79.4579 28.6133 79.2445 29.2C79.0579 29.76 78.6845 30.2667 78.1245 30.72C77.5912 31.1733 76.8445 31.52 75.8845 31.76C74.9512 31.9733 73.8179 32 72.4845 31.84C72.2179 31.84 72.0712 31.9333 72.0445 32.12C71.8312 32.9733 71.9245 33.6933 72.3245 34.28C72.7245 34.8667 73.6045 35.16 74.9645 35.16C75.6045 35.16 76.4312 35.0667 77.4445 34.88C78.4845 34.6667 79.7912 34.2933 81.3645 33.76C82.9645 33.2 84.8845 32.44 87.1245 31.48C89.3645 30.52 92.0445 29.28 95.1645 27.76ZM77.7245 26.44C77.2979 26.44 76.8445 26.5733 76.3645 26.84C75.8845 27.08 75.4045 27.4 74.9245 27.8C74.4445 28.2 73.9912 28.6667 73.5645 29.2C73.1645 29.7067 72.8312 30.2267 72.5645 30.76C72.5379 30.8133 72.5245 30.8667 72.5245 30.92C72.5245 30.9733 72.5645 31.0133 72.6445 31.04C72.7245 31.0667 72.8712 31.08 73.0845 31.08C73.2979 31.08 73.5912 31.0533 73.9645 31C75.3245 30.7867 76.3512 30.44 77.0445 29.96C77.7645 29.4533 78.2312 28.9467 78.4445 28.44C78.6845 27.9067 78.7245 27.44 78.5645 27.04C78.4045 26.64 78.1245 26.44 77.7245 26.44ZM101.602 6.88C101.362 7.81333 101.055 8.82667 100.682 9.92C100.309 11.0133 99.8954 12.1067 99.442 13.2C99.0154 14.2667 98.5887 15.28 98.162 16.24H95.562C95.7487 15.4933 95.9354 14.6933 96.122 13.84C96.3354 12.9867 96.522 12.1333 96.682 11.28C96.8687 10.4 97.0287 9.54667 97.162 8.72C97.322 7.89333 97.4554 7.13333 97.562 6.44H101.322L101.602 6.88ZM128.034 27.76C128.141 27.7067 128.221 27.72 128.274 27.8C128.354 27.88 128.354 27.9467 128.274 28C126.141 29.0667 124.154 30.1733 122.314 31.32C120.474 32.4667 118.741 33.52 117.114 34.48C115.488 35.44 113.941 36.2267 112.474 36.84C111.034 37.4533 109.634 37.76 108.274 37.76C107.181 37.76 106.328 37.5067 105.714 37C105.128 36.52 104.754 35.8667 104.594 35.04C104.434 34.24 104.488 33.32 104.754 32.28C105.021 31.2133 105.488 30.1333 106.154 29.04C106.261 28.9067 106.274 28.7867 106.194 28.68C106.114 28.5733 105.994 28.5467 105.834 28.6C105.541 28.7067 105.248 28.8 104.954 28.88C104.661 28.9333 104.341 28.96 103.994 28.96C103.541 28.96 103.034 28.8933 102.474 28.76C101.941 28.6267 101.488 28.3867 101.114 28.04C100.741 27.6667 100.528 27.1867 100.474 26.6C100.421 25.9867 100.674 25.2133 101.234 24.28C101.394 24.04 101.661 23.88 102.034 23.8C102.381 23.72 102.728 23.7067 103.074 23.76C103.421 23.8133 103.701 23.92 103.914 24.08C104.154 24.24 104.221 24.4267 104.114 24.64C103.981 24.88 103.821 25.2133 103.634 25.64C103.448 26.0667 103.301 26.4933 103.194 26.92C103.114 27.32 103.128 27.68 103.234 28C103.341 28.32 103.634 28.48 104.114 28.48C104.808 28.48 105.448 28.36 106.034 28.12C106.621 27.88 107.088 27.5867 107.434 27.24C107.594 27.1333 107.821 27.08 108.114 27.08C108.408 27.0533 108.674 27.08 108.914 27.16C109.181 27.2133 109.381 27.3067 109.514 27.44C109.674 27.5733 109.701 27.7333 109.594 27.92C109.488 28.08 109.288 28.4267 108.994 28.96C108.701 29.4933 108.394 30.1067 108.074 30.8C107.754 31.4933 107.448 32.2267 107.154 33C106.888 33.7733 106.728 34.48 106.674 35.12C106.621 35.76 106.714 36.28 106.954 36.68C107.194 37.1067 107.661 37.32 108.354 37.32C109.714 37.32 111.128 36.9867 112.594 36.32C114.061 35.68 115.594 34.88 117.194 33.92C118.821 32.96 120.528 31.9333 122.314 30.84C124.128 29.72 126.034 28.6933 128.034 27.76ZM151.336 27.76C151.496 27.68 151.63 27.68 151.736 27.76C151.87 27.84 151.83 27.9467 151.616 28.08C148.683 29.5467 146.096 30.7733 143.856 31.76C141.616 32.7467 139.656 33.5467 137.976 34.16C136.296 34.7467 134.87 35.16 133.696 35.4C132.55 35.6667 131.59 35.8 130.816 35.8C129.216 35.8 128.016 35.5467 127.216 35.04C126.39 34.56 125.87 33.9467 125.656 33.2C125.443 32.4533 125.51 31.6533 125.856 30.8C126.176 29.92 126.67 29.1067 127.336 28.36C128.003 27.6133 128.79 27 129.696 26.52C130.63 26.0133 131.603 25.76 132.616 25.76C133.416 25.76 134.056 25.9333 134.536 26.28C135.016 26.6267 135.336 27.0533 135.496 27.56C135.656 28.0667 135.63 28.6133 135.416 29.2C135.23 29.76 134.856 30.2667 134.296 30.72C133.763 31.1733 133.016 31.52 132.056 31.76C131.123 31.9733 129.99 32 128.656 31.84C128.39 31.84 128.243 31.9333 128.216 32.12C128.003 32.9733 128.096 33.6933 128.496 34.28C128.896 34.8667 129.776 35.16 131.136 35.16C131.776 35.16 132.603 35.0667 133.616 34.88C134.656 34.6667 135.963 34.2933 137.536 33.76C139.136 33.2 141.056 32.44 143.296 31.48C145.536 30.52 148.216 29.28 151.336 27.76ZM133.896 26.44C133.47 26.44 133.016 26.5733 132.536 26.84C132.056 27.08 131.576 27.4 131.096 27.8C130.616 28.2 130.163 28.6667 129.736 29.2C129.336 29.7067 129.003 30.2267 128.736 30.76C128.71 30.8133 128.696 30.8667 128.696 30.92C128.696 30.9733 128.736 31.0133 128.816 31.04C128.896 31.0667 129.043 31.08 129.256 31.08C129.47 31.08 129.763 31.0533 130.136 31C131.496 30.7867 132.523 30.44 133.216 29.96C133.936 29.4533 134.403 28.9467 134.616 28.44C134.856 27.9067 134.896 27.44 134.736 27.04C134.576 26.64 134.296 26.44 133.896 26.44ZM62.9073 50.36C63.1473 50.36 63.2807 50.4533 63.3073 50.64C63.334 50.8267 63.2007 50.92 62.9073 50.92C60.5873 50.92 58.374 51.4933 56.2673 52.64C54.1607 53.76 52.1473 55.2533 50.2273 57.12C48.334 58.96 46.534 61.0667 44.8273 63.44C43.1207 65.8133 41.5073 68.24 39.9873 70.72C38.4673 73.1733 37.0407 75.5867 35.7073 77.96C34.374 80.3333 33.1073 82.4533 31.9073 84.32C30.734 86.16 29.6407 87.64 28.6273 88.76C27.614 89.9067 26.6673 90.48 25.7873 90.48C24.6407 90.48 23.9207 90 23.6273 89.04C23.3607 88.08 23.3873 86.8 23.7073 85.2C24.0273 83.6267 24.5607 81.84 25.3073 79.84C26.054 77.8133 26.894 75.7467 27.8273 73.64C28.7873 71.5333 29.7607 69.48 30.7473 67.48C31.7607 65.4533 32.654 63.6533 33.4273 62.08C34.2007 60.48 34.7873 59.2 35.1873 58.24C35.614 57.28 35.734 56.8 35.5473 56.8C35.2807 56.8 34.7873 57.28 34.0673 58.24C33.3473 59.1733 32.4673 60.4267 31.4273 62C30.414 63.5467 29.2673 65.32 27.9873 67.32C26.7073 69.32 25.3873 71.36 24.0273 73.44C22.6673 75.4933 21.294 77.52 19.9073 79.52C18.5473 81.52 17.2407 83.3067 15.9873 84.88C14.7607 86.4267 13.6273 87.6667 12.5873 88.6C11.5473 89.56 10.6807 90.04 9.98734 90.04C9.05401 90.04 8.46734 89.6667 8.22734 88.92C7.98734 88.2 7.98734 87.2 8.22734 85.92C8.49401 84.6667 8.94734 83.2 9.58734 81.52C10.254 79.84 11.0007 78.0533 11.8273 76.16C12.6807 74.2667 13.574 72.32 14.5073 70.32C15.4673 68.2933 16.3607 66.3333 17.1873 64.44C18.0407 62.5467 18.7873 60.76 19.4273 59.08C20.094 57.4 20.5473 55.9333 20.7873 54.68C21.054 53.4 21.0673 52.4 20.8273 51.68C20.5873 50.9333 20.0007 50.56 19.0673 50.56C17.8673 50.56 16.6673 50.92 15.4673 51.64C14.2673 52.36 13.1073 53.3067 11.9873 54.48C10.8673 55.6533 9.80068 57 8.78734 58.52C7.77401 60.0133 6.85401 61.5467 6.02734 63.12C5.22734 64.6667 4.53401 66.2 3.94734 67.72C3.36068 69.2133 2.90734 70.5467 2.58734 71.72C2.29401 72.8933 2.16068 73.84 2.18734 74.56C2.21401 75.28 2.44068 75.64 2.86734 75.64C3.13401 75.64 3.25401 75.7333 3.22734 75.92C3.20068 76.1067 3.08068 76.2 2.86734 76.2C2.01401 76.2 1.45401 75.8267 1.18734 75.08C0.920677 74.3333 0.880677 73.3467 1.06734 72.12C1.28068 70.8933 1.68068 69.4933 2.26734 67.92C2.88068 66.3467 3.64068 64.7467 4.54734 63.12C5.45401 61.4667 6.46734 59.8533 7.58734 58.28C8.73401 56.7067 9.93401 55.3067 11.1873 54.08C12.4673 52.8533 13.774 51.8667 15.1073 51.12C16.4673 50.3733 17.7873 50 19.0673 50C20.454 50 21.454 50.3733 22.0673 51.12C22.6807 51.84 22.9873 52.84 22.9873 54.12C23.014 55.3733 22.8007 56.84 22.3473 58.52C21.894 60.2 21.2807 61.9867 20.5073 63.88C19.7607 65.7733 18.9073 67.7333 17.9473 69.76C17.014 71.76 16.0807 73.7067 15.1473 75.6C14.214 77.4933 13.334 79.28 12.5073 80.96C11.6807 82.64 11.0007 84.1067 10.4673 85.36C9.93401 86.64 9.60068 87.64 9.46734 88.36C9.33401 89.1067 9.50734 89.48 9.98734 89.48C10.6273 89.48 11.454 89 12.4673 88.04C13.4807 87.1067 14.5873 85.8667 15.7873 84.32C17.014 82.7467 18.3073 80.96 19.6673 78.96C21.0273 76.96 22.3873 74.9333 23.7473 72.88C25.1073 70.8 26.4273 68.76 27.7073 66.76C28.9873 64.76 30.1473 62.9867 31.1873 61.44C32.254 59.8667 33.1607 58.6133 33.9073 57.68C34.6807 56.72 35.2273 56.24 35.5473 56.24C36.4007 56.24 36.8407 56.72 36.8673 57.68C36.894 58.64 36.6407 59.92 36.1073 61.52C35.6007 63.0933 34.894 64.8933 33.9873 66.92C33.0807 68.92 32.1207 70.9733 31.1073 73.08C30.1207 75.1867 29.1473 77.2533 28.1873 79.28C27.254 81.28 26.4807 83.08 25.8673 84.68C25.2807 86.2533 24.934 87.52 24.8273 88.48C24.7473 89.44 25.0673 89.92 25.7873 89.92C26.5873 89.92 27.4673 89.3467 28.4273 88.2C29.414 87.08 30.4807 85.6 31.6273 83.76C32.8007 81.8933 34.054 79.7733 35.3873 77.4C36.7207 75.0267 38.1473 72.6133 39.6673 70.16C41.1873 67.68 42.814 65.2533 44.5473 62.88C46.2807 60.5067 48.1073 58.4 50.0273 56.56C51.974 54.6933 54.014 53.2 56.1473 52.08C58.2807 50.9333 60.534 50.36 62.9073 50.36ZM53.4461 77.84C53.5528 77.84 53.6461 77.7733 53.7261 77.64C53.8061 77.48 53.9661 77.3467 54.2061 77.24C54.3394 77.1867 54.5528 77.1467 54.8461 77.12C55.1661 77.0933 55.4594 77.1067 55.7261 77.16C56.0194 77.1867 56.2461 77.2667 56.4061 77.4C56.5661 77.5067 56.5794 77.6533 56.4461 77.84C56.3394 78 56.1261 78.3467 55.8061 78.88C55.5128 79.4133 55.1928 80.04 54.8461 80.76C54.5261 81.4533 54.2194 82.1867 53.9261 82.96C53.6594 83.7333 53.4861 84.44 53.4061 85.08C53.3528 85.72 53.4461 86.2533 53.6861 86.68C53.9261 87.1067 54.3928 87.32 55.0861 87.32C56.4461 87.32 57.8461 87.0133 59.2861 86.4C60.7261 85.7867 62.2461 85.0133 63.8461 84.08C65.4728 83.1467 67.1794 82.12 68.9661 81C70.7794 79.88 72.7128 78.8 74.7661 77.76C74.8728 77.7067 74.9528 77.72 75.0061 77.8C75.0861 77.88 75.0861 77.9467 75.0061 78C72.9261 79.12 70.9661 80.2667 69.1261 81.44C67.2861 82.5867 65.5394 83.64 63.8861 84.6C62.2594 85.5333 60.7128 86.2933 59.2461 86.88C57.7794 87.4667 56.3661 87.76 55.0061 87.76C53.9661 87.76 53.1794 87.5467 52.6461 87.12C52.1128 86.6933 51.7394 86.1733 51.5261 85.56C51.3394 84.9733 51.2594 84.36 51.2861 83.72C51.3394 83.08 51.4194 82.5467 51.5261 82.12C51.5528 82.04 51.5528 81.96 51.5261 81.88C51.4994 81.8 51.4194 81.8267 51.2861 81.96C51.2328 82.0133 51.0861 82.2133 50.8461 82.56C50.6328 82.88 50.3528 83.24 50.0061 83.64C49.6594 84.0133 49.2594 84.36 48.8061 84.68C48.3528 84.9733 47.8728 85.12 47.3661 85.12C46.5661 85.12 45.9794 84.92 45.6061 84.52C45.2061 84.0933 45.0061 83.5867 45.0061 83C44.9794 82.3867 45.1261 81.72 45.4461 81C45.7661 80.28 46.2194 79.6267 46.8061 79.04C47.3928 78.4267 48.0861 77.92 48.8861 77.52C49.7128 77.0933 50.6061 76.88 51.5661 76.88C51.9661 76.88 52.2728 76.9333 52.4861 77.04C52.7261 77.1467 52.9128 77.2667 53.0461 77.4C53.1794 77.5067 53.2728 77.6133 53.3261 77.72C53.3794 77.8 53.4194 77.84 53.4461 77.84ZM52.0861 77.44C51.7128 77.44 51.2728 77.6267 50.7661 78C50.2861 78.3467 49.8061 78.7867 49.3261 79.32C48.8728 79.8267 48.4461 80.4 48.0461 81.04C47.6461 81.6533 47.3394 82.2267 47.1261 82.76C46.9128 83.2667 46.8328 83.7067 46.8861 84.08C46.9394 84.4267 47.1794 84.6 47.6061 84.6C47.8461 84.6 48.1794 84.4267 48.6061 84.08C49.0594 83.7067 49.5128 83.2667 49.9661 82.76C50.4461 82.2267 50.8994 81.6533 51.3261 81.04C51.7794 80.4 52.1261 79.8267 52.3661 79.32C52.6061 78.7867 52.7128 78.3467 52.6861 78C52.6861 77.6267 52.4861 77.44 52.0861 77.44ZM76.8923 75.8C76.4923 75.8 76.2923 75.6133 76.2923 75.24C76.2923 74.8667 76.4923 74.68 76.8923 74.68C77.2657 74.68 77.4523 74.8667 77.4523 75.24C77.4523 75.6133 77.2657 75.8 76.8923 75.8ZM74.6923 77.68C74.799 77.5467 74.999 77.4667 75.2923 77.44C75.5857 77.4133 75.879 77.4267 76.1723 77.48C76.4657 77.5333 76.6923 77.64 76.8523 77.8C77.039 77.9333 77.0657 78.0933 76.9323 78.28C76.8257 78.44 76.6257 78.7867 76.3323 79.32C76.0657 79.8267 75.7723 80.4133 75.4523 81.08C75.159 81.7467 74.8923 82.4533 74.6523 83.2C74.4123 83.92 74.279 84.5867 74.2523 85.2C74.199 85.8133 74.3057 86.32 74.5723 86.72C74.8123 87.12 75.279 87.32 75.9723 87.32C77.3323 87.32 78.7323 87.0133 80.1723 86.4C81.6123 85.7867 83.1323 85.0133 84.7323 84.08C86.359 83.1467 88.0657 82.12 89.8523 81C91.6657 79.88 93.599 78.8 95.6523 77.76C95.759 77.7067 95.839 77.72 95.8923 77.8C95.9723 77.88 95.9723 77.9467 95.8923 78C93.8123 79.12 91.8523 80.2667 90.0123 81.44C88.1723 82.5867 86.4257 83.64 84.7723 84.6C83.1457 85.5333 81.599 86.2933 80.1323 86.88C78.6657 87.4667 77.2523 87.76 75.8923 87.76C74.6657 87.76 73.7323 87.4667 73.0923 86.88C72.4523 86.2933 72.0923 85.52 72.0123 84.56C71.9323 83.6 72.119 82.52 72.5723 81.32C73.0257 80.12 73.7323 78.9067 74.6923 77.68ZM129.434 65.92C129.647 65.7867 129.78 65.7867 129.834 65.92C129.914 66.0267 129.86 66.1467 129.674 66.28C129.46 66.44 128.98 66.6533 128.234 66.92C127.487 67.1867 126.54 67.4667 125.394 67.76C124.274 68.0267 122.994 68.2667 121.554 68.48C120.114 68.6667 118.594 68.76 116.994 68.76C114.834 68.76 112.874 68.6267 111.114 68.36C109.38 68.0667 107.62 67.76 105.834 67.44C105.78 67.4133 105.66 67.4 105.474 67.4C105.314 67.4 105.194 67.4533 105.114 67.56C102.554 71.1333 100.5 74.32 98.9536 77.12C97.4336 79.8933 96.4069 82.2533 95.8736 84.2C95.3669 86.12 95.3536 87.5867 95.8336 88.6C96.3403 89.6133 97.3536 90.12 98.8736 90.12C100.074 90.12 101.407 89.8133 102.874 89.2C104.367 88.5867 106.02 87.7333 107.834 86.64C109.674 85.5733 111.687 84.2933 113.874 82.8C116.06 81.28 118.434 79.6267 120.994 77.84C121.34 77.6 121.527 77.5733 121.554 77.76C121.607 77.92 121.527 78.0667 121.314 78.2C118.78 79.8533 116.447 81.4267 114.314 82.92C112.18 84.4133 110.194 85.72 108.354 86.84C106.54 87.9867 104.847 88.8933 103.274 89.56C101.7 90.2267 100.234 90.56 98.8736 90.56C96.8736 90.56 95.4203 90.04 94.5136 89C93.5803 87.96 93.2203 86.4533 93.4336 84.48C93.6469 82.5067 94.4203 80.1067 95.7536 77.28C97.1136 74.4267 99.0736 71.1867 101.634 67.56C101.82 67.2933 101.807 67.08 101.594 66.92C101.38 66.7333 101.047 66.6133 100.594 66.56C100.114 66.5067 99.7003 66.4667 99.3536 66.44C99.0336 66.3867 98.7269 66.36 98.4336 66.36C98.1403 66.3333 97.8203 66.32 97.4736 66.32C97.1536 66.2933 96.7536 66.28 96.2736 66.28C94.5136 66.28 93.0069 66.4267 91.7536 66.72C90.4736 66.9867 89.4203 67.3067 88.5936 67.68C87.7669 68.0267 87.1403 68.3733 86.7136 68.72C86.2603 69.0667 85.9803 69.32 85.8736 69.48C85.7403 69.6667 85.6203 69.7333 85.5136 69.68C85.4069 69.6 85.4336 69.4533 85.5936 69.24C85.7003 69.08 85.9803 68.8 86.4336 68.4C86.8869 67.9733 87.5403 67.5333 88.3936 67.08C89.2203 66.6267 90.2869 66.2267 91.5936 65.88C92.8736 65.5333 94.4336 65.36 96.2736 65.36C96.8336 65.36 97.3403 65.3733 97.7936 65.4C98.2736 65.4267 98.7403 65.4667 99.1936 65.52C99.6469 65.5467 100.114 65.6 100.594 65.68C101.074 65.76 101.607 65.84 102.194 65.92C102.487 65.9733 102.7 65.9333 102.834 65.8C102.994 65.64 103.087 65.5467 103.114 65.52C104.127 64.1067 105.167 62.7333 106.234 61.4C107.327 60.0667 108.554 58.6 109.914 57C110.1 56.76 110.407 56.6133 110.834 56.56C111.287 56.48 111.7 56.48 112.074 56.56C112.474 56.6133 112.78 56.72 112.994 56.88C113.234 57.04 113.247 57.2267 113.034 57.44C110.367 60.6933 108.02 63.68 105.994 66.4C105.94 66.4533 105.927 66.52 105.954 66.6C105.98 66.68 106.047 66.7333 106.154 66.76C107.86 67.1333 109.594 67.48 111.354 67.8C113.114 68.12 114.994 68.28 116.994 68.28C118.567 68.28 120.06 68.1867 121.474 68C122.887 67.8133 124.154 67.5867 125.274 67.32C126.394 67.0533 127.314 66.8 128.034 66.56C128.78 66.2933 129.247 66.08 129.434 65.92ZM122.791 75.8C122.391 75.8 122.191 75.6133 122.191 75.24C122.191 74.8667 122.391 74.68 122.791 74.68C123.164 74.68 123.351 74.8667 123.351 75.24C123.351 75.6133 123.164 75.8 122.791 75.8ZM120.591 77.68C120.697 77.5467 120.897 77.4667 121.191 77.44C121.484 77.4133 121.777 77.4267 122.071 77.48C122.364 77.5333 122.591 77.64 122.751 77.8C122.937 77.9333 122.964 78.0933 122.831 78.28C122.724 78.44 122.524 78.7867 122.231 79.32C121.964 79.8267 121.671 80.4133 121.351 81.08C121.057 81.7467 120.791 82.4533 120.551 83.2C120.311 83.92 120.177 84.5867 120.151 85.2C120.097 85.8133 120.204 86.32 120.471 86.72C120.711 87.12 121.177 87.32 121.871 87.32C123.231 87.32 124.631 87.0133 126.071 86.4C127.511 85.7867 129.031 85.0133 130.631 84.08C132.257 83.1467 133.964 82.12 135.751 81C137.564 79.88 139.497 78.8 141.551 77.76C141.657 77.7067 141.737 77.72 141.791 77.8C141.871 77.88 141.871 77.9467 141.791 78C139.711 79.12 137.751 80.2667 135.911 81.44C134.071 82.5867 132.324 83.64 130.671 84.6C129.044 85.5333 127.497 86.2933 126.031 86.88C124.564 87.4667 123.151 87.76 121.791 87.76C120.564 87.76 119.631 87.4667 118.991 86.88C118.351 86.2933 117.991 85.52 117.911 84.56C117.831 83.6 118.017 82.52 118.471 81.32C118.924 80.12 119.631 78.9067 120.591 77.68ZM166.372 77.6C166.585 77.4667 166.719 77.4533 166.772 77.56C166.825 77.6667 166.759 77.7867 166.572 77.92C166.439 78 166.079 78.24 165.492 78.64C164.905 79.04 164.172 79.52 163.292 80.08C162.439 80.6133 161.465 81.1867 160.372 81.8C159.305 82.4133 158.225 82.9867 157.132 83.52C156.039 84.0267 154.972 84.4533 153.932 84.8C152.919 85.12 152.012 85.28 151.212 85.28C150.065 85.28 149.239 85.12 148.732 84.8C148.225 84.4533 147.919 84.04 147.812 83.56C147.705 83.0533 147.732 82.52 147.892 81.96C148.079 81.3733 148.265 80.84 148.452 80.36C148.639 79.8533 148.772 79.44 148.852 79.12C148.932 78.7733 148.839 78.6 148.572 78.6C147.959 78.6 147.199 78.8533 146.292 79.36C145.412 79.8667 144.519 80.4933 143.612 81.24C142.732 81.9867 141.919 82.8 141.172 83.68C140.399 84.56 139.839 85.36 139.492 86.08C139.385 86.32 139.212 86.4667 138.972 86.52C138.732 86.6 138.505 86.6133 138.292 86.56C138.052 86.5067 137.865 86.4133 137.732 86.28C137.572 86.1467 137.532 86 137.612 85.84C137.692 85.52 137.865 85.0667 138.132 84.48C138.372 83.8933 138.679 83.2267 139.052 82.48C139.399 81.7067 139.785 80.8933 140.212 80.04C140.639 79.16 141.092 78.2933 141.572 77.44C141.759 77.12 142.039 76.9067 142.412 76.8C142.812 76.6667 143.199 76.6133 143.572 76.64C143.972 76.6667 144.279 76.76 144.492 76.92C144.732 77.0533 144.785 77.2267 144.652 77.44C144.145 78.2667 143.692 79 143.292 79.64C142.919 80.2533 142.532 80.9067 142.132 81.6C141.839 82.08 141.919 82.1467 142.372 81.8C142.959 81.32 143.532 80.8533 144.092 80.4C144.652 79.9467 145.199 79.5467 145.732 79.2C146.292 78.8267 146.812 78.5333 147.292 78.32C147.799 78.08 148.279 77.96 148.732 77.96C149.639 77.96 150.239 78.1333 150.532 78.48C150.825 78.8 150.945 79.2133 150.892 79.72C150.865 80.2267 150.732 80.7867 150.492 81.4C150.279 81.9867 150.105 82.5333 149.972 83.04C149.865 83.5467 149.879 83.9733 150.012 84.32C150.145 84.64 150.545 84.8 151.212 84.8C151.985 84.8 152.879 84.64 153.892 84.32C154.905 83.9733 155.945 83.5467 157.012 83.04C158.105 82.5333 159.185 81.9867 160.252 81.4C161.319 80.7867 162.279 80.2133 163.132 79.68C164.012 79.1467 164.745 78.6933 165.332 78.32C165.919 77.92 166.265 77.68 166.372 77.6ZM187.939 77.92C188.099 77.76 188.232 77.7467 188.339 77.88C188.445 77.9867 188.419 78.1067 188.259 78.24C186.525 80 184.792 81.5733 183.059 82.96C181.352 84.32 179.645 85.5733 177.939 86.72C176.259 87.8667 174.565 88.9067 172.859 89.84C171.179 90.8 169.499 91.7333 167.819 92.64C167.525 92.8 167.272 93.0133 167.059 93.28C166.845 93.5467 166.592 93.92 166.299 94.4C164.619 97.28 163.125 99.72 161.819 101.72C160.512 103.72 159.312 105.333 158.219 106.56C157.099 107.813 156.032 108.72 155.019 109.28C154.005 109.84 152.939 110.12 151.819 110.12C150.885 110.12 150.125 109.813 149.539 109.2C148.952 108.613 148.659 107.827 148.659 106.84C148.659 105.56 149.005 104.4 149.699 103.36C150.392 102.32 151.365 101.32 152.619 100.36C153.845 99.4267 155.325 98.48 157.059 97.52C158.792 96.5867 160.699 95.5733 162.779 94.48C163.152 94.2667 163.419 94.08 163.579 93.92C163.712 93.76 163.805 93.6133 163.859 93.48C164.685 91.8533 165.525 90.1467 166.379 88.36C167.232 86.5733 168.192 84.56 169.259 82.32C169.312 82.1867 169.299 82.1067 169.219 82.08C169.165 82.0267 169.099 82.0533 169.019 82.16C168.965 82.2133 168.819 82.4 168.579 82.72C168.365 83.0133 168.085 83.3467 167.739 83.72C167.392 84.0667 166.992 84.3867 166.539 84.68C166.112 84.9733 165.645 85.12 165.139 85.12C164.339 85.12 163.752 84.92 163.379 84.52C162.979 84.0933 162.779 83.5867 162.779 83C162.752 82.3867 162.899 81.72 163.219 81C163.539 80.28 163.992 79.6267 164.579 79.04C165.165 78.4267 165.859 77.92 166.659 77.52C167.485 77.0933 168.379 76.88 169.339 76.88C169.685 76.88 169.965 76.92 170.179 77C170.392 77.0533 170.552 77.1333 170.659 77.24C170.792 77.32 170.885 77.4133 170.939 77.52C170.992 77.6 171.045 77.6533 171.099 77.68C171.152 77.7333 171.219 77.7467 171.299 77.72C171.379 77.6933 171.432 77.6533 171.459 77.6C171.592 77.36 171.832 77.2 172.179 77.12C172.552 77.0133 172.899 76.9867 173.219 77.04C173.565 77.0667 173.832 77.1867 174.019 77.4C174.205 77.6133 174.179 77.92 173.939 78.32C172.872 80.72 171.885 82.8933 170.979 84.84C170.099 86.7867 169.205 88.6933 168.299 90.56C168.059 91.0667 168.032 91.36 168.219 91.44C168.405 91.52 168.645 91.48 168.939 91.32C170.485 90.4667 172.045 89.5733 173.619 88.64C175.219 87.7333 176.805 86.7467 178.379 85.68C179.979 84.64 181.579 83.48 183.179 82.2C184.779 80.92 186.365 79.4933 187.939 77.92ZM165.379 84.6C165.619 84.6 165.952 84.4267 166.379 84.08C166.832 83.7067 167.285 83.2667 167.739 82.76C168.219 82.2267 168.672 81.6533 169.099 81.04C169.552 80.4 169.899 79.8267 170.139 79.32C170.379 78.7867 170.485 78.3467 170.459 78C170.459 77.6267 170.259 77.44 169.859 77.44C169.485 77.44 169.045 77.6267 168.539 78C168.059 78.3467 167.579 78.7867 167.099 79.32C166.645 79.8267 166.219 80.4 165.819 81.04C165.419 81.6533 165.112 82.2267 164.899 82.76C164.685 83.2667 164.605 83.7067 164.659 84.08C164.712 84.4267 164.952 84.6 165.379 84.6ZM151.819 109.64C153.019 109.64 154.512 108.507 156.299 106.24C158.059 104 160.019 100.773 162.179 96.56C162.365 96.1867 162.432 95.92 162.379 95.76C162.299 95.6 161.979 95.6667 161.419 95.96C159.632 96.8933 158.005 97.7733 156.539 98.6C155.045 99.4267 153.765 100.253 152.699 101.08C151.632 101.933 150.805 102.813 150.219 103.72C149.632 104.653 149.339 105.693 149.339 106.84C149.339 107.693 149.565 108.373 150.019 108.88C150.445 109.387 151.045 109.64 151.819 109.64ZM34.8067 127.84C34.9401 127.733 35.0601 127.747 35.1667 127.88C35.3001 127.987 35.2867 128.107 35.1267 128.24C33.4467 129.813 31.7001 131.16 29.8867 132.28C28.1001 133.373 26.3001 134.28 24.4867 135C22.6734 135.72 20.8601 136.28 19.0467 136.68C17.2601 137.107 15.5134 137.4 13.8067 137.56C13.2734 137.613 12.9001 137.707 12.6867 137.84C12.4734 137.973 12.3001 138.187 12.1667 138.48C11.9001 139.067 11.6867 139.533 11.5267 139.88C11.3401 140.253 11.2067 140.547 11.1267 140.76C11.0201 141 10.9667 141.187 10.9667 141.32C10.9401 141.48 10.9534 141.64 11.0067 141.8C11.2201 142.493 11.3801 143.267 11.4867 144.12C11.5667 145 11.5934 145.88 11.5667 146.76C11.5401 147.64 11.4601 148.507 11.3267 149.36C11.1667 150.213 10.9534 150.96 10.6867 151.6C10.3934 152.267 10.0601 152.8 9.68672 153.2C9.28672 153.6 8.82005 153.8 8.28672 153.8C7.19338 153.8 6.42005 153.413 5.96672 152.64C5.51339 151.893 5.32672 150.867 5.40672 149.56C5.48672 148.253 5.80672 146.733 6.36672 145C6.90005 143.267 7.60672 141.413 8.48672 139.44C8.62005 139.147 8.60672 138.893 8.44672 138.68L8.04672 138.2C7.83339 137.96 7.72672 137.773 7.72672 137.64C7.70005 137.507 7.75339 137.413 7.88672 137.36C7.99339 137.307 8.15339 137.28 8.36672 137.28C8.58005 137.28 8.80672 137.28 9.04672 137.28C9.34005 137.28 9.55339 137.133 9.68672 136.84C10.5134 135.213 11.4067 133.587 12.3667 131.96C13.3267 130.307 14.3134 128.747 15.3267 127.28C16.3401 125.787 17.3667 124.4 18.4067 123.12C19.4467 121.84 20.4601 120.733 21.4467 119.8C22.4601 118.867 23.4201 118.133 24.3267 117.6C25.2334 117.067 26.0734 116.8 26.8467 116.8C27.4601 116.8 27.8067 117.027 27.8867 117.48C27.9667 117.907 27.8467 118.467 27.5267 119.16C27.2334 119.827 26.7667 120.573 26.1267 121.4C25.5134 122.227 24.7934 123.04 23.9667 123.84C23.1667 124.613 22.3134 125.333 21.4067 126C20.5001 126.64 19.6067 127.12 18.7267 127.44C18.5134 127.52 18.3667 127.587 18.2867 127.64C18.2067 127.667 18.1001 127.8 17.9667 128.04C17.5134 128.787 17.1001 129.48 16.7267 130.12C16.3534 130.76 15.9934 131.4 15.6467 132.04C15.3001 132.653 14.9534 133.28 14.6067 133.92C14.2601 134.533 13.8867 135.213 13.4867 135.96C13.0867 136.76 13.1934 137.12 13.8067 137.04C15.4601 136.853 17.1934 136.533 19.0067 136.08C20.8201 135.653 22.6334 135.08 24.4467 134.36C26.2601 133.613 28.0467 132.707 29.8067 131.64C31.5667 130.547 33.2334 129.28 34.8067 127.84ZM26.4867 117.84C26.1401 117.84 25.7134 118.04 25.2067 118.44C24.7001 118.84 24.1401 119.4 23.5267 120.12C22.9134 120.84 22.2467 121.707 21.5267 122.72C20.8067 123.707 20.0734 124.8 19.3267 126C19.2734 126.08 19.2334 126.173 19.2067 126.28C19.1801 126.387 19.2201 126.453 19.3267 126.48C19.4601 126.507 19.6734 126.453 19.9667 126.32C20.2867 126.16 20.7667 125.853 21.4067 125.4C22.3401 124.733 23.2201 123.973 24.0467 123.12C24.9001 122.24 25.5934 121.413 26.1267 120.64C26.6601 119.84 26.9801 119.173 27.0867 118.64C27.1934 118.107 26.9934 117.84 26.4867 117.84ZM8.28672 153.4C8.87339 153.4 9.38005 153.027 9.80672 152.28C10.2334 151.56 10.5534 150.653 10.7667 149.56C10.9801 148.493 11.1001 147.347 11.1267 146.12C11.1267 144.893 11.0067 143.8 10.7667 142.84C10.7134 142.573 10.6334 142.48 10.5267 142.56C10.3934 142.64 10.2601 142.8 10.1267 143.04C9.96672 143.307 9.82005 143.613 9.68672 143.96C9.52672 144.307 9.39339 144.6 9.28672 144.84C8.78005 146.093 8.36672 147.24 8.04672 148.28C7.70005 149.32 7.47338 150.213 7.36672 150.96C7.26005 151.733 7.27339 152.333 7.40672 152.76C7.54005 153.187 7.83339 153.4 8.28672 153.4ZM56.6886 127.84C56.8219 127.733 56.9153 127.72 56.9686 127.8C57.0486 127.88 57.0086 127.987 56.8486 128.12C56.4486 128.36 55.7686 128.8 54.8086 129.44C53.8753 130.08 52.7419 130.733 51.4086 131.4C50.1019 132.04 48.6353 132.613 47.0086 133.12C45.4086 133.627 43.7419 133.88 42.0086 133.88C41.5286 133.88 41.0886 133.853 40.6886 133.8C40.2886 133.747 39.9153 133.68 39.5686 133.6C39.4886 133.573 39.4219 133.587 39.3686 133.64C38.8353 134.2 38.2486 134.667 37.6086 135.04C36.9686 135.413 36.2886 135.627 35.5686 135.68H35.3686C34.4086 135.653 33.7553 135.32 33.4086 134.68C33.0353 134.04 32.8886 133.28 32.9686 132.4C33.0486 131.493 33.3019 130.573 33.7286 129.64C34.1553 128.68 34.6886 127.893 35.3286 127.28C35.6486 126.96 36.0486 126.933 36.5286 127.2C36.6886 127.307 36.7953 127.333 36.8486 127.28C36.9286 127.2 37.0086 127.12 37.0886 127.04C37.3019 126.827 37.5553 126.627 37.8486 126.44C38.1686 126.253 38.5419 126.16 38.9686 126.16C39.7953 126.16 40.4086 126.387 40.8086 126.84C41.2086 127.267 41.4219 127.827 41.4486 128.52C41.5019 129.187 41.3819 129.92 41.0886 130.72C40.8219 131.493 40.4353 132.24 39.9286 132.96C39.8753 133.013 39.8486 133.08 39.8486 133.16C39.8753 133.24 39.9419 133.293 40.0486 133.32C40.6619 133.453 41.3153 133.52 42.0086 133.52C43.7153 133.52 45.3553 133.28 46.9286 132.8C48.5286 132.293 49.9819 131.72 51.2886 131.08C52.5953 130.413 53.7153 129.773 54.6486 129.16C55.6086 128.52 56.2886 128.08 56.6886 127.84ZM39.7286 127C39.3553 127 38.9553 127.253 38.5286 127.76C38.1286 128.24 37.8353 128.813 37.6486 129.48C37.4619 130.12 37.4619 130.787 37.6486 131.48C37.8353 132.147 38.3553 132.667 39.2086 133.04C39.2619 133.067 39.3419 133.027 39.4486 132.92C39.9286 132.333 40.3019 131.693 40.5686 131C40.8353 130.307 40.9819 129.667 41.0086 129.08C41.0619 128.467 40.9819 127.973 40.7686 127.6C40.5819 127.2 40.2353 127 39.7286 127ZM36.0086 135.16C36.5419 135.16 37.0486 135.013 37.5286 134.72C38.0086 134.4 38.4353 134.053 38.8086 133.68C38.9419 133.493 38.9153 133.36 38.7286 133.28C38.1153 133.04 37.6219 132.733 37.2486 132.36C36.9019 131.987 36.6353 131.573 36.4486 131.12C36.3953 130.987 36.3019 130.96 36.1686 131.04C36.0353 131.12 35.9286 131.267 35.8486 131.48C35.6886 131.907 35.5553 132.333 35.4486 132.76C35.3419 133.187 35.2753 133.587 35.2486 133.96C35.2219 134.307 35.2619 134.6 35.3686 134.84C35.5019 135.053 35.7153 135.16 36.0086 135.16ZM82.6436 127.76C82.7503 127.707 82.8303 127.72 82.8836 127.8C82.9636 127.88 82.9636 127.947 82.8836 128C80.7503 129.067 78.7636 130.173 76.9236 131.32C75.0836 132.467 73.3503 133.52 71.7236 134.48C70.0969 135.44 68.5503 136.227 67.0836 136.84C65.6436 137.453 64.2436 137.76 62.8836 137.76C61.7903 137.76 60.9369 137.507 60.3236 137C59.7369 136.52 59.3636 135.867 59.2036 135.04C59.0436 134.24 59.0969 133.32 59.3636 132.28C59.6303 131.213 60.0969 130.133 60.7636 129.04C60.8703 128.907 60.8836 128.787 60.8036 128.68C60.7236 128.573 60.6036 128.547 60.4436 128.6C60.1503 128.707 59.8569 128.8 59.5636 128.88C59.2703 128.933 58.9503 128.96 58.6036 128.96C58.1503 128.96 57.6436 128.893 57.0836 128.76C56.5503 128.627 56.0969 128.387 55.7236 128.04C55.3503 127.667 55.1369 127.187 55.0836 126.6C55.0303 125.987 55.2836 125.213 55.8436 124.28C56.0036 124.04 56.2703 123.88 56.6436 123.8C56.9903 123.72 57.3369 123.707 57.6836 123.76C58.0303 123.813 58.3103 123.92 58.5236 124.08C58.7636 124.24 58.8303 124.427 58.7236 124.64C58.5903 124.88 58.4303 125.213 58.2436 125.64C58.0569 126.067 57.9103 126.493 57.8036 126.92C57.7236 127.32 57.7369 127.68 57.8436 128C57.9503 128.32 58.2436 128.48 58.7236 128.48C59.4169 128.48 60.0569 128.36 60.6436 128.12C61.2303 127.88 61.6969 127.587 62.0436 127.24C62.2036 127.133 62.4303 127.08 62.7236 127.08C63.0169 127.053 63.2836 127.08 63.5236 127.16C63.7903 127.213 63.9903 127.307 64.1236 127.44C64.2836 127.573 64.3103 127.733 64.2036 127.92C64.0969 128.08 63.8969 128.427 63.6036 128.96C63.3103 129.493 63.0036 130.107 62.6836 130.8C62.3636 131.493 62.0569 132.227 61.7636 133C61.4969 133.773 61.3369 134.48 61.2836 135.12C61.2303 135.76 61.3236 136.28 61.5636 136.68C61.8036 137.107 62.2703 137.32 62.9636 137.32C64.3236 137.32 65.7369 136.987 67.2036 136.32C68.6703 135.68 70.2036 134.88 71.8036 133.92C73.4303 132.96 75.1369 131.933 76.9236 130.84C78.7369 129.72 80.6436 128.693 82.6436 127.76ZM120.786 127.92C120.946 127.76 121.079 127.747 121.186 127.88C121.293 127.987 121.266 128.107 121.106 128.24C119.373 130 117.639 131.573 115.906 132.96C114.199 134.32 112.493 135.56 110.786 136.68C109.106 137.827 107.426 138.867 105.746 139.8C104.066 140.76 102.399 141.693 100.746 142.6C100.559 142.707 100.399 142.8 100.266 142.88C100.159 142.96 100.039 143.067 99.9061 143.2C99.7994 143.333 99.6794 143.493 99.5461 143.68C99.4128 143.867 99.2661 144.12 99.1061 144.44C97.6128 147.107 96.2261 149.427 94.9461 151.4C93.6661 153.373 92.4528 155 91.3061 156.28C90.1328 157.587 88.9994 158.547 87.9061 159.16C86.8128 159.8 85.7328 160.12 84.6661 160.12C83.7328 160.12 82.9728 159.813 82.3861 159.2C81.7994 158.613 81.5061 157.827 81.5061 156.84C81.5061 155.507 81.8528 154.307 82.5461 153.24C83.2394 152.173 84.2128 151.16 85.4661 150.2C86.7194 149.24 88.2261 148.293 89.9861 147.36C91.7461 146.427 93.6928 145.427 95.8261 144.36C96.0661 144.227 96.2394 144.093 96.3461 143.96C96.4528 143.853 96.5728 143.68 96.7061 143.44C97.0794 142.72 97.4928 141.893 97.9461 140.96C98.4261 140.027 98.9194 139.053 99.4261 138.04C99.9328 137.027 100.426 135.987 100.906 134.92C101.413 133.827 101.866 132.773 102.266 131.76C102.319 131.653 102.306 131.6 102.226 131.6C102.146 131.6 102.079 131.627 102.026 131.68C100.933 133.067 99.8794 134.187 98.8661 135.04C97.8528 135.893 96.9594 136.32 96.1861 136.32C95.4661 136.32 94.9061 136.08 94.5061 135.6C94.1061 135.12 93.9061 134.453 93.9061 133.6C93.8794 132.747 94.0794 131.747 94.5061 130.6C94.9061 129.427 95.5461 128.173 96.4261 126.84C96.5861 126.627 96.8394 126.48 97.1861 126.4C97.5594 126.293 97.9061 126.253 98.2261 126.28C98.5728 126.307 98.8394 126.4 99.0261 126.56C99.2128 126.693 99.2128 126.88 99.0261 127.12C98.1461 128.373 97.4394 129.533 96.9061 130.6C96.3728 131.64 95.9994 132.547 95.7861 133.32C95.5994 134.093 95.5594 134.693 95.6661 135.12C95.7728 135.573 96.0261 135.8 96.4261 135.8C96.8794 135.8 97.3728 135.6 97.9061 135.2C98.4661 134.8 99.0261 134.293 99.5861 133.68C100.173 133.067 100.733 132.4 101.266 131.68C101.826 130.96 102.319 130.293 102.746 129.68C103.199 129.04 103.573 128.507 103.866 128.08C104.186 127.653 104.386 127.427 104.466 127.4C104.679 127.213 104.959 127.093 105.306 127.04C105.653 126.987 105.959 127 106.226 127.08C106.519 127.133 106.733 127.267 106.866 127.48C106.999 127.693 106.973 127.973 106.786 128.32C105.719 130.747 104.693 133.013 103.706 135.12C102.719 137.253 101.759 139.267 100.826 141.16C100.746 141.293 100.733 141.427 100.786 141.56C100.866 141.693 100.973 141.733 101.106 141.68C102.706 140.827 104.333 139.92 105.986 138.96C107.639 138.027 109.293 137 110.946 135.88C112.626 134.787 114.293 133.587 115.946 132.28C117.599 130.947 119.213 129.493 120.786 127.92ZM84.6661 159.64C85.8394 159.64 87.2928 158.533 89.0261 156.32C90.7328 154.133 92.8128 150.733 95.2661 146.12C95.3461 145.96 95.3328 145.813 95.2261 145.68C95.1194 145.573 94.9861 145.56 94.8261 145.64C92.9861 146.6 91.2928 147.507 89.7461 148.36C88.1994 149.213 86.8661 150.08 85.7461 150.96C84.6261 151.84 83.7594 152.747 83.1461 153.68C82.5061 154.64 82.1861 155.693 82.1861 156.84C82.1861 157.693 82.4128 158.373 82.8661 158.88C83.2928 159.387 83.8928 159.64 84.6661 159.64ZM142.743 127.84C142.877 127.733 142.97 127.72 143.023 127.8C143.103 127.88 143.063 127.987 142.903 128.12C142.503 128.36 141.823 128.8 140.863 129.44C139.93 130.08 138.797 130.733 137.463 131.4C136.157 132.04 134.69 132.613 133.063 133.12C131.463 133.627 129.797 133.88 128.063 133.88C127.583 133.88 127.143 133.853 126.743 133.8C126.343 133.747 125.97 133.68 125.623 133.6C125.543 133.573 125.477 133.587 125.423 133.64C124.89 134.2 124.303 134.667 123.663 135.04C123.023 135.413 122.343 135.627 121.623 135.68H121.423C120.463 135.653 119.81 135.32 119.463 134.68C119.09 134.04 118.943 133.28 119.023 132.4C119.103 131.493 119.357 130.573 119.783 129.64C120.21 128.68 120.743 127.893 121.383 127.28C121.703 126.96 122.103 126.933 122.583 127.2C122.743 127.307 122.85 127.333 122.903 127.28C122.983 127.2 123.063 127.12 123.143 127.04C123.357 126.827 123.61 126.627 123.903 126.44C124.223 126.253 124.597 126.16 125.023 126.16C125.85 126.16 126.463 126.387 126.863 126.84C127.263 127.267 127.477 127.827 127.503 128.52C127.557 129.187 127.437 129.92 127.143 130.72C126.877 131.493 126.49 132.24 125.983 132.96C125.93 133.013 125.903 133.08 125.903 133.16C125.93 133.24 125.997 133.293 126.103 133.32C126.717 133.453 127.37 133.52 128.063 133.52C129.77 133.52 131.41 133.28 132.983 132.8C134.583 132.293 136.037 131.72 137.343 131.08C138.65 130.413 139.77 129.773 140.703 129.16C141.663 128.52 142.343 128.08 142.743 127.84ZM125.783 127C125.41 127 125.01 127.253 124.583 127.76C124.183 128.24 123.89 128.813 123.703 129.48C123.517 130.12 123.517 130.787 123.703 131.48C123.89 132.147 124.41 132.667 125.263 133.04C125.317 133.067 125.397 133.027 125.503 132.92C125.983 132.333 126.357 131.693 126.623 131C126.89 130.307 127.037 129.667 127.063 129.08C127.117 128.467 127.037 127.973 126.823 127.6C126.637 127.2 126.29 127 125.783 127ZM122.063 135.16C122.597 135.16 123.103 135.013 123.583 134.72C124.063 134.4 124.49 134.053 124.863 133.68C124.997 133.493 124.97 133.36 124.783 133.28C124.17 133.04 123.677 132.733 123.303 132.36C122.957 131.987 122.69 131.573 122.503 131.12C122.45 130.987 122.357 130.96 122.223 131.04C122.09 131.12 121.983 131.267 121.903 131.48C121.743 131.907 121.61 132.333 121.503 132.76C121.397 133.187 121.33 133.587 121.303 133.96C121.277 134.307 121.317 134.6 121.423 134.84C121.557 135.053 121.77 135.16 122.063 135.16ZM145.978 127.12C145.098 128.373 144.392 129.533 143.858 130.6C143.352 131.667 142.992 132.587 142.778 133.36C142.565 134.133 142.512 134.733 142.618 135.16C142.725 135.587 142.978 135.8 143.378 135.8C143.832 135.8 144.338 135.587 144.898 135.16C145.458 134.76 146.018 134.253 146.578 133.64C147.165 133 147.738 132.32 148.298 131.6C148.885 130.853 149.405 130.173 149.858 129.56C150.312 128.92 150.685 128.387 150.978 127.96C151.298 127.507 151.498 127.267 151.578 127.24C151.712 127.187 151.925 127.147 152.218 127.12C152.538 127.093 152.832 127.107 153.098 127.16C153.392 127.187 153.618 127.267 153.778 127.4C153.938 127.507 153.952 127.653 153.818 127.84C153.712 128 153.498 128.347 153.178 128.88C152.885 129.413 152.578 130.04 152.258 130.76C151.938 131.453 151.632 132.187 151.338 132.96C151.045 133.733 150.872 134.44 150.818 135.08C150.765 135.72 150.845 136.253 151.058 136.68C151.298 137.107 151.765 137.32 152.458 137.32C153.818 137.32 155.205 136.973 156.618 136.28C158.032 135.613 159.525 134.8 161.098 133.84C162.698 132.853 164.405 131.813 166.218 130.72C168.032 129.6 170.005 128.613 172.138 127.76C172.245 127.707 172.325 127.72 172.378 127.8C172.458 127.88 172.458 127.947 172.378 128C170.245 129.067 168.258 130.173 166.418 131.32C164.578 132.467 162.845 133.52 161.218 134.48C159.592 135.44 158.045 136.227 156.578 136.84C155.138 137.453 153.738 137.76 152.378 137.76C151.338 137.76 150.552 137.547 150.018 137.12C149.485 136.693 149.112 136.173 148.898 135.56C148.712 134.973 148.632 134.36 148.658 133.72C148.712 133.08 148.792 132.547 148.898 132.12C148.925 132.04 148.925 131.96 148.898 131.88C148.872 131.8 148.792 131.827 148.658 131.96C148.605 132.013 148.405 132.267 148.058 132.72C147.712 133.173 147.272 133.667 146.738 134.2C146.232 134.733 145.658 135.213 145.018 135.64C144.405 136.093 143.778 136.32 143.138 136.32C142.418 136.32 141.858 136.08 141.458 135.6C141.058 135.12 140.858 134.453 140.858 133.6C140.832 132.747 141.032 131.747 141.458 130.6C141.858 129.427 142.498 128.173 143.378 126.84C143.538 126.627 143.792 126.48 144.138 126.4C144.512 126.293 144.858 126.253 145.178 126.28C145.525 126.307 145.792 126.4 145.978 126.56C146.165 126.693 146.165 126.88 145.978 127.12Z" fill="white"/>
</svg>
