<svg width="51" height="36" viewBox="0 0 51 36" fill="none" xmlns="http://www.w3.org/2000/svg">
<g clip-path="url(#clip0_26_478)">
<path d="M30.0561 6.69683C29.2293 6.20668 28.2844 6.03542 27.3395 5.92912C27.4399 5.68109 27.4931 5.42124 27.4931 5.15549C28.438 5.16731 29.4655 4.57675 30.1092 3.97439C30.7529 3.37203 31.5502 2.19093 30.8828 1.32872C30.2096 0.460612 28.8632 1.12203 28.1309 1.55904C27.3691 2.01376 26.7076 2.66337 26.5482 3.51967C26.2057 3.30707 25.8041 3.18305 25.4084 3.18305C25.3789 2.23817 25.1073 1.20471 24.4399 0.525573C23.8671 -0.0531672 22.934 -0.242144 22.3789 0.460612C21.2687 1.86022 22.7923 3.58463 24.2332 3.96849C24.2332 3.9803 24.2332 3.99211 24.2451 4.00392C23.9262 4.2992 23.7136 4.71258 23.6781 5.1614C22.6683 4.99605 21.4872 5.12597 20.5836 5.50983C19.8513 5.81691 19.308 6.69093 19.8691 7.40549C20.3947 8.07282 21.4163 7.96061 22.1427 7.80116C22.9695 7.624 23.7549 7.25786 24.31 6.63187C24.4104 6.71455 24.5108 6.78542 24.623 6.85038C23.6013 7.9488 22.2195 11.5039 24.0265 11.9823C24.9183 12.2185 25.6801 11.0787 25.9813 10.4055C26.4714 9.31888 26.4183 8.17321 26.1525 7.05116C26.1821 7.03935 26.2175 7.03935 26.247 7.02754C26.3592 6.9862 26.4655 6.93305 26.5659 6.874C27.0265 7.7303 28.1368 8.49801 28.9517 8.87597C29.5777 9.16534 31.0069 9.46061 31.3317 8.55116C31.5915 7.83069 30.5817 7.01573 30.0561 6.70274V6.69683ZM22.9754 1.28738C23.0994 0.312975 24.0147 1.0866 24.2687 1.57675C24.558 2.12597 24.6702 2.71652 24.6821 3.33069C24.6407 3.34841 24.6053 3.37203 24.5639 3.39565C23.749 3.01179 22.8513 2.25589 22.9695 1.29329L22.9754 1.28738ZM21.2214 7.05707C21.0915 7.05707 20.9616 7.04526 20.8317 7.01573C20.9025 6.76179 20.9675 6.50195 21.0384 6.24801C21.1388 6.15353 21.6998 6.10038 21.8179 6.08266C22.5147 5.95864 23.1643 5.89368 23.8494 6.06494C23.8671 6.10038 23.8907 6.13581 23.9143 6.17124C23.1643 6.74998 22.1604 7.09841 21.2214 7.06297V7.05707ZM25.5088 9.08266C25.4084 9.54329 24.8947 11.0846 24.3218 10.7716C23.8612 10.5177 24.3041 9.16534 24.4399 8.74014C24.6289 8.14368 24.9832 7.63581 25.1958 7.06297C25.3258 7.0925 25.4616 7.11022 25.5974 7.11022C25.6388 7.77164 25.6447 8.44486 25.5088 9.08266ZM25.8691 6.17124C25.3258 6.32479 24.6939 5.98817 24.5285 5.45077C24.3868 4.99014 24.5876 4.51179 24.9242 4.18699C25.5443 4.05116 26.2588 4.04526 26.5246 4.77754C26.7195 5.30313 26.4183 6.0177 25.8632 6.17715L25.8691 6.17124ZM26.9911 3.874C27.1919 3.26573 27.623 2.79919 28.1663 2.44486C28.5029 2.22636 30.0561 1.2992 30.2569 2.0551C30.4104 2.63384 29.4655 3.40746 29.0699 3.67321C28.4911 4.05707 27.9065 4.11022 27.2746 4.28148C27.1978 4.13384 27.1033 3.99801 26.9852 3.874H26.9911ZM28.4616 7.55904C28.0482 7.25195 27.7175 6.82675 27.3277 6.49014C28.3494 6.73227 29.8612 7.0925 30.3041 8.01967C30.6466 8.73423 28.7332 7.76573 28.4616 7.56494V7.55904Z" fill="white"/>
</g>
<path d="M12.2054 32.82C11.7807 32.82 11.2997 32.742 10.7624 32.586C10.2337 32.4387 9.68337 32.2523 9.11137 32.027C8.54803 31.8017 8.00203 31.5677 7.47337 31.325C6.9447 31.091 6.47237 30.8873 6.05637 30.714C5.66637 31.1387 5.2157 31.4897 4.70437 31.767C4.19303 32.053 3.60803 32.196 2.94937 32.196C2.3167 32.196 1.84437 32.0703 1.53237 31.819C1.22037 31.5677 1.06437 31.2817 1.06437 30.961C1.06437 30.7357 1.14237 30.519 1.29837 30.311C1.46303 30.0943 1.7057 29.9167 2.02637 29.778C2.34703 29.6393 2.7457 29.57 3.22237 29.57C3.71637 29.57 4.18437 29.6307 4.62637 29.752C5.06837 29.8647 5.5017 30.0033 5.92637 30.168C6.1517 29.8907 6.36403 29.5873 6.56337 29.258C6.7627 28.92 6.95337 28.5777 7.13537 28.231C6.84937 28.257 6.55903 28.27 6.26437 28.27C5.6577 28.27 5.0337 28.205 4.39237 28.075C3.8637 27.9623 3.4607 27.763 3.18337 27.477C2.9147 27.1823 2.78037 26.866 2.78037 26.528C2.78037 26.1293 2.9667 25.748 3.33937 25.384C3.71203 25.0113 4.2797 24.7557 5.04237 24.617H5.09437C5.1637 24.617 5.22003 24.643 5.26337 24.695C5.31537 24.7383 5.34137 24.7903 5.34137 24.851C5.34137 24.9637 5.27637 25.033 5.14637 25.059C4.47903 25.1803 3.99803 25.3753 3.70337 25.644C3.41737 25.904 3.27437 26.1727 3.27437 26.45C3.27437 26.7187 3.3827 26.9657 3.59937 27.191C3.8247 27.4077 4.1237 27.5507 4.49637 27.62C5.1117 27.75 5.7097 27.815 6.29037 27.815C6.66303 27.815 7.0227 27.789 7.36937 27.737C7.60337 27.243 7.83303 26.7533 8.05837 26.268C8.2837 25.7827 8.51337 25.332 8.74737 24.916C8.99003 24.4913 9.25003 24.1317 9.52737 23.837C9.82203 23.5337 10.1124 23.3127 10.3984 23.174C10.6844 23.0353 10.9487 22.966 11.1914 22.966C11.5554 22.966 11.8544 23.0917 12.0884 23.343C12.331 23.5857 12.4524 23.8977 12.4524 24.279C12.4524 24.5477 12.383 24.8337 12.2444 25.137C12.1057 25.4403 11.8847 25.748 11.5814 26.06C11.0267 26.632 10.42 27.0913 9.76137 27.438C9.11137 27.776 8.4267 28.01 7.70737 28.14C7.6467 28.27 7.58603 28.3957 7.52537 28.517C7.47337 28.6297 7.41703 28.7423 7.35637 28.855C7.2177 29.1063 7.06603 29.362 6.90137 29.622C6.7367 29.8733 6.55903 30.1203 6.36837 30.363C6.65437 30.493 6.94037 30.6273 7.22637 30.766C7.52103 30.896 7.82003 31.0217 8.12337 31.143C8.3487 31.2297 8.63037 31.3423 8.96837 31.481C9.30637 31.6197 9.66603 31.7583 10.0474 31.897C10.4374 32.0357 10.8187 32.1483 11.1914 32.235C11.5727 32.3303 11.9107 32.378 12.2054 32.378C12.344 32.378 12.4654 32.365 12.5694 32.339C12.5867 32.339 12.5997 32.3347 12.6084 32.326C12.617 32.326 12.6257 32.326 12.6344 32.326C12.7037 32.326 12.7557 32.352 12.7904 32.404C12.8337 32.456 12.8554 32.5123 12.8554 32.573C12.8554 32.6857 12.7947 32.755 12.6734 32.781C12.5347 32.807 12.3787 32.82 12.2054 32.82ZM9.87837 24.149C9.61837 24.4263 9.3757 24.76 9.15037 25.15C8.92503 25.5313 8.7127 25.9387 8.51337 26.372C8.31403 26.7967 8.12337 27.217 7.94137 27.633C8.54803 27.4857 9.1287 27.2603 9.68337 26.957C10.238 26.645 10.7537 26.2463 11.2304 25.761C11.4904 25.4923 11.6767 25.2323 11.7894 24.981C11.902 24.721 11.9584 24.487 11.9584 24.279C11.9584 24.0277 11.8847 23.824 11.7374 23.668C11.5987 23.5033 11.4124 23.421 11.1784 23.421C10.9964 23.421 10.7927 23.4817 10.5674 23.603C10.3507 23.7157 10.121 23.8977 9.87837 24.149ZM1.54537 30.961C1.54537 31.1603 1.65803 31.338 1.88337 31.494C2.11737 31.6587 2.4727 31.741 2.94937 31.741C3.50403 31.741 3.99803 31.6283 4.43137 31.403C4.87337 31.1863 5.2677 30.896 5.61437 30.532H5.60137C5.22003 30.3847 4.83003 30.2633 4.43137 30.168C4.0327 30.064 3.6297 30.012 3.22237 30.012C2.67637 30.012 2.26037 30.1117 1.97437 30.311C1.68837 30.5103 1.54537 30.727 1.54537 30.961ZM11.29 31.221C10.9953 31.221 10.7873 31.1387 10.666 30.974C10.5447 30.8007 10.484 30.5883 10.484 30.337C10.484 30.129 10.5143 29.9037 10.575 29.661C10.6443 29.4097 10.731 29.1627 10.835 28.92C10.8437 28.582 10.9347 28.2483 11.108 27.919C11.29 27.5897 11.5327 27.3167 11.836 27.1C12.148 26.8833 12.512 26.775 12.928 26.775C13.3353 26.775 13.617 26.892 13.773 27.126C13.9377 27.36 14.02 27.6373 14.02 27.958C14.02 28.1487 13.9983 28.3437 13.955 28.543C13.9117 28.7337 13.8553 28.9157 13.786 29.089C13.7167 29.2623 13.63 29.44 13.526 29.622C13.422 29.7953 13.305 29.9687 13.175 30.142C13.435 30.0987 13.6603 30.0163 13.851 29.895C14.0503 29.765 14.2497 29.5873 14.449 29.362C14.6483 29.1367 14.8823 28.8507 15.151 28.504C15.203 28.4433 15.2593 28.413 15.32 28.413C15.3893 28.413 15.4457 28.4347 15.489 28.478C15.541 28.5213 15.567 28.5777 15.567 28.647C15.567 28.699 15.5497 28.7467 15.515 28.79C15.2637 29.1367 15.008 29.4487 14.748 29.726C14.4967 30.0033 14.2107 30.22 13.89 30.376C13.5693 30.532 13.1837 30.61 12.733 30.61C12.525 30.792 12.2997 30.9393 12.057 31.052C11.8143 31.1647 11.5587 31.221 11.29 31.221ZM12.044 27.854C11.94 27.932 11.8143 28.088 11.667 28.322C11.5197 28.556 11.3853 28.8117 11.264 29.089C11.2813 29.3577 11.3897 29.6003 11.589 29.817C11.797 30.025 12.1133 30.142 12.538 30.168C12.85 29.8647 13.1013 29.5093 13.292 29.102C13.4827 28.686 13.578 28.3133 13.578 27.984C13.578 27.7587 13.526 27.5767 13.422 27.438C13.318 27.2993 13.1533 27.23 12.928 27.23C12.772 27.23 12.6203 27.256 12.473 27.308C12.3257 27.36 12.1913 27.4293 12.07 27.516C12.1133 27.5593 12.135 27.6113 12.135 27.672C12.135 27.7413 12.1047 27.802 12.044 27.854ZM10.939 30.311C10.939 30.4497 10.965 30.5623 11.017 30.649C11.0777 30.727 11.1687 30.766 11.29 30.766C11.5413 30.766 11.797 30.688 12.057 30.532C11.8057 30.4713 11.5933 30.376 11.42 30.246C11.2467 30.1073 11.1123 29.9513 11.017 29.778C10.965 29.986 10.939 30.1637 10.939 30.311ZM15.299 31.156C15.0043 31.156 14.8006 31.0823 14.688 30.935C14.5753 30.7877 14.519 30.597 14.519 30.363C14.519 30.1377 14.558 29.8907 14.636 29.622C14.7226 29.3447 14.8223 29.076 14.935 28.816C15.0563 28.556 15.1733 28.3307 15.286 28.14C15.3986 27.9407 15.4853 27.8063 15.546 27.737C15.572 27.4337 15.663 27.2083 15.819 27.061C15.975 26.905 16.1093 26.827 16.222 26.827C16.274 26.827 16.313 26.84 16.339 26.866C16.4083 26.9353 16.443 27.0133 16.443 27.1C16.443 27.2127 16.391 27.3557 16.287 27.529C16.183 27.7023 16.027 27.932 15.819 28.218C15.793 28.2527 15.7366 28.3437 15.65 28.491C15.5633 28.6383 15.4723 28.816 15.377 29.024C15.2816 29.232 15.1993 29.4443 15.13 29.661C15.0606 29.8777 15.026 30.0683 15.026 30.233C15.026 30.519 15.1516 30.662 15.403 30.662C15.6716 30.662 15.936 30.5623 16.196 30.363C16.4646 30.1637 16.7116 29.9123 16.937 29.609C17.171 29.297 17.3746 28.972 17.548 28.634C17.73 28.2873 17.8686 27.9667 17.964 27.672C18.068 27.3773 18.12 27.1477 18.12 26.983C18.12 26.8963 18.1113 26.84 18.094 26.814C18.0593 26.7533 18.042 26.6927 18.042 26.632C18.042 26.554 18.068 26.4933 18.12 26.45C18.172 26.4067 18.2283 26.385 18.289 26.385C18.419 26.385 18.5143 26.4543 18.575 26.593C18.6096 26.6623 18.627 26.7663 18.627 26.905C18.627 27.1477 18.5663 27.451 18.445 27.815C18.3323 28.1703 18.1676 28.543 17.951 28.933C17.743 29.3143 17.5003 29.674 17.223 30.012C16.9456 30.35 16.6423 30.6273 16.313 30.844C15.9836 31.052 15.6456 31.156 15.299 31.156ZM19.5072 31.195C19.2385 31.195 19.0089 31.1127 18.8182 30.948C18.6362 30.7833 18.5452 30.4973 18.5452 30.09C18.5452 29.8127 18.6145 29.4877 18.7532 29.115C18.9005 28.7423 19.0955 28.3827 19.3382 28.036C19.5809 27.6807 19.8495 27.3903 20.1442 27.165C20.4389 26.931 20.7379 26.814 21.0412 26.814C21.2405 26.814 21.3879 26.8877 21.4832 27.035C21.5872 27.1737 21.6392 27.3427 21.6392 27.542C21.6392 27.8367 21.5439 28.1227 21.3532 28.4C21.1625 28.6773 20.9199 28.9027 20.6252 29.076C20.3392 29.2493 20.0532 29.336 19.7672 29.336C19.5332 29.336 19.3555 29.2623 19.2342 29.115C19.1649 29.2883 19.1085 29.4573 19.0652 29.622C19.0219 29.7867 19.0002 29.9427 19.0002 30.09C19.0002 30.3413 19.0522 30.519 19.1562 30.623C19.2689 30.7183 19.4075 30.766 19.5722 30.766C19.7715 30.766 19.9925 30.714 20.2352 30.61C20.4865 30.506 20.7205 30.3847 20.9372 30.246C21.1539 30.0987 21.3142 29.9773 21.4182 29.882C21.5915 29.7347 21.7562 29.5743 21.9122 29.401C22.0769 29.219 22.2199 29.05 22.3412 28.894C22.3845 28.842 22.4322 28.816 22.4842 28.816C22.5362 28.816 22.5795 28.842 22.6142 28.894C22.6575 28.9373 22.6792 28.9937 22.6792 29.063C22.6792 29.1237 22.6575 29.1843 22.6142 29.245C22.4755 29.4183 22.3022 29.6177 22.0942 29.843C21.8949 30.0597 21.6695 30.2633 21.4182 30.454C21.2795 30.5667 21.1019 30.6793 20.8852 30.792C20.6685 30.9047 20.4389 31 20.1962 31.078C19.9622 31.156 19.7325 31.195 19.5072 31.195ZM19.7412 28.92C19.9145 28.92 20.1009 28.8637 20.3002 28.751C20.5082 28.6383 20.6902 28.491 20.8462 28.309C21.0109 28.1183 21.1192 27.9147 21.1712 27.698C21.1799 27.6807 21.1842 27.659 21.1842 27.633C21.1842 27.607 21.1842 27.5853 21.1842 27.568C21.1842 27.412 21.1279 27.334 21.0152 27.334C20.8332 27.334 20.6425 27.4033 20.4432 27.542C20.2439 27.672 20.0532 27.8497 19.8712 28.075C19.6979 28.2917 19.5419 28.53 19.4032 28.79C19.4379 28.816 19.4725 28.842 19.5072 28.868C19.5419 28.8853 19.5765 28.8983 19.6112 28.907C19.6285 28.9157 19.6502 28.92 19.6762 28.92C19.7022 28.92 19.7239 28.92 19.7412 28.92ZM29.1236 32.547C28.673 32.547 28.231 32.495 27.7976 32.391C27.373 32.2957 26.983 32.1397 26.6276 31.923C26.281 31.7063 26.0036 31.4247 25.7956 31.078C25.5876 30.74 25.4836 30.324 25.4836 29.83C25.4836 29.622 25.5313 29.3707 25.6266 29.076C25.7306 28.7813 25.8823 28.4867 26.0816 28.192C26.2896 27.8973 26.554 27.6373 26.8746 27.412C27.1953 27.1867 27.581 27.0307 28.0316 26.944C28.0576 26.9353 28.0923 26.931 28.1356 26.931C28.231 26.931 28.3003 26.9527 28.3436 26.996C28.387 27.0393 28.4086 27.0913 28.4086 27.152C28.4086 27.2907 28.322 27.3817 28.1486 27.425C27.7846 27.503 27.464 27.6417 27.1866 27.841C26.918 28.0317 26.6926 28.2527 26.5106 28.504C26.3373 28.7467 26.203 28.9893 26.1076 29.232C26.021 29.466 25.9776 29.6653 25.9776 29.83C25.9776 30.3327 26.1206 30.7487 26.4066 31.078C26.6926 31.4073 27.074 31.65 27.5506 31.806C28.0273 31.9707 28.5516 32.053 29.1236 32.053C29.6956 32.053 30.2416 31.988 30.7616 31.858C31.2816 31.728 31.741 31.5417 32.1396 31.299C32.547 31.0563 32.8676 30.7703 33.1016 30.441C33.3356 30.1117 33.4526 29.7477 33.4526 29.349C33.4526 28.985 33.3443 28.6817 33.1276 28.439C32.9196 28.1877 32.638 27.9667 32.2826 27.776C31.936 27.5853 31.5546 27.3947 31.1386 27.204C30.4886 26.9093 30.025 26.6017 29.7476 26.281C29.479 25.9603 29.3446 25.6483 29.3446 25.345C29.3446 24.981 29.492 24.6387 29.7866 24.318C30.0813 23.9973 30.4756 23.7373 30.9696 23.538C31.4723 23.3387 32.0226 23.239 32.6206 23.239C33.444 23.239 34.0333 23.356 34.3886 23.59C34.744 23.8153 34.9216 24.0797 34.9216 24.383C34.9216 24.7037 34.744 25.0157 34.3886 25.319C34.0333 25.6137 33.561 25.8 32.9716 25.878H32.9196C32.8416 25.878 32.7766 25.852 32.7246 25.8C32.6813 25.748 32.6596 25.6917 32.6596 25.631C32.6596 25.5357 32.716 25.475 32.8286 25.449C33.262 25.3883 33.626 25.2583 33.9206 25.059C34.224 24.851 34.3756 24.6387 34.3756 24.422C34.3756 24.24 34.2413 24.0797 33.9726 23.941C33.704 23.8023 33.2533 23.733 32.6206 23.733C32.066 23.733 31.585 23.8153 31.1776 23.98C30.7703 24.1447 30.454 24.3483 30.2286 24.591C30.012 24.825 29.9036 25.0633 29.9036 25.306C29.9036 25.5833 29.999 25.8217 30.1896 26.021C30.3803 26.2203 30.6056 26.3893 30.8656 26.528C31.1256 26.658 31.3553 26.7663 31.5546 26.853C31.936 27.0177 32.3086 27.204 32.6726 27.412C33.0366 27.62 33.34 27.8757 33.5826 28.179C33.8253 28.4823 33.9466 28.8723 33.9466 29.349C33.9466 29.869 33.808 30.3283 33.5306 30.727C33.2533 31.117 32.8806 31.4463 32.4126 31.715C31.9446 31.9923 31.4246 32.2003 30.8526 32.339C30.2893 32.4777 29.713 32.547 29.1236 32.547ZM36.2956 31.13C35.8189 31.13 35.5806 30.8917 35.5806 30.415C35.5806 30.2157 35.6239 29.9903 35.7106 29.739C35.8406 29.3577 36.0356 28.946 36.2956 28.504C36.5643 28.062 36.8373 27.6373 37.1146 27.23H36.6466C36.5773 27.23 36.5209 27.2083 36.4776 27.165C36.4429 27.113 36.4256 27.0567 36.4256 26.996C36.4256 26.944 36.4429 26.8963 36.4776 26.853C36.5209 26.801 36.5773 26.775 36.6466 26.775H37.4396C37.5349 26.6537 37.6216 26.5367 37.6996 26.424C37.7776 26.3027 37.8556 26.1857 37.9336 26.073C38.0549 25.761 38.2023 25.462 38.3756 25.176C38.5576 24.89 38.7786 24.6603 39.0386 24.487C39.0819 24.461 39.1209 24.448 39.1556 24.448C39.2249 24.448 39.2856 24.4827 39.3376 24.552C39.3896 24.6127 39.4156 24.682 39.4156 24.76C39.4156 24.8207 39.3939 24.8857 39.3506 24.955C39.3246 24.9897 39.2423 25.098 39.1036 25.28C38.9649 25.462 38.8003 25.6873 38.6096 25.956C38.4189 26.216 38.2196 26.489 38.0116 26.775H39.2596C39.3376 26.775 39.3939 26.801 39.4286 26.853C39.4633 26.8963 39.4806 26.944 39.4806 26.996C39.4806 27.0567 39.4633 27.113 39.4286 27.165C39.3939 27.2083 39.3376 27.23 39.2596 27.23H37.6996L37.5826 27.412C37.5046 27.5247 37.3876 27.7067 37.2316 27.958C37.0843 28.2093 36.9239 28.4867 36.7506 28.79C36.5859 29.0933 36.4429 29.388 36.3216 29.674C36.2089 29.9513 36.1526 30.181 36.1526 30.363C36.1526 30.5797 36.2436 30.688 36.4256 30.688C36.5729 30.688 36.7939 30.6187 37.0886 30.48C37.3919 30.3327 37.6909 30.1333 37.9856 29.882C38.1589 29.7347 38.3193 29.5787 38.4666 29.414C38.6139 29.2493 38.7526 29.0977 38.8826 28.959C38.9173 28.9157 38.9606 28.894 39.0126 28.894C39.0559 28.894 39.0949 28.92 39.1296 28.972C39.1729 29.0153 39.1946 29.0717 39.1946 29.141C39.1946 29.219 39.1729 29.284 39.1296 29.336C38.9996 29.518 38.8176 29.7217 38.5836 29.947C38.3583 30.1637 38.1589 30.337 37.9856 30.467C37.6563 30.7097 37.3009 30.8917 36.9196 31.013C36.6856 31.091 36.4776 31.13 36.2956 31.13ZM41.0085 30.922C40.8525 30.922 40.7225 30.8787 40.6185 30.792C40.5232 30.7053 40.4755 30.584 40.4755 30.428C40.4755 30.0987 40.5578 29.7693 40.7225 29.44C40.8872 29.102 41.0735 28.7727 41.2815 28.452C41.4982 28.1227 41.6758 27.8193 41.8145 27.542C41.6758 27.6373 41.5198 27.7067 41.3465 27.75C41.1732 27.7933 41.0042 27.815 40.8395 27.815C40.6055 27.815 40.4235 27.7847 40.2935 27.724C40.1288 28.01 39.9382 28.3003 39.7215 28.595C39.5048 28.881 39.2925 29.141 39.0845 29.375C38.8852 29.609 38.7162 29.7867 38.5775 29.908C38.5168 29.96 38.4562 29.986 38.3955 29.986C38.3348 29.986 38.2828 29.9643 38.2395 29.921C38.1962 29.8777 38.1745 29.83 38.1745 29.778C38.1745 29.7347 38.1918 29.6957 38.2265 29.661C38.3825 29.4963 38.5645 29.284 38.7725 29.024C38.9892 28.764 39.2015 28.4867 39.4095 28.192C39.6262 27.8973 39.8038 27.6243 39.9425 27.373C39.9338 27.1997 39.9555 27.0047 40.0075 26.788C40.0682 26.5713 40.1462 26.3633 40.2415 26.164C40.3455 25.9647 40.4582 25.8 40.5795 25.67C40.7008 25.5313 40.8265 25.462 40.9565 25.462C41.0952 25.462 41.1645 25.5443 41.1645 25.709C41.1645 25.8477 41.1212 26.0253 41.0345 26.242C40.9565 26.4587 40.8612 26.671 40.7485 26.879C40.6445 27.0783 40.5535 27.243 40.4755 27.373C40.5882 27.4077 40.7052 27.425 40.8265 27.425C41.0345 27.425 41.2165 27.386 41.3725 27.308C41.5285 27.2213 41.6672 27.139 41.7885 27.061C41.9098 26.9743 42.0138 26.931 42.1005 26.931C42.2132 26.931 42.2868 26.9613 42.3215 27.022C42.3648 27.074 42.3865 27.1433 42.3865 27.23C42.3865 27.3947 42.3432 27.5767 42.2565 27.776C42.1698 27.9667 42.1048 28.088 42.0615 28.14C42.0008 28.2353 41.9098 28.3783 41.7885 28.569C41.6672 28.751 41.5458 28.946 41.4245 29.154C41.3032 29.362 41.2035 29.5613 41.1255 29.752C41.0908 29.8473 41.0562 29.947 41.0215 30.051C40.9955 30.1463 40.9825 30.2287 40.9825 30.298C40.9825 30.4107 41.0302 30.467 41.1255 30.467C41.2122 30.467 41.3378 30.4237 41.5025 30.337C41.7105 30.2243 41.9012 30.0813 42.0745 29.908C42.2565 29.726 42.4125 29.57 42.5425 29.44C42.5512 29.4313 42.5902 29.388 42.6595 29.31C42.7375 29.232 42.8112 29.154 42.8805 29.076C42.9585 28.998 42.9975 28.959 42.9975 28.959C43.0322 28.9157 43.0755 28.894 43.1275 28.894C43.1708 28.894 43.2098 28.92 43.2445 28.972C43.2878 29.0153 43.3095 29.0717 43.3095 29.141C43.3095 29.219 43.2878 29.284 43.2445 29.336C43.1145 29.518 42.9368 29.7173 42.7115 29.934C42.4862 30.1507 42.2868 30.3283 42.1135 30.467C41.9315 30.6057 41.7452 30.7183 41.5545 30.805C41.3725 30.883 41.1905 30.922 41.0085 30.922ZM43.5742 31.221C43.2795 31.221 43.0715 31.1387 42.9502 30.974C42.8288 30.8007 42.7682 30.5883 42.7682 30.337C42.7682 30.129 42.7985 29.9037 42.8592 29.661C42.9285 29.4097 43.0152 29.1627 43.1192 28.92C43.1278 28.582 43.2188 28.2483 43.3922 27.919C43.5742 27.5897 43.8168 27.3167 44.1202 27.1C44.4322 26.8833 44.7962 26.775 45.2122 26.775C45.6195 26.775 45.9012 26.892 46.0572 27.126C46.2218 27.36 46.3042 27.6373 46.3042 27.958C46.3042 28.1487 46.2825 28.3437 46.2392 28.543C46.1958 28.7337 46.1395 28.9157 46.0702 29.089C46.0008 29.2623 45.9142 29.44 45.8102 29.622C45.7062 29.7953 45.5892 29.9687 45.4592 30.142C45.7192 30.0987 45.9445 30.0163 46.1352 29.895C46.3345 29.765 46.5338 29.5873 46.7332 29.362C46.9325 29.1367 47.1665 28.8507 47.4352 28.504C47.4872 28.4433 47.5435 28.413 47.6042 28.413C47.6735 28.413 47.7298 28.4347 47.7732 28.478C47.8252 28.5213 47.8512 28.5777 47.8512 28.647C47.8512 28.699 47.8338 28.7467 47.7992 28.79C47.5478 29.1367 47.2922 29.4487 47.0322 29.726C46.7808 30.0033 46.4948 30.22 46.1742 30.376C45.8535 30.532 45.4678 30.61 45.0172 30.61C44.8092 30.792 44.5838 30.9393 44.3412 31.052C44.0985 31.1647 43.8428 31.221 43.5742 31.221ZM44.3282 27.854C44.2242 27.932 44.0985 28.088 43.9512 28.322C43.8038 28.556 43.6695 28.8117 43.5482 29.089C43.5655 29.3577 43.6738 29.6003 43.8732 29.817C44.0812 30.025 44.3975 30.142 44.8222 30.168C45.1342 29.8647 45.3855 29.5093 45.5762 29.102C45.7668 28.686 45.8622 28.3133 45.8622 27.984C45.8622 27.7587 45.8102 27.5767 45.7062 27.438C45.6022 27.2993 45.4375 27.23 45.2122 27.23C45.0562 27.23 44.9045 27.256 44.7572 27.308C44.6098 27.36 44.4755 27.4293 44.3542 27.516C44.3975 27.5593 44.4192 27.6113 44.4192 27.672C44.4192 27.7413 44.3888 27.802 44.3282 27.854ZM43.2232 30.311C43.2232 30.4497 43.2492 30.5623 43.3012 30.649C43.3618 30.727 43.4528 30.766 43.5742 30.766C43.8255 30.766 44.0812 30.688 44.3412 30.532C44.0898 30.4713 43.8775 30.376 43.7042 30.246C43.5308 30.1073 43.3965 29.9513 43.3012 29.778C43.2492 29.986 43.2232 30.1637 43.2232 30.311ZM47.2451 30.909C47.0545 30.909 46.9115 30.844 46.8161 30.714C46.7208 30.5753 46.6731 30.4107 46.6731 30.22C46.6731 30.0727 46.6991 29.921 46.7511 29.765C46.8465 29.505 46.9721 29.2493 47.1281 28.998C47.2841 28.738 47.4575 28.4737 47.6481 28.205C47.6828 28.1443 47.7391 28.0447 47.8171 27.906C47.8951 27.7673 47.9645 27.6243 48.0251 27.477C48.0945 27.3297 48.1205 27.217 48.1031 27.139C48.0858 26.983 48.1031 26.8747 48.1551 26.814C48.2071 26.7447 48.2678 26.71 48.3371 26.71C48.4238 26.71 48.4975 26.7533 48.5581 26.84C48.5928 26.9093 48.6101 27.0047 48.6101 27.126C48.6101 27.256 48.5798 27.4207 48.5191 27.62C48.4671 27.8107 48.3631 28.023 48.2071 28.257C48.0685 28.465 47.9168 28.686 47.7521 28.92C47.5961 29.154 47.4618 29.3837 47.3491 29.609C47.2451 29.8257 47.1931 30.0207 47.1931 30.194C47.1931 30.35 47.2451 30.428 47.3491 30.428C47.4011 30.428 47.4791 30.402 47.5831 30.35C47.7131 30.2807 47.9081 30.1507 48.1681 29.96C48.4281 29.7693 48.7011 29.5527 48.9871 29.31C49.2818 29.0673 49.5505 28.829 49.7931 28.595C50.0358 28.361 50.2048 28.1703 50.3001 28.023C50.3435 27.945 50.4215 27.906 50.5341 27.906C50.6121 27.906 50.6728 27.9277 50.7161 27.971C50.7681 28.0143 50.7725 28.0707 50.7291 28.14C50.6338 28.4953 50.4821 28.9157 50.2741 29.401C50.0661 29.8863 49.8321 30.389 49.5721 30.909C49.7195 30.909 49.8711 30.9307 50.0271 30.974C50.1311 31 50.1831 31.065 50.1831 31.169C50.1831 31.2383 50.1528 31.3033 50.0921 31.364C50.0401 31.4247 49.9708 31.442 49.8841 31.416C49.8235 31.3987 49.7628 31.3857 49.7021 31.377C49.6415 31.3683 49.5765 31.364 49.5071 31.364C49.4465 31.364 49.3901 31.364 49.3381 31.364C49.0695 31.884 48.7921 32.378 48.5061 32.846C48.2201 33.3227 47.9558 33.73 47.7131 34.068C47.4878 34.38 47.2321 34.679 46.9461 34.965C46.6688 35.251 46.3785 35.485 46.0751 35.667C45.7631 35.849 45.4511 35.94 45.1391 35.94C44.8011 35.94 44.5411 35.8577 44.3591 35.693C44.1771 35.5283 44.0861 35.3117 44.0861 35.043C44.0861 34.7743 44.1641 34.4753 44.3201 34.146C44.4675 33.8167 44.6668 33.4873 44.9181 33.158C45.2128 32.7853 45.5811 32.4387 46.0231 32.118C46.4565 31.806 46.9331 31.5417 47.4531 31.325C47.9731 31.117 48.5018 30.987 49.0391 30.935C49.1951 30.6317 49.3381 30.3413 49.4681 30.064C49.6068 29.778 49.7281 29.5137 49.8321 29.271C49.4855 29.5917 49.1171 29.8863 48.7271 30.155C48.3371 30.4237 48.0165 30.623 47.7651 30.753C47.5745 30.857 47.4011 30.909 47.2451 30.909ZM45.1911 35.485C45.4685 35.485 45.7631 35.368 46.0751 35.134C46.3785 34.9087 46.6861 34.5967 46.9981 34.198C47.3188 33.808 47.6308 33.3703 47.9341 32.885C48.2375 32.4083 48.5235 31.9187 48.7921 31.416C48.1075 31.52 47.4488 31.754 46.8161 32.118C46.1835 32.482 45.6765 32.9153 45.2951 33.418C45.2171 33.522 45.1218 33.665 45.0091 33.847C44.8878 34.029 44.7838 34.2197 44.6971 34.419C44.6105 34.6183 44.5671 34.8047 44.5671 34.978C44.5671 35.1253 44.6148 35.2467 44.7101 35.342C44.7968 35.4373 44.9571 35.485 45.1911 35.485Z" fill="white"/>
<defs>
<clipPath id="clip0_26_478">
<rect width="11.7343" height="12" fill="white" transform="translate(19.6329)"/>
</clipPath>
</defs>
</svg>
