<svg width="71" height="60" viewBox="0 0 71 60" fill="none" xmlns="http://www.w3.org/2000/svg">
<g clip-path="url(#clip0_13_243)">
<path d="M39.769 20.5317C40.4126 17.1091 42.544 14.235 45.4903 12.4625C47.4337 11.2935 50.5806 10.614 52.4403 12.3064C53.5102 13.277 53.5979 14.9018 53.343 16.2355C53.0505 17.7548 52.0893 19.0208 50.823 19.8522C47.3919 22.1101 42.9578 20.4009 39.2007 20.3671C39.2843 20.5191 39.372 20.6668 39.4556 20.8187C42.1386 16.2397 47.6635 13.4332 52.8248 13.104C52.7537 12.9352 52.6869 12.7621 52.6158 12.5933C48.9131 16.1553 44.2449 18.4722 39.4849 20.2321C39.2341 20.3249 39.1714 20.747 39.4849 20.8103C42.5816 21.4138 45.8539 20.6836 48.6456 19.2909C49.7865 18.7254 50.8773 18.0333 51.8887 17.2568C52.7454 16.5984 53.6523 15.8176 54.0493 14.7752C54.1872 14.4123 53.6147 14.2604 53.4767 14.6149C53.0839 15.6573 52.0099 16.438 51.1531 17.0626C50.2713 17.7083 49.3226 18.2739 48.3489 18.7676C45.7286 20.1012 42.5566 20.7934 39.6437 20.2236V20.8018C44.5041 19.0082 49.2558 16.6448 53.0379 13.0111C53.2176 12.8381 53.0881 12.4836 52.829 12.5005C47.4587 12.8381 41.7416 15.7459 38.9499 20.5106C38.8329 20.709 38.9834 20.958 39.2049 20.9622C42.9703 20.9959 46.9363 22.4646 50.5221 20.709C53.0254 19.4851 54.4547 16.7039 53.9573 13.9312C53.5311 11.5383 51.2075 10.6013 49.0343 10.728C46.2635 10.8883 43.7811 12.568 41.9882 14.6149C40.5673 16.2355 39.6061 18.2401 39.209 20.3629C39.138 20.7385 39.7105 20.9031 39.7816 20.5233L39.769 20.5317Z" fill="white"/>
<path d="M38.6825 20.8863C39.3511 21.0551 40.0281 21.1353 40.7052 21.2534C41.4783 21.3885 42.1428 21.6755 42.8198 22.0595C44.1154 22.7938 45.319 23.7223 46.3512 24.7985C48.3363 26.8664 48.6707 29.943 48.2026 32.6736C48.3238 32.6018 48.445 32.5343 48.5662 32.4626C46.0796 31.7324 43.3381 31.5045 41.4323 29.5379C40.2873 28.3562 39.6771 26.7398 39.4807 25.1192C39.2926 23.5746 39.698 21.9498 39.2592 20.4389C39.092 20.536 38.929 20.6331 38.7619 20.7301C40.6091 22.3929 42.6777 23.8109 44.3034 25.7143C46.1088 27.8202 47.1244 30.4959 48.3029 32.9732C48.4575 32.8508 48.6122 32.7327 48.7668 32.6103C47.045 31.1669 45.0724 29.9937 43.6431 28.2254C42.824 27.2125 42.147 26.0308 41.4574 24.9251C40.7344 23.7645 40.0616 22.5702 39.5141 21.3167C39.3595 20.9622 38.8496 21.2703 39.0001 21.6206C40.0532 24.0262 41.5201 26.3094 43.0539 28.4279C44.4372 30.3397 46.5727 31.5467 48.3447 33.0323C48.608 33.2517 48.959 32.9817 48.8086 32.6694C47.6301 30.1878 46.5894 27.6219 44.8593 25.4611C43.2503 23.4564 41.0688 22.0131 39.1756 20.3081C38.9625 20.1182 38.5905 20.2997 38.6783 20.5993C38.9207 21.4307 38.8538 22.2916 38.8162 23.1441C38.7786 23.9755 38.8287 24.7985 38.9457 25.6214C39.1672 27.1745 39.8568 28.6347 40.8723 29.8122C42.7739 32.0152 45.787 32.2684 48.399 33.0323C48.5411 33.0745 48.7375 32.9816 48.7626 32.8213C49.2474 29.9979 48.934 26.9002 47.0283 24.6592C46.0378 23.4944 44.7631 22.5491 43.4718 21.7472C42.8533 21.3632 42.2139 21.0129 41.5118 20.8061C40.6341 20.5529 39.7105 20.5149 38.8245 20.2954C38.4526 20.2026 38.2938 20.7808 38.6657 20.8736L38.6825 20.8863Z" fill="white"/>
<path d="M39.8108 20.2279C39.3846 19.4091 39.2843 18.4849 39.1422 17.5817C39.0126 16.7714 38.7953 15.9822 38.5153 15.2141C38.0054 13.8003 37.1738 12.5596 36.0161 11.61C34.7707 10.5887 33.2453 9.92611 31.674 9.64335C30.019 9.34793 28.3181 9.48298 26.6506 9.52518C26.4834 9.52518 26.3622 9.66023 26.3539 9.82483C26.1784 12.7579 27.5073 15.9021 29.5426 17.9658C32.1755 20.633 36.2961 20.3249 39.6896 20.958C40.0031 21.0171 40.2329 20.5781 39.9195 20.4093C38.6908 19.7636 38.3021 18.2865 37.8048 17.088C37.2281 15.7037 36.5176 14.4207 35.477 13.3361C34.4072 12.222 32.9779 11.475 31.5737 10.8883C30.8507 10.5887 30.0901 10.2722 29.3086 10.1751C28.3682 10.0612 27.407 10.1245 26.5169 9.74886C26.1993 9.61381 26.007 10.1287 26.287 10.2975C27.3694 10.9348 27.8417 12.2895 28.5103 13.2981C29.3295 14.5389 30.5623 15.5602 31.6573 16.5435C32.7397 17.5142 33.843 18.3414 35.1594 18.966C36.4633 19.5822 37.8466 20.0042 39.1881 20.5148C39.4807 20.6246 39.6687 20.2152 39.4765 20.0126C37.32 17.7548 35.2513 15.4125 32.7564 13.5218C30.8841 12.1038 28.8363 10.1456 26.4416 9.74464C26.0697 9.68133 25.9067 10.2595 26.2828 10.3228C28.5563 10.7026 30.5498 12.5807 32.3259 13.9396C34.8167 15.8514 36.8896 18.1684 39.0544 20.4347C39.1505 20.2658 39.2466 20.1013 39.3428 19.9324C37.9803 19.4133 36.5887 18.9787 35.2681 18.3541C33.8513 17.683 32.6979 16.687 31.5444 15.6362C30.4662 14.6528 29.3838 13.64 28.6357 12.3739C28.0715 11.4201 27.5658 10.3481 26.5837 9.76996C26.5085 9.95143 26.4333 10.1329 26.3539 10.3186C27.0811 10.6267 27.85 10.6562 28.6232 10.7026C29.5301 10.7575 30.3492 11.0318 31.1892 11.3695C32.7982 12.0109 34.3152 12.8888 35.4687 14.2097C36.4675 15.3576 37.0442 16.7799 37.6042 18.1768C38.0347 19.253 38.5529 20.3587 39.6186 20.9158C39.6938 20.7343 39.769 20.5528 39.8484 20.3671C36.6514 19.7721 32.8274 20.0675 30.2238 17.7759C28.0966 15.9063 26.7802 12.644 26.9515 9.81216C26.8512 9.91345 26.7551 10.0105 26.6548 10.1118C28.2094 10.0738 29.7808 9.96409 31.3271 10.1793C33.003 10.4157 34.6119 11.1584 35.8949 12.2726C36.9982 13.2306 37.6836 14.5347 38.135 15.9147C38.6239 17.4171 38.5613 19.1095 39.301 20.5191C39.4807 20.8609 39.9905 20.557 39.815 20.2152L39.8108 20.2279Z" fill="white"/>
<path d="M39.4096 20.3123C39.8359 19.1644 40.8556 18.3625 41.3571 17.2441C41.9798 15.8599 42.5398 14.4461 43.0121 13.0027C43.919 10.2047 42.8574 7.66405 42.2222 4.94196C42.193 4.81113 42.0634 4.7225 41.938 4.7225C39.2675 4.7225 38.1308 7.74423 37.6669 9.95567C37.3284 11.572 37.32 13.277 37.4496 14.9145C37.6 16.839 38.1559 18.7044 39.2299 20.3123C39.372 20.5275 39.6938 20.498 39.7732 20.2405C40.1661 18.9618 40.1995 17.6071 40.6216 16.3325C40.8222 15.729 41.1398 15.1509 41.378 14.5558C41.6371 13.8974 41.8461 13.218 42.0133 12.5301C42.6067 10.0823 42.5942 7.22092 41.938 4.79425C41.8628 4.51571 41.4323 4.50304 41.3655 4.79425C41.0562 6.11942 40.1577 7.26312 39.6144 8.49967C39.0962 9.68557 38.8663 10.9348 38.8622 12.2262C38.8622 13.3868 39.0669 14.5474 39.1589 15.7037C39.2425 16.7757 39.3553 18.0629 38.8747 19.0589C38.7075 19.4049 39.2216 19.7088 39.3887 19.3627C40.3165 17.434 39.6228 14.9567 39.4849 12.9268C39.3804 11.4159 39.6186 9.97255 40.2246 8.58829C40.7595 7.36441 41.6329 6.26713 41.9422 4.9504H41.3697C42.0425 7.44037 41.9798 10.3397 41.3279 12.8255C41.0019 14.0747 40.375 15.1931 39.9738 16.4085C39.581 17.5986 39.5768 18.8774 39.2048 20.0759C39.3846 20.0506 39.5684 20.0295 39.7481 20.0042C37.9427 17.3032 37.6335 13.6653 38.1642 10.5085C38.5027 8.49967 39.4556 5.31334 41.9422 5.31334C41.8461 5.2416 41.75 5.16563 41.658 5.09389C41.9506 6.35998 42.3685 7.58808 42.6359 8.86261C42.9619 10.4115 42.7864 11.8253 42.2933 13.3108C41.8377 14.6824 41.2819 16.0245 40.6759 17.3328C40.1995 18.3625 39.2508 19.0589 38.8496 20.1477C38.7159 20.5106 39.2884 20.6668 39.4222 20.3081L39.4096 20.3123Z" fill="white"/>
<path d="M39.3386 20.3713C38.2144 20.2236 37.0944 20.2152 35.9869 20.4769C34.8042 20.7554 33.8304 21.4222 32.9319 22.2198C32.0209 23.0259 31.1432 23.8573 30.4244 24.8491C29.576 26.0223 29.1665 27.4446 28.4142 28.6769C28.3223 28.8288 28.4017 29.082 28.5898 29.1158C31.0847 29.5505 33.4752 28.9723 35.452 27.3644C37.6293 25.5961 38.6616 22.9415 39.8067 20.46C39.8986 20.2658 39.7941 20.0042 39.5517 20.0084C37.1905 20.0717 35.5397 22.1312 34.1439 23.8109C33.4627 24.6296 32.7731 25.4484 32.0501 26.2333C31.2477 27.0985 30.2865 28.0776 29.0913 28.3182C29.1456 28.5123 29.1957 28.7022 29.2501 28.8964C31.5235 28.238 33.4585 26.9592 35.1343 25.288C35.9911 24.4355 36.8562 23.6125 37.7338 22.7854C38.532 22.0341 39.2258 21.2027 39.6186 20.1688C39.7565 19.81 39.184 19.6539 39.046 20.0084C38.6616 21.0086 37.9344 21.7767 37.1654 22.4984C36.3839 23.2327 35.6024 23.9417 34.8585 24.714C33.2454 26.3937 31.3229 27.6682 29.0871 28.3182C28.7151 28.4237 28.8739 28.9723 29.2459 28.8964C31.2853 28.4828 32.7647 26.3346 34.0436 24.8449C35.4854 23.1694 37.1027 20.6752 39.5475 20.6077C39.464 20.4558 39.3762 20.308 39.2926 20.1561C38.2729 22.3633 37.3786 24.5874 35.6651 26.3557C33.843 28.2338 31.2895 28.9765 28.7444 28.5334C28.8029 28.6811 28.8614 28.8246 28.9199 28.9723C29.5593 27.9257 29.9689 26.7609 30.579 25.6974C31.1976 24.6212 32.1003 23.7602 33.0071 22.9373C33.9015 22.127 34.7749 21.456 35.9409 21.1015C37.0359 20.7681 38.2102 20.8187 39.3302 20.9664C39.7105 21.0171 39.7022 20.4178 39.3302 20.3671L39.3386 20.3713Z" fill="white"/>
<path d="M61.2333 50.8968C60.0422 49.0526 59.7371 46.858 60.2386 44.7268C60.6524 42.9796 62.37 40.5571 64.4094 41.5489C66.5241 42.5786 66.4739 45.3767 65.3748 47.0943C64.2966 48.7825 62.3073 49.7278 60.8906 51.0868C60.9992 51.1163 61.1037 51.1458 61.2124 51.1712C60.4267 47.8076 61.7264 44.022 63.9748 41.5024C63.8661 41.456 63.7575 41.4096 63.6488 41.3674C63.5109 44.7141 62.3909 47.9004 60.9658 50.8926C60.8906 51.053 61.0536 51.2724 61.2291 51.1585C62.8924 50.0443 64.0584 48.2971 64.7479 46.4275C65.2327 45.1192 65.8638 43.1357 65.308 41.7683C65.216 41.5404 64.8441 41.6417 64.936 41.8696C65.4584 43.1568 64.8441 44.9673 64.4178 46.2123C63.7951 48.0228 62.6291 49.7574 61.0327 50.8251C61.1204 50.9137 61.2082 51.0023 61.2959 51.091C62.7503 48.0355 63.8912 44.7858 64.0333 41.3674C64.0417 41.2028 63.816 41.1057 63.7073 41.2281C61.3628 43.8532 60.0255 47.7696 60.8446 51.2724C60.878 51.4202 61.0661 51.4539 61.1664 51.3569C62.8631 49.7278 65.2202 48.639 66.1981 46.3685C66.9838 44.5495 66.382 41.8823 64.3885 41.1057C62.3658 40.3165 60.6983 42.2959 60.0506 44.0093C59.1813 46.3094 59.5908 49.0526 60.9031 51.0868C61.0368 51.2935 61.3712 51.0994 61.2333 50.8926V50.8968Z" fill="white"/>
<path d="M60.8948 51.5594C61.7097 51.0698 62.3616 50.4917 63.2936 50.23C64.1879 49.9852 65.1199 49.8755 66.0435 49.8755C67.9659 49.8839 69.5331 51.1627 70.5821 52.6989C70.6072 52.6103 70.6281 52.5216 70.649 52.433C68.9522 53.3488 67.431 54.5938 65.3874 54.2477C64.4303 54.0831 63.5903 53.5556 62.8757 52.9183C62.2154 52.3317 61.7348 51.5467 60.9616 51.091C60.9282 51.2133 60.8989 51.3315 60.8655 51.4539C62.6458 51.3695 64.4262 51.0403 66.2023 51.3146C67.7862 51.5594 69.2698 52.2389 70.7618 52.7917C70.7785 52.6651 70.7952 52.5385 70.8119 52.4119C69.2615 52.5385 67.6943 52.9479 66.1396 52.6482C64.5599 52.3444 62.9676 51.9857 61.4715 51.3822C61.2416 51.2893 61.1413 51.6649 61.3712 51.7578C62.8715 52.3655 64.4596 52.6947 66.0393 53.0238C67.619 53.353 69.2322 52.931 70.8119 52.8002C71.0334 52.7833 71.071 52.4963 70.8621 52.4203C69.2782 51.8295 67.7277 51.1627 66.0477 50.9053C64.3342 50.6394 62.579 50.9939 60.8655 51.0699C60.6774 51.0783 60.598 51.3315 60.7694 51.4328C61.6595 51.9603 62.2446 52.931 63.0554 53.5809C63.7659 54.1464 64.656 54.5643 65.5587 54.674C67.6107 54.9272 69.1361 53.6991 70.8454 52.7749C70.9331 52.7284 70.9707 52.5934 70.9122 52.509C69.8591 50.9686 68.3504 49.694 66.4489 49.5126C65.4375 49.4155 64.3844 49.5801 63.3981 49.808C62.3366 50.0528 61.6178 50.6774 60.6983 51.226C60.4852 51.3526 60.6774 51.6902 60.8906 51.5594H60.8948Z" fill="white"/>
<path d="M61.1204 50.7407C60.5144 50.5297 60.0338 50.1203 59.524 49.7405C59.0559 49.3902 58.5335 49.1116 57.9986 48.8795C57.0917 48.4786 56.143 48.3773 55.1693 48.5124C53.0504 48.8036 51.6462 50.306 50.2253 51.7704C50.1501 51.8506 50.1543 51.9646 50.2253 52.0447C51.5125 53.5303 53.6021 54.3997 55.5412 54.3659C57.8523 54.3279 59.6076 52.3444 61.3921 51.1332C61.5676 51.015 61.4631 50.7196 61.2458 50.7787C60.2929 51.0361 59.407 50.4453 58.5544 50.1034C57.5765 49.7109 56.6111 49.4788 55.5496 49.5294C54.6093 49.5716 53.6355 49.9219 52.783 50.3018C52.3776 50.4832 51.9806 50.6689 51.6337 50.9517C51.2074 51.302 50.8229 51.7029 50.3089 51.9181C50.0832 52.011 50.1626 52.3486 50.4092 52.2937C51.2868 52.0996 52.1686 52.5807 53.0254 52.72C54.0075 52.8804 55.0564 52.7833 56.0469 52.7327C57.8439 52.644 59.3485 51.8717 60.97 51.1585C61.158 51.0783 61.0494 50.804 60.8739 50.7955C58.7299 50.7238 56.632 50.6309 54.4964 50.8884C53.088 51.0572 51.4415 51.1416 50.2337 51.9688C50.0289 52.108 50.2211 52.4457 50.4259 52.3022C51.6546 51.4581 53.3806 51.4117 54.8099 51.2344C56.8326 50.9854 58.8428 51.1121 60.8739 51.1796C60.8404 51.0572 60.8112 50.939 60.7777 50.8166C59.9252 51.1922 59.0977 51.6101 58.2201 51.9266C57.2672 52.2684 56.2935 52.3317 55.2905 52.3697C54.3042 52.4077 53.3137 52.4203 52.3567 52.1587C51.6797 51.973 51.0152 51.7493 50.3131 51.9097C50.3465 52.0363 50.3799 52.1587 50.4134 52.2853C51.1656 51.973 51.6588 51.3231 52.3609 50.9264C53.3681 50.3566 54.6343 49.9515 55.7878 49.8966C56.958 49.8417 58.0613 50.2807 59.1061 50.7533C59.8291 51.0783 60.5604 51.3611 61.3503 51.1458C61.3001 51.0277 61.25 50.9095 61.204 50.7913C59.549 51.9139 58.0613 53.5514 56.0218 53.927C54.0952 54.2815 51.7549 53.2095 50.5011 51.762V52.0363C51.851 50.6436 53.0839 49.3438 55.0481 48.9217C56.2182 48.6685 57.3466 48.9513 58.3914 49.4872C59.3108 49.9599 60.0338 50.766 61.0159 51.1078C61.25 51.188 61.3503 50.8166 61.1162 50.7322L61.1204 50.7407Z" fill="white"/>
<path d="M60.9867 51.0066C60.644 50.1625 60.7067 49.2129 60.3891 48.3436C60.0506 47.4193 59.6661 46.5162 59.2273 45.6341C58.4583 44.1022 56.7615 43.4143 55.4075 42.5449C55.3364 42.4984 55.232 42.5153 55.1735 42.5744C53.857 43.9207 54.8684 45.9886 55.7502 47.2843C56.9496 49.0357 58.7926 50.593 60.8822 51.0446C61.0494 51.0825 61.1789 50.9137 61.0995 50.7576C60.715 50.0064 60.155 49.3691 59.7747 48.6137C59.3568 47.7865 59.1311 46.9002 58.6589 46.0941C57.8481 44.7099 56.5735 43.4311 55.2069 42.604C55.0397 42.5027 54.8475 42.701 54.9436 42.8698C55.3699 43.6042 55.4744 44.4989 55.7544 45.2965C55.9968 45.9886 56.3687 46.609 56.8368 47.1661C57.8189 48.3351 59.6368 49.1159 60.1634 50.6267C60.2428 50.8631 60.6147 50.7618 60.5353 50.5255C60.0506 49.1243 58.5335 48.2887 57.5138 47.318C56.8326 46.6681 56.3687 45.8873 56.0594 44.9969C55.792 44.2246 55.6959 43.3889 55.2821 42.6715C55.1944 42.7601 55.1066 42.8487 55.0188 42.9374C56.469 43.811 57.7395 45.1994 58.5586 46.685C58.9681 47.4278 59.1729 48.2549 59.5491 49.0104C59.8959 49.6983 60.4225 50.268 60.7736 50.9517C60.8446 50.8546 60.9198 50.7618 60.9909 50.6647C59.0935 50.2554 57.681 48.9808 56.4397 47.5375C55.4785 46.4191 54.1705 44.1486 55.4493 42.8403C55.3699 42.8487 55.2947 42.8614 55.2152 42.8698C56.5651 43.7392 58.0529 44.368 58.8971 45.8198C59.407 46.7019 59.7538 47.7063 60.1049 48.6643C60.3932 49.4577 60.3013 50.3187 60.6189 51.0994C60.7109 51.3273 61.0828 51.226 60.9909 50.9981L60.9867 51.0066Z" fill="white"/>
<path d="M60.9992 50.9939C59.875 51.8464 59.0685 52.8804 58.8511 54.3111C58.7174 55.2015 58.7007 56.168 58.8052 57.0585C58.9222 58.0291 59.3819 58.9112 59.595 59.8565C59.6201 59.9747 59.7789 60.0422 59.8792 59.9705C61.1455 59.0884 61.9855 57.8434 62.2446 56.303C62.5622 54.3997 61.8267 52.5934 61.2165 50.8377C61.1706 50.7069 60.9992 50.6394 60.8948 50.7533C59.8876 51.8211 59.9753 53.3952 60.0715 54.7626C60.1676 56.1595 60.5646 58.1389 59.7538 59.3754C59.8625 59.4387 59.9753 59.5062 60.084 59.5695C60.8153 58.2613 61.1455 56.8517 61.1998 55.3535C61.2291 54.5938 61.2333 53.8384 61.2792 53.0787C61.3294 52.3106 61.3043 51.5552 61.0159 50.8335C60.924 50.6056 60.5521 50.7027 60.644 50.9348C61.1622 52.2347 60.8195 53.754 60.8195 55.1214C60.8195 56.6238 60.481 58.0629 59.7497 59.3712C59.6285 59.5906 59.9461 59.7721 60.0798 59.5653C60.7986 58.4765 60.5855 56.915 60.5103 55.6827C60.4183 54.1887 60.038 52.222 61.1622 51.0234C61.0536 50.9939 60.9491 50.9644 60.8404 50.939C61.3795 52.4921 61.9688 53.9903 61.9186 55.6658C61.8685 57.299 60.9909 58.717 59.6828 59.6329C59.7747 59.6708 59.8709 59.7088 59.967 59.7468C59.8082 59.0505 59.5323 58.3921 59.3317 57.7084C59.081 56.8559 59.1102 55.9696 59.1687 55.096C59.2774 53.4586 59.8917 52.3064 61.1873 51.3189C61.3837 51.1712 61.1915 50.8335 60.995 50.9855L60.9992 50.9939Z" fill="white"/>
<path d="M39.0544 20.7386C38.6365 21.9962 37.8759 23.1146 37.3785 24.3427C36.8478 25.6552 36.3212 26.9846 35.2973 27.989C34.3445 28.9217 33.0615 29.6434 31.8996 30.2764C30.6417 30.9601 29.3002 31.4708 27.9085 31.7873C24.9956 32.4583 21.7986 31.9772 18.9484 31.2091C16.0564 30.4326 13.7453 28.6558 11.2336 27.1028C11.1835 27.2885 11.1333 27.4741 11.0832 27.6598C12.3787 27.5459 13.2563 26.5415 14.0002 25.5581C14.9447 24.3089 15.6719 22.8318 16.888 21.8147C17.5943 21.2239 18.6224 20.9875 19.4959 20.7723C20.4905 20.5275 21.5186 20.3925 22.5466 20.384C24.6112 20.3629 26.2369 21.9624 28.1635 22.4858C28.1384 22.3043 28.1175 22.1228 28.0924 21.9371C25.798 23.4902 23.9968 25.6847 21.6272 27.1281C18.777 28.8626 15.0158 28.6136 12.1029 27.1787C12.0527 27.3644 12.0026 27.5501 11.9524 27.7358C14.6229 27.7358 16.3448 25.4357 18.2003 23.8405C20.7747 21.6248 24.5443 21.6755 27.662 22.5575C27.687 22.3634 27.7163 22.165 27.7414 21.9709C24.9037 22.0131 22.3377 23.4775 20.0768 25.0812C18.9985 25.8451 18.0081 26.7187 16.8212 27.3053C15.4671 27.9764 14.0128 27.9468 12.6127 27.4362C12.2533 27.3053 12.0987 27.8835 12.4539 28.0143C14.974 28.9302 17.1806 28.0608 19.2075 26.4697C21.6439 24.5579 24.5527 22.6166 27.7414 22.5659C28.0757 22.5617 28.1467 22.0679 27.8208 21.9793C24.9747 21.1732 21.3305 20.9749 18.7561 22.6672C16.5412 24.1232 14.8779 27.1365 11.9566 27.1365C11.6766 27.1365 11.5345 27.5586 11.8062 27.6936C14.7023 29.1201 18.2922 29.4324 21.2553 28.0101C23.9926 26.6934 25.9067 24.1359 28.3975 22.452C28.6065 22.3127 28.5856 21.9751 28.3264 21.9034C26.45 21.3927 24.9497 20.0253 22.9771 19.8016C21.1633 19.5948 19.0487 20.1308 17.3937 20.8356C16.048 21.4096 15.2164 22.7559 14.4223 23.9249C13.645 25.077 12.642 26.9255 11.0957 27.0606C10.8115 27.0859 10.682 27.453 10.9453 27.6176C12.2701 28.4364 13.5405 29.3353 14.882 30.1287C16.1943 30.9053 17.5651 31.4497 19.0361 31.8464C22.0075 32.644 25.2673 33.007 28.2888 32.3106C30.9551 31.6987 33.6883 30.2427 35.7236 28.4026C36.689 27.5332 37.2281 26.2714 37.7171 25.0897C38.0138 24.3722 38.3021 23.659 38.6699 22.9711C39.0335 22.2916 39.3971 21.6206 39.6395 20.882C39.7607 20.5149 39.1881 20.3587 39.0669 20.7217L39.0544 20.7386Z" fill="white"/>
<path d="M24.281 32.8255C25.3843 32.509 26.7133 33.1547 27.6787 33.64C28.7109 34.1549 29.6554 34.8301 30.4286 35.6911C32.2298 37.6873 33.0614 40.4642 33.7176 43.026C33.8973 42.95 34.0812 42.874 34.2609 42.7938C33.6173 41.8991 32.6226 41.5657 31.5862 41.3589C30.2405 41.0931 28.9617 40.9496 27.7121 40.3207C25.0458 38.9871 23.3908 35.2268 23.9843 32.3233C23.8631 32.395 23.7419 32.4625 23.6207 32.5343C25.7437 33.0238 27.4196 34.7921 28.8697 36.3283C29.6387 37.1471 30.4035 37.9616 31.0262 38.9027C31.6865 39.8987 32.2131 40.9749 32.8149 42.0046C32.9695 41.8823 33.1241 41.7641 33.2788 41.6417C31.8328 40.1604 29.856 39.4303 28.3139 38.0713C26.5795 36.5436 25.564 34.5136 24.3144 32.6018C24.1055 32.2811 23.5914 32.5807 23.8004 32.9057C24.9915 34.7288 25.9694 36.6744 27.5616 38.1895C29.1623 39.713 31.3145 40.4811 32.8567 42.0637C33.0949 42.3085 33.4961 41.9962 33.3206 41.7008C32.677 40.6077 32.1086 39.4682 31.4065 38.4089C30.7629 37.4383 29.9396 36.5984 29.1456 35.7544C27.6745 34.1929 25.9276 32.4457 23.7753 31.9519C23.6249 31.9181 23.4452 31.9941 23.4117 32.1629C22.8517 34.923 24.0971 38.1346 26.1574 39.9873C27.1772 40.9031 28.5772 41.4433 29.902 41.6881C31.185 41.9245 32.9026 41.916 33.7468 43.0935C33.9391 43.3594 34.3779 43.2074 34.2901 42.8614C33.588 40.1055 32.6561 37.2652 30.7253 35.1256C29.8811 34.1886 28.782 33.505 27.662 32.9648C26.6213 32.4625 25.2882 31.9097 24.1222 32.2473C23.7544 32.3528 23.9091 32.931 24.281 32.8255Z" fill="white"/>
<path d="M50.3967 39.1644C50.7477 37.8603 52.6785 36.9234 53.8612 36.6322C55.5371 36.2186 57.3717 36.6533 58.9974 37.0964C59.0141 36.9698 59.0308 36.8474 59.0476 36.7208C58.404 36.8052 57.9484 37.1682 57.518 37.6409C56.8911 38.3288 56.4189 39.0504 55.6415 39.5949C54.0618 40.7048 51.4582 40.4136 50.0289 39.1728V39.4429C50.9065 38.4934 52.2271 38.1093 53.4349 37.7886C54.0117 37.6366 54.5967 37.4932 55.1818 37.3834C56.1514 37.1977 57.1711 37.299 58.1532 37.2864C58.1365 37.1598 58.1198 37.0374 58.1031 36.9108C56.8577 37.2568 55.838 38.0882 54.6385 38.5398C53.2385 39.0673 51.7549 38.9829 50.2922 39.0758C50.0498 39.0926 50.0456 39.4725 50.2922 39.4598C51.7298 39.3712 53.1507 39.4261 54.5382 38.9745C55.8296 38.5567 56.8911 37.6451 58.2034 37.2779C58.4081 37.2188 58.3705 36.8981 58.1532 36.9023C57.2296 36.915 56.306 36.8685 55.3866 36.9698C54.697 37.0458 54.0075 37.2484 53.3346 37.4172C52.0725 37.7422 50.6767 38.1768 49.7614 39.1686C49.6946 39.2404 49.682 39.3712 49.7614 39.4387C51.0862 40.5951 53.0254 40.8652 54.6929 40.4558C55.5747 40.2406 56.3186 39.6117 56.9329 38.966C57.5681 38.2992 58.0362 37.2357 59.0517 37.1007C59.2523 37.0753 59.3234 36.7841 59.1019 36.7251C57.2463 36.2186 55.2529 35.8177 53.3639 36.3706C52.1686 36.7166 50.3841 37.7675 50.0331 39.0631C49.9704 39.3037 50.334 39.405 50.4008 39.1644H50.3967Z" fill="white"/>
<path d="M19.1573 40.6794C20.2397 39.924 22.2666 40.4347 23.349 40.9664C24.9288 41.7387 26.0739 43.2918 27.0393 44.7141C27.127 44.6254 27.2106 44.541 27.2984 44.4524C26.7551 44.1021 26.1366 44.081 25.5139 44.1823C24.653 44.3173 23.8464 44.5073 22.9687 44.4397C20.992 44.292 19.1782 42.3169 18.8773 40.4009C18.8146 40.4811 18.7561 40.5613 18.6934 40.6415C20.1102 40.4811 21.5019 41.1732 22.7347 41.7936C23.3282 42.0932 23.9174 42.3971 24.4649 42.7854C25.1043 43.2412 25.6685 43.7982 26.2745 44.3005C26.3497 44.1992 26.4291 44.0979 26.5043 44.0008C25.2548 43.4142 23.8506 43.4015 22.5801 42.874C21.2678 42.3296 20.2439 41.3589 19.1197 40.5106C18.9233 40.3629 18.7352 40.6963 18.9275 40.8398C20.0057 41.6543 20.9836 42.5701 22.2207 43.1357C23.5288 43.7349 25.0082 43.7181 26.3121 44.33C26.4918 44.4144 26.7216 44.1781 26.5419 44.0304C25.9694 43.5535 25.4303 43.0344 24.8327 42.587C24.1849 42.0975 23.4702 41.7387 22.7472 41.3716C21.5144 40.7512 20.106 40.097 18.6934 40.2574C18.5639 40.2743 18.4887 40.3671 18.5096 40.498C18.7812 42.2283 20.0977 43.7054 21.6189 44.4693C22.4255 44.8744 23.3783 44.8829 24.2559 44.7942C25.2046 44.6972 26.216 44.2076 27.1061 44.7774C27.2608 44.8786 27.4739 44.6761 27.3652 44.5157C26.3037 42.9542 25.0834 41.3885 23.3616 40.5444C22.2165 39.9831 20.0893 39.5568 18.9609 40.3418C18.7603 40.4811 18.9484 40.8145 19.1532 40.671L19.1573 40.6794Z" fill="white"/>
<path d="M42.7948 46.9677C43.5554 47.031 44.2157 47.7189 44.7172 48.2423C45.2647 48.812 45.6951 49.4704 45.9751 50.2174C46.5602 51.7662 46.4808 53.5345 46.3471 55.1551C46.4724 55.1382 46.5936 55.1214 46.719 55.1045C46.5184 54.4841 46.0712 54.0958 45.5363 53.7582C44.8133 53.2982 44.0819 52.9774 43.4384 52.3866C41.9547 51.015 41.7207 48.3056 42.7112 46.5921C42.6234 46.6132 42.5398 46.6385 42.4521 46.6597C43.5804 47.3898 44.2073 48.7276 44.7506 49.9177C45.0306 50.5339 45.3106 51.1543 45.5029 51.8042C45.7536 52.6314 45.8456 53.505 46.0127 54.349C46.1297 54.2984 46.2426 54.252 46.3596 54.2013C45.7996 53.0281 44.8049 52.1629 44.1446 51.0572C43.3757 49.7616 43.196 48.2718 42.8407 46.8327C42.7822 46.5921 42.4145 46.6934 42.473 46.934C42.8031 48.2634 42.9954 49.6096 43.6013 50.8504C44.2408 52.1545 45.4026 53.0872 46.0294 54.3955C46.1297 54.6023 46.4139 54.4503 46.3763 54.2477C46.1924 53.3193 46.0712 52.3824 45.7996 51.475C45.599 50.8166 45.2814 50.1794 44.9972 49.559C44.4497 48.3604 43.7727 47.0648 42.6401 46.3347C42.5524 46.2798 42.4312 46.3178 42.381 46.4022C41.495 47.93 41.5995 49.9051 42.2974 51.4877C42.6652 52.3233 43.4216 52.9437 44.1572 53.4375C44.9303 53.9523 46.0294 54.2224 46.3471 55.2142C46.4139 55.4252 46.7023 55.3788 46.719 55.1636C46.8736 53.2686 46.8945 51.2893 46.0879 49.5337C45.5405 48.3478 44.1613 46.7103 42.7906 46.5963C42.5482 46.5752 42.5482 46.9593 42.7906 46.9804L42.7948 46.9677Z" fill="white"/>
<path d="M11.7142 28.5841C12.4581 29.3564 12.5543 30.6984 12.6211 31.7113C12.6963 32.9014 12.6086 34.1169 12.2784 35.2606C11.4468 38.1599 9.13151 40.4853 6.99177 42.4689C7.15476 42.5955 7.31775 42.7221 7.48074 42.8487C8.04075 41.6754 7.73985 40.4389 7.35118 39.2614C6.87476 37.8223 6.45266 36.4634 6.52789 34.923C6.6658 31.9772 9.28196 28.8668 12.036 28.0481C11.9065 27.9763 11.7811 27.9004 11.6516 27.8286C12.2408 30.019 11.4635 32.433 10.7865 34.5094C10.4145 35.6446 10.0384 36.7841 9.48256 37.8434C8.88912 38.9744 8.14105 40.0211 7.48492 41.1141C7.67298 41.1943 7.86522 41.2745 8.05328 41.3589C8.74285 39.1348 8.43777 36.7546 8.9936 34.4967C9.53271 32.3022 10.8784 30.4494 11.9316 28.4912C12.1238 28.1325 11.5847 27.816 11.3924 28.1747C10.3769 30.057 9.16077 31.821 8.51299 33.8848C7.76492 36.2692 8.18284 38.8183 7.4473 41.1901C7.33865 41.5404 7.83597 41.7345 8.01567 41.4349C8.71359 40.2743 9.49092 39.1644 10.122 37.9616C10.6653 36.9234 11.0163 35.7881 11.3841 34.6782C12.1071 32.4963 12.8719 29.9599 12.2492 27.664C12.2032 27.4995 12.0277 27.3939 11.8647 27.4446C9.1733 28.2422 7.16312 30.6858 6.21445 33.2728C5.66698 34.7584 5.86758 36.4381 6.23952 37.9363C6.60311 39.3965 7.66044 41.0213 6.93744 42.5364C6.78282 42.8571 7.15894 43.1652 7.42641 42.9162C9.72913 40.785 12.0402 38.3372 12.9304 35.2353C13.2856 33.9987 13.3149 32.644 13.2146 31.3695C13.131 30.2722 12.9429 28.9639 12.1489 28.1409C11.8689 27.8497 11.4259 28.2971 11.7059 28.5883L11.7142 28.5841Z" fill="white"/>
<path d="M24.4774 48.2549C25.238 48.3182 25.8984 49.0061 26.3999 49.5294C26.9473 50.0992 27.3736 50.7575 27.6578 51.5045C28.2429 53.0534 28.1635 54.8217 28.0297 56.4423C28.1551 56.4254 28.2763 56.4085 28.4017 56.3916C28.2053 55.7713 27.7539 55.383 27.219 55.0454C26.496 54.5854 25.7646 54.2646 25.121 53.6738C23.6374 52.3022 23.4034 49.5927 24.3939 47.8793C24.3061 47.9004 24.2225 47.9257 24.1347 47.9468C25.2631 48.6769 25.89 50.0148 26.4333 51.2049C26.7133 51.8211 26.9933 52.4414 27.1855 53.0914C27.4363 53.9185 27.5282 54.7922 27.6954 55.6362C27.8124 55.5856 27.9253 55.5391 28.0423 55.4885C27.4823 54.3153 26.4876 53.4501 25.8273 52.3444C25.0583 51.0487 24.8786 49.559 24.5234 48.1199C24.4649 47.8793 24.0971 47.9806 24.1556 48.2211C24.4858 49.5505 24.678 50.8968 25.284 52.1376C25.9234 53.4417 27.0852 54.3743 27.7121 55.6826C27.8124 55.8894 28.0966 55.7375 28.059 55.5349C27.8751 54.6065 27.7539 53.6695 27.4823 52.7622C27.2817 52.1038 26.964 51.4666 26.6799 50.8462C26.1324 49.6476 25.4554 48.352 24.3228 47.6219C24.235 47.567 24.1139 47.605 24.0637 47.6894C23.1777 49.2171 23.2822 51.1922 23.9801 52.7748C24.3479 53.6105 25.1043 54.2308 25.8398 54.7246C26.613 55.2395 27.7121 55.5096 28.0297 56.5014C28.0966 56.7124 28.385 56.666 28.4017 56.4507C28.5563 54.5558 28.5772 52.5765 27.7706 50.8208C27.2273 49.6392 25.844 47.9975 24.4733 47.8835C24.2309 47.8624 24.2309 48.2465 24.4733 48.2676L24.4774 48.2549Z" fill="white"/>
<path d="M26.2202 32.6905C31.5862 32.6905 38.2645 32.5301 42.2765 36.7757C43.1918 37.7422 43.8646 38.9492 44.3369 40.1942C44.8008 41.4138 45.1518 42.8403 44.8175 44.1359C44.3787 45.8367 42.3434 46.0646 41.0019 45.3471C39.6771 44.6381 39.0502 42.988 39.2717 41.532C39.6437 39.1138 42.4228 38.1135 44.5333 38.0418C46.999 37.9574 48.8002 39.2572 50.3256 41.0931C53.0254 44.3469 55.303 50.019 60.2428 50.0021C60.4852 50.0021 60.7234 49.9768 60.9658 49.9473C61.3419 49.9008 61.3461 49.3016 60.9658 49.348C58.4917 49.6561 56.5902 48.3056 55.0397 46.4908C53.4391 44.6255 52.2313 42.452 50.66 40.5613C49.2223 38.831 47.5089 37.624 45.2312 37.4552C43.1792 37.3032 40.7094 37.9827 39.4347 39.713C37.9804 41.6839 38.6365 44.617 40.7094 45.862C41.8294 46.533 43.4175 46.5373 44.4664 45.7312C45.3775 45.0306 45.5864 43.8363 45.5321 42.7474C45.4067 40.2701 44.0861 37.7126 42.3518 36.0034C40.3959 34.0747 37.7003 33.1378 35.0633 32.644C32.1504 32.0996 29.1707 32.0954 26.2202 32.0954C25.8357 32.0954 25.8357 32.6947 26.2202 32.6947V32.6905Z" fill="white"/>
<path d="M24.1347 47.491C22.5717 46.3093 20.7956 45.4695 19.6755 43.7898C18.38 41.8443 17.2642 39.7215 16.5579 37.4805C15.325 33.5725 14.4307 29.5505 11.7226 26.3558C11.4718 26.0603 11.0581 26.4866 11.3047 26.7778C14.2217 30.2216 14.8277 34.6233 16.3656 38.7339C17.1346 40.785 18.217 42.874 19.5418 44.617C20.666 46.0983 22.3878 46.9086 23.838 48.0059C24.1431 48.238 24.4398 47.7189 24.1389 47.4868L24.1347 47.491Z" fill="white"/>
<path d="M6.93326 7.14077C4.86875 6.17011 3.20961 3.86582 3.86992 1.49823C4.4968 -0.755406 7.16311 0.658395 7.74402 2.13128C8.29149 3.51554 7.5058 5.14457 7.05863 6.45287C6.88729 6.95508 6.91654 7.2294 6.50698 6.76095C6.0013 6.18699 5.66279 5.45265 5.3786 4.74786C4.93143 3.62949 4.79352 2.40138 4.83113 1.20703C4.85203 0.544446 4.91054 0.953816 5.11532 1.34208C5.4789 2.03843 5.74219 2.78121 5.98459 3.5282C6.37743 4.73942 6.59892 6.00973 6.77445 7.2716C6.79534 7.42353 6.99595 7.38133 7.03774 7.2716C7.81924 5.22476 7.67297 1.62484 5.80906 0.109756C5.67115 2.77611e-05 5.4789 0.194162 5.61682 0.303889C6.38161 0.928494 6.69087 1.99201 6.95415 2.91625C7.1464 3.58306 7.20073 4.27519 7.21326 4.9631C7.22162 5.51596 6.92908 6.42332 6.97087 6.72719C6.65743 4.49465 6.0222 2.32541 4.89382 0.375634C4.8186 0.244805 4.65561 0.31655 4.63889 0.447379C4.30456 2.98378 5.00666 5.68899 6.83714 7.51216C6.90818 7.58391 7.04192 7.55436 7.06699 7.45308C7.5058 5.71009 8.84314 3.48178 7.86103 1.68393C7.30938 0.675276 5.96787 -0.39246 4.75173 0.143518C3.66096 0.620412 3.2932 1.9076 3.46454 3.03442C3.76126 4.97998 5.04845 6.55837 6.79535 7.38133C6.95415 7.4573 7.09207 7.21674 6.93326 7.145V7.14077Z" fill="white"/>
<path d="M6.97504 7.66826C8.07835 5.18673 10.0091 3.51127 12.8426 4.37643C13.2898 4.51148 11.8229 6.64273 11.6557 6.82842C10.4939 8.12828 8.74701 7.67248 7.28848 7.37284C7.32191 7.38128 8.6885 6.22914 8.8306 6.12363C9.89629 5.33444 11.1459 4.97993 12.4163 4.68873C13.2856 4.49038 12.7423 4.60855 12.316 4.98415C11.8438 5.39774 11.3632 5.77757 10.8199 6.08987C9.77927 6.69337 8.42522 7.06054 7.25923 7.3222C7.08788 7.36018 7.15893 7.62606 7.33027 7.58808C8.45029 7.33908 9.57867 6.95925 10.6276 6.47814C11.6808 5.9928 12.4748 5.16985 13.3692 4.44817C13.482 4.35533 13.3566 4.19074 13.2354 4.21606C12.036 4.4946 10.8533 4.74359 9.72076 5.25003C8.63418 5.73959 7.71894 6.66383 6.77444 7.36862C6.66996 7.44881 6.69922 7.62184 6.84549 7.62606C8.5297 7.6767 9.7124 8.36461 11.313 7.45725C12.3871 6.84952 12.8134 5.47371 13.3525 4.44395C13.3943 4.35955 13.3525 4.27514 13.2731 4.24138C11.9942 3.75182 10.6694 3.61677 9.42822 4.27092C8.05327 4.99681 7.34699 6.16162 6.74101 7.52477C6.66996 7.68514 6.904 7.82441 6.97922 7.66404L6.97504 7.66826Z" fill="white"/>
<path d="M6.79953 7.08587C5.32846 7.35175 3.78634 6.85375 2.5493 7.9848C1.33316 9.09895 1.02809 10.4241 0.727185 12.0025C0.714647 12.0743 0.74808 12.1545 0.823306 12.1713C2.17736 12.5047 3.58992 12.2431 4.77681 11.5256C6.21862 10.6562 6.54042 8.6305 7.11714 7.18716C7.17147 7.05211 6.97923 6.96348 6.88729 7.05211C6.3022 7.63029 5.4204 7.63873 4.66815 7.7991C4.0747 7.92571 3.53559 8.21269 3.03827 8.55454C2.5702 8.8795 2.22333 9.36483 1.88482 9.81641C1.33734 10.5381 1.25794 11.3357 0.814947 12.0911C0.735543 12.2304 0.915247 12.3612 1.02809 12.26C1.52959 11.8042 2.07706 11.7999 2.63707 11.5214C3.3726 11.1585 4.02873 10.6689 4.68486 10.1794C5.65025 9.4619 6.2228 8.4026 6.85385 7.40661C6.92908 7.28845 6.78281 7.14496 6.66579 7.2167C5.48309 7.94681 4.28784 8.64316 3.21379 9.53365C2.32781 10.268 1.29973 11.0487 0.80241 12.1207C0.727185 12.2811 0.965398 12.4203 1.03644 12.26C1.48779 11.2808 2.39885 10.5929 3.19708 9.90925C4.31292 8.95124 5.55831 8.22113 6.80371 7.45304C6.74102 7.38973 6.67833 7.32643 6.61564 7.26312C5.71294 8.68536 4.88128 9.72778 3.48544 10.6984C2.65378 11.2724 1.57138 11.3864 0.831664 12.0574C0.90271 12.1122 0.973756 12.1671 1.0448 12.2262C1.32899 11.7366 1.42093 11.1964 1.65496 10.6773C2.07706 9.73622 2.89618 8.90904 3.7738 8.41527C4.81442 7.82864 6.19772 8.11562 7.07953 7.24624C7.00431 7.19982 6.92908 7.15762 6.84968 7.11119C6.32728 8.42371 6.03056 9.81219 5.09442 10.9095C4.60964 11.4792 3.79052 11.7366 3.10096 11.9181C2.87528 11.9772 0.940322 12.3148 1.05316 11.7198C1.33316 10.2384 1.72183 8.9428 2.98394 7.99746C4.14575 7.12807 5.56667 7.58809 6.86639 7.35175C7.03774 7.32221 6.96669 7.05211 6.79535 7.08587H6.79953Z" fill="white"/>
<path d="M6.79952 7.28C6.37325 6.9466 6.11832 6.46126 5.68786 6.14052C5.04427 5.66363 4.38814 5.21628 3.69857 4.80691C2.66632 4.19496 1.35406 4.44396 0.229858 4.48194C0.146275 4.48194 0.104483 4.54525 0.0919455 4.62121C-0.28418 7.56698 5.01501 7.97635 6.77027 7.36441C6.87475 7.32643 6.91654 7.17027 6.8037 7.11119C4.63471 5.98437 2.67885 4.55791 0.133737 4.60011C3.65888e-06 4.60011 -0.0543256 4.79003 0.0626913 4.85755C1.04062 5.41885 1.67585 6.25025 2.76662 6.63852C3.88246 7.03522 5.17382 6.73558 6.2019 7.41927C6.34817 7.51634 6.48608 7.28 6.33981 7.17871C5.79234 6.81577 5.16128 6.72292 4.52187 6.6343C3.28483 6.46548 2.31527 6.29667 1.31226 5.48215C1.02808 5.25426 0.768972 4.99682 0.480609 4.77314C0.852555 5.06012 1.68839 5.00526 2.18989 5.12765C3.51469 5.45261 4.42575 6.33887 5.62517 6.88329C6.27294 7.17871 6.6825 7.24624 5.37024 7.40239C4.61381 7.49102 3.82813 7.30532 3.10095 7.12807C2.0269 6.86641 0.463892 6.20383 0.330158 4.90819C0.305083 4.65076 1.80123 4.68452 1.95586 4.6803C2.89199 4.6592 3.61917 5.06012 4.37978 5.54124C5.26576 6.10676 5.85921 6.88751 6.66579 7.51212C6.8037 7.62185 6.94161 7.38129 6.8037 7.27578L6.79952 7.28Z" fill="white"/>
<path d="M6.81205 7.30957C6.44011 8.44905 6.44847 9.40706 7.02937 10.4664C7.66043 11.6185 8.48372 12.2304 9.42404 13.0956C9.50344 13.1673 9.61628 13.1336 9.65389 13.0365C10.6402 10.3397 8.84731 8.6052 6.87056 7.09433C6.77862 7.02259 6.67414 7.12388 6.66578 7.2125C6.41503 9.4788 9.20672 10.6098 9.33628 12.7495H9.60792C9.5118 11.6185 9.15657 10.6563 8.57149 9.69404C8.03237 8.81199 7.5852 7.80756 6.75355 7.17452C6.61145 7.06901 6.47772 7.30535 6.61563 7.41086C7.41385 8.01858 7.79416 9.01457 8.33745 9.83331C8.92254 10.7153 9.24851 11.6987 9.34045 12.7495C9.35717 12.9226 9.62464 12.9268 9.6121 12.7495C9.55359 11.8042 8.93507 11.0445 8.39596 10.3144C8.01148 9.79955 7.61863 9.29311 7.28012 8.74025C7.40968 8.95126 6.51115 7.15764 7.01265 7.54169C7.35117 7.80334 7.69386 8.06078 8.02401 8.3351C8.7303 8.92594 9.25687 9.66872 9.55777 10.5423C9.70404 10.9686 9.9339 13.1251 9.11896 12.4668C7.52669 11.1838 6.3816 9.50834 7.07952 7.38131C7.13385 7.2125 6.87056 7.14076 6.81623 7.30957H6.81205Z" fill="white"/>
<path d="M7.37626 7.68094C10.1136 9.92614 12.0904 12.6778 12.7465 16.2186C13.1143 18.1979 13.2647 20.3334 12.968 22.3338C12.6838 24.2203 11.9232 26.0097 11.3715 27.8287H11.8605C11.5011 26.7989 10.5357 26.2671 9.5954 25.8578C8.44195 25.3556 7.19655 25.0433 6.11415 24.3764C4.79771 23.5619 4.07053 21.6459 3.61082 20.2405C2.96723 18.2697 3.96187 16.514 3.9953 14.5516C3.84903 14.6107 3.70694 14.674 3.56067 14.7331C5.25324 16.2735 7.32611 17.3074 8.98942 18.8858C11.1584 20.9411 11.8229 24.2161 11.2462 27.0859H11.7351C11.1668 24.8365 8.90583 23.8742 7.19237 22.6377C4.83532 20.9369 4.0956 17.7464 4.15829 14.9567C3.99113 14.9778 3.82396 15.0032 3.66097 15.0243C4.29621 17.3792 6.01385 19.2192 7.79417 20.7765C8.6509 21.5235 9.57868 22.1777 10.3226 23.0471C11.1793 24.0557 11.476 25.2965 11.3548 26.6005C11.3256 26.9297 11.8313 26.9255 11.8647 26.6005C12.0862 24.2287 10.8408 22.5744 9.073 21.1775C7.01267 19.5484 4.86457 17.5142 4.15829 14.885C4.08307 14.6022 3.66515 14.6655 3.66097 14.9525C3.60664 17.5227 4.2168 20.6204 6.15594 22.4351C7.82761 24.0008 10.6318 24.7563 11.2545 27.2167C11.313 27.453 11.6933 27.4699 11.7435 27.2167C12.2951 24.4651 11.7895 21.3885 9.98824 19.1897C8.33329 17.1724 5.82996 16.0962 3.92844 14.3617C3.76545 14.214 3.49798 14.311 3.4938 14.5431C3.46455 16.3621 2.57439 18.0122 2.97977 19.8481C3.32246 21.3927 4.13322 22.9922 5.13204 24.2034C5.87175 25.1023 7.20909 25.4779 8.2497 25.8662C9.33629 26.2714 10.9495 26.7272 11.3799 27.9553C11.4635 28.1916 11.7936 28.2085 11.8689 27.9553C12.4498 26.0435 13.2564 24.1612 13.5071 22.165C13.762 20.1477 13.5907 18.0713 13.2438 16.0751C12.6128 12.4625 10.5232 9.58851 7.74402 7.30955C7.49327 7.10276 7.12969 7.4657 7.38461 7.6725L7.37626 7.68094Z" fill="white"/>
<path d="M13.3525 15.9232C12.8886 15.1002 13.1101 13.9312 13.2898 13.0534C13.4904 12.0658 13.8456 11.1247 14.3931 10.2806C15.6218 8.39417 17.6904 7.13652 19.6087 6.07723C19.5084 5.9464 19.4081 5.81557 19.3078 5.68474C18.7394 6.38953 18.6642 7.22937 18.706 8.10719C18.7603 9.28888 18.9233 10.3693 18.6809 11.5467C18.1711 14.0241 15.4713 16.1469 13.0098 16.2735C13.0934 16.3579 13.1769 16.4423 13.2563 16.5225C13.2187 14.7162 14.2468 13.0196 15.162 11.5383C15.6426 10.7575 16.1316 9.96834 16.7292 9.27199C17.4188 8.47014 18.2296 7.77801 18.9735 7.03102C18.8439 6.92973 18.7143 6.82844 18.5848 6.72715C17.6696 8.27178 17.4982 10.1118 16.6582 11.6902C15.7722 13.353 14.4098 14.5685 13.1686 15.9443C12.9513 16.1848 13.3023 16.5394 13.5196 16.2988C14.6814 15.0116 15.977 13.8552 16.8671 12.3486C17.8576 10.6689 18.0206 8.65161 19.0111 6.98037C19.1573 6.7356 18.8188 6.47394 18.6224 6.67651C17.8785 7.42772 17.0845 8.12829 16.3782 8.91749C15.7388 9.63494 15.2414 10.4706 14.7316 11.2851C13.7662 12.8297 12.7172 14.6318 12.759 16.5225C12.759 16.6533 12.8719 16.7799 13.0056 16.7715C15.3 16.6533 17.4648 15.0707 18.6182 13.1125C19.2075 12.108 19.3412 10.8799 19.337 9.73201C19.3287 8.525 18.8188 7.07322 19.6588 6.0308C19.8302 5.81557 19.617 5.49061 19.3579 5.63832C17.2266 6.82 15.0659 8.22114 13.7578 10.3482C13.2187 11.226 12.9262 12.26 12.7423 13.2644C12.571 14.1886 12.4414 15.3197 12.9262 16.1722C13.085 16.4549 13.5154 16.2017 13.3566 15.919L13.3525 15.9232Z" fill="white"/>
</g>
<defs>
<clipPath id="clip0_13_243">
<rect width="71" height="60" fill="white"/>
</clipPath>
</defs>
</svg>
