<svg width="18" height="42" viewBox="0 0 18 42" fill="none" xmlns="http://www.w3.org/2000/svg">
<g clip-path="url(#clip0_13_336)">
<path d="M15.1419 22.1587C15.1681 22.1587 15.1944 22.1688 15.2239 22.1688C15.2469 22.1688 15.2698 22.1688 15.2895 22.1688C15.7028 22.1453 16.0899 21.9145 16.2966 21.5666C16.5557 21.1317 16.5393 20.6601 16.2506 20.2754C15.9095 19.8204 15.2534 19.5896 14.7253 19.7435C14.266 19.8773 13.9741 20.2653 13.9249 20.8072C13.9118 20.9377 13.9052 21.1351 13.9675 21.3291C14.0167 21.473 14.102 21.6101 14.2267 21.7406C14.3087 21.8242 14.4038 21.8945 14.5022 21.9547C14.4957 21.9681 14.4858 21.9814 14.4793 21.9948C14.1381 23.1389 13.6953 24.2462 13.1901 25.3233C12.8194 25.0457 12.3536 24.9721 11.9075 25.136C11.3499 25.3401 10.9857 25.8653 10.9726 26.4775C10.9628 27.0662 11.2777 27.6483 11.7927 28.0196C11.3958 28.7255 10.989 29.4213 10.579 30.1104C10.4248 29.3477 10.2477 28.5883 10.0443 27.8356C9.28655 24.5974 9.45384 20.5396 10.4871 17.2178C10.6544 16.6759 10.8447 16.1373 11.0546 15.5987C11.2646 16.0135 11.55 16.2811 11.8878 16.3748C11.9764 16.3982 12.0682 16.4116 12.1634 16.4116C12.4422 16.4116 12.7341 16.3045 12.9802 16.1005C13.3935 15.7593 13.6067 15.2106 13.528 14.7022C13.4886 14.4479 13.3836 14.2305 13.2229 14.0733C13.0983 13.9528 12.9408 13.8659 12.7374 13.8056C12.4455 13.7187 12.147 13.7086 11.8681 13.7354C12.1273 13.2001 12.4028 12.6616 12.7046 12.123C12.7112 12.123 12.7177 12.123 12.7243 12.123C12.849 12.123 12.9703 12.1062 13.0819 12.0728C13.4 11.9791 13.6822 11.7349 13.833 11.4205C13.9741 11.1261 14.0069 10.7849 13.9216 10.4537C13.9052 10.3834 13.879 10.3132 13.8429 10.2396C14.1086 9.82813 14.3907 9.41667 14.6826 9.00186C14.7647 9.01858 14.8368 9.02862 14.8795 9.03196C14.9615 9.03865 15.0435 9.042 15.1189 9.042C15.5388 9.042 15.8734 8.92826 16.1096 8.70078C16.3753 8.44654 16.4868 8.08526 16.4146 7.70724C16.3294 7.27571 16.0177 6.89769 15.6175 6.74381C15.319 6.63007 15.0238 6.6468 14.7647 6.79399C14.2595 7.08168 14.102 7.73401 14.0659 7.92468C14.0364 8.07857 13.9872 8.35288 14.1184 8.60377C13.8494 8.98513 13.5903 9.36649 13.341 9.74785C13.1015 9.62742 12.7768 9.54713 12.3241 9.5371C12.0584 9.5371 11.8419 9.57724 11.6582 9.67425C11.1629 9.93853 10.9562 10.6109 11.1957 11.1729C11.34 11.5175 11.6352 11.7951 12.0092 11.9591C11.6582 12.5947 11.34 13.2303 11.0481 13.8625C10.8972 13.6451 10.7332 13.4377 10.5593 13.2537C10.2116 12.889 9.87044 12.695 9.51617 12.6582C8.9618 12.6047 8.42055 12.9894 8.27622 13.5313C8.13188 14.0766 8.42711 14.6988 8.93556 14.9163C9.15862 15.0133 9.42432 15.04 9.74579 14.9999C10.0607 14.9597 10.3592 14.8728 10.6479 14.7758C10.3395 15.5151 10.0705 16.2544 9.83764 17.0004C9.49977 18.0842 9.25375 19.245 9.09629 20.4326C9.05365 20.2319 8.97164 20.0412 8.85683 19.8739C8.68625 19.6331 8.45991 19.5059 8.22045 19.5327C8.05644 19.5494 7.82353 19.6498 7.65952 20.0144C7.52503 20.3088 7.4463 20.6132 7.38397 20.9176C7.17731 20.4894 6.96738 20.0646 6.76072 19.6464C6.61966 19.3621 6.47861 19.0778 6.33756 18.7901C6.6295 18.7834 6.94441 18.673 7.28884 18.402C7.65952 18.1076 7.80057 17.5724 7.66608 16.9669C7.56439 16.5086 7.34461 16.1908 7.02642 16.0503C6.46549 15.8028 5.86191 16.2109 5.60277 16.7428C5.56013 16.8331 5.52404 16.9234 5.49452 17.0171C5.08776 16.1239 4.70397 15.2207 4.3825 14.3007C3.9659 13.1165 3.58538 11.6781 3.44433 10.1526C3.65755 10.2429 3.88717 10.2931 4.11351 10.2931C4.29721 10.2931 4.47435 10.263 4.64164 10.1995C5.11728 10.0222 5.48796 9.54379 5.56341 9.00855C5.62901 8.53352 5.45516 8.10533 5.08776 7.83102C4.69413 7.53998 4.07743 7.53329 3.64115 7.65706C3.57226 7.67714 3.50994 7.7039 3.44761 7.73066C3.5329 6.89435 3.7166 6.05803 4.02822 5.24179C4.09055 5.25852 4.15616 5.26521 4.22504 5.26521C4.44482 5.26521 4.68429 5.18492 4.91719 5.02435C5.02216 4.95076 5.17305 4.83367 5.27474 4.65303C5.46828 4.31181 5.44532 3.94384 5.20913 3.67287C4.90079 3.31827 4.27425 3.18781 3.81173 3.38852C3.45089 3.54575 3.25079 3.87693 3.2836 4.28171C3.29344 4.43559 3.34592 4.58947 3.44433 4.75673C3.45089 4.77011 3.46073 4.78349 3.47057 4.79687C2.50945 7.15862 2.57505 9.68094 3.01133 11.8721C2.55865 11.7316 2.02068 11.9624 1.73201 12.2267C1.49255 12.4441 1.32198 12.7519 1.24981 13.0964C1.19732 13.3507 1.21373 13.5748 1.29901 13.7621C1.3515 13.8792 1.43351 13.9863 1.53848 14.0866C1.79434 14.3208 2.14533 14.4446 2.51929 14.4446C2.75547 14.4446 3.00477 14.3944 3.24095 14.294C3.34264 14.2506 3.47385 14.187 3.58538 14.0733C3.63787 14.2305 3.68707 14.3844 3.73956 14.5349C4.01182 15.3077 4.32345 16.0704 4.65476 16.8164C4.47107 16.6658 4.28081 16.5421 4.07087 16.4685C3.54602 16.2878 2.99165 16.3547 2.58817 16.6458C2.10925 16.9903 1.90587 17.6426 2.11253 18.1645C2.2503 18.5124 2.55537 18.7934 3.01789 19.0008C3.39513 19.1714 3.7658 19.2551 4.11679 19.2551C4.28409 19.2551 4.44482 19.235 4.599 19.1948C4.94671 19.1079 5.2649 18.9071 5.51092 18.6395C5.72414 19.0811 5.94392 19.5227 6.15714 19.9576C6.45237 20.5564 6.75088 21.1618 7.04282 21.774C6.88209 21.7038 6.72135 21.6335 6.55734 21.59C6.15058 21.4763 5.74054 21.4228 5.30754 21.4261C5.13369 21.4261 4.92703 21.4428 4.73021 21.5298C4.37266 21.687 4.10695 22.0517 3.9823 22.5602C3.85437 23.072 3.90357 23.5269 4.12007 23.8748C4.36282 24.2562 4.80566 24.487 5.29442 24.487C5.31738 24.487 5.34035 24.487 5.36331 24.487C5.75694 24.4703 6.15714 24.3131 6.55078 24.0187C6.96081 23.7143 7.29869 23.3062 7.54143 22.8512C7.66936 23.1389 7.79729 23.4232 7.91866 23.7109C8.50912 25.1126 9.00116 26.551 9.39808 28.0129C9.39808 28.0263 9.40464 28.0397 9.40792 28.0531C9.40792 28.0531 9.40792 28.0598 9.4112 28.0631C10.5724 32.3684 10.8841 36.8845 10.3133 41.3371C10.2903 41.5277 10.4215 41.7017 10.6085 41.7285C10.6216 41.7285 10.638 41.7285 10.6544 41.7285C10.8217 41.7285 10.9693 41.6013 10.9923 41.424C11.4319 37.9851 11.3564 34.5094 10.7824 31.1173C11.3367 30.1907 11.8944 29.2507 12.4291 28.2939C12.4914 28.304 12.5504 28.314 12.6095 28.314C12.6489 28.314 12.6849 28.314 12.7243 28.3073C13.1311 28.2538 13.4558 27.9627 13.6362 27.481C13.8035 27.0328 13.8363 26.4105 13.6658 25.9322C14.2464 24.7245 14.7581 23.4801 15.1452 22.1855C15.1484 22.1721 15.1452 22.1621 15.1484 22.1487L15.1419 22.1587ZM8.53864 23.4433C8.40415 23.1255 8.26638 22.8077 8.12204 22.4899C8.51568 22.2725 8.82731 21.8677 8.98148 21.5131C8.89947 22.4698 8.87651 23.4333 8.91587 24.38C8.7945 24.0655 8.66985 23.7544 8.53864 23.4433Z" fill="white"/>
<path d="M15.214 26.3298C15.3616 26.4368 15.5421 26.5104 15.752 26.5505C15.8439 26.5673 15.939 26.5773 16.0275 26.5773C16.4409 26.5773 16.8214 26.4101 17.0444 26.1124C17.3364 25.7311 17.3233 25.2194 17.3167 24.9418C17.3003 24.3665 16.9985 23.9551 16.5065 23.8414C15.9029 23.701 15.2042 24.0521 14.9024 24.6441C14.7614 24.9217 14.7056 25.2294 14.7417 25.5171C14.7876 25.8482 14.9582 26.1458 15.2108 26.3298H15.214Z" fill="white"/>
<path d="M0.905372 7.08801C1.03986 7.08801 1.17436 7.06126 1.29901 7.00105C1.57127 6.87396 1.75497 6.62311 1.78121 6.34217C1.78777 6.25855 1.78121 6.16825 1.75825 6.08129C1.65656 5.64984 1.26949 5.32876 0.839766 5.31873C0.459251 5.31873 0.150903 5.54281 0.0328117 5.93747C-0.0688777 6.27862 0.0590541 6.67328 0.34116 6.89403C0.501895 7.02112 0.701993 7.08467 0.905372 7.08467V7.08801Z" fill="white"/>
<path d="M6.1604 2.63224C6.31458 2.69913 6.46547 2.72923 6.6098 2.72923C6.67213 2.72923 6.73445 2.72254 6.7935 2.71251C7.06576 2.65899 7.29211 2.4717 7.38395 2.2242C7.48236 1.95997 7.40692 1.70244 7.35771 1.53187C7.24618 1.14724 6.94439 0.923152 6.59012 0.949908C6.15384 0.98001 5.7438 1.37133 5.6782 1.82285C5.65195 1.99008 5.67492 2.14393 5.74052 2.27102C5.81925 2.42822 5.95702 2.54528 6.15712 2.63224H6.1604Z" fill="white"/>
<path d="M15.2501 5.91382C15.2698 5.91382 15.2895 5.91382 15.3125 5.91382C15.6766 5.91382 16.021 5.75997 16.2473 5.49575C16.5163 5.18135 16.5885 4.72315 16.4245 4.35859C16.1653 3.77328 15.4043 3.78332 14.9713 3.97061C14.6564 4.10774 14.4169 4.382 14.3349 4.70308C14.2398 5.06764 14.3645 5.46564 14.64 5.69308C14.8007 5.82686 15.014 5.90044 15.2534 5.91382H15.2501Z" fill="white"/>
</g>
<defs>
<clipPath id="clip0_13_336">
<rect width="17.32" height="40.792" fill="white" transform="translate(0 0.946533)"/>
</clipPath>
</defs>
</svg>
