<svg width="24" height="24" viewBox="0 0 24 24" fill="none" xmlns="http://www.w3.org/2000/svg">
<path d="M18.75 2.994C18.9489 2.994 19.1397 3.07302 19.2803 3.21367C19.421 3.35433 19.5 3.54509 19.5 3.744V7.503H20.25C20.4489 7.503 20.6397 7.58202 20.7803 7.72267C20.921 7.86332 21 8.05409 21 8.253C21 8.45191 20.921 8.64268 20.7803 8.78333C20.6397 8.92399 20.4489 9.003 20.25 9.003H19.5V15.75C19.5 15.9489 19.421 16.1397 19.2803 16.2803C19.1397 16.421 18.9489 16.5 18.75 16.5C18.5511 16.5 18.3603 16.421 18.2197 16.2803C18.079 16.1397 18 15.9489 18 15.75V3.744C18 3.54509 18.079 3.35433 18.2197 3.21367C18.3603 3.07302 18.5511 2.994 18.75 2.994ZM11.25 4.494H15V6.375C15 6.9945 14.763 7.437 14.4 7.737C14.0235 8.0505 13.455 8.25 12.7545 8.25C12.5556 8.25 12.3648 8.32902 12.2242 8.46967C12.0835 8.61033 12.0045 8.80109 12.0045 9C12.0045 9.19891 12.0835 9.38968 12.2242 9.53033C12.3648 9.67099 12.5556 9.75 12.7545 9.75C13.7265 9.75 14.6565 9.474 15.357 8.892C16.0755 8.298 16.5 7.428 16.5 6.375V3.744C16.5 3.54509 16.421 3.35433 16.2803 3.21367C16.1397 3.07302 15.9489 2.994 15.75 2.994H11.25C11.0511 2.994 10.8603 3.07302 10.7197 3.21367C10.579 3.35433 10.5 3.54509 10.5 3.744C10.5 3.94292 10.579 4.13368 10.7197 4.27433C10.8603 4.41499 11.0511 4.494 11.25 4.494ZM9.681 7.95C9.62252 7.81648 9.5264 7.70289 9.40438 7.62313C9.28237 7.54337 9.13976 7.50089 8.994 7.50089C8.84823 7.50089 8.70562 7.54337 8.58361 7.62313C8.4616 7.70289 8.36548 7.81648 8.307 7.95L3.063 19.95C3.02211 20.0404 2.99958 20.1381 2.99671 20.2373C2.99384 20.3365 3.01069 20.4353 3.04628 20.5279C3.08187 20.6206 3.1355 20.7052 3.20405 20.777C3.2726 20.8488 3.35471 20.9062 3.44563 20.946C3.53654 20.9858 3.63445 21.0072 3.73369 21.0089C3.83292 21.0105 3.9315 20.9925 4.02371 20.9558C4.11592 20.9191 4.19994 20.8645 4.27088 20.7951C4.34182 20.7257 4.39829 20.6429 4.437 20.5515L6.207 16.5015H11.79L13.5645 20.5515C13.648 20.7277 13.7967 20.8644 13.9793 20.9328C14.1618 21.0011 14.3638 20.9957 14.5424 20.9177C14.721 20.8397 14.8623 20.6952 14.9362 20.5149C15.0102 20.3345 15.011 20.1324 14.9385 19.9515L9.6825 7.9515L9.681 7.95ZM11.1315 15H6.8625L8.9955 10.122L11.1315 15Z" fill="white"/>
</svg>
