<svg width="28" height="14" viewBox="0 0 28 14" fill="none" xmlns="http://www.w3.org/2000/svg">
<g clip-path="url(#clip0_33_492)">
<path d="M5.2703 1.23056C4.43647 0.783703 4.09557 1.83405 3.98501 2.79686C3.52433 2.03675 2.74118 1.38719 1.99488 1.70966C1.45588 1.94461 1.42364 2.60338 1.56645 3.09631C1.66319 3.44181 1.85667 3.74586 2.10544 3.99463C1.09195 3.96238 -0.170309 4.23418 0.0185691 5.28453C0.101491 5.7452 0.483854 6.1506 0.926105 6.2888C1.24397 6.38555 1.56184 6.3579 1.87049 6.27038C1.4006 6.91072 1.1933 7.74915 1.60791 8.40331C2.1469 9.24635 2.8932 8.63365 3.3677 7.90578C3.40455 8.16376 3.46905 8.41253 3.55197 8.61983C3.71321 9.03905 4.04029 9.684 4.59771 9.47209C5.30254 9.20489 5.49603 8.43556 5.35322 7.74915C5.41771 7.84129 5.48221 7.92882 5.55131 8.02095C5.74019 8.27432 5.93828 8.55534 6.23311 8.68893C6.68458 8.89624 7.30649 8.72579 7.40784 8.1914C7.5184 7.61555 7.02548 6.92914 6.63851 6.5606C6.60626 6.52836 6.56941 6.50071 6.53255 6.46847C8.59639 7.15488 10.7892 7.49117 12.9774 7.52803C12.1528 7.82286 11.3835 8.26511 10.7017 8.85017C9.37494 9.98344 8.8083 11.6235 7.67043 12.9041C7.4447 13.1621 7.83167 13.5307 8.06201 13.2727C8.85437 12.3559 10.4115 12.3605 11.4664 11.8722C12.1298 11.5682 12.7471 11.1628 13.2953 10.6791C14.1476 9.92355 15.3085 8.69354 15.1104 7.46353C15.7738 7.41746 16.4325 7.35297 17.0821 7.25623C18.6161 7.02589 20.3621 6.63431 22.0436 6.03543C21.5092 6.44083 21.0485 6.93836 20.6569 7.49117C19.7632 8.75343 19.6434 10.2322 18.9432 11.5774C18.805 11.84 19.1643 12.1118 19.3716 11.886C20.9518 10.1539 24.7109 8.1223 23.854 5.28452C25.4941 4.49676 26.959 3.46024 27.9449 2.11045C28.1107 1.88011 27.8343 1.60371 27.6178 1.80641C26.3325 2.99956 24.9136 3.94856 23.4026 4.68564C23.1815 3.13316 22.0021 1.77877 20.6293 1.08775C19.5421 0.539543 17.6211 0.037404 16.8011 1.23517C16.6997 1.37798 16.8195 1.58067 16.9715 1.62214C18.4134 1.97686 19.0952 3.50631 20.2055 4.35856C20.7813 4.80081 21.4263 5.10025 22.1081 5.26149C19.8738 6.15521 17.4783 6.62049 15.0459 6.73105C15.4513 5.15553 14.5115 3.40496 13.5349 2.19798C12.245 0.604038 10.4345 -0.197542 8.41212 0.221675C8.17257 0.27235 8.14953 0.576397 8.29234 0.728421C9.47629 2.01371 9.87247 3.76889 11.061 5.0634C11.7428 5.80509 12.5398 6.3579 13.4289 6.75409C11.2867 6.71723 9.13999 6.4224 7.07155 5.91105C7.23278 5.86037 7.38942 5.80048 7.53223 5.72678C8.01594 5.4688 8.61482 4.85609 8.24167 4.28485C7.71189 3.47406 6.53255 3.42799 5.71715 3.87946C6.05806 2.94428 6.12716 1.70045 5.26108 1.23517L5.2703 1.23056ZM20.6523 8.50927C21.2282 7.41286 22.0989 6.64352 23.0617 5.91105C22.1587 7.27465 21.1959 8.5323 20.1548 9.78074C20.2884 9.3477 20.4404 8.91927 20.6523 8.51388L20.6523 8.50927ZM19.883 10.6652C19.9199 10.5547 19.9521 10.4395 19.9843 10.3289C21.4078 9.04366 22.6517 7.34836 23.4993 5.65307C23.5776 7.90117 21.523 9.23253 19.883 10.6652ZM19.5605 2.96732C19.1874 2.52506 18.828 2.10124 18.4134 1.76034C20.0212 2.49282 21.1913 3.61226 22.4305 4.90677C21.2927 4.57969 20.3667 3.92553 19.5605 2.96732ZM22.8267 4.95284C21.5783 3.38192 19.9106 1.44708 17.7869 1.18449C17.704 1.17528 17.6487 1.21674 17.6211 1.27202C17.598 1.26281 17.5796 1.24899 17.5566 1.24438C18.501 0.659319 20.2423 1.50236 20.961 2.04135C21.9699 2.80147 22.4628 3.76889 22.8544 4.93902C22.8452 4.93902 22.8359 4.94823 22.8221 4.95284L22.8267 4.95284ZM10.6096 11.6557C10.3055 11.7617 10.0015 11.8354 9.70202 11.9091C11.5908 10.8633 13.5026 9.48591 14.751 7.76758C14.3871 9.58726 12.1805 11.1167 10.6096 11.6603L10.6096 11.6557ZM14.5391 7.65241C12.7102 9.2095 11.061 10.7528 8.99257 11.9966C9.4164 11.324 9.80337 10.633 10.3193 10.0203C11.4388 8.69815 12.9037 8.02556 14.5345 7.65241L14.5391 7.65241ZM13.0419 2.60338C13.8573 3.64912 14.8063 5.24767 14.4194 6.63892C13.3368 4.28025 11.7428 2.28551 9.71123 0.677746C11.0334 0.737634 12.1897 1.51157 13.0419 2.60338ZM10.7846 3.72283C10.1995 2.77844 9.86786 1.72809 9.2137 0.852804C11.3052 2.38686 12.9129 4.34474 14.0831 6.64352C12.7471 5.97093 11.5816 5.01733 10.7846 3.72283ZM5.39007 3.25754C5.32097 3.66294 5.15052 4.01766 4.94322 4.37238C4.86029 4.5198 4.97546 4.68104 5.11367 4.7225C5.1367 4.73171 5.15513 4.73632 5.17816 4.73171C5.17816 4.73171 5.18277 4.73171 5.18737 4.73171C5.2012 4.73171 5.21041 4.73171 5.22423 4.7225C5.26108 4.71328 5.29794 4.69025 5.32558 4.6534C5.33019 4.64418 5.33479 4.63497 5.34401 4.62576C5.64805 4.34935 5.99817 4.15586 6.41738 4.1098C6.77671 4.07294 7.45391 4.14204 7.67964 4.48295C8.14493 5.197 6.54177 5.44116 5.72176 5.53329C5.50985 5.4734 5.30254 5.40891 5.09524 5.33981C4.81423 5.25228 4.63917 5.68992 4.89254 5.82352C4.88333 5.82352 4.87411 5.82352 4.86951 5.82352C4.71748 5.82352 4.69906 6.04004 4.84187 6.0815C5.6803 6.33026 6.48188 6.86004 6.78132 7.72151C6.91031 8.09466 6.70761 8.33421 6.31143 8.03938C6.14098 7.915 6.02581 7.70308 5.90143 7.53724C5.61581 7.16409 5.34401 6.78633 5.01692 6.44543C4.84647 6.26577 4.58849 6.50993 4.69906 6.70802C4.7267 6.75869 4.75434 6.80476 4.78198 6.85083C4.76816 6.87386 4.76355 6.9015 4.78198 6.92915C4.9985 7.2378 5.07681 7.58331 5.03996 7.95185C5.01232 8.21444 4.88793 8.74422 4.61153 8.87781C4.10478 9.12658 3.93433 8.30657 3.87905 7.9887C3.80073 7.54645 3.92512 7.15488 3.92972 6.72184C3.92972 6.52375 3.67174 6.48689 3.57961 6.63431C3.51511 6.73566 3.47365 6.84622 3.4368 6.96139C3.3032 7.31151 3.10972 7.63859 2.83792 7.90118C2.76421 7.97028 2.52005 8.20522 2.39567 8.23286C1.94881 8.32961 1.90735 7.75837 1.92117 7.50499C1.97645 6.62049 2.77803 6.32105 3.20185 5.67149C3.29399 5.53329 3.12814 5.3352 2.97612 5.39048C2.94848 5.3997 2.92545 5.41352 2.89781 5.42273C2.87477 5.41812 2.84713 5.41812 2.81488 5.43194C2.216 5.68071 0.778688 6.30262 0.566776 5.22924C0.387111 4.30789 2.50162 4.54283 2.99915 4.50137C3.22489 4.48295 3.25713 4.1789 3.04062 4.1144C3.03601 4.1144 3.0268 4.1144 3.02219 4.1098C3.00376 4.08676 2.98073 4.06373 2.94848 4.0453C2.60758 3.85182 2.33578 3.58002 2.18375 3.21608C2.02252 2.82911 1.97184 1.99989 2.63061 2.26248C3.38152 2.56192 3.58882 3.39575 3.86062 4.05912C3.97579 4.34014 4.41344 4.3125 4.40883 3.97159C4.40883 3.85182 4.3858 3.72283 4.34894 3.58462C4.42726 2.79226 4.71288 1.23977 5.2749 1.92158C5.51906 2.21641 5.45917 2.90282 5.39929 3.25294L5.39007 3.25754Z" fill="white"/>
</g>
<defs>
<clipPath id="clip0_33_492">
<rect width="13.2537" height="28" fill="white" transform="translate(0 13.3604) rotate(-90)"/>
</clipPath>
</defs>
</svg>
