<svg width="176" height="138" viewBox="0 0 176 138" fill="none" xmlns="http://www.w3.org/2000/svg">
<path d="M83.0252 0.823998C83.2412 0.823998 83.3612 0.907998 83.3852 1.076C83.4092 1.244 83.2892 1.328 83.0252 1.328C80.9372 1.328 78.9452 1.844 77.0492 2.876C75.1532 3.884 73.3412 5.228 71.6132 6.908C69.9092 8.564 68.2892 10.46 66.7532 12.596C65.2172 14.732 63.7652 16.916 62.3972 19.148C61.0292 21.356 59.7452 23.528 58.5452 25.664C57.3452 27.8 56.2052 29.708 55.1252 31.388C54.0692 33.044 53.0852 34.376 52.1732 35.384C51.2612 36.416 50.4092 36.932 49.6172 36.932C48.5852 36.932 47.9372 36.5 47.6732 35.636C47.4332 34.772 47.4572 33.62 47.7452 32.18C48.0332 30.764 48.5132 29.156 49.1852 27.356C49.8572 25.532 50.6132 23.672 51.4532 21.776C52.3172 19.88 53.1932 18.032 54.0812 16.232C54.9932 14.408 55.7972 12.788 56.4932 11.372C57.1892 9.932 57.7172 8.78 58.0772 7.916C58.4612 7.052 58.5692 6.62 58.4012 6.62C58.1612 6.62 57.7172 7.052 57.0692 7.916C56.4212 8.756 55.6292 9.884 54.6932 11.3C53.7812 12.692 52.7492 14.288 51.5972 16.088C50.4452 17.888 49.2572 19.724 48.0332 21.596C46.8092 23.444 45.5732 25.268 44.3252 27.068C43.1012 28.868 41.9252 30.476 40.7972 31.892C39.6932 33.284 38.6732 34.4 37.7372 35.24C36.8012 36.104 36.0212 36.536 35.3972 36.536C34.5572 36.536 34.0292 36.2 33.8132 35.528C33.5972 34.88 33.5972 33.98 33.8132 32.828C34.0532 31.7 34.4612 30.38 35.0372 28.868C35.6372 27.356 36.3092 25.748 37.0532 24.044C37.8212 22.34 38.6252 20.588 39.4652 18.788C40.3292 16.964 41.1332 15.2 41.8772 13.496C42.6452 11.792 43.3172 10.184 43.8932 8.672C44.4932 7.16 44.9012 5.84 45.1172 4.712C45.3572 3.56 45.3692 2.66 45.1532 2.012C44.9372 1.34 44.4092 1.004 43.5692 1.004C42.4892 1.004 41.4092 1.328 40.3292 1.976C39.2492 2.624 38.2052 3.476 37.1972 4.532C36.1892 5.588 35.2292 6.8 34.3172 8.168C33.4052 9.512 32.5772 10.892 31.8332 12.308C31.1132 13.7 30.4892 15.08 29.9612 16.448C29.4332 17.792 29.0252 18.992 28.7372 20.048C28.4732 21.104 28.3532 21.956 28.3772 22.604C28.4012 23.252 28.6052 23.576 28.9892 23.576C29.2292 23.576 29.3372 23.66 29.3132 23.828C29.2892 23.996 29.1812 24.08 28.9892 24.08C28.2212 24.08 27.7172 23.744 27.4772 23.072C27.2372 22.4 27.2012 21.512 27.3692 20.408C27.5612 19.304 27.9212 18.044 28.4492 16.628C29.0012 15.212 29.6852 13.772 30.5012 12.308C31.3172 10.82 32.2292 9.368 33.2372 7.952C34.2692 6.536 35.3492 5.276 36.4772 4.172C37.6292 3.068 38.8052 2.18 40.0052 1.508C41.2292 0.835998 42.4172 0.499998 43.5692 0.499998C44.8172 0.499998 45.7172 0.835998 46.2692 1.508C46.8212 2.156 47.0972 3.056 47.0972 4.208C47.1212 5.336 46.9292 6.656 46.5212 8.168C46.1132 9.68 45.5612 11.288 44.8652 12.992C44.1932 14.696 43.4252 16.46 42.5612 18.284C41.7212 20.084 40.8812 21.836 40.0412 23.54C39.2012 25.244 38.4092 26.852 37.6652 28.364C36.9212 29.876 36.3092 31.196 35.8292 32.324C35.3492 33.476 35.0492 34.376 34.9292 35.024C34.8092 35.696 34.9652 36.032 35.3972 36.032C35.9732 36.032 36.7172 35.6 37.6292 34.736C38.5412 33.896 39.5372 32.78 40.6172 31.388C41.7212 29.972 42.8852 28.364 44.1092 26.564C45.3332 24.764 46.5572 22.94 47.7812 21.092C49.0052 19.22 50.1932 17.384 51.3452 15.584C52.4972 13.784 53.5412 12.188 54.4772 10.796C55.4372 9.38 56.2532 8.252 56.9252 7.412C57.6212 6.548 58.1132 6.116 58.4012 6.116C59.1692 6.116 59.5652 6.548 59.5892 7.412C59.6132 8.276 59.3852 9.428 58.9052 10.868C58.4492 12.284 57.8132 13.904 56.9972 15.728C56.1812 17.528 55.3172 19.376 54.4052 21.272C53.5172 23.168 52.6412 25.028 51.7772 26.852C50.9372 28.652 50.2412 30.272 49.6892 31.712C49.1612 33.128 48.8492 34.268 48.7532 35.132C48.6812 35.996 48.9692 36.428 49.6172 36.428C50.3372 36.428 51.1292 35.912 51.9932 34.88C52.8812 33.872 53.8412 32.54 54.8732 30.884C55.9292 29.204 57.0572 27.296 58.2572 25.16C59.4572 23.024 60.7412 20.852 62.1092 18.644C63.4772 16.412 64.9412 14.228 66.5012 12.092C68.0612 9.956 69.7052 8.06 71.4332 6.404C73.1852 4.724 75.0212 3.38 76.9412 2.372C78.8612 1.34 80.8892 0.823998 83.0252 0.823998ZM90.9981 25.484C91.1421 25.412 91.2621 25.412 91.3581 25.484C91.4781 25.556 91.4421 25.652 91.2501 25.772C88.6101 27.092 86.2821 28.196 84.2661 29.084C82.2501 29.972 80.4861 30.692 78.9741 31.244C77.4621 31.772 76.1781 32.144 75.1221 32.36C74.0901 32.6 73.2261 32.72 72.5301 32.72C71.0901 32.72 70.0101 32.492 69.2901 32.036C68.5461 31.604 68.0781 31.052 67.8861 30.38C67.6941 29.708 67.7541 28.988 68.0661 28.22C68.3541 27.428 68.7981 26.696 69.3981 26.024C69.9981 25.352 70.7061 24.8 71.5221 24.368C72.3621 23.912 73.2381 23.684 74.1501 23.684C74.8701 23.684 75.4461 23.84 75.8781 24.152C76.3101 24.464 76.5981 24.848 76.7421 25.304C76.8861 25.76 76.8621 26.252 76.6701 26.78C76.5021 27.284 76.1661 27.74 75.6621 28.148C75.1821 28.556 74.5101 28.868 73.6461 29.084C72.8061 29.276 71.7861 29.3 70.5861 29.156C70.3461 29.156 70.2141 29.24 70.1901 29.408C69.9981 30.176 70.0821 30.824 70.4421 31.352C70.8021 31.88 71.5941 32.144 72.8181 32.144C73.3941 32.144 74.1381 32.06 75.0501 31.892C75.9861 31.7 77.1621 31.364 78.5781 30.884C80.0181 30.38 81.7461 29.696 83.7621 28.832C85.7781 27.968 88.1901 26.852 90.9981 25.484ZM75.3021 24.296C74.9181 24.296 74.5101 24.416 74.0781 24.656C73.6461 24.872 73.2141 25.16 72.7821 25.52C72.3501 25.88 71.9421 26.3 71.5581 26.78C71.1981 27.236 70.8981 27.704 70.6581 28.184C70.6341 28.232 70.6221 28.28 70.6221 28.328C70.6221 28.376 70.6581 28.412 70.7301 28.436C70.8021 28.46 70.9341 28.472 71.1261 28.472C71.3181 28.472 71.5821 28.448 71.9181 28.4C73.1421 28.208 74.0661 27.896 74.6901 27.464C75.3381 27.008 75.7581 26.552 75.9501 26.096C76.1661 25.616 76.2021 25.196 76.0581 24.836C75.9141 24.476 75.6621 24.296 75.3021 24.296ZM96.7918 6.692C96.5758 7.532 96.2998 8.444 95.9638 9.428C95.6278 10.412 95.2558 11.396 94.8478 12.38C94.4638 13.34 94.0798 14.252 93.6958 15.116H91.3558C91.5238 14.444 91.6918 13.724 91.8598 12.956C92.0518 12.188 92.2198 11.42 92.3638 10.652C92.5318 9.86 92.6758 9.092 92.7958 8.348C92.9398 7.604 93.0598 6.92 93.1558 6.296H96.5398L96.7918 6.692ZM120.581 25.484C120.677 25.436 120.749 25.448 120.797 25.52C120.869 25.592 120.869 25.652 120.797 25.7C118.877 26.66 117.089 27.656 115.433 28.688C113.777 29.72 112.217 30.668 110.753 31.532C109.289 32.396 107.897 33.104 106.577 33.656C105.281 34.208 104.021 34.484 102.797 34.484C101.813 34.484 101.045 34.256 100.493 33.8C99.9648 33.368 99.6288 32.78 99.4848 32.036C99.3408 31.316 99.3888 30.488 99.6288 29.552C99.8688 28.592 100.289 27.62 100.889 26.636C100.985 26.516 100.997 26.408 100.925 26.312C100.853 26.216 100.745 26.192 100.601 26.24C100.337 26.336 100.073 26.42 99.8088 26.492C99.5448 26.54 99.2568 26.564 98.9448 26.564C98.5368 26.564 98.0808 26.504 97.5768 26.384C97.0968 26.264 96.6888 26.048 96.3528 25.736C96.0168 25.4 95.8248 24.968 95.7768 24.44C95.7288 23.888 95.9568 23.192 96.4608 22.352C96.6048 22.136 96.8448 21.992 97.1808 21.92C97.4928 21.848 97.8048 21.836 98.1168 21.884C98.4288 21.932 98.6808 22.028 98.8728 22.172C99.0888 22.316 99.1488 22.484 99.0528 22.676C98.9328 22.892 98.7888 23.192 98.6208 23.576C98.4528 23.96 98.3208 24.344 98.2248 24.728C98.1528 25.088 98.1648 25.412 98.2608 25.7C98.3568 25.988 98.6208 26.132 99.0528 26.132C99.6768 26.132 100.253 26.024 100.781 25.808C101.309 25.592 101.729 25.328 102.041 25.016C102.185 24.92 102.389 24.872 102.653 24.872C102.917 24.848 103.157 24.872 103.373 24.944C103.613 24.992 103.793 25.076 103.913 25.196C104.057 25.316 104.081 25.46 103.985 25.628C103.889 25.772 103.709 26.084 103.445 26.564C103.181 27.044 102.905 27.596 102.617 28.22C102.329 28.844 102.053 29.504 101.789 30.2C101.549 30.896 101.405 31.532 101.357 32.108C101.309 32.684 101.393 33.152 101.609 33.512C101.825 33.896 102.245 34.088 102.869 34.088C104.093 34.088 105.365 33.788 106.685 33.188C108.005 32.612 109.385 31.892 110.825 31.028C112.289 30.164 113.825 29.24 115.433 28.256C117.065 27.248 118.781 26.324 120.581 25.484ZM141.553 25.484C141.697 25.412 141.817 25.412 141.913 25.484C142.033 25.556 141.997 25.652 141.805 25.772C139.165 27.092 136.837 28.196 134.821 29.084C132.805 29.972 131.041 30.692 129.529 31.244C128.017 31.772 126.733 32.144 125.677 32.36C124.645 32.6 123.781 32.72 123.085 32.72C121.645 32.72 120.565 32.492 119.845 32.036C119.101 31.604 118.633 31.052 118.441 30.38C118.249 29.708 118.309 28.988 118.621 28.22C118.909 27.428 119.353 26.696 119.953 26.024C120.553 25.352 121.261 24.8 122.077 24.368C122.917 23.912 123.793 23.684 124.705 23.684C125.425 23.684 126.001 23.84 126.433 24.152C126.865 24.464 127.153 24.848 127.297 25.304C127.441 25.76 127.417 26.252 127.225 26.78C127.057 27.284 126.721 27.74 126.217 28.148C125.737 28.556 125.065 28.868 124.201 29.084C123.361 29.276 122.341 29.3 121.141 29.156C120.901 29.156 120.769 29.24 120.745 29.408C120.553 30.176 120.637 30.824 120.997 31.352C121.357 31.88 122.149 32.144 123.373 32.144C123.949 32.144 124.693 32.06 125.605 31.892C126.541 31.7 127.717 31.364 129.133 30.884C130.573 30.38 132.301 29.696 134.317 28.832C136.333 27.968 138.745 26.852 141.553 25.484ZM125.857 24.296C125.473 24.296 125.065 24.416 124.633 24.656C124.201 24.872 123.769 25.16 123.337 25.52C122.905 25.88 122.497 26.3 122.113 26.78C121.753 27.236 121.453 27.704 121.213 28.184C121.189 28.232 121.177 28.28 121.177 28.328C121.177 28.376 121.213 28.412 121.285 28.436C121.357 28.46 121.489 28.472 121.681 28.472C121.873 28.472 122.137 28.448 122.473 28.4C123.697 28.208 124.621 27.896 125.245 27.464C125.893 27.008 126.313 26.552 126.505 26.096C126.721 25.616 126.757 25.196 126.613 24.836C126.469 24.476 126.217 24.296 125.857 24.296ZM35.8385 75.628C35.9825 75.484 36.1025 75.472 36.1985 75.592C36.2945 75.688 36.2705 75.796 36.1265 75.916C34.5665 77.5 33.0065 78.916 31.4465 80.164C29.9105 81.388 28.3745 82.516 26.8385 83.548C25.3265 84.58 23.8025 85.516 22.2665 86.356C20.7545 87.22 19.2425 88.06 17.7305 88.876C17.4665 89.02 17.2385 89.212 17.0465 89.452C16.8545 89.692 16.6265 90.028 16.3625 90.46C14.8505 93.052 13.5065 95.248 12.3305 97.048C11.1545 98.848 10.0745 100.3 9.09048 101.404C8.08248 102.532 7.12248 103.348 6.21048 103.852C5.29848 104.356 4.33848 104.608 3.33048 104.608C2.49048 104.608 1.80648 104.332 1.27848 103.78C0.750483 103.252 0.486483 102.544 0.486483 101.656C0.486483 100.504 0.798483 99.46 1.42248 98.524C2.04648 97.588 2.92248 96.688 4.05048 95.824C5.15448 94.984 6.48648 94.132 8.04648 93.268C9.60648 92.428 11.3225 91.516 13.1945 90.532C13.5305 90.34 13.7705 90.172 13.9145 90.028C14.0345 89.884 14.1185 89.752 14.1665 89.632C14.9105 88.168 15.6665 86.632 16.4345 85.024C17.2025 83.416 18.0665 81.604 19.0265 79.588C19.0745 79.468 19.0625 79.396 18.9905 79.372C18.9425 79.324 18.8825 79.348 18.8105 79.444C18.7625 79.492 18.6305 79.66 18.4145 79.948C18.2225 80.212 17.9705 80.512 17.6585 80.848C17.3465 81.16 16.9865 81.448 16.5785 81.712C16.1945 81.976 15.7745 82.108 15.3185 82.108C14.5985 82.108 14.0705 81.928 13.7345 81.568C13.3745 81.184 13.1945 80.728 13.1945 80.2C13.1705 79.648 13.3025 79.048 13.5905 78.4C13.8785 77.752 14.2865 77.164 14.8145 76.636C15.3425 76.084 15.9665 75.628 16.6865 75.268C17.4305 74.884 18.2345 74.692 19.0985 74.692C19.4105 74.692 19.6625 74.728 19.8545 74.8C20.0465 74.848 20.1905 74.92 20.2865 75.016C20.4065 75.088 20.4905 75.172 20.5385 75.268C20.5865 75.34 20.6345 75.388 20.6825 75.412C20.7305 75.46 20.7905 75.472 20.8625 75.448C20.9345 75.424 20.9825 75.388 21.0065 75.34C21.1265 75.124 21.3425 74.98 21.6545 74.908C21.9905 74.812 22.3025 74.788 22.5905 74.836C22.9025 74.86 23.1425 74.968 23.3105 75.16C23.4785 75.352 23.4545 75.628 23.2385 75.988C22.2785 78.148 21.3905 80.104 20.5745 81.856C19.7825 83.608 18.9785 85.324 18.1625 87.004C17.9465 87.46 17.9225 87.724 18.0905 87.796C18.2585 87.868 18.4745 87.832 18.7385 87.688C20.1305 86.92 21.5345 86.116 22.9505 85.276C24.3905 84.46 25.8185 83.572 27.2345 82.612C28.6745 81.676 30.1145 80.632 31.5545 79.48C32.9945 78.328 34.4225 77.044 35.8385 75.628ZM15.5345 81.64C15.7505 81.64 16.0505 81.484 16.4345 81.172C16.8425 80.836 17.2505 80.44 17.6585 79.984C18.0905 79.504 18.4985 78.988 18.8825 78.436C19.2905 77.86 19.6025 77.344 19.8185 76.888C20.0345 76.408 20.1305 76.012 20.1065 75.7C20.1065 75.364 19.9265 75.196 19.5665 75.196C19.2305 75.196 18.8345 75.364 18.3785 75.7C17.9465 76.012 17.5145 76.408 17.0825 76.888C16.6745 77.344 16.2905 77.86 15.9305 78.436C15.5705 78.988 15.2945 79.504 15.1025 79.984C14.9105 80.44 14.8385 80.836 14.8865 81.172C14.9345 81.484 15.1505 81.64 15.5345 81.64ZM3.33048 104.176C4.41048 104.176 5.75448 103.156 7.36248 101.116C8.94648 99.1 10.7105 96.196 12.6545 92.404C12.8225 92.068 12.8825 91.828 12.8345 91.684C12.7625 91.54 12.4745 91.6 11.9705 91.864C10.3625 92.704 8.89848 93.496 7.57848 94.24C6.23448 94.984 5.08248 95.728 4.12248 96.472C3.16248 97.24 2.41848 98.032 1.89048 98.848C1.36248 99.688 1.09848 100.624 1.09848 101.656C1.09848 102.424 1.30248 103.036 1.71048 103.492C2.09448 103.948 2.63448 104.176 3.33048 104.176ZM57.0371 75.484C57.1811 75.412 57.3011 75.412 57.3971 75.484C57.5171 75.556 57.4811 75.652 57.2891 75.772C54.6491 77.092 52.3211 78.196 50.3051 79.084C48.2891 79.972 46.5251 80.692 45.0131 81.244C43.5011 81.772 42.2171 82.144 41.1611 82.36C40.1291 82.6 39.2651 82.72 38.5691 82.72C37.1291 82.72 36.0491 82.492 35.3291 82.036C34.5851 81.604 34.1171 81.052 33.9251 80.38C33.7331 79.708 33.7931 78.988 34.1051 78.22C34.3931 77.428 34.8371 76.696 35.4371 76.024C36.0371 75.352 36.7451 74.8 37.5611 74.368C38.4011 73.912 39.2771 73.684 40.1891 73.684C40.9091 73.684 41.4851 73.84 41.9171 74.152C42.3491 74.464 42.6371 74.848 42.7811 75.304C42.9251 75.76 42.9011 76.252 42.7091 76.78C42.5411 77.284 42.2051 77.74 41.7011 78.148C41.2211 78.556 40.5491 78.868 39.6851 79.084C38.8451 79.276 37.8251 79.3 36.6251 79.156C36.3851 79.156 36.2531 79.24 36.2291 79.408C36.0371 80.176 36.1211 80.824 36.4811 81.352C36.8411 81.88 37.6331 82.144 38.8571 82.144C39.4331 82.144 40.1771 82.06 41.0891 81.892C42.0251 81.7 43.2011 81.364 44.6171 80.884C46.0571 80.38 47.7851 79.696 49.8011 78.832C51.8171 77.968 54.2291 76.852 57.0371 75.484ZM41.3411 74.296C40.9571 74.296 40.5491 74.416 40.1171 74.656C39.6851 74.872 39.2531 75.16 38.8211 75.52C38.3891 75.88 37.9811 76.3 37.5971 76.78C37.2371 77.236 36.9371 77.704 36.6971 78.184C36.6731 78.232 36.6611 78.28 36.6611 78.328C36.6611 78.376 36.6971 78.412 36.7691 78.436C36.8411 78.46 36.9731 78.472 37.1651 78.472C37.3571 78.472 37.6211 78.448 37.9571 78.4C39.1811 78.208 40.1051 77.896 40.7291 77.464C41.3771 77.008 41.7971 76.552 41.9891 76.096C42.2051 75.616 42.2411 75.196 42.0971 74.836C41.9531 74.476 41.7011 74.296 41.3411 74.296ZM87.5629 64.828C87.7549 64.708 87.8749 64.708 87.9229 64.828C87.9949 64.924 87.9469 65.032 87.7789 65.152C87.5869 65.296 87.1549 65.488 86.4829 65.728C85.8109 65.968 84.9589 66.22 83.9269 66.484C82.9189 66.724 81.7669 66.94 80.4709 67.132C79.1749 67.3 77.8069 67.384 76.3669 67.384C74.4229 67.384 72.6589 67.264 71.0749 67.024C69.5149 66.76 67.9309 66.484 66.3229 66.196C66.2749 66.172 66.1669 66.16 65.9989 66.16C65.8549 66.16 65.7469 66.208 65.6749 66.304C63.3709 69.52 61.5229 72.388 60.1309 74.908C58.7629 77.404 57.8389 79.528 57.3589 81.28C56.9029 83.008 56.8909 84.328 57.3229 85.24C57.7789 86.152 58.6909 86.608 60.0589 86.608C61.1389 86.608 62.3389 86.332 63.6589 85.78C65.0029 85.228 66.4909 84.46 68.1229 83.476C69.7789 82.516 71.5909 81.364 73.5589 80.02C75.5269 78.652 77.6629 77.164 79.9669 75.556C80.2789 75.34 80.4469 75.316 80.4709 75.484C80.5189 75.628 80.4469 75.76 80.2549 75.88C77.9749 77.368 75.8749 78.784 73.9549 80.128C72.0349 81.472 70.2469 82.648 68.5909 83.656C66.9589 84.688 65.4349 85.504 64.0189 86.104C62.6029 86.704 61.2829 87.004 60.0589 87.004C58.2589 87.004 56.9509 86.536 56.1349 85.6C55.2949 84.664 54.9709 83.308 55.1629 81.532C55.3549 79.756 56.0509 77.596 57.2509 75.052C58.4749 72.484 60.2389 69.568 62.5429 66.304C62.7109 66.064 62.6989 65.872 62.5069 65.728C62.3149 65.56 62.0149 65.452 61.6069 65.404C61.1749 65.356 60.8029 65.32 60.4909 65.296C60.2029 65.248 59.9269 65.224 59.6629 65.224C59.3989 65.2 59.1109 65.188 58.7989 65.188C58.5109 65.164 58.1509 65.152 57.7189 65.152C56.1349 65.152 54.7789 65.284 53.6509 65.548C52.4989 65.788 51.5509 66.076 50.8069 66.412C50.0629 66.724 49.4989 67.036 49.1149 67.348C48.7069 67.66 48.4549 67.888 48.3589 68.032C48.2389 68.2 48.1309 68.26 48.0349 68.212C47.9389 68.14 47.9629 68.008 48.1069 67.816C48.2029 67.672 48.4549 67.42 48.8629 67.06C49.2709 66.676 49.8589 66.28 50.6269 65.872C51.3709 65.464 52.3309 65.104 53.5069 64.792C54.6589 64.48 56.0629 64.324 57.7189 64.324C58.2229 64.324 58.6789 64.336 59.0869 64.36C59.5189 64.384 59.9389 64.42 60.3469 64.468C60.7549 64.492 61.1749 64.54 61.6069 64.612C62.0389 64.684 62.5189 64.756 63.0469 64.828C63.3109 64.876 63.5029 64.84 63.6229 64.72C63.7669 64.576 63.8509 64.492 63.8749 64.468C64.7869 63.196 65.7229 61.96 66.6829 60.76C67.6669 59.56 68.7709 58.24 69.9949 56.8C70.1629 56.584 70.4389 56.452 70.8229 56.404C71.2309 56.332 71.6029 56.332 71.9389 56.404C72.2989 56.452 72.5749 56.548 72.7669 56.692C72.9829 56.836 72.9949 57.004 72.8029 57.196C70.4029 60.124 68.2909 62.812 66.4669 65.26C66.4189 65.308 66.4069 65.368 66.4309 65.44C66.4549 65.512 66.5149 65.56 66.6109 65.584C68.1469 65.92 69.7069 66.232 71.2909 66.52C72.8749 66.808 74.5669 66.952 76.3669 66.952C77.7829 66.952 79.1269 66.868 80.3989 66.7C81.6709 66.532 82.8109 66.328 83.8189 66.088C84.8269 65.848 85.6549 65.62 86.3029 65.404C86.9749 65.164 87.3949 64.972 87.5629 64.828ZM110.168 64.828C110.36 64.708 110.48 64.708 110.528 64.828C110.6 64.924 110.552 65.032 110.384 65.152C110.192 65.296 109.76 65.488 109.088 65.728C108.416 65.968 107.564 66.22 106.532 66.484C105.524 66.724 104.372 66.94 103.076 67.132C101.78 67.3 100.412 67.384 98.9724 67.384C97.0284 67.384 95.2644 67.264 93.6804 67.024C92.1204 66.76 90.5364 66.484 88.9284 66.196C88.8804 66.172 88.7724 66.16 88.6044 66.16C88.4604 66.16 88.3524 66.208 88.2804 66.304C85.9764 69.52 84.1284 72.388 82.7364 74.908C81.3684 77.404 80.4444 79.528 79.9644 81.28C79.5084 83.008 79.4964 84.328 79.9284 85.24C80.3844 86.152 81.2964 86.608 82.6644 86.608C83.7444 86.608 84.9444 86.332 86.2644 85.78C87.6084 85.228 89.0964 84.46 90.7284 83.476C92.3844 82.516 94.1964 81.364 96.1644 80.02C98.1324 78.652 100.268 77.164 102.572 75.556C102.884 75.34 103.052 75.316 103.076 75.484C103.124 75.628 103.052 75.76 102.86 75.88C100.58 77.368 98.4804 78.784 96.5604 80.128C94.6404 81.472 92.8524 82.648 91.1964 83.656C89.5644 84.688 88.0404 85.504 86.6244 86.104C85.2084 86.704 83.8884 87.004 82.6644 87.004C80.8644 87.004 79.5564 86.536 78.7404 85.6C77.9004 84.664 77.5764 83.308 77.7684 81.532C77.9604 79.756 78.6564 77.596 79.8564 75.052C81.0804 72.484 82.8444 69.568 85.1484 66.304C85.3164 66.064 85.3044 65.872 85.1124 65.728C84.9204 65.56 84.6204 65.452 84.2124 65.404C83.7804 65.356 83.4084 65.32 83.0964 65.296C82.8084 65.248 82.5324 65.224 82.2684 65.224C82.0044 65.2 81.7164 65.188 81.4044 65.188C81.1164 65.164 80.7564 65.152 80.3244 65.152C78.7404 65.152 77.3844 65.284 76.2564 65.548C75.1044 65.788 74.1564 66.076 73.4124 66.412C72.6684 66.724 72.1044 67.036 71.7204 67.348C71.3124 67.66 71.0604 67.888 70.9644 68.032C70.8444 68.2 70.7364 68.26 70.6404 68.212C70.5444 68.14 70.5684 68.008 70.7124 67.816C70.8084 67.672 71.0604 67.42 71.4684 67.06C71.8764 66.676 72.4644 66.28 73.2324 65.872C73.9764 65.464 74.9364 65.104 76.1124 64.792C77.2644 64.48 78.6684 64.324 80.3244 64.324C80.8284 64.324 81.2844 64.336 81.6924 64.36C82.1244 64.384 82.5444 64.42 82.9524 64.468C83.3604 64.492 83.7804 64.54 84.2124 64.612C84.6444 64.684 85.1244 64.756 85.6524 64.828C85.9164 64.876 86.1084 64.84 86.2284 64.72C86.3724 64.576 86.4564 64.492 86.4804 64.468C87.3924 63.196 88.3284 61.96 89.2884 60.76C90.2724 59.56 91.3764 58.24 92.6004 56.8C92.7684 56.584 93.0444 56.452 93.4284 56.404C93.8364 56.332 94.2084 56.332 94.5444 56.404C94.9044 56.452 95.1804 56.548 95.3724 56.692C95.5884 56.836 95.6004 57.004 95.4084 57.196C93.0084 60.124 90.8964 62.812 89.0724 65.26C89.0244 65.308 89.0124 65.368 89.0364 65.44C89.0604 65.512 89.1204 65.56 89.2164 65.584C90.7524 65.92 92.3124 66.232 93.8964 66.52C95.4804 66.808 97.1724 66.952 98.9724 66.952C100.388 66.952 101.732 66.868 103.004 66.7C104.276 66.532 105.416 66.328 106.424 66.088C107.432 65.848 108.26 65.62 108.908 65.404C109.58 65.164 110 64.972 110.168 64.828ZM104.19 73.72C103.83 73.72 103.65 73.552 103.65 73.216C103.65 72.88 103.83 72.712 104.19 72.712C104.526 72.712 104.694 72.88 104.694 73.216C104.694 73.552 104.526 73.72 104.19 73.72ZM102.21 75.412C102.306 75.292 102.486 75.22 102.75 75.196C103.014 75.172 103.278 75.184 103.542 75.232C103.806 75.28 104.01 75.376 104.154 75.52C104.322 75.64 104.346 75.784 104.226 75.952C104.13 76.096 103.95 76.408 103.686 76.888C103.446 77.344 103.182 77.872 102.894 78.472C102.63 79.072 102.39 79.708 102.174 80.38C101.958 81.028 101.838 81.628 101.814 82.18C101.766 82.732 101.862 83.188 102.102 83.548C102.318 83.908 102.738 84.088 103.362 84.088C104.586 84.088 105.846 83.812 107.142 83.26C108.438 82.708 109.806 82.012 111.246 81.172C112.71 80.332 114.246 79.408 115.854 78.4C117.486 77.392 119.226 76.42 121.074 75.484C121.17 75.436 121.242 75.448 121.29 75.52C121.362 75.592 121.362 75.652 121.29 75.7C119.418 76.708 117.654 77.74 115.998 78.796C114.342 79.828 112.77 80.776 111.282 81.64C109.818 82.48 108.426 83.164 107.106 83.692C105.786 84.22 104.514 84.484 103.29 84.484C102.186 84.484 101.346 84.22 100.77 83.692C100.194 83.164 99.8698 82.468 99.7978 81.604C99.7258 80.74 99.8938 79.768 100.302 78.688C100.71 77.608 101.346 76.516 102.21 75.412ZM143.413 75.34C143.605 75.22 143.725 75.208 143.773 75.304C143.821 75.4 143.761 75.508 143.593 75.628C143.473 75.7 143.149 75.916 142.621 76.276C142.093 76.636 141.433 77.068 140.641 77.572C139.873 78.052 138.997 78.568 138.013 79.12C137.053 79.672 136.081 80.188 135.097 80.668C134.113 81.124 133.153 81.508 132.217 81.82C131.305 82.108 130.489 82.252 129.769 82.252C128.737 82.252 127.993 82.108 127.537 81.82C127.081 81.508 126.805 81.136 126.709 80.704C126.613 80.248 126.637 79.768 126.781 79.264C126.949 78.736 127.117 78.256 127.285 77.824C127.453 77.368 127.573 76.996 127.645 76.708C127.717 76.396 127.633 76.24 127.393 76.24C126.841 76.24 126.157 76.468 125.341 76.924C124.549 77.38 123.745 77.944 122.929 78.616C122.137 79.288 121.405 80.02 120.733 80.812C120.037 81.604 119.533 82.324 119.221 82.972C119.125 83.188 118.969 83.32 118.753 83.368C118.537 83.44 118.333 83.452 118.141 83.404C117.925 83.356 117.757 83.272 117.637 83.152C117.493 83.032 117.457 82.9 117.529 82.756C117.601 82.468 117.757 82.06 117.997 81.532C118.213 81.004 118.489 80.404 118.825 79.732C119.137 79.036 119.485 78.304 119.869 77.536C120.253 76.744 120.661 75.964 121.093 75.196C121.261 74.908 121.513 74.716 121.849 74.62C122.209 74.5 122.557 74.452 122.893 74.476C123.253 74.5 123.529 74.584 123.721 74.728C123.937 74.848 123.985 75.004 123.865 75.196C123.409 75.94 123.001 76.6 122.641 77.176C122.305 77.728 121.957 78.316 121.597 78.94C121.333 79.372 121.405 79.432 121.813 79.12C122.341 78.688 122.857 78.268 123.361 77.86C123.865 77.452 124.357 77.092 124.837 76.78C125.341 76.444 125.809 76.18 126.241 75.988C126.697 75.772 127.129 75.664 127.537 75.664C128.353 75.664 128.893 75.82 129.157 76.132C129.421 76.42 129.529 76.792 129.481 77.248C129.457 77.704 129.337 78.208 129.121 78.76C128.929 79.288 128.773 79.78 128.653 80.236C128.557 80.692 128.569 81.076 128.689 81.388C128.809 81.676 129.169 81.82 129.769 81.82C130.465 81.82 131.269 81.676 132.181 81.388C133.093 81.076 134.029 80.692 134.989 80.236C135.973 79.78 136.945 79.288 137.905 78.76C138.865 78.208 139.729 77.692 140.497 77.212C141.289 76.732 141.949 76.324 142.477 75.988C143.005 75.628 143.317 75.412 143.413 75.34ZM162.823 75.628C162.967 75.484 163.087 75.472 163.183 75.592C163.279 75.688 163.255 75.796 163.111 75.916C161.551 77.5 159.991 78.916 158.431 80.164C156.895 81.388 155.359 82.516 153.823 83.548C152.311 84.58 150.787 85.516 149.251 86.356C147.739 87.22 146.227 88.06 144.715 88.876C144.451 89.02 144.223 89.212 144.031 89.452C143.839 89.692 143.611 90.028 143.347 90.46C141.835 93.052 140.491 95.248 139.315 97.048C138.139 98.848 137.059 100.3 136.075 101.404C135.067 102.532 134.107 103.348 133.195 103.852C132.283 104.356 131.323 104.608 130.315 104.608C129.475 104.608 128.791 104.332 128.263 103.78C127.735 103.252 127.471 102.544 127.471 101.656C127.471 100.504 127.783 99.46 128.407 98.524C129.031 97.588 129.907 96.688 131.035 95.824C132.139 94.984 133.471 94.132 135.031 93.268C136.591 92.428 138.307 91.516 140.179 90.532C140.515 90.34 140.755 90.172 140.899 90.028C141.019 89.884 141.103 89.752 141.151 89.632C141.895 88.168 142.651 86.632 143.419 85.024C144.187 83.416 145.051 81.604 146.011 79.588C146.059 79.468 146.047 79.396 145.975 79.372C145.927 79.324 145.867 79.348 145.795 79.444C145.747 79.492 145.615 79.66 145.399 79.948C145.207 80.212 144.955 80.512 144.643 80.848C144.331 81.16 143.971 81.448 143.563 81.712C143.179 81.976 142.759 82.108 142.303 82.108C141.583 82.108 141.055 81.928 140.719 81.568C140.359 81.184 140.179 80.728 140.179 80.2C140.155 79.648 140.287 79.048 140.575 78.4C140.863 77.752 141.271 77.164 141.799 76.636C142.327 76.084 142.951 75.628 143.671 75.268C144.415 74.884 145.219 74.692 146.083 74.692C146.395 74.692 146.647 74.728 146.839 74.8C147.031 74.848 147.175 74.92 147.271 75.016C147.391 75.088 147.475 75.172 147.523 75.268C147.571 75.34 147.619 75.388 147.667 75.412C147.715 75.46 147.775 75.472 147.847 75.448C147.919 75.424 147.967 75.388 147.991 75.34C148.111 75.124 148.327 74.98 148.639 74.908C148.975 74.812 149.287 74.788 149.575 74.836C149.887 74.86 150.127 74.968 150.295 75.16C150.463 75.352 150.439 75.628 150.223 75.988C149.263 78.148 148.375 80.104 147.559 81.856C146.767 83.608 145.963 85.324 145.147 87.004C144.931 87.46 144.907 87.724 145.075 87.796C145.243 87.868 145.459 87.832 145.723 87.688C147.115 86.92 148.519 86.116 149.935 85.276C151.375 84.46 152.803 83.572 154.219 82.612C155.659 81.676 157.099 80.632 158.539 79.48C159.979 78.328 161.407 77.044 162.823 75.628ZM142.519 81.64C142.735 81.64 143.035 81.484 143.419 81.172C143.827 80.836 144.235 80.44 144.643 79.984C145.075 79.504 145.483 78.988 145.867 78.436C146.275 77.86 146.587 77.344 146.803 76.888C147.019 76.408 147.115 76.012 147.091 75.7C147.091 75.364 146.911 75.196 146.551 75.196C146.215 75.196 145.819 75.364 145.363 75.7C144.931 76.012 144.499 76.408 144.067 76.888C143.659 77.344 143.275 77.86 142.915 78.436C142.555 78.988 142.279 79.504 142.087 79.984C141.895 80.44 141.823 80.836 141.871 81.172C141.919 81.484 142.135 81.64 142.519 81.64ZM130.315 104.176C131.395 104.176 132.739 103.156 134.347 101.116C135.931 99.1 137.695 96.196 139.639 92.404C139.807 92.068 139.867 91.828 139.819 91.684C139.747 91.54 139.459 91.6 138.955 91.864C137.347 92.704 135.883 93.496 134.563 94.24C133.219 94.984 132.067 95.728 131.107 96.472C130.147 97.24 129.403 98.032 128.875 98.848C128.347 99.688 128.083 100.624 128.083 101.656C128.083 102.424 128.287 103.036 128.695 103.492C129.079 103.948 129.619 104.176 130.315 104.176ZM35.1182 125.556C35.3102 125.436 35.4302 125.424 35.4782 125.52C35.5262 125.616 35.4662 125.724 35.2982 125.844C35.1782 125.916 34.7942 126.204 34.1462 126.708C33.5222 127.188 32.7302 127.776 31.7702 128.472C30.8342 129.144 29.7782 129.876 28.6022 130.668C27.4502 131.436 26.2982 132.156 25.1462 132.828C23.9942 133.5 22.9022 134.052 21.8702 134.484C20.8382 134.916 19.9622 135.132 19.2422 135.132C18.2102 135.132 17.5382 134.88 17.2262 134.376C16.9142 133.896 16.8062 133.284 16.9022 132.54C16.9982 131.796 17.2262 130.992 17.5862 130.128C17.9702 129.24 18.3182 128.424 18.6302 127.68C18.9662 126.936 19.1942 126.324 19.3142 125.844C19.4342 125.34 19.3142 125.088 18.9542 125.088C18.3542 125.088 17.7422 125.34 17.1182 125.844C16.5182 126.324 15.9182 126.912 15.3182 127.608C14.7182 128.304 14.1182 129.036 13.5182 129.804C12.9422 130.548 12.3782 131.196 11.8262 131.748C11.4902 132.084 11.1662 132.3 10.8542 132.396C10.5422 132.492 10.2662 132.504 10.0262 132.432C9.7862 132.384 9.6062 132.276 9.4862 132.108C9.3662 131.94 9.3182 131.784 9.3422 131.64C9.4142 131.208 9.5582 130.68 9.7742 130.056C10.0142 129.432 10.2302 128.832 10.4222 128.256C10.6142 127.68 10.7342 127.188 10.7822 126.78C10.8542 126.372 10.7462 126.168 10.4582 126.168C10.0502 126.168 9.4622 126.408 8.6942 126.888C7.9262 127.368 7.1342 127.968 6.3182 128.688C5.5022 129.384 4.7342 130.128 4.0142 130.92C3.2942 131.688 2.7782 132.372 2.4662 132.972C2.3462 133.188 2.1902 133.32 1.9982 133.368C1.7822 133.44 1.5782 133.452 1.3862 133.404C1.1702 133.356 1.0022 133.272 0.882203 133.152C0.738203 133.032 0.702203 132.9 0.774203 132.756C0.846203 132.468 1.0022 132.06 1.2422 131.532C1.4582 130.98 1.7222 130.368 2.0342 129.696C2.3462 129 2.7062 128.268 3.1142 127.5C3.4982 126.732 3.9062 125.964 4.3382 125.196C4.5062 124.908 4.7582 124.716 5.0942 124.62C5.4542 124.5 5.8022 124.452 6.1382 124.476C6.4982 124.5 6.7742 124.584 6.9662 124.728C7.1822 124.848 7.2302 125.004 7.1102 125.196C6.6302 125.964 6.1622 126.732 5.7062 127.5C5.2502 128.244 4.8302 128.928 4.4462 129.552C4.3742 129.672 4.3502 129.756 4.3742 129.804C4.4222 129.828 4.5062 129.78 4.6262 129.66C5.0582 129.228 5.5502 128.772 6.1022 128.292C6.6542 127.812 7.2062 127.38 7.7582 126.996C8.3342 126.588 8.8742 126.264 9.3782 126.024C9.8822 125.76 10.3142 125.628 10.6742 125.628C11.2502 125.628 11.6702 125.724 11.9342 125.916C12.2222 126.108 12.4022 126.372 12.4742 126.708C12.5462 127.02 12.5462 127.38 12.4742 127.788C12.4022 128.196 12.3182 128.616 12.2222 129.048C12.1022 129.504 12.1262 129.78 12.2942 129.876C12.4862 129.972 12.7382 129.852 13.0502 129.516C13.5782 128.94 14.0942 128.352 14.5982 127.752C15.1262 127.152 15.6302 126.624 16.1102 126.168C16.6142 125.688 17.0942 125.304 17.5502 125.016C18.0302 124.704 18.4982 124.548 18.9542 124.548C19.7942 124.548 20.3942 124.692 20.7542 124.98C21.1142 125.268 21.3182 125.652 21.3662 126.132C21.4382 126.612 21.3782 127.164 21.1862 127.788C20.9942 128.388 20.7542 129 20.4662 129.624C20.1782 130.248 19.8782 130.872 19.5662 131.496C19.2782 132.096 19.0382 132.636 18.8462 133.116C18.6782 133.596 18.6062 133.98 18.6302 134.268C18.6542 134.556 18.8582 134.7 19.2422 134.7C19.9382 134.7 20.7902 134.484 21.7982 134.052C22.8302 133.62 23.9102 133.08 25.0382 132.432C26.1902 131.784 27.3422 131.076 28.4942 130.308C29.6462 129.54 30.6902 128.82 31.6262 128.148C32.5862 127.452 33.3782 126.864 34.0022 126.384C34.6502 125.904 35.0222 125.628 35.1182 125.556ZM39.8109 125.556C39.9069 125.556 39.9909 125.496 40.0629 125.376C40.1349 125.232 40.2789 125.112 40.4949 125.016C40.6149 124.968 40.8069 124.932 41.0709 124.908C41.3589 124.884 41.6229 124.896 41.8629 124.944C42.1269 124.968 42.3309 125.04 42.4749 125.16C42.6189 125.256 42.6309 125.388 42.5109 125.556C42.4149 125.7 42.2229 126.012 41.9349 126.492C41.6709 126.972 41.3829 127.536 41.0709 128.184C40.7829 128.808 40.5069 129.468 40.2429 130.164C40.0029 130.86 39.8469 131.496 39.7749 132.072C39.7269 132.648 39.8109 133.128 40.0269 133.512C40.2429 133.896 40.6629 134.088 41.2869 134.088C42.5109 134.088 43.7709 133.812 45.0669 133.26C46.3629 132.708 47.7309 132.012 49.1709 131.172C50.6349 130.332 52.1709 129.408 53.7789 128.4C55.4109 127.392 57.1509 126.42 58.9989 125.484C59.0949 125.436 59.1669 125.448 59.2149 125.52C59.2869 125.592 59.2869 125.652 59.2149 125.7C57.3429 126.708 55.5789 127.74 53.9229 128.796C52.2669 129.828 50.6949 130.776 49.2069 131.64C47.7429 132.48 46.3509 133.164 45.0309 133.692C43.7109 134.22 42.4389 134.484 41.2149 134.484C40.2789 134.484 39.5709 134.292 39.0909 133.908C38.6109 133.524 38.2749 133.056 38.0829 132.504C37.9149 131.976 37.8429 131.424 37.8669 130.848C37.9149 130.272 37.9869 129.792 38.0829 129.408C38.1069 129.336 38.1069 129.264 38.0829 129.192C38.0589 129.12 37.9869 129.144 37.8669 129.264C37.8189 129.312 37.6869 129.492 37.4709 129.804C37.2789 130.092 37.0269 130.416 36.7149 130.776C36.4029 131.112 36.0429 131.424 35.6349 131.712C35.2269 131.976 34.7949 132.108 34.3389 132.108C33.6189 132.108 33.0909 131.928 32.7549 131.568C32.3949 131.184 32.2149 130.728 32.2149 130.2C32.1909 129.648 32.3229 129.048 32.6109 128.4C32.8989 127.752 33.3069 127.164 33.8349 126.636C34.3629 126.084 34.9869 125.628 35.7069 125.268C36.4509 124.884 37.2549 124.692 38.1189 124.692C38.4789 124.692 38.7549 124.74 38.9469 124.836C39.1629 124.932 39.3309 125.04 39.4509 125.16C39.5709 125.256 39.6549 125.352 39.7029 125.448C39.7509 125.52 39.7869 125.556 39.8109 125.556ZM38.5869 125.196C38.2509 125.196 37.8549 125.364 37.3989 125.7C36.9669 126.012 36.5349 126.408 36.1029 126.888C35.6949 127.344 35.3109 127.86 34.9509 128.436C34.5909 128.988 34.3149 129.504 34.1229 129.984C33.9309 130.44 33.8589 130.836 33.9069 131.172C33.9549 131.484 34.1709 131.64 34.5549 131.64C34.7709 131.64 35.0709 131.484 35.4549 131.172C35.8629 130.836 36.2709 130.44 36.6789 129.984C37.1109 129.504 37.5189 128.988 37.9029 128.436C38.3109 127.86 38.6229 127.344 38.8389 126.888C39.0549 126.408 39.1509 126.012 39.1269 125.7C39.1269 125.364 38.9469 125.196 38.5869 125.196ZM82.2605 125.484C82.3565 125.436 82.4285 125.448 82.4765 125.52C82.5485 125.592 82.5485 125.652 82.4765 125.7C80.5565 126.66 78.7685 127.656 77.1125 128.688C75.4565 129.72 73.8965 130.668 72.4325 131.532C70.9685 132.396 69.5765 133.104 68.2565 133.656C66.9605 134.208 65.7005 134.484 64.4765 134.484C63.4925 134.484 62.7245 134.256 62.1725 133.8C61.6445 133.368 61.3085 132.78 61.1645 132.036C61.0205 131.316 61.0685 130.488 61.3085 129.552C61.5485 128.592 61.9685 127.62 62.5685 126.636C62.6645 126.516 62.6765 126.408 62.6045 126.312C62.5325 126.216 62.4245 126.192 62.2805 126.24C62.0165 126.336 61.7525 126.42 61.4885 126.492C61.2245 126.54 60.9365 126.564 60.6245 126.564C60.2165 126.564 59.7605 126.504 59.2565 126.384C58.7765 126.264 58.3685 126.048 58.0325 125.736C57.6965 125.4 57.5045 124.968 57.4565 124.44C57.4085 123.888 57.6365 123.192 58.1405 122.352C58.2845 122.136 58.5245 121.992 58.8605 121.92C59.1725 121.848 59.4845 121.836 59.7965 121.884C60.1085 121.932 60.3605 122.028 60.5525 122.172C60.7685 122.316 60.8285 122.484 60.7325 122.676C60.6125 122.892 60.4685 123.192 60.3005 123.576C60.1325 123.96 60.0005 124.344 59.9045 124.728C59.8325 125.088 59.8445 125.412 59.9405 125.7C60.0365 125.988 60.3005 126.132 60.7325 126.132C61.3565 126.132 61.9325 126.024 62.4605 125.808C62.9885 125.592 63.4085 125.328 63.7205 125.016C63.8645 124.92 64.0685 124.872 64.3325 124.872C64.5965 124.848 64.8365 124.872 65.0525 124.944C65.2925 124.992 65.4725 125.076 65.5925 125.196C65.7365 125.316 65.7605 125.46 65.6645 125.628C65.5685 125.772 65.3885 126.084 65.1245 126.564C64.8605 127.044 64.5845 127.596 64.2965 128.22C64.0085 128.844 63.7325 129.504 63.4685 130.2C63.2285 130.896 63.0845 131.532 63.0365 132.108C62.9885 132.684 63.0725 133.152 63.2885 133.512C63.5045 133.896 63.9245 134.088 64.5485 134.088C65.7725 134.088 67.0445 133.788 68.3645 133.188C69.6845 132.612 71.0645 131.892 72.5045 131.028C73.9685 130.164 75.5045 129.24 77.1125 128.256C78.7445 127.248 80.4605 126.324 82.2605 125.484ZM105.428 125.484C105.524 125.436 105.596 125.448 105.644 125.52C105.716 125.592 105.716 125.652 105.644 125.7C103.724 126.66 101.936 127.656 100.28 128.688C98.6245 129.72 97.0645 130.668 95.6005 131.532C94.1365 132.396 92.7445 133.104 91.4245 133.656C90.1285 134.208 88.8685 134.484 87.6445 134.484C86.6605 134.484 85.8925 134.256 85.3405 133.8C84.8125 133.368 84.4765 132.78 84.3325 132.036C84.1885 131.316 84.2365 130.488 84.4765 129.552C84.7165 128.592 85.1365 127.62 85.7365 126.636C85.8325 126.516 85.8445 126.408 85.7725 126.312C85.7005 126.216 85.5925 126.192 85.4485 126.24C85.1845 126.336 84.9205 126.42 84.6565 126.492C84.3925 126.54 84.1045 126.564 83.7925 126.564C83.3845 126.564 82.9285 126.504 82.4245 126.384C81.9445 126.264 81.5365 126.048 81.2005 125.736C80.8645 125.4 80.6725 124.968 80.6245 124.44C80.5765 123.888 80.8045 123.192 81.3085 122.352C81.4525 122.136 81.6925 121.992 82.0285 121.92C82.3405 121.848 82.6525 121.836 82.9645 121.884C83.2765 121.932 83.5285 122.028 83.7205 122.172C83.9365 122.316 83.9965 122.484 83.9005 122.676C83.7805 122.892 83.6365 123.192 83.4685 123.576C83.3005 123.96 83.1685 124.344 83.0725 124.728C83.0005 125.088 83.0125 125.412 83.1085 125.7C83.2045 125.988 83.4685 126.132 83.9005 126.132C84.5245 126.132 85.1005 126.024 85.6285 125.808C86.1565 125.592 86.5765 125.328 86.8885 125.016C87.0325 124.92 87.2365 124.872 87.5005 124.872C87.7645 124.848 88.0045 124.872 88.2205 124.944C88.4605 124.992 88.6405 125.076 88.7605 125.196C88.9045 125.316 88.9285 125.46 88.8325 125.628C88.7365 125.772 88.5565 126.084 88.2925 126.564C88.0285 127.044 87.7525 127.596 87.4645 128.22C87.1765 128.844 86.9005 129.504 86.6365 130.2C86.3965 130.896 86.2525 131.532 86.2045 132.108C86.1565 132.684 86.2405 133.152 86.4565 133.512C86.6725 133.896 87.0925 134.088 87.7165 134.088C88.9405 134.088 90.2125 133.788 91.5325 133.188C92.8525 132.612 94.2325 131.892 95.6725 131.028C97.1365 130.164 98.6725 129.24 100.28 128.256C101.912 127.248 103.628 126.324 105.428 125.484ZM107.248 123.72C106.888 123.72 106.708 123.552 106.708 123.216C106.708 122.88 106.888 122.712 107.248 122.712C107.584 122.712 107.752 122.88 107.752 123.216C107.752 123.552 107.584 123.72 107.248 123.72ZM105.268 125.412C105.364 125.292 105.544 125.22 105.808 125.196C106.072 125.172 106.336 125.184 106.6 125.232C106.864 125.28 107.068 125.376 107.212 125.52C107.38 125.64 107.404 125.784 107.284 125.952C107.188 126.096 107.008 126.408 106.744 126.888C106.504 127.344 106.24 127.872 105.952 128.472C105.688 129.072 105.448 129.708 105.232 130.38C105.016 131.028 104.896 131.628 104.872 132.18C104.824 132.732 104.92 133.188 105.16 133.548C105.376 133.908 105.796 134.088 106.42 134.088C107.644 134.088 108.904 133.812 110.2 133.26C111.496 132.708 112.864 132.012 114.304 131.172C115.768 130.332 117.304 129.408 118.912 128.4C120.544 127.392 122.284 126.42 124.132 125.484C124.228 125.436 124.3 125.448 124.348 125.52C124.42 125.592 124.42 125.652 124.348 125.7C122.476 126.708 120.712 127.74 119.056 128.796C117.4 129.828 115.828 130.776 114.34 131.64C112.876 132.48 111.484 133.164 110.164 133.692C108.844 134.22 107.572 134.484 106.348 134.484C105.244 134.484 104.404 134.22 103.828 133.692C103.252 133.164 102.928 132.468 102.856 131.604C102.784 130.74 102.952 129.768 103.36 128.688C103.768 127.608 104.404 126.516 105.268 125.412ZM145.104 125.484C145.248 125.412 145.368 125.412 145.464 125.484C145.584 125.556 145.548 125.652 145.356 125.772C142.716 127.092 140.388 128.196 138.372 129.084C136.356 129.972 134.592 130.692 133.08 131.244C131.568 131.772 130.284 132.144 129.228 132.36C128.196 132.6 127.332 132.72 126.636 132.72C125.196 132.72 124.116 132.492 123.396 132.036C122.652 131.604 122.184 131.052 121.992 130.38C121.8 129.708 121.86 128.988 122.172 128.22C122.46 127.428 122.904 126.696 123.504 126.024C124.104 125.352 124.812 124.8 125.628 124.368C126.468 123.912 127.344 123.684 128.256 123.684C128.976 123.684 129.552 123.84 129.984 124.152C130.416 124.464 130.704 124.848 130.848 125.304C130.992 125.76 130.968 126.252 130.776 126.78C130.608 127.284 130.272 127.74 129.768 128.148C129.288 128.556 128.616 128.868 127.752 129.084C126.912 129.276 125.892 129.3 124.692 129.156C124.452 129.156 124.32 129.24 124.296 129.408C124.104 130.176 124.188 130.824 124.548 131.352C124.908 131.88 125.7 132.144 126.924 132.144C127.5 132.144 128.244 132.06 129.156 131.892C130.092 131.7 131.268 131.364 132.684 130.884C134.124 130.38 135.852 129.696 137.868 128.832C139.884 127.968 142.296 126.852 145.104 125.484ZM129.408 124.296C129.024 124.296 128.616 124.416 128.184 124.656C127.752 124.872 127.32 125.16 126.888 125.52C126.456 125.88 126.048 126.3 125.664 126.78C125.304 127.236 125.004 127.704 124.764 128.184C124.74 128.232 124.728 128.28 124.728 128.328C124.728 128.376 124.764 128.412 124.836 128.436C124.908 128.46 125.04 128.472 125.232 128.472C125.424 128.472 125.688 128.448 126.024 128.4C127.248 128.208 128.172 127.896 128.796 127.464C129.444 127.008 129.864 126.552 130.056 126.096C130.272 125.616 130.308 125.196 130.164 124.836C130.02 124.476 129.768 124.296 129.408 124.296ZM174.981 125.556C175.293 125.34 175.485 125.292 175.557 125.412C175.653 125.532 175.605 125.652 175.413 125.772C173.133 127.26 171.021 128.688 169.077 130.056C167.157 131.4 165.357 132.588 163.677 133.62C162.021 134.652 160.473 135.468 159.033 136.068C157.617 136.692 156.297 137.004 155.073 137.004C153.729 137.004 152.673 136.752 151.905 136.248C151.161 135.768 150.645 135.108 150.357 134.268C150.093 133.452 150.021 132.504 150.141 131.424C150.285 130.344 150.573 129.204 151.005 128.004C151.053 127.884 151.053 127.8 151.005 127.752C150.957 127.704 150.897 127.728 150.825 127.824C149.721 129.456 148.689 130.656 147.729 131.424C146.793 132.168 145.941 132.54 145.173 132.54C144.285 132.54 143.649 132.324 143.265 131.892C142.857 131.46 142.665 130.92 142.689 130.272C142.689 129.6 142.869 128.88 143.229 128.112C143.589 127.344 144.081 126.636 144.705 125.988C145.305 125.316 146.001 124.764 146.793 124.332C147.609 123.9 148.473 123.684 149.385 123.684C150.153 123.684 150.717 123.84 151.077 124.152C151.437 124.44 151.689 124.728 151.833 125.016C151.881 125.136 151.941 125.208 152.013 125.232C152.109 125.232 152.205 125.136 152.301 124.944C153.021 123.48 153.849 122.004 154.785 120.516C155.721 119.004 156.705 117.552 157.737 116.16C158.793 114.768 159.861 113.472 160.941 112.272C162.045 111.048 163.113 109.98 164.145 109.068C165.201 108.156 166.185 107.448 167.097 106.944C168.009 106.416 168.801 106.152 169.473 106.152C170.025 106.152 170.445 106.26 170.733 106.476C171.021 106.668 171.165 107.052 171.165 107.628C171.165 108.276 170.901 109.116 170.373 110.148C169.845 111.18 169.149 112.284 168.285 113.46C167.421 114.612 166.437 115.788 165.333 116.988C164.253 118.164 163.149 119.256 162.021 120.264C160.917 121.248 159.849 122.088 158.817 122.784C157.785 123.48 156.885 123.912 156.117 124.08C155.925 124.128 155.769 124.2 155.649 124.296C155.553 124.392 155.469 124.5 155.397 124.62C154.533 126.276 153.813 127.836 153.237 129.3C152.661 130.74 152.313 132 152.193 133.08C152.097 134.16 152.265 135.012 152.697 135.636C153.129 136.284 153.921 136.608 155.073 136.608C156.153 136.608 157.353 136.332 158.673 135.78C160.017 135.228 161.505 134.46 163.137 133.476C164.793 132.516 166.605 131.364 168.573 130.02C170.541 128.652 172.677 127.164 174.981 125.556ZM170.193 106.908C169.617 106.908 168.789 107.388 167.709 108.348C166.629 109.308 165.429 110.556 164.109 112.092C162.789 113.628 161.433 115.368 160.041 117.312C158.673 119.232 157.413 121.176 156.261 123.144C156.213 123.264 156.285 123.348 156.477 123.396C156.669 123.42 156.885 123.384 157.125 123.288C158.109 122.856 159.189 122.16 160.365 121.2C161.565 120.216 162.741 119.112 163.893 117.888C165.069 116.664 166.161 115.416 167.169 114.144C168.177 112.848 168.993 111.66 169.617 110.58C170.265 109.5 170.661 108.624 170.805 107.952C170.949 107.256 170.745 106.908 170.193 106.908ZM145.461 132.144C146.109 132.144 146.961 131.664 148.017 130.704C149.097 129.72 150.249 128.196 151.473 126.132C151.593 125.676 151.545 125.256 151.329 124.872C151.137 124.488 150.873 124.296 150.537 124.296C150.033 124.296 149.493 124.488 148.917 124.872C148.341 125.256 147.777 125.748 147.225 126.348C146.697 126.924 146.217 127.548 145.785 128.22C145.353 128.892 145.041 129.528 144.849 130.128C144.633 130.704 144.561 131.184 144.633 131.568C144.705 131.952 144.981 132.144 145.461 132.144Z" fill="white"/>
</svg>
