<svg width="51" height="36" viewBox="0 0 51 36" fill="none" xmlns="http://www.w3.org/2000/svg">
<path d="M4.73727 32.755C4.06993 32.755 3.51527 32.6163 3.07327 32.339C2.63993 32.0703 2.31493 31.728 2.09827 31.312C1.8816 30.896 1.77327 30.4713 1.77327 30.038C1.77327 29.6307 1.85993 29.2493 2.03327 28.894C2.21527 28.53 2.4666 28.2397 2.78727 28.023C2.9086 27.945 3.03427 27.8843 3.16427 27.841C3.30293 27.789 3.43727 27.763 3.56727 27.763C3.73193 27.763 3.88793 27.8063 4.03527 27.893C4.1826 27.971 4.2996 28.101 4.38627 28.283C4.4036 28.3177 4.41227 28.3653 4.41227 28.426C4.41227 28.4867 4.39493 28.5387 4.36027 28.582C4.3256 28.6253 4.2866 28.647 4.24327 28.647C4.19127 28.647 4.1436 28.608 4.10027 28.53C3.99627 28.322 3.82293 28.218 3.58027 28.218C3.37227 28.218 3.1686 28.2917 2.96927 28.439C2.7786 28.595 2.6096 28.8117 2.46227 29.089C2.31493 29.3577 2.24127 29.6697 2.24127 30.025C2.24127 30.389 2.31927 30.7443 2.47527 31.091C2.63993 31.4377 2.90427 31.7237 3.26827 31.949C3.64093 32.1743 4.1306 32.287 4.73727 32.287C5.34393 32.287 5.89427 32.144 6.38827 31.858C6.88227 31.572 7.32427 31.195 7.71427 30.727C8.11293 30.2503 8.4726 29.7217 8.79327 29.141C9.1226 28.5517 9.4216 27.9537 9.69027 27.347C9.95893 26.7403 10.2146 26.1683 10.4573 25.631C10.6913 25.1023 10.9253 24.6387 11.1593 24.24C10.7173 24.292 10.2709 24.357 9.82027 24.435C9.37827 24.5043 8.94927 24.6257 8.53327 24.799C7.96127 25.0417 7.48893 25.319 7.11627 25.631C6.75227 25.9343 6.47493 26.242 6.28427 26.554C6.10227 26.866 5.99393 27.152 5.95927 27.412C5.9506 27.4553 5.94627 27.4987 5.94627 27.542C5.94627 27.5853 5.94627 27.6287 5.94627 27.672C5.94627 27.984 6.0156 28.2093 6.15427 28.348C6.3016 28.4867 6.47927 28.556 6.68727 28.556C6.87793 28.556 7.0816 28.504 7.29827 28.4C7.51493 28.296 7.71427 28.153 7.89627 27.971C8.0176 27.8497 8.1606 27.6677 8.32527 27.425C8.48993 27.1823 8.57227 26.9267 8.57227 26.658C8.57227 26.502 8.53327 26.3547 8.45527 26.216C8.4206 26.1553 8.40327 26.0947 8.40327 26.034C8.40327 25.9733 8.42493 25.9257 8.46827 25.891C8.5116 25.8563 8.55927 25.839 8.61127 25.839C8.6806 25.839 8.74127 25.8693 8.79327 25.93C8.84527 26.008 8.9016 26.1033 8.96227 26.216C9.02293 26.3287 9.04027 26.5063 9.01427 26.749C8.97093 27.2083 8.8236 27.607 8.57227 27.945C8.32093 28.283 8.0176 28.5473 7.66227 28.738C7.3156 28.92 6.9776 29.011 6.64827 29.011C6.3276 29.011 6.05027 28.907 5.81627 28.699C5.58227 28.491 5.46527 28.1573 5.46527 27.698C5.46527 27.646 5.46527 27.594 5.46527 27.542C5.47393 27.4813 5.4826 27.4207 5.49127 27.36C5.5606 26.8573 5.82927 26.333 6.29727 25.787C6.76527 25.2323 7.44993 24.76 8.35127 24.37C8.87127 24.1533 9.40427 24.006 9.95027 23.928C10.4963 23.85 11.0423 23.7763 11.5883 23.707C11.7269 23.577 11.8699 23.4773 12.0173 23.408C12.1646 23.33 12.3119 23.291 12.4593 23.291C12.5806 23.291 12.6759 23.3213 12.7453 23.382C12.8146 23.4427 12.8493 23.5163 12.8493 23.603C12.8493 23.707 12.7799 23.8153 12.6413 23.928C12.5113 24.032 12.2816 24.1057 11.9523 24.149C11.9089 24.1577 11.8613 24.162 11.8093 24.162C11.6446 24.37 11.4756 24.63 11.3023 24.942C11.1376 25.254 10.9773 25.579 10.8213 25.917C10.5613 26.4977 10.2883 27.1043 10.0023 27.737C9.72493 28.3697 9.41727 28.985 9.07927 29.583C8.74127 30.1723 8.36427 30.7053 7.94827 31.182C7.53227 31.6673 7.05993 32.0487 6.53127 32.326C6.0026 32.612 5.4046 32.755 4.73727 32.755ZM11.5972 31.299C11.5365 31.299 11.4802 31.2773 11.4282 31.234C11.3762 31.1907 11.3502 31.1387 11.3502 31.078C11.3502 31.0607 11.3589 31.026 11.3762 30.974C11.5495 30.6013 11.7185 30.2633 11.8832 29.96C12.0565 29.648 12.2342 29.3447 12.4162 29.05C12.4942 28.9287 12.5809 28.7727 12.6762 28.582C12.7802 28.3827 12.8799 28.1703 12.9752 27.945C13.0705 27.711 13.1485 27.49 13.2092 27.282C13.2785 27.074 13.3132 26.905 13.3132 26.775C13.3132 26.7057 13.3089 26.658 13.3002 26.632C13.2915 26.6233 13.2872 26.606 13.2872 26.58C13.2872 26.5107 13.3175 26.4543 13.3782 26.411C13.4475 26.359 13.5125 26.333 13.5732 26.333C13.6425 26.333 13.7075 26.3677 13.7682 26.437C13.8289 26.4977 13.8592 26.606 13.8592 26.762C13.8592 26.892 13.8289 27.0653 13.7682 27.282C13.7162 27.49 13.6252 27.7413 13.4952 28.036C13.4259 28.1833 13.3609 28.322 13.3002 28.452C13.2395 28.5733 13.1789 28.6903 13.1182 28.803C13.4562 28.4477 13.8029 28.1313 14.1582 27.854C14.5135 27.568 14.8299 27.3427 15.1072 27.178C15.3845 27.0133 15.5709 26.931 15.6662 26.931C15.7702 26.931 15.8439 26.9613 15.8872 27.022C15.9305 27.0827 15.9522 27.152 15.9522 27.23C15.9522 27.3427 15.9175 27.4727 15.8482 27.62C15.7875 27.7587 15.7225 27.8843 15.6532 27.997C15.5839 28.1097 15.5362 28.1877 15.5102 28.231C15.4149 28.3783 15.2849 28.5993 15.1202 28.894C14.9555 29.1887 14.8169 29.4747 14.7042 29.752C14.6695 29.8473 14.6349 29.947 14.6002 30.051C14.5742 30.1463 14.5612 30.2287 14.5612 30.298C14.5612 30.4107 14.6089 30.467 14.7042 30.467C14.7909 30.467 14.9165 30.4237 15.0812 30.337C15.2892 30.2243 15.4799 30.0813 15.6532 29.908C15.8352 29.726 15.9912 29.57 16.1212 29.44C16.1299 29.4313 16.1689 29.388 16.2382 29.31C16.3162 29.232 16.3899 29.154 16.4592 29.076C16.5372 28.998 16.5762 28.959 16.5762 28.959C16.6109 28.9157 16.6542 28.894 16.7062 28.894C16.7495 28.894 16.7885 28.92 16.8232 28.972C16.8665 29.0153 16.8882 29.0717 16.8882 29.141C16.8882 29.219 16.8665 29.284 16.8232 29.336C16.6932 29.518 16.5155 29.7173 16.2902 29.934C16.0649 30.1507 15.8655 30.3283 15.6922 30.467C15.5102 30.6057 15.3239 30.7183 15.1332 30.805C14.9512 30.883 14.7692 30.922 14.5872 30.922C14.4312 30.922 14.3012 30.8917 14.1972 30.831C14.0932 30.7703 14.0412 30.61 14.0412 30.35C14.0412 30.0207 14.1235 29.6957 14.2882 29.375C14.4615 29.0543 14.6522 28.738 14.8602 28.426C15.0769 28.114 15.2545 27.8193 15.3932 27.542C15.1765 27.672 14.8862 27.8713 14.5222 28.14C14.1669 28.4087 13.7899 28.725 13.3912 29.089C13.0012 29.4443 12.6459 29.8343 12.3252 30.259C12.2645 30.3717 12.1995 30.493 12.1302 30.623C12.0609 30.753 11.9915 30.896 11.9222 31.052C11.8442 31.2167 11.7359 31.299 11.5972 31.299ZM15.2783 35.901C14.9923 35.901 14.7887 35.8143 14.6673 35.641C14.5373 35.4677 14.4723 35.2337 14.4723 34.939C14.4723 34.7223 14.507 34.4623 14.5763 34.159C14.7237 33.5697 14.9143 32.9977 15.1483 32.443C15.3737 31.897 15.625 31.3553 15.9023 30.818C16.1797 30.298 16.4743 29.7217 16.7863 29.089C17.107 28.4563 17.445 27.815 17.8003 27.165C18.1643 26.515 18.5413 25.9083 18.9313 25.345C19.0613 25.163 19.2173 24.9463 19.3993 24.695C19.59 24.435 19.8023 24.1793 20.0363 23.928C20.279 23.6767 20.539 23.4687 20.8163 23.304C21.0937 23.1307 21.3797 23.044 21.6743 23.044C21.917 23.044 22.086 23.096 22.1813 23.2C22.2853 23.304 22.3373 23.4427 22.3373 23.616C22.3373 23.7807 22.2983 23.9713 22.2203 24.188C22.1423 24.4047 22.0383 24.63 21.9083 24.864C21.709 25.2107 21.4403 25.592 21.1023 26.008C20.773 26.4153 20.396 26.8183 19.9713 27.217C19.5553 27.607 19.122 27.9623 18.6713 28.283C18.2293 28.595 17.8003 28.829 17.3843 28.985C17.2283 29.2883 17.0723 29.5917 16.9163 29.895C16.769 30.1983 16.626 30.4973 16.4873 30.792C16.7127 30.6533 16.9597 30.5407 17.2283 30.454C17.5057 30.3673 17.77 30.324 18.0213 30.324C18.3247 30.324 18.5847 30.4107 18.8013 30.584C19.0267 30.7487 19.1393 31.0477 19.1393 31.481C19.1393 31.8103 19.0657 32.1743 18.9183 32.573C18.7797 32.9717 18.5847 33.366 18.3333 33.756C18.082 34.146 17.7917 34.5013 17.4623 34.822C17.133 35.1513 16.782 35.4113 16.4093 35.602C16.0367 35.8013 15.6597 35.901 15.2783 35.901ZM19.1263 25.995C18.8923 26.333 18.6583 26.7013 18.4243 27.1C18.1903 27.4987 17.9607 27.9103 17.7353 28.335C18.0907 28.1357 18.4503 27.8887 18.8143 27.594C19.187 27.2993 19.5423 26.9787 19.8803 26.632C20.227 26.2853 20.539 25.9343 20.8163 25.579C21.0937 25.2237 21.3233 24.8813 21.5053 24.552C21.7133 24.188 21.8173 23.9107 21.8173 23.72C21.8173 23.5727 21.748 23.499 21.6093 23.499C21.4013 23.499 21.176 23.5987 20.9333 23.798C20.6993 23.9887 20.4653 24.227 20.2313 24.513C19.9973 24.7903 19.7807 25.0677 19.5813 25.345C19.3907 25.6137 19.239 25.8303 19.1263 25.995ZM15.0053 34.913C15.0053 35.0777 15.0357 35.2077 15.0963 35.303C15.157 35.407 15.2567 35.459 15.3953 35.459C15.664 35.459 15.9457 35.3637 16.2403 35.173C16.535 34.991 16.821 34.7483 17.0983 34.445C17.3843 34.1503 17.64 33.8253 17.8653 33.47C18.0907 33.1147 18.2683 32.7637 18.3983 32.417C18.537 32.079 18.6063 31.7757 18.6063 31.507C18.6063 31.2557 18.5327 31.0823 18.3853 30.987C18.2467 30.883 18.069 30.831 17.8523 30.831C17.6443 30.831 17.4277 30.8657 17.2023 30.935C16.977 31.0043 16.7647 31.091 16.5653 31.195C16.3747 31.299 16.2273 31.403 16.1233 31.507C15.9327 31.897 15.742 32.3217 15.5513 32.781C15.3607 33.249 15.2047 33.756 15.0833 34.302C15.0313 34.5187 15.0053 34.7223 15.0053 34.913ZM20.6542 31.221C20.3596 31.221 20.1516 31.1387 20.0302 30.974C19.9089 30.8007 19.8482 30.5883 19.8482 30.337C19.8482 30.129 19.8786 29.9037 19.9392 29.661C20.0086 29.4097 20.0952 29.1627 20.1992 28.92C20.2079 28.582 20.2989 28.2483 20.4722 27.919C20.6542 27.5897 20.8969 27.3167 21.2002 27.1C21.5122 26.8833 21.8762 26.775 22.2922 26.775C22.6996 26.775 22.9812 26.892 23.1372 27.126C23.3019 27.36 23.3842 27.6373 23.3842 27.958C23.3842 28.1487 23.3626 28.3437 23.3192 28.543C23.2759 28.7337 23.2196 28.9157 23.1502 29.089C23.0809 29.2623 22.9942 29.44 22.8902 29.622C22.7862 29.7953 22.6692 29.9687 22.5392 30.142C22.7992 30.0987 23.0246 30.0163 23.2152 29.895C23.4146 29.765 23.6139 29.5873 23.8132 29.362C24.0126 29.1367 24.2466 28.8507 24.5152 28.504C24.5672 28.4433 24.6236 28.413 24.6842 28.413C24.7536 28.413 24.8099 28.4347 24.8532 28.478C24.9052 28.5213 24.9312 28.5777 24.9312 28.647C24.9312 28.699 24.9139 28.7467 24.8792 28.79C24.6279 29.1367 24.3722 29.4487 24.1122 29.726C23.8609 30.0033 23.5749 30.22 23.2542 30.376C22.9336 30.532 22.5479 30.61 22.0972 30.61C21.8892 30.792 21.6639 30.9393 21.4212 31.052C21.1786 31.1647 20.9229 31.221 20.6542 31.221ZM21.4082 27.854C21.3042 27.932 21.1786 28.088 21.0312 28.322C20.8839 28.556 20.7496 28.8117 20.6282 29.089C20.6456 29.3577 20.7539 29.6003 20.9532 29.817C21.1612 30.025 21.4776 30.142 21.9022 30.168C22.2142 29.8647 22.4656 29.5093 22.6562 29.102C22.8469 28.686 22.9422 28.3133 22.9422 27.984C22.9422 27.7587 22.8902 27.5767 22.7862 27.438C22.6822 27.2993 22.5176 27.23 22.2922 27.23C22.1362 27.23 21.9846 27.256 21.8372 27.308C21.6899 27.36 21.5556 27.4293 21.4342 27.516C21.4776 27.5593 21.4992 27.6113 21.4992 27.672C21.4992 27.7413 21.4689 27.802 21.4082 27.854ZM20.3032 30.311C20.3032 30.4497 20.3292 30.5623 20.3812 30.649C20.4419 30.727 20.5329 30.766 20.6542 30.766C20.9056 30.766 21.1612 30.688 21.4212 30.532C21.1699 30.4713 20.9576 30.376 20.7842 30.246C20.6109 30.1073 20.4766 29.9513 20.3812 29.778C20.3292 29.986 20.3032 30.1637 20.3032 30.311ZM23.7983 31.312C23.729 31.312 23.664 31.286 23.6033 31.234C23.5426 31.1907 23.5123 31.1387 23.5123 31.078C23.5123 31.0607 23.5123 31.0433 23.5123 31.026C23.521 31.0087 23.5296 30.9913 23.5383 30.974C23.7116 30.6013 23.8763 30.2807 24.0323 30.012C24.1883 29.7433 24.314 29.5137 24.4093 29.323C24.5826 28.9937 24.704 28.7207 24.7733 28.504C24.8513 28.2873 24.8903 28.088 24.8903 27.906C24.8903 27.8453 24.8816 27.789 24.8643 27.737C24.8556 27.685 24.8513 27.6287 24.8513 27.568C24.8513 27.4467 24.886 27.3513 24.9553 27.282C25.0333 27.2127 25.1156 27.178 25.2023 27.178C25.3236 27.178 25.4016 27.2473 25.4363 27.386C25.4623 27.49 25.4753 27.607 25.4753 27.737C25.4753 27.789 25.471 27.8453 25.4623 27.906C25.4623 27.9667 25.458 28.0273 25.4493 28.088C25.5706 27.9233 25.6833 27.776 25.7873 27.646C25.8913 27.516 25.9823 27.4077 26.0603 27.321C26.225 27.1477 26.407 27.0047 26.6063 26.892C26.8143 26.7793 27.005 26.723 27.1783 26.723C27.3516 26.723 27.4946 26.788 27.6073 26.918C27.72 27.048 27.7763 27.269 27.7763 27.581C27.7763 27.7977 27.7546 28.0273 27.7113 28.27C27.668 28.5127 27.6116 28.7597 27.5423 29.011C27.811 28.7163 28.084 28.465 28.3613 28.257C28.6386 28.049 28.89 27.88 29.1153 27.75C29.4446 27.568 29.683 27.477 29.8303 27.477C29.995 27.477 30.0773 27.5723 30.0773 27.763C30.0773 27.841 30.0643 27.9407 30.0383 28.062C30.0123 28.1833 29.9646 28.322 29.8953 28.478L29.3753 29.752C29.3406 29.8473 29.306 29.9427 29.2713 30.038C29.2453 30.1333 29.2323 30.2157 29.2323 30.285C29.2323 30.4063 29.2843 30.467 29.3883 30.467C29.475 30.467 29.605 30.4237 29.7783 30.337C29.9776 30.2243 30.1683 30.0813 30.3503 29.908C30.5323 29.726 30.684 29.57 30.8053 29.44C30.814 29.4313 30.853 29.388 30.9223 29.31C31.0003 29.232 31.074 29.154 31.1433 29.076C31.2213 28.998 31.2646 28.959 31.2733 28.959C31.308 28.9157 31.3513 28.894 31.4033 28.894C31.4466 28.894 31.4856 28.92 31.5203 28.972C31.5636 29.0153 31.5853 29.0717 31.5853 29.141C31.5853 29.219 31.5636 29.284 31.5203 29.336C31.3816 29.518 31.1996 29.7173 30.9743 29.934C30.7576 30.1507 30.5626 30.3283 30.3893 30.467C30.2073 30.6057 30.0036 30.74 29.7783 30.87C29.553 31 29.3493 31.065 29.1673 31.065C29.0113 31.065 28.8856 31.026 28.7903 30.948C28.695 30.8613 28.656 30.6967 28.6733 30.454C28.6906 30.3153 28.7383 30.1377 28.8163 29.921C28.8943 29.6957 28.981 29.4617 29.0763 29.219C29.1803 28.9763 29.2756 28.7467 29.3623 28.53C29.449 28.3133 29.5096 28.14 29.5443 28.01C29.2236 28.192 28.8553 28.4433 28.4393 28.764C28.0233 29.076 27.6116 29.492 27.2043 30.012C27.161 30.1247 27.1133 30.2373 27.0613 30.35C27.018 30.454 26.9703 30.5623 26.9183 30.675C26.8836 30.7617 26.8143 30.805 26.7103 30.805C26.641 30.805 26.5803 30.7747 26.5283 30.714C26.4763 30.6533 26.4676 30.5797 26.5023 30.493C26.7363 29.9643 26.9226 29.453 27.0613 28.959C27.2 28.465 27.2693 28.0187 27.2693 27.62C27.2693 27.334 27.1956 27.191 27.0483 27.191C26.9616 27.191 26.8576 27.2343 26.7363 27.321C26.6236 27.4077 26.511 27.5117 26.3983 27.633C26.2596 27.7803 26.0603 28.01 25.8003 28.322C25.549 28.6253 25.2933 28.9503 25.0333 29.297L24.9813 29.401C24.8686 29.635 24.7386 29.882 24.5913 30.142C24.444 30.3933 24.288 30.7053 24.1233 31.078C24.0886 31.1647 24.041 31.2253 23.9803 31.26C23.9196 31.2947 23.859 31.312 23.7983 31.312ZM31.5135 31.065C31.2708 31.065 31.0888 30.9957 30.9675 30.857C30.8548 30.7097 30.7985 30.5277 30.7985 30.311C30.7985 30.0683 30.8678 29.7867 31.0065 29.466C31.1538 29.1367 31.3445 28.7987 31.5785 28.452C31.8125 28.1053 32.0682 27.7847 32.3455 27.49C32.6315 27.1867 32.9175 26.944 33.2035 26.762C33.4895 26.5713 33.7538 26.476 33.9965 26.476C34.1612 26.476 34.3215 26.502 34.4775 26.554C34.6335 26.5973 34.7592 26.6883 34.8545 26.827C34.9585 26.9657 35.0105 27.1693 35.0105 27.438C35.0105 27.5333 34.9845 27.6027 34.9325 27.646C34.8805 27.6893 34.8328 27.711 34.7895 27.711C34.6942 27.711 34.6465 27.6763 34.6465 27.607C34.6032 27.3297 34.5122 27.1477 34.3735 27.061C34.2435 26.9743 34.1178 26.931 33.9965 26.931C33.8232 26.931 33.6195 27.0177 33.3855 27.191C33.1515 27.3643 32.9132 27.5853 32.6705 27.854C32.4278 28.1227 32.1982 28.413 31.9815 28.725C31.7735 29.0283 31.6045 29.323 31.4745 29.609C31.3445 29.8863 31.2795 30.116 31.2795 30.298C31.2795 30.3847 31.2925 30.4627 31.3185 30.532C31.3532 30.6013 31.4052 30.636 31.4745 30.636C31.6045 30.636 31.7735 30.5667 31.9815 30.428C32.1895 30.2893 32.4105 30.1117 32.6445 29.895C32.8872 29.6697 33.1255 29.4357 33.3595 29.193C33.5935 28.9503 33.8058 28.7207 33.9965 28.504C34.1872 28.2873 34.3345 28.114 34.4385 27.984C34.4905 27.906 34.5555 27.867 34.6335 27.867C34.6942 27.867 34.7505 27.8887 34.8025 27.932C34.8545 27.9753 34.8805 28.0317 34.8805 28.101C34.8805 28.1357 34.8675 28.1747 34.8415 28.218C34.7808 28.3133 34.7072 28.4477 34.6205 28.621C34.5425 28.7943 34.4602 28.9807 34.3735 29.18C34.2955 29.3793 34.2262 29.5657 34.1655 29.739C34.1135 29.9037 34.0875 30.0293 34.0875 30.116C34.0875 30.2027 34.1178 30.246 34.1785 30.246C34.2218 30.246 34.2738 30.2243 34.3345 30.181C34.4038 30.1377 34.4645 30.0987 34.5165 30.064C34.7245 29.8907 34.9238 29.7087 35.1145 29.518C35.3052 29.3187 35.4785 29.1323 35.6345 28.959C35.6692 28.9157 35.7125 28.894 35.7645 28.894C35.8078 28.894 35.8468 28.92 35.8815 28.972C35.9248 29.0153 35.9465 29.0717 35.9465 29.141C35.9465 29.219 35.9248 29.284 35.8815 29.336C35.7428 29.518 35.5608 29.7217 35.3355 29.947C35.1102 30.1637 34.9108 30.337 34.7375 30.467C34.6248 30.545 34.4905 30.623 34.3345 30.701C34.1872 30.7703 34.0442 30.805 33.9055 30.805C33.8015 30.805 33.7148 30.7747 33.6455 30.714C33.5762 30.6447 33.5415 30.5277 33.5415 30.363C33.5415 30.233 33.5632 30.0857 33.6065 29.921C33.6498 29.7563 33.7018 29.5873 33.7625 29.414C33.5198 29.674 33.2598 29.9297 32.9825 30.181C32.7052 30.4323 32.4365 30.6447 32.1765 30.818C31.9252 30.9827 31.7042 31.065 31.5135 31.065ZM36.5573 31.13C36.0806 31.13 35.8423 30.8917 35.8423 30.415C35.8423 30.2157 35.8856 29.9903 35.9723 29.739C36.1023 29.3577 36.2973 28.946 36.5573 28.504C36.826 28.062 37.099 27.6373 37.3763 27.23H36.9083C36.839 27.23 36.7826 27.2083 36.7393 27.165C36.7046 27.113 36.6873 27.0567 36.6873 26.996C36.6873 26.944 36.7046 26.8963 36.7393 26.853C36.7826 26.801 36.839 26.775 36.9083 26.775H37.7013C37.7966 26.6537 37.8833 26.5367 37.9613 26.424C38.0393 26.3027 38.1173 26.1857 38.1953 26.073C38.3166 25.761 38.464 25.462 38.6373 25.176C38.8193 24.89 39.0403 24.6603 39.3003 24.487C39.3436 24.461 39.3826 24.448 39.4173 24.448C39.4866 24.448 39.5473 24.4827 39.5993 24.552C39.6513 24.6127 39.6773 24.682 39.6773 24.76C39.6773 24.8207 39.6556 24.8857 39.6123 24.955C39.5863 24.9897 39.504 25.098 39.3653 25.28C39.2266 25.462 39.062 25.6873 38.8713 25.956C38.6806 26.216 38.4813 26.489 38.2733 26.775H39.5213C39.5993 26.775 39.6556 26.801 39.6903 26.853C39.725 26.8963 39.7423 26.944 39.7423 26.996C39.7423 27.0567 39.725 27.113 39.6903 27.165C39.6556 27.2083 39.5993 27.23 39.5213 27.23H37.9613L37.8443 27.412C37.7663 27.5247 37.6493 27.7067 37.4933 27.958C37.346 28.2093 37.1856 28.4867 37.0123 28.79C36.8476 29.0933 36.7046 29.388 36.5833 29.674C36.4706 29.9513 36.4143 30.181 36.4143 30.363C36.4143 30.5797 36.5053 30.688 36.6873 30.688C36.8346 30.688 37.0556 30.6187 37.3503 30.48C37.6536 30.3327 37.9526 30.1333 38.2473 29.882C38.4206 29.7347 38.581 29.5787 38.7283 29.414C38.8756 29.2493 39.0143 29.0977 39.1443 28.959C39.179 28.9157 39.2223 28.894 39.2743 28.894C39.3176 28.894 39.3566 28.92 39.3913 28.972C39.4346 29.0153 39.4563 29.0717 39.4563 29.141C39.4563 29.219 39.4346 29.284 39.3913 29.336C39.2613 29.518 39.0793 29.7217 38.8453 29.947C38.62 30.1637 38.4206 30.337 38.2473 30.467C37.918 30.7097 37.5626 30.8917 37.1813 31.013C36.9473 31.091 36.7393 31.13 36.5573 31.13ZM41.6082 26.957C41.5042 26.957 41.4089 26.9223 41.3222 26.853C41.2442 26.775 41.2052 26.6797 41.2052 26.567C41.2052 26.4457 41.2442 26.346 41.3222 26.268C41.4002 26.19 41.4955 26.151 41.6082 26.151C41.7295 26.151 41.8292 26.19 41.9072 26.268C41.9852 26.346 42.0242 26.4457 42.0242 26.567C42.0242 26.6797 41.9809 26.775 41.8942 26.853C41.8162 26.9223 41.7209 26.957 41.6082 26.957ZM39.6842 30.857C39.5715 30.857 39.4805 30.8267 39.4112 30.766C39.3419 30.6967 39.3072 30.5883 39.3072 30.441C39.3072 30.259 39.3505 30.038 39.4372 29.778C39.5239 29.5093 39.6365 29.2363 39.7752 28.959C39.9139 28.673 40.0612 28.413 40.2172 28.179C40.3819 27.9363 40.5379 27.7457 40.6852 27.607C40.7459 27.5463 40.8195 27.516 40.9062 27.516C40.9755 27.516 41.0362 27.5333 41.0882 27.568C41.1402 27.6027 41.1662 27.646 41.1662 27.698C41.1662 27.7413 41.1445 27.7847 41.1012 27.828C41.0405 27.8887 40.9625 27.9883 40.8672 28.127C40.7805 28.257 40.6939 28.3957 40.6072 28.543C40.5205 28.6817 40.4555 28.7987 40.4122 28.894C40.3342 29.0587 40.2475 29.245 40.1522 29.453C40.0569 29.661 39.9875 29.83 39.9442 29.96C39.9182 30.0467 39.9052 30.1117 39.9052 30.155C39.9052 30.2503 39.9399 30.298 40.0092 30.298C40.0699 30.298 40.1392 30.272 40.2172 30.22C40.2952 30.1593 40.3645 30.1073 40.4252 30.064C40.6419 29.8907 40.8412 29.7087 41.0232 29.518C41.2139 29.3187 41.3872 29.1323 41.5432 28.959C41.5779 28.9157 41.6212 28.894 41.6732 28.894C41.7165 28.894 41.7555 28.92 41.7902 28.972C41.8335 29.0153 41.8552 29.0717 41.8552 29.141C41.8552 29.219 41.8335 29.284 41.7902 29.336C41.6602 29.518 41.4782 29.7217 41.2442 29.947C41.0189 30.1637 40.8195 30.337 40.6462 30.467C40.5335 30.5537 40.3819 30.6403 40.1912 30.727C40.0092 30.8137 39.8402 30.857 39.6842 30.857ZM42.0966 31.221C41.802 31.221 41.594 31.1387 41.4726 30.974C41.3513 30.8007 41.2906 30.5883 41.2906 30.337C41.2906 30.129 41.321 29.9037 41.3816 29.661C41.451 29.4097 41.5376 29.1627 41.6416 28.92C41.6503 28.582 41.7413 28.2483 41.9146 27.919C42.0966 27.5897 42.3393 27.3167 42.6426 27.1C42.9546 26.8833 43.3186 26.775 43.7346 26.775C44.142 26.775 44.4236 26.892 44.5796 27.126C44.7443 27.36 44.8266 27.6373 44.8266 27.958C44.8266 28.1487 44.805 28.3437 44.7616 28.543C44.7183 28.7337 44.662 28.9157 44.5926 29.089C44.5233 29.2623 44.4366 29.44 44.3326 29.622C44.2286 29.7953 44.1116 29.9687 43.9816 30.142C44.2416 30.0987 44.467 30.0163 44.6576 29.895C44.857 29.765 45.0563 29.5873 45.2556 29.362C45.455 29.1367 45.689 28.8507 45.9576 28.504C46.0096 28.4433 46.066 28.413 46.1266 28.413C46.196 28.413 46.2523 28.4347 46.2956 28.478C46.3476 28.5213 46.3736 28.5777 46.3736 28.647C46.3736 28.699 46.3563 28.7467 46.3216 28.79C46.0703 29.1367 45.8146 29.4487 45.5546 29.726C45.3033 30.0033 45.0173 30.22 44.6966 30.376C44.376 30.532 43.9903 30.61 43.5396 30.61C43.3316 30.792 43.1063 30.9393 42.8636 31.052C42.621 31.1647 42.3653 31.221 42.0966 31.221ZM42.8506 27.854C42.7466 27.932 42.621 28.088 42.4736 28.322C42.3263 28.556 42.192 28.8117 42.0706 29.089C42.088 29.3577 42.1963 29.6003 42.3956 29.817C42.6036 30.025 42.92 30.142 43.3446 30.168C43.6566 29.8647 43.908 29.5093 44.0986 29.102C44.2893 28.686 44.3846 28.3133 44.3846 27.984C44.3846 27.7587 44.3326 27.5767 44.2286 27.438C44.1246 27.2993 43.96 27.23 43.7346 27.23C43.5786 27.23 43.427 27.256 43.2796 27.308C43.1323 27.36 42.998 27.4293 42.8766 27.516C42.92 27.5593 42.9416 27.6113 42.9416 27.672C42.9416 27.7413 42.9113 27.802 42.8506 27.854ZM41.7456 30.311C41.7456 30.4497 41.7716 30.5623 41.8236 30.649C41.8843 30.727 41.9753 30.766 42.0966 30.766C42.348 30.766 42.6036 30.688 42.8636 30.532C42.6123 30.4713 42.4 30.376 42.2266 30.246C42.0533 30.1073 41.919 29.9513 41.8236 29.778C41.7716 29.986 41.7456 30.1637 41.7456 30.311ZM45.4556 31.299C45.3949 31.299 45.3386 31.2773 45.2866 31.234C45.2346 31.1907 45.2086 31.1387 45.2086 31.078C45.2086 31.0607 45.2173 31.026 45.2346 30.974C45.4079 30.6013 45.5769 30.2633 45.7416 29.96C45.9149 29.648 46.0926 29.3447 46.2746 29.05C46.3526 28.9287 46.4393 28.7727 46.5346 28.582C46.6386 28.3827 46.7383 28.1703 46.8336 27.945C46.9289 27.711 47.0069 27.49 47.0676 27.282C47.1369 27.074 47.1716 26.905 47.1716 26.775C47.1716 26.7057 47.1673 26.658 47.1586 26.632C47.1499 26.6233 47.1456 26.606 47.1456 26.58C47.1456 26.5107 47.1759 26.4543 47.2366 26.411C47.3059 26.359 47.3709 26.333 47.4316 26.333C47.5009 26.333 47.5659 26.3677 47.6266 26.437C47.6873 26.4977 47.7176 26.606 47.7176 26.762C47.7176 26.892 47.6873 27.0653 47.6266 27.282C47.5746 27.49 47.4836 27.7413 47.3536 28.036C47.2843 28.1833 47.2193 28.322 47.1586 28.452C47.0979 28.5733 47.0373 28.6903 46.9766 28.803C47.3146 28.4477 47.6613 28.1313 48.0166 27.854C48.3719 27.568 48.6883 27.3427 48.9656 27.178C49.2429 27.0133 49.4293 26.931 49.5246 26.931C49.6286 26.931 49.7023 26.9613 49.7456 27.022C49.7889 27.0827 49.8106 27.152 49.8106 27.23C49.8106 27.3427 49.7759 27.4727 49.7066 27.62C49.6459 27.7587 49.5809 27.8843 49.5116 27.997C49.4423 28.1097 49.3946 28.1877 49.3686 28.231C49.2733 28.3783 49.1433 28.5993 48.9786 28.894C48.8139 29.1887 48.6753 29.4747 48.5626 29.752C48.5279 29.8473 48.4933 29.947 48.4586 30.051C48.4326 30.1463 48.4196 30.2287 48.4196 30.298C48.4196 30.4107 48.4673 30.467 48.5626 30.467C48.6493 30.467 48.7749 30.4237 48.9396 30.337C49.1476 30.2243 49.3383 30.0813 49.5116 29.908C49.6936 29.726 49.8496 29.57 49.9796 29.44C49.9883 29.4313 50.0273 29.388 50.0966 29.31C50.1746 29.232 50.2483 29.154 50.3176 29.076C50.3956 28.998 50.4346 28.959 50.4346 28.959C50.4693 28.9157 50.5126 28.894 50.5646 28.894C50.6079 28.894 50.6469 28.92 50.6816 28.972C50.7249 29.0153 50.7466 29.0717 50.7466 29.141C50.7466 29.219 50.7249 29.284 50.6816 29.336C50.5516 29.518 50.3739 29.7173 50.1486 29.934C49.9233 30.1507 49.7239 30.3283 49.5506 30.467C49.3686 30.6057 49.1823 30.7183 48.9916 30.805C48.8096 30.883 48.6276 30.922 48.4456 30.922C48.2896 30.922 48.1596 30.8917 48.0556 30.831C47.9516 30.7703 47.8996 30.61 47.8996 30.35C47.8996 30.0207 47.9819 29.6957 48.1466 29.375C48.3199 29.0543 48.5106 28.738 48.7186 28.426C48.9353 28.114 49.1129 27.8193 49.2516 27.542C49.0349 27.672 48.7446 27.8713 48.3806 28.14C48.0253 28.4087 47.6483 28.725 47.2496 29.089C46.8596 29.4443 46.5043 29.8343 46.1836 30.259C46.1229 30.3717 46.0579 30.493 45.9886 30.623C45.9193 30.753 45.8499 30.896 45.7806 31.052C45.7026 31.2167 45.5943 31.299 45.4556 31.299Z" fill="white"/>
<g clip-path="url(#clip0_26_485)">
<path d="M29.4232 6.69677C28.5964 6.20661 27.6515 6.03535 26.7067 5.92906C26.8071 5.68102 26.8602 5.42118 26.8602 5.15543C27.8051 5.16724 28.8326 4.57669 29.4764 3.97433C30.1201 3.37197 30.9173 2.19087 30.25 1.32866C29.5767 0.460551 28.2303 1.12197 27.498 1.55898C26.7362 2.0137 26.0748 2.66331 25.9153 3.51961C25.5728 3.30701 25.1712 3.18299 24.7756 3.18299C24.746 2.23811 24.4744 1.20465 23.8071 0.525512C23.2342 -0.0532282 22.3012 -0.242205 21.746 0.460551C20.6358 1.86016 22.1594 3.58457 23.6004 3.96843C23.6004 3.98024 23.6004 3.99205 23.6122 4.00386C23.2933 4.29913 23.0807 4.71252 23.0452 5.16134C22.0354 4.99598 20.8543 5.12591 19.9508 5.50976C19.2185 5.81685 18.6752 6.69087 19.2362 7.40543C19.7618 8.07276 20.7834 7.96055 21.5098 7.8011C22.3366 7.62394 23.122 7.2578 23.6771 6.63181C23.7775 6.71449 23.8779 6.78536 23.9901 6.85032C22.9685 7.94874 21.5866 11.5039 23.3937 11.9822C24.2854 12.2184 25.0472 11.0787 25.3484 10.4054C25.8386 9.31882 25.7854 8.17315 25.5197 7.0511C25.5492 7.03929 25.5846 7.03929 25.6141 7.02748C25.7264 6.98614 25.8326 6.93299 25.933 6.87394C26.3937 7.73024 27.5039 8.49795 28.3189 8.87591C28.9449 9.16528 30.374 9.46055 30.6988 8.5511C30.9586 7.83063 29.9488 7.01567 29.4232 6.70268V6.69677ZM22.3425 1.28732C22.4665 0.312914 23.3819 1.08654 23.6358 1.57669C23.9252 2.12591 24.0374 2.71646 24.0492 3.33063C24.0078 3.34835 23.9724 3.37197 23.9311 3.39559C23.1161 3.01173 22.2185 2.25583 22.3366 1.29323L22.3425 1.28732ZM20.5886 7.05701C20.4586 7.05701 20.3287 7.0452 20.1988 7.01567C20.2697 6.76173 20.3346 6.50189 20.4055 6.24795C20.5059 6.15347 21.0669 6.10032 21.185 6.0826C21.8819 5.95858 22.5315 5.89362 23.2165 6.06488C23.2342 6.10032 23.2578 6.13575 23.2815 6.17118C22.5315 6.74992 21.5275 7.09835 20.5886 7.06291V7.05701ZM24.876 9.0826C24.7756 9.54323 24.2618 11.0846 23.6889 10.7716C23.2283 10.5176 23.6712 9.16528 23.8071 8.74008C23.996 8.14362 24.3504 7.63575 24.563 7.06291C24.6929 7.09244 24.8287 7.11016 24.9645 7.11016C25.0059 7.77158 25.0118 8.4448 24.876 9.0826ZM25.2362 6.17118C24.6929 6.32472 24.061 5.98811 23.8956 5.45071C23.7539 4.99008 23.9547 4.51173 24.2913 4.18693C24.9114 4.0511 25.626 4.0452 25.8917 4.77748C26.0866 5.30307 25.7854 6.01764 25.2303 6.17709L25.2362 6.17118ZM26.3582 3.87394C26.559 3.26567 26.9901 2.79913 27.5334 2.4448C27.8701 2.2263 29.4232 1.29913 29.624 2.05504C29.7775 2.63378 28.8326 3.4074 28.437 3.67315C27.8582 4.05701 27.2736 4.11016 26.6417 4.28142C26.5649 4.13378 26.4704 3.99795 26.3523 3.87394H26.3582ZM27.8287 7.55898C27.4153 7.25189 27.0846 6.82669 26.6949 6.49008C27.7165 6.73221 29.2283 7.09244 29.6712 8.01961C30.0138 8.73417 28.1004 7.76567 27.8287 7.56488V7.55898Z" fill="white"/>
</g>
<defs>
<clipPath id="clip0_26_485">
<rect width="11.7343" height="12" fill="white" transform="translate(19)"/>
</clipPath>
</defs>
</svg>
