<svg width="42" height="36" viewBox="0 0 42 36" fill="none" xmlns="http://www.w3.org/2000/svg">
<g clip-path="url(#clip0_26_479)">
<path d="M25.0561 6.69677C24.2293 6.20661 23.2844 6.03535 22.3395 5.92906C22.4399 5.68102 22.4931 5.42118 22.4931 5.15543C23.438 5.16724 24.4655 4.57669 25.1092 3.97433C25.7529 3.37197 26.5502 2.19087 25.8828 1.32866C25.2096 0.460551 23.8632 1.12197 23.1309 1.55898C22.3691 2.0137 21.7076 2.66331 21.5482 3.51961C21.2057 3.30701 20.8041 3.18299 20.4084 3.18299C20.3789 2.23811 20.1073 1.20465 19.4399 0.525512C18.8671 -0.0532282 17.934 -0.242205 17.3789 0.460551C16.2687 1.86016 17.7923 3.58457 19.2332 3.96843C19.2332 3.98024 19.2332 3.99205 19.2451 4.00386C18.9262 4.29913 18.7136 4.71252 18.6781 5.16134C17.6683 4.99598 16.4872 5.12591 15.5836 5.50976C14.8513 5.81685 14.308 6.69087 14.8691 7.40543C15.3947 8.07276 16.4163 7.96055 17.1427 7.8011C17.9695 7.62394 18.7549 7.2578 19.31 6.63181C19.4104 6.71449 19.5108 6.78536 19.623 6.85032C18.6013 7.94874 17.2195 11.5039 19.0265 11.9822C19.9183 12.2184 20.6801 11.0787 20.9813 10.4054C21.4714 9.31882 21.4183 8.17315 21.1525 7.0511C21.1821 7.03929 21.2175 7.03929 21.247 7.02748C21.3592 6.98614 21.4655 6.93299 21.5659 6.87394C22.0265 7.73024 23.1368 8.49795 23.9517 8.87591C24.5777 9.16528 26.0069 9.46055 26.3317 8.5511C26.5915 7.83063 25.5817 7.01567 25.0561 6.70268V6.69677ZM17.9754 1.28732C18.0994 0.312914 19.0147 1.08654 19.2687 1.57669C19.558 2.12591 19.6702 2.71646 19.6821 3.33063C19.6407 3.34835 19.6053 3.37197 19.5639 3.39559C18.749 3.01173 17.8513 2.25583 17.9695 1.29323L17.9754 1.28732ZM16.2214 7.05701C16.0915 7.05701 15.9616 7.0452 15.8317 7.01567C15.9025 6.76173 15.9675 6.50189 16.0384 6.24795C16.1388 6.15347 16.6998 6.10032 16.8179 6.0826C17.5147 5.95858 18.1643 5.89362 18.8494 6.06488C18.8671 6.10032 18.8907 6.13575 18.9143 6.17118C18.1643 6.74992 17.1604 7.09835 16.2214 7.06291V7.05701ZM20.5088 9.0826C20.4084 9.54323 19.8947 11.0846 19.3218 10.7716C18.8612 10.5176 19.3041 9.16528 19.4399 8.74008C19.6289 8.14362 19.9832 7.63575 20.1958 7.06291C20.3258 7.09244 20.4616 7.11016 20.5974 7.11016C20.6388 7.77158 20.6447 8.4448 20.5088 9.0826ZM20.8691 6.17118C20.3258 6.32472 19.6939 5.98811 19.5285 5.45071C19.3868 4.99008 19.5876 4.51173 19.9242 4.18693C20.5443 4.0511 21.2588 4.0452 21.5246 4.77748C21.7195 5.30307 21.4183 6.01764 20.8632 6.17709L20.8691 6.17118ZM21.9911 3.87394C22.1919 3.26567 22.623 2.79913 23.1663 2.4448C23.5029 2.2263 25.0561 1.29913 25.2569 2.05504C25.4104 2.63378 24.4655 3.4074 24.0699 3.67315C23.4911 4.05701 22.9065 4.11016 22.2746 4.28142C22.1978 4.13378 22.1033 3.99795 21.9852 3.87394H21.9911ZM23.4616 7.55898C23.0482 7.25189 22.7175 6.82669 22.3277 6.49008C23.3494 6.73221 24.8612 7.09244 25.3041 8.01961C25.6466 8.73417 23.7332 7.76567 23.4616 7.56488V7.55898Z" fill="white"/>
</g>
<path d="M5.18189 32.612C4.39322 32.612 3.74322 32.5037 3.23189 32.287C2.72055 32.079 2.34355 31.7887 2.10089 31.416C1.85822 31.0433 1.73689 30.623 1.73689 30.155C1.73689 29.6177 1.88422 29.037 2.17889 28.413C2.47355 27.7803 2.89822 27.1607 3.45289 26.554C3.45289 26.554 3.45722 26.5497 3.46589 26.541C3.19722 26.4457 2.94589 26.3373 2.71189 26.216C2.47789 26.0947 2.26989 25.956 2.08789 25.8C1.87989 25.6267 1.72389 25.436 1.61989 25.228C1.51589 25.02 1.46389 24.8207 1.46389 24.63C1.46389 24.3527 1.56789 24.1187 1.77589 23.928C1.98389 23.7287 2.30022 23.629 2.72489 23.629C2.86355 23.629 3.01089 23.642 3.16689 23.668C3.32289 23.6853 3.48755 23.72 3.66089 23.772C3.78222 23.8067 3.84289 23.8803 3.84289 23.993C3.84289 24.0537 3.80822 24.1143 3.73889 24.175C3.67822 24.227 3.60022 24.2357 3.50489 24.201C3.21889 24.123 2.97189 24.084 2.76389 24.084C2.50389 24.084 2.30455 24.136 2.16589 24.24C2.03589 24.344 1.97089 24.474 1.97089 24.63C1.97089 24.864 2.11822 25.1327 2.41289 25.436C2.71622 25.7307 3.18422 25.9777 3.81689 26.177C4.33689 25.6657 4.93055 25.2063 5.59789 24.799C6.27389 24.383 7.00189 24.0537 7.78189 23.811C8.56189 23.5683 9.37655 23.447 10.2259 23.447C11.0492 23.447 11.6646 23.5857 12.0719 23.863C12.4792 24.1403 12.6829 24.461 12.6829 24.825C12.6829 25.1717 12.5009 25.5227 12.1369 25.878C11.7816 26.2247 11.2486 26.489 10.5379 26.671C10.0872 26.7837 9.55855 26.879 8.95189 26.957C8.35389 27.0263 7.73422 27.061 7.09289 27.061C6.55555 27.061 6.01822 27.035 5.48089 26.983C4.95222 26.9223 4.44955 26.827 3.97289 26.697C3.44422 27.2603 3.02389 27.8453 2.71189 28.452C2.40855 29.05 2.25689 29.609 2.25689 30.129C2.25689 30.7097 2.48222 31.195 2.93289 31.585C3.38355 31.975 4.12022 32.17 5.14289 32.17C5.27289 32.17 5.41155 32.1613 5.55889 32.144C5.70622 32.1353 5.85789 32.1267 6.01389 32.118C6.55122 32.0573 7.12755 31.9057 7.74289 31.663C8.36689 31.429 8.98222 31.1127 9.58889 30.714C10.2042 30.3067 10.7676 29.8387 11.2789 29.31C11.3396 29.2493 11.4002 29.219 11.4609 29.219C11.5216 29.219 11.5692 29.2407 11.6039 29.284C11.6472 29.3273 11.6689 29.3793 11.6689 29.44C11.6689 29.5007 11.6429 29.557 11.5909 29.609C11.0969 30.1637 10.5249 30.6533 9.87489 31.078C9.23355 31.5113 8.57922 31.8537 7.91189 32.105C7.24455 32.365 6.62055 32.521 6.03989 32.573C5.74522 32.599 5.45922 32.612 5.18189 32.612ZM4.34989 26.333C4.76589 26.4197 5.19489 26.4847 5.63689 26.528C6.08755 26.5713 6.53822 26.593 6.98889 26.593C7.68222 26.593 8.33222 26.554 8.93889 26.476C9.55422 26.398 10.0352 26.3113 10.3819 26.216C10.9972 26.06 11.4479 25.8607 11.7339 25.618C12.0286 25.3753 12.1759 25.137 12.1759 24.903C12.1759 24.6343 12.0069 24.4047 11.6689 24.214C11.3309 24.0147 10.8499 23.915 10.2259 23.915C9.45455 23.915 8.71355 24.0233 8.00289 24.24C7.29222 24.448 6.62489 24.734 6.00089 25.098C5.38555 25.462 4.83522 25.8737 4.34989 26.333ZM11.8109 31.065C11.5682 31.065 11.3862 30.9957 11.2649 30.857C11.1522 30.7097 11.0959 30.5277 11.0959 30.311C11.0959 30.0683 11.1652 29.7867 11.3039 29.466C11.4512 29.1367 11.6419 28.7987 11.8759 28.452C12.1099 28.1053 12.3655 27.7847 12.6429 27.49C12.9289 27.1867 13.2149 26.944 13.5009 26.762C13.7869 26.5713 14.0512 26.476 14.2939 26.476C14.4585 26.476 14.6189 26.502 14.7749 26.554C14.9309 26.5973 15.0565 26.6883 15.1519 26.827C15.2559 26.9657 15.3079 27.1693 15.3079 27.438C15.3079 27.5333 15.2819 27.6027 15.2299 27.646C15.1779 27.6893 15.1302 27.711 15.0869 27.711C14.9915 27.711 14.9439 27.6763 14.9439 27.607C14.9005 27.3297 14.8095 27.1477 14.6709 27.061C14.5409 26.9743 14.4152 26.931 14.2939 26.931C14.1205 26.931 13.9169 27.0177 13.6829 27.191C13.4489 27.3643 13.2105 27.5853 12.9679 27.854C12.7252 28.1227 12.4955 28.413 12.2789 28.725C12.0709 29.0283 11.9019 29.323 11.7719 29.609C11.6419 29.8863 11.5769 30.116 11.5769 30.298C11.5769 30.3847 11.5899 30.4627 11.6159 30.532C11.6505 30.6013 11.7025 30.636 11.7719 30.636C11.9019 30.636 12.0709 30.5667 12.2789 30.428C12.4869 30.2893 12.7079 30.1117 12.9419 29.895C13.1845 29.6697 13.4229 29.4357 13.6569 29.193C13.8909 28.9503 14.1032 28.7207 14.2939 28.504C14.4845 28.2873 14.6319 28.114 14.7359 27.984C14.7879 27.906 14.8529 27.867 14.9309 27.867C14.9915 27.867 15.0479 27.8887 15.0999 27.932C15.1519 27.9753 15.1779 28.0317 15.1779 28.101C15.1779 28.1357 15.1649 28.1747 15.1389 28.218C15.0782 28.3133 15.0045 28.4477 14.9179 28.621C14.8399 28.7943 14.7575 28.9807 14.6709 29.18C14.5929 29.3793 14.5235 29.5657 14.4629 29.739C14.4109 29.9037 14.3849 30.0293 14.3849 30.116C14.3849 30.2027 14.4152 30.246 14.4759 30.246C14.5192 30.246 14.5712 30.2243 14.6319 30.181C14.7012 30.1377 14.7619 30.0987 14.8139 30.064C15.0219 29.8907 15.2212 29.7087 15.4119 29.518C15.6025 29.3187 15.7759 29.1323 15.9319 28.959C15.9665 28.9157 16.0099 28.894 16.0619 28.894C16.1052 28.894 16.1442 28.92 16.1789 28.972C16.2222 29.0153 16.2439 29.0717 16.2439 29.141C16.2439 29.219 16.2222 29.284 16.1789 29.336C16.0402 29.518 15.8582 29.7217 15.6329 29.947C15.4075 30.1637 15.2082 30.337 15.0349 30.467C14.9222 30.545 14.7879 30.623 14.6319 30.701C14.4845 30.7703 14.3415 30.805 14.2029 30.805C14.0989 30.805 14.0122 30.7747 13.9429 30.714C13.8735 30.6447 13.8389 30.5277 13.8389 30.363C13.8389 30.233 13.8605 30.0857 13.9039 29.921C13.9472 29.7563 13.9992 29.5873 14.0599 29.414C13.8172 29.674 13.5572 29.9297 13.2799 30.181C13.0025 30.4323 12.7339 30.6447 12.4739 30.818C12.2225 30.9827 12.0015 31.065 11.8109 31.065ZM16.4907 31.247C16.1787 31.247 15.9663 31.1603 15.8537 30.987C15.741 30.805 15.6847 30.5927 15.6847 30.35C15.6847 30.1247 15.7107 29.8993 15.7627 29.674C15.8233 29.44 15.8797 29.245 15.9317 29.089C15.9403 29.0543 15.9533 29.0197 15.9707 28.985C15.9533 28.959 15.9447 28.9243 15.9447 28.881C15.9447 28.7337 15.9967 28.6427 16.1007 28.608C16.2567 28.2093 16.4387 27.8063 16.6467 27.399C16.8547 26.983 17.067 26.5973 17.2837 26.242C17.5003 25.8867 17.691 25.5877 17.8557 25.345C17.9857 25.163 18.1417 24.9463 18.3237 24.695C18.5143 24.435 18.7267 24.1793 18.9607 23.928C19.2033 23.6767 19.4633 23.4687 19.7407 23.304C20.018 23.1307 20.304 23.044 20.5987 23.044C20.8413 23.044 21.0103 23.096 21.1057 23.2C21.2097 23.304 21.2617 23.4427 21.2617 23.616C21.2617 23.7807 21.2227 23.9713 21.1447 24.188C21.0667 24.4047 20.9627 24.63 20.8327 24.864C20.6507 25.1933 20.3993 25.553 20.0787 25.943C19.758 26.333 19.4027 26.7187 19.0127 27.1C18.6227 27.4813 18.2153 27.828 17.7907 28.14C17.366 28.452 16.95 28.7033 16.5427 28.894C16.4907 29.0587 16.4213 29.2753 16.3347 29.544C16.248 29.804 16.2047 30.0423 16.2047 30.259C16.2047 30.4063 16.235 30.532 16.2957 30.636C16.3563 30.7313 16.469 30.779 16.6337 30.779C16.755 30.779 16.9067 30.7443 17.0887 30.675C17.2793 30.597 17.496 30.48 17.7387 30.324C18.016 30.142 18.2803 29.9253 18.5317 29.674C18.783 29.4227 19.0083 29.1757 19.2077 28.933C19.251 28.881 19.29 28.855 19.3247 28.855C19.368 28.855 19.407 28.8853 19.4417 28.946C19.485 28.998 19.5067 29.0587 19.5067 29.128C19.5067 29.2147 19.485 29.284 19.4417 29.336C19.3117 29.518 19.134 29.7173 18.9087 29.934C18.692 30.1507 18.497 30.324 18.3237 30.454C18.237 30.5147 18.133 30.584 18.0117 30.662C17.8903 30.74 17.691 30.8527 17.4137 31C17.275 31.0693 17.1233 31.1257 16.9587 31.169C16.8027 31.221 16.6467 31.247 16.4907 31.247ZM18.0507 25.995C17.7907 26.3763 17.5567 26.762 17.3487 27.152C17.1407 27.542 16.9587 27.9103 16.8027 28.257C17.2707 27.9797 17.7387 27.633 18.2067 27.217C18.6747 26.7923 19.1037 26.346 19.4937 25.878C19.8837 25.41 20.1957 24.968 20.4297 24.552C20.6377 24.188 20.7417 23.9107 20.7417 23.72C20.7417 23.5727 20.6723 23.499 20.5337 23.499C20.3257 23.499 20.1003 23.5943 19.8577 23.785C19.615 23.9757 19.3767 24.214 19.1427 24.5C18.9087 24.7773 18.6963 25.0547 18.5057 25.332C18.315 25.6093 18.1633 25.8303 18.0507 25.995ZM19.9218 31.195C19.6531 31.195 19.4234 31.1127 19.2328 30.948C19.0508 30.7833 18.9598 30.4973 18.9598 30.09C18.9598 29.8127 19.0291 29.4877 19.1678 29.115C19.3151 28.7423 19.5101 28.3827 19.7528 28.036C19.9954 27.6807 20.2641 27.3903 20.5588 27.165C20.8534 26.931 21.1524 26.814 21.4558 26.814C21.6551 26.814 21.8024 26.8877 21.8978 27.035C22.0018 27.1737 22.0538 27.3427 22.0538 27.542C22.0538 27.8367 21.9584 28.1227 21.7678 28.4C21.5771 28.6773 21.3344 28.9027 21.0398 29.076C20.7538 29.2493 20.4678 29.336 20.1818 29.336C19.9478 29.336 19.7701 29.2623 19.6488 29.115C19.5794 29.2883 19.5231 29.4573 19.4798 29.622C19.4364 29.7867 19.4148 29.9427 19.4148 30.09C19.4148 30.3413 19.4668 30.519 19.5708 30.623C19.6834 30.7183 19.8221 30.766 19.9868 30.766C20.1861 30.766 20.4071 30.714 20.6498 30.61C20.9011 30.506 21.1351 30.3847 21.3518 30.246C21.5684 30.0987 21.7288 29.9773 21.8328 29.882C22.0061 29.7347 22.1708 29.5743 22.3268 29.401C22.4914 29.219 22.6344 29.05 22.7558 28.894C22.7991 28.842 22.8468 28.816 22.8988 28.816C22.9508 28.816 22.9941 28.842 23.0288 28.894C23.0721 28.9373 23.0938 28.9937 23.0938 29.063C23.0938 29.1237 23.0721 29.1843 23.0288 29.245C22.8901 29.4183 22.7168 29.6177 22.5088 29.843C22.3094 30.0597 22.0841 30.2633 21.8328 30.454C21.6941 30.5667 21.5164 30.6793 21.2998 30.792C21.0831 30.9047 20.8534 31 20.6108 31.078C20.3768 31.156 20.1471 31.195 19.9218 31.195ZM20.1558 28.92C20.3291 28.92 20.5154 28.8637 20.7148 28.751C20.9228 28.6383 21.1048 28.491 21.2608 28.309C21.4254 28.1183 21.5338 27.9147 21.5858 27.698C21.5944 27.6807 21.5988 27.659 21.5988 27.633C21.5988 27.607 21.5988 27.5853 21.5988 27.568C21.5988 27.412 21.5424 27.334 21.4298 27.334C21.2478 27.334 21.0571 27.4033 20.8578 27.542C20.6584 27.672 20.4678 27.8497 20.2858 28.075C20.1124 28.2917 19.9564 28.53 19.8178 28.79C19.8524 28.816 19.8871 28.842 19.9218 28.868C19.9564 28.8853 19.9911 28.8983 20.0258 28.907C20.0431 28.9157 20.0648 28.92 20.0908 28.92C20.1168 28.92 20.1384 28.92 20.1558 28.92ZM22.5157 31.299C22.455 31.299 22.3987 31.2773 22.3467 31.234C22.2947 31.1907 22.2687 31.1387 22.2687 31.078C22.2687 31.0607 22.2773 31.026 22.2947 30.974C22.468 30.6013 22.637 30.2633 22.8017 29.96C22.975 29.648 23.1527 29.3447 23.3347 29.05C23.4127 28.9287 23.4993 28.7727 23.5947 28.582C23.6987 28.3827 23.7983 28.1703 23.8937 27.945C23.989 27.711 24.067 27.49 24.1277 27.282C24.197 27.074 24.2317 26.905 24.2317 26.775C24.2317 26.7057 24.2273 26.658 24.2187 26.632C24.21 26.6233 24.2057 26.606 24.2057 26.58C24.2057 26.5107 24.236 26.4543 24.2967 26.411C24.366 26.359 24.431 26.333 24.4917 26.333C24.561 26.333 24.626 26.3677 24.6867 26.437C24.7473 26.4977 24.7777 26.606 24.7777 26.762C24.7777 26.892 24.7473 27.0653 24.6867 27.282C24.6347 27.49 24.5437 27.7413 24.4137 28.036C24.3443 28.1833 24.2793 28.322 24.2187 28.452C24.158 28.5733 24.0973 28.6903 24.0367 28.803C24.3747 28.4477 24.7213 28.1313 25.0767 27.854C25.432 27.568 25.7483 27.3427 26.0257 27.178C26.303 27.0133 26.4893 26.931 26.5847 26.931C26.6887 26.931 26.7623 26.9613 26.8057 27.022C26.849 27.0827 26.8707 27.152 26.8707 27.23C26.8707 27.3427 26.836 27.4727 26.7667 27.62C26.706 27.7587 26.641 27.8843 26.5717 27.997C26.5023 28.1097 26.4547 28.1877 26.4287 28.231C26.3333 28.3783 26.2033 28.5993 26.0387 28.894C25.874 29.1887 25.7353 29.4747 25.6227 29.752C25.588 29.8473 25.5533 29.947 25.5187 30.051C25.4927 30.1463 25.4797 30.2287 25.4797 30.298C25.4797 30.4107 25.5273 30.467 25.6227 30.467C25.7093 30.467 25.835 30.4237 25.9997 30.337C26.2077 30.2243 26.3983 30.0813 26.5717 29.908C26.7537 29.726 26.9097 29.57 27.0397 29.44C27.0483 29.4313 27.0873 29.388 27.1567 29.31C27.2347 29.232 27.3083 29.154 27.3777 29.076C27.4557 28.998 27.4947 28.959 27.4947 28.959C27.5293 28.9157 27.5727 28.894 27.6247 28.894C27.668 28.894 27.707 28.92 27.7417 28.972C27.785 29.0153 27.8067 29.0717 27.8067 29.141C27.8067 29.219 27.785 29.284 27.7417 29.336C27.6117 29.518 27.434 29.7173 27.2087 29.934C26.9833 30.1507 26.784 30.3283 26.6107 30.467C26.4287 30.6057 26.2423 30.7183 26.0517 30.805C25.8697 30.883 25.6877 30.922 25.5057 30.922C25.3497 30.922 25.2197 30.8917 25.1157 30.831C25.0117 30.7703 24.9597 30.61 24.9597 30.35C24.9597 30.0207 25.042 29.6957 25.2067 29.375C25.38 29.0543 25.5707 28.738 25.7787 28.426C25.9953 28.114 26.173 27.8193 26.3117 27.542C26.095 27.672 25.8047 27.8713 25.4407 28.14C25.0853 28.4087 24.7083 28.725 24.3097 29.089C23.9197 29.4443 23.5643 29.8343 23.2437 30.259C23.183 30.3717 23.118 30.493 23.0487 30.623C22.9793 30.753 22.91 30.896 22.8407 31.052C22.7627 31.2167 22.6543 31.299 22.5157 31.299ZM27.7308 31.065C27.4881 31.065 27.3061 30.9957 27.1848 30.857C27.0721 30.7097 27.0158 30.5277 27.0158 30.311C27.0158 30.0683 27.0851 29.7867 27.2238 29.466C27.3711 29.1367 27.5618 28.7987 27.7958 28.452C28.0298 28.1053 28.2855 27.7847 28.5628 27.49C28.8488 27.1867 29.1348 26.944 29.4208 26.762C29.7068 26.5713 29.9711 26.476 30.2138 26.476C30.3871 26.476 30.5561 26.5063 30.7208 26.567C30.8941 26.619 31.0241 26.7317 31.1108 26.905C31.3275 26.4023 31.5875 25.904 31.8908 25.41C32.1941 24.9073 32.5061 24.4567 32.8268 24.058C33.1561 23.6593 33.4681 23.3603 33.7628 23.161C33.9795 23.0137 34.1745 22.94 34.3478 22.94C34.4865 22.94 34.5948 22.9877 34.6728 23.083C34.7595 23.1697 34.8028 23.304 34.8028 23.486C34.8028 23.8327 34.7075 24.201 34.5168 24.591C34.3348 24.981 34.0921 25.371 33.7888 25.761C33.4855 26.151 33.1561 26.5323 32.8008 26.905C32.4541 27.269 32.1161 27.6113 31.7868 27.932C31.4575 28.244 31.1715 28.517 30.9288 28.751C30.7901 28.985 30.6558 29.258 30.5258 29.57C30.4045 29.8733 30.3438 30.129 30.3438 30.337C30.3438 30.571 30.4348 30.688 30.6168 30.688C30.7641 30.688 30.9851 30.6187 31.2798 30.48C31.5831 30.3327 31.8778 30.1333 32.1638 29.882C32.3371 29.7347 32.4975 29.5787 32.6448 29.414C32.7921 29.2493 32.9308 29.0977 33.0608 28.959C33.0955 28.9157 33.1388 28.894 33.1908 28.894C33.2341 28.894 33.2731 28.92 33.3078 28.972C33.3511 29.0153 33.3728 29.0717 33.3728 29.141C33.3728 29.219 33.3511 29.284 33.3078 29.336C33.1778 29.518 32.9958 29.7217 32.7618 29.947C32.5365 30.1637 32.3371 30.337 32.1638 30.467C31.8345 30.7097 31.4791 30.8917 31.0978 31.013C30.8638 31.091 30.6558 31.13 30.4738 31.13C29.9971 31.13 29.7588 30.8917 29.7588 30.415C29.7588 30.2157 29.8021 29.9903 29.8888 29.739C29.8888 29.7303 29.8931 29.7217 29.9018 29.713C29.6331 29.9383 29.3558 30.155 29.0698 30.363C28.7925 30.571 28.5325 30.74 28.2898 30.87C28.0471 31 27.8608 31.065 27.7308 31.065ZM31.1368 27.867C31.2235 27.7977 31.3751 27.659 31.5918 27.451C31.8085 27.243 32.0555 26.996 32.3328 26.71C32.6188 26.4153 32.9005 26.099 33.1778 25.761C33.4551 25.423 33.6978 25.085 33.9058 24.747C34.1138 24.409 34.2568 24.0927 34.3348 23.798C34.3435 23.7633 34.3478 23.72 34.3478 23.668C34.3478 23.538 34.2958 23.473 34.1918 23.473C34.0618 23.473 33.9101 23.5597 33.7368 23.733C33.3988 24.0623 33.0695 24.461 32.7488 24.929C32.4368 25.3883 32.1421 25.8737 31.8648 26.385C31.5961 26.8877 31.3535 27.3817 31.1368 27.867ZM27.6918 30.636C27.8131 30.636 27.9691 30.5797 28.1598 30.467C28.3591 30.3543 28.5715 30.2113 28.7968 30.038C29.0221 29.8647 29.2431 29.6827 29.4598 29.492C29.6851 29.3013 29.8845 29.1237 30.0578 28.959C30.2311 28.7943 30.3611 28.6687 30.4478 28.582L30.8378 27.477C30.7771 27.2517 30.6861 27.1043 30.5648 27.035C30.4435 26.9657 30.3265 26.931 30.2138 26.931C30.0405 26.931 29.8368 27.0177 29.6028 27.191C29.3688 27.3643 29.1305 27.5853 28.8878 27.854C28.6451 28.1227 28.4155 28.413 28.1988 28.725C27.9908 29.0283 27.8218 29.323 27.6918 29.609C27.5618 29.8863 27.4968 30.116 27.4968 30.298C27.4968 30.3847 27.5098 30.4627 27.5358 30.532C27.5705 30.6013 27.6225 30.636 27.6918 30.636ZM33.2786 31.065C33.036 31.065 32.854 30.9957 32.7326 30.857C32.62 30.7097 32.5636 30.5277 32.5636 30.311C32.5636 30.0683 32.633 29.7867 32.7716 29.466C32.919 29.1367 33.1096 28.7987 33.3436 28.452C33.5776 28.1053 33.8333 27.7847 34.1106 27.49C34.3966 27.1867 34.6826 26.944 34.9686 26.762C35.2546 26.5713 35.519 26.476 35.7616 26.476C35.9263 26.476 36.0866 26.502 36.2426 26.554C36.3986 26.5973 36.5243 26.6883 36.6196 26.827C36.7236 26.9657 36.7756 27.1693 36.7756 27.438C36.7756 27.5333 36.7496 27.6027 36.6976 27.646C36.6456 27.6893 36.598 27.711 36.5546 27.711C36.4593 27.711 36.4116 27.6763 36.4116 27.607C36.3683 27.3297 36.2773 27.1477 36.1386 27.061C36.0086 26.9743 35.883 26.931 35.7616 26.931C35.5883 26.931 35.3846 27.0177 35.1506 27.191C34.9166 27.3643 34.6783 27.5853 34.4356 27.854C34.193 28.1227 33.9633 28.413 33.7466 28.725C33.5386 29.0283 33.3696 29.323 33.2396 29.609C33.1096 29.8863 33.0446 30.116 33.0446 30.298C33.0446 30.3847 33.0576 30.4627 33.0836 30.532C33.1183 30.6013 33.1703 30.636 33.2396 30.636C33.3696 30.636 33.5386 30.5667 33.7466 30.428C33.9546 30.2893 34.1756 30.1117 34.4096 29.895C34.6523 29.6697 34.8906 29.4357 35.1246 29.193C35.3586 28.9503 35.571 28.7207 35.7616 28.504C35.9523 28.2873 36.0996 28.114 36.2036 27.984C36.2556 27.906 36.3206 27.867 36.3986 27.867C36.4593 27.867 36.5156 27.8887 36.5676 27.932C36.6196 27.9753 36.6456 28.0317 36.6456 28.101C36.6456 28.1357 36.6326 28.1747 36.6066 28.218C36.546 28.3133 36.4723 28.4477 36.3856 28.621C36.3076 28.7943 36.2253 28.9807 36.1386 29.18C36.0606 29.3793 35.9913 29.5657 35.9306 29.739C35.8786 29.9037 35.8526 30.0293 35.8526 30.116C35.8526 30.2027 35.883 30.246 35.9436 30.246C35.987 30.246 36.039 30.2243 36.0996 30.181C36.169 30.1377 36.2296 30.0987 36.2816 30.064C36.4896 29.8907 36.689 29.7087 36.8796 29.518C37.0703 29.3187 37.2436 29.1323 37.3996 28.959C37.4343 28.9157 37.4776 28.894 37.5296 28.894C37.573 28.894 37.612 28.92 37.6466 28.972C37.69 29.0153 37.7116 29.0717 37.7116 29.141C37.7116 29.219 37.69 29.284 37.6466 29.336C37.508 29.518 37.326 29.7217 37.1006 29.947C36.8753 30.1637 36.676 30.337 36.5026 30.467C36.39 30.545 36.2556 30.623 36.0996 30.701C35.9523 30.7703 35.8093 30.805 35.6706 30.805C35.5666 30.805 35.48 30.7747 35.4106 30.714C35.3413 30.6447 35.3066 30.5277 35.3066 30.363C35.3066 30.233 35.3283 30.0857 35.3716 29.921C35.415 29.7563 35.467 29.5873 35.5276 29.414C35.285 29.674 35.025 29.9297 34.7476 30.181C34.4703 30.4323 34.2016 30.6447 33.9416 30.818C33.6903 30.9827 33.4693 31.065 33.2786 31.065ZM39.5314 30.922C39.3754 30.922 39.2454 30.8787 39.1414 30.792C39.0461 30.7053 38.9984 30.584 38.9984 30.428C38.9984 30.0987 39.0808 29.7693 39.2454 29.44C39.4101 29.102 39.5964 28.7727 39.8044 28.452C40.0211 28.1227 40.1988 27.8193 40.3374 27.542C40.1988 27.6373 40.0428 27.7067 39.8694 27.75C39.6961 27.7933 39.5271 27.815 39.3624 27.815C39.1284 27.815 38.9464 27.7847 38.8164 27.724C38.6518 28.01 38.4611 28.3003 38.2444 28.595C38.0278 28.881 37.8154 29.141 37.6074 29.375C37.4081 29.609 37.2391 29.7867 37.1004 29.908C37.0398 29.96 36.9791 29.986 36.9184 29.986C36.8578 29.986 36.8058 29.9643 36.7624 29.921C36.7191 29.8777 36.6974 29.83 36.6974 29.778C36.6974 29.7347 36.7148 29.6957 36.7494 29.661C36.9054 29.4963 37.0874 29.284 37.2954 29.024C37.5121 28.764 37.7244 28.4867 37.9324 28.192C38.1491 27.8973 38.3268 27.6243 38.4654 27.373C38.4568 27.1997 38.4784 27.0047 38.5304 26.788C38.5911 26.5713 38.6691 26.3633 38.7644 26.164C38.8684 25.9647 38.9811 25.8 39.1024 25.67C39.2238 25.5313 39.3494 25.462 39.4794 25.462C39.6181 25.462 39.6874 25.5443 39.6874 25.709C39.6874 25.8477 39.6441 26.0253 39.5574 26.242C39.4794 26.4587 39.3841 26.671 39.2714 26.879C39.1674 27.0783 39.0764 27.243 38.9984 27.373C39.1111 27.4077 39.2281 27.425 39.3494 27.425C39.5574 27.425 39.7394 27.386 39.8954 27.308C40.0514 27.2213 40.1901 27.139 40.3114 27.061C40.4328 26.9743 40.5368 26.931 40.6234 26.931C40.7361 26.931 40.8098 26.9613 40.8444 27.022C40.8878 27.074 40.9094 27.1433 40.9094 27.23C40.9094 27.3947 40.8661 27.5767 40.7794 27.776C40.6928 27.9667 40.6278 28.088 40.5844 28.14C40.5238 28.2353 40.4328 28.3783 40.3114 28.569C40.1901 28.751 40.0688 28.946 39.9474 29.154C39.8261 29.362 39.7264 29.5613 39.6484 29.752C39.6138 29.8473 39.5791 29.947 39.5444 30.051C39.5184 30.1463 39.5054 30.2287 39.5054 30.298C39.5054 30.4107 39.5531 30.467 39.6484 30.467C39.7351 30.467 39.8608 30.4237 40.0254 30.337C40.2334 30.2243 40.4241 30.0813 40.5974 29.908C40.7794 29.726 40.9354 29.57 41.0654 29.44C41.0741 29.4313 41.1131 29.388 41.1824 29.31C41.2604 29.232 41.3341 29.154 41.4034 29.076C41.4814 28.998 41.5204 28.959 41.5204 28.959C41.5551 28.9157 41.5984 28.894 41.6504 28.894C41.6938 28.894 41.7328 28.92 41.7674 28.972C41.8108 29.0153 41.8324 29.0717 41.8324 29.141C41.8324 29.219 41.8108 29.284 41.7674 29.336C41.6374 29.518 41.4598 29.7173 41.2344 29.934C41.0091 30.1507 40.8098 30.3283 40.6364 30.467C40.4544 30.6057 40.2681 30.7183 40.0774 30.805C39.8954 30.883 39.7134 30.922 39.5314 30.922Z" fill="white"/>
<defs>
<clipPath id="clip0_26_479">
<rect width="11.7343" height="12" fill="white" transform="translate(14.6329)"/>
</clipPath>
</defs>
</svg>
