<svg width="81" height="36" viewBox="0 0 81 36" fill="none" xmlns="http://www.w3.org/2000/svg">
<g clip-path="url(#clip0_26_486)">
<path d="M44.0561 6.69677C43.2293 6.20661 42.2844 6.03535 41.3395 5.92906C41.4399 5.68102 41.4931 5.42118 41.4931 5.15543C42.438 5.16724 43.4655 4.57669 44.1092 3.97433C44.7529 3.37197 45.5502 2.19087 44.8828 1.32866C44.2096 0.460551 42.8632 1.12197 42.1309 1.55898C41.3691 2.0137 40.7076 2.66331 40.5482 3.51961C40.2057 3.30701 39.8041 3.18299 39.4084 3.18299C39.3789 2.23811 39.1073 1.20465 38.4399 0.525512C37.8671 -0.0532282 36.934 -0.242205 36.3789 0.460551C35.2687 1.86016 36.7923 3.58457 38.2332 3.96843C38.2332 3.98024 38.2332 3.99205 38.2451 4.00386C37.9262 4.29913 37.7136 4.71252 37.6781 5.16134C36.6683 4.99598 35.4872 5.12591 34.5836 5.50976C33.8513 5.81685 33.308 6.69087 33.8691 7.40543C34.3947 8.07276 35.4163 7.96055 36.1427 7.8011C36.9695 7.62394 37.7549 7.2578 38.31 6.63181C38.4104 6.71449 38.5108 6.78536 38.623 6.85032C37.6013 7.94874 36.2195 11.5039 38.0265 11.9822C38.9183 12.2184 39.6801 11.0787 39.9813 10.4054C40.4714 9.31882 40.4183 8.17315 40.1525 7.0511C40.1821 7.03929 40.2175 7.03929 40.247 7.02748C40.3592 6.98614 40.4655 6.93299 40.5659 6.87394C41.0265 7.73024 42.1368 8.49795 42.9517 8.87591C43.5777 9.16528 45.0069 9.46055 45.3317 8.5511C45.5915 7.83063 44.5817 7.01567 44.0561 6.70268V6.69677ZM36.9754 1.28732C37.0994 0.312914 38.0147 1.08654 38.2687 1.57669C38.558 2.12591 38.6702 2.71646 38.6821 3.33063C38.6407 3.34835 38.6053 3.37197 38.5639 3.39559C37.749 3.01173 36.8513 2.25583 36.9695 1.29323L36.9754 1.28732ZM35.2214 7.05701C35.0915 7.05701 34.9616 7.0452 34.8317 7.01567C34.9025 6.76173 34.9675 6.50189 35.0384 6.24795C35.1388 6.15347 35.6998 6.10032 35.8179 6.0826C36.5147 5.95858 37.1643 5.89362 37.8494 6.06488C37.8671 6.10032 37.8907 6.13575 37.9143 6.17118C37.1643 6.74992 36.1604 7.09835 35.2214 7.06291V7.05701ZM39.5088 9.0826C39.4084 9.54323 38.8947 11.0846 38.3218 10.7716C37.8612 10.5176 38.3041 9.16528 38.4399 8.74008C38.6289 8.14362 38.9832 7.63575 39.1958 7.06291C39.3258 7.09244 39.4616 7.11016 39.5974 7.11016C39.6388 7.77158 39.6447 8.4448 39.5088 9.0826ZM39.8691 6.17118C39.3258 6.32472 38.6939 5.98811 38.5285 5.45071C38.3868 4.99008 38.5876 4.51173 38.9242 4.18693C39.5443 4.0511 40.2588 4.0452 40.5246 4.77748C40.7195 5.30307 40.4183 6.01764 39.8632 6.17709L39.8691 6.17118ZM40.9911 3.87394C41.1919 3.26567 41.623 2.79913 42.1663 2.4448C42.5029 2.2263 44.0561 1.29913 44.2569 2.05504C44.4104 2.63378 43.4655 3.4074 43.0699 3.67315C42.4911 4.05701 41.9065 4.11016 41.2746 4.28142C41.1978 4.13378 41.1033 3.99795 40.9852 3.87394H40.9911ZM42.4616 7.55898C42.0482 7.25189 41.7175 6.82669 41.3277 6.49008C42.3494 6.73221 43.8612 7.09244 44.3041 8.01961C44.6466 8.73417 42.7332 7.76567 42.4616 7.56488V7.55898Z" fill="white"/>
</g>
<path d="M5.07691 32.69C4.29691 32.69 3.65991 32.56 3.16591 32.3C2.67191 32.04 2.30791 31.702 2.07391 31.286C1.83991 30.8787 1.72291 30.4497 1.72291 29.999C1.72291 29.583 1.81391 29.1757 1.99591 28.777C2.17791 28.3783 2.43358 28.036 2.76291 27.75C3.10091 27.4553 3.50391 27.256 3.97191 27.152C3.98925 27.152 4.00225 27.152 4.01091 27.152C4.01958 27.1433 4.02825 27.139 4.03691 27.139C4.10625 27.139 4.16258 27.165 4.20591 27.217C4.24925 27.2603 4.27091 27.3167 4.27091 27.386C4.27091 27.516 4.20591 27.5983 4.07591 27.633C3.67725 27.7197 3.33925 27.88 3.06191 28.114C2.78458 28.348 2.57225 28.621 2.42491 28.933C2.28625 29.245 2.21691 29.57 2.21691 29.908C2.21691 30.2893 2.31658 30.6533 2.51591 31C2.71525 31.3553 3.02291 31.6413 3.43891 31.858C3.86358 32.0833 4.40958 32.196 5.07691 32.196C5.70091 32.196 6.26425 32.079 6.76691 31.845C7.27825 31.611 7.73758 31.299 8.14491 30.909C8.55225 30.5103 8.92491 30.0597 9.26291 29.557C9.60958 29.0543 9.93025 28.53 10.2249 27.984C10.5196 27.4293 10.8012 26.8877 11.0699 26.359C11.3472 25.8303 11.6202 25.345 11.8889 24.903C11.8109 24.877 11.7372 24.851 11.6679 24.825C11.6072 24.7903 11.5466 24.7643 11.4859 24.747C10.9572 24.539 10.4199 24.357 9.87391 24.201C9.32791 24.045 8.76891 23.967 8.19691 23.967C8.12758 23.967 8.05391 23.9713 7.97591 23.98C7.89791 23.98 7.81991 23.9843 7.74191 23.993C7.15258 24.045 6.64991 24.214 6.23391 24.5C5.81791 24.786 5.50158 25.124 5.28491 25.514C5.06825 25.8953 4.95991 26.2637 4.95991 26.619C4.95991 26.957 5.06391 27.243 5.27191 27.477C5.47991 27.711 5.79625 27.828 6.22091 27.828C6.60225 27.828 6.94891 27.7197 7.26091 27.503C7.58158 27.2863 7.84591 27.022 8.05391 26.71C8.27058 26.3893 8.41358 26.073 8.48291 25.761C8.50891 25.6397 8.58258 25.579 8.70391 25.579C8.77325 25.579 8.83391 25.605 8.88591 25.657C8.93791 25.7003 8.95525 25.7697 8.93791 25.865C8.88591 26.125 8.78191 26.3937 8.62591 26.671C8.47858 26.9483 8.28791 27.2127 8.05391 27.464C7.82858 27.7067 7.56425 27.906 7.26091 28.062C6.96625 28.2093 6.64558 28.2873 6.29891 28.296C5.69225 28.3133 5.24158 28.1573 4.94691 27.828C4.66091 27.4987 4.51791 27.1 4.51791 26.632C4.51791 26.3027 4.58725 25.969 4.72591 25.631C4.86458 25.2843 5.06391 24.9593 5.32391 24.656C5.59258 24.3527 5.92625 24.1013 6.32491 23.902C6.72358 23.694 7.18291 23.5683 7.70291 23.525C7.79825 23.5163 7.89358 23.512 7.98891 23.512C8.08425 23.5033 8.17525 23.499 8.26191 23.499C8.98991 23.499 9.67025 23.6073 10.3029 23.824C10.9442 24.032 11.5639 24.2573 12.1619 24.5C12.3439 24.2487 12.5519 24.0407 12.7859 23.876C13.0286 23.7113 13.2712 23.629 13.5139 23.629C13.6872 23.629 13.8432 23.6723 13.9819 23.759C14.0599 23.811 14.0989 23.876 14.0989 23.954C14.0989 24.0233 14.0772 24.0883 14.0339 24.149C13.9906 24.201 13.9342 24.227 13.8649 24.227C13.8389 24.227 13.8129 24.2227 13.7869 24.214C13.7696 24.1967 13.7479 24.1837 13.7219 24.175C13.6786 24.1403 13.6136 24.123 13.5269 24.123C13.4056 24.123 13.2669 24.1663 13.1109 24.253C12.9636 24.3397 12.8076 24.487 12.6429 24.695C13.0416 24.8423 13.4359 24.9767 13.8259 25.098C14.2246 25.2193 14.6319 25.293 15.0479 25.319C15.1259 25.319 15.2429 25.306 15.3989 25.28C15.5549 25.254 15.7022 25.2063 15.8409 25.137C15.9796 25.0677 16.0576 24.9767 16.0749 24.864C16.0576 24.812 16.0489 24.7773 16.0489 24.76C16.0489 24.6387 16.1182 24.578 16.2569 24.578C16.3262 24.578 16.3912 24.604 16.4519 24.656C16.5126 24.708 16.5429 24.7817 16.5429 24.877C16.5429 24.955 16.5169 25.046 16.4649 25.15C16.3436 25.3753 16.1659 25.5357 15.9319 25.631C15.7066 25.7263 15.4466 25.774 15.1519 25.774C14.7186 25.774 14.2462 25.7003 13.7349 25.553C13.2322 25.397 12.7772 25.241 12.3699 25.085C12.0666 25.5617 11.7719 26.0773 11.4859 26.632C11.1999 27.1867 10.9009 27.75 10.5889 28.322C10.2856 28.8853 9.95191 29.4313 9.58791 29.96C9.23258 30.48 8.83825 30.9437 8.40491 31.351C7.97158 31.767 7.48191 32.092 6.93591 32.326C6.38991 32.5687 5.77025 32.69 5.07691 32.69ZM12.1998 31.104C12.1391 31.104 12.0828 31.0823 12.0308 31.039C11.9788 31.0043 11.9571 30.948 11.9658 30.87C12.0005 30.4367 12.1218 29.9297 12.3298 29.349C12.5465 28.7683 12.8108 28.179 13.1228 27.581C13.0188 27.5723 12.9148 27.5593 12.8108 27.542C12.7501 27.5247 12.7025 27.4943 12.6678 27.451C12.6331 27.4077 12.6158 27.3643 12.6158 27.321C12.6158 27.2777 12.6288 27.2387 12.6548 27.204C12.6895 27.1607 12.7371 27.139 12.7978 27.139C12.8498 27.139 12.9061 27.1477 12.9668 27.165C13.0361 27.1737 13.1098 27.178 13.1878 27.178C13.2398 27.178 13.2875 27.178 13.3308 27.178C13.6341 26.5973 13.9548 26.0513 14.2928 25.54C14.6308 25.02 14.9428 24.5867 15.2288 24.24C15.4021 24.032 15.5841 23.8327 15.7748 23.642C15.9655 23.4513 16.1605 23.2953 16.3598 23.174C16.5678 23.044 16.7671 22.979 16.9578 22.979C17.2091 22.979 17.3825 23.0483 17.4778 23.187C17.5818 23.317 17.6338 23.4817 17.6338 23.681C17.6338 23.967 17.5558 24.2573 17.3998 24.552C17.2698 24.7947 17.0748 25.0763 16.8148 25.397C16.5548 25.709 16.2515 26.021 15.9048 26.333C15.5668 26.6363 15.1985 26.9007 14.7998 27.126C14.4098 27.3513 14.0111 27.4943 13.6038 27.555C13.4218 27.9017 13.2571 28.244 13.1098 28.582C12.9711 28.92 12.8498 29.2407 12.7458 29.544C12.8151 29.4573 12.8845 29.3707 12.9538 29.284C13.1791 29.0067 13.4045 28.7467 13.6298 28.504C13.8551 28.2527 14.1411 28.0013 14.4878 27.75C14.8345 27.4987 15.1421 27.2993 15.4108 27.152C15.6881 26.996 15.8701 26.9223 15.9568 26.931C16.1388 26.957 16.2298 27.0567 16.2298 27.23C16.2298 27.3427 16.1951 27.4727 16.1258 27.62C16.0651 27.7587 16.0001 27.8843 15.9308 27.997C15.8615 28.1097 15.8138 28.1877 15.7878 28.231C15.6925 28.3783 15.5625 28.5993 15.3978 28.894C15.2331 29.1887 15.0945 29.4747 14.9818 29.752C14.9471 29.8473 14.9125 29.947 14.8778 30.051C14.8518 30.1463 14.8388 30.2287 14.8388 30.298C14.8388 30.4107 14.8865 30.467 14.9818 30.467C15.0685 30.467 15.1941 30.4237 15.3588 30.337C15.5668 30.2243 15.7575 30.0813 15.9308 29.908C16.1128 29.726 16.2688 29.57 16.3988 29.44C16.4075 29.4313 16.4465 29.388 16.5158 29.31C16.5938 29.232 16.6675 29.154 16.7368 29.076C16.8148 28.998 16.8538 28.959 16.8538 28.959C16.8885 28.9157 16.9318 28.894 16.9838 28.894C17.0271 28.894 17.0661 28.92 17.1008 28.972C17.1441 29.0153 17.1658 29.0717 17.1658 29.141C17.1658 29.219 17.1441 29.284 17.1008 29.336C16.9708 29.518 16.7931 29.7173 16.5678 29.934C16.3425 30.1507 16.1431 30.3283 15.9698 30.467C15.7878 30.6057 15.6015 30.714 15.4108 30.792C15.2201 30.87 15.0468 30.909 14.8908 30.909C14.7261 30.909 14.5875 30.8613 14.4748 30.766C14.3708 30.6707 14.3188 30.519 14.3188 30.311C14.3188 30.1203 14.3621 29.908 14.4488 29.674C14.5701 29.3187 14.7478 28.9677 14.9818 28.621C15.2245 28.2743 15.4238 27.9407 15.5798 27.62C14.9471 27.9927 14.3621 28.4477 13.8248 28.985C13.2875 29.5223 12.8281 30.09 12.4468 30.688C12.4381 30.7573 12.4295 30.8267 12.4208 30.896C12.4208 30.9653 12.3948 31.0173 12.3428 31.052C12.2995 31.0867 12.2518 31.104 12.1998 31.104ZM16.9448 23.434C16.7801 23.434 16.5851 23.525 16.3598 23.707C16.1345 23.889 15.9005 24.1273 15.6578 24.422C15.4238 24.708 15.1898 25.02 14.9558 25.358C14.7218 25.6873 14.5095 26.008 14.3188 26.32C14.1281 26.6233 13.9765 26.8747 13.8638 27.074C14.2105 26.9527 14.5831 26.762 14.9818 26.502C15.3805 26.242 15.7575 25.93 16.1128 25.566C16.4681 25.202 16.7628 24.799 16.9968 24.357C17.0661 24.2183 17.1138 24.1013 17.1398 24.006C17.1745 23.902 17.1918 23.8153 17.1918 23.746C17.1918 23.6247 17.1615 23.5423 17.1008 23.499C17.0488 23.4557 16.9968 23.434 16.9448 23.434ZM17.0936 31.065C16.8509 31.065 16.6689 30.9957 16.5476 30.857C16.4349 30.7097 16.3786 30.5277 16.3786 30.311C16.3786 30.0683 16.4479 29.7867 16.5866 29.466C16.7339 29.1367 16.9246 28.7987 17.1586 28.452C17.3926 28.1053 17.6483 27.7847 17.9256 27.49C18.2116 27.1867 18.4976 26.944 18.7836 26.762C19.0696 26.5713 19.3339 26.476 19.5766 26.476C19.7413 26.476 19.9016 26.502 20.0576 26.554C20.2136 26.5973 20.3393 26.6883 20.4346 26.827C20.5386 26.9657 20.5906 27.1693 20.5906 27.438C20.5906 27.5333 20.5646 27.6027 20.5126 27.646C20.4606 27.6893 20.4129 27.711 20.3696 27.711C20.2743 27.711 20.2266 27.6763 20.2266 27.607C20.1833 27.3297 20.0923 27.1477 19.9536 27.061C19.8236 26.9743 19.6979 26.931 19.5766 26.931C19.4033 26.931 19.1996 27.0177 18.9656 27.191C18.7316 27.3643 18.4933 27.5853 18.2506 27.854C18.0079 28.1227 17.7783 28.413 17.5616 28.725C17.3536 29.0283 17.1846 29.323 17.0546 29.609C16.9246 29.8863 16.8596 30.116 16.8596 30.298C16.8596 30.3847 16.8726 30.4627 16.8986 30.532C16.9333 30.6013 16.9853 30.636 17.0546 30.636C17.1846 30.636 17.3536 30.5667 17.5616 30.428C17.7696 30.2893 17.9906 30.1117 18.2246 29.895C18.4673 29.6697 18.7056 29.4357 18.9396 29.193C19.1736 28.9503 19.3859 28.7207 19.5766 28.504C19.7673 28.2873 19.9146 28.114 20.0186 27.984C20.0706 27.906 20.1356 27.867 20.2136 27.867C20.2743 27.867 20.3306 27.8887 20.3826 27.932C20.4346 27.9753 20.4606 28.0317 20.4606 28.101C20.4606 28.1357 20.4476 28.1747 20.4216 28.218C20.3609 28.3133 20.2873 28.4477 20.2006 28.621C20.1226 28.7943 20.0403 28.9807 19.9536 29.18C19.8756 29.3793 19.8063 29.5657 19.7456 29.739C19.6936 29.9037 19.6676 30.0293 19.6676 30.116C19.6676 30.2027 19.6979 30.246 19.7586 30.246C19.8019 30.246 19.8539 30.2243 19.9146 30.181C19.9839 30.1377 20.0446 30.0987 20.0966 30.064C20.3046 29.8907 20.5039 29.7087 20.6946 29.518C20.8853 29.3187 21.0586 29.1323 21.2146 28.959C21.2493 28.9157 21.2926 28.894 21.3446 28.894C21.3879 28.894 21.4269 28.92 21.4616 28.972C21.5049 29.0153 21.5266 29.0717 21.5266 29.141C21.5266 29.219 21.5049 29.284 21.4616 29.336C21.3229 29.518 21.1409 29.7217 20.9156 29.947C20.6903 30.1637 20.4909 30.337 20.3176 30.467C20.2049 30.545 20.0706 30.623 19.9146 30.701C19.7673 30.7703 19.6243 30.805 19.4856 30.805C19.3816 30.805 19.2949 30.7747 19.2256 30.714C19.1563 30.6447 19.1216 30.5277 19.1216 30.363C19.1216 30.233 19.1433 30.0857 19.1866 29.921C19.2299 29.7563 19.2819 29.5873 19.3426 29.414C19.0999 29.674 18.8399 29.9297 18.5626 30.181C18.2853 30.4323 18.0166 30.6447 17.7566 30.818C17.5053 30.9827 17.2843 31.065 17.0936 31.065ZM21.0064 31.299C20.9457 31.299 20.8894 31.2773 20.8374 31.234C20.7854 31.1907 20.7594 31.1387 20.7594 31.078C20.7594 31.0607 20.768 31.026 20.7854 30.974C20.9587 30.6013 21.1277 30.2633 21.2924 29.96C21.4657 29.648 21.6434 29.3447 21.8254 29.05C21.9034 28.9287 21.99 28.7727 22.0854 28.582C22.1894 28.3827 22.289 28.1703 22.3844 27.945C22.4797 27.711 22.5577 27.49 22.6184 27.282C22.6877 27.074 22.7224 26.905 22.7224 26.775C22.7224 26.7057 22.718 26.658 22.7094 26.632C22.7007 26.6233 22.6964 26.606 22.6964 26.58C22.6964 26.5107 22.7267 26.4543 22.7874 26.411C22.8567 26.359 22.9217 26.333 22.9824 26.333C23.0517 26.333 23.1167 26.3677 23.1774 26.437C23.238 26.4977 23.2684 26.606 23.2684 26.762C23.2684 26.892 23.238 27.0653 23.1774 27.282C23.1254 27.49 23.0344 27.7413 22.9044 28.036C22.835 28.1833 22.77 28.322 22.7094 28.452C22.6487 28.5733 22.588 28.6903 22.5274 28.803C22.8654 28.4477 23.212 28.1313 23.5674 27.854C23.9227 27.568 24.239 27.3427 24.5164 27.178C24.7937 27.0133 24.98 26.931 25.0754 26.931C25.1794 26.931 25.253 26.9613 25.2964 27.022C25.3397 27.0827 25.3614 27.152 25.3614 27.23C25.3614 27.3427 25.3267 27.4727 25.2574 27.62C25.1967 27.7587 25.1317 27.8843 25.0624 27.997C24.993 28.1097 24.9454 28.1877 24.9194 28.231C24.824 28.3783 24.694 28.5993 24.5294 28.894C24.3647 29.1887 24.226 29.4747 24.1134 29.752C24.0787 29.8473 24.044 29.947 24.0094 30.051C23.9834 30.1463 23.9704 30.2287 23.9704 30.298C23.9704 30.4107 24.018 30.467 24.1134 30.467C24.2 30.467 24.3257 30.4237 24.4904 30.337C24.6984 30.2243 24.889 30.0813 25.0624 29.908C25.2444 29.726 25.4004 29.57 25.5304 29.44C25.539 29.4313 25.578 29.388 25.6474 29.31C25.7254 29.232 25.799 29.154 25.8684 29.076C25.9464 28.998 25.9854 28.959 25.9854 28.959C26.02 28.9157 26.0634 28.894 26.1154 28.894C26.1587 28.894 26.1977 28.92 26.2324 28.972C26.2757 29.0153 26.2974 29.0717 26.2974 29.141C26.2974 29.219 26.2757 29.284 26.2324 29.336C26.1024 29.518 25.9247 29.7173 25.6994 29.934C25.474 30.1507 25.2747 30.3283 25.1014 30.467C24.9194 30.6057 24.733 30.7183 24.5424 30.805C24.3604 30.883 24.1784 30.922 23.9964 30.922C23.8404 30.922 23.7104 30.8917 23.6064 30.831C23.5024 30.7703 23.4504 30.61 23.4504 30.35C23.4504 30.0207 23.5327 29.6957 23.6974 29.375C23.8707 29.0543 24.0614 28.738 24.2694 28.426C24.486 28.114 24.6637 27.8193 24.8024 27.542C24.5857 27.672 24.2954 27.8713 23.9314 28.14C23.576 28.4087 23.199 28.725 22.8004 29.089C22.4104 29.4443 22.055 29.8343 21.7344 30.259C21.6737 30.3717 21.6087 30.493 21.5394 30.623C21.47 30.753 21.4007 30.896 21.3314 31.052C21.2534 31.2167 21.145 31.299 21.0064 31.299ZM25.8315 31.104C25.7708 31.104 25.7145 31.0823 25.6625 31.039C25.6105 31.0043 25.5888 30.948 25.5975 30.87C25.6322 30.4453 25.7448 29.9513 25.9355 29.388C26.1348 28.816 26.3732 28.2353 26.6505 27.646C26.5638 27.6373 26.4728 27.6243 26.3775 27.607C26.2648 27.581 26.2085 27.5073 26.2085 27.386C26.2085 27.3253 26.2258 27.2733 26.2605 27.23C26.3038 27.178 26.3558 27.152 26.4165 27.152C26.4772 27.152 26.5335 27.1607 26.5855 27.178C26.6375 27.1867 26.6938 27.191 26.7545 27.191C26.7978 27.191 26.8368 27.191 26.8715 27.191C27.1662 26.6103 27.4738 26.06 27.7945 25.54C28.1152 25.0113 28.4098 24.5737 28.6785 24.227C28.8432 24.019 29.0165 23.8197 29.1985 23.629C29.3892 23.4297 29.5798 23.2693 29.7705 23.148C29.9698 23.018 30.1648 22.953 30.3555 22.953C30.6068 22.953 30.7845 23.0267 30.8885 23.174C31.0012 23.3213 31.0575 23.5033 31.0575 23.72C31.0575 23.85 31.0402 23.9843 31.0055 24.123C30.9708 24.2617 30.9232 24.396 30.8625 24.526C30.7412 24.7773 30.5548 25.0633 30.3035 25.384C30.0522 25.7047 29.7575 26.021 29.4195 26.333C29.0902 26.645 28.7305 26.918 28.3405 27.152C27.9592 27.386 27.5735 27.5377 27.1835 27.607C26.8802 28.231 26.6288 28.8203 26.4295 29.375C26.5248 29.245 26.6375 29.102 26.7675 28.946C26.8975 28.7813 27.0448 28.608 27.2095 28.426C27.6428 27.9233 28.0935 27.5377 28.5615 27.269C29.0295 27.0003 29.4455 26.866 29.8095 26.866C30.0175 26.866 30.1735 26.918 30.2775 27.022C30.3815 27.1173 30.4335 27.2387 30.4335 27.386C30.4335 27.6287 30.3425 27.8583 30.1605 28.075C29.9785 28.2917 29.7358 28.478 29.4325 28.634C29.1292 28.79 28.7868 28.9027 28.4055 28.972C28.3448 29.0587 28.2885 29.1887 28.2365 29.362C28.1932 29.5267 28.1585 29.6653 28.1325 29.778C28.1065 29.882 28.0935 29.9773 28.0935 30.064C28.0935 30.246 28.1412 30.376 28.2365 30.454C28.3318 30.5233 28.4488 30.558 28.5875 30.558C28.8302 30.558 29.0988 30.4843 29.3935 30.337C29.6968 30.1897 29.9352 30.038 30.1085 29.882C30.2818 29.7347 30.4422 29.5787 30.5895 29.414C30.7455 29.2493 30.8842 29.0977 31.0055 28.959C31.0488 28.9157 31.0922 28.894 31.1355 28.894C31.2568 28.894 31.3175 28.9763 31.3175 29.141C31.3175 29.219 31.2958 29.284 31.2525 29.336C31.1225 29.518 30.9405 29.7217 30.7065 29.947C30.4812 30.1637 30.2818 30.337 30.1085 30.467C29.9178 30.6057 29.6708 30.7313 29.3675 30.844C29.0728 30.9567 28.7868 31.013 28.5095 31.013C28.2495 31.013 28.0285 30.948 27.8465 30.818C27.6645 30.6793 27.5735 30.4453 27.5735 30.116C27.5735 30.0727 27.5735 30.0337 27.5735 29.999C27.5735 29.9557 27.5778 29.9167 27.5865 29.882C27.6212 29.6393 27.6645 29.4357 27.7165 29.271C27.7772 29.1063 27.8768 28.8983 28.0155 28.647C28.1628 28.6297 28.3362 28.5863 28.5355 28.517C28.7435 28.4477 28.9342 28.374 29.1075 28.296C29.3068 28.2007 29.4888 28.075 29.6535 27.919C29.8268 27.7543 29.9135 27.6027 29.9135 27.464C29.9135 27.36 29.8312 27.308 29.6665 27.308C29.5538 27.308 29.3978 27.3513 29.1985 27.438C29.0078 27.516 28.8172 27.6113 28.6265 27.724C28.4445 27.8367 28.3058 27.932 28.2105 28.01C27.9418 28.2353 27.6602 28.517 27.3655 28.855C27.0795 29.1843 26.8152 29.531 26.5725 29.895C26.3385 30.259 26.1652 30.5927 26.0525 30.896C26.0525 30.9653 26.0265 31.0173 25.9745 31.052C25.9312 31.0867 25.8835 31.104 25.8315 31.104ZM30.3555 23.408C30.1908 23.408 30.0002 23.499 29.7835 23.681C29.5755 23.863 29.3588 24.1013 29.1335 24.396C28.9082 24.682 28.6872 24.994 28.4705 25.332C28.2538 25.6613 28.0588 25.9777 27.8855 26.281C27.7122 26.5843 27.5692 26.8357 27.4565 27.035C27.8032 26.905 28.1672 26.71 28.5485 26.45C28.9298 26.19 29.2895 25.8823 29.6275 25.527C29.9655 25.163 30.2385 24.7643 30.4465 24.331C30.5592 24.0797 30.6155 23.8847 30.6155 23.746C30.6155 23.616 30.5852 23.5293 30.5245 23.486C30.4638 23.434 30.4075 23.408 30.3555 23.408ZM33.709 30.909C33.5183 30.909 33.3753 30.844 33.28 30.714C33.1847 30.5753 33.137 30.4107 33.137 30.22C33.137 30.0727 33.163 29.921 33.215 29.765C33.3103 29.505 33.436 29.2493 33.592 28.998C33.748 28.738 33.9213 28.4737 34.112 28.205C34.1467 28.1443 34.203 28.0447 34.281 27.906C34.359 27.7673 34.4283 27.6243 34.489 27.477C34.5583 27.3297 34.5843 27.217 34.567 27.139C34.5497 26.983 34.567 26.8747 34.619 26.814C34.671 26.7447 34.7317 26.71 34.801 26.71C34.8877 26.71 34.9613 26.7533 35.022 26.84C35.0567 26.9093 35.074 27.0047 35.074 27.126C35.074 27.256 35.0437 27.4207 34.983 27.62C34.931 27.8107 34.827 28.023 34.671 28.257C34.5323 28.465 34.3807 28.686 34.216 28.92C34.06 29.154 33.9257 29.3837 33.813 29.609C33.709 29.8257 33.657 30.0207 33.657 30.194C33.657 30.35 33.709 30.428 33.813 30.428C33.865 30.428 33.943 30.402 34.047 30.35C34.177 30.2807 34.372 30.1507 34.632 29.96C34.892 29.7693 35.165 29.5527 35.451 29.31C35.7457 29.0673 36.0143 28.829 36.257 28.595C36.4997 28.361 36.6687 28.1703 36.764 28.023C36.8073 27.945 36.8853 27.906 36.998 27.906C37.076 27.906 37.1367 27.9277 37.18 27.971C37.232 28.0143 37.2363 28.0707 37.193 28.14C37.0977 28.4953 36.946 28.9157 36.738 29.401C36.53 29.8863 36.296 30.389 36.036 30.909C36.1833 30.909 36.335 30.9307 36.491 30.974C36.595 31 36.647 31.065 36.647 31.169C36.647 31.2383 36.6167 31.3033 36.556 31.364C36.504 31.4247 36.4347 31.442 36.348 31.416C36.2873 31.3987 36.2267 31.3857 36.166 31.377C36.1053 31.3683 36.0403 31.364 35.971 31.364C35.9103 31.364 35.854 31.364 35.802 31.364C35.5333 31.884 35.256 32.378 34.97 32.846C34.684 33.3227 34.4197 33.73 34.177 34.068C33.9517 34.38 33.696 34.679 33.41 34.965C33.1327 35.251 32.8423 35.485 32.539 35.667C32.227 35.849 31.915 35.94 31.603 35.94C31.265 35.94 31.005 35.8577 30.823 35.693C30.641 35.5283 30.55 35.3117 30.55 35.043C30.55 34.7743 30.628 34.4753 30.784 34.146C30.9313 33.8167 31.1307 33.4873 31.382 33.158C31.6767 32.7853 32.045 32.4387 32.487 32.118C32.9203 31.806 33.397 31.5417 33.917 31.325C34.437 31.117 34.9657 30.987 35.503 30.935C35.659 30.6317 35.802 30.3413 35.932 30.064C36.0707 29.778 36.192 29.5137 36.296 29.271C35.9493 29.5917 35.581 29.8863 35.191 30.155C34.801 30.4237 34.4803 30.623 34.229 30.753C34.0383 30.857 33.865 30.909 33.709 30.909ZM31.655 35.485C31.9323 35.485 32.227 35.368 32.539 35.134C32.8423 34.9087 33.15 34.5967 33.462 34.198C33.7827 33.808 34.0947 33.3703 34.398 32.885C34.7013 32.4083 34.9873 31.9187 35.256 31.416C34.5713 31.52 33.9127 31.754 33.28 32.118C32.6473 32.482 32.1403 32.9153 31.759 33.418C31.681 33.522 31.5857 33.665 31.473 33.847C31.3517 34.029 31.2477 34.2197 31.161 34.419C31.0743 34.6183 31.031 34.8047 31.031 34.978C31.031 35.1253 31.0787 35.2467 31.174 35.342C31.2607 35.4373 31.421 35.485 31.655 35.485ZM38.5185 31.221C38.2238 31.221 38.0158 31.1387 37.8945 30.974C37.7732 30.8007 37.7125 30.5883 37.7125 30.337C37.7125 30.129 37.7428 29.9037 37.8035 29.661C37.8728 29.4097 37.9595 29.1627 38.0635 28.92C38.0722 28.582 38.1632 28.2483 38.3365 27.919C38.5185 27.5897 38.7612 27.3167 39.0645 27.1C39.3765 26.8833 39.7405 26.775 40.1565 26.775C40.5638 26.775 40.8455 26.892 41.0015 27.126C41.1662 27.36 41.2485 27.6373 41.2485 27.958C41.2485 28.1487 41.2268 28.3437 41.1835 28.543C41.1402 28.7337 41.0838 28.9157 41.0145 29.089C40.9452 29.2623 40.8585 29.44 40.7545 29.622C40.6505 29.7953 40.5335 29.9687 40.4035 30.142C40.6635 30.0987 40.8888 30.0163 41.0795 29.895C41.2788 29.765 41.4782 29.5873 41.6775 29.362C41.8768 29.1367 42.1108 28.8507 42.3795 28.504C42.4315 28.4433 42.4878 28.413 42.5485 28.413C42.6178 28.413 42.6742 28.4347 42.7175 28.478C42.7695 28.5213 42.7955 28.5777 42.7955 28.647C42.7955 28.699 42.7782 28.7467 42.7435 28.79C42.4922 29.1367 42.2365 29.4487 41.9765 29.726C41.7252 30.0033 41.4392 30.22 41.1185 30.376C40.7978 30.532 40.4122 30.61 39.9615 30.61C39.7535 30.792 39.5282 30.9393 39.2855 31.052C39.0428 31.1647 38.7872 31.221 38.5185 31.221ZM39.2725 27.854C39.1685 27.932 39.0428 28.088 38.8955 28.322C38.7482 28.556 38.6138 28.8117 38.4925 29.089C38.5098 29.3577 38.6182 29.6003 38.8175 29.817C39.0255 30.025 39.3418 30.142 39.7665 30.168C40.0785 29.8647 40.3298 29.5093 40.5205 29.102C40.7112 28.686 40.8065 28.3133 40.8065 27.984C40.8065 27.7587 40.7545 27.5767 40.6505 27.438C40.5465 27.2993 40.3818 27.23 40.1565 27.23C40.0005 27.23 39.8488 27.256 39.7015 27.308C39.5542 27.36 39.4198 27.4293 39.2985 27.516C39.3418 27.5593 39.3635 27.6113 39.3635 27.672C39.3635 27.7413 39.3332 27.802 39.2725 27.854ZM38.1675 30.311C38.1675 30.4497 38.1935 30.5623 38.2455 30.649C38.3062 30.727 38.3972 30.766 38.5185 30.766C38.7698 30.766 39.0255 30.688 39.2855 30.532C39.0342 30.4713 38.8218 30.376 38.6485 30.246C38.4752 30.1073 38.3408 29.9513 38.2455 29.778C38.1935 29.986 38.1675 30.1637 38.1675 30.311ZM41.7995 31.026C41.6608 31.026 41.5568 30.9783 41.4875 30.883C41.4181 30.7877 41.3835 30.6707 41.3835 30.532C41.3835 30.3067 41.4441 30.0727 41.5655 29.83C41.6868 29.5787 41.8341 29.3273 42.0075 29.076C42.1808 28.8247 42.3715 28.5647 42.5795 28.296C42.6228 28.244 42.6835 28.153 42.7615 28.023C42.8481 27.893 42.9261 27.7587 42.9955 27.62C43.0648 27.4813 43.0951 27.373 43.0865 27.295C43.0778 27.1477 43.1081 27.0393 43.1775 26.97C43.2468 26.892 43.3248 26.853 43.4115 26.853C43.4981 26.853 43.5631 26.8877 43.6065 26.957C43.6585 27.035 43.6845 27.1303 43.6845 27.243C43.6845 27.3643 43.6411 27.516 43.5545 27.698C43.4765 27.8713 43.3378 28.0923 43.1385 28.361C42.9825 28.569 42.8091 28.7943 42.6185 29.037C42.4365 29.271 42.2805 29.5007 42.1505 29.726C42.0205 29.9513 41.9555 30.142 41.9555 30.298C41.9555 30.4107 42.0031 30.467 42.0985 30.467C42.1591 30.467 42.2458 30.441 42.3585 30.389C42.4971 30.3197 42.6878 30.1853 42.9305 29.986C43.1818 29.7867 43.4418 29.5613 43.7105 29.31C43.9878 29.05 44.2391 28.7987 44.4645 28.556C44.6985 28.3133 44.8675 28.1227 44.9715 27.984C45.0235 27.906 45.0885 27.867 45.1665 27.867C45.2271 27.867 45.2835 27.8887 45.3355 27.932C45.3875 27.9753 45.4135 28.0317 45.4135 28.101C45.4135 28.1357 45.4005 28.1747 45.3745 28.218C45.3225 28.3133 45.2531 28.4477 45.1665 28.621C45.0798 28.7943 44.9931 28.9807 44.9065 29.18C44.8285 29.3793 44.7591 29.5657 44.6985 29.739C44.6465 29.9037 44.6205 30.0293 44.6205 30.116C44.6205 30.2113 44.6508 30.259 44.7115 30.259C44.7548 30.259 44.8068 30.2373 44.8675 30.194C44.9368 30.142 44.9975 30.0987 45.0495 30.064C45.2661 29.8907 45.4655 29.7087 45.6475 29.518C45.8381 29.3187 46.0115 29.1323 46.1675 28.959C46.2021 28.9157 46.2455 28.894 46.2975 28.894C46.3408 28.894 46.3798 28.92 46.4145 28.972C46.4578 29.0153 46.4795 29.0717 46.4795 29.141C46.4795 29.219 46.4578 29.284 46.4145 29.336C46.2758 29.518 46.0938 29.7217 45.8685 29.947C45.6431 30.1637 45.4438 30.337 45.2705 30.467C45.1578 30.545 45.0235 30.623 44.8675 30.701C44.7201 30.7703 44.5815 30.805 44.4515 30.805C44.3388 30.805 44.2478 30.7747 44.1785 30.714C44.1178 30.6447 44.0875 30.5277 44.0875 30.363C44.0875 30.2243 44.1091 30.064 44.1525 29.882C44.2045 29.7 44.2651 29.5137 44.3345 29.323C44.0398 29.6177 43.7061 29.9123 43.3335 30.207C42.9695 30.5017 42.6358 30.7227 42.3325 30.87C42.1158 30.974 41.9381 31.026 41.7995 31.026ZM49.4649 31.429C49.1442 31.429 48.9016 31.3423 48.7369 31.169C48.5722 31.0043 48.4899 30.8483 48.4899 30.701C48.4899 30.5103 48.5852 30.415 48.7759 30.415C48.8192 30.415 48.8626 30.4193 48.9059 30.428C48.9492 30.4367 48.9969 30.454 49.0489 30.48C49.2309 30.5667 49.4259 30.6317 49.6339 30.675C49.8506 30.7097 50.0586 30.7313 50.2579 30.74C50.3359 30.7227 50.4096 30.61 50.4789 30.402C50.5482 30.194 50.6002 29.9947 50.6349 29.804C50.6609 29.622 50.6739 29.4357 50.6739 29.245C50.6739 28.9677 50.6522 28.686 50.6089 28.4C50.5656 28.114 50.5266 27.828 50.4919 27.542C50.2579 27.854 50.0109 28.1703 49.7509 28.491C49.4909 28.803 49.2482 29.089 49.0229 29.349C48.7976 29.609 48.6069 29.8083 48.4509 29.947C48.4162 29.9817 48.3729 29.999 48.3209 29.999C48.2602 29.999 48.2082 29.9773 48.1649 29.934C48.1216 29.882 48.0999 29.8257 48.0999 29.765C48.0999 29.687 48.1302 29.622 48.1909 29.57C48.2689 29.492 48.3946 29.3577 48.5679 29.167C48.7412 28.9763 48.9362 28.751 49.1529 28.491C49.3782 28.2223 49.6036 27.945 49.8289 27.659C50.0542 27.3643 50.2622 27.087 50.4529 26.827C50.4616 26.7403 50.4702 26.658 50.4789 26.58C50.4876 26.4933 50.5006 26.411 50.5179 26.333C50.5786 26.0643 50.6912 25.8607 50.8559 25.722C51.0292 25.5747 51.1809 25.501 51.3109 25.501C51.4669 25.501 51.5449 25.5833 51.5449 25.748C51.5449 25.8693 51.4799 26.047 51.3499 26.281C51.2892 26.3763 51.2242 26.4803 51.1549 26.593C51.0856 26.697 51.0076 26.8097 50.9209 26.931C50.9209 27.2603 50.9512 27.6027 51.0119 27.958C51.0726 28.3047 51.1072 28.5647 51.1159 28.738C51.1246 28.8247 51.1289 28.9113 51.1289 28.998C51.1376 29.0847 51.1419 29.1757 51.1419 29.271C51.1419 29.5137 51.1202 29.7563 51.0769 29.999C51.0422 30.2417 50.9686 30.4627 50.8559 30.662C51.0899 30.5753 51.3326 30.4627 51.5839 30.324C51.8352 30.1767 52.0519 30.0207 52.2339 29.856C52.4072 29.7087 52.5676 29.5527 52.7149 29.388C52.8622 29.2233 53.0009 29.0717 53.1309 28.933C53.1656 28.8897 53.2089 28.868 53.2609 28.868C53.3042 28.868 53.3432 28.894 53.3779 28.946C53.4212 28.9893 53.4429 29.0457 53.4429 29.115C53.4429 29.193 53.4212 29.258 53.3779 29.31C53.2479 29.492 53.0659 29.6957 52.8319 29.921C52.6066 30.1377 52.4072 30.311 52.2339 30.441C52.0086 30.6057 51.7312 30.753 51.4019 30.883C51.0726 31.013 50.7346 31.1083 50.3879 31.169C50.2146 31.273 50.0109 31.351 49.7769 31.403C49.7162 31.4117 49.6599 31.416 49.6079 31.416C49.5559 31.4247 49.5082 31.429 49.4649 31.429ZM53.6894 31.221C53.3947 31.221 53.1867 31.1387 53.0654 30.974C52.9441 30.8007 52.8834 30.5883 52.8834 30.337C52.8834 30.129 52.9137 29.9037 52.9744 29.661C53.0437 29.4097 53.1304 29.1627 53.2344 28.92C53.2431 28.582 53.3341 28.2483 53.5074 27.919C53.6894 27.5897 53.9321 27.3167 54.2354 27.1C54.5474 26.8833 54.9114 26.775 55.3274 26.775C55.7347 26.775 56.0164 26.892 56.1724 27.126C56.3371 27.36 56.4194 27.6373 56.4194 27.958C56.4194 28.1487 56.3977 28.3437 56.3544 28.543C56.3111 28.7337 56.2547 28.9157 56.1854 29.089C56.1161 29.2623 56.0294 29.44 55.9254 29.622C55.8214 29.7953 55.7044 29.9687 55.5744 30.142C55.8344 30.0987 56.0597 30.0163 56.2504 29.895C56.4497 29.765 56.6491 29.5873 56.8484 29.362C57.0477 29.1367 57.2817 28.8507 57.5504 28.504C57.6024 28.4433 57.6587 28.413 57.7194 28.413C57.7887 28.413 57.8451 28.4347 57.8884 28.478C57.9404 28.5213 57.9664 28.5777 57.9664 28.647C57.9664 28.699 57.9491 28.7467 57.9144 28.79C57.6631 29.1367 57.4074 29.4487 57.1474 29.726C56.8961 30.0033 56.6101 30.22 56.2894 30.376C55.9687 30.532 55.5831 30.61 55.1324 30.61C54.9244 30.792 54.6991 30.9393 54.4564 31.052C54.2137 31.1647 53.9581 31.221 53.6894 31.221ZM54.4434 27.854C54.3394 27.932 54.2137 28.088 54.0664 28.322C53.9191 28.556 53.7847 28.8117 53.6634 29.089C53.6807 29.3577 53.7891 29.6003 53.9884 29.817C54.1964 30.025 54.5127 30.142 54.9374 30.168C55.2494 29.8647 55.5007 29.5093 55.6914 29.102C55.8821 28.686 55.9774 28.3133 55.9774 27.984C55.9774 27.7587 55.9254 27.5767 55.8214 27.438C55.7174 27.2993 55.5527 27.23 55.3274 27.23C55.1714 27.23 55.0197 27.256 54.8724 27.308C54.7251 27.36 54.5907 27.4293 54.4694 27.516C54.5127 27.5593 54.5344 27.6113 54.5344 27.672C54.5344 27.7413 54.5041 27.802 54.4434 27.854ZM53.3384 30.311C53.3384 30.4497 53.3644 30.5623 53.4164 30.649C53.4771 30.727 53.5681 30.766 53.6894 30.766C53.9407 30.766 54.1964 30.688 54.4564 30.532C54.2051 30.4713 53.9927 30.376 53.8194 30.246C53.6461 30.1073 53.5117 29.9513 53.4164 29.778C53.3644 29.986 53.3384 30.1637 53.3384 30.311ZM59.6899 31.312C59.6206 31.312 59.5556 31.286 59.4949 31.234C59.4342 31.1907 59.4039 31.1387 59.4039 31.078C59.4039 31.0607 59.4039 31.0433 59.4039 31.026C59.4126 31.0087 59.4212 30.9913 59.4299 30.974C59.6032 30.6013 59.7679 30.2807 59.9239 30.012C60.0799 29.7433 60.2056 29.5137 60.3009 29.323C60.4742 28.9937 60.5956 28.7207 60.6649 28.504C60.7429 28.2873 60.7819 28.088 60.7819 27.906C60.7819 27.8453 60.7732 27.789 60.7559 27.737C60.7472 27.685 60.7429 27.6287 60.7429 27.568C60.7429 27.4467 60.7776 27.3513 60.8469 27.282C60.9249 27.2127 61.0072 27.178 61.0939 27.178C61.2152 27.178 61.2932 27.2473 61.3279 27.386C61.3539 27.49 61.3669 27.607 61.3669 27.737C61.3669 27.789 61.3626 27.8453 61.3539 27.906C61.3539 27.9667 61.3496 28.0273 61.3409 28.088C61.4622 27.9233 61.5749 27.776 61.6789 27.646C61.7829 27.516 61.8739 27.4077 61.9519 27.321C62.1166 27.1477 62.2986 27.0047 62.4979 26.892C62.7059 26.7793 62.8966 26.723 63.0699 26.723C63.2432 26.723 63.3862 26.788 63.4989 26.918C63.6116 27.048 63.6679 27.269 63.6679 27.581C63.6679 27.7977 63.6462 28.0273 63.6029 28.27C63.5596 28.5127 63.5032 28.7597 63.4339 29.011C63.7026 28.7163 63.9756 28.465 64.2529 28.257C64.5302 28.049 64.7816 27.88 65.0069 27.75C65.3362 27.568 65.5746 27.477 65.7219 27.477C65.8866 27.477 65.9689 27.5723 65.9689 27.763C65.9689 27.841 65.9559 27.9407 65.9299 28.062C65.9039 28.1833 65.8562 28.322 65.7869 28.478L65.2669 29.752C65.2322 29.8473 65.1976 29.9427 65.1629 30.038C65.1369 30.1333 65.1239 30.2157 65.1239 30.285C65.1239 30.4063 65.1759 30.467 65.2799 30.467C65.3666 30.467 65.4966 30.4237 65.6699 30.337C65.8692 30.2243 66.0599 30.0813 66.2419 29.908C66.4239 29.726 66.5756 29.57 66.6969 29.44C66.7056 29.4313 66.7446 29.388 66.8139 29.31C66.8919 29.232 66.9656 29.154 67.0349 29.076C67.1129 28.998 67.1562 28.959 67.1649 28.959C67.1996 28.9157 67.2429 28.894 67.2949 28.894C67.3382 28.894 67.3772 28.92 67.4119 28.972C67.4552 29.0153 67.4769 29.0717 67.4769 29.141C67.4769 29.219 67.4552 29.284 67.4119 29.336C67.2732 29.518 67.0912 29.7173 66.8659 29.934C66.6492 30.1507 66.4542 30.3283 66.2809 30.467C66.0989 30.6057 65.8952 30.74 65.6699 30.87C65.4446 31 65.2409 31.065 65.0589 31.065C64.9029 31.065 64.7772 31.026 64.6819 30.948C64.5866 30.8613 64.5476 30.6967 64.5649 30.454C64.5822 30.3153 64.6299 30.1377 64.7079 29.921C64.7859 29.6957 64.8726 29.4617 64.9679 29.219C65.0719 28.9763 65.1672 28.7467 65.2539 28.53C65.3406 28.3133 65.4012 28.14 65.4359 28.01C65.1152 28.192 64.7469 28.4433 64.3309 28.764C63.9149 29.076 63.5032 29.492 63.0959 30.012C63.0526 30.1247 63.0049 30.2373 62.9529 30.35C62.9096 30.454 62.8619 30.5623 62.8099 30.675C62.7752 30.7617 62.7059 30.805 62.6019 30.805C62.5326 30.805 62.4719 30.7747 62.4199 30.714C62.3679 30.6533 62.3592 30.5797 62.3939 30.493C62.6279 29.9643 62.8142 29.453 62.9529 28.959C63.0916 28.465 63.1609 28.0187 63.1609 27.62C63.1609 27.334 63.0872 27.191 62.9399 27.191C62.8532 27.191 62.7492 27.2343 62.6279 27.321C62.5152 27.4077 62.4026 27.5117 62.2899 27.633C62.1512 27.7803 61.9519 28.01 61.6919 28.322C61.4406 28.6253 61.1849 28.9503 60.9249 29.297L60.8729 29.401C60.7602 29.635 60.6302 29.882 60.4829 30.142C60.3356 30.3933 60.1796 30.7053 60.0149 31.078C59.9802 31.1647 59.9326 31.2253 59.8719 31.26C59.8112 31.2947 59.7506 31.312 59.6899 31.312ZM66.8981 31.026C66.7594 31.026 66.6554 30.9783 66.5861 30.883C66.5168 30.7877 66.4821 30.6707 66.4821 30.532C66.4821 30.3067 66.5428 30.0727 66.6641 29.83C66.7854 29.5787 66.9328 29.3273 67.1061 29.076C67.2794 28.8247 67.4701 28.5647 67.6781 28.296C67.7214 28.244 67.7821 28.153 67.8601 28.023C67.9468 27.893 68.0248 27.7587 68.0941 27.62C68.1634 27.4813 68.1938 27.373 68.1851 27.295C68.1764 27.1477 68.2068 27.0393 68.2761 26.97C68.3454 26.892 68.4234 26.853 68.5101 26.853C68.5968 26.853 68.6618 26.8877 68.7051 26.957C68.7571 27.035 68.7831 27.1303 68.7831 27.243C68.7831 27.3643 68.7398 27.516 68.6531 27.698C68.5751 27.8713 68.4364 28.0923 68.2371 28.361C68.0811 28.569 67.9078 28.7943 67.7171 29.037C67.5351 29.271 67.3791 29.5007 67.2491 29.726C67.1191 29.9513 67.0541 30.142 67.0541 30.298C67.0541 30.4107 67.1018 30.467 67.1971 30.467C67.2578 30.467 67.3444 30.441 67.4571 30.389C67.5958 30.3197 67.7864 30.1853 68.0291 29.986C68.2804 29.7867 68.5404 29.5613 68.8091 29.31C69.0864 29.05 69.3378 28.7987 69.5631 28.556C69.7971 28.3133 69.9661 28.1227 70.0701 27.984C70.1221 27.906 70.1871 27.867 70.2651 27.867C70.3258 27.867 70.3821 27.8887 70.4341 27.932C70.4861 27.9753 70.5121 28.0317 70.5121 28.101C70.5121 28.1357 70.4991 28.1747 70.4731 28.218C70.4211 28.3133 70.3518 28.4477 70.2651 28.621C70.1784 28.7943 70.0918 28.9807 70.0051 29.18C69.9271 29.3793 69.8578 29.5657 69.7971 29.739C69.7451 29.9037 69.7191 30.0293 69.7191 30.116C69.7191 30.2113 69.7494 30.259 69.8101 30.259C69.8534 30.259 69.9054 30.2373 69.9661 30.194C70.0354 30.142 70.0961 30.0987 70.1481 30.064C70.3648 29.8907 70.5641 29.7087 70.7461 29.518C70.9368 29.3187 71.1101 29.1323 71.2661 28.959C71.3008 28.9157 71.3441 28.894 71.3961 28.894C71.4394 28.894 71.4784 28.92 71.5131 28.972C71.5564 29.0153 71.5781 29.0717 71.5781 29.141C71.5781 29.219 71.5564 29.284 71.5131 29.336C71.3744 29.518 71.1924 29.7217 70.9671 29.947C70.7418 30.1637 70.5424 30.337 70.3691 30.467C70.2564 30.545 70.1221 30.623 69.9661 30.701C69.8188 30.7703 69.6801 30.805 69.5501 30.805C69.4374 30.805 69.3464 30.7747 69.2771 30.714C69.2164 30.6447 69.1861 30.5277 69.1861 30.363C69.1861 30.2243 69.2078 30.064 69.2511 29.882C69.3031 29.7 69.3638 29.5137 69.4331 29.323C69.1384 29.6177 68.8048 29.9123 68.4321 30.207C68.0681 30.5017 67.7344 30.7227 67.4311 30.87C67.2144 30.974 67.0368 31.026 66.8981 31.026ZM72.078 31.091C71.714 31.091 71.4367 31 71.246 30.818C71.064 30.636 70.973 30.402 70.973 30.116C70.973 29.7867 71.038 29.4747 71.168 29.18C71.3067 28.8853 71.4627 28.6123 71.636 28.361C71.8873 27.997 72.1863 27.6893 72.533 27.438C72.8883 27.178 73.2567 27.048 73.638 27.048C73.8893 27.048 74.0627 27.1087 74.158 27.23C74.2533 27.3427 74.301 27.4857 74.301 27.659C74.301 27.841 74.262 28.0317 74.184 28.231C74.106 28.4217 74.0193 28.5733 73.924 28.686C73.8633 28.7553 73.7983 28.79 73.729 28.79C73.5903 28.79 73.521 28.7293 73.521 28.608C73.521 28.5473 73.547 28.491 73.599 28.439C73.6423 28.3957 73.6943 28.296 73.755 28.14C73.8243 27.9753 73.859 27.8323 73.859 27.711C73.859 27.5897 73.82 27.5247 73.742 27.516C73.716 27.5073 73.6813 27.503 73.638 27.503C73.4647 27.503 73.2697 27.5723 73.053 27.711C72.8363 27.841 72.6283 28.0143 72.429 28.231C72.2297 28.4477 72.0607 28.6773 71.922 28.92C71.8093 29.1107 71.7183 29.3143 71.649 29.531C71.5797 29.7477 71.545 29.934 71.545 30.09C71.545 30.2547 71.5927 30.3847 71.688 30.48C71.792 30.5753 71.9393 30.623 72.13 30.623C72.4333 30.623 72.7497 30.5407 73.079 30.376C73.417 30.2113 73.69 30.0423 73.898 29.869C74.0713 29.7217 74.2317 29.57 74.379 29.414C74.5263 29.2493 74.665 29.0977 74.795 28.959C74.8297 28.9157 74.873 28.894 74.925 28.894C74.9683 28.894 75.0073 28.92 75.042 28.972C75.0853 29.0153 75.107 29.0717 75.107 29.141C75.107 29.219 75.0853 29.284 75.042 29.336C74.9033 29.518 74.7213 29.7217 74.496 29.947C74.2707 30.1637 74.0713 30.337 73.898 30.467C73.6553 30.6403 73.365 30.7877 73.027 30.909C72.689 31.0303 72.3727 31.091 72.078 31.091ZM74.7623 31.104C74.7016 31.104 74.6453 31.0823 74.5933 31.039C74.5413 31.0043 74.5196 30.948 74.5283 30.87C74.563 30.4367 74.6843 29.9297 74.8923 29.349C75.109 28.7683 75.3733 28.179 75.6853 27.581C75.5813 27.5723 75.4773 27.5593 75.3733 27.542C75.3126 27.5247 75.265 27.4943 75.2303 27.451C75.1956 27.4077 75.1783 27.3643 75.1783 27.321C75.1783 27.2777 75.1913 27.2387 75.2173 27.204C75.252 27.1607 75.2996 27.139 75.3603 27.139C75.4123 27.139 75.4686 27.1477 75.5293 27.165C75.5986 27.1737 75.6723 27.178 75.7503 27.178C75.8023 27.178 75.85 27.178 75.8933 27.178C76.1966 26.5973 76.5173 26.0513 76.8553 25.54C77.1933 25.02 77.5053 24.5867 77.7913 24.24C77.9646 24.032 78.1466 23.8327 78.3373 23.642C78.528 23.4513 78.723 23.2953 78.9223 23.174C79.1303 23.044 79.3296 22.979 79.5203 22.979C79.7716 22.979 79.945 23.0483 80.0403 23.187C80.1443 23.317 80.1963 23.4817 80.1963 23.681C80.1963 23.967 80.1183 24.2573 79.9623 24.552C79.8323 24.7947 79.6373 25.0763 79.3773 25.397C79.1173 25.709 78.814 26.021 78.4673 26.333C78.1293 26.6363 77.761 26.9007 77.3623 27.126C76.9723 27.3513 76.5736 27.4943 76.1663 27.555C75.9843 27.9017 75.8196 28.244 75.6723 28.582C75.5336 28.92 75.4123 29.2407 75.3083 29.544C75.3776 29.4573 75.447 29.3707 75.5163 29.284C75.7416 29.0067 75.967 28.7467 76.1923 28.504C76.4176 28.2527 76.7036 28.0013 77.0503 27.75C77.397 27.4987 77.7046 27.2993 77.9733 27.152C78.2506 26.996 78.4326 26.9223 78.5193 26.931C78.7013 26.957 78.7923 27.0567 78.7923 27.23C78.7923 27.3427 78.7576 27.4727 78.6883 27.62C78.6276 27.7587 78.5626 27.8843 78.4933 27.997C78.424 28.1097 78.3763 28.1877 78.3503 28.231C78.255 28.3783 78.125 28.5993 77.9603 28.894C77.7956 29.1887 77.657 29.4747 77.5443 29.752C77.5096 29.8473 77.475 29.947 77.4403 30.051C77.4143 30.1463 77.4013 30.2287 77.4013 30.298C77.4013 30.4107 77.449 30.467 77.5443 30.467C77.631 30.467 77.7566 30.4237 77.9213 30.337C78.1293 30.2243 78.32 30.0813 78.4933 29.908C78.6753 29.726 78.8313 29.57 78.9613 29.44C78.97 29.4313 79.009 29.388 79.0783 29.31C79.1563 29.232 79.23 29.154 79.2993 29.076C79.3773 28.998 79.4163 28.959 79.4163 28.959C79.451 28.9157 79.4943 28.894 79.5463 28.894C79.5896 28.894 79.6286 28.92 79.6633 28.972C79.7066 29.0153 79.7283 29.0717 79.7283 29.141C79.7283 29.219 79.7066 29.284 79.6633 29.336C79.5333 29.518 79.3556 29.7173 79.1303 29.934C78.905 30.1507 78.7056 30.3283 78.5323 30.467C78.3503 30.6057 78.164 30.714 77.9733 30.792C77.7826 30.87 77.6093 30.909 77.4533 30.909C77.2886 30.909 77.15 30.8613 77.0373 30.766C76.9333 30.6707 76.8813 30.519 76.8813 30.311C76.8813 30.1203 76.9246 29.908 77.0113 29.674C77.1326 29.3187 77.3103 28.9677 77.5443 28.621C77.787 28.2743 77.9863 27.9407 78.1423 27.62C77.5096 27.9927 76.9246 28.4477 76.3873 28.985C75.85 29.5223 75.3906 30.09 75.0093 30.688C75.0006 30.7573 74.992 30.8267 74.9833 30.896C74.9833 30.9653 74.9573 31.0173 74.9053 31.052C74.862 31.0867 74.8143 31.104 74.7623 31.104ZM79.5073 23.434C79.3426 23.434 79.1476 23.525 78.9223 23.707C78.697 23.889 78.463 24.1273 78.2203 24.422C77.9863 24.708 77.7523 25.02 77.5183 25.358C77.2843 25.6873 77.072 26.008 76.8813 26.32C76.6906 26.6233 76.539 26.8747 76.4263 27.074C76.773 26.9527 77.1456 26.762 77.5443 26.502C77.943 26.242 78.32 25.93 78.6753 25.566C79.0306 25.202 79.3253 24.799 79.5593 24.357C79.6286 24.2183 79.6763 24.1013 79.7023 24.006C79.737 23.902 79.7543 23.8153 79.7543 23.746C79.7543 23.6247 79.724 23.5423 79.6633 23.499C79.6113 23.4557 79.5593 23.434 79.5073 23.434Z" fill="white"/>
<defs>
<clipPath id="clip0_26_486">
<rect width="11.7343" height="12" fill="white" transform="translate(33.6329)"/>
</clipPath>
</defs>
</svg>
