<svg width="129" height="34" viewBox="0 0 129 34" fill="none" xmlns="http://www.w3.org/2000/svg">
<path d="M5.89202 2.664C5.89202 3.44 5.56002 4.044 4.89602 4.476C4.48002 4.748 3.95202 4.884 3.31202 4.884C3.04002 4.884 2.73202 4.856 2.38802 4.8V8.208C2.38802 8.392 2.39602 8.508 2.41202 8.556C2.45202 8.668 2.54002 8.736 2.67602 8.76C2.90802 8.792 3.13202 8.808 3.34802 8.808C3.43602 8.808 3.48002 8.836 3.48002 8.892C3.48002 8.972 3.42402 9.012 3.31202 9.012C3.26402 9.012 3.22402 9.008 3.19202 9C2.75202 9.008 1.92402 9.012 0.708016 9.012H0.552016C0.312016 9.012 0.192016 8.972 0.192016 8.892C0.192016 8.836 0.276016 8.808 0.444016 8.808C0.820016 8.808 1.03602 8.772 1.09202 8.7C1.15602 8.668 1.19202 8.588 1.20002 8.46V1.38C1.20002 1.132 1.13202 0.98 0.996016 0.924C0.916016 0.891999 0.776016 0.875999 0.576016 0.875999H0.456016C0.432016 0.883999 0.404016 0.887999 0.372016 0.887999C0.252016 0.887999 0.192016 0.851999 0.192016 0.779999C0.192016 0.699999 0.304016 0.659999 0.528016 0.659999H3.16802C4.08002 0.659999 4.74802 0.819999 5.17202 1.14C5.65202 1.5 5.89202 2.008 5.89202 2.664ZM4.63202 2.688C4.63202 1.488 4.12802 0.887999 3.12002 0.887999C2.78402 0.887999 2.56402 0.943999 2.46002 1.056C2.41202 1.104 2.38802 1.228 2.38802 1.428V4.62C2.45202 4.628 2.52402 4.632 2.60402 4.632C3.13202 4.632 3.58002 4.516 3.94802 4.284C4.40402 3.996 4.63202 3.464 4.63202 2.688ZM11.6509 8.928C11.6509 8.992 11.5829 9.024 11.4469 9.024C11.3829 9.024 11.3229 9.02 11.2669 9.012C10.9869 9.02 10.3629 9.024 9.39489 9.024H9.26289C9.15889 9.024 9.10689 8.992 9.10689 8.928C9.10689 8.872 9.25889 8.844 9.56289 8.844C9.74689 8.844 9.85089 8.824 9.87489 8.784C9.90689 8.736 9.92289 8.584 9.92289 8.328V5.892C9.92289 5.164 9.89089 4.712 9.82689 4.536C9.69089 4.168 9.39089 3.984 8.92689 3.984C8.54289 3.984 8.23089 4.156 7.99089 4.5C7.91089 4.612 7.87089 4.86 7.87089 5.244V8.304C7.87089 8.52 7.87489 8.644 7.88289 8.676C7.89089 8.756 7.92289 8.804 7.97889 8.82C8.03489 8.828 8.20689 8.836 8.49489 8.844C8.59089 8.844 8.63889 8.876 8.63889 8.94C8.63889 8.996 8.59889 9.024 8.51889 9.024C8.51889 9.024 8.47889 9.02 8.39889 9.012L7.45089 9C6.78689 8.992 6.41889 9 6.34689 9.024H6.22689C6.13889 9.024 6.09489 8.996 6.09489 8.94C6.09489 8.876 6.13889 8.844 6.22689 8.844H6.40689L6.58689 8.832C6.77089 8.84 6.86689 8.784 6.87489 8.664V3.276C6.87489 1.996 6.85489 1.304 6.81489 1.2C6.76689 1.12 6.57089 1.076 6.22689 1.068C6.03489 1.068 5.93889 1.04 5.93889 0.983999C5.93889 0.936 5.95889 0.908 5.99889 0.9C6.03889 0.891999 6.17489 0.883999 6.40689 0.875999C6.81489 0.868 7.20689 0.772 7.58289 0.588C7.61489 0.572 7.67089 0.552 7.75089 0.528C7.80689 0.624 7.83489 0.932 7.83489 1.452V4.392C8.18689 3.88 8.66689 3.624 9.27489 3.624C9.91489 3.624 10.3709 3.8 10.6429 4.152C10.7789 4.328 10.8629 4.576 10.8949 4.896C10.9109 5.008 10.9189 5.276 10.9189 5.7V8.724C10.9269 8.804 11.1349 8.844 11.5429 8.844C11.6149 8.86 11.6509 8.888 11.6509 8.928ZM17.0816 6.408C17.0816 7.184 16.8456 7.836 16.3736 8.364C15.9016 8.884 15.3136 9.144 14.6096 9.144C13.8816 9.144 13.2736 8.884 12.7856 8.364C12.2976 7.836 12.0536 7.184 12.0536 6.408C12.0536 5.608 12.2896 4.944 12.7616 4.416C13.2416 3.888 13.8376 3.624 14.5496 3.624C15.2696 3.624 15.8696 3.892 16.3496 4.428C16.8376 4.956 17.0816 5.616 17.0816 6.408ZM15.9896 6.396C15.9896 5.516 15.8536 4.832 15.5816 4.344C15.3816 3.984 15.0456 3.804 14.5736 3.804C14.1256 3.804 13.7736 4.036 13.5176 4.5C13.2696 4.956 13.1456 5.592 13.1456 6.408C13.1456 7.216 13.2776 7.848 13.5416 8.304C13.8136 8.752 14.1896 8.976 14.6696 8.976C15.0376 8.976 15.3096 8.836 15.4856 8.556C15.8216 8.028 15.9896 7.308 15.9896 6.396ZM21.0833 8.292C21.0833 8.364 20.9833 8.492 20.7833 8.676C20.4393 8.988 20.0313 9.144 19.5593 9.144C19.1193 9.144 18.7873 9.032 18.5633 8.808C18.4353 8.68 18.3713 8.304 18.3713 7.68V4.104C18.3633 4.024 18.3193 3.98 18.2393 3.972H17.7833C17.6073 3.972 17.5193 3.944 17.5193 3.888C17.5193 3.832 17.5633 3.8 17.6513 3.792C18.2753 3.736 18.7633 3.432 19.1153 2.88C19.1633 2.808 19.2233 2.772 19.2953 2.772C19.3513 2.772 19.3793 2.8 19.3793 2.856V2.904C19.3713 2.944 19.3673 3.012 19.3673 3.108C19.3673 3.444 19.3833 3.66 19.4153 3.756C19.4873 3.772 19.6073 3.78 19.7753 3.78C20.2153 3.78 20.5073 3.76 20.6513 3.72C20.6833 3.712 20.7113 3.708 20.7353 3.708C20.7993 3.708 20.8313 3.744 20.8313 3.816C20.8313 3.936 20.5073 3.996 19.8593 3.996C19.7473 3.996 19.5833 3.992 19.3673 3.984V6.204C19.3673 7.324 19.3953 8.028 19.4513 8.316C19.5073 8.596 19.6913 8.736 20.0033 8.736C20.2673 8.736 20.5633 8.588 20.8913 8.292C20.9233 8.252 20.9593 8.232 20.9993 8.232C21.0553 8.232 21.0833 8.252 21.0833 8.292ZM26.2574 6.408C26.2574 7.184 26.0214 7.836 25.5494 8.364C25.0774 8.884 24.4894 9.144 23.7854 9.144C23.0574 9.144 22.4494 8.884 21.9614 8.364C21.4734 7.836 21.2294 7.184 21.2294 6.408C21.2294 5.608 21.4654 4.944 21.9374 4.416C22.4174 3.888 23.0134 3.624 23.7254 3.624C24.4454 3.624 25.0454 3.892 25.5254 4.428C26.0134 4.956 26.2574 5.616 26.2574 6.408ZM25.1654 6.396C25.1654 5.516 25.0294 4.832 24.7574 4.344C24.5574 3.984 24.2214 3.804 23.7494 3.804C23.3014 3.804 22.9494 4.036 22.6934 4.5C22.4454 4.956 22.3214 5.592 22.3214 6.408C22.3214 7.216 22.4534 7.848 22.7174 8.304C22.9894 8.752 23.3654 8.976 23.8454 8.976C24.2134 8.976 24.4854 8.836 24.6614 8.556C24.9974 8.028 25.1654 7.308 25.1654 6.396ZM34.2496 6.144C34.2496 6.976 33.9976 7.684 33.4936 8.268C32.9896 8.852 32.3816 9.144 31.6696 9.144C31.4216 9.144 31.1616 9.092 30.8896 8.988C30.6176 8.884 30.4336 8.832 30.3376 8.832C30.2496 8.832 30.1496 8.872 30.0376 8.952C29.9256 9.024 29.8416 9.06 29.7856 9.06C29.7216 9.06 29.6896 8.928 29.6896 8.664V2.424C29.6896 1.616 29.6376 1.18 29.5336 1.116C29.4936 1.092 29.3376 1.08 29.0656 1.08C28.8736 1.08 28.7776 1.048 28.7776 0.983999C28.7776 0.928 28.8216 0.9 28.9096 0.9H29.0776C29.5176 0.9 29.9416 0.808 30.3496 0.624C30.4696 0.568 30.5536 0.539999 30.6016 0.539999H30.6496V4.308C30.9536 3.852 31.4096 3.624 32.0176 3.624C32.6896 3.624 33.2296 3.856 33.6376 4.32C34.0456 4.776 34.2496 5.384 34.2496 6.144ZM33.1576 6.204C33.1576 5.452 33.0376 4.872 32.7976 4.464C32.5656 4.056 32.2376 3.852 31.8136 3.852C31.5896 3.852 31.3776 3.924 31.1776 4.068C30.9776 4.204 30.8416 4.376 30.7696 4.584C30.6976 4.792 30.6616 5.424 30.6616 6.48C30.6616 7.584 30.6896 8.24 30.7456 8.448C30.8336 8.784 31.1256 8.952 31.6216 8.952C32.0936 8.952 32.4416 8.772 32.6656 8.412C32.9936 7.876 33.1576 7.14 33.1576 6.204ZM39.715 3.852C39.715 3.908 39.619 3.94 39.427 3.948C39.235 3.956 39.111 3.972 39.055 3.996C39.007 4.02 38.963 4.088 38.923 4.2L38.839 4.416L38.743 4.716C38.631 5.084 38.463 5.632 38.239 6.36C37.607 8.392 37.083 9.968 36.667 11.088C36.411 11.768 36.059 12.108 35.611 12.108C35.419 12.108 35.259 12.052 35.131 11.94C35.011 11.828 34.951 11.684 34.951 11.508C34.951 11.356 34.999 11.232 35.095 11.136C35.199 11.04 35.331 10.992 35.491 10.992C35.707 10.992 35.863 11.08 35.959 11.256C36.031 11.392 36.091 11.46 36.139 11.46C36.211 11.46 36.323 11.264 36.475 10.872C36.699 10.288 36.875 9.764 37.003 9.3C36.411 7.748 35.907 6.392 35.491 5.232C35.203 4.44 35.043 4.04 35.011 4.032C34.963 3.992 34.835 3.972 34.627 3.972C34.411 3.972 34.303 3.932 34.303 3.852C34.303 3.788 34.355 3.756 34.459 3.756C34.547 3.756 34.683 3.764 34.867 3.78C35.051 3.788 35.191 3.792 35.287 3.792C35.319 3.792 35.391 3.792 35.503 3.792C35.671 3.784 35.903 3.776 36.199 3.768L36.811 3.756C36.899 3.756 36.943 3.788 36.943 3.852C36.943 3.908 36.795 3.94 36.499 3.948C36.251 3.956 36.127 3.996 36.127 4.068C36.127 4.132 36.207 4.38 36.367 4.812C36.431 4.996 36.499 5.188 36.571 5.388L36.775 5.988C36.831 6.164 36.979 6.564 37.219 7.188C37.299 7.38 37.387 7.612 37.483 7.884C38.251 5.476 38.635 4.212 38.635 4.092C38.635 4.02 38.603 3.976 38.539 3.96C38.483 3.944 38.315 3.936 38.035 3.936C37.955 3.936 37.915 3.904 37.915 3.84C37.915 3.784 37.963 3.756 38.059 3.756C38.099 3.756 38.131 3.76 38.155 3.768C38.427 3.784 38.651 3.792 38.827 3.792H39.163C39.307 3.792 39.399 3.788 39.439 3.78C39.487 3.772 39.543 3.768 39.607 3.768C39.679 3.768 39.715 3.796 39.715 3.852ZM47.2979 6.66C47.2979 7.348 47.0339 7.936 46.5059 8.424C45.9859 8.904 45.3579 9.144 44.6219 9.144C44.1899 9.144 43.6739 9.012 43.0739 8.748C42.9139 8.676 42.7939 8.64 42.7139 8.64C42.6179 8.64 42.5579 8.756 42.5339 8.988C42.5259 9.108 42.4739 9.168 42.3779 9.168C42.2979 9.168 42.2579 9.12 42.2579 9.024C42.2579 8.96 42.2619 8.912 42.2699 8.88C42.3339 8.392 42.3659 7.94 42.3659 7.524C42.3659 7.444 42.3579 7.22 42.3419 6.852C42.3339 6.804 42.3299 6.74 42.3299 6.66C42.3299 6.54 42.3779 6.48 42.4739 6.48C42.5539 6.48 42.6099 6.576 42.6419 6.768C42.8499 8.192 43.5259 8.904 44.6699 8.904C45.1579 8.904 45.5339 8.768 45.7979 8.496C46.0699 8.216 46.2059 7.824 46.2059 7.32C46.2059 6.872 46.0739 6.492 45.8099 6.18C45.5539 5.86 45.1099 5.544 44.4779 5.232C43.7179 4.856 43.1899 4.492 42.8939 4.14C42.5979 3.788 42.4499 3.352 42.4499 2.832C42.4499 2.168 42.6619 1.62 43.0859 1.188C43.5179 0.756 44.0619 0.539999 44.7179 0.539999C44.9899 0.539999 45.3659 0.631999 45.8459 0.816C46.0139 0.88 46.1379 0.912 46.2179 0.912C46.3059 0.912 46.3619 0.896 46.3859 0.864C46.4179 0.832 46.4459 0.747999 46.4699 0.611999C46.4859 0.531999 46.5299 0.491999 46.6019 0.491999C46.6819 0.491999 46.7219 0.539999 46.7219 0.636C46.7219 0.7 46.7179 0.748 46.7099 0.779999C46.6859 0.972 46.6739 1.204 46.6739 1.476C46.6739 1.86 46.6939 2.164 46.7339 2.388L46.7459 2.58C46.7539 2.668 46.7179 2.712 46.6379 2.712C46.5499 2.712 46.4899 2.62 46.4579 2.436C46.3699 1.964 46.1619 1.572 45.8339 1.26C45.5059 0.939999 45.1379 0.779999 44.7299 0.779999C44.3299 0.779999 44.0099 0.907999 43.7699 1.164C43.5379 1.42 43.4219 1.768 43.4219 2.208C43.4219 2.72 43.5939 3.132 43.9379 3.444C44.1299 3.62 44.5459 3.868 45.1859 4.188C45.9379 4.564 46.4779 4.948 46.8059 5.34C47.1339 5.724 47.2979 6.164 47.2979 6.66ZM53.6465 8.592C53.6465 8.648 53.5585 8.68 53.3825 8.688C52.7585 8.728 52.2105 8.864 51.7385 9.096C51.7065 9.112 51.6785 9.12 51.6545 9.12C51.6065 9.12 51.5825 9.088 51.5825 9.024L51.5945 8.352C51.2265 8.88 50.7105 9.144 50.0465 9.144C49.4545 9.144 49.0305 8.972 48.7745 8.628C48.6705 8.484 48.6065 8.352 48.5825 8.232C48.5665 8.112 48.5585 7.788 48.5585 7.26V4.512C48.5585 4.232 48.5425 4.068 48.5105 4.02C48.4785 3.972 48.3705 3.944 48.1865 3.936L48.0305 3.948C47.8145 3.964 47.7065 3.932 47.7065 3.852C47.7065 3.796 47.7745 3.768 47.9105 3.768C48.0545 3.768 48.2625 3.776 48.5345 3.792C48.6705 3.8 48.7505 3.804 48.7745 3.804C49.0545 3.804 49.3145 3.792 49.5545 3.768V7.116C49.5545 7.732 49.5945 8.14 49.6745 8.34C49.8025 8.652 50.0625 8.808 50.4545 8.808C50.8785 8.808 51.1905 8.632 51.3905 8.28C51.5345 8.024 51.6065 7.616 51.6065 7.056V5.196C51.6065 4.924 51.6025 4.72 51.5945 4.584L51.5705 4.188C51.5625 4.068 51.5345 4 51.4865 3.984C51.4465 3.96 51.3585 3.948 51.2225 3.948C50.8865 3.956 50.7185 3.92 50.7185 3.84C50.7185 3.792 50.8025 3.768 50.9705 3.768H51.0785C51.1425 3.776 51.3545 3.78 51.7145 3.78C52.1945 3.78 52.4905 3.776 52.6025 3.768V7.116C52.6025 7.692 52.6145 8.056 52.6385 8.208C52.6625 8.36 52.7225 8.448 52.8185 8.472C52.9225 8.496 53.1505 8.508 53.5025 8.508C53.5985 8.508 53.6465 8.536 53.6465 8.592ZM59.3493 8.928C59.3493 8.992 59.2893 9.024 59.1693 9.024H59.0253C58.8813 9.008 58.6853 9 58.4373 9C57.6533 9 57.1893 9.008 57.0453 9.024H56.9613C56.8573 9.024 56.8053 8.996 56.8053 8.94C56.8053 8.9 56.8253 8.876 56.8653 8.868C56.9133 8.86 57.0693 8.852 57.3333 8.844C57.4853 8.836 57.5733 8.816 57.5973 8.784C57.6213 8.744 57.6333 8.612 57.6333 8.388V6.084C57.6333 5.212 57.6013 4.692 57.5373 4.524C57.4013 4.164 57.1293 3.984 56.7213 3.984C56.3213 3.984 55.9853 4.16 55.7133 4.512C55.6333 4.616 55.5933 4.76 55.5933 4.944L55.6053 8.688C55.6053 8.784 55.6893 8.836 55.8573 8.844L56.2173 8.856C56.2973 8.856 56.3373 8.884 56.3373 8.94C56.3373 8.996 56.2893 9.024 56.1933 9.024H56.0013C55.8253 9.008 55.5453 9 55.1613 9C55.0733 9 54.8813 9.004 54.5853 9.012C54.2973 9.02 54.1293 9.024 54.0813 9.024H54.0093C53.8893 9.024 53.8293 8.996 53.8293 8.94C53.8293 8.884 53.9013 8.848 54.0453 8.832C54.1493 8.832 54.2493 8.832 54.3453 8.832C54.4653 8.832 54.5373 8.804 54.5613 8.748L54.5973 8.568V5.952C54.5973 5.04 54.5893 4.536 54.5733 4.44C54.5573 4.344 54.4573 4.296 54.2733 4.296C54.2173 4.296 54.1213 4.304 53.9853 4.32H53.9253C53.7653 4.32 53.6853 4.292 53.6853 4.236C53.6853 4.164 53.7693 4.128 53.9373 4.128C54.1773 4.12 54.4373 4.076 54.7173 3.996C54.9973 3.916 55.1933 3.824 55.3053 3.72C55.3773 3.656 55.4333 3.624 55.4733 3.624C55.5293 3.624 55.5573 3.7 55.5573 3.852V4.428C55.9733 3.892 56.5093 3.624 57.1653 3.624C57.7413 3.624 58.1573 3.836 58.4133 4.26C58.5573 4.5 58.6293 4.956 58.6293 5.628V8.364C58.6293 8.62 58.6413 8.76 58.6653 8.784C58.7133 8.832 58.8293 8.856 59.0133 8.856C59.0373 8.856 59.0813 8.852 59.1453 8.844H59.2293C59.3093 8.844 59.3493 8.872 59.3493 8.928ZM67.6084 8.892C67.6084 8.964 67.5324 9 67.3804 9L65.7244 8.988C65.6124 8.988 65.4484 8.992 65.2324 9C65.0164 9.008 64.8564 9.012 64.7524 9.012C64.5924 9.012 64.5124 8.98 64.5124 8.916C64.5124 8.852 64.7004 8.808 65.0764 8.784C65.2764 8.768 65.3924 8.736 65.4244 8.688C65.4564 8.632 65.4724 8.444 65.4724 8.124V4.62H61.8604V8.016C61.8604 8.376 61.8884 8.588 61.9444 8.652C62.0004 8.716 62.1884 8.76 62.5084 8.784C62.7164 8.8 62.8204 8.836 62.8204 8.892C62.8204 8.964 62.7404 9 62.5804 9H62.4724C62.2804 9 62.0764 8.996 61.8604 8.988C61.6524 8.98 61.5284 8.976 61.4884 8.976C61.3764 8.976 61.2084 8.98 60.9844 8.988C60.7604 8.996 60.4244 9 59.9764 9C59.8164 9 59.7364 8.968 59.7364 8.904C59.7364 8.84 59.8164 8.8 59.9764 8.784C60.0804 8.776 60.1884 8.768 60.3004 8.76C60.4764 8.744 60.5884 8.704 60.6364 8.64C60.6604 8.6 60.6724 8.376 60.6724 7.968V1.632C60.6724 1.272 60.6524 1.06 60.6124 0.995999C60.5804 0.932 60.4564 0.896 60.2404 0.887999C59.9924 0.872 59.8444 0.86 59.7964 0.852C59.7564 0.844 59.7364 0.812 59.7364 0.756C59.7364 0.691999 59.7884 0.659999 59.8924 0.659999C59.9244 0.659999 59.9924 0.664 60.0964 0.672C60.2964 0.688 60.7684 0.696 61.5124 0.696C61.9204 0.696 62.2044 0.692 62.3644 0.684C62.4204 0.676 62.4924 0.672 62.5804 0.672C62.7244 0.672 62.7964 0.712 62.7964 0.792C62.7964 0.864 62.6644 0.9 62.4004 0.9C62.1444 0.9 61.9884 0.932 61.9324 0.995999C61.8844 1.052 61.8604 1.24 61.8604 1.56V4.32H65.4724V1.74C65.4724 1.316 65.4404 1.068 65.3764 0.995999C65.3124 0.915999 65.0884 0.879999 64.7044 0.887999C64.5844 0.887999 64.5244 0.851999 64.5244 0.779999C64.5244 0.708 64.5924 0.672 64.7284 0.672H64.7884C64.9004 0.672 65.0964 0.672 65.3764 0.672C65.6644 0.68 65.8804 0.684 66.0244 0.684C66.5124 0.684 66.8404 0.68 67.0084 0.672C67.1844 0.664 67.2964 0.659999 67.3444 0.659999C67.5124 0.659999 67.5964 0.695999 67.5964 0.767999C67.5964 0.839999 67.4204 0.879999 67.0684 0.887999C66.9644 0.887999 66.8884 0.895999 66.8404 0.912C66.7604 0.936 66.7084 0.98 66.6844 1.044C66.6684 1.108 66.6604 1.296 66.6604 1.608V7.992C66.6604 8.376 66.6804 8.6 66.7204 8.664C66.8004 8.752 67.0324 8.796 67.4164 8.796C67.5444 8.78 67.6084 8.812 67.6084 8.892ZM73.0314 3.852C73.0314 3.908 72.9354 3.94 72.7434 3.948C72.5514 3.956 72.4274 3.972 72.3714 3.996C72.3234 4.02 72.2794 4.088 72.2394 4.2L72.1554 4.416L72.0594 4.716C71.9474 5.084 71.7794 5.632 71.5554 6.36C70.9234 8.392 70.3994 9.968 69.9834 11.088C69.7274 11.768 69.3754 12.108 68.9274 12.108C68.7354 12.108 68.5754 12.052 68.4474 11.94C68.3274 11.828 68.2674 11.684 68.2674 11.508C68.2674 11.356 68.3154 11.232 68.4114 11.136C68.5154 11.04 68.6474 10.992 68.8074 10.992C69.0234 10.992 69.1794 11.08 69.2754 11.256C69.3474 11.392 69.4074 11.46 69.4554 11.46C69.5274 11.46 69.6394 11.264 69.7914 10.872C70.0154 10.288 70.1914 9.764 70.3194 9.3C69.7274 7.748 69.2234 6.392 68.8074 5.232C68.5194 4.44 68.3594 4.04 68.3274 4.032C68.2794 3.992 68.1514 3.972 67.9434 3.972C67.7274 3.972 67.6194 3.932 67.6194 3.852C67.6194 3.788 67.6714 3.756 67.7754 3.756C67.8634 3.756 67.9994 3.764 68.1834 3.78C68.3674 3.788 68.5074 3.792 68.6034 3.792C68.6354 3.792 68.7074 3.792 68.8194 3.792C68.9874 3.784 69.2194 3.776 69.5154 3.768L70.1274 3.756C70.2154 3.756 70.2594 3.788 70.2594 3.852C70.2594 3.908 70.1114 3.94 69.8154 3.948C69.5674 3.956 69.4434 3.996 69.4434 4.068C69.4434 4.132 69.5234 4.38 69.6834 4.812C69.7474 4.996 69.8154 5.188 69.8874 5.388L70.0914 5.988C70.1474 6.164 70.2954 6.564 70.5354 7.188C70.6154 7.38 70.7034 7.612 70.7994 7.884C71.5674 5.476 71.9514 4.212 71.9514 4.092C71.9514 4.02 71.9194 3.976 71.8554 3.96C71.7994 3.944 71.6314 3.936 71.3514 3.936C71.2714 3.936 71.2314 3.904 71.2314 3.84C71.2314 3.784 71.2794 3.756 71.3754 3.756C71.4154 3.756 71.4474 3.76 71.4714 3.768C71.7434 3.784 71.9674 3.792 72.1434 3.792H72.4794C72.6234 3.792 72.7154 3.788 72.7554 3.78C72.8034 3.772 72.8594 3.768 72.9234 3.768C72.9954 3.768 73.0314 3.796 73.0314 3.852ZM78.1598 6.408C78.1598 7.184 77.9238 7.836 77.4518 8.364C76.9798 8.884 76.3918 9.144 75.6878 9.144C74.9598 9.144 74.3518 8.884 73.8638 8.364C73.3758 7.836 73.1318 7.184 73.1318 6.408C73.1318 5.608 73.3678 4.944 73.8398 4.416C74.3198 3.888 74.9158 3.624 75.6278 3.624C76.3478 3.624 76.9478 3.892 77.4278 4.428C77.9158 4.956 78.1598 5.616 78.1598 6.408ZM77.0678 6.396C77.0678 5.516 76.9318 4.832 76.6598 4.344C76.4598 3.984 76.1238 3.804 75.6518 3.804C75.2038 3.804 74.8518 4.036 74.5958 4.5C74.3478 4.956 74.2238 5.592 74.2238 6.408C74.2238 7.216 74.3558 7.848 74.6198 8.304C74.8918 8.752 75.2678 8.976 75.7478 8.976C76.1158 8.976 76.3878 8.836 76.5638 8.556C76.8998 8.028 77.0678 7.308 77.0678 6.396ZM84.5254 8.592C84.5254 8.648 84.4374 8.68 84.2614 8.688C83.6374 8.728 83.0894 8.864 82.6174 9.096C82.5854 9.112 82.5574 9.12 82.5334 9.12C82.4854 9.12 82.4614 9.088 82.4614 9.024L82.4734 8.352C82.1054 8.88 81.5894 9.144 80.9254 9.144C80.3334 9.144 79.9094 8.972 79.6534 8.628C79.5494 8.484 79.4854 8.352 79.4614 8.232C79.4454 8.112 79.4374 7.788 79.4374 7.26V4.512C79.4374 4.232 79.4214 4.068 79.3894 4.02C79.3574 3.972 79.2494 3.944 79.0654 3.936L78.9094 3.948C78.6934 3.964 78.5854 3.932 78.5854 3.852C78.5854 3.796 78.6534 3.768 78.7894 3.768C78.9334 3.768 79.1414 3.776 79.4134 3.792C79.5494 3.8 79.6294 3.804 79.6534 3.804C79.9334 3.804 80.1934 3.792 80.4334 3.768V7.116C80.4334 7.732 80.4734 8.14 80.5534 8.34C80.6814 8.652 80.9414 8.808 81.3334 8.808C81.7574 8.808 82.0694 8.632 82.2694 8.28C82.4134 8.024 82.4854 7.616 82.4854 7.056V5.196C82.4854 4.924 82.4814 4.72 82.4734 4.584L82.4494 4.188C82.4414 4.068 82.4134 4 82.3654 3.984C82.3254 3.96 82.2374 3.948 82.1014 3.948C81.7654 3.956 81.5974 3.92 81.5974 3.84C81.5974 3.792 81.6814 3.768 81.8494 3.768H81.9574C82.0214 3.776 82.2334 3.78 82.5934 3.78C83.0734 3.78 83.3694 3.776 83.4814 3.768V7.116C83.4814 7.692 83.4934 8.056 83.5174 8.208C83.5414 8.36 83.6014 8.448 83.6974 8.472C83.8014 8.496 84.0294 8.508 84.3814 8.508C84.4774 8.508 84.5254 8.536 84.5254 8.592ZM90.2282 8.928C90.2282 8.992 90.1682 9.024 90.0482 9.024H89.9042C89.7602 9.008 89.5642 9 89.3162 9C88.5322 9 88.0682 9.008 87.9242 9.024H87.8402C87.7362 9.024 87.6842 8.996 87.6842 8.94C87.6842 8.9 87.7042 8.876 87.7442 8.868C87.7922 8.86 87.9482 8.852 88.2122 8.844C88.3642 8.836 88.4522 8.816 88.4762 8.784C88.5002 8.744 88.5122 8.612 88.5122 8.388V6.084C88.5122 5.212 88.4802 4.692 88.4162 4.524C88.2802 4.164 88.0082 3.984 87.6002 3.984C87.2002 3.984 86.8642 4.16 86.5922 4.512C86.5122 4.616 86.4722 4.76 86.4722 4.944L86.4842 8.688C86.4842 8.784 86.5682 8.836 86.7362 8.844L87.0962 8.856C87.1762 8.856 87.2162 8.884 87.2162 8.94C87.2162 8.996 87.1682 9.024 87.0722 9.024H86.8802C86.7042 9.008 86.4242 9 86.0402 9C85.9522 9 85.7602 9.004 85.4642 9.012C85.1762 9.02 85.0082 9.024 84.9602 9.024H84.8882C84.7682 9.024 84.7082 8.996 84.7082 8.94C84.7082 8.884 84.7802 8.848 84.9242 8.832C85.0282 8.832 85.1282 8.832 85.2242 8.832C85.3442 8.832 85.4162 8.804 85.4402 8.748L85.4762 8.568V5.952C85.4762 5.04 85.4682 4.536 85.4522 4.44C85.4362 4.344 85.3362 4.296 85.1522 4.296C85.0962 4.296 85.0002 4.304 84.8642 4.32H84.8042C84.6442 4.32 84.5642 4.292 84.5642 4.236C84.5642 4.164 84.6482 4.128 84.8162 4.128C85.0562 4.12 85.3162 4.076 85.5962 3.996C85.8762 3.916 86.0722 3.824 86.1842 3.72C86.2562 3.656 86.3122 3.624 86.3522 3.624C86.4082 3.624 86.4362 3.7 86.4362 3.852V4.428C86.8522 3.892 87.3882 3.624 88.0442 3.624C88.6202 3.624 89.0362 3.836 89.2922 4.26C89.4362 4.5 89.5082 4.956 89.5082 5.628V8.364C89.5082 8.62 89.5202 8.76 89.5442 8.784C89.5922 8.832 89.7082 8.856 89.8922 8.856C89.9162 8.856 89.9602 8.852 90.0242 8.844H90.1082C90.1882 8.844 90.2282 8.872 90.2282 8.928ZM96.1833 4.332C96.1833 4.7 96.0193 4.884 95.6913 4.884C95.5793 4.884 95.4753 4.848 95.3793 4.776C95.2913 4.696 95.2473 4.608 95.2473 4.512C95.2473 4.48 95.2593 4.432 95.2833 4.368C95.3073 4.296 95.3193 4.24 95.3193 4.2C95.3193 4.096 95.2633 4.044 95.1513 4.044C95.0553 4.044 94.9633 4.096 94.8753 4.2C94.7873 4.296 94.7433 4.396 94.7433 4.5C94.7433 4.524 94.7633 4.66 94.8033 4.908C94.8433 5.156 94.8633 5.344 94.8633 5.472C94.8633 6.016 94.6753 6.472 94.2993 6.84C93.9233 7.208 93.4553 7.392 92.8953 7.392C92.7513 7.392 92.4873 7.332 92.1033 7.212C91.9993 7.18 91.9313 7.164 91.8993 7.164C91.7313 7.164 91.5793 7.232 91.4433 7.368C91.3073 7.504 91.2393 7.652 91.2393 7.812C91.2393 8.228 91.4913 8.436 91.9953 8.436C92.1873 8.436 92.4953 8.4 92.9193 8.328C93.2473 8.272 93.5473 8.244 93.8193 8.244C94.3073 8.244 94.6873 8.372 94.9593 8.628C95.2393 8.884 95.3793 9.24 95.3793 9.696C95.3793 10.384 95.0833 10.956 94.4913 11.412C93.9073 11.868 93.1673 12.096 92.2713 12.096C91.6073 12.096 91.0833 11.96 90.6993 11.688C90.3233 11.424 90.1353 11.056 90.1353 10.584C90.1353 10.128 90.3113 9.784 90.6633 9.552C90.8393 9.44 91.1193 9.34 91.5033 9.252C90.9353 9.028 90.6513 8.684 90.6513 8.22C90.6513 7.644 91.0193 7.244 91.7553 7.02C91.2753 6.644 91.0353 6.148 91.0353 5.532C91.0353 4.956 91.2193 4.496 91.5873 4.152C91.9553 3.8 92.4393 3.624 93.0393 3.624C93.3673 3.624 93.6313 3.668 93.8313 3.756C94.0393 3.844 94.2793 4.02 94.5513 4.284C94.8073 3.908 95.1233 3.72 95.4993 3.72C95.9553 3.72 96.1833 3.924 96.1833 4.332ZM93.9513 5.52C93.9513 4.36 93.6313 3.78 92.9913 3.78C92.3673 3.78 92.0553 4.32 92.0553 5.4C92.0553 6.616 92.3873 7.224 93.0513 7.224C93.6513 7.224 93.9513 6.656 93.9513 5.52ZM94.8753 10.116C94.8753 9.452 94.4833 9.12 93.6993 9.12C93.4753 9.12 93.1433 9.156 92.7033 9.228C92.2713 9.3 91.9473 9.336 91.7313 9.336C91.3233 9.552 91.1193 9.932 91.1193 10.476C91.1193 10.884 91.2633 11.212 91.5513 11.46C91.8473 11.708 92.2353 11.832 92.7153 11.832C93.3233 11.832 93.8353 11.664 94.2513 11.328C94.6673 11 94.8753 10.596 94.8753 10.116ZM98.3649 1.668C98.3649 2.252 98.1329 2.676 97.6689 2.94C97.3489 3.124 97.0809 3.216 96.8649 3.216C96.7769 3.216 96.7329 3.184 96.7329 3.12C96.7329 3.064 96.7809 3.024 96.8769 3C97.2449 2.896 97.5009 2.772 97.6449 2.628C97.7889 2.484 97.8609 2.276 97.8609 2.004C97.8609 1.788 97.8089 1.604 97.7049 1.452C97.7049 1.724 97.5329 1.86 97.1889 1.86C97.0129 1.86 96.8649 1.804 96.7449 1.692C96.6329 1.572 96.5769 1.428 96.5769 1.26C96.5769 1.06 96.6489 0.892 96.7929 0.756C96.9449 0.612 97.1289 0.539999 97.3449 0.539999C97.6409 0.539999 97.8849 0.648 98.0769 0.864C98.2689 1.072 98.3649 1.34 98.3649 1.668ZM103.053 7.476C103.053 7.94 102.881 8.336 102.537 8.664C102.201 8.984 101.797 9.144 101.325 9.144C101.053 9.144 100.721 9.048 100.329 8.856C100.225 8.8 100.133 8.772 100.053 8.772C99.9415 8.772 99.8575 8.848 99.8015 9C99.7695 9.096 99.7255 9.144 99.6695 9.144C99.6135 9.144 99.5855 9.112 99.5855 9.048C99.5855 9.008 99.5895 8.96 99.5975 8.904C99.6215 8.744 99.6335 8.508 99.6335 8.196C99.6335 8.172 99.6295 8.076 99.6215 7.908C99.6135 7.74 99.6095 7.628 99.6095 7.572V7.44C99.6095 7.352 99.6375 7.308 99.6935 7.308C99.7575 7.308 99.7935 7.352 99.8015 7.44C99.8495 7.808 99.9535 8.096 100.113 8.304C100.433 8.72 100.861 8.928 101.397 8.928C101.685 8.928 101.917 8.844 102.093 8.676C102.269 8.508 102.357 8.284 102.357 8.004C102.357 7.692 102.257 7.444 102.057 7.26C101.945 7.156 101.841 7.084 101.745 7.044C101.657 6.996 101.389 6.888 100.941 6.72C100.053 6.384 99.6095 5.88 99.6095 5.208C99.6095 4.76 99.7615 4.384 100.065 4.08C100.369 3.776 100.745 3.624 101.193 3.624C101.353 3.624 101.593 3.672 101.913 3.768C101.993 3.792 102.065 3.804 102.129 3.804C102.297 3.804 102.401 3.724 102.441 3.564C102.465 3.484 102.501 3.444 102.549 3.444C102.605 3.444 102.633 3.476 102.633 3.54C102.633 3.548 102.629 3.572 102.621 3.612L102.609 4.116C102.601 4.308 102.621 4.616 102.669 5.04V5.064C102.669 5.128 102.637 5.16 102.573 5.16C102.525 5.16 102.465 5.04 102.393 4.8C102.305 4.512 102.149 4.28 101.925 4.104C101.709 3.928 101.457 3.84 101.169 3.84C100.897 3.84 100.673 3.924 100.497 4.092C100.321 4.26 100.233 4.472 100.233 4.728C100.233 5.128 100.501 5.432 101.037 5.64C101.869 5.968 102.397 6.24 102.621 6.456C102.909 6.736 103.053 7.076 103.053 7.476ZM114.56 8.904C114.56 8.984 114.476 9.024 114.308 9.024H114.176C114.064 9.024 113.86 9.02 113.564 9.012C113.268 9.004 113.04 9 112.88 9C112.64 9 112.36 9.004 112.04 9.012C111.712 9.012 111.496 9.012 111.392 9.012H111.308C111.14 9.012 111.056 8.976 111.056 8.904C111.056 8.824 111.172 8.784 111.404 8.784C111.812 8.784 112.06 8.74 112.148 8.652C112.188 8.612 112.208 8.344 112.208 7.848V1.632C112.208 1.64 112.164 1.78 112.076 2.052C111.756 3.02 111.292 4.476 110.684 6.42L110.12 8.328C110.008 8.704 109.928 8.892 109.88 8.892C109.824 8.892 109.764 8.796 109.7 8.604C109.468 7.876 108.812 6.06 107.732 3.156L107.252 1.872C107.26 2.024 107.264 2.232 107.264 2.496V6.396C107.264 7.86 107.276 8.6 107.3 8.616C107.356 8.72 107.548 8.772 107.876 8.772C108.14 8.772 108.272 8.808 108.272 8.88C108.272 8.96 108.188 9 108.02 9C107.916 9 107.82 8.996 107.732 8.988C107.62 8.98 107.52 8.976 107.432 8.976L106.052 9.012C105.908 9.012 105.836 8.976 105.836 8.904C105.836 8.824 106.064 8.78 106.52 8.772C106.712 8.772 106.824 8.74 106.856 8.676C106.888 8.612 106.904 8.404 106.904 8.052V2.304C106.904 1.64 106.896 1.28 106.88 1.224C106.848 1.112 106.78 1.036 106.676 0.995999C106.572 0.955999 106.348 0.924 106.004 0.9C105.876 0.891999 105.812 0.855999 105.812 0.792C105.812 0.704 105.928 0.659999 106.16 0.659999C106.192 0.659999 106.26 0.664 106.364 0.672H106.988C107.46 0.672 107.792 0.668 107.984 0.659999C108.024 0.763999 108.26 1.392 108.692 2.544C108.876 3.024 109.392 4.424 110.24 6.744C110.392 6.224 110.548 5.712 110.708 5.208L111.98 1.236C112.052 1.004 112.116 0.811999 112.172 0.659999L113.972 0.648C114.236 0.648 114.388 0.66 114.428 0.684C114.468 0.707999 114.488 0.743999 114.488 0.792C114.488 0.872 114.42 0.912 114.284 0.912C114.06 0.912 113.908 0.92 113.828 0.935999C113.636 0.967999 113.504 1.032 113.432 1.128C113.392 1.184 113.372 1.652 113.372 2.532V8.112C113.372 8.432 113.404 8.62 113.468 8.676C113.572 8.748 113.832 8.784 114.248 8.784H114.32C114.48 8.784 114.56 8.824 114.56 8.904ZM120.054 6.408C120.054 7.184 119.818 7.836 119.346 8.364C118.874 8.884 118.286 9.144 117.582 9.144C116.854 9.144 116.246 8.884 115.758 8.364C115.27 7.836 115.026 7.184 115.026 6.408C115.026 5.608 115.262 4.944 115.734 4.416C116.214 3.888 116.81 3.624 117.522 3.624C118.242 3.624 118.842 3.892 119.322 4.428C119.81 4.956 120.054 5.616 120.054 6.408ZM118.962 6.396C118.962 5.516 118.826 4.832 118.554 4.344C118.354 3.984 118.018 3.804 117.546 3.804C117.098 3.804 116.746 4.036 116.49 4.5C116.242 4.956 116.118 5.592 116.118 6.408C116.118 7.216 116.25 7.848 116.514 8.304C116.786 8.752 117.162 8.976 117.642 8.976C118.01 8.976 118.282 8.836 118.458 8.556C118.794 8.028 118.962 7.308 118.962 6.396ZM128.856 8.928C128.856 8.992 128.788 9.024 128.652 9.024C128.636 9.024 128.548 9.02 128.388 9.012C128.236 9.004 128.028 9 127.764 9C127.74 9 127.316 9.008 126.492 9.024C126.388 9.024 126.336 8.996 126.336 8.94C126.336 8.876 126.38 8.844 126.468 8.844H126.564L126.864 8.832C126.984 8.824 127.052 8.796 127.068 8.748C127.092 8.7 127.104 8.532 127.104 8.244V5.268C127.104 4.804 127.04 4.476 126.912 4.284C126.792 4.084 126.584 3.984 126.288 3.984C126.08 3.984 125.884 4.048 125.7 4.176C125.524 4.296 125.4 4.452 125.328 4.644C125.296 4.764 125.28 5.208 125.28 5.976V8.244C125.28 8.508 125.284 8.66 125.292 8.7C125.316 8.796 125.388 8.844 125.508 8.844H125.856C125.96 8.844 126.012 8.876 126.012 8.94C126.012 8.996 125.952 9.024 125.832 9.024H125.748C125.668 9.008 125.396 9 124.932 9C124.772 9 124.556 9.004 124.284 9.012C124.02 9.02 123.86 9.024 123.804 9.024H123.672C123.576 9.024 123.528 8.992 123.528 8.928C123.528 8.888 123.552 8.864 123.6 8.856C123.648 8.848 123.808 8.844 124.08 8.844C124.208 8.836 124.276 8.796 124.284 8.724L124.296 8.556V5.208C124.296 4.744 124.236 4.424 124.116 4.248C124.004 4.072 123.8 3.984 123.504 3.984C123.208 3.984 122.96 4.076 122.76 4.26C122.568 4.444 122.472 4.676 122.472 4.956V8.364C122.472 8.604 122.488 8.748 122.52 8.796C122.56 8.836 122.68 8.856 122.88 8.856H122.976C123.024 8.848 123.068 8.844 123.108 8.844C123.196 8.844 123.24 8.876 123.24 8.94C123.24 8.996 123.188 9.024 123.084 9.024H122.964C122.772 9 122.472 8.992 122.064 9L120.888 9.024C120.776 9.024 120.72 8.992 120.72 8.928C120.72 8.872 120.772 8.844 120.876 8.844C121.18 8.844 121.356 8.832 121.404 8.808C121.452 8.776 121.48 8.724 121.488 8.652V5.532C121.488 4.932 121.476 4.58 121.452 4.476C121.428 4.372 121.312 4.32 121.104 4.32H120.936C120.864 4.328 120.788 4.332 120.708 4.332C120.604 4.332 120.552 4.304 120.552 4.248C120.552 4.2 120.568 4.172 120.6 4.164C120.64 4.156 120.772 4.144 120.996 4.128C121.18 4.12 121.408 4.072 121.68 3.984C121.96 3.896 122.12 3.82 122.16 3.756C122.248 3.668 122.312 3.624 122.352 3.624C122.392 3.624 122.416 3.656 122.424 3.72C122.432 3.784 122.44 4.008 122.448 4.392C122.768 3.88 123.26 3.624 123.924 3.624C124.636 3.624 125.068 3.892 125.22 4.428C125.532 3.892 126.032 3.624 126.72 3.624C127.312 3.624 127.712 3.836 127.92 4.26C128.032 4.484 128.088 4.856 128.088 5.376V8.34C128.088 8.612 128.1 8.764 128.124 8.796C128.156 8.82 128.284 8.84 128.508 8.856L128.724 8.844C128.812 8.836 128.856 8.864 128.856 8.928ZM20.1202 27.324C20.1202 27.308 20.1122 27.416 20.0962 27.648C20.0642 28.112 20.0482 28.56 20.0482 28.992C20.0482 29.04 20.0562 29.14 20.0722 29.292C20.0882 29.436 20.0962 29.612 20.0962 29.82V29.928C20.0962 30.032 20.0642 30.084 20.0002 30.084C19.9362 30.084 19.8802 30.024 19.8322 29.904C19.7202 29.64 19.6082 29.468 19.4962 29.388C18.9202 29.892 18.2282 30.144 17.4202 30.144C16.2442 30.144 15.2682 29.736 14.4922 28.92C13.7242 28.096 13.3402 27.06 13.3402 25.812C13.3402 24.556 13.6922 23.532 14.3962 22.74C15.1082 21.94 16.0242 21.54 17.1442 21.54C17.5522 21.54 17.8762 21.576 18.1162 21.648C18.3642 21.712 18.6682 21.848 19.0282 22.056C19.2042 22.16 19.3362 22.212 19.4242 22.212C19.4962 22.212 19.5642 22.148 19.6282 22.02C19.7322 21.796 19.8162 21.684 19.8802 21.684C19.9442 21.684 19.9762 21.716 19.9762 21.78C19.9762 21.812 19.9682 21.864 19.9522 21.936C19.8642 22.32 19.8202 23.04 19.8202 24.096C19.8202 24.248 19.8082 24.336 19.7842 24.36C19.7602 24.384 19.7282 24.396 19.6882 24.396C19.6082 24.396 19.5562 24.32 19.5322 24.168C19.4282 23.528 19.2802 23.052 19.0882 22.74C18.6962 22.1 18.0802 21.78 17.2402 21.78C16.5922 21.78 16.0802 21.996 15.7042 22.428C15.0242 23.204 14.6842 24.34 14.6842 25.836C14.6842 27.172 14.9642 28.208 15.5242 28.944C16.0122 29.584 16.6602 29.904 17.4682 29.904C17.8842 29.904 18.2642 29.804 18.6082 29.604C18.9522 29.396 19.2162 29.116 19.4002 28.764C19.6082 28.356 19.7562 27.912 19.8442 27.432C19.8762 27.24 19.9282 27.144 20.0002 27.144C20.0802 27.144 20.1202 27.204 20.1202 27.324ZM24.7081 25.44C24.7081 25.624 24.6521 25.776 24.5401 25.896C24.4281 26.016 24.2841 26.076 24.1081 26.076C23.9641 26.076 23.8441 26.036 23.7481 25.956C23.6521 25.868 23.6041 25.76 23.6041 25.632C23.6041 25.52 23.6401 25.424 23.7121 25.344C23.7841 25.264 23.8201 25.208 23.8201 25.176C23.8201 25.056 23.7321 24.996 23.5561 24.996C23.3321 24.996 23.1401 25.136 22.9801 25.416C22.7961 25.744 22.7041 26.352 22.7041 27.24V29.616C22.7041 29.712 22.7361 29.772 22.8001 29.796C22.8721 29.82 23.0801 29.836 23.4241 29.844C23.5121 29.86 23.5561 29.892 23.5561 29.94C23.5561 29.996 23.5041 30.024 23.4001 30.024C23.2161 30.024 23.0441 30.02 22.8841 30.012C22.7241 30.004 22.4201 30 21.9721 30C21.7401 30 21.5721 30.004 21.4681 30.012C21.3641 30.02 21.2321 30.024 21.0721 30.024C20.9441 30.024 20.8801 29.996 20.8801 29.94C20.8801 29.884 20.9321 29.856 21.0361 29.856H21.2041C21.4761 29.856 21.6361 29.824 21.6841 29.76C21.7001 29.728 21.7081 29.58 21.7081 29.316V26.016C21.7081 25.576 21.6401 25.324 21.5041 25.26C21.3761 25.188 21.1681 25.148 20.8801 25.14C20.7841 25.14 20.7361 25.112 20.7361 25.056C20.7361 25 20.7761 24.972 20.8561 24.972H20.9401C21.0601 24.972 21.1801 24.98 21.3001 24.996C21.4201 25.004 21.4721 25.008 21.4561 25.008C21.7521 25.008 22.0801 24.924 22.4401 24.756L22.5961 24.684L22.6921 24.648C22.7241 24.84 22.7401 25.032 22.7401 25.224V25.464C22.9961 24.904 23.3561 24.624 23.8201 24.624C24.0761 24.624 24.2881 24.704 24.4561 24.864C24.6241 25.016 24.7081 25.208 24.7081 25.44ZM29.5668 28.692C29.5668 28.772 29.5028 28.916 29.3748 29.124C29.2548 29.324 29.1308 29.488 29.0028 29.616C28.6588 29.968 28.1988 30.144 27.6228 30.144C26.9028 30.144 26.2988 29.884 25.8108 29.364C25.3308 28.844 25.0908 28.2 25.0908 27.432C25.0908 26.632 25.3188 25.964 25.7748 25.428C26.2388 24.892 26.8148 24.624 27.5028 24.624C28.0708 24.624 28.5468 24.792 28.9308 25.128C29.3148 25.456 29.5188 25.88 29.5428 26.4C29.2868 26.44 28.9468 26.456 28.5228 26.448L27.6828 26.436C27.6268 26.436 27.1468 26.448 26.2428 26.472C26.2028 26.736 26.1828 26.988 26.1828 27.228C26.1828 28.036 26.3348 28.66 26.6388 29.1C26.9508 29.532 27.3868 29.748 27.9468 29.748C28.2668 29.748 28.5228 29.676 28.7148 29.532C28.9068 29.388 29.1148 29.112 29.3388 28.704C29.3708 28.64 29.4148 28.608 29.4708 28.608C29.5348 28.608 29.5668 28.636 29.5668 28.692ZM28.5228 26.244C28.4908 25.284 28.1468 24.804 27.4908 24.804C26.8428 24.804 26.4388 25.284 26.2788 26.244H28.5228ZM35.023 29.46C35.023 29.596 34.879 29.74 34.591 29.892C34.311 30.036 34.039 30.108 33.775 30.108C33.223 30.108 32.935 29.824 32.911 29.256C32.607 29.848 32.135 30.144 31.495 30.144C31.151 30.144 30.867 30.044 30.643 29.844C30.419 29.636 30.307 29.372 30.307 29.052C30.307 28.396 30.703 27.876 31.495 27.492C31.767 27.364 32.239 27.236 32.911 27.108V26.808C32.911 26.104 32.875 25.64 32.803 25.416C32.675 25.008 32.387 24.804 31.939 24.804C31.659 24.804 31.423 24.88 31.231 25.032C31.047 25.184 30.955 25.376 30.955 25.608C30.955 25.672 31.003 25.704 31.099 25.704C31.203 25.704 31.295 25.752 31.375 25.848C31.455 25.944 31.495 26.052 31.495 26.172C31.495 26.524 31.319 26.7 30.967 26.7C30.783 26.7 30.631 26.64 30.511 26.52C30.391 26.392 30.331 26.232 30.331 26.04C30.331 25.664 30.479 25.34 30.775 25.068C31.103 24.772 31.559 24.624 32.143 24.624C33.023 24.624 33.563 24.864 33.763 25.344C33.835 25.528 33.871 25.892 33.871 26.436V28.68C33.871 29.048 33.875 29.264 33.883 29.328C33.923 29.616 34.039 29.76 34.231 29.76C34.455 29.76 34.639 29.68 34.783 29.52C34.863 29.432 34.923 29.388 34.963 29.388C35.003 29.388 35.023 29.412 35.023 29.46ZM32.911 28.188V27.312C32.311 27.448 31.879 27.628 31.615 27.852C31.359 28.068 31.231 28.36 31.231 28.728C31.231 28.984 31.303 29.196 31.447 29.364C31.599 29.524 31.787 29.604 32.011 29.604C32.355 29.604 32.631 29.412 32.839 29.028C32.887 28.94 32.911 28.66 32.911 28.188ZM38.2805 29.292C38.2805 29.364 38.1805 29.492 37.9805 29.676C37.6365 29.988 37.2285 30.144 36.7565 30.144C36.3165 30.144 35.9845 30.032 35.7605 29.808C35.6325 29.68 35.5685 29.304 35.5685 28.68V25.104C35.5605 25.024 35.5165 24.98 35.4365 24.972H34.9805C34.8045 24.972 34.7165 24.944 34.7165 24.888C34.7165 24.832 34.7605 24.8 34.8485 24.792C35.4725 24.736 35.9605 24.432 36.3125 23.88C36.3605 23.808 36.4205 23.772 36.4925 23.772C36.5485 23.772 36.5765 23.8 36.5765 23.856V23.904C36.5685 23.944 36.5645 24.012 36.5645 24.108C36.5645 24.444 36.5805 24.66 36.6125 24.756C36.6845 24.772 36.8045 24.78 36.9725 24.78C37.4125 24.78 37.7045 24.76 37.8485 24.72C37.8805 24.712 37.9085 24.708 37.9325 24.708C37.9965 24.708 38.0285 24.744 38.0285 24.816C38.0285 24.936 37.7045 24.996 37.0565 24.996C36.9445 24.996 36.7805 24.992 36.5645 24.984V27.204C36.5645 28.324 36.5925 29.028 36.6485 29.316C36.7045 29.596 36.8885 29.736 37.2005 29.736C37.4645 29.736 37.7605 29.588 38.0885 29.292C38.1205 29.252 38.1565 29.232 38.1965 29.232C38.2525 29.232 38.2805 29.252 38.2805 29.292ZM42.9027 28.692C42.9027 28.772 42.8387 28.916 42.7107 29.124C42.5907 29.324 42.4667 29.488 42.3387 29.616C41.9947 29.968 41.5347 30.144 40.9587 30.144C40.2387 30.144 39.6347 29.884 39.1467 29.364C38.6667 28.844 38.4267 28.2 38.4267 27.432C38.4267 26.632 38.6547 25.964 39.1107 25.428C39.5747 24.892 40.1507 24.624 40.8387 24.624C41.4067 24.624 41.8827 24.792 42.2667 25.128C42.6507 25.456 42.8547 25.88 42.8787 26.4C42.6227 26.44 42.2827 26.456 41.8587 26.448L41.0187 26.436C40.9627 26.436 40.4827 26.448 39.5787 26.472C39.5387 26.736 39.5187 26.988 39.5187 27.228C39.5187 28.036 39.6707 28.66 39.9747 29.1C40.2867 29.532 40.7227 29.748 41.2827 29.748C41.6027 29.748 41.8587 29.676 42.0507 29.532C42.2427 29.388 42.4507 29.112 42.6747 28.704C42.7067 28.64 42.7507 28.608 42.8067 28.608C42.8707 28.608 42.9027 28.636 42.9027 28.692ZM41.8587 26.244C41.8267 25.284 41.4827 24.804 40.8267 24.804C40.1787 24.804 39.7747 25.284 39.6147 26.244H41.8587ZM48.9469 29.76C48.9469 29.816 48.8909 29.844 48.7789 29.844H48.7189C48.6549 29.844 48.5869 29.84 48.5149 29.832C48.4509 29.832 48.4189 29.832 48.4189 29.832C48.0269 29.832 47.6949 29.912 47.4229 30.072C47.3109 30.136 47.2429 30.168 47.2189 30.168C47.1469 30.168 47.1109 30.12 47.1109 30.024L47.1229 29.652C46.7789 29.98 46.3709 30.144 45.8989 30.144C45.2269 30.144 44.6709 29.888 44.2309 29.376C43.7989 28.856 43.5829 28.196 43.5829 27.396C43.5829 26.572 43.7989 25.904 44.2309 25.392C44.6709 24.88 45.2429 24.624 45.9469 24.624C46.4909 24.624 46.8989 24.82 47.1709 25.212V23.34C47.1709 22.732 47.1429 22.356 47.0869 22.212C47.0389 22.092 46.9669 22.036 46.8709 22.044C46.6389 22.068 46.4989 22.08 46.4509 22.08C46.3469 22.08 46.2949 22.044 46.2949 21.972C46.2949 21.9 46.3389 21.864 46.4269 21.864L46.8589 21.876C47.0989 21.884 47.4669 21.772 47.9629 21.54C47.9949 21.524 48.0229 21.516 48.0469 21.516C48.1269 21.516 48.1669 21.612 48.1669 21.804C48.1669 21.852 48.1669 21.936 48.1669 22.056C48.1589 22.184 48.1549 22.296 48.1549 22.392V26.532C48.1549 28.428 48.1749 29.444 48.2149 29.58C48.2309 29.636 48.4189 29.664 48.7789 29.664C48.8909 29.664 48.9469 29.696 48.9469 29.76ZM47.1709 26.748C47.1709 25.98 47.0869 25.488 46.9189 25.272C46.7029 25 46.4269 24.864 46.0909 24.864C45.6589 24.864 45.3149 25.088 45.0589 25.536C44.8029 25.984 44.6749 26.584 44.6749 27.336C44.6749 28.056 44.7869 28.672 45.0109 29.184C45.1069 29.4 45.2469 29.58 45.4309 29.724C45.6229 29.86 45.8189 29.928 46.0189 29.928C46.2669 29.928 46.4909 29.856 46.6909 29.712C46.8909 29.56 47.0189 29.38 47.0749 29.172C47.1389 28.964 47.1709 28.156 47.1709 26.748ZM56.5445 27.144C56.5445 27.976 56.2925 28.684 55.7885 29.268C55.2845 29.852 54.6765 30.144 53.9645 30.144C53.7165 30.144 53.4565 30.092 53.1845 29.988C52.9125 29.884 52.7285 29.832 52.6325 29.832C52.5445 29.832 52.4445 29.872 52.3325 29.952C52.2205 30.024 52.1365 30.06 52.0805 30.06C52.0165 30.06 51.9845 29.928 51.9845 29.664V23.424C51.9845 22.616 51.9325 22.18 51.8285 22.116C51.7885 22.092 51.6325 22.08 51.3605 22.08C51.1685 22.08 51.0725 22.048 51.0725 21.984C51.0725 21.928 51.1165 21.9 51.2045 21.9H51.3725C51.8125 21.9 52.2365 21.808 52.6445 21.624C52.7645 21.568 52.8485 21.54 52.8965 21.54H52.9445V25.308C53.2485 24.852 53.7045 24.624 54.3125 24.624C54.9845 24.624 55.5245 24.856 55.9325 25.32C56.3405 25.776 56.5445 26.384 56.5445 27.144ZM55.4525 27.204C55.4525 26.452 55.3325 25.872 55.0925 25.464C54.8605 25.056 54.5325 24.852 54.1085 24.852C53.8845 24.852 53.6725 24.924 53.4725 25.068C53.2725 25.204 53.1365 25.376 53.0645 25.584C52.9925 25.792 52.9565 26.424 52.9565 27.48C52.9565 28.584 52.9845 29.24 53.0405 29.448C53.1285 29.784 53.4205 29.952 53.9165 29.952C54.3885 29.952 54.7365 29.772 54.9605 29.412C55.2885 28.876 55.4525 28.14 55.4525 27.204ZM62.0099 24.852C62.0099 24.908 61.9139 24.94 61.7219 24.948C61.5299 24.956 61.4059 24.972 61.3499 24.996C61.3019 25.02 61.2579 25.088 61.2179 25.2L61.1339 25.416L61.0379 25.716C60.9259 26.084 60.7579 26.632 60.5339 27.36C59.9019 29.392 59.3779 30.968 58.9619 32.088C58.7059 32.768 58.3539 33.108 57.9059 33.108C57.7139 33.108 57.5539 33.052 57.4259 32.94C57.3059 32.828 57.2459 32.684 57.2459 32.508C57.2459 32.356 57.2939 32.232 57.3899 32.136C57.4939 32.04 57.6259 31.992 57.7859 31.992C58.0019 31.992 58.1579 32.08 58.2539 32.256C58.3259 32.392 58.3859 32.46 58.4339 32.46C58.5059 32.46 58.6179 32.264 58.7699 31.872C58.9939 31.288 59.1699 30.764 59.2979 30.3C58.7059 28.748 58.2019 27.392 57.7859 26.232C57.4979 25.44 57.3379 25.04 57.3059 25.032C57.2579 24.992 57.1299 24.972 56.9219 24.972C56.7059 24.972 56.5979 24.932 56.5979 24.852C56.5979 24.788 56.6499 24.756 56.7539 24.756C56.8419 24.756 56.9779 24.764 57.1619 24.78C57.3459 24.788 57.4859 24.792 57.5819 24.792C57.6139 24.792 57.6859 24.792 57.7979 24.792C57.9659 24.784 58.1979 24.776 58.4939 24.768L59.1059 24.756C59.1939 24.756 59.2379 24.788 59.2379 24.852C59.2379 24.908 59.0899 24.94 58.7939 24.948C58.5459 24.956 58.4219 24.996 58.4219 25.068C58.4219 25.132 58.5019 25.38 58.6619 25.812C58.7259 25.996 58.7939 26.188 58.8659 26.388L59.0699 26.988C59.1259 27.164 59.2739 27.564 59.5139 28.188C59.5939 28.38 59.6819 28.612 59.7779 28.884C60.5459 26.476 60.9299 25.212 60.9299 25.092C60.9299 25.02 60.8979 24.976 60.8339 24.96C60.7779 24.944 60.6099 24.936 60.3299 24.936C60.2499 24.936 60.2099 24.904 60.2099 24.84C60.2099 24.784 60.2579 24.756 60.3539 24.756C60.3939 24.756 60.4259 24.76 60.4499 24.768C60.7219 24.784 60.9459 24.792 61.1219 24.792H61.4579C61.6019 24.792 61.6939 24.788 61.7339 24.78C61.7819 24.772 61.8379 24.768 61.9019 24.768C61.9739 24.768 62.0099 24.796 62.0099 24.852ZM69.5928 27.66C69.5928 28.348 69.3288 28.936 68.8008 29.424C68.2808 29.904 67.6528 30.144 66.9168 30.144C66.4848 30.144 65.9688 30.012 65.3688 29.748C65.2088 29.676 65.0888 29.64 65.0088 29.64C64.9128 29.64 64.8528 29.756 64.8288 29.988C64.8208 30.108 64.7688 30.168 64.6728 30.168C64.5928 30.168 64.5528 30.12 64.5528 30.024C64.5528 29.96 64.5568 29.912 64.5648 29.88C64.6288 29.392 64.6608 28.94 64.6608 28.524C64.6608 28.444 64.6528 28.22 64.6368 27.852C64.6288 27.804 64.6248 27.74 64.6248 27.66C64.6248 27.54 64.6728 27.48 64.7688 27.48C64.8488 27.48 64.9048 27.576 64.9368 27.768C65.1448 29.192 65.8208 29.904 66.9648 29.904C67.4528 29.904 67.8288 29.768 68.0928 29.496C68.3648 29.216 68.5008 28.824 68.5008 28.32C68.5008 27.872 68.3688 27.492 68.1048 27.18C67.8488 26.86 67.4048 26.544 66.7728 26.232C66.0128 25.856 65.4848 25.492 65.1888 25.14C64.8928 24.788 64.7448 24.352 64.7448 23.832C64.7448 23.168 64.9568 22.62 65.3808 22.188C65.8128 21.756 66.3568 21.54 67.0128 21.54C67.2848 21.54 67.6608 21.632 68.1408 21.816C68.3088 21.88 68.4328 21.912 68.5128 21.912C68.6008 21.912 68.6568 21.896 68.6808 21.864C68.7128 21.832 68.7408 21.748 68.7648 21.612C68.7808 21.532 68.8248 21.492 68.8968 21.492C68.9768 21.492 69.0168 21.54 69.0168 21.636C69.0168 21.7 69.0128 21.748 69.0048 21.78C68.9808 21.972 68.9688 22.204 68.9688 22.476C68.9688 22.86 68.9888 23.164 69.0288 23.388L69.0408 23.58C69.0488 23.668 69.0128 23.712 68.9328 23.712C68.8448 23.712 68.7848 23.62 68.7528 23.436C68.6648 22.964 68.4568 22.572 68.1288 22.26C67.8008 21.94 67.4328 21.78 67.0248 21.78C66.6248 21.78 66.3048 21.908 66.0648 22.164C65.8328 22.42 65.7168 22.768 65.7168 23.208C65.7168 23.72 65.8888 24.132 66.2328 24.444C66.4248 24.62 66.8408 24.868 67.4808 25.188C68.2328 25.564 68.7728 25.948 69.1008 26.34C69.4288 26.724 69.5928 27.164 69.5928 27.66ZM75.9414 29.592C75.9414 29.648 75.8534 29.68 75.6774 29.688C75.0534 29.728 74.5054 29.864 74.0334 30.096C74.0014 30.112 73.9734 30.12 73.9494 30.12C73.9014 30.12 73.8774 30.088 73.8774 30.024L73.8894 29.352C73.5214 29.88 73.0054 30.144 72.3414 30.144C71.7494 30.144 71.3254 29.972 71.0694 29.628C70.9654 29.484 70.9014 29.352 70.8774 29.232C70.8614 29.112 70.8534 28.788 70.8534 28.26V25.512C70.8534 25.232 70.8374 25.068 70.8054 25.02C70.7734 24.972 70.6654 24.944 70.4814 24.936L70.3254 24.948C70.1094 24.964 70.0014 24.932 70.0014 24.852C70.0014 24.796 70.0694 24.768 70.2054 24.768C70.3494 24.768 70.5574 24.776 70.8294 24.792C70.9654 24.8 71.0454 24.804 71.0694 24.804C71.3494 24.804 71.6094 24.792 71.8494 24.768V28.116C71.8494 28.732 71.8894 29.14 71.9694 29.34C72.0974 29.652 72.3574 29.808 72.7494 29.808C73.1734 29.808 73.4854 29.632 73.6854 29.28C73.8294 29.024 73.9014 28.616 73.9014 28.056V26.196C73.9014 25.924 73.8974 25.72 73.8894 25.584L73.8654 25.188C73.8574 25.068 73.8294 25 73.7814 24.984C73.7414 24.96 73.6534 24.948 73.5174 24.948C73.1814 24.956 73.0134 24.92 73.0134 24.84C73.0134 24.792 73.0974 24.768 73.2654 24.768H73.3734C73.4374 24.776 73.6494 24.78 74.0094 24.78C74.4894 24.78 74.7854 24.776 74.8974 24.768V28.116C74.8974 28.692 74.9094 29.056 74.9334 29.208C74.9574 29.36 75.0174 29.448 75.1134 29.472C75.2174 29.496 75.4454 29.508 75.7974 29.508C75.8934 29.508 75.9414 29.536 75.9414 29.592ZM81.6442 29.928C81.6442 29.992 81.5842 30.024 81.4642 30.024H81.3202C81.1762 30.008 80.9802 30 80.7322 30C79.9482 30 79.4842 30.008 79.3402 30.024H79.2562C79.1522 30.024 79.1002 29.996 79.1002 29.94C79.1002 29.9 79.1202 29.876 79.1602 29.868C79.2082 29.86 79.3642 29.852 79.6282 29.844C79.7802 29.836 79.8682 29.816 79.8922 29.784C79.9162 29.744 79.9282 29.612 79.9282 29.388V27.084C79.9282 26.212 79.8962 25.692 79.8322 25.524C79.6962 25.164 79.4242 24.984 79.0162 24.984C78.6162 24.984 78.2802 25.16 78.0082 25.512C77.9282 25.616 77.8882 25.76 77.8882 25.944L77.9002 29.688C77.9002 29.784 77.9842 29.836 78.1522 29.844L78.5122 29.856C78.5922 29.856 78.6322 29.884 78.6322 29.94C78.6322 29.996 78.5842 30.024 78.4882 30.024H78.2962C78.1202 30.008 77.8402 30 77.4562 30C77.3682 30 77.1762 30.004 76.8802 30.012C76.5922 30.02 76.4242 30.024 76.3762 30.024H76.3042C76.1842 30.024 76.1242 29.996 76.1242 29.94C76.1242 29.884 76.1962 29.848 76.3402 29.832C76.4442 29.832 76.5442 29.832 76.6402 29.832C76.7602 29.832 76.8322 29.804 76.8562 29.748L76.8922 29.568V26.952C76.8922 26.04 76.8842 25.536 76.8682 25.44C76.8522 25.344 76.7522 25.296 76.5682 25.296C76.5122 25.296 76.4162 25.304 76.2802 25.32H76.2202C76.0602 25.32 75.9802 25.292 75.9802 25.236C75.9802 25.164 76.0642 25.128 76.2322 25.128C76.4722 25.12 76.7322 25.076 77.0122 24.996C77.2922 24.916 77.4882 24.824 77.6002 24.72C77.6722 24.656 77.7282 24.624 77.7682 24.624C77.8242 24.624 77.8522 24.7 77.8522 24.852V25.428C78.2682 24.892 78.8042 24.624 79.4602 24.624C80.0362 24.624 80.4522 24.836 80.7082 25.26C80.8522 25.5 80.9242 25.956 80.9242 26.628V29.364C80.9242 29.62 80.9362 29.76 80.9602 29.784C81.0082 29.832 81.1242 29.856 81.3082 29.856C81.3322 29.856 81.3762 29.852 81.4402 29.844H81.5242C81.6042 29.844 81.6442 29.872 81.6442 29.928ZM89.9033 29.892C89.9033 29.964 89.8273 30 89.6753 30L88.0193 29.988C87.9073 29.988 87.7433 29.992 87.5273 30C87.3113 30.008 87.1513 30.012 87.0473 30.012C86.8873 30.012 86.8073 29.98 86.8073 29.916C86.8073 29.852 86.9953 29.808 87.3713 29.784C87.5713 29.768 87.6873 29.736 87.7193 29.688C87.7513 29.632 87.7673 29.444 87.7673 29.124V25.62H84.1553V29.016C84.1553 29.376 84.1833 29.588 84.2393 29.652C84.2953 29.716 84.4833 29.76 84.8033 29.784C85.0113 29.8 85.1153 29.836 85.1153 29.892C85.1153 29.964 85.0353 30 84.8753 30H84.7673C84.5753 30 84.3713 29.996 84.1553 29.988C83.9473 29.98 83.8233 29.976 83.7833 29.976C83.6713 29.976 83.5033 29.98 83.2793 29.988C83.0553 29.996 82.7193 30 82.2713 30C82.1113 30 82.0313 29.968 82.0313 29.904C82.0313 29.84 82.1113 29.8 82.2713 29.784C82.3753 29.776 82.4833 29.768 82.5953 29.76C82.7713 29.744 82.8833 29.704 82.9313 29.64C82.9553 29.6 82.9673 29.376 82.9673 28.968V22.632C82.9673 22.272 82.9473 22.06 82.9073 21.996C82.8753 21.932 82.7513 21.896 82.5353 21.888C82.2873 21.872 82.1393 21.86 82.0913 21.852C82.0513 21.844 82.0313 21.812 82.0313 21.756C82.0313 21.692 82.0833 21.66 82.1873 21.66C82.2193 21.66 82.2873 21.664 82.3913 21.672C82.5913 21.688 83.0633 21.696 83.8073 21.696C84.2153 21.696 84.4993 21.692 84.6593 21.684C84.7153 21.676 84.7873 21.672 84.8753 21.672C85.0193 21.672 85.0913 21.712 85.0913 21.792C85.0913 21.864 84.9593 21.9 84.6953 21.9C84.4393 21.9 84.2833 21.932 84.2273 21.996C84.1793 22.052 84.1553 22.24 84.1553 22.56V25.32H87.7673V22.74C87.7673 22.316 87.7353 22.068 87.6713 21.996C87.6073 21.916 87.3833 21.88 86.9993 21.888C86.8793 21.888 86.8193 21.852 86.8193 21.78C86.8193 21.708 86.8873 21.672 87.0233 21.672H87.0833C87.1953 21.672 87.3913 21.672 87.6713 21.672C87.9593 21.68 88.1753 21.684 88.3193 21.684C88.8073 21.684 89.1353 21.68 89.3033 21.672C89.4793 21.664 89.5913 21.66 89.6393 21.66C89.8073 21.66 89.8913 21.696 89.8913 21.768C89.8913 21.84 89.7153 21.88 89.3633 21.888C89.2593 21.888 89.1833 21.896 89.1353 21.912C89.0553 21.936 89.0033 21.98 88.9793 22.044C88.9633 22.108 88.9553 22.296 88.9553 22.608V28.992C88.9553 29.376 88.9753 29.6 89.0153 29.664C89.0953 29.752 89.3273 29.796 89.7113 29.796C89.8393 29.78 89.9033 29.812 89.9033 29.892ZM95.3263 24.852C95.3263 24.908 95.2303 24.94 95.0383 24.948C94.8463 24.956 94.7223 24.972 94.6663 24.996C94.6183 25.02 94.5743 25.088 94.5343 25.2L94.4503 25.416L94.3543 25.716C94.2423 26.084 94.0743 26.632 93.8503 27.36C93.2183 29.392 92.6943 30.968 92.2783 32.088C92.0223 32.768 91.6703 33.108 91.2223 33.108C91.0303 33.108 90.8703 33.052 90.7423 32.94C90.6223 32.828 90.5623 32.684 90.5623 32.508C90.5623 32.356 90.6103 32.232 90.7063 32.136C90.8103 32.04 90.9423 31.992 91.1023 31.992C91.3183 31.992 91.4743 32.08 91.5703 32.256C91.6423 32.392 91.7023 32.46 91.7503 32.46C91.8223 32.46 91.9343 32.264 92.0863 31.872C92.3103 31.288 92.4863 30.764 92.6143 30.3C92.0223 28.748 91.5183 27.392 91.1023 26.232C90.8143 25.44 90.6543 25.04 90.6223 25.032C90.5743 24.992 90.4463 24.972 90.2383 24.972C90.0223 24.972 89.9143 24.932 89.9143 24.852C89.9143 24.788 89.9663 24.756 90.0703 24.756C90.1583 24.756 90.2943 24.764 90.4783 24.78C90.6623 24.788 90.8023 24.792 90.8983 24.792C90.9303 24.792 91.0023 24.792 91.1143 24.792C91.2823 24.784 91.5143 24.776 91.8103 24.768L92.4223 24.756C92.5103 24.756 92.5543 24.788 92.5543 24.852C92.5543 24.908 92.4063 24.94 92.1103 24.948C91.8623 24.956 91.7383 24.996 91.7383 25.068C91.7383 25.132 91.8183 25.38 91.9783 25.812C92.0423 25.996 92.1103 26.188 92.1823 26.388L92.3863 26.988C92.4423 27.164 92.5903 27.564 92.8303 28.188C92.9103 28.38 92.9983 28.612 93.0943 28.884C93.8623 26.476 94.2463 25.212 94.2463 25.092C94.2463 25.02 94.2143 24.976 94.1503 24.96C94.0943 24.944 93.9263 24.936 93.6463 24.936C93.5663 24.936 93.5263 24.904 93.5263 24.84C93.5263 24.784 93.5743 24.756 93.6703 24.756C93.7103 24.756 93.7423 24.76 93.7663 24.768C94.0383 24.784 94.2623 24.792 94.4383 24.792H94.7743C94.9183 24.792 95.0103 24.788 95.0503 24.78C95.0983 24.772 95.1543 24.768 95.2183 24.768C95.2903 24.768 95.3263 24.796 95.3263 24.852ZM100.455 27.408C100.455 28.184 100.219 28.836 99.7467 29.364C99.2747 29.884 98.6867 30.144 97.9827 30.144C97.2547 30.144 96.6467 29.884 96.1587 29.364C95.6707 28.836 95.4267 28.184 95.4267 27.408C95.4267 26.608 95.6627 25.944 96.1347 25.416C96.6147 24.888 97.2107 24.624 97.9227 24.624C98.6427 24.624 99.2427 24.892 99.7227 25.428C100.211 25.956 100.455 26.616 100.455 27.408ZM99.3627 27.396C99.3627 26.516 99.2267 25.832 98.9547 25.344C98.7547 24.984 98.4187 24.804 97.9467 24.804C97.4987 24.804 97.1467 25.036 96.8907 25.5C96.6427 25.956 96.5187 26.592 96.5187 27.408C96.5187 28.216 96.6507 28.848 96.9147 29.304C97.1867 29.752 97.5627 29.976 98.0427 29.976C98.4107 29.976 98.6827 29.836 98.8587 29.556C99.1947 29.028 99.3627 28.308 99.3627 27.396ZM106.82 29.592C106.82 29.648 106.732 29.68 106.556 29.688C105.932 29.728 105.384 29.864 104.912 30.096C104.88 30.112 104.852 30.12 104.828 30.12C104.78 30.12 104.756 30.088 104.756 30.024L104.768 29.352C104.4 29.88 103.884 30.144 103.22 30.144C102.628 30.144 102.204 29.972 101.948 29.628C101.844 29.484 101.78 29.352 101.756 29.232C101.74 29.112 101.732 28.788 101.732 28.26V25.512C101.732 25.232 101.716 25.068 101.684 25.02C101.652 24.972 101.544 24.944 101.36 24.936L101.204 24.948C100.988 24.964 100.88 24.932 100.88 24.852C100.88 24.796 100.948 24.768 101.084 24.768C101.228 24.768 101.436 24.776 101.708 24.792C101.844 24.8 101.924 24.804 101.948 24.804C102.228 24.804 102.488 24.792 102.728 24.768V28.116C102.728 28.732 102.768 29.14 102.848 29.34C102.976 29.652 103.236 29.808 103.628 29.808C104.052 29.808 104.364 29.632 104.564 29.28C104.708 29.024 104.78 28.616 104.78 28.056V26.196C104.78 25.924 104.776 25.72 104.768 25.584L104.744 25.188C104.736 25.068 104.708 25 104.66 24.984C104.62 24.96 104.532 24.948 104.396 24.948C104.06 24.956 103.892 24.92 103.892 24.84C103.892 24.792 103.976 24.768 104.144 24.768H104.252C104.316 24.776 104.528 24.78 104.888 24.78C105.368 24.78 105.664 24.776 105.776 24.768V28.116C105.776 28.692 105.788 29.056 105.812 29.208C105.836 29.36 105.896 29.448 105.992 29.472C106.096 29.496 106.324 29.508 106.676 29.508C106.772 29.508 106.82 29.536 106.82 29.592ZM112.523 29.928C112.523 29.992 112.463 30.024 112.343 30.024H112.199C112.055 30.008 111.859 30 111.611 30C110.827 30 110.363 30.008 110.219 30.024H110.135C110.031 30.024 109.979 29.996 109.979 29.94C109.979 29.9 109.999 29.876 110.039 29.868C110.087 29.86 110.243 29.852 110.507 29.844C110.659 29.836 110.747 29.816 110.771 29.784C110.795 29.744 110.807 29.612 110.807 29.388V27.084C110.807 26.212 110.775 25.692 110.711 25.524C110.575 25.164 110.303 24.984 109.895 24.984C109.495 24.984 109.159 25.16 108.887 25.512C108.807 25.616 108.767 25.76 108.767 25.944L108.779 29.688C108.779 29.784 108.863 29.836 109.031 29.844L109.391 29.856C109.471 29.856 109.511 29.884 109.511 29.94C109.511 29.996 109.463 30.024 109.367 30.024H109.175C108.999 30.008 108.719 30 108.335 30C108.247 30 108.055 30.004 107.759 30.012C107.471 30.02 107.303 30.024 107.255 30.024H107.183C107.063 30.024 107.003 29.996 107.003 29.94C107.003 29.884 107.075 29.848 107.219 29.832C107.323 29.832 107.423 29.832 107.519 29.832C107.639 29.832 107.711 29.804 107.735 29.748L107.771 29.568V26.952C107.771 26.04 107.763 25.536 107.747 25.44C107.731 25.344 107.631 25.296 107.447 25.296C107.391 25.296 107.295 25.304 107.159 25.32H107.099C106.939 25.32 106.859 25.292 106.859 25.236C106.859 25.164 106.943 25.128 107.111 25.128C107.351 25.12 107.611 25.076 107.891 24.996C108.171 24.916 108.367 24.824 108.479 24.72C108.551 24.656 108.607 24.624 108.647 24.624C108.703 24.624 108.731 24.7 108.731 24.852V25.428C109.147 24.892 109.683 24.624 110.339 24.624C110.915 24.624 111.331 24.836 111.587 25.26C111.731 25.5 111.803 25.956 111.803 26.628V29.364C111.803 29.62 111.815 29.76 111.839 29.784C111.887 29.832 112.003 29.856 112.187 29.856C112.211 29.856 112.255 29.852 112.319 29.844H112.403C112.483 29.844 112.523 29.872 112.523 29.928ZM118.478 25.332C118.478 25.7 118.314 25.884 117.986 25.884C117.874 25.884 117.77 25.848 117.674 25.776C117.586 25.696 117.542 25.608 117.542 25.512C117.542 25.48 117.554 25.432 117.578 25.368C117.602 25.296 117.614 25.24 117.614 25.2C117.614 25.096 117.558 25.044 117.446 25.044C117.35 25.044 117.258 25.096 117.17 25.2C117.082 25.296 117.038 25.396 117.038 25.5C117.038 25.524 117.058 25.66 117.098 25.908C117.138 26.156 117.158 26.344 117.158 26.472C117.158 27.016 116.97 27.472 116.594 27.84C116.218 28.208 115.75 28.392 115.19 28.392C115.046 28.392 114.782 28.332 114.398 28.212C114.294 28.18 114.226 28.164 114.194 28.164C114.026 28.164 113.874 28.232 113.738 28.368C113.602 28.504 113.534 28.652 113.534 28.812C113.534 29.228 113.786 29.436 114.29 29.436C114.482 29.436 114.79 29.4 115.214 29.328C115.542 29.272 115.842 29.244 116.114 29.244C116.602 29.244 116.982 29.372 117.254 29.628C117.534 29.884 117.674 30.24 117.674 30.696C117.674 31.384 117.378 31.956 116.786 32.412C116.202 32.868 115.462 33.096 114.566 33.096C113.902 33.096 113.378 32.96 112.994 32.688C112.618 32.424 112.43 32.056 112.43 31.584C112.43 31.128 112.606 30.784 112.958 30.552C113.134 30.44 113.414 30.34 113.798 30.252C113.23 30.028 112.946 29.684 112.946 29.22C112.946 28.644 113.314 28.244 114.05 28.02C113.57 27.644 113.33 27.148 113.33 26.532C113.33 25.956 113.514 25.496 113.882 25.152C114.25 24.8 114.734 24.624 115.334 24.624C115.662 24.624 115.926 24.668 116.126 24.756C116.334 24.844 116.574 25.02 116.846 25.284C117.102 24.908 117.418 24.72 117.794 24.72C118.25 24.72 118.478 24.924 118.478 25.332ZM116.246 26.52C116.246 25.36 115.926 24.78 115.286 24.78C114.662 24.78 114.35 25.32 114.35 26.4C114.35 27.616 114.682 28.224 115.346 28.224C115.946 28.224 116.246 27.656 116.246 26.52ZM117.17 31.116C117.17 30.452 116.778 30.12 115.994 30.12C115.77 30.12 115.438 30.156 114.998 30.228C114.566 30.3 114.242 30.336 114.026 30.336C113.618 30.552 113.414 30.932 113.414 31.476C113.414 31.884 113.558 32.212 113.846 32.46C114.142 32.708 114.53 32.832 115.01 32.832C115.618 32.832 116.13 32.664 116.546 32.328C116.962 32 117.17 31.596 117.17 31.116Z" fill="white"/>
</svg>
